<svg width="10" height="10" viewBox="0 0 10 10" fill="none" xmlns="http://www.w3.org/2000/svg">
<path d="M1.66619 0.833333C1.66619 0.61232 1.75399 0.400358 1.91027 0.244078C2.06655 0.0877975 2.27851 0 2.49953 0H9.16619C9.38721 0 9.59917 0.0877975 9.75545 0.244078C9.91173 0.400358 9.99953 0.61232 9.99953 0.833333V7.5C9.99953 7.72101 9.91173 7.93297 9.75545 8.08926C9.59917 8.24554 9.38721 8.33333 9.16619 8.33333C8.94518 8.33333 8.73322 8.24554 8.57694 8.08926C8.42066 7.93297 8.33286 7.72101 8.33286 7.5V2.845L1.42203 9.75583C1.26486 9.90763 1.05436 9.99163 0.835858 9.98973C0.617361 9.98783 0.40835 9.90019 0.253844 9.74568C0.0993368 9.59118 0.0116958 9.38216 0.00979713 9.16367C0.00789844 8.94517 0.0918941 8.73467 0.243692 8.5775L7.15453 1.66667H2.49953C2.27851 1.66667 2.06655 1.57887 1.91027 1.42259C1.75399 1.26631 1.66619 1.05435 1.66619 0.833333Z" fill="#FF9960"/>
</svg>
