<svg width="48" height="48" viewBox="0 0 48 48" fill="none" xmlns="http://www.w3.org/2000/svg">
<path d="M24.0935 3.75051C23.575 3.74676 23.1522 4.16395 23.1485 4.68145C23.1447 5.19895 23.561 5.62177 24.0794 5.62552C24.5969 5.62927 25.0197 5.21302 25.0235 4.69552C25.0272 4.17801 24.611 3.7552 24.0935 3.75051Z" fill="#171616"/>
<path d="M24.0493 9.37541C20.4295 9.34972 17.4651 12.2699 17.4377 15.8886C17.4104 19.5071 20.3322 22.473 23.9509 22.5003C23.9677 22.5003 23.9844 22.5004 24.0011 22.5004C27.5967 22.5004 30.5353 19.5889 30.5625 15.9871C30.5898 12.3688 27.6681 9.40269 24.0493 9.37541ZM24.001 20.6255C23.9891 20.6255 23.9768 20.6254 23.965 20.6253C21.3802 20.6058 19.2931 18.4873 19.3126 15.9027C19.332 13.3297 21.4309 11.2501 23.9993 11.2501C24.0111 11.2501 24.0235 11.2502 24.0353 11.2503C26.6201 11.2698 28.7071 13.3884 28.6876 15.973C28.6681 18.546 26.5693 20.6255 24.001 20.6255Z" fill="#171616"/>
<path d="M28.087 4.46138C27.5993 4.28832 27.0631 4.54379 26.89 5.03185C26.7171 5.51991 26.9725 6.0557 27.4605 6.22876C31.5899 7.69229 34.342 11.6252 34.309 16.0152C34.3051 16.5329 34.7217 16.9558 35.2394 16.9598C35.2418 16.9598 35.2442 16.9598 35.2467 16.9598C35.761 16.9598 36.18 16.5447 36.184 16.0293C36.223 10.8405 32.969 6.19173 28.087 4.46138Z" fill="#171616"/>
<path d="M29.7526 35.2915C35.9882 27.2651 39.8851 23.0796 39.9377 16.0573C40.0037 7.22205 32.8335 0 23.9989 0C15.2674 0 8.12941 7.07139 8.06304 15.8183C8.00941 23.031 11.9787 27.2107 18.2573 35.2902C12.0112 36.2236 8.06304 38.5689 8.06304 41.4376C8.06304 43.3592 9.83923 45.0835 13.0645 46.2929C16.0001 47.3937 19.8839 48 24.0004 48C28.1169 48 32.0006 47.3937 34.9362 46.2929C38.1615 45.0834 39.9377 43.3591 39.9377 41.4375C39.9377 38.5704 35.9932 36.2256 29.7526 35.2915ZM9.93795 15.8324C9.99645 8.11408 16.2941 1.875 23.9991 1.875C31.7952 1.875 38.1209 8.24889 38.0628 16.0434C38.0129 22.7122 33.8802 26.8219 27.2824 35.4229C26.1055 36.9562 25.0248 38.406 24.0018 39.8241C22.9818 38.4051 21.9226 36.9814 20.7281 35.4223C13.8575 26.4613 9.88713 22.6621 9.93795 15.8324ZM24.0004 46.1251C15.9518 46.1251 9.93795 43.6504 9.93795 41.4376C9.93795 39.7966 13.5331 37.7236 19.5779 37.0057C20.9141 38.7589 22.0856 40.3518 23.2346 41.9785C23.4101 42.227 23.6953 42.3749 23.9995 42.3751C23.9998 42.3751 24.0001 42.3751 24.0004 42.3751C24.3043 42.3751 24.5894 42.2277 24.7652 41.9797C25.9033 40.3742 27.1069 38.7421 28.4317 37.0068C34.4709 37.7254 38.0628 39.7977 38.0628 41.4377C38.0627 43.6504 32.0489 46.1251 24.0004 46.1251Z" fill="#171616"/>
</svg>
