<svg width="48" height="48" viewBox="0 0 48 48" fill="none" xmlns="http://www.w3.org/2000/svg">
<path d="M31.6568 46.8C31.4575 46.8 31.2568 46.7825 31.0574 46.7467C24.1938 45.5112 17.3519 41.7698 11.7926 36.2105C6.23328 30.6512 2.49189 23.8093 1.25638 16.9457C1.0236 15.6503 1.56644 14.3031 2.63938 13.5134C4.01342 12.5022 5.49395 11.5621 7.03904 10.721C8.06345 10.1636 9.27115 10.1325 10.272 10.6367C13.6934 12.3613 15.9614 15.2338 17.0126 19.174C17.2977 20.2403 17.0437 21.3967 16.3336 22.2665L14.0666 25.0405C13.7033 25.4854 13.659 26.0989 13.9568 26.5672C15.8855 29.6018 18.4013 32.1176 21.4359 34.0458C21.9038 34.3441 22.5173 34.2993 22.9626 33.9365L25.7361 31.67C26.6064 30.9594 27.7613 30.7059 28.8296 30.9905C32.7693 32.0422 35.6418 34.3101 37.3664 37.7316C37.8711 38.7315 37.84 39.9397 37.2826 40.9641C36.441 42.5092 35.5009 43.9897 34.4893 45.3637C33.8216 46.2713 32.7543 46.8 31.6568 46.8ZM8.75471 12.4503C8.52806 12.4503 8.29434 12.5097 8.07758 12.628C6.61825 13.4224 5.22207 14.3088 3.92672 15.262C3.51535 15.565 3.30614 16.0749 3.39378 16.5612C4.55107 22.9931 8.079 29.4261 13.3278 34.6753C18.577 39.9241 25.01 43.452 31.4419 44.6093C31.9292 44.6965 32.4381 44.4873 32.7406 44.0764C33.6943 42.781 34.5807 41.3848 35.3756 39.9255C35.5919 39.5278 35.6117 39.0731 35.4279 38.7093C33.9733 35.8241 31.6318 33.9855 28.2693 33.0883C27.8754 32.9837 27.4409 33.0812 27.1097 33.3517L24.3366 35.6177C23.1647 36.5752 21.5301 36.6798 20.271 35.8783C16.966 33.7781 14.225 31.0371 12.1243 27.7321C11.3233 26.4721 11.4279 24.8379 12.3854 23.6665L14.6519 20.893C14.9219 20.5622 15.0204 20.1291 14.9148 19.7343C14.0176 16.3713 12.179 14.0298 9.29424 12.5752C9.12838 12.4918 8.94414 12.4503 8.75471 12.4503Z" fill="#171616"/>
<path d="M45.6965 25.1404C45.6809 25.1404 45.6654 25.1399 45.6503 25.1395C45.0509 25.1145 44.5858 24.6084 44.6108 24.0095C44.8426 18.4771 42.7378 13.0662 38.8362 9.16365C34.9341 5.26204 29.5345 3.14632 23.9903 3.38899C23.4135 3.40407 22.8853 2.94936 22.8603 2.34951C22.8354 1.7506 23.3004 1.24453 23.8993 1.21955C30.0378 0.959447 36.0405 3.29805 40.3714 7.62845C44.7018 11.9588 47.0375 17.963 46.7803 24.1005C46.7558 24.6838 46.2751 25.1404 45.6965 25.1404Z" fill="#171616"/>
<path d="M39.92 25.1404C39.8988 25.1404 39.8771 25.1399 39.8554 25.1385C39.2565 25.1032 38.7999 24.5896 38.8352 23.9911C39.0708 19.9882 37.5847 16.0706 34.7569 13.2429C31.9292 10.4152 28.0092 8.93276 24.0087 9.16459C23.407 9.20465 22.8966 8.74333 22.8613 8.14443C22.826 7.54599 23.2826 7.03238 23.8815 6.99704C28.4974 6.72232 33.0267 8.44176 36.2921 11.7077C39.5581 14.9736 41.2752 19.4972 41.0028 24.1184C40.9689 24.6956 40.4906 25.1404 39.92 25.1404Z" fill="#171616"/>
<path d="M34.15 25.1404C34.1161 25.1404 34.0822 25.139 34.0478 25.1357C33.4508 25.0801 33.0121 24.5509 33.0677 23.9539C33.2976 21.4886 32.4268 19.0713 30.6777 17.3221C28.9286 15.5735 26.5132 14.7018 24.0459 14.9322C23.4494 14.9864 22.9193 14.5491 22.8641 13.9521C22.8085 13.355 23.2472 12.8259 23.8442 12.7703C26.958 12.4805 30.0058 13.5798 32.2129 15.7869C34.4205 17.9941 35.5198 21.0447 35.2296 24.1556C35.1773 24.7182 34.7042 25.1404 34.15 25.1404Z" fill="#171616"/>
</svg>
