<svg width="48" height="48" viewBox="0 0 48 48" fill="none" xmlns="http://www.w3.org/2000/svg">
<path d="M24.0016 38.2359C23.4672 38.2359 22.9328 38.0484 22.5062 37.6734L3.8125 21.2344L5.05 19.8281L23.7437 36.2672C23.8891 36.3937 24.1094 36.3937 24.2547 36.2672L42.9531 19.8281L44.1906 21.2344L25.4969 37.6734C25.0703 38.0484 24.5359 38.2359 24.0016 38.2359Z" fill="#171616"/>
<path d="M42.4453 45.1782H5.55469C4.41563 45.1782 3.49219 44.2501 3.49219 43.1157V20.1048L22.5047 3.38916C23.3578 2.63916 24.6422 2.63916 25.4953 3.38916L44.5078 20.1095V43.1157C44.5078 44.2501 43.5797 45.1782 42.4453 45.1782ZM5.36719 20.9532V43.111C5.36719 43.2142 5.45156 43.2985 5.55469 43.2985H42.4406C42.5438 43.2985 42.6281 43.2142 42.6281 43.111V20.9532L24.2531 4.79541C24.1078 4.66885 23.8875 4.66885 23.7422 4.79541L5.36719 20.9532Z" fill="#171616"/>
<path d="M13.3516 33.9841L14.6772 35.3098L5.09292 44.894L3.7673 43.5684L13.3516 33.9841Z" fill="#171616"/>
<path d="M34.6484 33.9807L44.2327 43.565L42.9071 44.8906L33.3228 35.3063L34.6484 33.9807Z" fill="#171616"/>
<path d="M24.2578 26.0437H23.7422C21.375 26.0437 19.4531 24.1172 19.4531 21.7547V19.2891C19.4531 16.9219 21.3797 15 23.7422 15H24.2578C26.625 15 28.5469 16.9266 28.5469 19.2891V21.7547C28.5469 24.1219 26.625 26.0437 24.2578 26.0437ZM23.7422 16.875C22.4109 16.875 21.3281 17.9578 21.3281 19.2891V21.7547C21.3281 23.0859 22.4109 24.1687 23.7422 24.1687H24.2578C25.5891 24.1687 26.6719 23.0859 26.6719 21.7547V19.2891C26.6719 17.9578 25.5891 16.875 24.2578 16.875H23.7422Z" fill="#171616"/>
<path d="M24 29.3391C19.1391 29.3391 15.1875 25.3875 15.1875 20.5266C15.1875 15.6657 19.1391 11.7141 24 11.7141C28.8609 11.7141 32.8125 15.6657 32.8125 20.5266V21.6235C32.8125 23.3157 31.4344 24.6938 29.7422 24.6938C28.05 24.6938 26.6719 23.3157 26.6719 21.6235H28.5469C28.5469 22.2844 29.0813 22.8188 29.7422 22.8188C30.4031 22.8188 30.9375 22.2844 30.9375 21.6235V20.5266C30.9375 16.7016 27.825 13.5891 24 13.5891C20.175 13.5891 17.0625 16.7016 17.0625 20.5266C17.0625 24.3516 20.175 27.4641 24 27.4641C25.1297 27.4641 26.2031 27.2016 27.1969 26.686L28.0641 28.35C26.8172 28.9969 25.4109 29.3391 24 29.3391Z" fill="#171616"/>
</svg>
