<svg width="44" height="40" viewBox="0 0 44 40" fill="none" xmlns="http://www.w3.org/2000/svg">
<path d="M1.45898 27.9275L11.476 39.8659L21.5275 31.4327L11.5335 19.4752L1.45898 27.9275ZM33.9184 0.69519L24.3578 8.718C27.6904 12.7064 31.4602 17.2125 34.3518 20.6755L43.9316 12.6374L33.9184 0.69519ZM35.6365 14.5127C34.8043 13.5194 34.9347 12.0391 35.9241 11.2069C36.9136 10.3747 38.3977 10.5051 39.2299 11.4945C40.0621 12.4878 39.9355 13.9681 38.9423 14.8003C37.949 15.6325 36.4687 15.5021 35.6365 14.5127Z" fill="#4AD2CC"/>
<path d="M34.375 37.4191L39.5983 39.8275L38.1525 34.259C37.117 35.5131 35.7978 36.6176 34.375 37.4191Z" fill="#F38073"/>
<path d="M38.5539 39.9579C38.4964 39.9579 38.4389 39.9463 38.3813 39.9195L33.1581 37.5111C33.02 37.4459 32.928 37.3079 32.9203 37.1545C32.9126 37.0011 32.9932 36.8553 33.1274 36.7825C34.5118 36.004 35.7774 34.9417 36.7898 33.7183C36.8895 33.5994 37.0468 33.5457 37.1963 33.5803C37.3459 33.6148 37.4648 33.7298 37.5031 33.8794L38.9489 39.4478C38.9873 39.6012 38.9374 39.7623 38.8147 39.8658C38.7418 39.9272 38.6498 39.9579 38.5539 39.9579ZM34.205 37.0931L37.9403 38.815L36.9049 34.8343C36.1072 35.6933 35.1906 36.4603 34.205 37.0931Z" fill="white" fill-opacity="0.72"/>
<path d="M16.7102 2.82357L15.506 1.38928C15.0765 0.87923 14.3172 0.814029 13.8071 1.23971L6.02209 7.77072C5.51204 8.20024 5.44684 8.95956 5.87253 9.46962L7.07672 10.9039L16.7102 2.82357Z" fill="#F38073"/>
<path d="M6.0282 11.0383C5.90932 11.0383 5.79427 10.9884 5.71373 10.8925L4.50954 9.45824C3.93813 8.77561 4.02633 7.75551 4.70896 7.18409L12.494 0.653088C12.8238 0.376968 13.2418 0.242743 13.6714 0.281093C14.1009 0.319443 14.492 0.522694 14.7682 0.852504L15.9724 2.2868C16.1181 2.45938 16.0951 2.72015 15.9225 2.86588C15.7499 3.01161 15.4891 2.98861 15.3434 2.81603L14.1392 1.38174C14.0012 1.22067 13.8094 1.12096 13.5985 1.10179C13.3876 1.08261 13.1805 1.1478 13.0194 1.28586L5.23436 7.81686C4.89688 8.10065 4.85469 8.60304 5.13465 8.93669L6.33884 10.371C6.48457 10.5435 6.46156 10.8043 6.28898 10.9501C6.21612 11.0038 6.12024 11.0383 6.0282 11.0383Z" fill="white" fill-opacity="0.72"/>
<path d="M32.1911 37.0242C32.1259 37.0242 32.0645 37.0089 32.0031 36.9782L25.5105 33.6187C25.3111 33.5152 25.2305 33.2659 25.3341 33.0665C25.4376 32.8671 25.6869 32.7865 25.8863 32.8901L32.379 36.2495C32.5784 36.3531 32.6589 36.6023 32.5554 36.8018C32.4825 36.9437 32.3368 37.0242 32.1911 37.0242Z" fill="white" fill-opacity="0.72"/>
<path d="M36.7945 33.1775C36.6181 33.1775 36.457 33.0625 36.4033 32.8899L34.248 25.9179C34.1828 25.6993 34.3017 25.473 34.5203 25.404C34.7389 25.3388 34.9652 25.4577 35.0342 25.6763L37.1895 32.6483C37.2547 32.8669 37.1358 33.0932 36.9172 33.1622C36.875 33.1699 36.8328 33.1775 36.7945 33.1775Z" fill="white" fill-opacity="0.72"/>
<path d="M9.82648 12.8214C9.7076 12.8214 9.59255 12.7716 9.51201 12.6757C9.36628 12.5031 9.38929 12.2424 9.56187 12.0966L16.4917 6.28276C16.6643 6.13703 16.9251 6.16005 17.0708 6.33262C17.2165 6.5052 17.1935 6.76598 17.0209 6.91171L10.0911 12.7256C10.0144 12.7869 9.92236 12.8214 9.82648 12.8214Z" fill="white" fill-opacity="0.72"/>
<path d="M10.4275 40C10.3086 40 10.1936 39.9502 10.113 39.8543L0.0959968 27.916C-0.0497331 27.7434 -0.0267227 27.4826 0.145852 27.3369L2.52355 25.3427C2.53889 25.3312 5.29242 23.0187 5.29242 23.0187L8.04979 20.7062C8.06129 20.6947 10.113 18.9766 10.113 18.9766C10.2856 18.8309 10.5464 18.8539 10.6921 19.0264C10.8378 19.199 10.8148 19.4598 10.6422 19.6055L8.89732 21.0628L10.7381 23.2603C10.8033 23.337 10.834 23.4329 10.834 23.5249C10.834 23.6399 10.7841 23.7588 10.6883 23.8394C10.5157 23.9851 10.2549 23.9621 10.1092 23.7895L8.26838 21.5921L6.13229 23.383L7.97309 25.5766C8.03828 25.6533 8.06896 25.7492 8.06896 25.8412C8.06896 25.9601 8.0191 26.0752 7.92323 26.1557C7.75066 26.3014 7.48988 26.2784 7.34415 26.1058L5.50335 23.9084L3.36725 25.6993L6.6922 29.6609C6.75739 29.7376 6.78807 29.8335 6.78807 29.9255C6.78807 30.0405 6.73822 30.1594 6.64234 30.24C6.46977 30.3857 6.20899 30.3627 6.06326 30.1901L2.73831 26.2286L0.981882 27.7012L10.4735 39.0106L20.107 30.9303C20.2796 30.7845 20.5404 30.8075 20.6861 30.9801C20.8318 31.1527 20.8088 31.4135 20.6363 31.5592L10.6921 39.9042C10.6154 39.9694 10.5195 40 10.4275 40ZM6.61166 33.0319C6.49278 33.0319 6.37773 32.982 6.29719 32.8861C6.232 32.8094 6.20132 32.7136 6.20132 32.6215C6.20132 32.5065 6.25117 32.3876 6.34705 32.307L15.11 24.9553C15.2826 24.8096 15.5434 24.8326 15.6891 25.0052C15.7543 25.0819 15.785 25.1778 15.785 25.2698C15.785 25.3849 15.7351 25.5038 15.6392 25.5843L6.87628 32.936C6.79574 32.9973 6.7037 33.0319 6.61166 33.0319Z" fill="white" fill-opacity="0.72"/>
<path d="M33.4102 20.7139C33.2913 20.7139 33.1763 20.664 33.0957 20.5682C32.95 20.3956 32.973 20.1348 33.1456 19.9891L42.3036 12.3037L32.8119 0.994327L31.0018 2.51298L34.3268 6.47453C34.392 6.55123 34.4226 6.64711 34.4226 6.73915C34.4226 6.8542 34.3728 6.97309 34.2769 7.05362C34.1043 7.19935 33.8436 7.17634 33.6978 7.00376L30.3767 3.03838L28.2406 4.82933L30.0814 7.02295C30.1466 7.09965 30.1773 7.19551 30.1773 7.28755C30.1773 7.4026 30.1274 7.52149 30.0316 7.60202C29.859 7.74775 29.5982 7.72474 29.4525 7.55217L27.6117 5.35472L25.4756 7.14566L27.3164 9.33928C27.3816 9.41598 27.4123 9.51185 27.4123 9.60389C27.4123 9.71894 27.3624 9.83783 27.2665 9.91837C27.0939 10.0641 26.8332 10.0411 26.6874 9.86851L24.8466 7.67105L23.6731 8.65665C23.5006 8.80238 23.2398 8.77937 23.094 8.60679C22.9483 8.43422 22.9713 8.17344 23.1439 8.02771L27.3969 4.46116L30.162 2.14099L32.601 0.0969267C32.6854 0.0278967 32.7889 -0.00661825 32.9001 0.00105174C33.0075 0.00872174 33.1072 0.0624136 33.1801 0.146784L43.1971 12.0851C43.3428 12.2577 43.3198 12.5185 43.1473 12.6642L33.6748 20.6142C33.5943 20.6832 33.5022 20.7139 33.4102 20.7139ZM36.3823 15.4791C35.5961 15.4791 34.8138 15.1455 34.2692 14.4974C33.7975 13.9336 33.5713 13.2165 33.6365 12.484C33.7017 11.7515 34.0468 11.0842 34.6106 10.6125C35.1743 10.1408 35.8876 9.9107 36.6239 9.97973C37.3564 10.0449 38.0237 10.3901 38.4954 10.9538C38.9671 11.5176 39.1934 12.2347 39.1282 12.9672C39.063 13.6997 38.7178 14.367 38.1541 14.8387C37.6364 15.2682 37.0113 15.4791 36.3823 15.4791ZM36.3785 10.7889C35.926 10.7889 35.4888 10.9462 35.1359 11.2414C34.7409 11.5751 34.4955 12.043 34.4495 12.5568C34.4035 13.0707 34.5645 13.5731 34.8943 13.972C35.5808 14.7927 36.8042 14.8962 37.6249 14.2097C38.0199 13.8761 38.2653 13.4082 38.3113 12.8943C38.3573 12.3804 38.1963 11.8781 37.8665 11.4792C37.5328 11.0842 37.065 10.8388 36.5511 10.7927C36.4935 10.7889 36.436 10.7889 36.3785 10.7889ZM28.4094 14.7351C28.2905 14.7351 28.1754 14.6853 28.0949 14.5894C28.0297 14.5127 27.999 14.4168 27.999 14.3248C27.999 14.2097 28.0489 14.0908 28.1447 14.0103L36.4168 7.06896C36.5894 6.92323 36.8502 6.94625 36.9959 7.11882C37.0611 7.19552 37.0918 7.29139 37.0918 7.38343C37.0918 7.49848 37.0419 7.61736 36.9461 7.6979L28.674 14.6392C28.5973 14.7044 28.5052 14.7351 28.4094 14.7351Z" fill="white" fill-opacity="0.72"/>
<path d="M36.3857 15.4829C36.3052 15.4829 36.2208 15.4791 36.1403 15.4714C35.4078 15.4062 34.7405 15.0611 34.2688 14.4973C33.7971 13.9336 33.5708 13.2164 33.636 12.4839C33.7012 11.7515 34.0464 11.0842 34.6101 10.6125C35.1738 10.1408 35.8872 9.91066 36.6235 9.97969C37.356 10.0449 38.0232 10.39 38.4949 10.9538C38.9667 11.5175 39.1929 12.2347 39.1277 12.9672C39.0625 13.6996 38.7174 14.3669 38.1536 14.8386C37.6512 15.2566 37.0338 15.4829 36.3857 15.4829ZM36.378 10.7889C35.9255 10.7889 35.4883 10.9461 35.1355 11.2414C34.7405 11.5751 34.495 12.0429 34.449 12.5568C34.403 13.0707 34.5641 13.5731 34.8939 13.9719C35.2275 14.3669 35.6954 14.6124 36.2093 14.6584C36.7232 14.7044 37.2256 14.5433 37.6244 14.2135C38.0194 13.8799 38.2648 13.412 38.3109 12.8981C38.3569 12.3842 38.1958 11.8818 37.866 11.483C37.5324 11.088 37.0645 10.8426 36.5506 10.7965C36.4931 10.7889 36.4355 10.7889 36.378 10.7889Z" fill="white" fill-opacity="0.72"/>
<path d="M8.12695 12.158L17.7566 4.07764C17.772 4.09681 34.7649 24.4223 34.7649 24.4223C34.6652 24.6026 34.5501 24.7675 34.4581 24.9055L34.3852 25.0052C34.1091 25.4002 33.7869 25.8067 33.3958 26.2631C32.6058 27.1643 31.6777 28.0541 30.5885 28.986C29.4649 29.9217 28.4256 30.6964 27.3671 31.3483C26.8801 31.6475 26.4161 31.9044 25.9674 32.1192C25.6913 32.2572 25.4151 32.3799 25.116 32.4873L8.12695 12.158Z" fill="#FF9960"/>
<path d="M24.0752 32.6138C23.9563 32.6138 23.8413 32.5601 23.7608 32.4681L6.76787 12.1426C6.62214 11.97 6.64515 11.7092 6.81773 11.5673L16.4474 3.48699C16.62 3.34126 16.8808 3.36426 17.0227 3.53684C17.038 3.55601 32.2936 21.7991 34.0309 23.8815C34.1421 24.0119 34.1574 24.1998 34.0731 24.3456C33.9657 24.5335 33.8468 24.7137 33.7471 24.8556L33.6704 24.963C33.3828 25.3733 33.0491 25.7952 32.6541 26.2515C31.8871 27.1259 30.9552 28.031 29.8047 29.0166C28.5852 30.029 27.5497 30.7922 26.5335 31.4173C26.0387 31.7241 25.5555 31.9925 25.0953 32.2073C24.7617 32.3722 24.4856 32.4911 24.2056 32.5908C24.1673 32.6061 24.1174 32.6138 24.0752 32.6138ZM7.65759 11.9317L24.1979 31.7164C24.3629 31.6474 24.5393 31.5669 24.7387 31.4671C25.1759 31.2601 25.6322 31.007 26.1039 30.7155C27.0857 30.1096 28.0943 29.3732 29.2793 28.3876C30.3991 27.4327 31.3004 26.5545 32.0405 25.7108C32.4164 25.2775 32.7308 24.8748 33.0031 24.4874L33.076 24.3839C33.1182 24.3225 33.1642 24.2535 33.214 24.1768C31.5036 22.1289 18.664 6.77359 16.6583 4.37288L7.65759 11.9317Z" fill="white" fill-opacity="0.72"/>
<path d="M9.86945 15.6171C9.75057 15.6171 9.63552 15.5672 9.55498 15.4714C9.40925 15.2988 9.43226 15.038 9.60484 14.8923L19.2345 6.81194C19.4071 6.66621 19.6679 6.68922 19.8136 6.8618C19.9593 7.03437 19.9363 7.29515 19.7638 7.44088L10.1341 15.5212C10.0574 15.5864 9.96533 15.6171 9.86945 15.6171Z" fill="white" fill-opacity="0.72"/>
<path d="M27.566 30.5277C27.4471 30.5277 27.3321 30.4778 27.2516 30.3819L12.6019 12.9212C12.4561 12.7486 12.4791 12.4878 12.6517 12.3421C12.8243 12.1964 13.0851 12.2194 13.2308 12.3919L27.8805 29.8527C28.0262 30.0253 28.0032 30.286 27.8306 30.4318C27.7501 30.497 27.6581 30.5277 27.566 30.5277Z" fill="white" fill-opacity="0.72"/>
<path d="M31.1149 27.5478C30.996 27.5478 30.8809 27.4979 30.8004 27.4021L16.1507 9.94132C16.005 9.76875 16.028 9.50796 16.2005 9.36223C16.3731 9.2165 16.6339 9.23951 16.7796 9.41209L31.4293 26.8728C31.5751 27.0454 31.552 27.3062 31.3795 27.4519C31.3028 27.5171 31.2069 27.5478 31.1149 27.5478Z" fill="white" fill-opacity="0.72"/>
</svg>
