<svg width="39" height="47" viewBox="0 0 39 47" fill="none" xmlns="http://www.w3.org/2000/svg">
<path d="M4.84553 24.1709C2.37018 15.9771 7.00592 7.32801 15.1997 4.85266C23.3936 2.37731 32.0426 7.01305 34.518 15.2069C36.9933 23.4007 32.3576 32.0498 24.1638 34.5251C15.97 37.0005 7.32088 32.3647 4.84553 24.1709Z" fill="#FF9960"/>
<path d="M20.506 34.7902C22.4749 34.7902 24.4476 34.4187 26.3322 33.6794C34.5178 30.4618 38.5628 21.1807 35.3414 12.995C33.7862 9.03431 30.7716 5.91633 26.8608 4.21178C22.9499 2.50723 18.6138 2.42679 14.657 3.98195C10.6963 5.53711 7.57829 8.55167 5.87374 12.4626C4.16919 16.3734 4.08875 20.7095 5.64774 24.6702C7.2029 28.6309 10.2175 31.7489 14.1283 33.4534C16.1738 34.3459 18.338 34.7902 20.506 34.7902ZM20.4831 3.7866C22.5247 3.7866 24.5663 4.20795 26.4969 5.05065C30.1856 6.6556 33.0239 9.59739 34.491 13.3321C37.5247 21.0504 33.7134 29.7992 25.9951 32.8329C22.2604 34.2999 18.1771 34.2233 14.4884 32.6184C10.7997 31.0134 7.96133 28.0716 6.49427 24.3369C5.02721 20.6023 5.10381 16.519 6.70877 12.8303C8.31373 9.14156 11.2555 6.3032 14.9902 4.83614C16.7675 4.13517 18.6291 3.7866 20.4831 3.7866Z" fill="white" fill-opacity="0.72"/>
<path d="M21.6493 39.429L21.6493 41.076C21.6493 42.206 22.5686 43.1253 23.6985 43.1253L29.3676 43.1253C29.9766 43.1253 30.4746 43.6195 30.4746 44.2323L30.4746 46.9903L8.88621 46.9903L8.88621 44.2323C8.88621 43.6233 9.38034 43.1253 9.99321 43.1253L15.6661 43.1253C16.7961 43.1253 17.7154 42.2099 17.7154 41.076L17.7154 39.429L21.6493 39.429Z" fill="#4AD2CC"/>
<path d="M9.69992 46.5804L31.2883 46.5804C31.5411 46.5804 31.7441 46.3774 31.7441 46.1245L31.7441 43.3666C31.7441 42.5048 31.0432 41.8038 30.1813 41.8038L24.5084 41.8038C23.6313 41.8038 22.915 41.0875 22.915 40.2103L22.915 38.5632C22.915 38.3104 22.7119 38.1074 22.4591 38.1074C22.2063 38.1074 22.0033 38.3104 22.0033 38.5632L22.0033 40.2103C22.0033 41.5931 23.1256 42.7155 24.5084 42.7155L30.1813 42.7155C30.5375 42.7155 30.8325 43.0066 30.8325 43.3666L30.8325 45.6687L10.1557 45.6687L10.1557 43.3666C10.1557 43.0104 10.4469 42.7155 10.8069 42.7155L16.4798 42.7155C17.8626 42.7155 18.9849 41.5931 18.9849 40.2103L18.9849 38.5632C18.9849 38.3104 18.7819 38.1074 18.5291 38.1074C18.2763 38.1074 18.0733 38.3104 18.0733 38.5632L18.0733 40.2103C18.0733 41.0875 17.357 41.8038 16.4798 41.8038L10.8069 41.8038C9.94507 41.8038 9.2441 42.5048 9.2441 43.3666L9.2441 46.1245C9.2441 46.3774 9.44711 46.5804 9.69992 46.5804Z" fill="white" fill-opacity="0.72"/>
<path d="M20.5766 37.4905C21.8866 37.4905 23.2119 37.3488 24.5296 37.0577C24.7747 37.0041 24.9318 36.7589 24.8782 36.5138C24.8245 36.2686 24.5832 36.1154 24.3342 36.1652C15.8919 38.0345 7.14319 33.3766 3.97541 25.325C0.819125 17.3003 3.8605 8.20677 11.2073 3.70217C11.4218 3.57193 11.4908 3.28848 11.3567 3.07397C11.2265 2.85947 10.943 2.79052 10.7285 2.92458C3.00631 7.66285 -0.192108 17.2236 3.12506 25.6621C5.95959 32.8672 13.0536 37.4905 20.5766 37.4905Z" fill="white" fill-opacity="0.72"/>
<path d="M26.1642 33.7139C26.2217 33.7139 26.2753 33.7024 26.3328 33.6833C26.5664 33.5913 26.6813 33.327 26.5894 33.0934L15.2513 4.25012C15.1594 4.01646 14.8951 3.90155 14.6614 3.99348C14.4277 4.08541 14.3128 4.34971 14.4048 4.58337L25.7429 33.4266C25.8118 33.6028 25.9842 33.7139 26.1642 33.7139Z" fill="white" fill-opacity="0.72"/>
<path d="M24.0637 34.1047C24.8412 34.1047 25.6035 33.9668 26.3313 33.6795C28.7789 32.7181 30.4299 30.2704 30.9776 26.7847C31.51 23.391 30.9393 19.3268 29.3727 15.3394C26.1015 7.01196 19.6357 2.02089 14.6599 3.98207C12.2123 4.94352 10.5613 7.39117 10.0136 10.8769C9.48114 14.2707 10.0519 18.3348 11.6185 22.3223C14.4109 29.4277 19.5284 34.1047 24.0637 34.1047ZM16.9658 4.46471C21.1104 4.46471 25.8716 8.93101 28.5223 15.6764C30.0315 19.5145 30.5831 23.4101 30.0736 26.6468C29.5795 29.7955 28.1316 31.9941 25.998 32.833C21.4973 34.6027 15.5524 29.8414 12.4689 21.989C10.9597 18.1509 10.4081 14.2553 10.9176 11.0186C11.4117 7.86998 12.8596 5.6713 14.9932 4.83243C15.6252 4.58728 16.284 4.46471 16.9658 4.46471Z" fill="white" fill-opacity="0.72"/>
<path d="M14.0614 33.3727C14.2415 33.3727 14.41 33.2654 14.4828 33.0931C16.0648 29.2818 19.041 26.3553 22.8638 24.85C26.6866 23.3484 30.8618 23.4633 34.6118 25.1794C34.8416 25.2866 35.1136 25.1832 35.217 24.9534C35.3204 24.7236 35.2208 24.4516 34.991 24.3482C31.0112 22.5287 26.5832 22.4061 22.5267 23.9996C18.4703 25.5931 15.314 28.6996 13.6363 32.7407C13.5405 32.9743 13.6516 33.2425 13.8814 33.3382C13.9427 33.3612 14.0002 33.3727 14.0614 33.3727Z" fill="white" fill-opacity="0.72"/>
<path d="M12.6376 14.7762C14.6026 14.7762 16.5715 14.4047 18.4599 13.6654C22.5163 12.072 25.6726 8.96546 27.3503 4.92434C27.4461 4.69068 27.335 4.42255 27.1052 4.32679C26.8715 4.23103 26.6034 4.34211 26.5076 4.57194C24.9257 8.38323 21.9494 11.3097 18.1266 12.8151C14.3038 14.3166 10.1325 14.2017 6.37864 12.4856C6.14881 12.3822 5.87685 12.4818 5.77343 12.7116C5.67001 12.9415 5.7696 13.2134 5.99942 13.3168C8.12532 14.2898 10.3815 14.7762 12.6376 14.7762Z" fill="white" fill-opacity="0.72"/>
<path d="M5.95822 24.6626C6.01568 24.6626 6.06931 24.6511 6.12676 24.632L34.7938 13.359C35.0275 13.2671 35.1424 13.0028 35.0505 12.7691C34.9585 12.5354 34.6942 12.4205 34.4567 12.5125L5.78585 23.7816C5.5522 23.8736 5.43728 24.1379 5.52921 24.3754C5.60199 24.5516 5.77436 24.6626 5.95822 24.6626Z" fill="white" fill-opacity="0.72"/>
<path d="M13.8331 3.31534C13.0462 3.31534 12.4082 2.67738 12.4082 1.89041C12.4082 1.10345 13.0462 0.465484 13.8331 0.465484C14.6201 0.465485 15.2581 1.10345 15.2581 1.89041C15.2581 2.67738 14.6201 3.31534 13.8331 3.31534Z" fill="#F38073"/>
<path d="M13.834 3.77126C14.872 3.77126 15.7147 2.92857 15.7147 1.89052C15.7147 0.852465 14.872 0.00976555 13.834 0.00976546C12.7959 0.00976537 11.9532 0.852465 11.9532 1.89052C11.9532 2.92857 12.7959 3.77126 13.834 3.77126ZM13.834 0.921414C14.3664 0.921414 14.8031 1.35425 14.8031 1.89052C14.8031 2.42295 14.3702 2.85962 13.834 2.85962C13.3015 2.85962 12.8649 2.42678 12.8649 1.89052C12.8649 1.35808 13.2977 0.921414 13.834 0.921414Z" fill="white" fill-opacity="0.72"/>
<path d="M27.1572 37.2037C26.3703 37.2037 25.7323 36.5657 25.7323 35.7788C25.7323 34.9918 26.3703 34.3539 27.1572 34.3539C27.9442 34.3539 28.5822 34.9918 28.5822 35.7788C28.5822 36.5657 27.9442 37.2037 27.1572 37.2037Z" fill="#F38073"/>
<path d="M27.1564 37.6629C28.1944 37.6629 29.0371 36.8202 29.0371 35.7821C29.0371 34.7441 28.1944 33.9014 27.1564 33.9014C26.1183 33.9014 25.2756 34.7441 25.2756 35.7821C25.2756 36.8163 26.1221 37.6629 27.1564 37.6629ZM27.1564 34.813C27.6888 34.813 28.1255 35.2459 28.1255 35.7821C28.1255 36.3146 27.6926 36.7512 27.1564 36.7512C26.6239 36.7512 26.1873 36.3184 26.1873 35.7821C26.1911 35.2459 26.6239 34.813 27.1564 34.813Z" fill="white" fill-opacity="0.72"/>
</svg>
