<svg width="32" height="46" viewBox="0 0 32 46" fill="none" xmlns="http://www.w3.org/2000/svg">
<path d="M26.7743 42.3998C29.8207 42.3998 30.7147 44.3373 30.7147 44.3373L30.7147 10.5581C30.7147 9.69481 30.0164 8.99268 29.1493 8.99268L24.3955 8.99268C23.5322 8.99268 22.8301 9.69098 22.8301 10.5581L22.8301 44.3335C22.8339 44.3373 23.7279 42.3998 26.7743 42.3998ZM23.5974 20.1923L25.0593 18.0284L23.5974 15.8644L28.052 15.8644L28.052 20.1923L23.5974 20.1923Z" fill="#B0D1F3"/>
<path d="M23.2943 43.4159L23.2943 9.64051C23.2943 8.55085 24.1806 7.66455 25.2702 7.66455L30.024 7.66455C31.1137 7.66455 32 8.55085 32 9.64051L32 43.4159C32 43.6078 31.8657 43.7766 31.6777 43.8188C31.4897 43.861 31.294 43.7651 31.2135 43.5886C31.1828 43.5234 30.3655 41.8927 27.6452 41.8927C24.9249 41.8927 24.1115 43.5234 24.077 43.5924C23.9926 43.7651 23.8007 43.861 23.6127 43.8188C23.4247 43.7766 23.2943 43.6116 23.2943 43.4159ZM31.1751 9.64051C31.1751 9.00743 30.6571 8.48946 30.024 8.48946L25.2702 8.48946C24.6372 8.48946 24.1192 9.00743 24.1192 9.64051L24.1192 42.2572C24.7676 41.6817 25.8726 41.0678 27.6491 41.0678C29.4217 41.0678 30.5305 41.6817 31.1789 42.2572L31.1789 9.64051L31.1751 9.64051Z" fill="white"/>
<path d="M10.7031 6.53223L0.217136 6.53223L0.217135 45.5295L10.7031 45.5295L10.7031 6.53223ZM2.83767 12.5138C2.37725 12.5138 2.00125 12.1455 2.00125 11.6889L2.00125 8.90721C2.00125 8.45447 2.37725 8.0823 2.83767 8.0823L8.72717 8.0823C9.18759 8.0823 9.56359 8.45063 9.56359 8.90721L9.56359 11.6889C9.56359 12.1416 9.18759 12.5138 8.72717 12.5138L2.83767 12.5138ZM3.37099 21.2963C2.61514 21.2963 2.00125 20.6939 2.00125 19.9534L2.00125 15.3224C2.00125 14.5818 2.61514 13.9833 3.37099 13.9833L8.19002 13.9833C8.94587 13.9833 9.55976 14.5857 9.55976 15.3224L9.55976 19.9572C9.55976 20.6977 8.94587 21.3001 8.19002 21.3001L3.37099 21.3001L3.37099 21.2963ZM2.83767 27.1973C2.37725 27.1973 2.00125 26.8289 2.00125 26.3724L2.00125 23.5907C2.00125 23.1379 2.37725 22.7658 2.83767 22.7658L8.72717 22.7658C9.18759 22.7658 9.56359 23.1341 9.56359 23.5907L9.56359 26.3724C9.56359 26.8251 9.18759 27.1973 8.72717 27.1973L2.83767 27.1973ZM3.37099 37.5873C2.61514 37.5873 2.00125 36.985 2.00125 36.2445L2.00125 30.1861C2.00125 29.4456 2.61514 28.8433 3.37099 28.8433L8.19002 28.8433C8.94587 28.8433 9.55976 29.4456 9.55976 30.1861L9.55976 36.2445C9.55976 36.985 8.94587 37.5873 8.19002 37.5873L3.37099 37.5873ZM2.83767 43.661C2.37725 43.661 2.00125 43.2927 2.00125 42.8361L2.00125 40.0544C2.00125 39.6017 2.37725 39.2295 2.83767 39.2295L8.72717 39.2295C9.18759 39.2295 9.56359 39.5978 9.56359 40.0544L9.56359 42.8361C9.56359 43.2888 9.18759 43.661 8.72717 43.661L2.83767 43.661Z" fill="#4AD2CC"/>
<path d="M0.677446 44.6133L0.677447 5.61603C0.677447 5.38966 0.861609 5.20166 1.09182 5.20166L11.5778 5.20166C11.8042 5.20166 11.9922 5.38583 11.9922 5.61604L11.9922 44.6133C11.9922 44.8397 11.808 45.0277 11.5778 45.0277L1.09182 45.0277C0.861607 45.0277 0.677446 44.8397 0.677446 44.6133ZM1.50236 6.02657L1.50236 44.199L11.1634 44.199L11.1634 6.02657L1.50236 6.02657Z" fill="white"/>
<path d="M2.83591 12.0425C2.63256 12.0425 2.46758 11.8813 2.46758 11.6856L2.46758 8.90394C2.46758 8.70826 2.63256 8.54712 2.83591 8.54712L8.72541 8.54712C8.92876 8.54712 9.09375 8.70827 9.09375 8.90394L9.09375 11.6856C9.09375 11.8813 8.92876 12.0425 8.72541 12.0425L2.83591 12.0425Z" fill="#B0D1F3"/>
<path d="M2.60549 11.1367L2.60549 8.35501C2.60549 7.93296 2.95464 7.58765 3.38436 7.58765L9.27385 7.58765C9.70357 7.58765 10.0527 7.93296 10.0527 8.35501L10.0527 11.1367C10.0527 11.5587 9.70357 11.9041 9.27385 11.9041L3.38436 11.9041C2.95464 11.9079 2.60549 11.5626 2.60549 11.1367ZM3.43424 8.41256L3.43424 11.0791L9.23165 11.0791L9.23165 8.41256L3.43424 8.41256Z" fill="white"/>
<path d="M3.36916 20.8279C2.87421 20.8279 2.46751 20.4365 2.46751 19.9569L2.46751 15.3221C2.46751 14.8425 2.87038 14.4473 3.36916 14.4473L8.18819 14.4473C8.68314 14.4473 9.08984 14.8386 9.08984 15.3221L9.08984 19.9569C9.08984 20.4365 8.68698 20.8279 8.18819 20.8279L3.36916 20.8279Z" fill="#FF9960"/>
<path d="M2.60542 19.4053L2.60542 14.7704C2.60542 14.0606 3.19629 13.4851 3.91761 13.4851L8.73663 13.4851C9.46179 13.4851 10.0488 14.0606 10.0488 14.7704L10.0488 19.4053C10.0488 20.1151 9.45795 20.6906 8.73663 20.6906L3.91761 20.6906C3.19629 20.6906 2.60542 20.1151 2.60542 19.4053ZM9.22775 14.7704C9.22775 14.5172 9.00905 14.31 8.74048 14.31L3.92145 14.31C3.65287 14.31 3.43418 14.5172 3.43418 14.7704L3.43418 19.4053C3.43418 19.6585 3.65287 19.8657 3.92145 19.8657L8.74048 19.8657C9.00905 19.8657 9.22775 19.6585 9.22775 19.4053L9.22775 14.7704Z" fill="white"/>
<path d="M2.83591 26.7292C2.63256 26.7292 2.46758 26.5681 2.46758 26.3724L2.46758 23.5907C2.46758 23.395 2.63256 23.2339 2.83591 23.2339L8.72541 23.2339C8.92876 23.2339 9.09375 23.395 9.09375 23.5907L9.09375 26.3724C9.09375 26.5681 8.92876 26.7292 8.72541 26.7292L2.83591 26.7292Z" fill="#B0D1F3"/>
<path d="M2.60549 25.8235L2.60549 23.0418C2.60549 22.6197 2.95464 22.2744 3.38436 22.2744L9.27385 22.2744C9.70357 22.2744 10.0527 22.6197 10.0527 23.0418L10.0527 25.8235C10.0527 26.2455 9.70357 26.5908 9.27385 26.5908L3.38436 26.5908C2.95464 26.5908 2.60549 26.2455 2.60549 25.8235ZM3.43424 23.0955L3.43424 25.7621L9.23165 25.7621L9.23165 23.0955L3.43424 23.0955Z" fill="white"/>
<path d="M3.36916 37.1192C2.87421 37.1192 2.46751 36.7278 2.46751 36.2482L2.46751 30.1861C2.46751 29.7065 2.87038 29.3113 3.36916 29.3113L8.18819 29.3113C8.68314 29.3113 9.08984 29.7026 9.08984 30.1861L9.08984 36.2444C9.08984 36.724 8.68698 37.1153 8.18819 37.1153L3.36916 37.1153L3.36916 37.1192Z" fill="#FF9960"/>
<path d="M2.60542 35.6964L2.60542 29.6342C2.60542 28.9244 3.19629 28.3489 3.91761 28.3489L8.73663 28.3489C9.46179 28.3489 10.0488 28.9244 10.0488 29.6342L10.0488 35.6925C10.0488 36.4023 9.45795 36.9779 8.73663 36.9779L3.91761 36.9779C3.19629 36.9817 2.60542 36.4023 2.60542 35.6964ZM9.22775 29.6342C9.22775 29.381 9.00905 29.1738 8.74048 29.1738L3.92145 29.1738C3.65287 29.1738 3.43418 29.381 3.43418 29.6342L3.43418 35.6925C3.43418 35.9458 3.65287 36.1529 3.92145 36.1529L8.74048 36.1529C9.00905 36.1529 9.22775 35.9458 9.22775 35.6925L9.22775 29.6342Z" fill="white"/>
<path d="M2.83591 43.1936C2.63256 43.1936 2.46758 43.0324 2.46758 42.8368L2.46758 40.0551C2.46758 39.8594 2.63256 39.6982 2.83591 39.6982L8.72541 39.6982C8.92876 39.6982 9.09375 39.8594 9.09375 40.0551L9.09375 42.8368C9.09375 43.0324 8.92876 43.1936 8.72541 43.1936L2.83591 43.1936Z" fill="#B0D1F3"/>
<path d="M2.60549 42.2878L2.60549 39.5061C2.60549 39.0841 2.95464 38.7388 3.38436 38.7388L9.27385 38.7388C9.70357 38.7388 10.0527 39.0841 10.0527 39.5061L10.0527 42.2878C10.0527 42.7099 9.70357 43.0552 9.27385 43.0552L3.38436 43.0552C2.95464 43.0552 2.60549 42.7137 2.60549 42.2878ZM3.43424 39.5637L3.43424 42.2303L9.23165 42.2303L9.23165 39.5637L3.43424 39.5637Z" fill="white"/>
<path d="M24.482 19.7225L25.6253 18.0266L24.482 16.3269L27.5859 16.3269L27.5859 19.7225L24.482 19.7225Z" fill="#F38073"/>
<path d="M24.7177 15.6605C24.7177 15.5952 24.7331 15.5262 24.7676 15.4648C24.8405 15.3305 24.9786 15.2461 25.1321 15.2461L28.2399 15.2461C28.4663 15.2461 28.6543 15.4303 28.6543 15.6605L28.6543 19.056C28.6543 19.2824 28.4701 19.4704 28.2399 19.4704L25.1321 19.4704C24.9786 19.4704 24.8405 19.386 24.7676 19.2517C24.6947 19.1174 24.7062 18.9524 24.7906 18.8258L25.7805 17.3602L24.7906 15.8945C24.7446 15.8216 24.7177 15.741 24.7177 15.6605ZM27.8255 16.071L25.9071 16.071L26.617 17.1261C26.709 17.2643 26.709 17.4484 26.617 17.5865L25.9071 18.6417L27.8255 18.6417L27.8255 16.071Z" fill="white"/>
<path d="M29.3705 41.796L29.3705 10.879C29.3705 10.6526 29.5546 10.4646 29.7848 10.4646C30.0112 10.4646 30.1992 10.6488 30.1992 10.879L30.1992 41.7921C30.1992 42.0185 30.0151 42.2065 29.7848 42.2065C29.5585 42.2065 29.3705 42.0223 29.3705 41.796Z" fill="white"/>
<path d="M27.265 13.7105L27.265 10.879C27.265 10.6526 27.4492 10.4646 27.6794 10.4646C27.9057 10.4646 28.0937 10.6488 28.0937 10.879L28.0937 13.7105C28.0937 13.9369 27.9096 14.1249 27.6794 14.1249C27.4492 14.1249 27.265 13.9407 27.265 13.7105Z" fill="white"/>
<path d="M27.265 41.4817L27.265 21.0008C27.265 20.7744 27.4492 20.5864 27.6794 20.5864C27.9057 20.5864 28.0937 20.7706 28.0937 21.0008L28.0937 41.4817C28.0937 41.708 27.9096 41.8961 27.6794 41.8961C27.4492 41.8922 27.265 41.708 27.265 41.4817Z" fill="white"/>
<path d="M25.1538 41.7962L25.1538 21.0007C25.1538 20.7744 25.338 20.5864 25.5682 20.5864C25.7945 20.5864 25.9825 20.7705 25.9825 21.0007L25.9825 41.7962C25.9825 42.0226 25.7984 42.2106 25.5682 42.2106C25.338 42.2068 25.1538 42.0226 25.1538 41.7962Z" fill="white"/>
<path d="M25.1538 13.7107L25.1538 10.8791C25.1538 10.6527 25.338 10.4647 25.5682 10.4647C25.7945 10.4647 25.9825 10.6489 25.9825 10.8791L25.9825 13.7107C25.9825 13.937 25.7984 14.125 25.5682 14.125C25.338 14.125 25.1538 13.9409 25.1538 13.7107Z" fill="white"/>
<path d="M21.1211 41.5746L21.1211 1.80225L12.4077 1.80225L12.4077 41.5746L21.1211 41.5746ZM13.7851 6.74405C13.7851 4.92541 15.2661 3.4444 17.0848 3.4444C18.9034 3.4444 20.3844 4.92541 20.3844 6.74405C20.3844 8.5627 18.9034 10.0437 17.0848 10.0437C15.2661 10.0437 13.7851 8.5627 13.7851 6.74405ZM13.7851 21.3201C13.7851 18.3389 15.2354 16.0023 17.0848 16.0023C18.9341 16.0023 20.3844 18.3389 20.3844 21.3201C20.3844 24.3013 18.9341 26.6379 17.0848 26.6379C15.2354 26.6379 13.7851 24.3013 13.7851 21.3201ZM13.7851 35.8961C13.7851 34.0775 15.2661 32.5965 17.0848 32.5965C18.9034 32.5965 20.3844 34.0775 20.3844 35.8961C20.3844 37.7148 18.9034 39.1958 17.0848 39.1958C15.2661 39.1996 13.7851 37.7186 13.7851 35.8961Z" fill="#FF9960"/>
<path d="M12.868 40.6531L12.868 0.88459C12.868 0.658218 13.0522 0.470214 13.2824 0.470214L21.9958 0.470215C22.2221 0.470215 22.4102 0.654382 22.4102 0.88459L22.4102 40.6569C22.4102 40.8833 22.226 41.0713 21.9958 41.0713L13.2824 41.0713C13.056 41.0675 12.868 40.8833 12.868 40.6531ZM13.6968 1.29513L13.6968 40.2426L21.5814 40.2426L21.5814 1.29513L13.6968 1.29513Z" fill="white"/>
<path d="M19.9238 35.8955C19.9238 34.3339 18.6539 33.064 17.0923 33.064C15.5307 33.064 14.2607 34.3339 14.2607 35.8955C14.2607 37.4571 15.5307 38.7271 17.0923 38.7271C18.6539 38.7309 19.9238 37.4571 19.9238 35.8955Z" fill="#F38073"/>
<path d="M14.3929 35.3463C14.3929 33.5583 15.847 32.1003 17.6388 32.1003C19.4268 32.1003 20.8848 33.5545 20.8848 35.3463C20.8848 37.1342 19.4268 38.5922 17.6388 38.5922C15.8509 38.5922 14.3929 37.1342 14.3929 35.3463ZM20.0599 35.3463C20.0599 34.0111 18.974 32.9253 17.6388 32.9253C16.3036 32.9253 15.2178 34.0111 15.2178 35.3463C15.2178 36.6815 16.3036 37.7673 17.6388 37.7673C18.974 37.7673 20.0599 36.6815 20.0599 35.3463Z" fill="white"/>
<path d="M19.9238 6.74319C19.9238 5.1816 18.6539 3.91162 17.0923 3.91162C15.5307 3.91162 14.2607 5.1816 14.2607 6.74318C14.2607 8.30477 15.5307 9.57475 17.0923 9.57475C18.6539 9.57475 19.9238 8.30477 19.9238 6.74319Z" fill="#F38073"/>
<path d="M14.3929 6.19125C14.3929 4.4033 15.847 2.94531 17.6388 2.94531C19.4268 2.94531 20.8848 4.39946 20.8848 6.19125C20.8848 7.9792 19.4268 9.43719 17.6388 9.43719C15.8509 9.43719 14.3929 7.98304 14.3929 6.19125ZM20.0599 6.19125C20.0599 4.85604 18.974 3.77023 17.6388 3.77023C16.3036 3.77023 15.2178 4.85604 15.2178 6.19125C15.2178 7.52646 16.3036 8.61228 17.6388 8.61228C18.974 8.61228 20.0599 7.52646 20.0599 6.19125Z" fill="white"/>
<path d="M19.9238 21.3187C19.9238 18.6445 18.6539 16.469 17.0923 16.469C15.5307 16.469 14.2607 18.6445 14.2607 21.3187C14.2607 23.993 15.5307 26.1684 17.0923 26.1684C18.6539 26.1684 19.9238 23.993 19.9238 21.3187Z" fill="#F38073"/>
<path d="M14.3929 20.7712C14.3929 17.8207 15.8202 15.511 17.6388 15.511C19.4575 15.511 20.8848 17.8207 20.8848 20.7712C20.8848 23.7218 19.4575 26.0315 17.6388 26.0315C15.8202 26.0315 14.3929 23.7179 14.3929 20.7712ZM20.0599 20.7712C20.0599 18.3656 18.951 16.3359 17.6388 16.3359C16.3266 16.3359 15.2178 18.3656 15.2178 20.7712C15.2178 23.1769 16.3266 25.2066 17.6388 25.2066C18.951 25.2066 20.0599 23.1731 20.0599 20.7712Z" fill="white"/>
<path d="M14.5419 11.5596C14.5419 11.3333 14.7261 11.1453 14.9563 11.1453L20.3278 11.1453C20.5542 11.1453 20.7422 11.3294 20.7422 11.5596C20.7422 11.786 20.558 11.974 20.3278 11.974L14.9563 11.974C14.7261 11.974 14.5419 11.786 14.5419 11.5596Z" fill="white"/>
<path d="M14.5419 13.3853C14.5419 13.1589 14.7261 12.9709 14.9563 12.9709L20.3278 12.9709C20.5542 12.9709 20.7422 13.1551 20.7422 13.3853C20.7422 13.6117 20.558 13.7997 20.3278 13.7997L14.9563 13.7997C14.7261 13.7997 14.5419 13.6155 14.5419 13.3853Z" fill="white"/>
<path d="M14.5419 28.1531C14.5419 27.9268 14.7261 27.7388 14.9563 27.7388L20.3278 27.7388C20.5542 27.7388 20.7422 27.9229 20.7422 28.1531C20.7422 28.3834 20.558 28.5675 20.3278 28.5675L14.9563 28.5675C14.7261 28.5637 14.5419 28.3795 14.5419 28.1531Z" fill="white"/>
<path d="M14.5419 29.9791C14.5419 29.7527 14.7261 29.5647 14.9563 29.5647L20.3278 29.5647C20.5542 29.5647 20.7422 29.7489 20.7422 29.9791C20.7422 30.2054 20.558 30.3934 20.3278 30.3934L14.9563 30.3934C14.7261 30.3934 14.5419 30.2054 14.5419 29.9791Z" fill="white"/>
</svg>
