<svg width="64" height="64" viewBox="0 0 64 64" fill="none" xmlns="http://www.w3.org/2000/svg">
<path d="M36.1 59.8C35.1 60 34 60.3 33 60.6V36.7C40.5 34.4 48.4 34.2 55.9 36.4C56.5 36.6 57 37.2 57 37.8V40C57 40.6 57.4 41 58 41C58.6 41 59 40.6 59 40V37.9C59 36.3 58 34.9 56.5 34.5C48.4 32.2 40 32.4 32 34.9C23.9 32.3 15.5 32.2 7.5 34.5C6 34.9 5 36.3 5 37.9V39.9C5 40.5 5.4 40.9 6 40.9C6.6 40.9 7 40.5 7 39.9V37.9C7 37.2 7.4 36.6 8.1 36.5C15.6 34.3 23.5 34.4 31 36.8V60.7C23.3 58.4 15.3 58.4 7.6 60.6C7.4 60.6 7.2 60.5 7.2 60.5C7.1 60.5 7 60.3 7 60.2V56C7 55.4 6.6 55 6 55C5.4 55 5 55.4 5 56V60.1C5 60.8 5.3 61.5 5.9 62C6.5 62.5 7.3 62.7 8.1 62.5C15.9 60.3 24 60.4 31.7 63C31.8 63 31.9 63.1 32 63.1C32.1 63.1 32.2 63.1 32.3 63C33.7 62.5 35.1 62.2 36.5 61.9C37 61.8 37.4 61.3 37.3 60.7C37.2 60.1 36.6 59.7 36.1 59.8Z" fill="#C95A0A"/>
<path d="M41.4 59C40.9 59 40.4 59.1 39.9 59.2C39.4 59.3 39 59.8 39 60.3C39.1 60.8 39.5 61.2 40 61.2H40.1C40.6 61.1 41.1 61.1 41.6 61C42.2 61 42.6 60.5 42.5 59.9C42.5 59.4 42 59 41.4 59Z" fill="#C95A0A"/>
<path d="M58 55C57.4 55 57 55.4 57 56V60.1C57 60.2 57 60.4 56.9 60.4C56.8 60.5 56.6 60.5 56.5 60.5C52.8 59.4 48.9 58.9 45 58.9C44.4 58.9 44 59.3 44 59.9C44 60.5 44.4 60.9 45 60.9C48.7 60.9 52.4 61.4 56 62.5C56.2 62.5 56.4 62.6 56.6 62.6C57.2 62.6 57.7 62.4 58.2 62.1C58.8 61.6 59.1 61 59.1 60.2V56C59 55.4 58.6 55 58 55Z" fill="#C95A0A"/>
<path d="M14.9994 31.1C15.2994 31.1 15.5994 31.0001 15.7994 30.7001C17.6994 28.2001 20.2994 26.4 23.1994 25.6C23.9994 29.9001 27.6994 33 32.0994 33C36.4994 33 40.1994 29.8 40.9994 25.5C43.9994 26.3 46.5994 28.1 48.3994 30.6C48.5994 30.9 48.8994 31 49.1994 31C49.3994 31 49.5994 30.9 49.7994 30.8C50.1994 30.5 50.2994 29.8 49.9994 29.4C47.3994 25.9 43.5994 23.7 39.2994 23.1C41.6994 20.1 43.0994 16.1 43.2994 11.9C43.2994 8.70005 41.8994 5.60005 39.3994 3.50005C38.9994 3.10005 38.2994 3.20005 37.9994 3.60005C37.5994 4.00005 37.6994 4.70005 38.0994 5.00005C39.2994 6.00005 40.1994 7.40005 40.6994 8.80005C36.1994 8.60005 31.9994 7.70005 29.2994 6.40005C28.9994 6.30005 28.6994 6.30005 28.3994 6.40005C27.1994 7.00005 25.6994 7.50005 24.1994 7.80005C25.6994 4.80005 28.6994 2.80005 32.2994 2.80005C33.1994 2.80005 33.9994 2.90005 34.8994 3.20005C35.3994 3.40005 35.9994 3.10005 36.0994 2.50005C36.2994 2.00005 35.9994 1.40005 35.3994 1.30005C34.3994 1.00005 33.2994 0.800049 32.2994 0.800049C26.1994 0.800049 21.2994 5.70005 21.2994 11.8C21.2994 15.9 22.5994 19.8 25.0994 22.9C20.7994 23.4 16.8994 25.7001 14.2994 29.2001C13.9994 29.6001 14.0994 30.3 14.4994 30.6C14.4994 31 14.6994 31.1 14.9994 31.1ZM31.9994 31C28.5994 31 25.6994 28.5001 25.0994 25.1C25.4994 25 25.9994 25 26.4994 25L28.0994 27C28.9994 28.3 30.4994 29 32.0994 29C33.5994 29 35.0994 28.3 36.0994 27L37.6994 24.9C38.0994 24.9 38.4994 24.9 38.8994 25C38.2994 28.5 35.3994 31 31.9994 31ZM23.1994 12C23.1994 11.4 23.2994 10.8 23.3994 10.2C25.3994 9.80005 27.1994 9.30005 28.7994 8.60005C31.8994 10 36.2994 10.8 41.0994 11C41.0994 11.3 41.1994 11.6 41.1994 12C40.9994 15.8 39.6994 19.4 37.4994 22.1L34.4994 25.9C33.8994 26.7 32.9994 27.1 32.0994 27.1C31.0994 27.1 30.1994 26.7 29.6994 25.9L26.6994 22.1C24.3994 19.3001 23.1994 15.7 23.1994 12Z" fill="#C95A0A"/>
<path d="M11 48C11 45.2 8.8 43 6 43H3.8C2.3 43 1 44.3 1 45.8V50.2C1 51.7 2.3 53 3.8 53H6C8.8 53 11 50.8 11 48ZM3 50.2V45.8C3 45.4 3.4 45 3.8 45H6C7.7 45 9 46.3 9 48C9 49.7 7.7 51 6 51H3.8C3.4 51 3 50.6 3 50.2Z" fill="#C95A0A"/>
<path d="M60.2 43H58C55.2 43 53 45.2 53 48C53 50.8 55.2 53 58 53H60.2C61.7 53 63 51.7 63 50.2V45.8C63 44.3 61.7 43 60.2 43ZM61 50.2C61 50.6 60.6 51 60.2 51H58C56.3 51 55 49.7 55 48C55 46.3 56.3 45 58 45H60.2C60.6 45 61 45.4 61 45.8V50.2Z" fill="#C95A0A"/>
<path d="M10 54C9.4 54 9 54.4 9 55V57C9 57.3 9.2 57.7 9.5 57.8C9.6 57.9 9.8 58 10 58C10.1 58 10.3 58 10.4 57.9C11.6 57.3 12.9 57 14.1 56.8C14.6 56.7 15 56.2 14.9 55.7C14.8 55.2 14.3 54.8 13.8 54.9C12.8 55 11.9 55.3 10.9 55.6V55C11 54.4 10.6 54 10 54Z" fill="#C95A0A"/>
<path d="M41.8994 37.1C41.3994 37.2 40.9994 37.7 41.0994 38.2C41.1994 38.7 41.6994 39.1 42.1994 39C44.0994 38.7 45.9994 38.7 47.8994 39H47.9994C48.4994 39 48.8994 38.6 48.9994 38.1C49.0994 37.6 48.6994 37 48.1994 37C46.0994 36.8 43.8994 36.8 41.8994 37.1Z" fill="#C95A0A"/>
</svg>
