<svg width="64" height="64" viewBox="0 0 64 64" fill="none" xmlns="http://www.w3.org/2000/svg">
<g clip-path="url(#clip0_137_403)">
<path d="M63.1185 23.0788C63.1249 25.94 62.5637 28.727 61.4505 31.3626C61.3095 31.6966 60.9852 31.8973 60.6441 31.8973C60.5306 31.8973 60.4151 31.8751 60.304 31.8282C59.8587 31.6402 59.6504 31.1268 59.8384 30.6817C60.8595 28.2641 61.3744 25.7075 61.3685 23.0828C61.3492 14.4831 55.6705 6.85984 47.6125 4.26409L48.044 4.73922C48.3689 5.09697 48.3421 5.65034 47.9844 5.97522C47.6267 6.30009 47.0732 6.27347 46.7484 5.91559L44.392 3.32059C44.1932 3.10172 44.1185 2.79709 44.1932 2.51097C44.2681 2.22484 44.4824 1.99584 44.7629 1.90234L48.1759 0.763968C48.6342 0.611093 49.1299 0.858718 49.2827 1.31709C49.4356 1.77547 49.188 2.27109 48.7296 2.42397L48.1781 2.60797C56.9317 5.44284 63.0974 13.7306 63.1184 23.079L63.1185 23.0788ZM22.223 39.9341C22.1341 40.4091 22.447 40.8662 22.9221 40.9551L26.3609 41.5987C26.4145 41.6087 26.4682 41.6137 26.5219 41.6137C26.7555 41.6137 26.9822 41.52 27.1484 41.3495C27.3526 41.1398 27.4386 40.842 27.3775 40.5558L26.6881 37.3297C26.5871 36.8572 26.1222 36.5556 25.6496 36.657C25.1771 36.758 24.8759 37.2228 24.9769 37.6955L25.0859 38.2052C23.0685 36.0435 21.5074 33.4726 20.5307 30.6881C20.3709 30.2322 19.8717 29.9923 19.4155 30.152C18.9595 30.312 18.7195 30.8112 18.8794 31.2672C19.9252 34.249 21.5907 37.0043 23.7404 39.3277L23.2442 39.2348C22.7694 39.1458 22.3121 39.459 22.2232 39.934L22.223 39.9341ZM60.8765 39.2913C60.1304 41.1138 55.1426 46.2191 52.638 48.5473C50.3219 50.7005 48.4162 52.3022 44.9711 53.3075C43.3362 53.7843 41.6021 54.1025 39.9251 54.4101C39.221 54.5393 38.556 54.6612 37.9267 54.7902C35.2131 55.3461 33.1272 55.97 31.4516 57.2175C31.5801 57.4232 31.679 57.6491 31.7436 57.8903C31.9142 58.527 31.8275 59.1903 31.4995 59.7586L30.0255 62.3118C29.586 63.0728 28.7859 63.4988 27.9646 63.4988C27.5619 63.4988 27.1544 63.3966 26.7812 63.1811L17.4711 57.8058C16.337 57.151 15.947 55.6957 16.6017 54.5616L18.0759 52.0083C18.5894 51.1192 19.5774 50.6723 20.5372 50.8002C22.7215 46.2433 24.6862 43.6646 26.8737 42.4717C29.0742 41.2717 31.261 41.5608 33.7931 41.8955C36.5296 42.2572 39.6305 42.6671 43.9361 41.5162C44.9921 41.1967 46.0937 41.4665 46.8866 42.2397C47.3626 42.704 47.6585 43.2842 47.7567 43.9038C50.8615 41.6362 54.7574 38.2452 56.3064 36.6963C57.6501 35.353 59.1837 35.3716 60.1076 35.9861C61.1206 36.66 61.4225 37.9572 60.8765 39.2912V39.2913ZM29.7232 57.9101L20.5649 52.6226C20.4529 52.558 20.3305 52.5272 20.2097 52.5272C19.9632 52.5272 19.7231 52.655 19.5914 52.8835L18.1172 55.4367C18.0344 55.5803 18.0126 55.7486 18.056 55.9106C18.0995 56.0726 18.2025 56.2075 18.3461 56.2905L27.6562 61.6657C27.9546 61.8381 28.3377 61.7353 28.5101 61.4368L29.9841 58.8837C30.1806 58.5433 30.0636 58.1067 29.7232 57.9102V57.9101ZM59.1385 37.4433C58.8192 37.2308 58.184 37.2938 57.5437 37.9338C55.4714 40.0062 49.6579 44.9986 46.3779 46.9371L46.3752 46.9327C43.6842 48.9621 37.881 49.3991 35.9176 48.9638C35.4459 48.8593 35.1481 48.3921 35.2527 47.9202C35.3574 47.4483 35.8244 47.1505 36.2964 47.2553C38.3201 47.7038 43.7509 46.9322 45.4876 45.4307V45.4305C45.4876 45.4305 45.4884 45.43 45.4887 45.4297C45.7465 45.2067 45.9234 44.9677 45.9947 44.7141C46.1192 44.272 45.9959 43.8153 45.6649 43.4926C45.3339 43.1698 44.8741 43.058 44.4354 43.1935C44.4249 43.1967 44.4142 43.1997 44.4036 43.2026C39.754 44.4485 36.3216 43.9947 33.5639 43.6302C31.1529 43.3115 29.4109 43.0812 27.7116 44.008C25.8966 44.9978 24.1187 47.3887 22.1379 51.5098L30.061 56.0843C32.2992 54.2772 35.098 53.5832 37.5756 53.0757C38.2225 52.9432 38.8962 52.8196 39.6095 52.6888C41.2431 52.3892 42.9324 52.0793 44.4811 51.6275C47.564 50.728 49.2406 49.3165 51.4466 47.2656C54.5722 44.3601 58.7531 39.8593 59.257 38.6283C59.4799 38.0838 59.4356 37.6408 59.1385 37.4432V37.4433ZM48.6062 18.17V13.1615L47.1282 13.5575V15.8221C47.1282 16.1293 46.967 16.4141 46.7036 16.5722C46.6704 16.5921 46.6364 16.6106 46.603 16.6302C46.7742 17.2018 46.8629 17.7948 46.8629 18.4026C46.8629 20.4877 45.824 22.3337 44.2377 23.4538L46.0847 23.9081C47.5996 24.2956 49.027 24.6855 49.9295 25.2146C51.2989 26.0175 51.812 26.9511 51.963 28.9145C51.9635 28.9208 51.9639 28.9271 51.9642 28.9335C52.0787 31.012 52.0826 33.1485 51.9769 35.6572C51.8957 37.5775 50.3267 39.0816 48.4049 39.0816H32.9582C31.0364 39.0816 29.4672 37.5775 29.3862 35.6572C29.2804 33.1492 29.2844 31.0126 29.3989 28.9335C29.3992 28.9271 29.3996 28.9208 29.4001 28.9145C29.5511 26.951 30.0641 26.0173 31.4336 25.2146C32.3359 24.6856 33.7634 24.2956 35.2704 23.9101L37.1252 23.4538C35.539 22.3337 34.5001 20.4877 34.5001 18.4026C34.5001 17.7948 34.5886 17.2018 34.76 16.6302C34.7266 16.6107 34.6925 16.5922 34.6594 16.5722C34.3959 16.414 34.2347 16.1293 34.2347 15.822V13.5575L31.6552 12.8662C31.1087 12.7198 30.7271 12.2225 30.7271 11.6567C30.7271 11.091 31.1089 10.5936 31.6552 10.4472L39.9914 8.21347C40.4557 8.08897 40.9072 8.08897 41.3717 8.21347L49.7079 10.4472C50.2544 10.5936 50.636 11.091 50.636 11.6567C50.636 11.9508 50.5321 12.2258 50.3564 12.4432V18.1698C50.3564 18.6531 49.9646 19.0448 49.4814 19.0448C48.9981 19.0448 48.6064 18.6531 48.6064 18.1698L48.6062 18.17ZM40.6456 24.5831C40.2919 24.5851 39.9367 24.6188 39.5721 24.6801L40.6814 25.8265L41.7906 24.6801C41.4259 24.6188 41.0707 24.5851 40.717 24.5831C40.7051 24.5831 40.6934 24.584 40.6815 24.584C40.6696 24.584 40.6577 24.5831 40.6459 24.5831H40.6456ZM43.7776 25.1428L41.9119 27.0712L42.6729 27.8238L44.0252 25.2037L43.7776 25.1428ZM37.3374 25.2037L38.6897 27.8237L39.4507 27.0711L37.585 25.1427L37.3375 25.2036L37.3374 25.2037ZM49.0442 26.7242C48.3065 26.2917 46.8137 25.9012 45.7722 25.6345L43.6817 29.6846C43.5541 29.932 43.3162 30.1038 43.0412 30.1475C42.9955 30.1547 42.9497 30.1582 42.9041 30.1582C42.6756 30.1582 42.454 30.0686 42.2889 29.9053L40.6812 28.3153L39.0736 29.9053C38.9085 30.0686 38.6869 30.1582 38.4584 30.1582C38.4127 30.1582 38.367 30.1547 38.3212 30.1475C38.0462 30.1038 37.8084 29.932 37.6807 29.6846L35.5902 25.6345C34.5555 25.8995 33.0575 26.2907 32.3182 26.7242C31.5792 27.1575 31.2656 27.4888 31.1451 29.0393C31.0344 31.0576 31.0309 33.1372 31.1342 35.5833C31.1756 36.5636 31.9766 37.3315 32.9579 37.3315H33.4709V31.5853C33.4709 31.1021 33.8626 30.7103 34.3459 30.7103C34.8291 30.7103 35.2209 31.1021 35.2209 31.5853V37.3315H46.1414V31.5853C46.1414 31.1021 46.5331 30.7103 47.0164 30.7103C47.4996 30.7103 47.8914 31.1021 47.8914 31.5853V37.3315H48.4045C49.3856 37.3315 50.1866 36.5636 50.2281 35.5833C50.3314 33.1366 50.3279 31.0568 50.2172 29.0393C50.0969 27.4888 49.7831 27.1575 49.0442 26.7242ZM44.9989 17.4032C43.6532 17.923 42.1891 18.1936 40.6812 18.1936C39.1734 18.1936 37.7094 17.923 36.3636 17.4032C36.2887 17.7282 36.2497 18.0621 36.2497 18.4026C36.2497 20.8258 38.2052 22.8 40.621 22.8325C40.6611 22.8322 40.7012 22.8322 40.7414 22.8325C43.1571 22.8 45.1126 20.826 45.1126 18.4026C45.1126 18.0621 45.0736 17.7282 44.9987 17.4032H44.9989ZM45.3782 14.0263L41.3715 15.1C41.1394 15.1622 40.9104 15.1933 40.6814 15.1933C40.4524 15.1933 40.2232 15.1622 39.991 15.1L35.9845 14.0263V15.3115C37.3855 16.0535 38.9987 16.4436 40.6814 16.4436C42.364 16.4436 43.9774 16.0535 45.3782 15.3115V14.0263ZM47.4602 11.6567L40.9186 9.90384C40.7499 9.85872 40.6125 9.85872 40.4441 9.90384L33.9025 11.6567L40.4441 13.4096C40.6129 13.4547 40.7501 13.4547 40.9184 13.4096L47.4602 11.6567ZM11.7906 29.8476C10.7849 29.8476 9.68511 29.8007 8.48111 29.7082C8.11198 30.6033 7.23098 31.2356 6.20411 31.2356H3.25586C1.94623 31.2356 0.880859 30.1702 0.880859 28.8606V18.1102C0.880859 16.8007 1.94623 15.7352 3.25586 15.7352H6.20411C6.86023 15.7352 7.47811 15.992 7.94411 16.458C8.12073 16.6346 8.26698 16.8332 8.38086 17.0473C10.2991 16.22 11.8824 14.7255 13.7205 12.6533C14.1466 12.1731 14.5846 11.6583 15.0484 11.1133C16.1535 9.81459 17.2961 8.47172 18.5269 7.29422C21.12 4.81322 23.46 3.96372 26.4826 3.03447C29.7514 2.02959 36.6674 0.262218 38.6177 0.527843C40.046 0.721968 41.0187 1.63197 41.0957 2.84609C41.166 3.95359 40.4154 5.29109 38.5801 5.78297C36.4644 6.34997 31.5797 8.02847 28.0635 9.58347C28.5509 9.97847 28.9056 10.5248 29.0696 11.1692C29.3429 12.2425 29.0255 13.3315 28.2209 14.0861C25.0714 17.2393 23.876 20.1298 22.821 22.6805C21.8447 25.0407 21.0017 27.0791 18.8622 28.3847C17.2436 29.3725 14.9941 29.8475 11.7907 29.8475L11.7906 29.8476ZM8.66673 18.8182V27.9671C13.2262 28.3122 16.1857 27.9681 17.9505 26.8911C19.6026 25.883 20.2741 24.2591 21.2037 22.0118C22.267 19.4412 23.5902 16.242 26.9939 12.8382C27.0016 12.8305 27.0096 12.8227 27.0176 12.8153C27.3545 12.503 27.4875 12.0491 27.3735 11.601C27.2594 11.153 26.9256 10.8178 26.4805 10.7046C26.2251 10.6396 25.9296 10.6733 25.6075 10.7851C25.6072 10.7852 25.6067 10.7855 25.6065 10.7857C23.4381 11.539 20.0542 15.8558 19.4307 17.8331C19.2854 18.294 18.794 18.5496 18.3331 18.4043C17.8722 18.259 17.6165 17.7675 17.7619 17.3067C18.3667 15.389 21.6466 10.5817 24.7497 9.26584L24.7471 9.26134C28.0661 7.38997 35.2962 4.85159 38.127 4.09297C39.0014 3.85859 39.3735 3.33997 39.3492 2.95734C39.3266 2.60134 38.9651 2.34147 38.3821 2.26222C37.0634 2.08372 31.076 3.45347 26.997 4.70747C24.118 5.59259 22.0572 6.33872 19.7367 8.55884C18.5709 9.67422 17.4577 10.9825 16.3812 12.2476C15.9115 12.7997 15.4677 13.3211 15.0297 13.815C13.3514 15.7068 11.351 17.7837 8.66686 18.8185L8.66673 18.8182ZM6.91673 18.198C6.91673 18.0093 6.84211 17.8308 6.70673 17.6953C6.57123 17.5598 6.39273 17.4852 6.20411 17.4852H3.25598C2.91136 17.4852 2.63098 17.7656 2.63098 18.1102V28.8606C2.63098 29.2052 2.91136 29.4856 3.25598 29.4856H6.20411C6.59711 29.4856 6.91673 29.1658 6.91673 28.773V18.1978V18.198Z" fill="#87009B"/>
</g>
<defs>
<clipPath id="clip0_137_403">
<rect width="64" height="64" fill="white"/>
</clipPath>
</defs>
</svg>
