<svg width="44" height="44" viewBox="0 0 44 44" fill="none" xmlns="http://www.w3.org/2000/svg">
<path d="M34.2677 13.8051L24.0049 18.9365C23.7199 19.0836 23.4072 19.1572 23.0945 19.1572C22.7819 19.1572 22.4599 19.0836 22.184 18.9365L11.9121 13.7959V21.4286C18.0826 27.5992 28.088 27.5992 34.2677 21.4286V13.8051Z" fill="#2F584F"/>
<path d="M3.76288 24.5991H8.32173C8.57082 24.5991 8.75245 24.3634 8.68915 24.1226L7.46376 19.4659C7.41986 19.299 7.26888 19.1827 7.09645 19.1827H6.73611V11.3424C6.73611 10.7723 7.09836 10.289 7.6034 10.1004L22.8018 17.7041C22.9857 17.796 23.1972 17.796 23.381 17.7041L38.9592 9.91498C39.4465 9.67592 39.4465 8.98622 38.9592 8.74712L23.381 0.94884C23.1972 0.856897 22.9765 0.856897 22.7926 0.94884L7.21443 8.73791C7.18222 8.75464 7.16986 8.78579 7.14203 8.80617C6.10377 9.1857 5.3567 10.1742 5.3567 11.3424V19.1827H4.99636C4.82393 19.1827 4.67328 19.2987 4.62906 19.4653L3.39569 24.122C3.33182 24.363 3.51356 24.5991 3.76288 24.5991ZM23.0776 7.71717C24.457 7.71717 25.5881 8.43443 25.5881 9.32648C25.5881 10.2185 24.457 10.9358 23.0776 10.9358C21.7166 10.9358 20.5946 10.2185 20.5946 9.32648C20.5946 8.43443 21.7166 7.71717 23.0776 7.71717Z" fill="#2F584F"/>
<path d="M28.0798 38.4687L24.9714 37.9261V37.9077H21.7988L24.1531 42.9563C24.2541 43.1862 24.576 43.1679 24.668 42.938L25.7532 39.9401L28.7603 41.0436C28.9902 41.1263 29.2017 40.8964 29.1004 40.6665L28.0798 38.4687Z" fill="#2F584F"/>
<path d="M19.1129 37.9077V37.9261L15.5999 38.5422L14.8366 40.639C14.7447 40.8689 14.9838 41.0896 15.2045 40.9792L18.1012 39.6274L19.453 42.5334C19.5543 42.7633 19.8761 42.7448 19.9588 42.5149L21.0256 39.609L20.2347 37.9077H19.1129Z" fill="#2F584F"/>
<path d="M17.6879 32.9326L5.01575 34.5971L6.66187 37.9812C6.85496 38.3767 7.28714 38.6066 7.72853 38.5238L17.6879 36.7674V32.9326Z" fill="#2F584F"/>
<path d="M17.6879 28.6658L5.26404 26.8266C4.93299 26.7806 4.62957 26.9829 4.54672 27.3048L3.16732 32.5465C3.04776 32.9879 3.41562 33.411 3.87542 33.3558L17.6879 31.5349V28.6658Z" fill="#2F584F"/>
<path d="M26.3046 36.7674L36.273 38.5238C36.7144 38.6066 37.1466 38.3767 37.3398 37.9812L38.9858 34.5879L26.3046 32.9326V36.7674Z" fill="#2F584F"/>
<path d="M40.8343 32.5465L39.4548 27.3048C39.3721 26.9829 39.0687 26.7806 38.7375 26.8266L26.3046 28.6658V31.5349L40.1261 33.3558C40.5859 33.4109 40.9539 32.9879 40.8343 32.5465Z" fill="#2F584F"/>
<path d="M19.0723 28.8682H24.9295V36.5294H19.0723V28.8682Z" fill="#2F584F"/>
</svg>
