<svg width="44" height="44" viewBox="0 0 44 44" fill="none" xmlns="http://www.w3.org/2000/svg">
<path d="M22.9238 22.3521C28.1241 22.3521 32.3398 17.9395 32.3398 12.4961C32.3398 7.05282 28.1241 2.64014 22.9238 2.64014C17.7235 2.64014 13.5078 7.05282 13.5078 12.4961C13.5078 17.9395 17.7235 22.3521 22.9238 22.3521Z" fill="#2F584F"/>
<path d="M40.7432 36.9601C40.7432 36.8721 40.6992 36.7841 40.6992 36.6961C40.5672 36.0801 40.2592 35.5521 39.8632 35.1121C39.3792 34.6281 38.8072 34.2321 38.1032 34.0561C37.8392 33.9681 37.5312 33.9241 37.2232 33.9241C35.2432 33.9241 33.6152 35.5521 33.6152 37.5321C33.6152 39.5121 35.2432 41.1401 37.2232 41.1401C39.2032 41.1401 40.8312 39.5121 40.8312 37.5321C40.8312 37.3561 40.7872 37.1801 40.7432 36.9601Z" fill="#2F584F"/>
<path d="M11.3947 33.9684C11.3947 31.9884 9.76666 30.3604 7.78666 30.3604C7.65466 30.3604 7.52266 30.3604 7.39066 30.3604C7.34666 30.3604 7.34666 30.3604 7.30266 30.3604C7.21466 30.3604 7.12666 30.4044 7.03866 30.4044C6.99466 30.4044 6.99466 30.4044 6.95066 30.4484C6.86266 30.4484 6.77466 30.4924 6.68666 30.5364C6.64266 30.5364 6.64266 30.5364 6.64266 30.5804C6.55466 30.6244 6.46666 30.6684 6.37866 30.6684H6.33466C6.24666 30.7124 6.15866 30.7564 6.02666 30.8004C5.93866 30.8444 5.85066 30.9324 5.71866 30.9764C5.54266 31.1084 5.32266 31.2844 5.19066 31.4604C4.57466 32.1204 4.22266 32.9564 4.22266 33.9244C4.22266 35.9044 5.85066 37.5324 7.83066 37.5324C9.81066 37.5324 11.3947 35.9483 11.3947 33.9684Z" fill="#2F584F"/>
<path d="M41.7992 34.7162C40.6992 25.8722 29.2152 23.0122 27.8512 22.7042L23.0552 26.4882L18.2592 22.7042C17.2472 22.9242 10.8232 24.5082 7.03922 28.8202L3.82722 17.5122L2.19922 17.9522L5.49922 29.7442C6.15922 29.3922 6.95122 29.1722 7.78722 29.1722C10.4272 29.1722 12.5832 31.3282 12.5832 33.9682C12.5832 36.3882 10.7792 38.3682 8.49122 38.7202C10.4712 39.5562 13.1992 40.3922 16.8072 40.8762V29.4362C16.8072 29.4362 22.7472 29.4362 26.8392 32.1202L26.8832 41.3602H28.0712L28.0272 32.1202C32.1192 29.4362 38.0592 29.4362 38.0592 29.4362V32.8682C39.6872 33.1762 41.0072 34.2762 41.6232 35.7722C41.7992 35.4202 41.8432 35.0682 41.7992 34.7162Z" fill="#2F584F"/>
</svg>
