<svg width="24" height="24" viewBox="0 0 24 24" fill="none" xmlns="http://www.w3.org/2000/svg">
<g clip-path="url(#clip0_137_1576)">
<path d="M2.72542 16.8754H3.5316C2.94395 15.4787 2.71085 13.9584 2.85306 12.4499C2.99527 10.9414 3.50838 9.49142 4.34668 8.22921C5.18498 6.967 6.32245 5.93173 7.65776 5.21559C8.99307 4.49946 10.4848 4.1247 12 4.1247C13.5152 4.1247 15.0069 4.49946 16.3423 5.21559C17.6776 5.93173 18.815 6.967 19.6533 8.22921C20.4916 9.49142 21.0047 10.9414 21.147 12.4499C21.2892 13.9584 21.0561 15.4787 20.4684 16.8754H21.2746C21.8538 15.3701 22.0579 13.7464 21.8693 12.1446C21.6807 10.5427 21.105 9.01087 20.192 7.68127C19.279 6.35167 18.0561 5.26428 16.6288 4.513C15.2016 3.76173 13.6129 3.36914 12 3.36914C10.3871 3.36914 8.79844 3.76173 7.37119 4.513C5.94395 5.26428 4.72101 6.35167 3.80799 7.68127C2.89497 9.01087 2.31929 10.5427 2.13068 12.1446C1.94207 13.7464 2.1462 15.3701 2.72542 16.8754Z" fill="#050505"/>
<path d="M8.4375 8.8125C8.4375 9.5171 8.64644 10.2059 9.03789 10.7917C9.42934 11.3776 9.98573 11.8342 10.6367 12.1038C11.2877 12.3735 12.004 12.444 12.695 12.3065C13.3861 12.1691 14.0208 11.8298 14.5191 11.3316C15.0173 10.8333 15.3566 10.1986 15.494 9.50751C15.6315 8.81645 15.561 8.10015 15.2913 7.44919C15.0217 6.79823 14.5651 6.24184 13.9792 5.85039C13.3934 5.45894 12.7046 5.25 12 5.25C11.0555 5.25107 10.15 5.62675 9.48212 6.29462C8.81425 6.96248 8.43857 7.868 8.4375 8.8125Z" fill="#050505"/>
<path d="M12 2.625C12.0995 2.62499 12.1948 2.58548 12.2652 2.51516C12.3355 2.44483 12.375 2.34945 12.375 2.25V0.375C12.375 0.275544 12.3355 0.180161 12.2652 0.109835C12.1948 0.0395088 12.0995 0 12 0C11.9005 0 11.8052 0.0395088 11.7348 0.109835C11.6645 0.180161 11.625 0.275544 11.625 0.375V2.25C11.625 2.34945 11.6645 2.44483 11.7348 2.51516C11.8052 2.58548 11.9005 2.62499 12 2.625Z" fill="#050505"/>
<path d="M20.6247 6.55859C20.7236 6.55986 20.819 6.52184 20.8899 6.45286L22.3899 4.95286C22.4599 4.88248 22.4991 4.78721 22.499 4.68794C22.4988 4.58866 22.4593 4.4935 22.3891 4.4233C22.3189 4.3531 22.2238 4.31361 22.1245 4.31348C22.0252 4.31334 21.93 4.35258 21.8596 4.42259L20.3596 5.92259C20.3065 5.97447 20.2703 6.04107 20.2555 6.11378C20.2407 6.18648 20.2481 6.26195 20.2766 6.33044C20.3051 6.39892 20.3536 6.45727 20.4156 6.49794C20.4777 6.53861 20.5505 6.55974 20.6247 6.55859Z" fill="#050505"/>
<path d="M3.10932 6.45307C3.18034 6.52205 3.27545 6.56063 3.37445 6.56063C3.47346 6.56063 3.56857 6.52205 3.63959 6.45307C3.67442 6.41826 3.70205 6.37692 3.7209 6.33143C3.73975 6.28594 3.74945 6.23717 3.74945 6.18793C3.74945 6.13869 3.73975 6.08993 3.7209 6.04443C3.70205 5.99894 3.67442 5.95761 3.63959 5.92279L2.13959 4.42279C2.06923 4.3527 1.97392 4.31338 1.8746 4.31348C1.77528 4.31357 1.68005 4.35307 1.60982 4.4233C1.53959 4.49353 1.50009 4.58876 1.5 4.68808C1.49991 4.7874 1.53922 4.8827 1.60932 4.95307L3.10932 6.45307Z" fill="#050505"/>
<path d="M22.875 17.6252H17.625V15.3752C17.6244 14.587 17.4169 13.8128 17.0232 13.13C16.6295 12.4472 16.0634 11.8797 15.3815 11.4844C15.2206 11.6877 15.0417 11.8762 14.8472 12.0477C15.4575 12.3634 15.9694 12.8407 16.327 13.4275C16.6846 14.0143 16.8742 14.6881 16.875 15.3752V17.6252H7.125V15.3752C7.12582 14.6881 7.31537 14.0143 7.67297 13.4275C8.03056 12.8407 8.54245 12.3634 9.15279 12.0477C8.95825 11.8762 8.77944 11.6877 8.6185 11.4844C7.93664 11.8797 7.37055 12.4472 6.97683 13.13C6.58312 13.8128 6.37559 14.587 6.375 15.3752V17.6252H1.125C0.826731 17.6256 0.540772 17.7442 0.329864 17.9551C0.118957 18.166 0.000325573 18.452 0 18.7502L0 22.8752C0.000325573 23.1735 0.118957 23.4595 0.329864 23.6704C0.540772 23.8813 0.826731 23.9999 1.125 24.0002H22.875C23.1733 23.9999 23.4592 23.8813 23.6701 23.6704C23.881 23.4595 23.9997 23.1735 24 22.8752V18.7502C23.9997 18.452 23.881 18.166 23.6701 17.9551C23.4592 17.7442 23.1733 17.6256 22.875 17.6252ZM4.58093 20.8534L4.24439 21.1983L4.3244 21.6899C4.33572 21.7594 4.32727 21.8306 4.30001 21.8955C4.27275 21.9604 4.22779 22.0163 4.17026 22.0568C4.11273 22.0973 4.04495 22.1208 3.97468 22.1247C3.90441 22.1285 3.83448 22.1125 3.77289 22.0784L3.375 21.8584L2.97711 22.0784C2.91552 22.1125 2.84559 22.1285 2.77531 22.1247C2.70504 22.1209 2.63727 22.0973 2.57973 22.0568C2.5222 22.0163 2.47724 21.9604 2.44998 21.8955C2.42272 21.8306 2.41427 21.7594 2.4256 21.6899L2.50561 21.1983L2.16907 20.8534C2.12093 20.804 2.08733 20.7423 2.07195 20.6751C2.05658 20.6079 2.06003 20.5378 2.08192 20.4724C2.10381 20.407 2.1433 20.349 2.19605 20.3046C2.2488 20.2602 2.31277 20.2312 2.38092 20.2208L2.83081 20.152L3.03552 19.7159C3.06578 19.6515 3.11378 19.5969 3.1739 19.5587C3.23402 19.5205 3.30377 19.5002 3.375 19.5002C3.44623 19.5002 3.51598 19.5205 3.5761 19.5587C3.63622 19.5969 3.68422 19.6515 3.71448 19.7159L3.91919 20.152L4.36908 20.2208C4.43723 20.2312 4.5012 20.2602 4.55395 20.3046C4.60669 20.349 4.64618 20.407 4.66808 20.4724C4.68997 20.5378 4.69342 20.6079 4.67805 20.6751C4.66267 20.7423 4.62907 20.804 4.58093 20.8534ZM8.89343 20.8534L8.55688 21.1983L8.6369 21.6899C8.64822 21.7594 8.63977 21.8306 8.61251 21.8955C8.58525 21.9604 8.54029 22.0163 8.48276 22.0568C8.42523 22.0973 8.35745 22.1208 8.28718 22.1247C8.21691 22.1285 8.14698 22.1125 8.08539 22.0784L7.6875 21.8584L7.28961 22.0784C7.22802 22.1125 7.15809 22.1285 7.08781 22.1247C7.01754 22.1209 6.94977 22.0973 6.89223 22.0568C6.8347 22.0163 6.78974 21.9604 6.76248 21.8955C6.73522 21.8306 6.72677 21.7594 6.7381 21.6899L6.81812 21.1983L6.48157 20.8534C6.43343 20.804 6.39983 20.7423 6.38445 20.6751C6.36908 20.6079 6.37253 20.5378 6.39442 20.4724C6.41631 20.407 6.4558 20.349 6.50855 20.3046C6.5613 20.2602 6.62527 20.2312 6.69342 20.2208L7.14331 20.152L7.34802 19.7159C7.37828 19.6515 7.42628 19.5969 7.4864 19.5587C7.54652 19.5205 7.61627 19.5002 7.6875 19.5002C7.75873 19.5002 7.82848 19.5205 7.8886 19.5587C7.94872 19.5969 7.99672 19.6515 8.02698 19.7159L8.23169 20.152L8.68158 20.2208C8.74973 20.2312 8.8137 20.2602 8.86645 20.3046C8.91919 20.349 8.95868 20.407 8.98058 20.4724C9.00247 20.5378 9.00592 20.6079 8.99055 20.6751C8.97517 20.7423 8.94157 20.804 8.89343 20.8534ZM13.2059 20.8534L12.8694 21.1983L12.9494 21.6899C12.9607 21.7594 12.9523 21.8306 12.925 21.8955C12.8978 21.9604 12.8528 22.0163 12.7953 22.0568C12.7377 22.0973 12.67 22.1208 12.5997 22.1247C12.5294 22.1285 12.4595 22.1125 12.3979 22.0784L12 21.8584L11.6021 22.0784C11.5405 22.1125 11.4706 22.1285 11.4003 22.1247C11.33 22.1209 11.2623 22.0973 11.2047 22.0568C11.1472 22.0163 11.1022 21.9604 11.075 21.8955C11.0477 21.8306 11.0393 21.7594 11.0506 21.6899L11.1306 21.1983L10.7941 20.8534C10.7459 20.804 10.7123 20.7423 10.697 20.6751C10.6816 20.6079 10.685 20.5378 10.7069 20.4724C10.7288 20.407 10.7683 20.349 10.8211 20.3046C10.8738 20.2602 10.9378 20.2312 11.0059 20.2208L11.4558 20.152L11.6605 19.7159C11.6908 19.6515 11.7388 19.5969 11.7989 19.5587C11.859 19.5205 11.9288 19.5002 12 19.5002C12.0712 19.5002 12.141 19.5205 12.2011 19.5587C12.2612 19.5969 12.3092 19.6515 12.3395 19.7159L12.5442 20.152L12.9941 20.2208C13.0622 20.2312 13.1262 20.2602 13.1789 20.3046C13.2317 20.349 13.2712 20.407 13.2931 20.4724C13.315 20.5378 13.3184 20.6079 13.303 20.6751C13.2877 20.7423 13.2541 20.804 13.2059 20.8534ZM17.5184 20.8534L17.1819 21.1983L17.2619 21.6899C17.2732 21.7594 17.2648 21.8306 17.2375 21.8955C17.2103 21.9604 17.1653 22.0163 17.1078 22.0568C17.0502 22.0973 16.9825 22.1208 16.9122 22.1247C16.8419 22.1285 16.772 22.1125 16.7104 22.0784L16.3125 21.8584L15.9146 22.0784C15.853 22.1125 15.7831 22.1285 15.7128 22.1247C15.6425 22.1209 15.5748 22.0973 15.5172 22.0568C15.4597 22.0163 15.4147 21.9604 15.3875 21.8955C15.3602 21.8306 15.3518 21.7594 15.3631 21.6899L15.4431 21.1983L15.1066 20.8534C15.0584 20.804 15.0248 20.7423 15.0095 20.6751C14.9941 20.6079 14.9975 20.5378 15.0194 20.4724C15.0413 20.407 15.0808 20.349 15.1336 20.3046C15.1863 20.2602 15.2503 20.2312 15.3184 20.2208L15.7683 20.152L15.973 19.7159C16.0033 19.6515 16.0513 19.5969 16.1114 19.5587C16.1715 19.5205 16.2413 19.5002 16.3125 19.5002C16.3837 19.5002 16.4535 19.5205 16.5136 19.5587C16.5737 19.5969 16.6217 19.6515 16.652 19.7159L16.8567 20.152L17.3066 20.2208C17.3747 20.2312 17.4387 20.2602 17.4914 20.3046C17.5442 20.349 17.5837 20.407 17.6056 20.4724C17.6275 20.5378 17.6309 20.6079 17.6155 20.6751C17.6002 20.7423 17.5666 20.804 17.5184 20.8534ZM21.8309 20.8534L21.4944 21.1983L21.5744 21.6899C21.5857 21.7594 21.5773 21.8306 21.55 21.8955C21.5228 21.9604 21.4778 22.0163 21.4203 22.0568C21.3627 22.0973 21.295 22.1208 21.2247 22.1247C21.1544 22.1285 21.0845 22.1125 21.0229 22.0784L20.625 21.8584L20.2271 22.0784C20.1655 22.1125 20.0956 22.1285 20.0253 22.1247C19.955 22.1209 19.8873 22.0973 19.8297 22.0568C19.7722 22.0163 19.7272 21.9604 19.7 21.8955C19.6727 21.8306 19.6643 21.7594 19.6756 21.6899L19.7556 21.1983L19.4191 20.8534C19.3709 20.804 19.3373 20.7423 19.322 20.6751C19.3066 20.6079 19.31 20.5378 19.3319 20.4724C19.3538 20.407 19.3933 20.349 19.4461 20.3046C19.4988 20.2602 19.5628 20.2312 19.6309 20.2208L20.0808 20.152L20.2855 19.7159C20.3158 19.6515 20.3638 19.5969 20.4239 19.5587C20.484 19.5205 20.5538 19.5002 20.625 19.5002C20.6962 19.5002 20.766 19.5205 20.8261 19.5587C20.8862 19.5969 20.9342 19.6515 20.9645 19.7159L21.1692 20.152L21.6191 20.2208C21.6872 20.2312 21.7512 20.2602 21.8039 20.3046C21.8567 20.349 21.8962 20.407 21.9181 20.4724C21.94 20.5378 21.9434 20.6079 21.928 20.6751C21.9127 20.7423 21.8791 20.804 21.8309 20.8534Z" fill="#050505"/>
</g>
<defs>
<clipPath id="clip0_137_1576">
<rect width="24" height="24" fill="white"/>
</clipPath>
</defs>
</svg>
