<svg width="24" height="24" viewBox="0 0 24 24" fill="none" xmlns="http://www.w3.org/2000/svg">
<path d="M5.79637 6.40291L11.4379 4.01303C11.5097 3.98261 11.6106 3.97558 11.6622 3.99747L16.6411 6.10666H16.9619C17.0565 6.10666 17.1422 6.14397 17.2054 6.20467C17.2952 6.26837 17.3539 6.37314 17.3539 6.49164V8.74131L17.8017 9.04581V10.7358L17.0023 10.1438L16.2029 10.7358V9.04581L16.6507 8.74127V6.80978H12.3585C12.1644 6.80978 12.007 6.96719 12.007 7.16134C12.007 7.3555 12.1644 7.51291 12.3585 7.51291H14.9813L11.699 8.90336C11.6272 8.93378 11.5262 8.94081 11.4747 8.91897L5.75962 6.49792C5.70802 6.47608 5.72461 6.43333 5.79637 6.40291ZM11.2004 9.56641L7.5915 8.03758V11.0472C8.64675 11.5198 10.0403 11.8073 11.5684 11.8073C13.0965 11.8073 14.4901 11.5198 15.5453 11.0472V8.03758L11.9732 9.5508C11.7356 9.65148 11.4396 9.66775 11.2004 9.56641ZM23.6016 2.365V16.9023C23.6016 17.4952 23.1165 17.9802 22.5236 17.9802H1.47633C0.883453 17.9802 0.398438 17.4952 0.398438 16.9023V2.365C0.398438 1.77217 0.883453 1.28711 1.47633 1.28711H22.5236C23.1165 1.28706 23.6016 1.77217 23.6016 2.365ZM22.181 2.70766H1.81903V16.5596H22.181V2.70766ZM5.32444 14.3443H7.33762C7.47131 14.6798 7.79902 14.9169 8.18213 14.9169C8.56523 14.9169 8.89298 14.6798 9.02662 14.3443H18.6756C18.8698 14.3443 19.0272 14.1869 19.0272 13.9928C19.0272 13.7986 18.8698 13.6412 18.6756 13.6412H9.01364C8.87259 13.3221 8.55342 13.0994 8.18213 13.0994C7.81083 13.0994 7.49161 13.3221 7.35056 13.6412H5.32444C5.13028 13.6412 4.97287 13.7986 4.97287 13.9928C4.97283 14.1869 5.13028 14.3443 5.32444 14.3443ZM17.918 21.148H6.08203C5.65163 21.148 5.2995 21.5002 5.2995 21.9306C5.2995 22.361 5.65167 22.7132 6.08203 22.7132H17.918C18.3484 22.7132 18.7005 22.361 18.7005 21.9306C18.7005 21.5002 18.3483 21.148 17.918 21.148ZM9.11475 18.6833L8.24859 20.4449H15.7514L14.8853 18.6833H9.11475Z" fill="#050505"/>
</svg>
