<svg width="24" height="24" viewBox="0 0 24 24" fill="none" xmlns="http://www.w3.org/2000/svg">
<path d="M1.30872 15.3373C1.30872 17.0511 2.70372 18.4461 4.41747 18.4461H4.60872C5.53122 18.4461 6.28122 17.6961 6.28122 16.7736V15.1086C7.30122 17.2498 9.47997 18.7348 12.0037 18.7348C14.5275 18.7348 16.7062 17.2498 17.7262 15.1086V16.7736C17.7262 17.3398 18.0112 17.8423 18.4462 18.1461C17.7562 20.1261 16.7212 21.1311 15.165 21.3598C14.9737 20.8161 14.4562 20.4186 13.845 20.4186H12.39C11.6175 20.4186 10.9875 21.0486 10.9875 21.8436C10.9875 22.6386 11.6175 23.2461 12.39 23.2461H13.845C14.5237 23.2461 15.0937 22.7586 15.2212 22.1023C17.0962 21.8436 18.3525 20.6586 19.1437 18.4161C19.2262 18.4273 19.3087 18.4423 19.395 18.4423H19.5862C21.3 18.4423 22.695 17.0473 22.695 15.3336V13.2636C22.695 12.3073 22.2862 11.4486 21.6337 10.8448V9.99734C21.6337 4.37609 17.8537 0.746094 12.0037 0.746094C6.15372 0.746094 2.36997 4.37984 2.36997 10.0011V10.8486C1.71747 11.4523 1.30872 12.3111 1.30872 13.2673V15.3373ZM12 17.9886C8.91747 17.9886 6.40872 15.4798 6.40872 12.3973C6.40872 9.31484 8.91747 6.80609 12 6.80609C15.0825 6.80609 17.5912 9.31484 17.5912 12.3973C17.5912 15.4798 15.0825 17.9886 12 17.9886ZM18.0825 10.6161C17.31 7.98359 14.88 6.05609 12 6.05609C9.11997 6.05609 6.68997 7.98359 5.91747 10.6161C5.70747 10.3461 5.41872 10.1473 5.08122 10.0461V10.0011C5.08122 5.90609 7.66872 3.46484 11.9962 3.46484C16.3237 3.46484 18.9112 5.90984 18.9112 10.0011V10.0461C18.5775 10.1473 18.2887 10.3461 18.075 10.6161H18.0825ZM21.9412 13.2673V15.3373C21.9412 16.6386 20.8837 17.6961 19.5825 17.6961H19.3912C19.3087 17.6961 19.23 17.6811 19.155 17.6623C19.1175 17.6286 19.0725 17.5986 19.0162 17.5836C18.99 17.5761 18.9637 17.5761 18.9375 17.5761C18.66 17.4186 18.4687 17.1223 18.4687 16.7773V11.6398C18.4687 11.1673 18.8287 10.7811 19.2862 10.7286C19.7437 10.6761 19.29 10.7286 19.2937 10.7286C19.3237 10.7286 19.3537 10.7173 19.3875 10.7173C20.7937 10.7173 21.9375 11.8611 21.9375 13.2673H21.9412ZM2.05872 13.2673C2.05872 11.8611 3.20247 10.7173 4.60872 10.7173C4.64247 10.7173 4.67247 10.7248 4.70247 10.7286H4.70997C5.16747 10.7811 5.52747 11.1673 5.52747 11.6398V16.7773C5.52747 17.2836 5.11497 17.6998 4.60497 17.6998H4.41372C3.11247 17.6998 2.05497 16.6423 2.05497 15.3411V13.2711L2.05872 13.2673ZM13.4287 11.8948C13.965 11.4711 14.31 10.8148 14.31 10.0798C14.31 8.80484 13.275 7.76984 12 7.76984C10.725 7.76984 9.68997 8.80859 9.68997 10.0798C9.68997 10.8148 10.035 11.4711 10.5712 11.8948C9.30747 12.2136 8.36997 13.3573 8.36997 14.7186V14.8798C8.36997 15.3186 8.54247 15.7311 8.84997 16.0423C9.22497 16.4173 9.66747 16.5036 9.91122 16.5186C10.7212 16.9311 11.49 17.0211 12 17.0211C12.9 17.0211 13.62 16.7586 14.0887 16.5186C14.9475 16.4698 15.6337 15.7536 15.6337 14.8798V14.7186C15.6337 13.3573 14.6962 12.2136 13.4325 11.8948H13.4287ZM10.44 10.0798C10.44 9.21734 11.1412 8.51984 12 8.51984C12.8587 8.51984 13.56 9.22109 13.56 10.0798C13.56 10.9386 12.8587 11.6398 12 11.6398C11.1412 11.6398 10.44 10.9386 10.44 10.0798ZM14.8837 14.8761C14.8837 15.2998 14.5837 15.6561 14.1862 15.7461L13.9425 14.3886C13.905 14.1861 13.7137 14.0511 13.5075 14.0848C13.305 14.1223 13.1662 14.3173 13.2037 14.5198L13.4625 15.9748C13.0875 16.1286 12.5887 16.2636 12 16.2636C11.6325 16.2636 11.1037 16.2073 10.53 15.9673L10.7887 14.5161C10.8262 14.3136 10.6912 14.1186 10.485 14.0811C10.2787 14.0436 10.0875 14.1786 10.05 14.3848L9.80997 15.7348C9.68247 15.7048 9.52497 15.6448 9.38247 15.5023C9.21372 15.3336 9.11997 15.1086 9.11997 14.8723V14.7111C9.11997 13.5186 10.0912 12.5473 11.2837 12.5473H12.7162C13.9087 12.5473 14.88 13.5186 14.88 14.7111V14.8723L14.8837 14.8761Z" fill="black"/>
</svg>
