<svg width="40" height="40" viewBox="0 0 40 40" fill="none" xmlns="http://www.w3.org/2000/svg">
<path d="M19.9277 15.716C19.9325 15.0088 19.7274 14.316 19.3384 13.7253C18.9494 13.1346 18.394 12.6726 17.7424 12.3975C17.0908 12.1225 16.3723 12.0469 15.6777 12.1802C14.9831 12.3135 14.3437 12.6498 13.8402 13.1466C13.3368 13.6433 12.9919 14.2782 12.8493 14.9709C12.7067 15.6636 12.7726 16.3831 13.0389 17.0383C13.3052 17.6935 13.7597 18.2551 14.3451 18.652C14.9306 19.0489 15.6205 19.2632 16.3277 19.268C16.7975 19.2717 17.2634 19.1827 17.6987 19.0061C18.134 18.8295 18.5302 18.5687 18.8646 18.2388C19.199 17.9088 19.465 17.5162 19.6474 17.0833C19.8299 16.6504 19.9251 16.1858 19.9277 15.716ZM24.8717 36.516H9.51175C9.07924 36.5149 8.66475 36.3427 8.35891 36.0368C8.05308 35.731 7.8808 35.3165 7.87975 34.884V32.532C7.87975 32.3421 7.80431 32.16 7.67003 32.0257C7.53576 31.8914 7.35364 31.816 7.16375 31.816C6.97385 31.816 6.79173 31.8914 6.65746 32.0257C6.52318 32.16 6.44775 32.3421 6.44775 32.532V34.9C6.44401 35.3034 6.52071 35.7035 6.67337 36.077C6.82602 36.4504 7.05157 36.7896 7.33684 37.0749C7.62211 37.3602 7.96137 37.5857 8.3348 37.7384C8.70823 37.891 9.10834 37.9677 9.51175 37.964H24.8717C25.0616 37.964 25.2438 37.8886 25.378 37.7543C25.5123 37.62 25.5877 37.4379 25.5877 37.248C25.5877 37.0581 25.5123 36.876 25.378 36.7417C25.2438 36.6074 25.0616 36.532 24.8717 36.532V36.516ZM19.9997 33.064C20.1799 33.0505 20.3483 32.9694 20.4711 32.837C20.594 32.7046 20.6623 32.5306 20.6623 32.35C20.6623 32.1694 20.594 31.9954 20.4711 31.863C20.3483 31.7306 20.1799 31.6495 19.9997 31.636H13.7197C13.5396 31.6495 13.3712 31.7306 13.2484 31.863C13.1255 31.9954 13.0572 32.1694 13.0572 32.35C13.0572 32.5306 13.1255 32.7046 13.2484 32.837C13.3712 32.9694 13.5396 33.0505 13.7197 33.064H19.9997ZM37.8117 32.164L36.2597 30.564C36.9117 29.588 37.0597 28.2 36.1357 27.3L33.5637 24.688V10.448C33.5638 10.3572 33.5458 10.2673 33.5108 10.1835C33.4758 10.0997 33.4244 10.0237 33.3597 9.96L25.7277 2.244C25.6615 2.16884 25.5804 2.10832 25.4895 2.06631C25.3986 2.0243 25.2999 2.00171 25.1997 2H15.0277C14.8476 2.01349 14.6792 2.09457 14.5564 2.22699C14.4335 2.3594 14.3652 2.53336 14.3652 2.714C14.3652 2.89464 14.4335 3.0686 14.5564 3.20101C14.6792 3.33343 14.8476 3.41451 15.0277 3.428H24.7077V8.04C24.7095 8.84827 25.0256 9.62417 25.5892 10.2035C26.1529 10.7828 26.9198 11.1201 27.7277 11.144H32.1277V23.268L16.0357 7.268H21.4397C21.6199 7.25451 21.7883 7.17343 21.9111 7.04101C22.034 6.9086 22.1023 6.73464 22.1023 6.554C22.1023 6.37336 22.034 6.1994 21.9111 6.06699C21.7883 5.93457 21.6199 5.85349 21.4397 5.84H14.6197L11.9637 3.224C9.99975 1.348 6.49175 1.716 4.11975 4.124C2.11975 6.08 0.975747 9.724 3.26375 11.92L9.10375 17.756L2.60775 24.288C2.50706 24.3774 2.43483 24.4945 2.40003 24.6246C2.36523 24.7547 2.36939 24.8922 2.41198 25.0199C2.45457 25.1477 2.53372 25.2602 2.63963 25.3434C2.74553 25.4266 2.87353 25.4769 3.00775 25.488L8.20775 26.264L8.98375 31.464C8.9966 31.5973 9.04784 31.724 9.13126 31.8287C9.21468 31.9334 9.32669 32.0117 9.45372 32.0541C9.58075 32.0964 9.71733 32.101 9.84691 32.0673C9.97649 32.0335 10.0935 31.9629 10.1837 31.864L16.7437 25.348C20.5397 29.144 24.3437 32.948 28.1397 36.696C29.2797 37.896 30.7117 38.208 32.3037 37.896C34.6317 37.408 37.0437 35.284 37.9397 32.916C37.9911 32.7945 38.0071 32.6609 37.9859 32.5307C37.9647 32.4005 37.9071 32.2789 37.8197 32.18L37.8117 32.164ZM26.1357 8.04V4.696L31.1197 9.716H27.7277C27.2935 9.70551 26.8811 9.52315 26.5811 9.20893C26.2811 8.89471 26.1181 8.47431 26.1277 8.04H26.1357ZM25.6877 18.9L33.3677 26.532C31.7148 26.8077 30.1953 27.6103 29.0357 28.82C27.7494 30.0352 26.9875 31.704 26.9117 33.472L19.1517 25.716C17.3557 22.516 22.4197 17.428 25.6877 18.916V18.9ZM34.0597 27.92C35.7757 27.96 35.6597 29.348 34.6317 30.368C33.8317 31.168 32.7517 31.568 32.3437 31.168L30.5477 29.372C31.4877 28.596 32.8357 27.82 34.0597 27.9V27.92ZM5.09975 5.12C6.93975 3.28 9.59575 2.916 10.9837 4.26L15.7837 9.06C12.5557 9.264 9.28775 12.448 9.00375 15.676L4.24375 10.9C2.60775 9.3 3.71175 6.532 5.09975 5.104V5.12ZM16.2117 23.84L10.2117 29.84L9.51175 25.512C9.48845 25.3687 9.42068 25.2364 9.31803 25.1337C9.21538 25.0311 9.08304 24.9633 8.93975 24.94L4.61175 24.288L10.1237 18.776L12.8597 21.512C13.5157 22.164 14.5357 21.112 13.8437 20.452L10.6957 17.308C9.26775 14.084 14.2517 9.2 17.4357 10.776L23.9997 17.224C20.7997 17.512 17.5477 20.736 17.3437 24L17.1997 23.84C17.1375 23.772 17.0618 23.7176 16.9775 23.6805C16.8931 23.6433 16.8019 23.6241 16.7097 23.6241C16.6176 23.6241 16.5264 23.6433 16.442 23.6805C16.3577 23.7176 16.282 23.772 16.2197 23.84H16.2117ZM31.9757 36.492C30.0157 36.892 28.2997 35.636 28.2997 33.596C28.3406 32.4066 28.7881 31.2672 29.5677 30.368L31.3637 32.208C32.4277 33.228 34.0997 32.736 35.3277 31.676L36.4277 32.82C35.6277 34.532 33.7317 36.124 31.9757 36.492ZM16.3317 17.84C15.9079 17.8352 15.495 17.705 15.1452 17.4656C14.7954 17.2263 14.5243 16.8886 14.3663 16.4953C14.2084 16.102 14.1705 15.6706 14.2575 15.2558C14.3446 14.841 14.5526 14.4613 14.8554 14.1646C15.1582 13.868 15.5421 13.6678 15.9586 13.5893C16.3751 13.5107 16.8056 13.5574 17.1956 13.7234C17.5856 13.8895 17.9176 14.1673 18.1498 14.522C18.3819 14.8767 18.5037 15.2922 18.4997 15.716C18.4971 15.9979 18.439 16.2765 18.3285 16.5359C18.2181 16.7953 18.0576 17.0303 17.8563 17.2276C17.6549 17.4249 17.4166 17.5806 17.155 17.6856C16.8934 17.7907 16.6136 17.8432 16.3317 17.84Z" fill="white"/>
</svg>
