<svg width="40" height="40" viewBox="0 0 40 40" fill="none" xmlns="http://www.w3.org/2000/svg">
<g clip-path="url(#clip0_261_338)">
<path d="M37.8739 9.09604L20.3267 1.41258C20.107 1.31641 19.8571 1.31641 19.6373 1.41258L2.0908 9.09604C1.76347 9.2394 1.55894 9.57041 1.5773 9.92735C1.58019 9.98344 1.5891 10.0381 1.6023 10.0913V17.2579C0.668497 17.6025 0 18.5094 0 19.5711C0 20.9285 1.09255 22.0327 2.4354 22.0327C3.77826 22.0327 4.8708 20.9285 4.8708 19.5711C4.8708 18.5295 4.22715 17.6375 3.321 17.2786V11.0693L9.78067 13.1384V20.1186C9.78067 20.3869 9.91481 20.6517 10.1306 20.8106C10.2764 20.918 13.772 23.4387 19.9827 23.4387C26.1934 23.4387 29.6885 20.9179 29.8343 20.8106C30.0499 20.6517 30.1841 20.3866 30.1841 20.1186V13.1383L37.7913 10.7015C38.1317 10.5926 38.369 10.2842 38.3874 9.92727C38.4057 9.57048 38.2013 9.2394 37.8739 9.09604ZM2.43548 20.314C2.04026 20.314 1.71878 19.9807 1.71878 19.5711C1.71878 19.1614 2.04033 18.8281 2.43548 18.8281C2.83063 18.8281 3.15218 19.1614 3.15218 19.5711C3.15218 19.9807 2.8307 20.314 2.43548 20.314ZM28.4654 18.6327C26.8943 17.8582 24.0089 16.7986 19.982 16.7986C15.9556 16.7986 13.0703 17.8581 11.4994 18.6326V12.263C12.4729 11.6856 15.4329 10.191 19.982 10.191C24.5312 10.191 27.4917 11.6856 28.4654 12.2631V18.6327ZM12.3872 20.1186C13.805 19.443 16.401 18.5172 19.982 18.5172C23.5637 18.5172 26.1604 19.4433 27.5776 20.1186C26.1598 20.7942 23.5638 21.72 19.9828 21.72C16.4011 21.7201 13.8045 20.7939 12.3872 20.1186ZM30.0711 11.3699C30.0122 11.2661 29.9329 11.1738 29.8343 11.1011C29.6886 10.9938 26.1927 8.47231 19.982 8.47231C13.7713 8.47231 10.2762 10.9939 10.1304 11.1012C10.0318 11.1739 9.95254 11.2662 9.89371 11.3699L4.86291 9.75845L19.982 3.13792L35.1017 9.75845L30.0711 11.3699Z" fill="white"/>
<path d="M39.4255 29.653C39.3932 29.2919 39.1272 28.9949 38.7765 28.9031L25.7416 25.4932C24.7363 25.2279 23.6847 25.266 22.7007 25.6027C21.5642 25.991 20.6269 26.7419 19.9996 27.6998C19.3726 26.7419 18.4356 25.991 17.2996 25.6029C16.3155 25.2659 15.2638 25.2279 14.2595 25.4928L1.21099 28.9097C0.860297 29.0015 0.594445 29.2985 0.56218 29.6596C0.530072 30.019 0.715457 30.3549 1.04154 30.5084C1.16037 30.5738 2.60908 31.4239 2.60908 33.9396C2.60908 34.4142 2.99383 34.799 3.46843 34.799C3.94303 34.799 4.32778 34.4142 4.32778 33.9396C4.32778 32.162 3.76303 30.9536 3.16812 30.1739L14.6962 27.1551C15.373 26.9766 16.0807 27.0023 16.7433 27.2291C18.1769 27.7189 19.14 29.0659 19.14 30.581V34.6223C19.14 35.0969 19.5248 35.4816 19.9994 35.4816C20.474 35.4816 20.8587 35.0969 20.8587 34.6223V30.581C20.8587 29.066 21.8222 27.719 23.2567 27.229C23.9193 27.0023 24.6271 26.9766 25.305 27.1555L36.8193 30.1677C36.2246 30.9475 35.6599 32.1559 35.6599 33.9332C35.6599 34.4078 36.0446 34.7925 36.5192 34.7925C36.9938 34.7925 37.3786 34.4078 37.3786 33.9332C37.3786 31.4174 38.8273 30.5674 38.9461 30.502C39.2723 30.3483 39.4577 30.0124 39.4255 29.653Z" fill="white"/>
<path d="M21.4155 38.6595H18.5847C17.338 38.6595 16.152 38.2643 15.1549 37.5166C14.4156 36.9623 13.8164 36.2279 13.4178 35.3993L2.8249 38.2685C2.82037 38.2697 2.81591 38.2708 2.81138 38.272C1.67227 38.5608 0.510899 37.869 0.222157 36.73L0.0662237 36.1149C-0.0736943 35.5632 0.00974088 34.9899 0.300983 34.5009C0.591053 34.0138 1.05268 33.6684 1.60142 33.5274L14.1587 30.1474C14.1628 30.1463 14.1669 30.1452 14.1711 30.1442C15.0226 29.9286 15.9129 30.1145 16.6137 30.6545C17.33 31.2066 17.7457 32.0402 17.7543 32.9418C17.7585 33.3792 18.1646 33.763 18.6234 33.763H21.3767C21.6009 33.763 21.8251 33.6704 21.9917 33.509C22.1557 33.3503 22.2459 33.1461 22.2459 32.9342C22.2454 32.0497 22.6523 31.2254 23.3624 30.6724C24.0724 30.1196 24.9716 29.9271 25.829 30.1442C25.8332 30.1453 25.8373 30.1463 25.8415 30.1475L38.3988 33.5274C38.9475 33.6684 39.4091 34.0138 39.6992 34.5009C39.9904 34.9899 40.0738 35.5631 39.934 36.1149L39.778 36.73C39.4893 37.869 38.3277 38.5605 37.1888 38.272C37.1843 38.2708 37.1798 38.2697 37.1753 38.2685L26.5824 35.3993C26.1837 36.2279 25.5846 36.9623 24.8453 37.5166C23.8481 38.2643 22.6621 38.6595 21.4155 38.6595ZM13.934 33.5097C14.3018 33.5097 14.6407 33.7475 14.7545 34.1152C15.2693 35.7788 16.8444 36.9407 18.5847 36.9407H21.4155C23.1558 36.9407 24.7309 35.7788 25.2457 34.1152C25.3825 33.6731 25.8447 33.4189 26.2913 33.5397L37.6159 36.6071C37.8345 36.6598 38.0565 36.5263 38.112 36.3076L38.2679 35.6925C38.3044 35.5485 38.2551 35.4351 38.2225 35.3803C38.1899 35.3255 38.1136 35.2281 37.9696 35.1917C37.9655 35.1906 37.9614 35.1896 37.9574 35.1885L25.4016 31.809C25.0634 31.7253 24.7054 31.8051 24.4184 32.0285C24.1298 32.2533 23.9643 32.5831 23.9646 32.9333C23.9649 33.6152 23.6889 34.2581 23.1873 34.7438C22.6958 35.2197 22.0529 35.4818 21.3767 35.4818H18.6234C17.2097 35.4818 16.0489 34.3496 16.0357 32.9581C16.0322 32.5873 15.8605 32.2439 15.5646 32.0158C15.4005 31.8894 15.0572 31.6949 14.5984 31.809L2.04281 35.1885C2.03875 35.1896 2.03469 35.1906 2.03062 35.1917C1.88656 35.2282 1.81032 35.3255 1.77774 35.3803C1.74516 35.4351 1.69579 35.5485 1.73227 35.6925L1.88821 36.3077C1.94367 36.5264 2.16554 36.6601 2.38429 36.6071L13.7089 33.5397C13.784 33.5194 13.8596 33.5097 13.934 33.5097Z" fill="white"/>
</g>
<defs>
<clipPath id="clip0_261_338">
<rect width="40" height="40" fill="white"/>
</clipPath>
</defs>
</svg>
