<svg width="40" height="40" viewBox="0 0 40 40" fill="none" xmlns="http://www.w3.org/2000/svg">
<path d="M37.3738 27.9806C37.5633 27.5995 37.6462 27.1744 37.6023 26.7424C37.5052 25.7745 36.8098 25.0174 35.9211 24.7773L35.6762 21.7532C35.997 20.9171 35.4239 20.107 34.6779 19.8535L22.8717 15.7669C24.8214 14.3591 26.0263 12.1045 26.0263 9.61878C26.0263 5.4237 22.6136 2.01099 18.4181 2.01099C14.2234 2.01099 10.8107 5.4237 10.8107 9.61878C10.8107 12.1037 12.0178 14.3586 13.9714 15.767L2.16511 19.8513C1.49354 20.0774 1.05934 20.6322 1.05859 21.2647C1.05859 21.8972 1.49279 22.4523 2.1591 22.6766L5.73332 23.9131V32.6341C5.73332 34.4501 6.89618 36.034 8.6262 36.5757C14.5164 38.4276 21.6242 38.5019 28.1402 36.5479C29.9123 36.0141 31.1029 34.4197 31.1029 32.5804V23.9142L34.2199 22.8353L34.3877 24.9072C33.5257 25.3031 32.9623 26.2059 33.062 27.1995C33.1053 27.6314 33.2718 28.0313 33.5334 28.367L32.7563 32.0546C32.7007 32.3295 32.7803 32.618 32.9681 32.826C33.1477 33.0244 33.4171 33.1409 33.7156 33.1141L38.1417 32.6683C38.1424 32.6679 38.1432 32.6679 38.1439 32.6679C38.4234 32.639 38.6758 32.4767 38.8178 32.2337C38.9605 31.9911 38.9793 31.6921 38.8673 31.4329L37.3738 27.9806ZM36.0714 26.8979C36.1113 27.2799 35.8351 27.6694 35.4096 27.7122C35.0018 27.7544 34.6338 27.452 34.593 27.0455C34.5517 26.6388 34.8514 26.2744 35.2593 26.2331C35.6636 26.1915 36.0304 26.4879 36.0714 26.8964V26.8979ZM12.3492 9.61878C12.3492 6.27218 15.0715 3.54945 18.4181 3.54945C21.7647 3.54945 24.4878 6.27218 24.4878 9.61878C24.4878 13.4867 20.9625 16.3037 17.2432 15.5721C14.4662 15.0255 12.3492 12.5915 12.3492 9.61878ZM27.6977 35.0744C21.61 36.8998 14.8259 36.9122 9.08669 35.1078C8.0012 34.7679 7.27178 33.7737 7.27178 32.6341V31.1757C9.08105 31.7533 13.0653 32.7937 18.2987 32.7937C21.6283 32.7937 25.4663 32.3616 29.5645 31.1313V32.5804C29.5645 33.7357 28.814 34.7382 27.6977 35.0744ZM29.5645 29.5259C18.6771 32.9361 9.43966 30.2804 7.27178 29.5501V24.452L17.7563 28.0728C18.1795 28.2267 18.6861 28.2151 19.0777 28.0766L29.5645 24.4467V29.5259ZM18.5706 26.6241C18.476 26.6575 18.367 26.6583 18.2694 26.6226L2.7841 21.265L15.8024 16.7616C17.4353 17.3626 19.3967 17.3618 21.0406 16.7612L34.0529 21.265C33.174 21.5693 18.6683 26.5903 18.5706 26.6241ZM34.4465 31.4942L34.9265 29.2184C34.9285 29.2188 34.9305 29.2187 34.9325 29.2191C35.3301 29.2891 35.7733 29.2538 36.178 29.0914L37.102 31.2267L34.4465 31.4942Z" fill="white"/>
<path d="M11.7812 20.8812C11.7812 21.306 12.1253 21.6504 12.5505 21.6504H24.78C25.2052 21.6504 25.5493 21.306 25.5493 20.8812C25.5493 20.4564 25.2052 20.1119 24.78 20.1119H12.5505C12.1253 20.1119 11.7812 20.4564 11.7812 20.8812Z" fill="white"/>
<path d="M17.787 13.2396V13.5788C17.787 13.9531 18.0703 14.2019 18.4105 14.2019C18.7858 14.2019 19.043 13.9187 19.043 13.5788V13.237C20.2514 13.0659 21.1749 12.2933 21.1749 11.1325C21.1749 9.84836 20.2883 9.33391 19.043 9.00699V7.45388C19.3532 7.48993 19.6469 7.55642 19.9151 7.65069C20.2877 7.80056 20.5379 7.68975 20.7242 7.47003C21.0432 7.09075 20.9513 6.47404 20.4259 6.28613C20.0143 6.12913 19.55 6.02659 19.043 5.98077V5.66789C19.043 5.31868 18.7715 5.0452 18.4195 5.04011C18.0531 5.03482 17.787 5.31857 17.787 5.66789V6.00932C16.607 6.21012 15.7287 7.02617 15.7287 8.19719C15.7287 9.40784 16.6311 9.93059 17.787 10.2694V11.7511C17.4136 11.7004 17.0508 11.5979 16.7052 11.4443C16.2036 11.222 15.6641 11.5737 15.6641 12.111C15.6641 12.4193 15.8653 12.6956 16.1328 12.8081C16.6489 13.0278 17.204 13.1728 17.787 13.2396ZM17.787 7.54214V8.66594C17.5024 8.55401 17.2611 8.43781 17.2611 8.13259C17.2611 7.82009 17.4915 7.64703 17.787 7.54214ZM19.043 11.7323V10.6138C19.2986 10.7044 19.6514 10.8218 19.6514 11.0773C19.6514 11.2538 19.6514 11.5934 19.043 11.7323Z" fill="white"/>
</svg>
