<svg width="32" height="32" viewBox="0 0 32 32" fill="none" xmlns="http://www.w3.org/2000/svg">
<path d="M16.4962 10.1457C16.4962 9.86928 16.7202 9.64522 16.9967 9.64522H21.2434C21.5198 9.64522 21.7439 9.86928 21.7439 10.1457C21.7439 10.4222 21.5198 10.6462 21.2434 10.6462H16.9967C16.7202 10.6462 16.4962 10.4222 16.4962 10.1457ZM16.8993 12.2H15.3792C15.1027 12.2 14.8787 12.424 14.8787 12.7005C14.8787 12.9769 15.1027 13.201 15.3792 13.201H16.8993C17.1757 13.201 17.3997 12.9769 17.3997 12.7005C17.3997 12.424 17.1757 12.2 16.8993 12.2ZM24.1152 7.09053H17.8312C17.5547 7.09053 17.3307 7.31459 17.3307 7.59103C17.3307 7.86747 17.5547 8.09153 17.8312 8.09153H24.1152C24.3917 8.09153 24.6157 7.86747 24.6157 7.59103C24.6157 7.31459 24.3917 7.09053 24.1152 7.09053ZM31.4631 27.4335V29.09C31.4631 29.7343 30.9382 30.2584 30.2929 30.2584H1.63112C0.985875 30.2584 0.460938 29.7343 0.460938 29.09V27.4335C0.460938 26.7883 0.985875 26.2633 1.63112 26.2633H8.64094C8.82325 24.6285 9.88644 23.2561 11.3443 22.6337C10.75 22.1327 10.3716 21.3834 10.3716 20.5472C10.3716 19.0422 11.5959 17.8179 13.1008 17.8179C14.6058 17.8179 15.83 19.0422 15.83 20.5472C15.83 21.3835 15.4516 22.1327 14.8574 22.6337C15.0791 22.7284 15.2912 22.8412 15.493 22.9688C15.9852 22.179 16.7074 21.5685 17.5481 21.2103C16.9542 20.7089 16.5759 19.9594 16.5759 19.1228C16.5759 17.6178 17.8002 16.3935 19.3051 16.3935C20.81 16.3935 22.0361 17.6178 22.0361 19.1228C22.0361 19.9608 21.6564 20.7116 21.0602 21.213C21.8992 21.5717 22.624 22.1807 23.1161 22.9668C23.318 22.8392 23.5302 22.7265 23.752 22.6319C23.1572 22.1305 22.7784 21.3807 22.7784 20.5437C22.7784 19.0387 24.0035 17.8144 25.5094 17.8144C27.0152 17.8144 28.2386 19.0387 28.2386 20.5437C28.2386 21.3806 27.8601 22.1304 27.2657 22.6318C28.7246 23.2542 29.7887 24.6276 29.971 26.2635H30.2928C30.9381 26.2635 31.463 26.7883 31.463 27.4337L31.4631 27.4335ZM22.0549 26.2633H28.9624C28.7188 24.5757 27.2636 23.2746 25.5096 23.2746C23.7556 23.2746 22.2986 24.5757 22.0549 26.2633ZM16.2813 23.6C16.9783 24.3006 17.4454 25.2295 17.5607 26.2633H21.0461C21.1615 25.2285 21.6295 24.2985 22.3278 23.5975C21.7157 22.541 20.5747 21.8673 19.3459 21.8527C19.3323 21.8528 19.3188 21.8537 19.3052 21.8537C19.2916 21.8537 19.2782 21.8529 19.2647 21.8527C18.0263 21.8671 16.8927 22.5395 16.2813 23.6001V23.6ZM9.64981 26.2633H16.5519C16.3084 24.5767 14.8539 23.2763 13.1009 23.2763C11.3478 23.2763 9.89331 24.5767 9.64981 26.2633ZM24.1152 9.64528H22.7758C22.4994 9.64528 22.2753 9.86934 22.2753 10.1458C22.2753 10.4222 22.4994 10.6463 22.7758 10.6463H24.1152C24.3916 10.6463 24.6157 10.4222 24.6157 10.1458C24.6157 9.86934 24.3916 9.64528 24.1152 9.64528ZM24.1594 12.2H18.6389C18.3625 12.2 18.1384 12.424 18.1384 12.7005C18.1384 12.9769 18.3625 13.201 18.6389 13.201H24.1594C24.4359 13.201 24.6599 12.9769 24.6599 12.7005C24.6599 12.424 24.4359 12.2 24.1594 12.2ZM14.1621 5.53678H20.4479C20.7243 5.53678 20.9484 5.31272 20.9484 5.03628C20.9484 4.75984 20.7243 4.53578 20.4479 4.53578H14.1621C13.8856 4.53578 13.6616 4.75984 13.6616 5.03628C13.6616 5.31272 13.8856 5.53678 14.1621 5.53678ZM1.08456 23.1975V14.8016C1.08456 13.3322 1.91225 12.0524 3.12594 11.4042C2.25556 10.8203 1.68163 9.82772 1.68163 8.70359C1.68163 6.91053 3.14038 5.45172 4.9335 5.45172C6.72663 5.45172 8.18538 6.91047 8.18538 8.70359C8.18538 9.82841 7.61075 10.8215 6.7395 11.4052C7.5515 11.839 8.19731 12.5577 8.53219 13.4417L9.197 13.0968C9.19613 13.0686 9.19525 13.0403 9.19525 13.0123V4.72447C9.19525 3.09941 10.5173 1.77734 12.1424 1.77734H26.1809C27.805 1.77734 29.1263 3.09941 29.1263 4.72447V13.0123C29.1263 14.6363 27.805 15.9577 26.1809 15.9577H12.1424C11.9617 15.9577 11.7819 15.9407 11.6054 15.908L8.78063 17.372V23.1975C8.78063 23.9004 8.20963 24.4723 7.50769 24.4723H2.35925C1.65638 24.4723 1.08456 23.9004 1.08456 23.1975ZM10.1962 12.5785L10.9304 12.1977C11.6611 11.8195 12.3534 11.9642 12.8452 12.3593L15.6388 7.82797C15.7838 7.59272 16.0921 7.51953 16.3274 7.66459C16.5627 7.80966 16.6359 8.11797 16.4908 8.35328L13.4694 13.2541C13.6593 13.8143 13.5928 14.4631 13.1619 14.9567H26.181C27.2531 14.9567 28.1254 14.0844 28.1254 13.0123V4.72447C28.1254 3.65134 27.2531 2.77828 26.181 2.77828H12.1424C11.0693 2.77828 10.1962 3.65134 10.1962 4.72447V12.5785ZM2.08556 23.1975C2.08556 23.3484 2.20838 23.4712 2.35925 23.4712H7.50769C7.65763 23.4712 7.77962 23.3484 7.77962 23.1975V17.8917L6.84375 18.378C6.42031 18.5976 5.91275 18.6372 5.45075 18.4868C4.99063 18.3372 4.62087 18.022 4.40962 17.5996C4.22206 17.2245 4.16638 16.7972 4.25294 16.3967C4.31131 16.1265 4.57762 15.9549 4.84787 16.0132C5.11806 16.0715 5.28975 16.3378 5.23137 16.6081C5.19225 16.7893 5.21769 16.9773 5.305 17.1519C5.39544 17.3329 5.55719 17.4688 5.76044 17.535C5.96931 17.6029 6.19606 17.5863 6.38275 17.4895L8.04806 16.6242C8.04869 16.6238 8.04931 16.6235 8.04994 16.6232L12.1283 14.5095C12.7954 14.1637 12.5267 13.5621 12.466 13.445C12.3272 13.177 11.9444 12.7999 11.3909 13.0864L8.45038 14.6116C8.31031 14.6843 8.14419 14.6866 8.00212 14.618C7.86006 14.5493 7.75869 14.4177 7.72863 14.2628C7.46869 12.9248 6.29319 11.9537 4.9335 11.9537C3.36319 11.9537 2.08556 13.2312 2.08556 14.8016V23.1975ZM22.4286 5.53678H24.1594C24.4359 5.53678 24.6599 5.31272 24.6599 5.03628C24.6599 4.75984 24.4359 4.53578 24.1594 4.53578H22.4286C22.1521 4.53578 21.9281 4.75984 21.9281 5.03628C21.9281 5.31272 22.1521 5.53678 22.4286 5.53678Z" fill="#050505"/>
</svg>
