<svg width="32" height="32" viewBox="0 0 32 32" fill="none" xmlns="http://www.w3.org/2000/svg">
<path d="M30.5 9.67491H28.24V7.97991C28.24 7.93991 28.24 7.90491 28.23 7.87491C27.89 6.26991 25.375 4.03491 22.06 4.03491C19.33 4.03491 16.985 5.38991 16 6.72991C15.015 5.38991 12.67 4.03491 9.94 4.03491C6.625 4.03491 4.11 6.26991 3.77 7.87491C3.76 7.90491 3.76 7.93991 3.76 7.97991V9.67491H1.5C1.225 9.67491 1 9.89991 1 10.1749V27.4649C1 27.7449 1.225 27.9649 1.5 27.9649H30.5C30.775 27.9649 31 27.7449 31 27.4649V10.1749C31 9.89991 30.775 9.67491 30.5 9.67491ZM5.015 24.6799C5.695 23.6199 7.505 22.2349 9.94 22.2349C12.58 22.2349 14.7 23.6999 15.315 24.6799H5.015ZM16.685 24.6799C17.3 23.6999 19.42 22.2349 22.06 22.2349C24.495 22.2349 26.305 23.6199 26.985 24.6799H16.685ZM16.5 7.97991C16.5 7.12491 18.905 5.03491 22.06 5.03491C24.955 5.03491 26.97 6.98991 27.24 8.03491V23.3999C26.155 22.2499 24.29 21.2349 22.06 21.2349C19.715 21.2349 17.66 22.2399 16.5 23.3699V7.97991ZM4.76 10.1749V8.03491C5.03 6.98991 7.045 5.03491 9.94 5.03491C13.095 5.03491 15.5 7.12491 15.5 7.97991V23.3699C14.34 22.2399 12.285 21.2349 9.94 21.2349C7.71 21.2349 5.845 22.2499 4.76 23.3999V10.1749Z" fill="#050505"/>
<path d="M6.73438 11.8145H13.7749C14.0509 11.8145 14.2749 11.591 14.2749 11.3145C14.2749 11.038 14.0509 10.8145 13.7749 10.8145H6.73438C6.45838 10.8145 6.23438 11.038 6.23438 11.3145C6.23438 11.591 6.45838 11.8145 6.73438 11.8145Z" fill="#050505"/>
<path d="M6.73438 13.7017H13.7749C14.0509 13.7017 14.2749 13.4782 14.2749 13.2017C14.2749 12.9252 14.0509 12.7017 13.7749 12.7017H6.73438C6.45838 12.7017 6.23438 12.9252 6.23438 13.2017C6.23438 13.4782 6.45838 13.7017 6.73438 13.7017Z" fill="#050505"/>
<path d="M6.73438 15.5889H13.7749C14.0509 15.5889 14.2749 15.3654 14.2749 15.0889C14.2749 14.8124 14.0509 14.5889 13.7749 14.5889H6.73438C6.45838 14.5889 6.23438 14.8124 6.23438 15.0889C6.23438 15.3654 6.45838 15.5889 6.73438 15.5889Z" fill="#050505"/>
<path d="M14.2749 16.9756C14.2749 16.6991 14.0509 16.4756 13.7749 16.4756H6.73438C6.45838 16.4756 6.23438 16.6991 6.23438 16.9756C6.23438 17.2521 6.45838 17.4756 6.73438 17.4756H13.7749C14.0509 17.4756 14.2749 17.2521 14.2749 16.9756Z" fill="#050505"/>
<path d="M18.3516 11.8145H25.3921C25.6681 11.8145 25.8921 11.591 25.8921 11.3145C25.8921 11.038 25.6681 10.8145 25.3921 10.8145H18.3516C18.0756 10.8145 17.8516 11.038 17.8516 11.3145C17.8516 11.591 18.0756 11.8145 18.3516 11.8145Z" fill="#050505"/>
<path d="M18.3516 13.7017H25.3921C25.6681 13.7017 25.8921 13.4782 25.8921 13.2017C25.8921 12.9252 25.6681 12.7017 25.3921 12.7017H18.3516C18.0756 12.7017 17.8516 12.9252 17.8516 13.2017C17.8516 13.4782 18.0756 13.7017 18.3516 13.7017Z" fill="#050505"/>
<path d="M18.3516 15.5889H25.3921C25.6681 15.5889 25.8921 15.3654 25.8921 15.0889C25.8921 14.8124 25.6681 14.5889 25.3921 14.5889H18.3516C18.0756 14.5889 17.8516 14.8124 17.8516 15.0889C17.8516 15.3654 18.0756 15.5889 18.3516 15.5889Z" fill="#050505"/>
<path d="M25.8921 16.9756C25.8921 16.6991 25.6681 16.4756 25.3921 16.4756H18.3516C18.0756 16.4756 17.8516 16.6991 17.8516 16.9756C17.8516 17.2521 18.0756 17.4756 18.3516 17.4756H25.3921C25.6681 17.4756 25.8921 17.2521 25.8921 16.9756Z" fill="#050505"/>
</svg>
