<svg width="36" height="36" viewBox="0 0 36 36" fill="none" xmlns="http://www.w3.org/2000/svg">
<g clip-path="url(#clip0_261_444)">
<path d="M17.9609 9.18291C17.5338 9.18291 17.1875 8.83662 17.1875 8.40947V0.779297C17.1875 0.352148 17.5338 0.00585938 17.9609 0.00585938H24.1595C24.442 0.00585938 24.7021 0.159914 24.8378 0.407695C24.9735 0.655477 24.9634 0.957539 24.8113 1.19569L23.8534 2.69496L24.8092 4.17469C24.9629 4.41262 24.9742 4.71546 24.8387 4.96423C24.7032 5.21299 24.4427 5.36775 24.1594 5.36775H18.7343V8.4094C18.7344 8.83662 18.3882 9.18291 17.9609 9.18291ZM18.7344 3.82095H22.7392L22.2845 3.11691C22.1203 2.86266 22.1194 2.53591 22.2823 2.28089L22.7475 1.55273H18.7344V3.82095Z" fill="white"/>
<path d="M21.1194 35.9942H14.8516C14.4244 35.9942 14.0781 35.6479 14.0781 35.2207V29.9205C14.0781 27.766 15.8309 26.0132 17.9855 26.0132C20.14 26.0132 21.8928 27.766 21.8928 29.9205V35.2207C21.8929 35.6479 21.5466 35.9942 21.1194 35.9942ZM15.6251 34.4473H20.3461V29.9205C20.3461 28.619 19.2872 27.5601 17.9856 27.5601C16.684 27.5601 15.6251 28.619 15.6251 29.9205V34.4473H15.6251Z" fill="white"/>
<path d="M9.96875 17.6538H11.5156V35.2207H9.96875V17.6538Z" fill="white"/>
<path d="M24.625 17.6538H26.1719V35.2207H24.625V17.6538Z" fill="white"/>
<path d="M21.1194 23.1597H14.8516C14.4244 23.1597 14.0781 22.8134 14.0781 22.3862C14.0781 21.9591 14.4244 21.6128 14.8516 21.6128H21.1194C21.5466 21.6128 21.8929 21.9591 21.8929 22.3862C21.8929 22.8134 21.5466 23.1597 21.1194 23.1597Z" fill="white"/>
<path d="M35.2266 34.4471H33.9278V18.4271H35.198C35.4929 18.4271 35.7622 18.2593 35.8923 17.9946C36.0223 17.7299 35.9904 17.4143 35.8101 17.1808C34.9485 16.0653 34.9485 14.5072 35.8101 13.3918C35.9904 13.1584 36.0223 12.8427 35.8923 12.578C35.7622 12.3133 35.4929 12.1455 35.198 12.1455H32.9453L18.1888 7.6703C18.1881 7.67009 18.1874 7.66981 18.1866 7.6696L18.1854 7.66924C18.1826 7.6684 18.1798 7.66798 18.1769 7.66713C18.1552 7.66081 18.1333 7.65518 18.1111 7.65075C18.1028 7.64914 18.0945 7.64829 18.0862 7.64689C18.0695 7.64414 18.0529 7.64133 18.036 7.63964C18.0244 7.63852 18.013 7.63831 18.0016 7.63774C17.9879 7.63704 17.9743 7.63599 17.9606 7.63599C17.9465 7.63599 17.9325 7.63704 17.9185 7.63781C17.9074 7.63845 17.8963 7.63859 17.8852 7.63971C17.8678 7.6414 17.8506 7.64435 17.8335 7.64724C17.8257 7.64857 17.8179 7.64935 17.8101 7.65089C17.7869 7.65553 17.7641 7.66137 17.7416 7.66805C17.7396 7.66861 17.7377 7.66889 17.7357 7.66953L17.7349 7.66981C17.7338 7.67016 17.7329 7.67044 17.7318 7.67072L3.02573 12.1455H0.773476C0.48414 12.1455 0.219062 12.3069 0.0862414 12.564C-0.0465086 12.821 -0.0247117 13.1307 0.142702 13.3666L0.23214 13.4926C0.993413 14.5654 0.993413 16.007 0.23221 17.0798L0.142702 17.2059C-0.0247117 17.4418 -0.0465086 17.7514 0.0862414 18.0085C0.218991 18.2655 0.48414 18.427 0.773476 18.427H2.04318V34.447H0.773476C0.346327 34.447 3.82593e-05 34.7933 3.82593e-05 35.2204C3.82593e-05 35.6476 0.346327 35.9939 0.773476 35.9939H2.81662H33.1544H35.2266C35.6538 35.9939 36 35.6476 36 35.2204C36 34.7933 35.6538 34.4471 35.2266 34.4471ZM17.9613 9.21767L27.6154 12.1455H8.33938L17.9613 9.21767ZM2.06863 13.6924H3.13534C3.13703 13.6924 3.13872 13.6926 3.14048 13.6926C3.14237 13.6926 3.1442 13.6924 3.1461 13.6924H32.8252C32.8271 13.6924 32.829 13.6926 32.8308 13.6926C32.8325 13.6926 32.8342 13.6924 32.836 13.6924H33.8984C33.5234 14.7203 33.5234 15.8522 33.8984 16.8801H2.06863C2.4434 15.8522 2.4434 14.7203 2.06863 13.6924ZM3.59005 34.4471V18.4271H32.381V34.4471H3.59005Z" fill="white"/>
<path d="M29.3359 23.0654C28.9088 23.0654 28.5625 22.7191 28.5625 22.292V22.2773C28.5625 21.8502 28.9088 21.5039 29.3359 21.5039C29.7631 21.5039 30.1094 21.8502 30.1094 22.2773V22.292C30.1094 22.7191 29.7631 23.0654 29.3359 23.0654Z" fill="white"/>
<path d="M29.3359 27.4175C28.9088 27.4175 28.5625 27.0712 28.5625 26.644V26.6294C28.5625 26.2022 28.9088 25.856 29.3359 25.856C29.7631 25.856 30.1094 26.2022 30.1094 26.6294V26.644C30.1094 27.0712 29.7631 27.4175 29.3359 27.4175Z" fill="white"/>
<path d="M29.3359 31.8008C28.9088 31.8008 28.5625 31.4545 28.5625 31.0273V31.0127C28.5625 30.5855 28.9088 30.2393 29.3359 30.2393C29.7631 30.2393 30.1094 30.5855 30.1094 31.0127V31.0273C30.1094 31.4545 29.7631 31.8008 29.3359 31.8008Z" fill="white"/>
<path d="M6.88281 23.0654C6.45566 23.0654 6.10938 22.7191 6.10938 22.292V22.2773C6.10938 21.8502 6.45566 21.5039 6.88281 21.5039C7.30996 21.5039 7.65625 21.8502 7.65625 22.2773V22.292C7.65625 22.7191 7.30996 23.0654 6.88281 23.0654Z" fill="white"/>
<path d="M6.88281 27.4175C6.45566 27.4175 6.10938 27.0712 6.10938 26.644V26.6294C6.10938 26.2022 6.45566 25.856 6.88281 25.856C7.30996 25.856 7.65625 26.2022 7.65625 26.6294V26.644C7.65625 27.0712 7.30996 27.4175 6.88281 27.4175Z" fill="white"/>
<path d="M6.88281 31.8008C6.45566 31.8008 6.10938 31.4545 6.10938 31.0273V31.0127C6.10938 30.5855 6.45566 30.2393 6.88281 30.2393C7.30996 30.2393 7.65625 30.5855 7.65625 31.0127V31.0273C7.65625 31.4545 7.30996 31.8008 6.88281 31.8008Z" fill="white"/>
</g>
<defs>
<clipPath id="clip0_261_444">
<rect width="36" height="36" fill="white"/>
</clipPath>
</defs>
</svg>
