<svg width="36" height="36" viewBox="0 0 36 36" fill="none" xmlns="http://www.w3.org/2000/svg">
<g clip-path="url(#clip0_261_476)">
<path d="M15.0469 21.6328H16.6641C17.0524 21.6328 17.3672 21.3181 17.3672 20.9297C17.3672 20.5413 17.0524 20.2266 16.6641 20.2266H15.0469C14.6585 20.2266 14.3438 20.5413 14.3438 20.9297C14.3438 21.3181 14.6585 21.6328 15.0469 21.6328Z" fill="white"/>
<path d="M32.2661 28.67C31.9653 27.3143 30.7541 26.2969 29.3091 26.2969H24.293C23.5369 26.2969 22.9219 25.6817 22.9219 24.9258V24.1875H30.0235C31.1867 24.1875 32.1329 23.2413 32.1329 22.0782V3.51563C32.1329 2.35245 31.1867 1.40625 30.0235 1.40625H2.03907C0.875887 1.40625 -0.0703125 2.35245 -0.0703125 3.51563V22.0782C-0.0703125 23.2413 0.875887 24.1875 2.03907 24.1875H12.586V30.3751H5.65385C4.53297 30.3751 3.6211 31.2869 3.6211 32.4078V33.8907C3.6211 34.2791 3.93586 34.5938 4.32423 34.5938H27.3868C27.6463 34.5938 27.8724 34.4529 27.994 34.2439C28.2775 34.4628 28.6324 34.5938 29.0174 34.5938H34.2535C35.1777 34.5938 35.9298 33.8418 35.9298 32.9176C35.9298 30.764 34.3362 28.9759 32.2661 28.67ZM2.03907 2.8125H30.0235C30.4113 2.8125 30.7266 3.12781 30.7266 3.51563V17.7188H1.33594V3.51563C1.33594 3.12781 1.65125 2.8125 2.03907 2.8125ZM1.33594 22.0782V19.125H30.7266V22.0782C30.7266 22.4657 30.4113 22.7813 30.0235 22.7813H2.03907C1.65125 22.7813 1.33594 22.4657 1.33594 22.0782ZM13.9922 24.1875H18.0703V30.3751H13.9922V24.1875ZM26.6836 33.1876H5.02735V32.4078C5.02735 32.0623 5.30833 31.7813 5.65385 31.7813H7.03126V31.8165C7.03126 32.2048 7.34602 32.5196 7.73439 32.5196C8.12276 32.5196 8.43752 32.2048 8.43752 31.8165V31.7813H9.7383V31.8165C9.7383 32.2048 10.0531 32.5196 10.4414 32.5196C10.8298 32.5196 11.1446 32.2048 11.1446 31.8165V31.7813H12.4453V31.8165C12.4453 32.2048 12.7601 32.5196 13.1485 32.5196C13.5368 32.5196 13.8516 32.2048 13.8516 31.8165V31.7813H15.1524V31.8165C15.1524 32.2048 15.4671 32.5196 15.8555 32.5196C16.2439 32.5196 16.5586 32.2048 16.5586 31.8165V31.7813H17.8594V31.8165C17.8594 32.2048 18.1742 32.5196 18.5625 32.5196C18.9509 32.5196 19.2657 32.2048 19.2657 31.8165V31.7813H20.5664V31.8165C20.5664 32.2048 20.8812 32.5196 21.2696 32.5196C21.6579 32.5196 21.9727 32.2048 21.9727 31.8165V31.7813H23.2735V31.8165C23.2735 32.2048 23.5882 32.5196 23.9766 32.5196C24.365 32.5196 24.6797 32.2048 24.6797 31.8165V31.7813H26.0572C26.4027 31.7813 26.6836 32.0623 26.6836 32.4078V33.1876ZM27.6969 31.2084C27.3266 30.7035 26.7298 30.3751 26.0572 30.3751H19.4766V24.1875H21.5157V24.9258C21.5157 26.4573 22.7615 27.7032 24.293 27.7032H29.3091C29.9837 27.7032 30.5635 28.1168 30.8082 28.704C29.4096 28.9781 28.2525 29.9331 27.6969 31.2084ZM34.2535 33.1876H29.0174C28.8686 33.1876 28.7474 33.0664 28.7474 32.9176C28.7474 31.3251 30.043 30.0295 31.6355 30.0295C33.2279 30.0295 34.5235 31.3251 34.5235 32.9176C34.5235 33.0664 34.4024 33.1876 34.2535 33.1876Z" fill="white"/>
<path d="M18.7734 7.57032H27.6328C28.0212 7.57032 28.336 7.25556 28.336 6.86719C28.336 6.47882 28.0212 6.16406 27.6328 6.16406H18.7734C18.3851 6.16406 18.0703 6.47882 18.0703 6.86719C18.0703 7.25556 18.3851 7.57032 18.7734 7.57032Z" fill="white"/>
<path d="M18.7734 10.9453H27.6328C28.0212 10.9453 28.336 10.6306 28.336 10.2422C28.336 9.85382 28.0212 9.53906 27.6328 9.53906H18.7734C18.3851 9.53906 18.0703 9.85382 18.0703 10.2422C18.0703 10.6306 18.3851 10.9453 18.7734 10.9453Z" fill="white"/>
<path d="M18.7734 14.3203H22.8749C23.2633 14.3203 23.578 14.0056 23.578 13.6172C23.578 13.2288 23.2633 12.9141 22.8749 12.9141H18.7734C18.3851 12.9141 18.0703 13.2288 18.0703 13.6172C18.0703 14.0056 18.3851 14.3203 18.7734 14.3203Z" fill="white"/>
<path d="M25.6875 12.9141C25.5027 12.9141 25.3214 12.9888 25.1906 13.1201C25.0596 13.2511 24.9844 13.4318 24.9844 13.6172C24.9844 13.8023 25.0596 13.9836 25.1906 14.1143C25.3214 14.2451 25.5027 14.3203 25.6875 14.3203C25.8732 14.3203 26.0539 14.2451 26.1846 14.1143C26.3162 13.9836 26.3906 13.8023 26.3906 13.6172C26.3906 13.4318 26.3162 13.2511 26.1846 13.1201C26.0539 12.9888 25.8732 12.9141 25.6875 12.9141Z" fill="white"/>
<path d="M6.01954 14.9886C6.93635 14.9886 7.71775 14.4005 8.00806 13.5823H10.973C11.2633 14.4005 12.0447 14.9886 12.9613 14.9886C14.1244 14.9886 15.0706 14.0421 15.0706 12.8792C15.0706 11.716 14.1244 10.7698 12.9613 10.7698C12.8297 10.7698 12.7012 10.7825 12.5762 10.8055L11.093 8.23664C11.4086 7.86805 11.5998 7.38959 11.5998 6.86719C11.5998 5.70429 10.6536 4.75781 9.4904 4.75781C8.32722 4.75781 7.38102 5.70429 7.38102 6.86719C7.38102 7.38959 7.57246 7.86777 7.88804 8.23664L6.40488 10.8055C6.27991 10.7825 6.1511 10.7698 6.01954 10.7698C4.85636 10.7698 3.91016 11.716 3.91016 12.8792C3.91016 14.0421 4.85663 14.9886 6.01954 14.9886ZM9.4904 8.97685C9.62223 8.97685 9.75077 8.96394 9.87574 8.94087L11.3589 11.5097C11.1922 11.7045 11.0603 11.9297 10.973 12.1761H8.00806C7.92072 11.9297 7.78889 11.7045 7.62217 11.5097L9.10533 8.94087C9.2303 8.96394 9.35884 8.97685 9.4904 8.97685ZM13.6644 12.8792C13.6644 13.2667 13.3491 13.5823 12.9613 13.5823C12.5737 13.5823 12.2581 13.2667 12.2581 12.8792C12.2581 12.4914 12.5737 12.1761 12.9613 12.1761C13.3491 12.1761 13.6644 12.4914 13.6644 12.8792ZM9.4904 6.16434C9.87822 6.16434 10.1935 6.47965 10.1935 6.86747C10.1935 7.25501 9.87822 7.57059 9.4904 7.57059C9.10285 7.57059 8.78727 7.25501 8.78727 6.86747C8.78727 6.47965 9.10285 6.16434 9.4904 6.16434ZM6.01954 12.1761C6.40735 12.1761 6.72266 12.4914 6.72266 12.8792C6.72266 13.2667 6.40735 13.5823 6.01954 13.5823C5.63199 13.5823 5.31641 13.2667 5.31641 12.8792C5.31641 12.4914 5.63199 12.1761 6.01954 12.1761Z" fill="white"/>
</g>
<defs>
<clipPath id="clip0_261_476">
<rect width="36" height="36" fill="white"/>
</clipPath>
</defs>
</svg>
