<svg width="36" height="36" viewBox="0 0 36 36" fill="none" xmlns="http://www.w3.org/2000/svg">
<g clip-path="url(#clip0_261_469)">
<path d="M9.629 22.6572C9.96518 22.4633 10.0803 22.0329 9.88636 21.6967C9.69217 21.3608 9.26206 21.2454 8.92588 21.4393C8.5897 21.6335 8.47434 22.0639 8.66852 22.3998C8.86243 22.736 9.29282 22.8514 9.629 22.6572Z" fill="white"/>
<path d="M6.74889 27.5099L10.2898 33.6433C11.0539 34.9683 12.7727 35.4588 14.132 34.673C15.477 33.8958 15.9392 32.1772 15.1611 30.8311L13.0517 27.1771L14.8785 26.1224C15.2147 25.9279 15.33 25.4981 15.1359 25.1619L14.2215 23.5782C14.3306 23.5571 15.0474 23.4164 27.6891 20.9366C29.2519 20.8517 30.1882 19.1425 29.3989 17.7761L27.0621 13.7287L28.5554 11.4669C28.702 11.2444 28.7108 10.9585 28.5776 10.7278L27.1714 8.29211C27.0382 8.0614 26.7852 7.92627 26.5202 7.94193L23.8151 8.10425L21.2209 3.61084C20.8452 2.9599 20.172 2.56577 19.4205 2.55643C19.4115 2.55615 19.4027 2.55615 19.3936 2.55615C18.6674 2.55615 18.0082 2.9176 17.6177 3.52872L8.43254 15.2297L2.4612 18.6772C0.112599 20.0327 -0.700939 23.0457 0.659718 25.4006C1.90282 27.5539 4.52361 28.4009 6.74889 27.5099ZM13.9436 31.5345C14.3319 32.2063 14.102 33.066 13.4283 33.4552C12.7524 33.846 11.8916 33.606 11.5076 32.9405L7.99199 26.8505L10.4277 25.4442C14.4964 32.4925 13.8782 31.4216 13.9436 31.5345ZM12.3486 25.959L11.6455 24.7411L12.8633 24.038L13.5665 25.2558L12.3486 25.959ZM26.1708 9.37152L27.1425 11.0546L26.276 12.3669L24.6011 9.46573L26.1708 9.37152ZM18.7938 4.29968C18.9824 3.99097 19.2818 3.95911 19.4032 3.9624C19.5232 3.96378 19.8223 4.00113 20.0028 4.31369L28.181 18.4792C28.4474 18.9403 28.1236 19.5201 27.5894 19.5333C27.4935 19.5355 27.4493 19.5528 27.2038 19.5987L18.5529 4.61472C18.7344 4.38126 18.7578 4.35873 18.7938 4.29968ZM17.6171 5.80673L25.7451 19.8849L13.4783 22.2909L9.74843 15.8307L17.6171 5.80673ZM1.87755 24.6974C1.56884 24.1632 1.40569 23.5568 1.40569 22.9432C1.40569 21.6891 2.0797 20.5213 3.16433 19.8951L8.64458 16.731L12.1602 22.8202L6.67995 25.9845C5.00097 26.9535 2.84682 26.3762 1.87755 24.6974Z" fill="white"/>
<path d="M7.45093 23.1026C7.25675 22.7665 6.82663 22.6511 6.49045 22.8453L5.27262 23.5484C4.93699 23.7423 4.50605 23.6267 4.31214 23.2911C4.11795 22.9549 3.68784 22.8395 3.35166 23.0337C3.01548 23.2279 2.90012 23.658 3.0943 23.9942C3.67301 24.9967 4.9639 25.3502 5.97574 24.7662L7.19358 24.0631C7.52976 23.8689 7.64512 23.4391 7.45093 23.1026Z" fill="white"/>
<path d="M34.9551 4.06039L31.0371 6.24063C30.6979 6.42959 30.5757 6.85778 30.7647 7.19699C30.9531 7.53591 31.381 7.65869 31.721 7.46945L35.6388 5.28921C35.9782 5.10025 36.1002 4.67205 35.9112 4.33285C35.7225 3.99337 35.2943 3.87143 34.9551 4.06039Z" fill="white"/>
<path d="M34.5435 11.3423L31.8269 10.6145C31.4517 10.514 31.0661 10.7364 30.9655 11.1116C30.865 11.4868 31.0878 11.8721 31.4629 11.9727L34.1799 12.7005C34.5572 12.8019 34.9409 12.5758 35.0409 12.2034C35.1414 11.8282 34.9187 11.4426 34.5435 11.3423Z" fill="white"/>
<path d="M27.7177 1.50566L26.989 4.22257C26.8885 4.59776 27.1109 4.9831 27.4861 5.0839C27.861 5.18415 28.2467 4.96223 28.3475 4.58677L29.0758 1.86985C29.1764 1.49467 28.9539 1.10905 28.5787 1.00852C28.2038 0.907999 27.8182 1.13047 27.7177 1.50566Z" fill="white"/>
</g>
<defs>
<clipPath id="clip0_261_469">
<rect width="36" height="36" fill="white"/>
</clipPath>
</defs>
</svg>
