<svg width="36" height="36" viewBox="0 0 36 36" fill="none" xmlns="http://www.w3.org/2000/svg">
<g clip-path="url(#clip0_261_484)">
<path d="M0 0V36H36V0H0ZM34.5 34.5H1.5V7.5H34.5V34.5ZM34.5 6H1.5V1.5H34.5V6Z" fill="white"/>
<path d="M33 3H31.5V4.5H33V3Z" fill="white"/>
<path d="M30 3H28.5V4.5H30V3Z" fill="white"/>
<path d="M27 3H25.5V4.5H27V3Z" fill="white"/>
<path d="M21.75 3H3.75V4.5H21.75V3Z" fill="white"/>
<path d="M30.0002 27.8882V17.3187L31.8716 16.5L18.0002 10.4312L4.12891 16.5L9.00032 18.6313L9.00208 26.3599L9.85425 26.2427C10.0505 26.2141 14.6846 25.6282 17.3762 29.666L18.0002 30.6021L18.6243 29.666C21.3152 25.6282 25.9496 26.2134 26.144 26.2427L27.0002 26.365V18.6313L28.5002 17.975V27.8882C27.6291 28.1988 27.0002 29.0235 27.0002 30V30.75C27.0002 31.9907 28.0095 33 29.2502 33C30.491 33 31.5002 31.9907 31.5002 30.75V30C31.5002 29.0235 30.8714 28.1988 30.0002 27.8882ZM25.5002 24.7009C23.912 24.6812 20.4916 25.0122 18.0002 27.9976C15.5089 25.0115 12.0867 24.6833 10.5002 24.7009V19.2875L18.0002 22.5688L25.5002 19.2875V24.7009ZM18.0002 20.9312L7.87158 16.5L18.0002 12.0688L28.1289 16.5L18.0002 20.9312ZM30.0002 30.75C30.0002 31.1638 29.6637 31.5 29.2502 31.5C28.8368 31.5 28.5002 31.1638 28.5002 30.75V30C28.5002 29.5862 28.8368 29.25 29.2502 29.25C29.6637 29.25 30.0002 29.5862 30.0002 30V30.75Z" fill="white"/>
</g>
<defs>
<clipPath id="clip0_261_484">
<rect width="36" height="36" fill="white"/>
</clipPath>
</defs>
</svg>
