<svg width="16" height="16" viewBox="0 0 16 16" fill="none" xmlns="http://www.w3.org/2000/svg">
<g clip-path="url(#clip0_261_1153)">
<mask id="mask0_261_1153" style="mask-type:luminance" maskUnits="userSpaceOnUse" x="0" y="0" width="16" height="16">
<path d="M0 0H16V16H0V0Z" fill="white"/>
</mask>
<g mask="url(#mask0_261_1153)">
<path d="M8.65134 3.19601L7.99894 0.0947266L7.34654 3.19601C7.13194 4.21618 6.6252 5.15188 5.88805 5.88903C5.1509 6.62617 4.2152 7.13292 3.19504 7.34752L0.09375 7.99992L3.19504 8.65232C4.21519 8.86692 5.1509 9.37372 5.88805 10.1109C6.6252 10.848 7.13194 11.7837 7.34654 12.8039L7.99894 15.9051L8.65134 12.8039C8.86594 11.7837 9.37267 10.848 10.1098 10.1109C10.847 9.37372 11.7827 8.86692 12.8029 8.65232L15.9041 7.99992L12.8029 7.34752C11.7827 7.13292 10.8469 6.62617 10.1098 5.88903C9.37267 5.15188 8.86594 4.21618 8.65134 3.19601Z" fill="#242D31"/>
</g>
</g>
<defs>
<clipPath id="clip0_261_1153">
<rect width="16" height="16" fill="white"/>
</clipPath>
</defs>
</svg>
