<svg width="213" height="40" viewBox="0 0 213 40" fill="none" xmlns="http://www.w3.org/2000/svg">
<path d="M0.0742188 39.8212V31.9738H1.65688V39.8212H0.0742188ZM6.82881 39.8212V31.9738H8.36437L11.5768 37.2117V31.9738H13.0464V39.8212H11.4543L8.28901 34.7058V39.8212H6.82881ZM17.964 37.2682L19.509 37.1175C19.6032 37.6356 19.7916 38.0124 20.0742 38.2574C20.3568 38.5023 20.7431 38.6248 21.2235 38.6248C21.7322 38.6248 22.1185 38.5211 22.3728 38.3045C22.6272 38.0878 22.7591 37.8334 22.7591 37.5508C22.7591 37.3624 22.7026 37.2023 22.5989 37.0798C22.4859 36.9479 22.2975 36.8349 22.0337 36.7406C21.8453 36.6747 21.4214 36.5617 20.7619 36.4015C19.9141 36.1942 19.3206 35.9305 18.972 35.629C18.4915 35.1957 18.2466 34.6681 18.2466 34.0463C18.2466 33.6507 18.3597 33.2739 18.5858 32.9253C18.8118 32.5767 19.1416 32.313 19.5655 32.134C19.9894 31.955 20.5076 31.8608 21.1105 31.8608C22.0996 31.8608 22.8345 32.0774 23.3337 32.5108C23.833 32.9441 24.0968 33.5188 24.1157 34.2442L22.533 34.3101C22.467 33.905 22.3163 33.613 22.0996 33.4434C21.8735 33.2644 21.5438 33.1796 21.0916 33.1796C20.63 33.1796 20.272 33.2739 20.0083 33.4623C19.8481 33.5753 19.7539 33.7543 19.7539 33.9521C19.7539 34.1406 19.8293 34.3007 19.9894 34.4326C20.1873 34.6022 20.6771 34.7717 21.4496 34.9601C22.2221 35.1391 22.7873 35.3276 23.1642 35.5254C23.5222 35.7044 23.8236 35.987 24.0309 36.3261C24.2381 36.6653 24.3418 37.0798 24.3418 37.5791C24.3418 38.0313 24.2193 38.4458 23.9649 38.8414C23.7106 39.2371 23.362 39.5292 22.9098 39.7176C22.4482 39.906 21.883 40.0002 21.2047 40.0002C20.2155 40.0002 19.4524 39.7741 18.9155 39.3125C18.3879 38.8132 18.0676 38.1443 17.964 37.2682ZM31.0869 39.8212V33.3021H28.76V31.9738H34.9965V33.3021H32.6696V39.8212H31.0869ZM39.6126 39.8212V31.9738H41.1953V39.8212H39.6126ZM48.1194 39.8212V33.3021H45.7925V31.9738H52.029V33.3021H49.7021V39.8212H48.1194ZM56.6733 31.9738H58.256V36.2225C58.256 36.9008 58.2749 37.3341 58.3125 37.532C58.3691 37.8429 58.548 38.1161 58.793 38.3045C59.0473 38.5023 59.3959 38.5965 59.8387 38.5965C60.2909 38.5965 60.63 38.5023 60.8561 38.3233C61.0822 38.1349 61.2235 37.9088 61.2706 37.645C61.3177 37.3812 61.3366 36.9385 61.3366 36.3167V31.9738H62.9192V36.1C62.9192 37.0421 62.8721 37.711 62.7873 38.0972C62.7025 38.4835 62.5424 38.8132 62.3163 39.0864C62.0902 39.3502 61.7793 39.5668 61.3931 39.727C61.0068 39.8871 60.5075 39.9625 59.8858 39.9625C59.1321 39.9625 58.5669 39.8777 58.1806 39.6987C57.7944 39.5291 57.4835 39.3031 57.2574 39.0204C57.0313 38.7472 56.8806 38.4552 56.8147 38.1537C56.711 37.7015 56.6545 37.0421 56.6545 36.166L56.6733 31.9738ZM70.013 39.8212V33.3021H67.6861V31.9738H73.9225V33.3021H71.5956V39.8212H70.013ZM78.0676 35.9493C78.0676 35.1486 78.1901 34.4797 78.4256 33.9333C78.6046 33.5376 78.8495 33.1702 79.1604 32.8593C79.4713 32.539 79.8104 32.3035 80.1778 32.1528C80.6677 31.9455 81.2329 31.8419 81.8735 31.8419C83.0323 31.8419 83.9555 32.1999 84.6526 32.9159C85.3497 33.6318 85.6889 34.6304 85.6889 35.9116C85.6889 37.174 85.3403 38.1726 84.6526 38.8885C83.9649 39.6045 83.0417 39.9625 81.8924 39.9625C80.7242 39.9625 79.801 39.6045 79.1039 38.898C78.4067 38.1726 78.0676 37.1928 78.0676 35.9493ZM79.6974 35.8928C79.6974 36.7783 79.9046 37.4566 80.3097 37.9182C80.7148 38.3798 81.2423 38.6059 81.8735 38.6059C82.5047 38.6059 83.0228 38.3798 83.4279 37.9276C83.833 37.4755 84.0403 36.7877 84.0403 35.8834C84.0403 34.979 83.8424 34.3101 83.4468 33.8674C83.0511 33.4246 82.5235 33.2079 81.8735 33.2079C81.2235 33.2079 80.6959 33.434 80.2909 33.8768C79.8952 34.3195 79.6974 34.9884 79.6974 35.8928ZM97.248 39.8212V31.9738H99.7915C100.752 31.9738 101.384 32.0115 101.676 32.0869C102.128 32.1999 102.505 32.4637 102.806 32.8593C103.108 33.255 103.258 33.7637 103.258 34.3855C103.258 34.8659 103.174 35.271 102.995 35.6007C102.825 35.9305 102.599 36.1848 102.326 36.3732C102.081 36.5522 101.798 36.6747 101.506 36.7406C101.129 36.816 100.583 36.8537 99.8575 36.8537H98.8212V39.8118L97.248 39.8212ZM98.8307 33.3021V35.5254H99.6973C100.319 35.5254 100.743 35.4877 100.95 35.4029C101.158 35.3181 101.327 35.1957 101.45 35.0167C101.572 34.8471 101.629 34.6398 101.629 34.4043C101.629 34.1217 101.544 33.8862 101.374 33.6978C101.205 33.5094 100.979 33.3869 100.734 33.3492C100.545 33.3115 100.168 33.2927 99.5937 33.2927L98.8307 33.3021ZM108.204 39.8212V31.9738H111.539C112.378 31.9738 112.99 32.0398 113.367 32.1811C113.743 32.3224 114.054 32.5767 114.28 32.9347C114.507 33.2927 114.62 33.7072 114.62 34.1688C114.62 34.7529 114.45 35.2428 114.101 35.629C113.753 36.0153 113.235 36.2508 112.547 36.3544C112.886 36.5522 113.169 36.7689 113.395 37.0138C113.621 37.2494 113.922 37.6733 114.299 38.2856L115.26 39.8212H113.367L112.217 38.1161C111.812 37.5037 111.53 37.1175 111.379 36.9573C111.228 36.7972 111.068 36.6935 110.898 36.6276C110.729 36.5711 110.465 36.5428 110.098 36.5428H109.777V39.8212H108.204ZM109.787 35.2899H110.955C111.718 35.2899 112.189 35.2616 112.378 35.1957C112.556 35.1391 112.717 35.0167 112.82 34.8659C112.924 34.7058 112.98 34.5174 112.98 34.2724C112.98 34.0087 112.914 33.792 112.773 33.6318C112.632 33.4717 112.434 33.3681 112.18 33.321C112.048 33.3021 111.662 33.2927 111.021 33.2927H109.787V35.2899ZM119.434 35.9493C119.434 35.1486 119.556 34.4797 119.792 33.9333C119.971 33.5376 120.215 33.1702 120.526 32.8593C120.837 32.539 121.176 32.3035 121.544 32.1528C122.034 31.9455 122.599 31.8419 123.239 31.8419C124.398 31.8419 125.321 32.1999 126.019 32.9159C126.716 33.6318 127.055 34.6304 127.055 35.9116C127.055 37.174 126.706 38.1726 126.019 38.8885C125.331 39.6045 124.408 39.9625 123.258 39.9625C122.09 39.9625 121.167 39.6045 120.47 38.898C119.782 38.1726 119.434 37.1928 119.434 35.9493ZM121.073 35.8928C121.073 36.7783 121.28 37.4566 121.685 37.9182C122.09 38.3798 122.618 38.6059 123.249 38.6059C123.88 38.6059 124.398 38.3798 124.803 37.9276C125.208 37.4755 125.416 36.7877 125.416 35.8834C125.416 34.979 125.218 34.3101 124.822 33.8674C124.426 33.4246 123.899 33.2079 123.249 33.2079C122.599 33.2079 122.071 33.434 121.666 33.8768C121.271 34.3195 121.073 34.9884 121.073 35.8928ZM131.935 39.8212V31.9738H137.314V33.3021H133.517V35.158H136.796V36.4863H133.517V39.8212H131.935ZM142.269 39.8212V31.9738H148.091V33.3021H143.852V35.0449H147.79V36.3638H143.852V38.5023H148.232V39.8212H142.269ZM152.82 37.2682L154.365 37.1175C154.459 37.6356 154.648 38.0124 154.93 38.2574C155.213 38.5023 155.599 38.6248 156.08 38.6248C156.589 38.6248 156.975 38.5211 157.239 38.3045C157.493 38.0878 157.625 37.8334 157.625 37.5508C157.625 37.3624 157.568 37.2023 157.465 37.0798C157.352 36.9479 157.163 36.8349 156.899 36.7406C156.711 36.6747 156.287 36.5617 155.628 36.4015C154.78 36.1942 154.186 35.9305 153.838 35.629C153.357 35.1957 153.112 34.6681 153.112 34.0463C153.112 33.6507 153.225 33.2739 153.451 32.9253C153.678 32.5767 154.007 32.313 154.431 32.134C154.855 31.955 155.373 31.8608 155.976 31.8608C156.965 31.8608 157.7 32.0774 158.199 32.5108C158.699 32.9441 158.963 33.5188 158.981 34.2442L157.399 34.3101C157.333 33.905 157.182 33.613 156.965 33.4434C156.739 33.2644 156.41 33.1796 155.957 33.1796C155.496 33.1796 155.138 33.2739 154.874 33.4623C154.714 33.5753 154.62 33.7543 154.62 33.9521C154.62 34.1406 154.695 34.3007 154.855 34.4326C155.053 34.6022 155.543 34.7717 156.315 34.9601C157.088 35.1391 157.653 35.3276 158.03 35.5254C158.388 35.7044 158.689 35.987 158.897 36.3261C159.104 36.6653 159.207 37.0798 159.207 37.5791C159.207 38.0313 159.085 38.4458 158.831 38.8414C158.576 39.2371 158.228 39.5292 157.776 39.7176C157.323 39.906 156.749 40.0002 156.07 40.0002C155.081 40.0002 154.318 39.7741 153.781 39.3125C153.244 38.8132 152.924 38.1443 152.82 37.2682ZM164.125 39.8212V31.9738H165.708V39.8212H164.125ZM170.54 35.9493C170.54 35.1486 170.663 34.4797 170.898 33.9333C171.077 33.5376 171.322 33.1702 171.633 32.8593C171.944 32.539 172.283 32.3035 172.651 32.1528C173.141 31.9455 173.706 31.8419 174.346 31.8419C175.505 31.8419 176.428 32.1999 177.125 32.9159C177.823 33.6318 178.162 34.6304 178.162 35.9116C178.162 37.174 177.823 38.1726 177.125 38.8885C176.438 39.6045 175.515 39.9625 174.365 39.9625C173.197 39.9625 172.274 39.6045 171.577 38.898C170.889 38.1726 170.54 37.1928 170.54 35.9493ZM172.17 35.8928C172.17 36.7783 172.377 37.4566 172.783 37.9182C173.197 38.3798 173.715 38.6059 174.346 38.6059C174.978 38.6059 175.496 38.3798 175.901 37.9276C176.306 37.4755 176.513 36.7877 176.513 35.8834C176.513 34.979 176.315 34.3101 175.92 33.8674C175.524 33.4246 174.996 33.2079 174.346 33.2079C173.696 33.2079 173.169 33.434 172.764 33.8768C172.377 34.3195 172.17 34.9884 172.17 35.8928ZM183.051 39.8212V31.9738H184.596L187.808 37.2117V31.9738H189.278V39.8212H187.686L184.521 34.7058V39.8212H183.051ZM201.666 39.8212H199.942L199.255 38.0407H196.117L195.467 39.8212H193.791L196.843 31.9738H198.52L201.666 39.8212ZM198.755 36.7218L197.672 33.8108L196.617 36.7218H198.755ZM206.198 39.8212V32.0398H207.78V38.5023H211.718V39.8212H206.198ZM17.5683 18.3987C17.3799 18.7378 17.1256 19.0299 16.8335 19.2748C16.5226 19.548 16.1175 19.7647 15.6088 19.9342C15.1095 20.1038 14.4501 20.198 13.6211 20.198C12.4623 20.198 11.5391 20.0096 10.8703 19.6328C10.192 19.256 9.66442 18.8038 9.28759 18.2668C8.91077 17.7298 8.65641 17.1928 8.53394 16.6464C8.41147 16.0906 8.31727 15.6384 8.25132 15.2993H25.9433V15.0638C25.9433 13.076 25.736 11.1825 25.3027 9.38315C24.8787 7.56497 24.1722 5.96346 23.2019 4.56921C22.2221 3.16553 20.9597 2.0539 19.3865 1.24372C17.8133 0.42413 15.9009 0.019043 13.6211 0.019043C11.7652 0.019043 10.0412 0.339344 8.45858 0.989368C6.87591 1.63939 5.5005 2.54377 4.35118 3.73077C3.20187 4.88951 2.30691 6.3026 1.65688 7.95121C1.01628 9.59982 0.69598 11.4368 0.69598 13.4529C0.69598 14.6493 0.874972 15.9776 1.2518 17.4378C1.62862 18.9074 2.30691 20.2734 3.28665 21.5452C4.2664 22.817 5.57586 23.8909 7.24332 24.7576C8.92019 25.6243 11.0398 26.0577 13.6117 26.0577C15.3451 26.0577 16.89 25.8221 18.2372 25.3511C19.5938 24.8801 20.7713 24.2583 21.7511 23.467C22.7402 22.6757 23.5598 21.7619 24.1816 20.7256C24.8034 19.6893 25.265 18.6248 25.5476 17.5131H18.0017C17.8792 17.8146 17.7285 18.1066 17.5683 18.3987ZM11.1435 6.28376C11.7935 5.99172 12.6037 5.85983 13.6117 5.85983C14.9965 5.85983 16.0516 6.24608 16.777 7.01857C17.493 7.79106 18.0299 8.75196 18.3691 9.92012H8.2419C8.36437 9.5433 8.53394 9.11937 8.7412 8.64834C8.94845 8.15847 9.24991 7.7157 9.60789 7.32945C9.98472 6.90552 10.4934 6.55696 11.1435 6.28376Z" fill="#C51533"/>
<path d="M45.5186 11.9458C44.6425 11.4089 43.6816 10.9944 42.6359 10.7117C41.6656 10.448 40.6952 10.203 39.7155 9.96751C38.8394 9.7791 38.0198 9.60953 37.2661 9.44938C36.5125 9.28923 35.8625 9.11965 35.3066 8.93124C34.7602 8.74283 34.3269 8.51674 34.0066 8.24354C33.6957 7.97034 33.5356 7.62178 33.5356 7.18843C33.5356 6.59493 33.8464 6.14274 34.4776 5.84128C35.1088 5.53982 35.9001 5.38909 36.8799 5.38909C37.8314 5.38909 38.5568 5.50213 39.0749 5.73765C39.593 5.97317 39.9887 6.2652 40.2525 6.61377C40.5257 6.95291 40.6952 7.31089 40.7518 7.66888C40.8083 8.03628 40.8648 8.35658 40.8931 8.6392H47.8267C47.8267 8.23412 47.7984 7.71598 47.7324 7.0848C47.6665 6.45362 47.4969 5.79417 47.2143 5.09705C46.9223 4.40934 46.4983 3.73106 45.9048 3.07161C45.3302 2.40275 44.52 1.82809 43.4837 1.3288C42.3156 0.763559 41.1286 0.405575 39.9133 0.245425C38.7169 0.0758533 37.7466 0.000488281 37.0212 0.000488281C33.4319 0.000488281 30.7376 0.725876 28.9289 2.19549C27.1201 3.65569 26.2157 5.52098 26.2157 7.79135C26.2157 9.20444 26.4889 10.3538 27.0259 11.2393C27.5535 12.1154 28.326 12.8408 29.3057 13.406C30.3043 13.9713 31.4819 14.4423 32.8479 14.8003C34.2138 15.1583 35.74 15.5257 37.4074 15.9025C38.7357 16.1945 39.6967 16.4583 40.3278 16.7315C40.9684 17.0047 41.2793 17.5323 41.2793 18.3142C41.2793 19.1338 40.9119 19.7273 40.1677 20.1041C39.4329 20.4809 38.5568 20.6693 37.5487 20.6693C36.3806 20.6976 35.4856 20.5846 34.8356 20.2925C34.1856 20.0099 33.7146 19.6613 33.4225 19.2562C33.1211 18.8512 32.9421 18.4272 32.8855 17.9845C32.8196 17.5982 32.7913 17.2026 32.7819 16.8069H25.6976C25.6976 17.6547 25.8295 18.6251 26.0933 19.6896C26.3665 20.7541 26.9034 21.7621 27.6948 22.7136C28.5049 23.6651 29.6354 24.447 31.1145 25.097C32.6029 25.7471 34.5436 26.0674 36.9647 26.0674C39.6495 26.0674 41.7503 25.7094 43.2953 24.984C44.8309 24.268 45.999 23.4202 46.781 22.4593C47.5723 21.4984 48.0716 20.5563 48.2694 19.6237C48.4767 18.7004 48.5803 18.0127 48.5803 17.57C48.5803 16.1569 48.2883 14.9981 47.7042 14.1032C47.1484 13.2176 46.4041 12.4828 45.5186 11.9458ZM65.1983 13.3589C65.1983 14.1785 65.1418 14.951 65.0099 15.6953C64.878 16.4301 64.6425 17.0989 64.2845 17.7018C63.9265 18.2953 63.4178 18.7758 62.8149 19.1149C62.2025 19.4635 61.4112 19.6331 60.4314 19.6331C59.5177 19.6331 58.8111 19.4635 58.3118 19.1149C57.8125 18.7664 57.4357 18.3613 57.2002 17.8714C56.9647 17.3815 56.8328 16.854 56.8045 16.2888C56.7668 15.7895 56.7574 15.2902 56.7574 14.7815V0.659932H49.4376V17.3627C49.4376 20.0664 50.2101 22.1861 51.7268 23.731C53.2529 25.276 55.3914 26.0391 58.1705 26.0391C60.8083 26.0391 63.154 25.097 65.1983 23.2129V25.3891H72.5181V0.659932H65.1983V13.3589ZM90.21 17.3156C90.0216 17.9185 89.7484 18.4367 89.3999 18.8512C89.0419 19.2939 88.5803 19.6331 88.0527 19.8403C87.5063 20.0758 86.8092 20.1983 85.9613 20.1983C85.1135 20.1983 84.3693 20.0287 83.7381 19.6802C83.1069 19.3316 82.5982 18.8417 82.2025 18.2106C81.8163 17.5794 81.5242 16.854 81.3358 16.0156C81.1474 15.1865 81.0438 14.2633 81.0438 13.2553C81.0438 12.2473 81.138 11.3052 81.317 10.4009C81.4865 9.5059 81.7692 8.71457 82.1648 8.03628C82.5417 7.37684 83.0881 6.82102 83.7381 6.43478C84.4069 6.04853 85.236 5.8507 86.244 5.8507C87.6571 5.8507 88.6839 6.23694 89.3339 7.02828C89.984 7.81961 90.3325 8.82761 90.3985 10.0523H97.7089C97.6523 8.61094 97.3509 7.27321 96.8139 6.04853C96.2958 4.83327 95.5233 3.7499 94.553 2.85494C93.5732 1.95998 92.4051 1.26285 91.0108 0.763559C89.626 0.254845 88.0433 0.00990891 86.244 0.00990891C84.3316 0.00990891 82.5888 0.33021 81.0344 0.980233C79.48 1.63026 78.1422 2.52522 77.0306 3.67453C75.9095 4.82385 75.0428 6.18984 74.4305 7.78193C73.8182 9.36459 73.5167 11.1262 73.5167 13.0481C73.5167 14.9604 73.7993 16.7127 74.3646 18.3048C74.9298 19.8969 75.7494 21.2628 76.8139 22.4122C77.8879 23.5615 79.1973 24.4564 80.7329 25.1065C82.2779 25.7565 84.0207 26.0768 85.9802 26.0768C87.3933 26.0768 88.797 25.8695 90.1535 25.4644C91.5195 25.0594 92.7536 24.4282 93.8558 23.5615C94.958 22.6948 95.8718 21.5831 96.5972 20.236C97.3132 18.8794 97.7465 17.2685 97.869 15.375H90.7376C90.5775 15.9967 90.4079 16.6656 90.21 17.3156ZM120.262 3.65569C119.15 2.50637 117.822 1.61142 116.22 0.961392C114.638 0.32079 112.838 0.000488281 110.822 0.000488281C108.778 0.000488281 106.979 0.32079 105.396 0.970813C103.823 1.62084 102.485 2.5158 101.392 3.66511C100.29 4.81443 99.4611 6.18984 98.8864 7.79135C98.3212 9.39285 98.0292 11.1357 98.0292 13.0386C98.0292 14.9228 98.3212 16.6656 98.8864 18.2765C99.4517 19.878 100.281 21.2534 101.392 22.4027C102.485 23.5521 103.823 24.447 105.396 25.097C106.969 25.7471 108.778 26.0674 110.822 26.0674C112.838 26.0674 114.638 25.7471 116.22 25.097C117.812 24.447 119.15 23.5521 120.262 22.4027C121.355 21.2534 122.193 19.878 122.768 18.2765C123.333 16.675 123.616 14.9228 123.616 13.0386C123.616 11.1451 123.333 9.40227 122.768 7.79135C122.193 6.18042 121.355 4.80501 120.262 3.65569ZM113.649 19.3034C112.961 19.8969 112.009 20.1983 110.813 20.1983C109.617 20.1983 108.674 19.8969 107.959 19.3034C107.252 18.7099 106.724 18.0033 106.376 17.2026C106.037 16.4018 105.811 15.6105 105.716 14.8191C105.632 14.0278 105.575 13.4437 105.575 13.0386C105.575 12.6335 105.622 12.0306 105.716 11.2487C105.811 10.4668 106.037 9.66605 106.376 8.8653C106.724 8.05512 107.252 7.358 107.959 6.7645C108.665 6.16158 109.617 5.86954 110.813 5.86954C112.009 5.86954 112.961 6.171 113.649 6.7645C114.346 7.358 114.873 8.06454 115.231 8.8653C115.589 9.66605 115.815 10.4574 115.91 11.2487C116.013 12.04 116.06 12.6335 116.06 13.0386C116.06 13.4437 116.013 14.0372 115.91 14.8191C115.815 15.6105 115.589 16.4018 115.231 17.2026C114.883 18.0033 114.346 18.7004 113.649 19.3034ZM153.291 0.000488281C152.414 0.000488281 151.642 0.057012 150.983 0.188901C150.323 0.32079 149.72 0.518623 149.145 0.810662C148.561 1.1027 148.015 1.46069 147.516 1.88461C146.932 2.38391 146.376 2.90204 145.839 3.44844C145.575 3.12814 145.292 2.77015 144.963 2.36507C144.633 1.95998 144.209 1.57373 143.691 1.22517C143.173 0.876607 142.542 0.584567 141.807 0.358472C141.072 0.122956 140.177 0.000488281 139.131 0.000488281C136.494 0.000488281 134.148 0.951972 132.104 2.82668V0.659932H124.784V25.3891H132.104V12.6901C132.104 11.9082 132.16 11.1357 132.292 10.3726C132.424 9.62837 132.641 8.95008 132.951 8.34716C133.272 7.75366 133.686 7.28263 134.223 6.93407C134.76 6.58551 135.429 6.41594 136.258 6.41594C137.633 6.41594 138.576 6.79276 139.037 7.54641C139.508 8.30006 139.744 9.30807 139.744 10.5704V25.3891H147.064V11.0509C147.064 10.0711 147.205 9.27981 147.478 8.66747C147.77 8.0457 148.109 7.58409 148.514 7.25437C148.919 6.92465 149.362 6.69855 149.824 6.58551C150.276 6.47246 150.672 6.42536 151.02 6.42536C151.934 6.42536 152.641 6.59493 153.14 6.94349C153.649 7.29205 154.016 7.70656 154.251 8.18701C154.487 8.67689 154.619 9.20444 154.657 9.76968C154.685 10.3349 154.694 10.8342 154.694 11.277V25.3891H162.014V8.68631C162.014 5.98259 161.26 3.86295 159.734 2.31796C158.199 0.77298 156.06 0.000488281 153.291 0.000488281ZM187.789 17.504H180.234C180.111 17.7961 179.96 18.0881 179.781 18.399C179.612 18.7193 179.367 19.0113 179.056 19.2751C178.736 19.5483 178.331 19.765 177.831 19.9345C177.323 20.1041 176.663 20.1983 175.844 20.1983C174.675 20.1983 173.762 20.0099 173.083 19.6331C172.405 19.2562 171.877 18.8041 171.501 18.2671C171.133 17.7301 170.869 17.1931 170.756 16.6467C170.625 16.0909 170.54 15.6387 170.464 15.2996H188.156V15.0641C188.156 13.0763 187.949 11.1828 187.516 9.38343C187.101 7.56525 186.395 5.96375 185.424 4.56949C184.445 3.16582 183.173 2.05418 181.6 1.24401C180.036 0.424416 178.114 0.0193295 175.844 0.0193295C173.988 0.0193295 172.264 0.339631 170.681 0.989654C169.089 1.63968 167.723 2.54406 166.574 3.73106C165.424 4.90863 164.529 6.32173 163.879 7.97976C163.229 9.62837 162.909 11.456 162.909 13.472C162.909 14.6684 163.097 15.9967 163.474 17.4569C163.851 18.9265 164.529 20.2925 165.5 21.5643C166.479 22.8361 167.798 23.91 169.466 24.7767C171.133 25.6434 173.253 26.0768 175.834 26.0768C177.568 26.0768 179.103 25.8413 180.46 25.3702C181.816 24.8992 182.984 24.2774 183.974 23.4861C184.963 22.6948 185.763 21.781 186.395 20.7447C187.045 19.6802 187.497 18.6156 187.789 17.504ZM173.366 6.28405C174.016 5.99201 174.845 5.86012 175.853 5.86012C177.238 5.86012 178.293 6.24636 179.009 7.01886C179.734 7.79135 180.262 8.75225 180.61 9.92041H170.464C170.596 9.54358 170.756 9.11965 170.964 8.64862C171.18 8.16817 171.482 7.71598 171.84 7.32974C172.207 6.90581 172.725 6.55724 173.366 6.28405Z" fill="#C51533"/>
<path d="M203.588 12.2188L211.7 0.659668H203.4L199.396 6.42509L195.421 0.659668H186.839L195.006 12.4166L186.038 25.3888H194.629L199.302 18.3516L204.069 25.3888H212.651L203.588 12.2188Z" fill="#C51533"/>
</svg>
