<svg width="231" height="48" viewBox="0 0 231 48" fill="none" xmlns="http://www.w3.org/2000/svg">
<path d="M128.97 39.1218C129.358 39.0663 129.636 38.9553 129.968 38.7888C130.246 38.6779 130.634 38.4004 131.134 38.0675C131.8 37.6235 132.188 37.1796 132.41 36.7357C132.577 36.3472 132.688 35.9588 132.688 35.6813C132.688 35.4039 132.521 35.2374 132.133 35.2374C131.855 35.2374 131.578 35.3484 131.3 35.5148C131.023 35.7368 130.69 36.0143 130.301 36.4582C129.968 36.9021 129.691 37.2906 129.525 37.7345C129.192 38.2339 129.025 38.6779 128.97 39.1218ZM128.748 40.5091C128.692 40.6201 128.692 40.6755 128.692 40.7865V41.0085C128.692 41.9518 128.859 42.7287 129.192 43.2281C129.525 43.7831 130.135 44.005 131.023 44.005C131.245 44.005 131.467 43.9495 131.744 43.894C131.966 43.8385 132.188 43.7276 132.41 43.6721L133.076 43.3391C133.187 43.4501 133.187 43.5611 133.187 43.7831C133.187 43.894 133.076 44.005 132.854 44.116C132.632 44.2825 132.41 44.3935 132.077 44.5599C131.744 44.6709 131.356 44.8374 130.967 44.8929C130.579 45.0039 130.135 45.0594 129.746 45.0594C128.803 45.0594 128.026 44.7819 127.471 44.227C126.916 43.6721 126.639 42.8397 126.639 41.8409C126.639 40.953 126.805 40.0651 127.083 39.2883C127.36 38.4559 127.86 37.679 128.526 36.9021C128.914 36.4582 129.358 36.0698 129.802 35.6813C130.246 35.3484 130.856 34.9599 131.522 34.627C131.911 34.405 132.244 34.294 132.521 34.2385C132.854 34.1831 133.076 34.1276 133.298 34.0721C133.742 34.0721 134.075 34.1276 134.241 34.2385C134.408 34.3495 134.519 34.5715 134.519 34.849C134.519 34.9599 134.519 35.1819 134.463 35.3484C134.408 35.5703 134.297 35.7923 134.13 36.1253C133.964 36.4027 133.686 36.7357 133.353 37.0686C133.02 37.4016 132.577 37.79 132.022 38.2339C131.578 38.5669 131.189 38.8998 130.745 39.1218C130.357 39.3438 130.024 39.5657 129.691 39.7322C129.358 39.8987 129.025 40.0651 128.748 40.1761V40.5091ZM146.56 29.1333C146.283 29.9657 146.061 30.7981 145.783 31.575C145.562 32.2964 145.34 33.0177 145.062 33.8501C144.785 34.627 144.563 35.4039 144.396 36.0698C144.23 36.5692 144.119 37.0686 143.952 37.457C143.841 37.8455 143.675 38.2339 143.564 38.6224C143.453 39.0108 143.342 39.3992 143.231 39.8432C143.12 40.2871 143.009 40.7865 142.898 41.3414C142.842 41.4524 142.842 41.6189 142.842 41.7854C142.842 41.9518 142.787 42.1183 142.787 42.2293C142.731 42.3958 142.731 42.5622 142.731 42.7287C142.731 42.8952 142.787 43.0617 142.898 43.2281L143.12 43.5056C143.12 43.6166 143.009 43.7831 142.898 44.005C142.787 44.227 142.62 44.3935 142.454 44.5599C142.232 44.7819 142.066 44.8929 141.844 45.0039C141.677 45.1149 141.511 45.1149 141.4 45.1149C141.122 45.1149 140.956 45.0594 140.9 44.8929C140.845 44.7264 140.789 44.5599 140.789 44.3935C140.789 44.2825 140.789 44.0605 140.845 43.7831C140.9 43.5056 140.956 43.1727 141.011 42.8397L141.178 41.8409C141.233 41.5079 141.289 41.2859 141.344 41.1195H141.289C140.956 41.5634 140.567 42.0073 140.234 42.4513C139.846 42.8952 139.457 43.3391 138.958 43.7831C138.681 44.0605 138.403 44.2825 138.181 44.5044C137.959 44.6709 137.737 44.8374 137.571 44.9484C137.404 45.0594 137.238 45.1149 137.071 45.1703C136.905 45.2258 136.794 45.2813 136.627 45.2813C136.183 45.2813 135.795 45.1703 135.518 44.8929C135.24 44.6154 135.074 44.116 135.074 43.2836C135.074 42.2848 135.296 41.3414 135.684 40.3981C136.073 39.4547 136.683 38.5669 137.46 37.679C138.181 36.8466 138.958 36.1807 139.79 35.7368C140.623 35.2374 141.455 34.9599 142.399 34.849L143.175 34.738C143.397 34.0166 143.619 33.4062 143.786 32.7958C143.952 32.2964 144.063 31.7969 144.23 31.2975C144.341 30.8536 144.452 30.5206 144.452 30.3542C144.452 30.2987 144.452 30.2432 144.396 30.1877C144.341 30.1322 144.285 30.1322 144.23 30.1322C144.174 30.1322 144.063 30.1322 143.952 30.1877H143.786C143.73 30.1877 143.675 30.1877 143.675 30.2432C143.619 30.2432 143.619 30.2432 143.619 30.1877V30.0767L143.73 29.9657C143.841 29.8547 144.063 29.7438 144.341 29.6328C144.618 29.4663 144.951 29.3553 145.34 29.1888C145.728 29.0779 146.061 28.9669 146.394 28.9669C146.505 28.8004 146.56 28.9114 146.56 29.1333ZM142.01 35.6813C141.178 35.6813 140.401 35.9588 139.679 36.5692C138.958 37.1796 138.348 38.0675 137.848 39.2328C137.626 39.8432 137.404 40.3981 137.293 40.953C137.182 41.5079 137.127 42.0073 137.127 42.5068C137.127 43.1727 137.293 43.5611 137.626 43.6721C137.904 43.6166 138.181 43.4501 138.57 43.1727C138.903 42.8952 139.291 42.5068 139.735 42.0073C139.901 41.8409 140.068 41.6189 140.29 41.3969L140.956 40.5646C141.178 40.2316 141.4 39.9542 141.566 39.6212C141.733 39.2883 141.899 38.9553 142.01 38.6779L142.898 35.7368H142.01V35.6813ZM149.113 39.9542C149.057 40.1206 149.002 40.3426 148.946 40.5646C148.891 40.7865 148.836 41.0085 148.725 41.2305C148.669 41.4524 148.614 41.6189 148.558 41.7854C148.503 41.9518 148.503 42.0628 148.503 42.1183C148.503 42.1738 148.503 42.2293 148.558 42.2848C148.558 42.3403 148.614 42.3958 148.669 42.3958C148.725 42.3958 148.891 42.2848 149.057 42.1183C149.279 41.9518 149.501 41.6744 149.834 41.2305C150.223 40.7865 150.556 40.3426 150.833 39.9542C151.111 39.5657 151.388 39.2328 151.666 38.8443C151.943 38.5114 152.165 38.1229 152.442 37.79C152.72 37.4016 152.997 37.0131 153.275 36.5137C153.497 36.1807 153.663 35.9033 153.774 35.6258C153.885 35.3484 154.107 35.1264 154.385 34.849C154.551 34.6825 154.773 34.5715 154.94 34.4605C155.106 34.3495 155.328 34.294 155.494 34.1831C155.661 34.1276 155.772 34.0721 155.883 34.0721H156.105C156.216 34.0721 156.271 34.1276 156.271 34.294C156.271 34.3495 156.216 34.4605 156.16 34.6825C156.049 34.9044 155.994 35.1819 155.827 35.5148C155.716 35.8478 155.605 36.1807 155.439 36.5692C155.328 36.9576 155.217 37.2906 155.106 37.6235C154.995 37.901 154.94 38.1784 154.884 38.4004C154.829 38.6224 154.773 38.8443 154.718 39.1218C154.662 39.3438 154.607 39.5657 154.551 39.8432C154.496 40.0651 154.44 40.3426 154.385 40.6201C154.329 40.8975 154.218 41.2305 154.163 41.5634C154.107 41.8964 154.052 42.2293 153.996 42.5068C153.941 42.8397 153.885 43.2281 153.83 43.5611C153.83 43.6166 153.83 43.7276 153.774 43.8386C153.774 43.9495 153.719 44.0605 153.663 44.227C153.663 44.2825 153.608 44.338 153.497 44.449C153.441 44.5044 153.386 44.5599 153.275 44.6154C153.164 44.7264 153.053 44.7819 152.886 44.8929C152.775 45.0039 152.609 45.0594 152.498 45.1703C152.387 45.2258 152.276 45.2813 152.22 45.2813C152.165 45.2813 152.054 45.2813 151.999 45.2258C151.888 45.1703 151.888 45.1148 151.888 45.0594V44.8374C151.888 44.7264 151.888 44.5599 151.943 44.227C151.999 43.9495 152.054 43.5611 152.109 43.1727C152.165 42.7842 152.276 42.3403 152.331 41.8409C152.442 41.3969 152.498 40.953 152.609 40.5091C152.664 40.2316 152.72 39.9542 152.831 39.6212C152.942 39.2883 152.997 39.0108 153.108 38.7333C153.219 38.4004 153.275 38.0675 153.386 37.7345C153.108 38.1229 152.775 38.5114 152.498 38.8998C152.22 39.2328 151.943 39.6212 151.61 40.0651L150.611 41.3969C150.389 41.6744 150.167 42.0073 149.945 42.2293C149.723 42.5068 149.501 42.7287 149.335 42.8952C149.168 43.0617 149.002 43.2281 148.891 43.3946C148.78 43.5611 148.614 43.6721 148.503 43.8386C148.392 43.9495 148.225 44.116 148.059 44.227C147.892 44.338 147.726 44.449 147.559 44.6154C147.393 44.7264 147.226 44.7819 147.115 44.7819H146.838C146.449 44.7819 146.227 44.5044 146.227 43.894C146.227 43.7831 146.283 43.5056 146.338 43.1172C146.449 42.7287 146.56 42.2293 146.782 41.6744L147.781 38.5669C148.003 37.9565 148.114 37.457 148.225 37.0686C148.336 36.6802 148.392 36.4027 148.503 36.1807C148.558 35.9588 148.614 35.7923 148.614 35.6813V35.5148V35.3484C148.614 35.2929 148.558 35.2929 148.503 35.2929C148.447 35.2929 148.336 35.3484 148.17 35.4039C148.059 35.5148 147.948 35.5148 147.837 35.5148C147.726 35.5148 147.67 35.4039 147.67 35.2374C147.67 35.1819 147.892 34.9599 148.281 34.738C148.836 34.405 149.335 34.1276 149.723 34.0166C150.112 33.9056 150.389 33.8501 150.611 33.8501C150.722 33.8501 150.778 33.9611 150.778 34.1276C150.778 34.2385 150.778 34.4605 150.722 34.738L150.556 35.5703L149.113 39.9542ZM162.542 37.3461C162.653 37.0686 162.708 36.7912 162.764 36.5692C162.819 36.2917 162.819 36.0143 162.819 35.6813C162.819 35.3484 162.653 35.1819 162.32 35.1819C161.82 35.1819 161.377 35.3484 160.933 35.7368C160.489 36.1253 160.1 36.5692 159.712 37.1796C159.379 37.79 159.101 38.4559 158.879 39.1773C158.657 39.8987 158.546 40.731 158.546 41.5079C158.546 42.3403 158.713 42.9507 159.046 43.4501C159.212 43.6721 159.434 43.8385 159.656 43.894C159.878 44.005 160.267 44.005 160.655 44.005C160.933 44.005 161.266 43.9495 161.488 43.8386C161.765 43.7276 161.987 43.6166 162.264 43.4501C162.431 43.3391 162.542 43.2836 162.653 43.2836C162.708 43.2836 162.819 43.2836 162.875 43.3391C162.93 43.3946 162.986 43.5056 162.986 43.6721C162.986 43.7276 162.875 43.8386 162.708 44.005C162.486 44.1715 162.264 44.338 161.876 44.449C161.543 44.6154 161.099 44.7264 160.655 44.8929C160.211 45.0039 159.656 45.0594 159.157 45.0594C158.436 45.0594 157.825 44.8374 157.326 44.3935C156.826 43.9495 156.604 43.2836 156.549 42.3958C156.549 40.2871 157.326 38.2894 158.99 36.4582C159.379 36.0698 159.712 35.6813 160.156 35.4039C160.544 35.1264 160.933 34.849 161.321 34.627C161.709 34.405 162.042 34.294 162.375 34.1831C162.708 34.0721 162.986 34.0166 163.208 34.0166C163.319 34.0166 163.485 34.0166 163.652 34.0721C163.818 34.0721 163.929 34.1276 164.096 34.1831C164.207 34.2385 164.318 34.3495 164.429 34.4605C164.54 34.5715 164.54 34.738 164.54 34.9044C164.54 35.4594 164.484 35.9588 164.373 36.4027C164.318 36.5692 164.262 36.7357 164.207 36.9576C164.096 37.1796 163.985 37.3461 163.818 37.457C163.541 37.679 163.319 37.79 163.097 37.901C162.875 37.9565 162.708 38.012 162.597 38.012C162.486 38.012 162.431 37.9565 162.431 37.901L162.542 37.3461ZM171.143 41.064C170.089 42.3403 169.201 43.2836 168.479 43.9495C167.758 44.6154 167.092 45.0039 166.537 45.1149C166.038 45.1149 165.649 44.9484 165.372 44.6154C165.094 44.2825 164.983 43.7831 164.983 43.1727C164.983 42.1738 165.205 41.2305 165.649 40.2871C166.093 39.3438 166.704 38.4559 167.425 37.679C168.146 36.9021 168.923 36.2917 169.7 35.7923C170.477 35.3484 171.309 34.9599 172.142 34.7935C172.419 34.738 172.752 34.6825 173.085 34.627C173.418 34.5715 173.64 34.5715 173.807 34.5715C173.973 34.5715 174.14 34.5715 174.251 34.627C174.362 34.6825 174.417 34.738 174.417 34.7935C174.417 34.9599 174.362 35.1264 174.195 35.2374C174.14 35.2929 174.029 35.3484 173.918 35.4039C173.807 35.4594 173.696 35.4594 173.529 35.5148C173.418 35.5148 173.196 35.5149 172.974 35.4594C172.697 35.4039 172.475 35.4039 172.253 35.4039C171.864 35.4039 171.531 35.4594 171.199 35.6258C170.866 35.7923 170.533 35.9588 170.2 36.2362C169.867 36.5137 169.534 36.7912 169.256 37.1241C168.923 37.457 168.646 37.8455 168.368 38.2894C168.091 38.7333 167.869 39.1773 167.647 39.6212C167.425 40.1761 167.259 40.731 167.148 41.175C167.037 41.6744 166.981 42.1183 166.981 42.6177C166.981 43.0062 167.037 43.2836 167.148 43.3946C167.259 43.5056 167.37 43.6166 167.536 43.6166C167.758 43.6166 168.091 43.4501 168.424 43.1727C168.757 42.8952 169.145 42.5068 169.534 42.0628C169.922 41.6189 170.311 41.1195 170.644 40.5646C171.032 40.0096 171.365 39.5102 171.587 39.0108C171.753 38.6779 171.92 38.3449 172.031 38.012C172.142 37.679 172.253 37.457 172.308 37.2906C172.419 37.0686 172.475 36.8466 172.586 36.6247C172.697 36.4027 172.808 36.2362 173.085 36.1253C173.307 36.0143 173.529 35.9033 173.751 35.8478C173.973 35.7923 174.14 35.7368 174.251 35.7368C174.417 35.7368 174.473 35.7923 174.473 35.9588C174.362 36.2917 174.195 36.6802 174.084 37.0686C173.973 37.4016 173.807 37.79 173.696 38.1784C173.585 38.5669 173.418 38.9553 173.307 39.3992C173.141 40.0096 173.03 40.6755 172.919 41.286C172.808 41.8964 172.752 42.3958 172.752 42.7287C172.752 42.8952 172.752 43.0617 172.808 43.2281C172.863 43.3946 172.919 43.5056 172.974 43.6166L173.196 43.894C173.196 43.9495 173.085 44.116 172.974 44.2825C172.863 44.449 172.697 44.6154 172.53 44.8374C172.364 45.0039 172.197 45.1703 171.975 45.3368C171.809 45.4478 171.642 45.5588 171.476 45.5588C171.254 45.5588 171.143 45.5033 171.032 45.3368C170.921 45.1703 170.866 44.8929 170.866 44.449C170.866 44.116 170.866 43.7831 170.921 43.3946C170.977 43.0062 170.977 42.6732 171.032 42.3403L171.199 41.175H171.143V41.064ZM182.075 35.0154C182.519 35.0154 182.907 35.0154 183.185 34.9599C183.462 34.9044 183.795 34.9044 184.183 34.9044C184.35 34.9044 184.461 34.9044 184.516 34.9599C184.572 34.9599 184.572 35.0154 184.572 35.0709C184.572 35.1819 184.405 35.3484 184.128 35.5148C184.017 35.5703 183.795 35.6813 183.573 35.7368C183.351 35.7923 183.074 35.8478 182.741 35.9033C182.519 35.9588 182.352 35.9588 182.186 35.9588C182.019 35.9588 181.853 36.0143 181.631 36.0143H180.799C180.743 36.1807 180.688 36.5137 180.521 36.9021C180.41 37.3461 180.244 37.79 180.133 38.2894C179.966 38.7888 179.855 39.3438 179.689 39.9542C179.522 40.5646 179.411 41.1195 179.3 41.6189C179.245 41.9518 179.189 42.2293 179.134 42.4513C179.134 42.6732 179.078 42.8952 179.078 43.0062C179.078 43.1172 179.078 43.2281 179.134 43.2836C179.134 43.3391 179.189 43.4501 179.189 43.5611C179.189 43.6166 179.189 43.7276 179.134 43.7831C179.134 43.8386 179.078 43.894 179.023 44.005C178.967 44.0605 178.912 44.1715 178.745 44.2825C178.634 44.3935 178.468 44.5044 178.301 44.6709L177.802 45.0039C177.636 45.1149 177.469 45.1703 177.358 45.1703C177.025 45.1703 176.859 45.0594 176.859 44.8374C176.859 44.7819 176.859 44.6709 176.914 44.449C176.97 44.2825 177.025 44.0605 177.025 43.8386C177.081 43.6166 177.136 43.3946 177.192 43.1172C177.247 42.8397 177.303 42.6177 177.358 42.3403C177.469 41.8409 177.636 41.3414 177.746 40.7865C177.857 40.2316 178.024 39.7322 178.135 39.2883C178.246 38.7888 178.412 38.3449 178.523 37.9565C178.634 37.568 178.745 37.1796 178.801 36.9576C178.856 36.8466 178.856 36.6802 178.912 36.5137C178.967 36.3472 179.023 36.1253 179.078 35.9588C178.801 35.9588 178.523 36.0143 178.246 36.0143H177.192C176.914 36.0143 176.803 35.9033 176.803 35.7368C176.803 35.5703 176.859 35.4594 176.914 35.3484C176.97 35.2374 177.081 35.1819 177.192 35.0709C177.358 34.9599 177.525 34.9044 177.636 34.9044H179.411L180.077 32.6293C180.188 32.2409 180.355 31.9079 180.577 31.6305C180.799 31.353 181.02 31.131 181.353 31.0201C181.575 30.9646 181.797 30.9091 182.019 30.9091C182.13 30.9091 182.241 30.9646 182.241 31.131C182.186 31.2975 182.13 31.4085 182.075 31.5195C182.019 31.6305 181.964 31.7414 181.964 31.8524C181.908 31.9634 181.853 32.0744 181.853 32.1854C181.797 32.2964 181.742 32.4628 181.686 32.6293L180.965 34.9044H182.075V35.0154ZM188.456 34.627C188.345 34.9599 188.29 35.3484 188.179 35.6813C188.123 35.9588 188.012 36.2917 187.901 36.6247C187.79 36.9576 187.735 37.2906 187.624 37.568C187.513 37.8455 187.457 38.1229 187.402 38.3449L187.236 39.0108L187.069 39.6767C187.014 39.8987 186.958 40.1761 186.847 40.4536C186.792 40.731 186.681 40.953 186.625 41.286C186.57 41.5634 186.459 41.8409 186.403 42.0628C186.348 42.3403 186.292 42.5068 186.237 42.7287C186.181 42.8952 186.181 43.0617 186.181 43.1172C186.181 43.2281 186.181 43.3391 186.237 43.4501C186.237 43.5611 186.292 43.6166 186.292 43.7276C186.292 43.7831 186.292 43.9495 186.237 44.116C186.181 44.2825 185.959 44.5044 185.626 44.8374C185.571 44.8929 185.515 44.8929 185.46 44.9484L185.127 45.1149C185.016 45.1703 184.905 45.2258 184.738 45.2813C184.627 45.3368 184.516 45.3368 184.405 45.3368C184.294 45.3368 184.183 45.3368 184.073 45.2813C183.962 45.2258 183.962 45.1703 183.962 45.0594C183.962 44.8929 184.017 44.6154 184.128 44.2825C184.294 43.7831 184.461 43.2836 184.572 42.8952C184.683 42.5068 184.849 42.0073 185.016 41.4524C185.127 41.0085 185.238 40.6755 185.293 40.3981C185.349 40.1206 185.46 39.7322 185.571 39.3438C185.626 39.0663 185.737 38.7333 185.793 38.4004C185.904 38.0675 185.959 37.79 186.015 37.5125C186.07 37.2351 186.126 36.9576 186.181 36.7357C186.237 36.5137 186.237 36.2917 186.237 36.1807C186.237 36.0143 186.237 35.9588 186.181 35.9033C186.126 35.8478 186.07 35.8478 186.015 35.8478H185.848C185.793 35.8478 185.737 35.9033 185.626 35.9033C185.515 35.9033 185.46 35.9588 185.349 35.9588C185.293 35.9033 185.238 35.7923 185.238 35.6258C185.349 35.5148 185.626 35.3484 186.015 35.1819C186.403 35.0154 186.903 34.849 187.402 34.6825C187.679 34.5715 188.012 34.516 188.29 34.516C188.401 34.405 188.456 34.4605 188.456 34.627ZM189.4 31.242C189.344 31.6305 189.233 31.9634 189.011 32.2409C188.789 32.5183 188.456 32.6848 187.957 32.6848C187.624 32.6848 187.402 32.6293 187.291 32.5183C187.18 32.4073 187.125 32.1299 187.125 31.7414C187.18 31.242 187.291 30.8536 187.457 30.5761C187.679 30.2987 188.012 30.1877 188.567 30.1877C188.9 30.1877 189.122 30.2987 189.233 30.4651C189.344 30.6316 189.4 30.9091 189.4 31.242ZM192.341 45.0594C191.619 45.0594 191.009 44.8929 190.565 44.5044C190.121 44.116 189.899 43.5611 189.844 42.7842C189.844 42.1738 189.899 41.5634 190.066 40.8975C190.232 40.2316 190.509 39.5657 190.953 38.8443C191.286 38.2339 191.675 37.679 192.119 37.1796C192.563 36.6802 193.062 36.1807 193.617 35.6813C194.116 35.2374 194.56 34.9044 194.893 34.6825C195.282 34.4605 195.559 34.3495 195.781 34.3495H196.281C196.336 34.294 196.447 34.2385 196.669 34.1831C196.891 34.1276 197.057 34.0721 197.279 34.0721C197.945 34.0721 198.389 34.294 198.667 34.738C198.944 35.1819 199.055 35.7923 199.055 36.5137C199.055 38.1229 198.445 39.8987 197.224 41.8409C195.781 44.005 194.172 45.0594 192.341 45.0594ZM197.279 36.9576C197.279 36.4027 197.168 35.9588 197.002 35.6258C196.836 35.2929 196.558 35.1264 196.281 35.1264H196.17C196.114 35.1264 196.114 35.1819 196.059 35.1819L195.948 35.2374L195.559 35.1819C194.56 35.1819 193.673 36.2362 192.785 38.4004C192.452 39.2883 192.174 40.0096 192.008 40.6201C191.841 41.2305 191.73 41.7854 191.73 42.1738C191.73 42.7842 191.841 43.2836 192.119 43.5611C192.341 43.894 192.674 44.0605 193.062 44.0605C193.506 44.0605 193.95 43.894 194.449 43.6166C194.893 43.3391 195.337 42.7842 195.781 42.1183C196.003 41.7299 196.225 41.2859 196.392 40.7865C196.558 40.2871 196.725 39.7877 196.836 39.2883C196.946 38.7888 197.057 38.3449 197.113 37.901C197.224 37.5125 197.279 37.1796 197.279 36.9576ZM208.489 39.7322C208.433 39.9542 208.378 40.2316 208.322 40.5091C208.267 40.7865 208.211 41.0085 208.156 41.2305C208.1 41.4524 208.045 41.6744 208.045 41.8409C207.989 42.0073 207.989 42.1738 207.989 42.2848V43.1727C207.989 43.2836 207.989 43.3946 207.934 43.4501C207.878 43.5056 207.823 43.6166 207.712 43.7276L207.434 44.005C207.268 44.116 207.101 44.227 206.935 44.3935L206.436 44.7264C206.269 44.8374 206.158 44.8374 206.047 44.8374C205.936 44.8374 205.825 44.7819 205.77 44.7264C205.714 44.6709 205.659 44.5599 205.659 44.338C205.659 44.2825 205.659 44.116 205.714 43.9495C205.77 43.7831 205.825 43.5056 205.936 43.0617C205.992 42.7842 206.047 42.5623 206.103 42.3403C206.158 42.1183 206.214 41.9518 206.269 41.7299C206.325 41.5079 206.38 41.3414 206.436 41.1195L206.602 40.4536C206.768 39.8987 206.935 39.3438 207.046 38.8998C207.212 38.4559 207.323 38.012 207.434 37.568C207.545 37.2906 207.601 36.9576 207.656 36.6247C207.712 36.2917 207.767 36.0698 207.767 35.9588C207.767 35.6258 207.712 35.4594 207.601 35.4594C207.434 35.4594 207.157 35.6258 206.824 35.9033C206.436 36.1807 205.992 36.6802 205.492 37.4016C205.048 38.012 204.604 38.6224 204.216 39.2328C203.827 39.8432 203.494 40.4536 203.217 41.1195C203.106 41.3969 202.94 41.7299 202.773 42.1738C202.607 42.5622 202.44 43.0062 202.329 43.4501C202.218 43.7276 202.163 43.9495 202.107 44.116C202.052 44.2825 201.941 44.449 201.774 44.6709C201.719 44.7264 201.663 44.7819 201.552 44.8374L201.219 45.0039C201.108 45.0594 200.942 45.1149 200.831 45.1703C200.72 45.2258 200.553 45.2258 200.442 45.2258C200.331 45.2258 200.22 45.1703 200.109 45.1149C200.054 45.0594 199.999 44.9484 199.999 44.8374C199.999 44.6709 199.999 44.5044 200.054 44.3935C200.11 44.2825 200.165 44.0605 200.276 43.7831C200.387 43.4501 200.553 43.1172 200.664 42.7287C200.775 42.3958 200.942 42.0073 201.053 41.5634C201.164 41.1195 201.33 40.6755 201.497 40.1761C201.608 39.7322 201.774 39.2883 201.885 38.7888C201.996 38.2894 202.163 37.8455 202.274 37.4016C202.385 36.9576 202.496 36.5692 202.607 36.2917C202.718 35.9588 202.718 35.7923 202.773 35.6813C202.773 35.6258 202.773 35.5703 202.829 35.5148V35.4039C202.829 35.3484 202.829 35.2929 202.773 35.2929H202.662C202.607 35.2929 202.496 35.2929 202.329 35.3484C202.218 35.4039 202.052 35.4594 201.941 35.5148C201.774 35.5703 201.663 35.6813 201.497 35.7923L201.386 35.9033C201.275 35.9588 201.219 36.0143 201.219 36.0143C201.164 36.0143 201.108 35.9588 201.108 35.9033C201.108 35.8478 201.053 35.7923 201.053 35.7368C201.053 35.6813 201.108 35.6258 201.275 35.4594C201.386 35.3484 201.608 35.1819 201.774 35.0709C201.996 34.9044 202.218 34.7935 202.496 34.627C202.773 34.516 202.995 34.3495 203.217 34.294C203.494 34.1831 203.716 34.1276 203.938 34.0721C204.105 34.0166 204.382 34.0166 204.771 34.0166C204.882 34.0166 204.993 34.0721 204.993 34.2385C204.993 34.294 204.993 34.516 204.937 34.7935C204.882 35.0709 204.771 35.5703 204.549 36.2362L203.772 38.8998L203.827 38.9553C204.105 38.6224 204.327 38.2339 204.604 37.901C204.826 37.6235 205.104 37.2906 205.326 36.9576C205.603 36.6247 205.825 36.2917 206.103 36.0143C206.214 35.8478 206.38 35.6813 206.546 35.5148C206.713 35.3484 206.879 35.1819 207.046 35.0709L207.434 34.6825C207.545 34.5715 207.601 34.516 207.656 34.516C207.878 34.3495 208.156 34.2385 208.378 34.1831C208.766 34.0721 209.099 33.9611 209.488 33.9611C209.765 33.9611 209.931 34.1831 209.931 34.5715C209.931 34.6825 209.931 34.9044 209.876 35.1819C209.82 35.4594 209.709 35.8478 209.599 36.2362C209.488 36.6802 209.377 37.0686 209.21 37.5125C209.099 37.8455 208.988 38.2339 208.877 38.6779C208.655 38.9553 208.6 39.3438 208.489 39.7322Z" stroke="#2B3990" stroke-width="2" stroke-miterlimit="22.9256" stroke-linejoin="round"/>
<path d="M128.97 39.1218C129.358 39.0663 129.636 38.9553 129.968 38.7888C130.246 38.6779 130.634 38.4004 131.134 38.0675C131.8 37.6235 132.188 37.1796 132.41 36.7357C132.577 36.3472 132.688 35.9588 132.688 35.6813C132.688 35.4039 132.521 35.2374 132.133 35.2374C131.855 35.2374 131.578 35.3484 131.3 35.5149C131.023 35.7368 130.69 36.0143 130.301 36.4582C129.968 36.9021 129.691 37.2906 129.525 37.7345C129.192 38.2339 129.025 38.6779 128.97 39.1218ZM128.748 40.5091C128.692 40.6201 128.692 40.6755 128.692 40.7865V41.0085C128.692 41.9518 128.859 42.7287 129.192 43.2281C129.525 43.7831 130.135 44.005 131.023 44.005C131.245 44.005 131.467 43.9495 131.744 43.894C131.966 43.8385 132.188 43.7276 132.41 43.6721L133.076 43.3391C133.187 43.4501 133.187 43.5611 133.187 43.7831C133.187 43.894 133.076 44.005 132.854 44.116C132.632 44.2825 132.41 44.3935 132.077 44.5599C131.744 44.6709 131.356 44.8374 130.967 44.8929C130.579 45.0039 130.135 45.0594 129.746 45.0594C128.803 45.0594 128.026 44.7819 127.471 44.227C126.916 43.6721 126.639 42.8397 126.639 41.8409C126.639 40.953 126.805 40.0651 127.083 39.2883C127.36 38.4559 127.86 37.679 128.526 36.9021C128.914 36.4582 129.358 36.0698 129.802 35.6813C130.246 35.3484 130.856 34.9599 131.522 34.627C131.911 34.405 132.244 34.294 132.521 34.2385C132.854 34.1831 133.076 34.1276 133.298 34.0721C133.742 34.0721 134.075 34.1276 134.241 34.2385C134.408 34.3495 134.519 34.5715 134.519 34.849C134.519 34.9599 134.519 35.1819 134.463 35.3484C134.408 35.5703 134.297 35.7923 134.13 36.1253C133.964 36.4027 133.686 36.7357 133.353 37.0686C133.02 37.4016 132.577 37.79 132.022 38.2339C131.578 38.5669 131.189 38.8998 130.745 39.1218C130.357 39.3438 130.024 39.5657 129.691 39.7322C129.358 39.8987 129.025 40.0651 128.748 40.1761V40.5091ZM146.56 29.1333C146.283 29.9657 146.061 30.7981 145.783 31.575C145.562 32.2964 145.34 33.0177 145.062 33.8501C144.785 34.627 144.563 35.4039 144.396 36.0698C144.23 36.5692 144.119 37.0686 143.952 37.457C143.841 37.8455 143.675 38.2339 143.564 38.6224C143.453 39.0108 143.342 39.3992 143.231 39.8432C143.12 40.2871 143.009 40.7865 142.898 41.3414C142.842 41.4524 142.842 41.6189 142.842 41.7854C142.842 41.9518 142.787 42.1183 142.787 42.2293C142.731 42.3958 142.731 42.5623 142.731 42.7287C142.731 42.8952 142.787 43.0617 142.898 43.2281L143.12 43.5056C143.12 43.6166 143.009 43.7831 142.898 44.005C142.787 44.227 142.62 44.3935 142.454 44.5599C142.232 44.7819 142.066 44.8929 141.844 45.0039C141.677 45.1149 141.511 45.1149 141.4 45.1149C141.122 45.1149 140.956 45.0594 140.9 44.8929C140.845 44.7264 140.789 44.5599 140.789 44.3935C140.789 44.2825 140.789 44.0605 140.845 43.7831C140.9 43.5056 140.956 43.1727 141.011 42.8397L141.178 41.8409C141.233 41.5079 141.289 41.2859 141.344 41.1195H141.289C140.956 41.5634 140.567 42.0073 140.234 42.4513C139.846 42.8952 139.457 43.3391 138.958 43.7831C138.681 44.0605 138.403 44.2825 138.181 44.5044C137.959 44.6709 137.737 44.8374 137.571 44.9484C137.404 45.0594 137.238 45.1149 137.071 45.1703C136.905 45.2258 136.794 45.2813 136.627 45.2813C136.183 45.2813 135.795 45.1703 135.518 44.8929C135.24 44.6154 135.074 44.116 135.074 43.2836C135.074 42.2848 135.296 41.3414 135.684 40.3981C136.073 39.4547 136.683 38.5669 137.46 37.679C138.181 36.8466 138.958 36.1807 139.79 35.7368C140.623 35.2374 141.455 34.9599 142.399 34.849L143.175 34.738C143.397 34.0166 143.619 33.4062 143.786 32.7958C143.952 32.2964 144.063 31.7969 144.23 31.2975C144.341 30.8536 144.452 30.5206 144.452 30.3542C144.452 30.2987 144.452 30.2432 144.396 30.1877C144.341 30.1322 144.285 30.1322 144.23 30.1322C144.174 30.1322 144.063 30.1322 143.952 30.1877H143.786C143.73 30.1877 143.675 30.1877 143.675 30.2432C143.619 30.2432 143.619 30.2432 143.619 30.1877V30.0767L143.73 29.9657C143.841 29.8547 144.063 29.7438 144.341 29.6328C144.618 29.4663 144.951 29.3553 145.34 29.1888C145.728 29.0779 146.061 28.9669 146.394 28.9669C146.505 28.8004 146.56 28.9114 146.56 29.1333ZM142.01 35.6813C141.178 35.6813 140.401 35.9588 139.679 36.5692C138.958 37.1796 138.348 38.0675 137.848 39.2328C137.626 39.8432 137.404 40.3981 137.293 40.953C137.182 41.5079 137.127 42.0073 137.127 42.5068C137.127 43.1727 137.293 43.5611 137.626 43.6721C137.904 43.6166 138.181 43.4501 138.57 43.1727C138.903 42.8952 139.291 42.5068 139.735 42.0073C139.901 41.8409 140.068 41.6189 140.29 41.3969L140.956 40.5646C141.178 40.2316 141.4 39.9542 141.566 39.6212C141.733 39.2883 141.899 38.9553 142.01 38.6779L142.898 35.7368H142.01V35.6813ZM149.113 39.9542C149.057 40.1206 149.002 40.3426 148.946 40.5646C148.891 40.7865 148.836 41.0085 148.725 41.2305C148.669 41.4524 148.614 41.6189 148.558 41.7854C148.503 41.9518 148.503 42.0628 148.503 42.1183C148.503 42.1738 148.503 42.2293 148.558 42.2848C148.558 42.3403 148.614 42.3958 148.669 42.3958C148.725 42.3958 148.891 42.2848 149.057 42.1183C149.279 41.9518 149.501 41.6744 149.834 41.2305C150.223 40.7865 150.556 40.3426 150.833 39.9542C151.111 39.5657 151.388 39.2328 151.666 38.8443C151.943 38.5114 152.165 38.1229 152.442 37.79C152.72 37.4016 152.997 37.0131 153.275 36.5137C153.497 36.1807 153.663 35.9033 153.774 35.6258C153.885 35.3484 154.107 35.1264 154.385 34.849C154.551 34.6825 154.773 34.5715 154.94 34.4605C155.106 34.3495 155.328 34.294 155.494 34.1831C155.661 34.1276 155.772 34.0721 155.883 34.0721H156.105C156.216 34.0721 156.271 34.1276 156.271 34.294C156.271 34.3495 156.216 34.4605 156.16 34.6825C156.049 34.9044 155.994 35.1819 155.827 35.5149C155.716 35.8478 155.605 36.1807 155.439 36.5692C155.328 36.9576 155.217 37.2906 155.106 37.6235C154.995 37.901 154.94 38.1784 154.884 38.4004C154.829 38.6224 154.773 38.8443 154.718 39.1218C154.662 39.3438 154.607 39.5657 154.551 39.8432C154.496 40.0651 154.44 40.3426 154.385 40.6201C154.329 40.8975 154.218 41.2305 154.163 41.5634C154.107 41.8964 154.052 42.2293 153.996 42.5068C153.941 42.8397 153.885 43.2281 153.83 43.5611C153.83 43.6166 153.83 43.7276 153.774 43.8386C153.774 43.9495 153.719 44.0605 153.663 44.227C153.663 44.2825 153.608 44.338 153.497 44.449C153.441 44.5044 153.386 44.5599 153.275 44.6154C153.164 44.7264 153.053 44.7819 152.886 44.8929C152.775 45.0039 152.609 45.0594 152.498 45.1703C152.387 45.2258 152.276 45.2813 152.22 45.2813C152.165 45.2813 152.054 45.2813 151.999 45.2258C151.888 45.1703 151.888 45.1148 151.888 45.0594V44.8374C151.888 44.7264 151.888 44.5599 151.943 44.227C151.999 43.9495 152.054 43.5611 152.109 43.1727C152.165 42.7842 152.276 42.3403 152.331 41.8409C152.442 41.3969 152.498 40.953 152.609 40.5091C152.664 40.2316 152.72 39.9542 152.831 39.6212C152.942 39.2883 152.997 39.0108 153.108 38.7333C153.219 38.4004 153.275 38.0675 153.386 37.7345C153.108 38.1229 152.775 38.5114 152.498 38.8998C152.22 39.2328 151.943 39.6212 151.61 40.0651L150.611 41.3969C150.389 41.6744 150.167 42.0073 149.945 42.2293C149.723 42.5068 149.501 42.7287 149.335 42.8952C149.168 43.0617 149.002 43.2281 148.891 43.3946C148.78 43.5611 148.614 43.6721 148.503 43.8386C148.392 43.9495 148.225 44.116 148.059 44.227C147.892 44.338 147.726 44.449 147.559 44.6154C147.393 44.7264 147.226 44.7819 147.115 44.7819H146.838C146.449 44.7819 146.227 44.5044 146.227 43.894C146.227 43.7831 146.283 43.5056 146.338 43.1172C146.449 42.7287 146.56 42.2293 146.782 41.6744L147.781 38.5669C148.003 37.9565 148.114 37.457 148.225 37.0686C148.336 36.6802 148.392 36.4027 148.503 36.1807C148.558 35.9588 148.614 35.7923 148.614 35.6813V35.5149V35.3484C148.614 35.2929 148.558 35.2929 148.503 35.2929C148.447 35.2929 148.336 35.3484 148.17 35.4039C148.059 35.5148 147.948 35.5149 147.837 35.5149C147.726 35.5149 147.67 35.4039 147.67 35.2374C147.67 35.1819 147.892 34.9599 148.281 34.738C148.836 34.405 149.335 34.1276 149.723 34.0166C150.112 33.9056 150.389 33.8501 150.611 33.8501C150.722 33.8501 150.778 33.9611 150.778 34.1276C150.778 34.2385 150.778 34.4605 150.722 34.738L150.556 35.5703L149.113 39.9542ZM162.542 37.3461C162.653 37.0686 162.708 36.7912 162.764 36.5692C162.819 36.2917 162.819 36.0143 162.819 35.6813C162.819 35.3484 162.653 35.1819 162.32 35.1819C161.82 35.1819 161.377 35.3484 160.933 35.7368C160.489 36.1253 160.1 36.5692 159.712 37.1796C159.379 37.79 159.101 38.4559 158.879 39.1773C158.657 39.8987 158.546 40.731 158.546 41.5079C158.546 42.3403 158.713 42.9507 159.046 43.4501C159.212 43.6721 159.434 43.8385 159.656 43.894C159.878 44.005 160.267 44.005 160.655 44.005C160.933 44.005 161.266 43.9495 161.488 43.8386C161.765 43.7276 161.987 43.6166 162.264 43.4501C162.431 43.3391 162.542 43.2836 162.653 43.2836C162.708 43.2836 162.819 43.2836 162.875 43.3391C162.93 43.3946 162.986 43.5056 162.986 43.6721C162.986 43.7276 162.875 43.8386 162.708 44.005C162.486 44.1715 162.264 44.338 161.876 44.449C161.543 44.6154 161.099 44.7264 160.655 44.8929C160.211 45.0039 159.656 45.0594 159.157 45.0594C158.436 45.0594 157.825 44.8374 157.326 44.3935C156.826 43.9495 156.604 43.2836 156.549 42.3958C156.549 40.2871 157.326 38.2894 158.99 36.4582C159.379 36.0698 159.712 35.6813 160.156 35.4039C160.544 35.1264 160.933 34.849 161.321 34.627C161.709 34.405 162.042 34.294 162.375 34.1831C162.708 34.0721 162.986 34.0166 163.208 34.0166C163.319 34.0166 163.485 34.0166 163.652 34.0721C163.818 34.0721 163.929 34.1276 164.096 34.1831C164.207 34.2385 164.318 34.3495 164.429 34.4605C164.54 34.5715 164.54 34.738 164.54 34.9044C164.54 35.4594 164.484 35.9588 164.373 36.4027C164.318 36.5692 164.262 36.7357 164.207 36.9576C164.096 37.1796 163.985 37.3461 163.818 37.457C163.541 37.679 163.319 37.79 163.097 37.901C162.875 37.9565 162.708 38.012 162.597 38.012C162.486 38.012 162.431 37.9565 162.431 37.901L162.542 37.3461ZM171.143 41.064C170.089 42.3403 169.201 43.2836 168.479 43.9495C167.758 44.6154 167.092 45.0039 166.537 45.1149C166.038 45.1149 165.649 44.9484 165.372 44.6154C165.094 44.2825 164.983 43.7831 164.983 43.1727C164.983 42.1738 165.205 41.2305 165.649 40.2871C166.093 39.3438 166.704 38.4559 167.425 37.679C168.146 36.9021 168.923 36.2917 169.7 35.7923C170.477 35.3484 171.309 34.9599 172.142 34.7935C172.419 34.738 172.752 34.6825 173.085 34.627C173.418 34.5715 173.64 34.5715 173.807 34.5715C173.973 34.5715 174.14 34.5715 174.251 34.627C174.362 34.6825 174.417 34.738 174.417 34.7935C174.417 34.9599 174.362 35.1264 174.195 35.2374C174.14 35.2929 174.029 35.3484 173.918 35.4039C173.807 35.4594 173.696 35.4594 173.529 35.5149C173.418 35.5149 173.196 35.5149 172.974 35.4594C172.697 35.4039 172.475 35.4039 172.253 35.4039C171.864 35.4039 171.531 35.4594 171.199 35.6258C170.866 35.7923 170.533 35.9588 170.2 36.2362C169.867 36.5137 169.534 36.7912 169.256 37.1241C168.923 37.457 168.646 37.8455 168.368 38.2894C168.091 38.7333 167.869 39.1773 167.647 39.6212C167.425 40.1761 167.259 40.731 167.148 41.175C167.037 41.6744 166.981 42.1183 166.981 42.6177C166.981 43.0062 167.037 43.2836 167.148 43.3946C167.259 43.5056 167.37 43.6166 167.536 43.6166C167.758 43.6166 168.091 43.4501 168.424 43.1727C168.757 42.8952 169.145 42.5068 169.534 42.0628C169.922 41.6189 170.311 41.1195 170.644 40.5646C171.032 40.0096 171.365 39.5102 171.587 39.0108C171.753 38.6779 171.92 38.3449 172.031 38.012C172.142 37.679 172.253 37.457 172.308 37.2906C172.419 37.0686 172.475 36.8466 172.586 36.6247C172.697 36.4027 172.808 36.2362 173.085 36.1253C173.307 36.0143 173.529 35.9033 173.751 35.8478C173.973 35.7923 174.14 35.7368 174.251 35.7368C174.417 35.7368 174.473 35.7923 174.473 35.9588C174.362 36.2917 174.195 36.6802 174.084 37.0686C173.973 37.4016 173.807 37.79 173.696 38.1784C173.585 38.5669 173.418 38.9553 173.307 39.3992C173.141 40.0096 173.03 40.6755 172.919 41.2859C172.808 41.8964 172.752 42.3958 172.752 42.7287C172.752 42.8952 172.752 43.0617 172.808 43.2281C172.863 43.3946 172.919 43.5056 172.974 43.6166L173.196 43.894C173.196 43.9495 173.085 44.116 172.974 44.2825C172.863 44.449 172.697 44.6154 172.53 44.8374C172.364 45.0039 172.197 45.1703 171.975 45.3368C171.809 45.4478 171.642 45.5588 171.476 45.5588C171.254 45.5588 171.143 45.5033 171.032 45.3368C170.921 45.1703 170.866 44.8929 170.866 44.449C170.866 44.116 170.866 43.7831 170.921 43.3946C170.977 43.0062 170.977 42.6732 171.032 42.3403L171.199 41.175H171.143V41.064ZM182.075 35.0154C182.519 35.0154 182.907 35.0154 183.185 34.9599C183.462 34.9044 183.795 34.9044 184.183 34.9044C184.35 34.9044 184.461 34.9044 184.516 34.9599C184.572 34.9599 184.572 35.0154 184.572 35.0709C184.572 35.1819 184.405 35.3484 184.128 35.5149C184.017 35.5703 183.795 35.6813 183.573 35.7368C183.351 35.7923 183.074 35.8478 182.741 35.9033C182.519 35.9588 182.352 35.9588 182.186 35.9588C182.019 35.9588 181.853 36.0143 181.631 36.0143H180.799C180.743 36.1807 180.688 36.5137 180.521 36.9021C180.41 37.3461 180.244 37.79 180.133 38.2894C179.966 38.7888 179.855 39.3438 179.689 39.9542C179.522 40.5646 179.411 41.1195 179.3 41.6189C179.245 41.9518 179.189 42.2293 179.134 42.4513C179.134 42.6732 179.078 42.8952 179.078 43.0062C179.078 43.1172 179.078 43.2281 179.134 43.2836C179.134 43.3391 179.189 43.4501 179.189 43.5611C179.189 43.6166 179.189 43.7276 179.134 43.7831C179.134 43.8386 179.078 43.894 179.023 44.005C178.967 44.0605 178.912 44.1715 178.745 44.2825C178.634 44.3935 178.468 44.5044 178.301 44.6709L177.802 45.0039C177.636 45.1149 177.469 45.1703 177.358 45.1703C177.025 45.1703 176.859 45.0594 176.859 44.8374C176.859 44.7819 176.859 44.6709 176.914 44.449C176.97 44.2825 177.025 44.0605 177.025 43.8386C177.081 43.6166 177.136 43.3946 177.192 43.1172C177.247 42.8397 177.303 42.6177 177.358 42.3403C177.469 41.8409 177.636 41.3414 177.746 40.7865C177.857 40.2316 178.024 39.7322 178.135 39.2883C178.246 38.7888 178.412 38.3449 178.523 37.9565C178.634 37.568 178.745 37.1796 178.801 36.9576C178.856 36.8466 178.856 36.6802 178.912 36.5137C178.967 36.3472 179.023 36.1253 179.078 35.9588C178.801 35.9588 178.523 36.0143 178.246 36.0143H177.192C176.914 36.0143 176.803 35.9033 176.803 35.7368C176.803 35.5703 176.859 35.4594 176.914 35.3484C176.97 35.2374 177.081 35.1819 177.192 35.0709C177.358 34.9599 177.525 34.9044 177.636 34.9044H179.411L180.077 32.6293C180.188 32.2409 180.355 31.9079 180.577 31.6305C180.799 31.353 181.02 31.131 181.353 31.0201C181.575 30.9646 181.797 30.9091 182.019 30.9091C182.13 30.9091 182.241 30.9646 182.241 31.131C182.186 31.2975 182.13 31.4085 182.075 31.5195C182.019 31.6305 181.964 31.7414 181.964 31.8524C181.908 31.9634 181.853 32.0744 181.853 32.1854C181.797 32.2964 181.742 32.4628 181.686 32.6293L180.965 34.9044H182.075V35.0154ZM188.456 34.627C188.345 34.9599 188.29 35.3484 188.179 35.6813C188.123 35.9588 188.012 36.2917 187.901 36.6247C187.79 36.9576 187.735 37.2906 187.624 37.568C187.513 37.8455 187.457 38.1229 187.402 38.3449L187.236 39.0108L187.069 39.6767C187.014 39.8987 186.958 40.1761 186.847 40.4536C186.792 40.731 186.681 40.953 186.625 41.2859C186.57 41.5634 186.459 41.8409 186.403 42.0628C186.348 42.3403 186.292 42.5068 186.237 42.7287C186.181 42.8952 186.181 43.0617 186.181 43.1172C186.181 43.2281 186.181 43.3391 186.237 43.4501C186.237 43.5611 186.292 43.6166 186.292 43.7276C186.292 43.7831 186.292 43.9495 186.237 44.116C186.181 44.2825 185.959 44.5044 185.626 44.8374C185.571 44.8929 185.515 44.8929 185.46 44.9484L185.127 45.1149C185.016 45.1703 184.905 45.2258 184.738 45.2813C184.627 45.3368 184.516 45.3368 184.405 45.3368C184.294 45.3368 184.183 45.3368 184.073 45.2813C183.962 45.2258 183.962 45.1703 183.962 45.0594C183.962 44.8929 184.017 44.6154 184.128 44.2825C184.294 43.7831 184.461 43.2836 184.572 42.8952C184.683 42.5068 184.849 42.0073 185.016 41.4524C185.127 41.0085 185.238 40.6755 185.293 40.3981C185.349 40.1206 185.46 39.7322 185.571 39.3438C185.626 39.0663 185.737 38.7333 185.793 38.4004C185.904 38.0675 185.959 37.79 186.015 37.5125C186.07 37.2351 186.126 36.9576 186.181 36.7357C186.237 36.5137 186.237 36.2917 186.237 36.1807C186.237 36.0143 186.237 35.9588 186.181 35.9033C186.126 35.8478 186.07 35.8478 186.015 35.8478H185.848C185.793 35.8478 185.737 35.9033 185.626 35.9033C185.515 35.9033 185.46 35.9588 185.349 35.9588C185.293 35.9033 185.238 35.7923 185.238 35.6258C185.349 35.5148 185.626 35.3484 186.015 35.1819C186.403 35.0154 186.903 34.849 187.402 34.6825C187.679 34.5715 188.012 34.516 188.29 34.516C188.401 34.405 188.456 34.4605 188.456 34.627ZM189.4 31.242C189.344 31.6305 189.233 31.9634 189.011 32.2409C188.789 32.5183 188.456 32.6848 187.957 32.6848C187.624 32.6848 187.402 32.6293 187.291 32.5183C187.18 32.4073 187.125 32.1299 187.125 31.7414C187.18 31.242 187.291 30.8536 187.457 30.5761C187.679 30.2987 188.012 30.1877 188.567 30.1877C188.9 30.1877 189.122 30.2987 189.233 30.4651C189.344 30.6316 189.4 30.9091 189.4 31.242ZM192.341 45.0594C191.619 45.0594 191.009 44.8929 190.565 44.5044C190.121 44.116 189.899 43.5611 189.844 42.7842C189.844 42.1738 189.899 41.5634 190.066 40.8975C190.232 40.2316 190.509 39.5657 190.953 38.8443C191.286 38.2339 191.675 37.679 192.119 37.1796C192.563 36.6802 193.062 36.1807 193.617 35.6813C194.116 35.2374 194.56 34.9044 194.893 34.6825C195.282 34.4605 195.559 34.3495 195.781 34.3495H196.281C196.336 34.294 196.447 34.2385 196.669 34.1831C196.891 34.1276 197.057 34.0721 197.279 34.0721C197.945 34.0721 198.389 34.294 198.667 34.738C198.944 35.1819 199.055 35.7923 199.055 36.5137C199.055 38.1229 198.445 39.8987 197.224 41.8409C195.781 44.005 194.172 45.0594 192.341 45.0594ZM197.279 36.9576C197.279 36.4027 197.168 35.9588 197.002 35.6258C196.836 35.2929 196.558 35.1264 196.281 35.1264H196.17C196.114 35.1264 196.114 35.1819 196.059 35.1819L195.948 35.2374L195.559 35.1819C194.56 35.1819 193.673 36.2362 192.785 38.4004C192.452 39.2883 192.174 40.0096 192.008 40.6201C191.841 41.2305 191.73 41.7854 191.73 42.1738C191.73 42.7842 191.841 43.2836 192.119 43.5611C192.341 43.894 192.674 44.0605 193.062 44.0605C193.506 44.0605 193.95 43.894 194.449 43.6166C194.893 43.3391 195.337 42.7842 195.781 42.1183C196.003 41.7299 196.225 41.2859 196.392 40.7865C196.558 40.2871 196.725 39.7877 196.836 39.2883C196.946 38.7888 197.057 38.3449 197.113 37.901C197.224 37.5125 197.279 37.1796 197.279 36.9576ZM208.489 39.7322C208.433 39.9542 208.378 40.2316 208.322 40.5091C208.267 40.7865 208.211 41.0085 208.156 41.2305C208.1 41.4524 208.045 41.6744 208.045 41.8409C207.989 42.0073 207.989 42.1738 207.989 42.2848V43.1727C207.989 43.2836 207.989 43.3946 207.934 43.4501C207.878 43.5056 207.823 43.6166 207.712 43.7276L207.434 44.005C207.268 44.116 207.101 44.227 206.935 44.3935L206.436 44.7264C206.269 44.8374 206.158 44.8374 206.047 44.8374C205.936 44.8374 205.825 44.7819 205.77 44.7264C205.714 44.6709 205.659 44.5599 205.659 44.338C205.659 44.2825 205.659 44.116 205.714 43.9495C205.77 43.7831 205.825 43.5056 205.936 43.0617C205.992 42.7842 206.047 42.5623 206.103 42.3403C206.158 42.1183 206.214 41.9518 206.269 41.7299C206.325 41.5079 206.38 41.3414 206.436 41.1195L206.602 40.4536C206.768 39.8987 206.935 39.3438 207.046 38.8998C207.212 38.4559 207.323 38.012 207.434 37.568C207.545 37.2906 207.601 36.9576 207.656 36.6247C207.712 36.2917 207.767 36.0698 207.767 35.9588C207.767 35.6258 207.712 35.4594 207.601 35.4594C207.434 35.4594 207.157 35.6258 206.824 35.9033C206.436 36.1807 205.992 36.6802 205.492 37.4016C205.048 38.012 204.604 38.6224 204.216 39.2328C203.827 39.8432 203.494 40.4536 203.217 41.1195C203.106 41.3969 202.94 41.7299 202.773 42.1738C202.607 42.5623 202.44 43.0062 202.329 43.4501C202.218 43.7276 202.163 43.9495 202.107 44.116C202.052 44.2825 201.941 44.449 201.774 44.6709C201.719 44.7264 201.663 44.7819 201.552 44.8374L201.219 45.0039C201.108 45.0594 200.942 45.1149 200.831 45.1703C200.72 45.2258 200.553 45.2258 200.442 45.2258C200.331 45.2258 200.22 45.1703 200.109 45.1149C200.054 45.0594 199.999 44.9484 199.999 44.8374C199.999 44.6709 199.999 44.5044 200.054 44.3935C200.11 44.2825 200.165 44.0605 200.276 43.7831C200.387 43.4501 200.553 43.1172 200.664 42.7287C200.775 42.3958 200.942 42.0073 201.053 41.5634C201.164 41.1195 201.33 40.6755 201.497 40.1761C201.608 39.7322 201.774 39.2883 201.885 38.7888C201.996 38.2894 202.163 37.8455 202.274 37.4016C202.385 36.9576 202.496 36.5692 202.607 36.2917C202.718 35.9588 202.718 35.7923 202.773 35.6813C202.773 35.6258 202.773 35.5703 202.829 35.5149V35.4039C202.829 35.3484 202.829 35.2929 202.773 35.2929H202.662C202.607 35.2929 202.496 35.2929 202.329 35.3484C202.218 35.4039 202.052 35.4594 201.941 35.5149C201.774 35.5703 201.663 35.6813 201.497 35.7923L201.386 35.9033C201.275 35.9588 201.219 36.0143 201.219 36.0143C201.164 36.0143 201.108 35.9588 201.108 35.9033C201.108 35.8478 201.053 35.7923 201.053 35.7368C201.053 35.6813 201.108 35.6258 201.275 35.4594C201.386 35.3484 201.608 35.1819 201.774 35.0709C201.996 34.9044 202.218 34.7935 202.496 34.627C202.773 34.516 202.995 34.3495 203.217 34.294C203.494 34.1831 203.716 34.1276 203.938 34.0721C204.105 34.0166 204.382 34.0166 204.771 34.0166C204.882 34.0166 204.993 34.0721 204.993 34.2385C204.993 34.294 204.993 34.516 204.937 34.7935C204.882 35.0709 204.771 35.5703 204.549 36.2362L203.772 38.8998L203.827 38.9553C204.105 38.6224 204.327 38.2339 204.604 37.901C204.826 37.6235 205.104 37.2906 205.326 36.9576C205.603 36.6247 205.825 36.2917 206.103 36.0143C206.214 35.8478 206.38 35.6813 206.546 35.5149C206.713 35.3484 206.879 35.1819 207.046 35.0709L207.434 34.6825C207.545 34.5715 207.601 34.516 207.656 34.516C207.878 34.3495 208.156 34.2385 208.378 34.1831C208.766 34.0721 209.099 33.9611 209.488 33.9611C209.765 33.9611 209.931 34.1831 209.931 34.5715C209.931 34.6825 209.931 34.9044 209.876 35.1819C209.82 35.4594 209.709 35.8478 209.599 36.2362C209.488 36.6802 209.377 37.0686 209.21 37.5125C209.099 37.8455 208.988 38.2339 208.877 38.6779C208.655 38.9553 208.6 39.3438 208.489 39.7322Z" fill="white"/>
<path fill-rule="evenodd" clip-rule="evenodd" d="M12.4374 1.77558H3.72527V12.3744H11.6605V13.4843H3.72527V26.0808H0.173828V0.665753H12.4374V1.77558ZM31.6374 26.0808H27.4201L19.5958 12.5964C22.7033 12.5964 24.7565 12.4299 25.6998 12.0415C27.5865 11.3201 28.5854 9.65535 28.5854 7.15824C28.5854 5.54899 27.975 4.2172 26.8097 3.27385C25.6444 2.33049 24.2016 1.83107 22.5368 1.83107H18.8189V26.0808H15.2675V0.665753H23.4802C25.6998 0.665753 27.5865 1.22067 29.1403 2.33049C30.8605 3.60679 31.7484 5.27153 31.7484 7.4357C31.7484 9.37789 30.916 10.9316 29.3068 12.097C27.975 13.0403 26.3102 13.6507 24.2016 13.9282L31.6374 26.0808ZM47.9519 17.979L42.5137 5.65997L37.0756 17.979H47.9519ZM55.6097 26.6357H52.0027L48.5623 19.0889H36.5761L33.2467 26.6357H32.0259L43.7345 0.11084L55.6097 26.6357ZM75.4201 26.3582L58.4952 4.71662V25.8588H57.3854V0.388297H59.2166L74.3103 19.1444V0.388297H75.4201V26.3582ZM101.834 22.8623C99.5588 25.1929 96.2293 26.3582 91.901 26.3582C88.1831 26.3582 85.1866 25.1374 82.9114 22.6403C80.6918 20.1987 79.5819 17.1467 79.5819 13.4288C79.5819 9.15593 80.9137 5.88194 83.6328 3.60679C86.1299 1.49812 89.5704 0.388297 93.8987 0.388297C96.6178 0.388297 99.2814 1.55361 101.778 3.88425L101.113 4.77211C98.3935 2.82992 95.6744 1.88656 92.9553 1.88656C89.9033 1.88656 87.5172 3.05188 85.9079 5.43801C84.4652 7.49119 83.7438 10.1548 83.7438 13.3178C83.7438 16.5918 84.4652 19.3108 85.9079 21.364C87.5727 23.7501 89.9588 24.9155 93.1218 24.9155C96.1738 24.9155 98.8374 23.9721 101.057 22.0854L101.834 22.8623ZM230.074 26.0808H217.811V0.665753H230.074V1.77558H221.418V12.3744H229.298V13.4843H221.418V24.971H230.074V26.0808ZM145.894 26.0253H141.677L133.852 12.4854C136.96 12.4854 139.013 12.3189 139.956 11.9305C141.843 11.2091 142.842 9.54437 142.842 7.04726C142.842 5.43801 142.232 4.10622 141.066 3.16286C139.901 2.21951 138.458 1.72009 136.793 1.72009H133.076V26.0253H129.524V0.554771H137.792C140.012 0.554771 141.899 1.10968 143.452 2.21951C145.173 3.49581 146.061 5.16055 146.061 7.32471C146.061 9.26691 145.228 10.8207 143.619 11.986C142.287 12.9293 140.622 13.5397 138.514 13.8172L145.894 26.0253ZM170.532 13.2623C170.532 10.1548 169.811 7.4357 168.368 5.16055C166.703 2.55246 164.428 1.22067 161.432 1.22067C158.38 1.22067 156.049 2.55246 154.44 5.27153C153.052 7.54668 152.387 10.2658 152.387 13.4843C152.387 16.5363 153.108 19.1999 154.606 21.4195C156.271 23.9721 158.546 25.2484 161.487 25.2484C164.484 25.2484 166.759 23.9166 168.424 21.3085C169.811 19.0889 170.532 16.4253 170.532 13.2623ZM174.639 13.3733C174.639 17.3132 173.362 20.5317 170.865 22.9733C168.313 25.4149 165.094 26.6357 161.154 26.6357C157.492 26.6357 154.44 25.3594 152.109 22.8623C149.778 20.3652 148.613 17.2022 148.613 13.5397C148.613 9.71084 149.778 6.54783 152.165 3.99523C154.495 1.44263 157.603 0.166331 161.376 0.166331C165.261 0.166331 168.424 1.38714 170.976 3.88425C173.418 6.32587 174.639 9.48888 174.639 13.3733ZM193.395 19.5328C193.395 21.6415 192.729 23.2507 191.341 24.4715C189.954 25.6923 188.234 26.2473 186.07 26.2473C184.017 26.2473 182.296 25.6923 180.854 24.527C179.355 23.3062 178.578 21.6415 178.578 19.6438V0.554771H182.13V19.6993C182.13 21.1421 182.574 22.3629 183.517 23.3617C184.461 24.3606 185.626 24.86 187.069 24.86C188.567 24.86 189.788 24.3606 190.731 23.3617C191.73 22.3629 192.229 21.0866 192.229 19.6438V0.554771H193.339V19.5328H193.395ZM210.652 6.93627C210.652 5.43801 210.264 4.2172 209.432 3.27385C208.544 2.21951 207.378 1.6646 205.936 1.6646H202.051V12.208H205.936C207.378 12.208 208.544 11.653 209.432 10.5987C210.209 9.65535 210.652 8.43454 210.652 6.93627ZM202.051 13.3733V26.0253H198.5V0.554771H206.602C208.655 0.554771 210.32 1.10968 211.707 2.16402C213.205 3.32934 213.926 4.93859 213.926 6.93627C213.926 7.65766 213.815 8.26807 213.649 8.82298C213.039 10.6542 211.873 11.9305 210.264 12.5964C209.099 13.0958 207.434 13.3178 205.27 13.3178H203.661C202.939 13.3733 202.384 13.3733 202.051 13.3733Z" fill="#2B3990"/>
<path fill-rule="evenodd" clip-rule="evenodd" d="M126.527 4.55029C126.527 3.44046 126.25 2.60809 125.75 1.99769C125.251 1.38728 124.419 1.05434 123.253 1.05434C119.702 1.05434 116.15 3.49595 112.71 8.3237C109.491 12.8185 107.827 16.8139 107.827 20.3098C109.436 20.1434 110.934 19.8659 112.321 19.422C114.042 18.9225 115.706 18.1457 117.316 17.1468C120.257 15.4266 122.587 13.2624 124.252 10.7098C125.75 8.54566 126.527 6.49249 126.527 4.55029ZM98.5041 44.0601C98.5041 46.1133 99.8914 47.1676 102.721 47.1676C103.443 47.1676 104.053 47.1121 104.553 46.9457C105.052 46.8347 105.662 46.6682 106.384 46.3908C108.437 45.5029 109.991 43.8936 110.99 41.5075C111.434 40.3977 111.989 38.3445 112.599 35.237C107.494 36.5133 103.887 37.8451 101.723 39.2324C99.6139 40.6197 98.5041 42.2289 98.5041 44.0601ZM112.266 26.3584C114.708 26.3584 117.149 25.1376 119.702 22.6405C121.256 21.1977 122.698 19.311 124.086 17.0913C124.141 17.0358 124.252 16.9803 124.419 16.8694C124.696 16.8694 124.862 16.9803 124.862 17.1468L124.752 17.3688C123.919 18.4231 122.976 20.0879 122.032 22.363C120.812 25.1931 119.646 28.8 118.481 33.1838C119.757 32.7954 121.089 31.741 122.476 30.1318C123.753 28.2451 124.585 27.0798 124.973 26.6358L125.306 26.4694L125.528 26.6913L125.362 27.0798C124.252 28.578 123.087 30.0763 121.977 31.5746C120.756 32.7954 119.591 33.5723 118.425 33.8497C117.815 35.9584 117.205 37.6786 116.594 38.9549C115.54 41.2301 114.264 42.9503 112.765 44.1156C110.823 45.5584 108.936 46.5572 107.105 47.2231C105.552 47.7225 103.887 48 102.056 48C100.335 48 99.0035 47.667 98.0602 47.0012C97.1168 46.3907 96.6174 45.3919 96.6174 44.0601C96.6174 42.2289 97.7827 40.5642 100.169 38.9549C102.943 37.1237 107.105 35.6254 112.654 34.4046C113.043 32.4069 113.542 30.6312 114.208 29.1329C114.819 27.6347 115.651 26.5249 116.594 25.748C115.817 26.1919 115.096 26.4694 114.43 26.6913C113.764 26.9133 112.987 27.0243 112.044 27.0243C109.658 27.0243 107.716 26.4694 106.273 25.415C104.83 24.3607 103.942 22.8624 103.498 21.0867C100.89 20.8092 98.8925 19.8659 97.3943 18.2566C95.896 16.7029 95.1191 14.5942 95.1191 11.9861C95.1191 8.76763 96.1735 6.15954 98.2266 4.16185C100.335 2.16416 103.276 0.776879 107.105 0L107.272 0.221965C104.275 1.22081 102 2.5526 100.446 4.21734C98.5596 6.27052 97.6163 8.9341 97.6163 12.1526C97.6163 14.3168 98.0047 16.037 98.7261 17.3688C99.7249 19.089 101.279 20.0879 103.498 20.3098L103.387 18.6451C103.387 14.2613 105.163 10.2659 108.659 6.54798C112.599 2.44162 117.427 0.388439 123.031 0.388439C124.419 0.388439 125.473 0.721387 126.139 1.44277C126.805 2.21965 127.193 3.2185 127.193 4.55029C127.193 6.54798 126.416 8.71214 124.918 10.9873C123.142 13.6509 120.756 15.926 117.649 17.8127C116.039 18.7561 114.319 19.5329 112.488 20.0879C110.99 20.5318 109.38 20.8092 107.716 21.0312C107.827 24.5827 109.325 26.3584 112.266 26.3584Z" fill="#C92434"/>
</svg>
