<svg width="167" height="48" viewBox="0 0 167 48" fill="none" xmlns="http://www.w3.org/2000/svg">
<path fill-rule="evenodd" clip-rule="evenodd" d="M59.6023 37.4654H62.6594C65.9718 37.4654 67.6421 39.7028 67.6421 41.8824C67.6421 44.0901 66.5662 46.4109 62.8294 46.4109C60.4511 46.4109 59.6023 45.6462 59.6023 43.4953V37.4654ZM57.2534 44.3157C57.2534 46.1007 56.8001 46.6377 54.4796 46.6377H53.8273V47.1751H64.188C68.7464 47.1751 70.3028 44.0333 70.3028 41.7971C70.3028 39.5894 68.7465 37.8619 66.0861 37.0696V37.0122C67.9826 36.6729 69.3125 35.1731 69.3125 33.5598C69.3125 32.2 68.7464 31.2369 67.5856 30.4178C66.5662 29.6811 64.3867 29.3125 61.8959 29.3125C61.3573 29.3125 59.2062 29.3406 57.6486 29.3981C56.8285 29.4265 54.8748 29.5396 54.0822 29.5671V30.1054H55.0732C57.0544 30.1054 57.2534 30.9545 57.2534 32.5677V44.3157ZM59.6023 29.9354C60.3099 29.907 61.4717 29.8505 62.0934 29.8505C65.5756 29.8505 66.7643 31.6624 66.7643 33.6442C66.7643 35.8522 65.4057 36.9275 62.6881 36.9275H59.6023V29.9354ZM78.0605 39.2492C77.4083 39.2492 76.9837 39.277 76.3046 39.1927V29.907C76.8138 29.8505 77.1818 29.8505 77.7197 29.8505C82.0826 29.8505 83.2694 31.8895 83.2694 34.5211C83.2694 37.9184 81.2051 39.2492 78.0605 39.2492ZM98.9784 30.1054V29.5674H92.0988V30.1054C93.6836 30.1897 94.2227 30.6143 94.2227 32.1435V44.2035C94.2227 46.0426 93.8722 46.5222 92.2522 46.6276C90.0928 46.5145 89.1758 45.6673 87.6268 44.1192L85.3922 41.8824C84.0635 40.5516 83.2141 39.7584 82.1663 38.9378C84.4878 38.2586 85.9301 36.4748 85.9301 34.3521C85.9301 31.4643 83.5812 29.3125 78.3433 29.3125C76.502 29.3125 75.936 29.3406 74.7754 29.3984C73.6152 29.454 71.8879 29.5671 71.2085 29.5671V30.1054H71.8317C73.4736 30.1054 73.955 30.6143 73.955 32.3706V44.2882C73.955 46.1854 73.3599 46.6377 71.6902 46.6377H71.2088V47.1751H79.2217V46.6377H78.5695C76.9837 46.6377 76.3046 46.2129 76.3046 44.5144V39.7297C76.7579 39.7584 77.1256 39.7878 77.7485 39.7878C78.5138 39.7878 78.9668 39.7584 79.675 39.7297C80.3548 40.1833 81.3466 41.0037 82.5918 42.2492L84.4593 44.1192C86.9067 46.5686 87.9508 47.3422 92.5606 47.1751H98.9784V46.6377C97.0249 46.6377 96.5723 46.0714 96.5723 44.4013V32.399C96.5723 30.5024 97.1952 30.1054 98.9784 30.1054ZM100.903 42.8727C101.498 45.3925 103.479 46.8645 105.687 46.8645C107.584 46.8645 109.593 45.7602 109.593 43.5244C109.593 39.4467 100.506 38.2024 100.506 33.2484C100.506 30.8976 102.658 29.1426 105.546 29.1426C107.923 29.1426 108.405 29.8508 109.396 29.8508C109.621 29.8508 109.735 29.7939 109.905 29.5674H110.358L110.839 33.1625H110.358C109.565 31.1244 107.754 29.8233 105.8 29.8233C103.931 29.8233 102.628 30.8976 102.628 32.4833C102.628 36.5026 111.716 37.5804 111.716 42.7877C111.716 45.5618 109.253 47.6292 105.941 47.6292C104.384 47.6292 102.403 46.8645 102.007 46.8645C101.752 46.8645 101.553 47.0051 101.441 47.1751H100.96L100.366 42.8727H100.903ZM122.616 44.5718C122.616 46.1007 123.124 46.638 124.851 46.638H125.9V47.1751H116.981V46.6377H118.03C119.757 46.6377 120.265 46.1007 120.265 44.5718V30.5874H115.34C114.209 30.5874 113.699 31.2369 113.272 33.728H112.764L113.217 29.1426H113.754C113.784 29.3125 113.897 29.4268 114.066 29.4825C114.236 29.5396 114.435 29.5671 114.632 29.5671H128.249C128.646 29.5671 129.07 29.4825 129.127 29.1426H129.664L130.118 33.728H129.607C129.183 31.2369 128.674 30.5874 127.542 30.5874H122.616L122.616 44.5718ZM150.845 37.8903C150.845 32.7951 146.259 29.1426 140.908 29.1426C134.879 29.1426 130.546 33.1341 130.546 38.7672C130.546 44.062 135.219 47.6289 140.767 47.6289C146.259 47.6289 150.845 43.6087 150.845 37.8903ZM148.183 38.8241C148.183 42.8434 145.976 46.9195 141.362 46.9195C136.803 46.9195 133.209 43.1845 133.209 37.8903C133.209 34.493 135.189 29.8505 140.172 29.8505C144.843 29.8505 148.183 33.5598 148.183 38.8241Z" fill="#231F20"/>
<mask id="mask0_137_1318" style="mask-type:luminance" maskUnits="userSpaceOnUse" x="151" y="29" width="16" height="19">
<path d="M166.174 29.5669V47.1742H151.341V29.5669H166.174Z" fill="white"/>
</mask>
<g mask="url(#mask0_137_1318)">
<path fill-rule="evenodd" clip-rule="evenodd" d="M163.996 47.1742H151.342V46.6372H152.275C153.578 46.6372 154.058 46.2123 154.058 44.7681V32.2273C154.058 30.7278 153.606 30.1048 151.823 30.1048H151.427V29.5669H159.777V30.1048H158.729C156.891 30.1048 156.408 30.3029 156.408 32.0579V45.108C156.408 45.8721 156.72 46.1561 157.541 46.1561H161.702C163.372 46.1561 163.881 45.5047 165.666 43.0424H166.175L163.996 47.1742Z" fill="#231F20"/>
</g>
<mask id="mask1_137_1318" style="mask-type:luminance" maskUnits="userSpaceOnUse" x="24" y="0" width="24" height="24">
<path d="M24.9596 0H47.4304V23.3783H24.9596V0Z" fill="white"/>
</mask>
<g mask="url(#mask1_137_1318)">
<path fill-rule="evenodd" clip-rule="evenodd" d="M31.7546 21.4747C31.7341 19.827 31.1748 16.459 27.2328 14.5481C31.2356 15.8196 33.1609 19.2016 33.3577 21.7247C37.5601 22.5622 41.2894 24.5398 47.3449 22.4519L47.3657 22.4387C47.3657 22.4387 39.3974 22.5112 36.0652 20.1005C37.786 20.1656 39.7672 19.7759 40.4164 18.8015C41.1084 17.7638 41.1799 16.6919 42.8846 16.6369C43.8422 16.606 47.09 16.8484 47.4305 12.0796C46.3913 13.8334 45.2659 14.5584 43.5662 14.1256C42.4811 13.849 40.5005 13.0189 39.085 14.7101C37.9162 16.1063 36.6609 16.8313 34.658 16.6152C35.4594 15.5329 47.3984 0.032399 47.3984 0.032399C47.3984 0.032399 32.1036 12.3073 31.2594 13.0216C31.0971 10.7809 31.768 9.95841 32.6663 8.97329C33.4014 8.1676 34.6794 7.07612 33.6622 4.77335C32.8397 2.91163 32.9479 1.78561 35.1883 0C33.402 0.129902 30.6766 1.33111 30.999 4.61105C31.194 6.59166 29.7908 6.76283 29.2779 7.04647C27.9468 7.78248 27.7732 9.9257 27.7301 11.5927C27.5791 11.0514 25.6419 2.72182 24.96 0.0265916C24.9594 0.0281199 24.9597 22.4384 24.9597 22.4384H25.011C27.6066 21.416 29.766 21.2601 31.7546 21.4747Z" fill="#BE2F37"/>
</g>
<path fill-rule="evenodd" clip-rule="evenodd" d="M69.7992 9.37744V9.77601C68.3932 9.7968 67.8892 10.3638 67.8892 11.7077V17.3751C67.8892 19.978 66.2304 22.7698 61.6753 22.7698C57.6661 22.7698 55.6088 20.4814 55.6088 17.4799V11.3504C55.6088 10.0068 55.231 9.7968 53.8039 9.77632V9.37714H59.1986V9.77601H59.0094C57.8553 9.77601 57.3513 10.0911 57.3513 11.3085V17.144C57.3513 19.978 59.0094 21.6784 62.1372 21.6784C64.5093 21.6784 66.9236 20.6914 66.9236 17.1229V12.2322C66.9236 10.2171 66.6088 9.86037 64.8666 9.77632V9.37744H69.7992ZM72.558 20.6077C72.558 21.7621 72.8307 22.0351 73.964 22.0351V22.4339H69.7448V22.0351C70.6685 22.0351 71.1514 21.5313 71.1514 20.7125V16.3044C71.1514 15.5277 71.0674 15.3807 70.5218 15.2756L69.8078 15.1289V14.7927L72.2218 13.9115H72.558V15.5485C73.964 14.667 75.1395 13.8901 76.1684 13.8901C77.5961 13.8901 78.4143 14.94 78.4143 17.0392C78.4143 19.831 78.2676 20.3766 78.2465 21.1954C78.2257 21.7621 78.5616 22.0351 79.422 22.0351H79.8839V22.4339H75.3706V22.0351C75.9792 22.0137 76.3365 21.8669 76.5669 21.6362C76.9658 21.2373 77.008 19.7045 77.008 16.913C77.008 15.2337 76.1891 14.7089 75.3495 14.7089C74.6777 14.7089 73.6495 15.2967 72.558 16.0525V20.6077ZM83.0379 9.06201C83.5413 9.06201 83.9612 9.41901 83.9612 9.86007C83.9612 10.3008 83.5413 10.6578 83.0382 10.6578C82.5341 10.6578 82.1353 10.3008 82.1353 9.86007C82.1353 9.41901 82.5342 9.06201 83.0379 9.06201ZM83.8983 20.8384C83.8983 21.5732 84.2978 22.0351 85.4094 22.0351V22.4339H80.7501V22.0351C82.0307 22.0351 82.4926 21.6154 82.4926 20.5028V16.2836C82.4926 15.4648 82.3874 15.3596 81.8418 15.2548L80.8552 15.0656V14.73L83.5841 13.7855H83.8989V20.8384M90.2038 22.6228L87.1596 15.654C86.8447 14.9189 86.5718 14.667 86.2365 14.6041L85.5842 14.4992V14.1214H89.8673V14.4992C88.5866 14.5411 88.1881 14.7089 88.6915 15.6959L90.9169 20.9225L93.0583 16.0736C93.4364 15.2126 93.2472 14.6041 91.7147 14.4995V14.1211H95.3672V14.4989C94.5701 14.6456 94.1073 15.1075 93.7094 16.0312L90.8127 22.6225L90.2038 22.6228ZM103.198 17.1022V16.6192C102.505 15.9263 102.568 13.8901 99.7343 13.8901C97.1733 13.8901 95.6832 16.1574 95.6832 18.3825C95.6832 20.8173 97.2778 22.6861 99.3358 22.6861C100.868 22.6861 102.191 21.6362 103.072 20.5236L102.841 20.2718C102.044 21.2162 101.225 21.6362 100.176 21.6362C98.5166 21.6362 96.9841 20.1666 96.9841 17.984C96.9841 17.7107 97.0269 17.4173 97.0681 17.1022H103.198ZM97.1308 16.556C97.6143 14.6041 98.664 14.2892 99.3572 14.2892C100.364 14.2892 101.204 15.1918 101.434 16.556H97.1308ZM107.246 20.9017C107.246 21.7621 107.561 22.0351 108.61 22.0351H109.408V22.4339H104.432V22.0351C105.503 22.0137 105.839 21.5732 105.839 20.4606V15.6118L104.432 15.1075V14.7511L106.826 13.9115H107.246V16.1363H107.288C108.337 14.4152 108.589 14.0163 109.282 14.0163C109.534 14.0163 109.597 14.0374 109.996 14.2055C110.205 14.2893 110.584 14.373 111.087 14.52L110.584 15.7793C110.198 15.7242 109.823 15.611 109.471 15.4437C109.24 15.3389 108.989 15.2337 108.737 15.2337C108.358 15.2337 108.127 15.4859 107.918 15.7793C107.645 16.1574 107.414 16.5141 107.246 16.8292V20.9017ZM112.537 20.3136C112.788 21.5732 113.586 22.2869 114.532 22.2869C115.371 22.2869 116.022 21.657 116.022 20.9017C116.022 20.4606 115.917 20.1877 115.349 19.621C113.859 18.1307 112.201 17.984 112.201 16.2411C112.201 14.8559 113.293 13.8901 114.888 13.8901C115.455 13.8901 116.043 14.0163 116.567 14.2263L116.609 16.1363H116.253C116.105 15.0656 115.412 14.3941 114.573 14.3941C113.88 14.3941 113.293 14.8767 113.293 15.5696C113.293 17.4173 117.196 17.7318 117.196 20.2928C117.196 21.657 116.063 22.6858 114.594 22.6858C114.196 22.6858 113.901 22.6228 113.67 22.5388C113.439 22.4761 113.272 22.4128 113.104 22.4128C112.978 22.4128 112.852 22.4969 112.747 22.665H112.432L112.201 20.3136H112.537ZM120.77 9.06201C121.275 9.06201 121.694 9.41901 121.694 9.86007C121.694 10.3008 121.275 10.6578 120.77 10.6578C120.268 10.6578 119.869 10.3008 119.869 9.86007C119.869 9.41901 120.268 9.06201 120.77 9.06201ZM121.632 20.8384C121.632 21.5732 122.031 22.0351 123.143 22.0351V22.4339H118.483V22.0351C119.764 22.0351 120.225 21.6154 120.225 20.5028V16.2836C120.225 15.4648 120.12 15.3596 119.574 15.2548L118.588 15.0656V14.73L121.317 13.7855H121.632V20.8384ZM129.125 14.1214L128.789 15.0448H126.124V19.9361C126.124 21.2581 127.069 21.6991 127.509 21.6991C127.971 21.6991 128.391 21.3424 128.789 20.6495L129.125 20.9644C128.621 22.0558 127.803 22.6858 126.837 22.6858C125.598 22.6858 124.717 21.657 124.717 20.251V15.0448H123.752V14.7089C124.57 14.31 125.284 13.3445 125.767 12.043H126.124V14.1214H129.125ZM137.429 16.4514C138.059 14.8559 137.659 14.5411 136.421 14.4992V14.1214H139.905V14.4992C139.045 14.6041 138.563 15.1918 138.164 16.1782L134.595 25.079C133.965 26.6323 133.483 27.3246 132.748 27.3246C132.244 27.3246 131.887 27.0101 131.887 26.5902C131.887 25.7291 133.104 25.9391 133.629 25.4149C133.86 25.1833 134.175 24.638 134.343 24.2183L134.973 22.6436L131.719 15.7374C131.321 14.8767 130.943 14.52 130.061 14.4995V14.1211H134.28V14.4989C133 14.5197 132.853 14.8978 133.273 15.779L135.645 20.9017L137.429 16.4514ZM144.617 18.3407C144.617 20.7966 146.61 22.6858 149.213 22.6858C151.712 22.6858 153.664 20.7755 153.664 18.2988C153.664 15.8004 151.712 13.8901 149.151 13.8901C146.967 13.8901 144.617 15.444 144.617 18.3407ZM146.191 17.6266C146.191 15.8215 147.471 14.3941 148.856 14.3941C150.62 14.3941 152.09 16.4303 152.09 18.8236C152.09 20.9222 150.683 22.1821 149.444 22.1821C147.639 22.1821 146.191 20.1666 146.191 17.6266Z" fill="#231F20"/>
<path fill-rule="evenodd" clip-rule="evenodd" d="M159.751 15.0444H157.484V20.7962C157.484 21.762 157.862 22.0347 159.037 22.0347H159.835V22.4335H154.651V22.0347C155.868 22.0347 156.078 21.7617 156.078 20.5862V15.0447H154.524V14.6874C155.111 14.5621 155.616 14.3726 156.078 14.1211C156.078 12.3789 156.456 11.056 157.694 9.8175C158.723 8.78899 159.709 8.32715 160.674 8.32715C161.85 8.32715 162.837 8.99897 162.837 9.31379C162.837 9.4819 162.438 10.3212 162.27 10.3212C161.976 10.3212 161.199 9.293 159.814 9.293C158.303 9.293 157.484 10.4893 157.484 12.5256V14.1211H159.604L159.751 15.0444Z" fill="#231F20"/>
<mask id="mask2_137_1318" style="mask-type:luminance" maskUnits="userSpaceOnUse" x="0" y="0" width="23" height="24">
<path d="M0.278076 23.3779V0.0258789H22.6337V23.3776L0.278076 23.3779Z" fill="white"/>
</mask>
<g mask="url(#mask2_137_1318)">
<path fill-rule="evenodd" clip-rule="evenodd" d="M16.7466 12.1488C16.5736 11.2178 16.6601 9.37775 17.5694 7.55944C14.2136 10.0924 14.1705 12.1488 14.1705 12.1488C14.1705 12.1488 14.82 11.6509 16.7466 12.1488ZM15.1881 6.60672C15.1881 6.60672 11.118 7.19143 9.9492 7.29963C9.14259 7.77584 8.21738 9.10725 8.21738 9.10725C8.21738 9.10725 7.26467 9.24785 5.35985 9.59446C4.03516 10.4585 3.23803 12.4734 4.88334 14.1187C4.36374 14.0105 4.36374 14.0105 3.60603 13.8806C1.98241 14.9198 2.74012 16.8466 6.11726 16.1754C5.16485 16.143 4.68834 15.6775 4.69934 15.0711C4.67764 14.4109 5.96596 13.5884 7.53548 14.0105C6.04145 11.1854 7.69747 10.0704 7.69747 10.0704C7.69747 10.0704 6.82117 12.4031 8.73699 14.3134C8.90999 14.0322 9.48369 13.2421 11.0966 13.2097C12.7034 13.1773 13.713 13.9665 13.7374 14.8764C13.7591 15.6775 12.7416 16.5217 11.4212 16.5217L11.3995 14.6077C11.3995 14.6077 10.9695 14.7627 10.8475 14.9323C10.8493 15.0204 10.8368 16.5434 10.8368 16.5434C10.3169 16.5434 9.25659 16.327 8.69359 15.4284C8.26048 15.3853 5.84676 15.028 5.84676 15.028L5.97666 15.6665C5.97666 15.6665 6.82117 15.8074 6.98316 16.6516C7.1797 17.6731 7.76257 18.6108 8.28218 18.9899C9.28869 18.8707 10.9557 17.6043 14.0192 17.6474C11.2048 18.0371 8.34728 21.046 4.23384 19.8989C10.7717 22.1289 11.4429 17.1712 19.6258 18.7301C18.3488 17.9506 16.4437 17.7125 16.4437 17.7125C16.4437 17.7125 17.4609 16.6082 17.5043 14.9198C17.6342 14.9116 17.8075 14.8981 18.1324 14.8657C18.2406 14.3244 18.3161 13.7751 18.3161 13.7751C18.3161 13.7751 16.5302 13.7724 15.0313 13.7724C11.3833 10.0814 15.1881 6.60672 15.1881 6.60672ZM6.05246 6.54192C7.08067 6.59572 8.33047 5.95691 8.41208 5.90311C8.41208 5.90311 7.97897 6.99643 8.95308 6.93163C10.0106 6.86102 11.228 6.3188 11.3995 6.23902V4.8315C11.3054 4.90089 10.2747 5.62925 9.10499 5.89242C8.67769 5.98839 8.82349 5.61091 8.86658 5.39451C8.90999 5.17811 8.93902 5.00114 8.17398 5.31871C5.04564 6.61773 4.88334 5.73012 4.88334 5.62161C4.75375 5.77352 4.80846 6.47621 6.05246 6.54192ZM22.634 0.0263672V22.4382C13.6173 18.8878 9.86117 25.7722 0.260071 22.4382V0.0263672H4.82802V2.44559H7.44775L7.44745 0.0263672H10.0238L10.0241 2.4459L12.6215 2.44559V0.0263672H15.2195V2.44559L18.0444 2.4459V0.0263672H22.634Z" fill="#BE2F37"/>
</g>
<path fill-rule="evenodd" clip-rule="evenodd" d="M31.2372 30.5113C31.2372 30.5113 31.1303 30.4581 31.3338 30.2884C31.3589 30.2674 31.398 30.3138 31.5163 30.315C31.6755 30.3172 31.759 30.2622 31.891 30.1032C32.0909 29.8618 31.6743 29.7685 31.5395 29.885C31.3907 30.0115 31.2843 30.1439 31.1575 30.26C31.1575 30.26 30.9435 30.4501 31.2372 30.5113ZM38.9555 41.8329C38.5985 42.1248 37.4945 42.682 37.2182 42.8119C36.9425 42.9421 36.8539 43.0206 36.6503 43.4238C36.4012 43.9165 36.1631 44.8099 36.2279 44.8738C36.9098 44.7662 37.397 44.1925 37.397 44.1925C37.397 44.1925 37.4077 44.0519 37.2564 43.8129C37.1311 43.616 37.3756 43.4024 37.5269 43.5265C37.6422 43.6212 37.8029 43.6405 37.9004 43.5586C37.9976 43.4776 40.1246 42.1251 40.2222 41.9674C39.9502 41.6969 39.6953 41.4097 39.4589 41.1076C39.4589 41.1076 39.3128 41.5404 38.9555 41.8329ZM30.6427 35.9011C29.7334 35.5322 29.5302 35.2867 29.3599 35.2134C29.2083 35.1492 28.5824 35.4151 28.4778 35.6841C28.1966 36.4094 27.5688 37.5944 27.4768 37.7625C27.427 37.8527 27.3738 37.9575 27.3845 38.0767C27.3955 38.1953 27.4307 38.6611 27.42 38.769C27.409 38.8778 27.4252 39.0187 27.4683 39.1266C27.5117 39.2348 27.5691 39.6997 27.8066 40.1658C28.3372 39.6352 28.4149 38.8528 28.3803 39.0074C28.3794 39.0114 28.5484 38.721 28.126 38.5905C28.0059 38.5538 28.0236 38.2409 28.1529 38.2008C28.31 38.1525 28.3913 38.1085 28.4671 37.8279C28.5429 37.5458 28.8284 36.535 28.9216 36.3394C28.936 36.3095 28.9623 36.2587 29.0149 36.2343C29.0975 36.1975 29.1845 36.1716 29.2737 36.1572C29.3135 36.1511 29.3899 36.1942 29.4128 36.2178C29.5571 36.3636 30.3071 36.9721 30.3071 36.9721C30.3071 36.9721 30.6428 36.94 30.8485 36.8535C30.7182 36.6475 30.6645 36.1493 30.6427 35.9011ZM29.7252 31.6251C29.7252 31.6251 29.4085 32.0151 29.7658 32.1126C29.7741 32.2257 29.8187 32.4497 29.8636 32.5671C29.9229 32.7239 30.0256 32.6725 30.1393 32.5426C30.253 32.4127 30.4358 32.1661 30.5697 32.023C30.6913 31.8934 31.1153 31.9399 30.9432 32.2012C30.8295 32.3745 30.7403 32.4213 30.5942 32.4534C30.4786 32.4787 30.4438 32.38 30.3182 32.5512C30.1858 32.7303 30.0443 32.8556 30.2775 32.8556C30.3991 32.8556 30.6305 32.969 30.7849 32.9442C30.9301 32.9216 30.9463 32.8269 30.9622 32.6967C30.9781 32.5616 30.9518 32.483 31.1031 32.3993C31.2975 32.2905 31.5845 32.0313 31.6716 31.9393C31.7706 31.8335 31.8984 31.858 32.0283 31.858C32.1582 31.858 32.7857 31.9338 33.1595 31.3735C33.4226 30.9786 33.4517 30.4403 33.3542 29.9531C33.5327 30.1316 33.7729 30.6931 33.6464 31.2191C33.4214 32.1566 32.9602 32.2088 32.4935 32.3073C32.2988 32.5827 31.8009 33.2918 31.5359 34.5804C31.4222 34.6559 30.4805 35.5652 31.2678 37.0571C31.0649 37.1237 30.4664 37.3798 30.1124 37.459C29.8743 37.514 29.6754 37.5262 29.5794 37.6409C29.4712 37.7705 29.2221 38.1932 29.352 38.4035C29.444 38.5535 30.0339 39.873 30.0825 40.2796C30.1314 40.6848 30.2781 40.7814 30.4233 40.9129C30.5859 41.0587 30.6913 41.0504 30.9188 41.2216C31.1486 41.3933 31.3396 41.7039 31.5521 41.8705C31.7792 42.049 32.0338 42.1303 32.2123 42.1135C32.1689 41.4539 32.028 40.8044 31.8226 40.5883C31.6089 40.3627 31.3409 40.6848 31.2761 40.7017C31.2113 40.7176 31.1205 40.6549 31.0811 40.4739C31.0404 40.2869 31.2113 40.1328 31.0487 39.8895C30.8266 39.5541 30.618 39.21 30.4233 38.858C30.2124 38.4453 30.5706 38.3344 30.6589 38.3555C30.8702 38.4035 32.1365 38.5746 32.3312 38.5908C32.5259 38.6064 32.6338 38.6397 32.7212 38.5413C32.9889 38.2418 33.143 38.0223 33.2973 37.7133C33.5816 37.9251 33.3866 38.331 33.3056 38.8121C33.3866 38.883 35.2214 39.8085 37.7436 39.1373C38.7966 38.8574 38.6768 39.078 38.777 39.2724C39.3886 40.4584 39.8217 40.9168 40.5471 41.497C40.7635 41.6703 40.9148 41.9515 41.0123 42.1135C41.1101 42.2764 41.1345 42.5652 41.0557 42.7529C40.9582 42.9852 40.3948 43.9957 40.298 44.1378C40.114 44.4086 39.8737 44.636 39.6698 44.7439C39.0313 45.085 38.8721 45.3913 38.8018 45.6297H40.4413C40.4413 45.6297 40.4795 45.5441 40.4602 45.3393C40.433 45.0529 40.6929 45.0046 40.7742 44.9878C40.8552 44.9716 41.0016 45.0361 41.1312 44.728C41.3757 44.1479 42.3275 42.5307 42.4088 42.3843C42.4898 42.2382 42.7872 41.8478 42.4953 41.6755C41.943 41.3515 41.619 40.8172 41.5102 40.219C41.4668 39.9812 41.4927 39.5894 42.0298 38.9206C43.1772 37.4923 42.322 34.548 39.768 34.6021C38.3192 34.6327 37.5129 34.5092 36.569 34.3209C36.2239 34.2509 36.1649 34.0657 36.2389 33.8545C36.3147 33.6384 36.3878 33.2083 36.3902 33.0323C36.1414 32.8052 35.7627 32.6646 35.5784 32.5998C35.3803 32.5298 35.2807 32.3718 35.4812 32.3562C35.6814 32.3397 36.4391 32.421 36.4391 32.421C36.4391 32.421 36.466 32.0151 36.3578 31.4197C35.9847 31.2612 35.5913 31.1554 35.189 31.1054C35.075 31.0914 34.975 30.9633 35.2645 30.9221C35.6435 30.868 35.9898 30.9272 36.2609 30.9107C36.2768 30.8787 36.1307 30.1209 35.8627 29.815C35.6762 29.7584 35.5772 29.7325 34.9292 29.6554C34.7018 29.6282 34.6908 29.5631 34.8424 29.5139C35.0188 29.4583 35.3106 29.4011 35.6762 29.4247C35.5356 29.2306 34.5936 27.5122 32.6399 28.0294C32.8587 28.2968 32.9645 28.4212 33.0293 28.6055C33.0876 28.7706 32.9134 28.8228 32.7536 28.6547C32.1365 28.0046 31.8116 28.0208 31.4139 27.9475C31.6737 28.1996 31.7874 28.4518 31.8767 28.7027C31.4304 29.0194 30.7971 29.7743 30.7075 29.9204C30.5376 30.1986 30.7727 30.3483 30.7727 30.3483L29.7252 31.6251ZM42.3489 27.2741C40.352 27.9719 40.6464 30.1246 41.1856 30.9545C41.8892 32.0368 42.4846 32.0585 42.9339 33.33C43.2839 34.3221 42.6576 34.8399 42.0405 35.0673C43.0959 35.7174 44.1837 35.0459 44.5734 34.3964C45.2911 33.44 44.478 32.1978 45.2446 31.5496C45.4497 31.3763 45.7966 31.2574 46.2624 31.2357C45.7963 30.5754 44.7036 30.6512 44.265 31.2684C43.9566 30.5537 43.0904 29.929 43.4046 28.8219C43.6103 28.0966 44.7574 27.8261 45.1902 28.4215C45.4271 28.747 45.461 29.3846 44.7684 29.7095C45.2012 29.6771 46.0237 28.9301 45.461 27.9129C45.0658 27.198 44.4004 27.1436 43.8594 27.1436C42.874 27.1436 41.24 28.2702 42.2844 30.6998C41.6835 30.1643 40.7094 28.2968 42.3489 27.2741ZM47.3313 24.7442V47.183C34.9271 50.2031 34.5691 43.6108 24.9576 47.183C24.9586 47.4743 24.9534 24.7421 24.9576 24.7442C33.79 21.0422 37.2326 28.0563 47.3313 24.7442Z" fill="#BE2F37"/>
<mask id="mask3_137_1318" style="mask-type:luminance" maskUnits="userSpaceOnUse" x="0" y="23" width="23" height="26">
<path d="M0.278076 23.6338V48.0009H22.6352V23.6338H0.278076Z" fill="white"/>
</mask>
<g mask="url(#mask3_137_1318)">
<path fill-rule="evenodd" clip-rule="evenodd" d="M8.39924 37.5457C8.39924 37.5457 8.00679 37.8018 8.49858 38.8808C8.98976 39.9585 9.60015 40.9623 8.53801 42.1466C9.14014 42.154 10.4544 41.3599 9.04814 38.9929C8.72476 38.448 8.37571 38.0705 8.39924 37.5457ZM7.06875 38.054C7.39396 38.0317 7.43522 37.6337 7.37623 37.4243C7.30685 37.1768 6.89422 37.1462 6.79488 37.461C6.69646 37.7728 6.78235 38.0754 6.78235 38.0754C6.86396 38.3755 7.20201 38.4614 7.23105 38.4312C7.04338 38.2627 7.09412 38.1662 7.06875 38.054ZM7.38143 39.4866C7.30288 40.4393 6.75637 40.5796 6.75637 40.5796C5.80274 40.1416 5.29108 41.3419 6.09158 41.6952C7.10573 42.1436 7.72651 40.8327 7.78672 40.5903C7.95758 39.9032 7.97378 39.4172 7.89675 38.3016C7.83196 37.3507 8.0667 37.2067 8.22319 37.181C8.37907 37.1542 8.70551 37.1413 9.03102 38.1325C9.35715 39.1228 10.0602 39.2662 10.0602 39.2662C10.0602 39.2662 9.04203 37.6096 10.4581 36.0801C11.1165 35.3691 12.4592 34.9651 12.2107 33.9693C12.2107 33.9693 12.0029 34.3263 11.5988 34.4308C11.1947 34.5347 10.4126 34.6524 10.4126 34.6524C10.4126 34.6524 12.2899 33.7657 12.6285 32.7494C12.6285 32.7494 13.2151 33.7269 12.4329 35.1604C12.4329 35.1604 13.1778 34.8942 13.9792 35.2558C16.0219 36.1614 15.8052 39.0703 13.2203 39.7647C9.54177 40.7517 10.8775 43.5973 12.984 43.7718C12.7578 43.6281 12.7068 42.7705 13.0766 42.2607C13.2615 42.0965 13.5916 41.7646 13.801 42.4624C14.1708 43.6954 15.2504 43.7956 15.7511 43.6416C15.6196 43.5303 15.3736 43.1556 15.4041 42.9395C15.4659 42.5079 16.0051 42.9563 16.201 43.0116C17.6498 43.423 18.42 43.0636 18.5025 42.8466C18.1791 42.78 18.2357 42.8169 18.03 42.7653C17.8387 42.7164 17.4667 42.4523 18.1639 42.2924C19.4433 41.999 20.1472 40.6786 19.3046 39.662C18.5001 38.69 17.4859 38.8389 17.1567 38.9725C18.5441 39.2714 18.6138 40.3876 17.9068 40.9561C17.2903 41.4189 15.759 41.6035 15.2348 40.5759C14.9035 40.8155 14.7877 41.1982 14.8445 41.6756C14.7054 41.6237 14.1247 40.7975 14.9879 40.1138C18.9907 37.5332 18.3448 33.1966 14.957 31.4119L14.9151 31.3936C11.8418 29.6281 9.15298 31.2395 9.15298 31.2395C11.0532 29.3362 14.3368 30.4683 14.8094 30.7046C14.8094 30.7046 14.4316 30.376 14.2304 30.0744C13.97 29.684 13.9798 29.3108 13.9798 29.3108C12.6765 30.0383 12.34 28.9205 12.34 28.9205C12.34 28.9205 11.2112 29.938 10.4786 29.1106C9.83794 28.3863 10.875 27.4042 10.875 27.4042C4.26257 29.5743 5.51574 33.3085 5.51574 33.3085C5.51574 33.3085 4.55813 34.1878 4.34387 36.3078C4.10027 38.7154 5.29964 40.4274 6.79825 39.957C7.14149 39.8497 7.31174 39.6859 7.37807 39.5052L7.38143 39.4866ZM22.6343 24.7447C22.638 24.7426 22.6328 47.4748 22.6343 47.1835C13.0216 43.6116 12.6646 50.2033 0.260071 47.1835V24.7447C10.3588 28.0568 13.8013 21.0427 22.6343 24.7447Z" fill="#BE2F37"/>
</g>
</svg>
