<svg width="137" height="48" viewBox="0 0 137 48" fill="none" xmlns="http://www.w3.org/2000/svg">
<path fill-rule="evenodd" clip-rule="evenodd" d="M40.2673 9.73247C39.7133 9.73247 39.103 9.78718 38.5489 9.78718C37.551 9.78718 36.5531 9.73247 35.6107 9.73247V10.4514C36.4976 10.4514 37.1071 10.5624 37.4955 10.9492C37.8831 11.2813 38.0496 11.8893 38.0496 12.8849C38.0496 16.8665 37.8276 20.7372 37.7167 24.7188C37.6057 28.5339 36.4414 29.0325 34.4456 29.0325V29.8061C35.6654 29.7507 36.8852 29.7507 38.1043 29.7507C39.2132 29.7507 40.3775 29.8061 41.4856 29.8061V29.0325C40.4322 29.0325 39.7117 28.977 39.2686 28.5347C38.8255 28.1479 38.7146 27.3726 38.7146 25.9355V24.1655L38.9365 13.7148H38.992C41.5973 19.1891 44.2582 24.5539 46.5861 30.0273H47.1409C47.3628 29.3076 47.8614 27.8704 48.1943 27.207L54.6248 13.1061H54.6803L54.9022 26.8201C54.9022 27.9267 54.6803 28.4784 54.1809 28.7558C53.7379 29.0325 53.0166 29.0325 52.0749 29.0325V29.8061C53.4057 29.7507 54.7358 29.7507 56.0666 29.7507C57.563 29.7507 59.0603 29.8061 60.6122 29.8061V29.0325C57.8404 29.0325 57.674 28.4245 57.6185 26.2676C57.5075 21.8984 57.2309 17.0869 57.2309 12.5528C57.2309 11.5572 57.3974 11.1149 57.7857 10.7836C58.1179 10.5069 58.7829 10.4514 59.6698 10.4514V9.73247C58.8938 9.73247 58.0624 9.78718 57.2864 9.78718C56.5659 9.78718 55.7899 9.73247 55.0132 9.73247C52.7407 15.152 50.0799 20.4605 47.641 25.8246L40.2673 9.73247ZM72.9184 8.90333H72.4191C72.0323 9.5668 71.4212 9.89892 70.8671 10.1748C70.9226 10.3967 70.9226 10.6179 70.9226 10.9492C70.9226 11.7791 70.5342 12.8294 70.3131 13.4929L66.82 23.7779C66.4871 24.8282 66.155 25.9347 65.7119 26.985C65.0469 28.5894 64.714 28.866 63.0511 29.0317V29.8054C64.1592 29.7499 65.2681 29.7499 66.377 29.7499C67.4303 29.7499 68.5392 29.8054 69.5926 29.8054V29.0317H68.9823C67.9844 28.9762 67.0975 29.0317 67.0975 27.704C67.0975 26.8194 67.4851 25.4917 67.8179 24.2757L68.4282 22.229H74.8588L76.245 26.4325C76.4107 26.985 76.6334 27.7603 76.6334 28.0908C76.6334 28.92 75.8567 29.0317 75.1362 29.0317H74.6384V29.8054C76.0247 29.7499 77.2992 29.7499 78.63 29.7499C79.6834 29.7499 80.7915 29.8054 81.7894 29.8054V29.0317C80.9032 29.0317 80.1265 28.866 79.6841 28.2565C79.2403 27.6485 78.519 25.1603 78.1306 24.0545L72.9184 8.90333ZM71.4767 12.6083H71.5322L74.4696 21.0685H68.8158L71.4767 12.6083ZM86.7774 26.985C86.7774 28.9762 85.724 29.0317 84.2838 29.0317V29.8054C85.67 29.7499 86.9446 29.7499 88.2191 29.7499C89.4382 29.7499 90.6033 29.8054 91.9333 29.8054V29.0317C90.4916 29.0317 89.4382 28.9762 89.4382 26.985V12.5528C89.4382 10.5069 90.4916 10.5069 91.9333 10.4514V9.73247C90.547 9.73247 89.328 9.78718 88.0519 9.78718C86.8328 9.78718 85.5583 9.73247 84.283 9.73247V10.4514C85.7232 10.5069 86.7766 10.5069 86.7766 12.5528L86.7774 26.985ZM113.663 13.4374C113.663 10.6171 114.551 10.4514 116.213 10.4514V9.73247C115.161 9.73247 114.108 9.78718 113.053 9.78718C111.779 9.78718 110.504 9.73247 109.229 9.73247V10.4514C112 10.5069 112.555 11.2813 112.555 13.9352V25.3822C110.274 22.8427 108.02 20.2801 105.791 17.6949C102.687 14.1001 100.137 11.4462 98.9734 9.73247C98.2521 9.73247 97.4761 9.78718 96.7549 9.78718C95.9242 9.78718 95.0919 9.73247 94.2613 9.73247V10.4514C96.5892 10.4514 97.5871 11.3361 97.5871 13.825V25.383C97.5871 29.0325 96.3665 29.0325 94.6481 29.0325V29.8061C95.8687 29.7507 97.0877 29.7507 98.3068 29.7507C99.5274 29.7507 100.746 29.8061 101.966 29.8061V29.0325C98.9734 29.0325 98.6952 28.2573 98.6952 24.2764V13.5476L112.998 30.0265H113.663V13.4374ZM124.086 10.6171H127.301C130.017 10.6171 131.236 11.4463 131.681 14.1556L132.234 13.9899V9.73247C129.573 9.78718 126.968 9.78718 124.307 9.78718C122.478 9.78718 120.648 9.78718 118.82 9.73247V10.4514C120.981 10.5624 121.425 10.6726 121.425 12.9951V25.7691C121.425 28.5894 121.202 29.0317 118.82 29.0317V29.8054C120.816 29.7499 122.867 29.7499 124.861 29.7499C127.634 29.7499 130.35 29.8054 133.066 29.8054C133.343 28.312 133.788 26.8194 134.23 25.3822L133.565 25.2705C132.513 28.3682 131.292 28.6988 128.575 28.866H126.912C124.198 28.866 124.086 28.0354 124.086 24.8837V19.962H127.023C129.13 19.962 130.017 19.962 130.017 22.7268H130.515C130.57 21.8422 130.461 20.4598 130.461 19.5751C130.461 18.5248 130.515 16.976 130.515 16.3125H130.017C129.905 16.976 129.905 18.8007 127.689 18.8007H124.086V10.6171ZM37.3291 4.81076C37.3291 5.52972 37.3291 5.58443 36.9407 5.63991H36.6078C36.5523 5.69539 36.5523 5.86107 36.6078 5.91655H39.1584C39.2139 5.86107 39.2139 5.69539 39.1584 5.63991H38.881C38.4934 5.58443 38.4934 5.52894 38.4934 4.81076V1.32696C38.4934 1.16129 38.4934 1.10503 38.6599 1.10503H39.1584C39.7125 1.10503 39.8235 1.49264 39.9899 1.98966C39.9899 2.04514 40.2118 2.04515 40.2665 1.93495C40.2665 1.49264 40.322 0.883878 40.3775 0.607239C40.3775 0.607239 40.322 0.551758 40.2665 0.551758C40.2111 0.551758 40.2111 0.551757 40.1556 0.607239C40.1001 0.772914 39.9891 0.772911 39.4343 0.772911H36.5516C35.9413 0.772911 35.9413 0.717432 35.8865 0.607239C35.8865 0.551757 35.8311 0.551758 35.7756 0.551758C35.7201 0.551758 35.7201 0.551757 35.6646 0.607239C35.6091 0.883878 35.5537 1.38167 35.4427 1.93495C35.4427 2.04515 35.6091 2.04514 35.7201 1.98966C35.942 1.43638 36.1077 1.10503 36.6625 1.10503H37.1611C37.3275 1.10503 37.3275 1.16052 37.3275 1.32696V4.81076H37.3291ZM45.6999 3.42834C46.0328 3.42834 46.0328 3.42834 46.0328 3.6495V4.81076C46.0328 5.52972 45.9773 5.58443 45.6444 5.63991H45.4788C45.4536 5.6532 45.4325 5.67311 45.4178 5.69748C45.4031 5.72185 45.3954 5.74977 45.3954 5.77823C45.3954 5.80669 45.4031 5.83461 45.4178 5.85898C45.4325 5.88336 45.4536 5.90326 45.4788 5.91655H47.7512C47.8067 5.86107 47.8067 5.69539 47.7512 5.63991H47.5293C47.1964 5.58443 47.1417 5.52894 47.1417 4.81076V1.87947C47.1417 1.16052 47.1964 1.10503 47.5293 1.05032L47.6957 0.99484C47.7512 0.939358 47.7512 0.773682 47.6957 0.7182C47.3636 0.773682 46.9752 0.773681 46.5876 0.773681C46.2547 0.773681 45.8671 0.773682 45.4233 0.7182C45.3678 0.773682 45.3678 0.939358 45.4233 0.99484L45.6452 1.05032C45.9781 1.10503 46.0336 1.16129 46.0336 1.87947V2.7641C46.0336 2.98525 46.0336 3.04074 45.7007 3.04074H44.0932C43.7604 3.04074 43.7604 2.98525 43.7604 2.7641V1.87947C43.7604 1.16052 43.8158 1.10503 44.1487 1.05032L44.3144 0.99484C44.3699 0.939358 44.3699 0.773682 44.3144 0.7182C43.9268 0.773682 43.5384 0.773681 43.2063 0.773681C42.8187 0.773681 42.4303 0.773682 42.042 0.7182C41.9865 0.773682 41.9865 0.939358 42.042 0.99484L42.2084 1.05032C42.596 1.10503 42.596 1.16129 42.596 1.87947V4.81076C42.596 5.52972 42.596 5.58443 42.2084 5.63991H42.042C41.9865 5.69539 41.9865 5.86107 42.042 5.91655H44.3699C44.3951 5.90326 44.4161 5.88336 44.4308 5.85898C44.4455 5.83461 44.4533 5.80669 44.4533 5.77823C44.4533 5.74977 44.4455 5.72185 44.4308 5.69748C44.4161 5.67311 44.3951 5.6532 44.3699 5.63991H44.1487C43.8158 5.58443 43.7604 5.52894 43.7604 4.81076V3.6495C43.7604 3.42834 43.7604 3.42834 44.0932 3.42834H45.6999ZM51.4099 1.43715C51.4099 1.10503 51.4099 1.10503 51.6319 1.10503H52.2976C52.6298 1.10503 52.9072 1.216 53.0181 1.38167C53.1299 1.49264 53.2401 1.71379 53.351 1.98966C53.4065 2.04514 53.573 2.04515 53.6284 1.93495C53.573 1.43716 53.5167 0.883876 53.5167 0.7182C53.4057 0.773682 52.9627 0.773681 52.4633 0.773681H50.8004C50.4683 0.773681 50.0799 0.773682 49.6923 0.7182C49.6368 0.773682 49.5813 0.939358 49.6923 0.99484L49.858 1.05032C50.2464 1.10503 50.2463 1.16129 50.2463 1.87947V4.81076C50.2463 5.47423 50.2464 5.52972 49.858 5.58443L49.5251 5.63991C49.4999 5.6532 49.4789 5.67311 49.4642 5.69748C49.4495 5.72185 49.4417 5.74977 49.4417 5.77823C49.4417 5.80669 49.4495 5.83461 49.4642 5.85898C49.4789 5.88336 49.4999 5.90326 49.5251 5.91655H53.6832C53.7941 5.69539 53.9606 5.08663 54.016 4.6998C53.9606 4.58884 53.7941 4.53413 53.7394 4.64432C53.2955 5.52895 53.0181 5.52895 52.3539 5.52895C51.7436 5.52895 51.6326 5.47346 51.5224 5.36327C51.4115 5.19683 51.4115 4.97567 51.4115 4.58884V3.64873C51.4115 3.42757 51.4115 3.42757 51.6334 3.42757H52.132C52.5758 3.42757 52.6305 3.48228 52.7423 3.86989V4.09104C52.7978 4.14652 53.0189 4.14652 53.0752 4.03556C53.0197 3.8144 53.0197 3.53776 53.0197 3.20641C53.0197 2.92978 53.0197 2.65313 53.0752 2.37649C53.0197 2.32101 52.7985 2.32101 52.7423 2.37649V2.59765C52.6313 2.98449 52.5758 3.03997 52.132 3.03997H51.6311C51.4092 3.03997 51.4092 2.98448 51.4092 2.76333L51.4099 1.43715ZM59.5588 3.81517C59.5588 4.6998 59.7253 5.25308 60.1129 5.58443C60.5567 5.91655 61.0553 6.02674 61.6648 6.02674C62.2751 6.02674 62.8847 5.86107 63.2176 5.47423C63.6606 4.97644 63.7161 4.31297 63.7161 3.59402V2.70939C63.7161 2.10063 63.7716 1.49264 63.8271 1.27148C63.8826 1.10503 64.049 1.05032 64.271 1.05032L64.3819 0.99484C64.4374 0.939358 64.4374 0.773682 64.3819 0.7182C64.1045 0.773682 63.8271 0.773681 63.495 0.773681C63.2183 0.773681 62.8854 0.773682 62.4971 0.7182C62.4416 0.773682 62.3861 0.939358 62.4971 0.99484L62.6635 1.05032C62.8854 1.05032 63.0519 1.10503 63.1621 1.27148C63.2176 1.49264 63.2731 2.10063 63.2731 2.70939V3.6495C63.2731 4.75528 62.9402 5.58443 61.9423 5.58443C60.7779 5.58443 60.6669 4.58884 60.6669 3.70421V1.87947C60.6669 1.16052 60.7224 1.10503 61.0553 1.05032L61.2218 0.99484C61.2469 0.981549 61.268 0.961646 61.2827 0.937272C61.2974 0.912899 61.3051 0.884976 61.3051 0.856517C61.3051 0.828059 61.2974 0.800142 61.2827 0.775768C61.268 0.751395 61.2469 0.731492 61.2218 0.7182C60.8889 0.773682 60.5005 0.773681 60.1129 0.773681C59.7253 0.773681 59.3369 0.773682 58.9485 0.7182C58.8931 0.773682 58.8931 0.939358 58.9485 0.99484L59.115 1.05032C59.5026 1.10503 59.5588 1.16129 59.5588 1.87947V3.81517ZM70.9234 2.70939C70.9234 2.10063 70.9234 1.49264 71.0351 1.27148C71.0891 1.10503 71.2563 1.05032 71.4774 1.05032L71.5892 0.99484C71.6447 0.939358 71.6447 0.773682 71.5892 0.7182C71.3125 0.773682 71.0351 0.773681 70.703 0.773681C70.4264 0.773681 70.0919 0.773682 69.6496 0.7182C69.6496 0.773682 69.5941 0.939358 69.6496 0.99484L69.8708 1.05032C70.0919 1.05032 70.2592 1.10503 70.3146 1.27148C70.4264 1.49264 70.4803 2.10063 70.4803 2.70939V3.81517C70.4803 3.92613 70.4803 4.09181 70.4264 4.14729C70.2591 3.98161 70.038 3.70498 69.6496 3.26267L69.0393 2.489C68.3181 1.65908 67.8195 1.10657 67.7085 0.719741C67.5421 0.775223 67.3201 0.775222 67.0435 0.775222C66.7661 0.775222 66.3777 0.775223 65.9901 0.719741C65.9346 0.775223 65.8792 0.940899 65.9346 0.996381L66.1566 1.05186C66.434 1.10657 66.5449 1.16283 66.6004 1.3285C66.6559 1.43869 66.6559 1.54966 66.6559 1.99197V3.92614C66.6559 4.58961 66.6559 5.14288 66.5449 5.36404C66.4895 5.52972 66.323 5.5852 66.1566 5.63991H65.9901C65.9346 5.69539 65.9346 5.86107 65.9901 5.91655H67.9297C67.9852 5.86107 67.9852 5.69539 67.9297 5.63991H67.7085C67.4866 5.58443 67.3201 5.52895 67.2647 5.36404C67.1537 5.14288 67.1537 4.58961 67.1537 3.92614V2.43275V1.93495C67.3201 2.04515 67.5976 2.37727 68.0406 2.92977L69.8138 5.14211C70.2021 5.63991 70.4788 6.02597 70.4788 6.02597C70.646 6.02597 70.8671 5.91578 70.9226 5.8603L70.9234 2.70939ZM75.026 1.88024C75.026 1.16129 75.0799 1.1058 75.4143 1.05109L75.6355 0.995611C75.691 0.940129 75.691 0.774452 75.6355 0.718971C75.1917 0.774452 74.8033 0.774451 74.4704 0.774451C74.0835 0.774451 73.6952 0.774452 73.2513 0.718971C73.1958 0.774452 73.1958 0.940129 73.2513 0.995611L73.4725 1.05109C73.8609 1.1058 73.9163 1.16206 73.9163 1.88024V4.75605C73.9163 5.475 73.8609 5.52972 73.4725 5.64068H73.2513C73.1958 5.69616 73.1958 5.86184 73.2513 5.91732H75.6355C75.691 5.86184 75.691 5.69616 75.6355 5.64068H75.4143C75.0799 5.52972 75.026 5.475 75.026 4.75605V1.88024ZM81.3455 2.59919C81.6222 1.99043 81.8433 1.54812 82.0105 1.32773C82.1207 1.16206 82.2317 1.1058 82.3974 1.05109L82.6201 0.995611C82.6755 0.940129 82.6755 0.774452 82.6201 0.718971C82.3974 0.774452 82.1762 0.774451 81.8988 0.774451C81.5659 0.774451 81.2893 0.774452 80.9009 0.718971C80.8454 0.774452 80.8454 0.940129 80.9009 0.995611L81.122 1.05109C81.2893 1.1058 81.3447 1.10581 81.3447 1.16206C81.3447 1.21754 81.2893 1.32773 81.233 1.49418C81.1775 1.71534 80.8446 2.59996 80.6235 3.09776L80.3468 3.81672C80.2351 4.09335 80.1796 4.25902 80.0687 4.42547C80.0025 4.21988 79.9287 4.01683 79.8475 3.81672L79.1825 2.04745C78.9613 1.60514 78.8496 1.27379 78.8496 1.21831C78.8496 1.10735 78.9051 1.05263 79.0723 1.05263L79.2935 0.997151C79.3489 0.941669 79.3489 0.775993 79.2935 0.720511C78.7941 0.775993 78.4612 0.775992 78.0729 0.775992C77.686 0.775992 77.4078 0.720511 77.021 0.720511C76.9655 0.775993 76.9655 0.941669 77.021 0.997151L77.2422 1.05263C77.5751 1.1636 77.5751 1.10735 77.9072 1.88178L79.1817 5.08894C79.2935 5.36558 79.4029 5.75242 79.5146 5.97357C79.5701 6.02828 79.6264 6.02828 79.7358 6.02828C79.8475 6.02828 79.903 6.02828 79.9585 5.97357C80.1796 5.53126 80.3468 4.92327 80.7892 3.98316L81.3455 2.59919ZM85.5583 1.43715C85.5583 1.10503 85.5583 1.10503 85.8349 1.10503H86.4445C86.8328 1.10503 87.1095 1.216 87.2212 1.38167C87.3329 1.49264 87.4424 1.71379 87.5541 1.98966C87.6096 2.04514 87.7753 2.04515 87.8307 1.93495C87.7753 1.43716 87.719 0.883876 87.719 0.7182C87.6088 0.773682 87.165 0.773681 86.6672 0.773681H85.0042C84.6159 0.773681 84.283 0.773682 83.8954 0.7182C83.8702 0.731492 83.8492 0.751395 83.8345 0.775768C83.8198 0.800142 83.812 0.828059 83.812 0.856517C83.812 0.884976 83.8198 0.912899 83.8345 0.937272C83.8492 0.961646 83.8702 0.981549 83.8954 0.99484L84.0611 1.05032C84.3939 1.10503 84.4494 1.16129 84.4494 1.87947V4.81076C84.4494 5.47423 84.3939 5.52972 84.0611 5.58443L83.6742 5.63991C83.6187 5.69539 83.6187 5.86107 83.6742 5.91655H87.887C87.9987 5.69539 88.1636 5.08663 88.2199 4.6998C88.1644 4.58884 87.9987 4.53413 87.887 4.64432C87.4986 5.52895 87.222 5.52895 86.5562 5.52895C85.9467 5.52895 85.8349 5.47346 85.724 5.36327C85.6138 5.19683 85.5583 4.97567 85.5583 4.58884V3.64873C85.5583 3.42757 85.6138 3.42757 85.7794 3.42757H86.335C86.7774 3.42757 86.8328 3.48228 86.9446 3.86989V4.09104C87.0001 4.14652 87.2212 4.14652 87.2775 4.03556C87.222 3.8144 87.222 3.53776 87.222 3.20641C87.222 2.92978 87.222 2.65313 87.2775 2.37649C87.222 2.32101 87.0008 2.32101 86.9446 2.37649V2.59765C86.8328 2.98449 86.7774 3.03997 86.335 3.03997H85.7794C85.6138 3.03997 85.5583 2.98448 85.5583 2.76333V1.43715ZM90.4361 4.81076C90.4361 5.47423 90.3806 5.52972 90.0477 5.63991H89.8266C89.7711 5.69539 89.7711 5.86107 89.8266 5.91655H92.0998C92.1553 5.86107 92.1553 5.69539 92.0998 5.63991H91.8786C91.5457 5.52895 91.4902 5.47423 91.4902 4.81076V3.81517C91.4902 3.64949 91.5457 3.6495 91.8231 3.6495C91.9903 3.6495 92.0998 3.70421 92.2115 3.92537C92.3772 4.3122 92.5444 4.6998 92.821 5.14211C93.1539 5.69462 93.5978 5.97126 94.3183 5.97126C94.5949 5.97126 94.8161 5.91578 94.9817 5.8603C94.9817 5.8603 94.9818 5.69462 94.9278 5.69462C94.8161 5.69462 94.5949 5.63914 94.4285 5.47346C94.0401 5.14211 93.7072 4.53336 93.2094 3.53777C93.1539 3.42757 93.1539 3.37209 93.2094 3.31661C93.5978 3.15016 94.0401 2.87429 94.0401 2.15534C94.0401 1.65754 93.8189 1.27071 93.3751 0.99407C93.0984 0.828395 92.4889 0.71743 91.8231 0.71743C91.1019 0.71743 90.4923 0.77291 89.8828 0.828392C89.8273 0.828392 89.8273 1.04955 89.8828 1.04955L90.104 1.10426C90.4369 1.15974 90.4369 1.21523 90.4369 2.04437L90.4361 4.81076ZM91.4895 1.4934C91.5449 1.1058 91.5449 1.1058 91.8224 1.1058C92.4319 1.1058 92.8757 1.54812 92.8757 2.26784C92.8757 2.71016 92.7085 2.93054 92.5991 3.09699C92.4319 3.26266 92.2662 3.31815 91.9896 3.31815C91.5457 3.31815 91.4902 3.26266 91.4902 2.98603L91.4895 1.4934ZM99.8048 4.42393C99.8048 3.59401 99.1953 3.1517 98.696 2.87583L98.1982 2.59919C97.8098 2.37804 97.4769 2.1014 97.4769 1.71456C97.4769 1.32773 97.7535 0.995611 98.2536 0.995611C98.8077 0.995611 99.1961 1.54812 99.307 1.93572C99.361 2.04592 99.5837 2.04592 99.5837 1.93572C99.5837 1.43793 99.5282 0.995608 99.4719 0.829162C99.3602 0.829162 99.3063 0.773681 99.1953 0.773681C98.8624 0.662717 98.5858 0.608009 98.3076 0.608009C97.1995 0.608009 96.479 1.21677 96.479 2.10139C96.479 2.87583 97.0885 3.37286 97.6981 3.65027C98.1419 3.87142 98.7514 4.25826 98.7514 4.86625C98.7514 5.25308 98.4748 5.69616 97.9207 5.69616C97.2557 5.69616 96.7001 4.97721 96.5345 4.4247C96.479 4.36922 96.3118 4.36922 96.2578 4.48019C96.2578 4.97798 96.368 5.58597 96.479 5.75164C96.6462 5.80713 97.0885 6.02751 97.8098 6.02751C99.0281 6.02674 99.8048 5.41875 99.8048 4.42393ZM103.353 1.88024C103.353 1.16129 103.408 1.1058 103.796 1.05109L103.964 0.995611C104.074 0.940129 104.074 0.774452 103.964 0.718971C103.575 0.774452 103.187 0.774451 102.799 0.774451C102.41 0.774451 102.022 0.774452 101.635 0.718971C101.579 0.774452 101.579 0.940129 101.635 0.995611L101.856 1.05109C102.189 1.1058 102.244 1.16206 102.244 1.88024V4.75605C102.244 5.475 102.189 5.52972 101.856 5.64068H101.635C101.579 5.69616 101.579 5.86184 101.635 5.91732H103.964C104.018 5.86184 104.074 5.69616 103.964 5.64068H103.796C103.408 5.52972 103.353 5.475 103.353 4.75605V1.88024ZM107.566 4.81076C107.566 5.52972 107.511 5.58443 107.178 5.63991H106.789C106.734 5.69539 106.734 5.86107 106.789 5.91655H109.395C109.45 5.86107 109.45 5.69539 109.395 5.63991H109.062C108.729 5.58443 108.673 5.52894 108.673 4.81076V1.32696C108.673 1.16129 108.729 1.10503 108.896 1.10503H109.338C109.948 1.10503 110.06 1.49264 110.171 1.98966C110.226 2.04514 110.447 2.04515 110.504 1.93495C110.448 1.49264 110.504 0.883878 110.614 0.607239C110.56 0.607239 110.504 0.551758 110.504 0.551758C110.448 0.551758 110.392 0.551757 110.392 0.607239C110.336 0.772914 110.171 0.772911 109.671 0.772911H106.789C106.179 0.772911 106.124 0.717432 106.124 0.607239C106.068 0.551757 106.012 0.551758 106.012 0.551758C105.956 0.551758 105.902 0.551757 105.902 0.607239C105.846 0.883878 105.79 1.38167 105.623 1.93495C105.679 2.04515 105.846 2.04514 105.902 1.98966C106.178 1.43638 106.344 1.10503 106.9 1.10503H107.397C107.565 1.10503 107.565 1.16052 107.565 1.32696V4.81076H107.566ZM114.938 4.25826C114.938 3.81594 115.05 3.59479 115.216 3.20795L115.714 2.32332C116.103 1.65985 116.324 1.38322 116.436 1.21754C116.491 1.10658 116.657 1.05186 116.824 1.05186L116.99 0.996381C117.045 0.940899 117.045 0.775223 116.99 0.719741C116.768 0.775223 116.492 0.775222 116.213 0.775222C115.936 0.775222 115.659 0.775223 115.327 0.719741C115.271 0.775223 115.271 0.940899 115.327 0.996381L115.494 1.05186C115.66 1.05186 115.771 1.10658 115.771 1.16283C115.771 1.21831 115.659 1.49495 115.382 2.04745C115.161 2.43429 114.938 2.87737 114.717 3.26421C114.605 3.09853 114.441 2.76641 114.329 2.54525L113.996 1.66062C113.83 1.32927 113.775 1.21831 113.775 1.16283C113.775 1.10735 113.83 1.10734 113.94 1.05186L114.219 0.996381C114.273 0.940899 114.273 0.775223 114.219 0.719741C113.94 0.775223 113.554 0.775222 113.053 0.775222C112.61 0.775222 112.332 0.775223 111.945 0.719741C111.891 0.775223 111.834 0.940899 111.945 0.996381L112.223 1.05186C112.444 1.10657 112.556 1.21754 112.721 1.54966L113.607 3.48536C113.829 3.8722 113.829 3.98316 113.829 4.36999V4.81231C113.829 5.53126 113.774 5.58597 113.441 5.64145H113.164C113.109 5.69693 113.109 5.86261 113.164 5.91809H115.658C115.714 5.86261 115.714 5.69693 115.658 5.64145H115.381C114.993 5.58597 114.938 5.53049 114.938 4.81231L114.938 4.25826ZM124.363 0.608009C122.7 0.608009 121.59 1.82476 121.59 3.37286C121.59 4.97644 122.699 6.02674 124.306 6.02674C125.969 6.02674 127.134 5.03192 127.134 3.31738C127.135 1.71456 125.97 0.608009 124.363 0.608009ZM125.859 3.42834C125.859 4.6998 125.472 5.69539 124.419 5.69539C123.144 5.69539 122.811 4.14729 122.811 3.20718C122.811 1.87947 123.309 0.99484 124.307 0.99484C125.249 0.995611 125.859 2.10139 125.859 3.42834ZM130.794 1.43715C130.794 1.10503 130.794 1.10503 131.015 1.10503H131.624C132.013 1.10503 132.289 1.216 132.401 1.38167C132.513 1.49264 132.567 1.65754 132.622 1.98966C132.734 2.04514 132.899 2.04515 132.955 1.93495C132.9 1.43716 132.9 0.883876 132.9 0.7182C132.79 0.773682 132.346 0.773681 131.846 0.773681H130.239C129.851 0.773681 129.464 0.773682 129.131 0.7182C129.019 0.773682 129.019 0.939358 129.075 0.99484L129.241 1.05032C129.629 1.10503 129.629 1.16129 129.629 1.87947V4.81076C129.629 5.52972 129.629 5.58443 129.241 5.63991H129.02C128.995 5.6532 128.974 5.67311 128.959 5.69748C128.944 5.72185 128.937 5.74977 128.937 5.77823C128.937 5.80669 128.944 5.83461 128.959 5.85898C128.974 5.88336 128.995 5.90326 129.02 5.91655H131.46C131.514 5.86107 131.514 5.69539 131.46 5.63991H131.181C130.795 5.58443 130.795 5.52894 130.795 4.81076V3.70421C130.795 3.53853 130.795 3.48305 131.016 3.48305H131.57C132.014 3.48305 132.069 3.53853 132.179 3.92537L132.234 4.14729C132.289 4.20277 132.457 4.20277 132.512 4.09181V3.31815V2.48823C132.457 2.37726 132.289 2.37726 132.234 2.43275L132.179 2.6539C132.068 3.04074 132.013 3.09622 131.569 3.09622H131.015C130.794 3.09622 130.794 3.04074 130.794 2.87506V1.43715Z" fill="black"/>
<path fill-rule="evenodd" clip-rule="evenodd" d="M0.908569 30.856C0.908569 30.856 10.4438 34.0076 15.1551 39.3732C15.2661 39.4834 15.1551 30.856 15.1551 30.856H0.908569ZM29.5688 30.856C29.5688 30.856 19.9782 34.0076 15.2661 39.3732C15.2106 39.4834 15.2661 30.856 15.2661 30.856H29.5688Z" fill="black" stroke="#003562" stroke-width="2.14001" stroke-miterlimit="2.613"/>
<path fill-rule="evenodd" clip-rule="evenodd" d="M0.908569 7.57568H29.5688V29.6405H0.908569V7.57568Z" fill="black"/>
<path fill-rule="evenodd" clip-rule="evenodd" d="M20.8641 29.0317V15.3731C21.9729 15.3731 26.0747 12.6082 27.461 8.73682V21.8421C27.461 23.0596 26.8515 23.6121 26.0755 24.607C24.4673 26.5981 23.1365 27.4836 20.8641 29.0317ZM3.01428 29.0317V15.3731C4.06767 15.3731 8.22496 12.6082 9.55576 8.73682V21.8421C9.55576 23.0596 8.94623 23.6121 8.17025 24.607C6.56204 26.5981 5.23125 27.4836 3.01428 29.0317Z" fill="white"/>
<path fill-rule="evenodd" clip-rule="evenodd" d="M10.444 33.7882V16.0925C11.9959 16.0925 18.0381 12.4422 19.9784 7.46582V24.498C19.9784 26.0469 19.1469 26.7643 17.9833 28.0365C15.6546 30.6357 13.7143 31.797 10.444 33.7882Z" fill="white" stroke="white" stroke-width="2.43832" stroke-miterlimit="2.613"/>
<path fill-rule="evenodd" clip-rule="evenodd" d="M0.852661 0H29.4575V6.46981H0.852661V0Z" fill="black"/>
<path fill-rule="evenodd" clip-rule="evenodd" d="M5.17571 5.52966C4.45522 5.52966 4.39974 5.36398 4.39974 4.86619V0.829878H4.28877L2.51489 1.60431V1.76998C2.73605 1.65902 2.95798 1.60431 3.06894 1.60431C3.34635 1.60431 3.34635 1.88018 3.34635 2.1021V4.81225C3.34635 5.25456 3.34635 5.5312 2.51489 5.5312V5.69687H5.17571V5.52966ZM10.6091 1.60354C10.6091 1.27142 10.831 0.99478 11.1631 0.99478C11.7172 0.99478 11.8282 1.49258 11.8282 1.87941C11.8282 2.32172 11.7172 2.48817 11.5507 2.70932C11.4405 2.65461 10.6091 2.26778 10.6091 1.60354ZM11.3296 0.829102C10.1652 0.829102 9.66667 1.43709 9.66667 2.10056C9.66667 2.65384 10.1105 3.09616 10.6646 3.42828C10.166 3.53847 9.61119 3.81511 9.61119 4.58955C9.61119 5.41869 10.3317 5.80629 11.1077 5.80629C12.1056 5.80629 12.7713 5.25302 12.7713 4.36839C12.7713 3.70492 12.3275 3.20712 11.718 2.81952C12.1063 2.70932 12.6604 2.43268 12.6604 1.82392C12.6596 1.43709 12.3822 0.829102 11.3296 0.829102ZM10.4426 4.58955C10.4426 4.09175 10.6091 3.8706 10.8302 3.53847C11.3288 3.8706 11.7727 4.14723 11.7727 4.75522C11.7727 4.9209 11.7727 5.58437 11.1624 5.58437C10.6638 5.58514 10.4426 5.08734 10.4426 4.58955ZM20.1435 0.829102C17.9813 0.994777 16.9834 2.3772 16.9834 3.70415C16.9834 5.41869 17.9813 5.80552 18.5908 5.80552C19.9208 5.80552 20.1982 4.58878 20.1982 4.20195C20.1982 2.9852 19.3668 2.70855 18.8674 2.70855C18.5345 2.70855 18.4236 2.76403 18.2579 2.81875C18.5345 1.4918 19.4215 1.16046 20.1427 0.99401V0.829102H20.1435ZM19.0901 4.58955C19.0901 5.14283 19.0901 5.63985 18.6463 5.63985C18.2032 5.63985 18.0922 5.19754 18.0922 3.75963C18.0922 3.53847 18.1469 3.15087 18.1469 3.15087C18.2587 3.04067 18.3689 3.04068 18.4798 3.04068C18.9792 3.04145 19.0901 3.59396 19.0901 4.58955ZM25.1877 1.82469H27.1835L27.5164 0.884588H25.1885L24.5235 3.3728C25.0221 3.3728 25.5769 3.42828 26.0755 3.64944C26.4083 3.81511 26.7959 4.14723 26.7959 4.58955C26.7959 5.19754 26.3529 5.36398 26.0755 5.36398C25.6316 5.36398 25.244 4.70051 24.7447 4.70051C24.4118 4.70051 24.3016 4.92166 24.3016 5.14282C24.3016 5.52965 24.8001 5.75081 25.355 5.75081C26.6303 5.75081 27.3508 4.97638 27.3508 4.03627C27.3503 3.77266 27.2842 3.51331 27.1584 3.28165C27.0326 3.04998 26.8511 2.85329 26.6303 2.70932C26.1317 2.43269 25.6879 2.43269 25.0783 2.3772L25.1877 1.82469Z" fill="white"/>
<path fill-rule="evenodd" clip-rule="evenodd" d="M14.489 41.806L11.7172 45.5117C11.4953 45.8986 11.2741 46.1197 11.1632 46.2315C11.0522 46.2854 10.8857 46.3416 10.7193 46.3971L10.6638 46.5073H12.0493L12.1048 46.3971C11.9384 46.3416 11.8274 46.3416 11.7719 46.2854C11.7164 46.2315 11.7164 46.1752 11.7164 46.1197V45.954C11.7719 45.8423 11.8274 45.7884 11.9384 45.6211L12.3814 45.0132H13.7122L13.6568 45.5672C13.6568 45.8423 13.6013 46.0095 13.6013 46.0642C13.5604 46.1479 13.5039 46.223 13.4348 46.2854C13.3239 46.3409 13.2129 46.3971 13.1027 46.3971H12.9917V46.5073H14.7656L14.8211 46.3971C14.6547 46.3971 14.5437 46.3416 14.4335 46.3416L14.2671 46.176C14.2116 46.1205 14.2116 46.0642 14.2116 45.9548C14.2116 45.8993 14.2116 45.7891 14.2671 45.6219L14.6 41.8068L14.489 41.806ZM13.7685 44.7373H12.6041L13.9349 42.9118L13.7685 44.7373ZM18.0922 41.917L18.0368 42.0272C18.2587 42.0826 18.3696 42.0826 18.4244 42.0826C18.4798 42.1381 18.5908 42.1928 18.6463 42.2483L17.6484 45.6766C17.5929 45.9533 17.4827 46.1189 17.4272 46.1744C17.3163 46.3401 17.1498 46.3956 16.9287 46.3956H16.8732L16.8177 46.5058H18.3149L18.3704 46.3956C18.1485 46.3401 17.9828 46.3401 17.9266 46.2838C17.8711 46.2299 17.8156 46.1737 17.8156 46.0627C17.8156 46.0088 17.8711 45.8415 17.9266 45.6204L18.7588 42.7461L19.2019 46.5058H19.3128L21.9737 42.7461L21.2524 45.3992C21.1845 45.6479 21.0915 45.889 20.975 46.1189C20.9203 46.1744 20.864 46.2846 20.8093 46.2846C20.6983 46.3401 20.5874 46.3964 20.4217 46.3964H20.3107V46.5065H22.2511V46.3964H22.1956C21.9737 46.3964 21.8627 46.3409 21.7517 46.2846C21.6962 46.2307 21.6962 46.1744 21.6962 46.0635C21.6962 45.9533 21.6962 45.8423 21.7517 45.6766L22.5832 42.7461C22.6942 42.5249 22.7496 42.3593 22.8051 42.2483C22.8606 42.1928 22.9169 42.1381 23.027 42.0826C23.027 42.0826 23.1935 42.0826 23.4146 42.0272V41.917H22.3058L19.645 45.6211L19.2566 41.917H18.0922ZM24.6892 45.0132C25.0776 44.8475 25.3542 44.6818 25.5761 44.4606C25.7418 44.295 25.7981 44.1278 25.7981 43.9066C25.7981 43.7964 25.7426 43.6854 25.6316 43.5752C25.5206 43.4635 25.2995 43.4635 25.0776 43.4635C24.7447 43.4635 24.4118 43.519 24.1344 43.7402C23.7847 43.9146 23.5093 44.2088 23.3584 44.5693C23.1365 44.9022 23.0255 45.2328 23.0255 45.5657C23.0255 45.8408 23.081 46.0627 23.3021 46.2838C23.4686 46.4511 23.6905 46.5605 24.0234 46.5605C24.522 46.5605 25.0213 46.2838 25.5761 45.7868L25.4644 45.6751C25.1878 45.8962 24.9658 46.0619 24.7994 46.1174C24.6329 46.1729 24.522 46.2291 24.3555 46.2291C24.1336 46.2291 23.9679 46.1737 23.8015 46.008C23.6905 45.8962 23.635 45.6751 23.635 45.5102V45.2335C24.0789 45.1788 24.4673 45.1241 24.6892 45.0132ZM24.2461 43.9621C24.4673 43.7409 24.7447 43.6307 24.9666 43.6307C25.0783 43.6307 25.133 43.6307 25.1885 43.6847C25.2995 43.7402 25.2995 43.8519 25.2995 43.9058C25.2995 44.073 25.244 44.2387 25.0776 44.4036C24.9658 44.5693 24.7447 44.7365 24.4673 44.8459C24.2461 44.9561 23.9687 45.0116 23.6358 45.0671C23.8023 44.5708 23.9687 44.2395 24.2461 43.9621ZM26.2411 43.6315V43.7972C26.4076 43.7417 26.4631 43.7417 26.5186 43.7417C26.574 43.7417 26.6295 43.7417 26.685 43.7972C26.685 43.8527 26.7405 43.9074 26.7405 43.9074C26.7405 43.9629 26.7405 43.9629 26.685 44.0191L26.6295 44.2957L26.0192 46.5065H26.5178C26.7397 45.8431 26.8507 45.4 26.9062 45.2906C27.0171 45.0139 27.1828 44.7928 27.4047 44.4614C27.6259 44.1848 27.7923 44.0191 27.9033 43.9074C28.0143 43.8534 28.069 43.8534 28.1799 43.8534H28.2354C28.2909 43.9074 28.2909 43.9636 28.2909 44.0191C28.2909 44.0746 28.2354 44.2403 28.1799 44.4614L27.6251 46.5065H28.1237C28.2901 45.954 28.4566 45.5117 28.6222 45.1788C28.8997 44.6818 29.1771 44.2957 29.5092 43.9629C29.6201 43.9074 29.7311 43.8527 29.7858 43.8527C29.8413 43.8527 29.8413 43.8527 29.8968 43.9066C29.8968 43.9066 29.9523 43.9621 29.9523 44.0183C29.9523 44.0746 29.9523 44.1285 29.8968 44.1285C29.8968 44.184 29.8968 44.2957 29.7858 44.5708L29.5092 45.6211C29.3982 45.954 29.3427 46.1752 29.3427 46.2846C29.3427 46.3964 29.3982 46.4518 29.4537 46.5058C29.5092 46.5613 29.5647 46.5613 29.6202 46.5613C29.7311 46.5613 29.8421 46.5613 29.8976 46.5058C30.0085 46.4518 30.1195 46.3401 30.2859 46.1744C30.4516 46.0087 30.5079 45.8978 30.5626 45.7876L30.4516 45.7321C30.3547 45.8725 30.2431 46.0022 30.1187 46.1189C30.0632 46.1744 30.0078 46.1744 30.0078 46.1744H29.9523C29.8968 46.1189 29.8968 46.1189 29.8968 46.0627C29.8968 46.0627 29.9523 45.897 30.0078 45.6204L30.3954 44.2942C30.4508 44.127 30.4508 44.0176 30.4508 43.8519C30.4508 43.7402 30.4508 43.6307 30.3399 43.519C30.2844 43.4635 30.2289 43.4635 30.1179 43.4635C29.9515 43.4635 29.7303 43.519 29.5639 43.6847C29.2318 43.9613 28.8989 44.4044 28.5105 45.1234L28.7871 44.2387C28.7871 44.073 28.8426 43.9621 28.8426 43.7964C28.8426 43.6847 28.7871 43.6307 28.7317 43.5198C28.6762 43.4643 28.5652 43.4643 28.4543 43.4643C28.2878 43.4643 28.1768 43.4643 28.0659 43.5198C27.844 43.6854 27.6783 43.8527 27.4556 44.1278C27.2653 44.3889 27.0984 44.6664 26.957 44.9569L27.4009 43.4635L26.2411 43.6315ZM31.7292 41.8615V42.0272C31.7847 41.9717 31.8957 41.9717 31.9512 41.9717C32.0621 41.9717 32.1176 42.0272 32.1731 42.0272C32.1731 42.0826 32.2286 42.1389 32.2286 42.1928C32.2286 42.2483 32.1731 42.414 32.1176 42.6351L31.0642 46.1752C31.4518 46.4518 31.7847 46.562 32.1176 46.562C32.4505 46.562 32.7279 46.4518 33.06 46.2854C33.3597 46.0504 33.6214 45.7708 33.836 45.4562C34.0579 45.0694 34.1126 44.7381 34.1126 44.3497C34.1126 44.0746 34.0572 43.8527 33.8907 43.6862C33.7243 43.5205 33.5578 43.4651 33.2804 43.4651C33.114 43.4651 32.9475 43.4651 32.7818 43.5768C32.6162 43.6323 32.449 43.7979 32.2278 44.0191L32.8928 41.6966L31.7292 41.8615ZM32.0066 44.7373C32.1176 44.4044 32.2286 44.1832 32.4497 44.0176C32.6717 43.8519 32.8381 43.7409 33.06 43.7409C33.2265 43.7409 33.3374 43.7964 33.4476 43.9621C33.5031 44.0738 33.5586 44.2387 33.5586 44.4044C33.5586 44.7912 33.5031 45.1241 33.3367 45.4547C33.1702 45.7876 33.0038 46.0627 32.7818 46.1744C32.5599 46.3401 32.3942 46.3956 32.1723 46.3956C32.0059 46.3956 31.7839 46.3401 31.562 46.2299L32.0066 44.7373ZM36.2194 45.0132C36.607 44.8475 36.9399 44.6818 37.1064 44.4606C37.2728 44.295 37.3283 44.1278 37.3283 43.9066C37.3283 43.7964 37.2728 43.6854 37.1618 43.5752C37.0501 43.4635 36.8844 43.4635 36.607 43.4635C36.2741 43.4635 35.9975 43.519 35.6646 43.7402C35.3317 43.9058 35.1098 44.1825 34.8886 44.5693C34.6667 44.9022 34.5557 45.2328 34.5557 45.5657C34.5557 45.8408 34.6667 46.0627 34.8331 46.2838C34.9996 46.4511 35.2207 46.5605 35.5536 46.5605C36.0522 46.5605 36.5515 46.2838 37.1056 45.7868L36.9946 45.6751C36.7172 45.8962 36.4961 46.0619 36.3296 46.1174C36.2186 46.1729 36.0522 46.2291 35.8858 46.2291C35.6638 46.2291 35.4982 46.1737 35.3872 46.008C35.2207 45.8962 35.1653 45.6751 35.1653 45.5102V45.2335C35.6099 45.1788 35.9983 45.1241 36.2194 45.0132ZM35.7763 43.9621C36.0537 43.7409 36.2749 43.6307 36.4976 43.6307C36.6086 43.6307 36.7195 43.6307 36.7742 43.6847C36.8297 43.7402 36.8297 43.8519 36.8297 43.9058C36.8297 44.073 36.7742 44.2387 36.6633 44.4036C36.4739 44.5946 36.2476 44.7451 35.9983 44.8459C35.8318 44.9561 35.5544 45.0116 35.2223 45.0671C35.3325 44.5708 35.4989 44.2395 35.7763 43.9621ZM37.8276 43.7409H38.0496C38.1605 43.7409 38.216 43.7409 38.216 43.7964C38.2715 43.7964 38.2715 43.8519 38.2715 43.8519C38.2715 43.9621 38.2715 44.127 38.1605 44.4044L37.5502 46.5058H38.0488L38.1597 46.0635C38.2152 46.0095 38.2707 45.8423 38.3262 45.6211C38.4372 45.4 38.4926 45.2343 38.6028 45.1241C38.8248 44.7373 38.9912 44.4606 39.2131 44.2395C39.3241 44.1278 39.3796 44.0183 39.4905 43.9629H39.657V44.0746C39.657 44.1285 39.7125 44.1848 39.7125 44.2403C39.768 44.2403 39.8234 44.2957 39.8789 44.2957C39.9899 44.2957 40.0454 44.2403 40.1008 44.1285C40.1563 43.9629 40.2118 43.8534 40.2118 43.6862C40.2118 43.6323 40.2118 43.576 40.1563 43.5205C40.1008 43.4651 40.0454 43.4651 39.9899 43.4651C39.8789 43.4651 39.7125 43.5205 39.546 43.6862C39.2131 43.9629 38.8255 44.4059 38.4372 45.0694L38.9357 43.4651L37.7714 43.6323L37.8276 43.7409ZM44.9231 43.7409C44.7567 43.5198 44.4801 43.4643 44.2027 43.4643C43.9252 43.4643 43.5924 43.5198 43.2602 43.7409C42.9533 43.9283 42.7037 44.1965 42.539 44.5161C42.3178 44.8475 42.2068 45.1781 42.2068 45.511C42.2068 45.8423 42.3178 46.0635 42.539 46.2846C42.7054 46.4518 42.9828 46.5613 43.2602 46.5613C43.5931 46.5613 43.8705 46.5058 44.2027 46.2846C44.5355 46.1189 44.7567 45.8423 44.9786 45.511C45.1443 45.1781 45.2553 44.8475 45.2553 44.5161C45.2553 44.184 45.1443 43.9066 44.9231 43.7409ZM44.2581 45.6766C43.9815 46.1744 43.7041 46.3964 43.3712 46.3964C43.2074 46.4007 43.0482 46.3413 42.9273 46.2307C42.8164 46.1189 42.7609 45.954 42.7609 45.7329C42.7609 45.2906 42.9273 44.792 43.2048 44.3497C43.4822 43.8527 43.8143 43.6315 44.1472 43.6315C44.2581 43.6315 44.4238 43.6854 44.5348 43.7972C44.5903 43.9074 44.6457 44.0738 44.6457 44.2395C44.6457 44.7373 44.5348 45.2343 44.2581 45.6766ZM47.0846 43.5198C47.2511 42.9673 47.362 42.6906 47.4175 42.5249C47.5285 42.3038 47.6395 42.0826 47.8059 41.9709C47.9169 41.8607 48.0271 41.8607 48.1935 41.8607H48.3045C48.3599 41.8607 48.3599 41.9162 48.3599 41.9162C48.3599 41.9701 48.3045 41.9701 48.3045 42.0264C48.249 42.0819 48.249 42.1381 48.249 42.1921C48.249 42.2475 48.3045 42.3038 48.3045 42.3038C48.3599 42.3593 48.4154 42.3593 48.4709 42.3593C48.5819 42.3593 48.6374 42.3593 48.6928 42.3038C48.7483 42.2483 48.7483 42.1921 48.7483 42.0826C48.7483 42.0272 48.6928 41.917 48.6374 41.806C48.4993 41.737 48.3478 41.6994 48.1935 41.6958C48.0271 41.6958 47.8606 41.7497 47.6942 41.8615C47.4722 41.9717 47.3066 42.0826 47.1401 42.3038C47.0291 42.4695 46.9182 42.6351 46.7517 42.9118C46.6963 43.1329 46.5853 43.2431 46.5298 43.3541C46.4743 43.4096 46.4188 43.4643 46.3079 43.4643C46.2524 43.5198 46.1414 43.5198 45.9195 43.5198L45.864 43.7409H46.4736L45.864 46.0088C45.7531 46.5613 45.6421 46.8918 45.6421 46.9481C45.5866 47.1692 45.4764 47.3349 45.4202 47.5021C45.3092 47.6123 45.1982 47.7233 45.0873 47.7772C44.9763 47.8327 44.9208 47.8327 44.8106 47.8327H44.6997V47.7772C44.6997 47.7772 44.6997 47.7233 44.7552 47.7233C44.8106 47.6678 44.8106 47.6116 44.8106 47.5561C44.8106 47.5021 44.8106 47.4459 44.7552 47.4459C44.6997 47.3904 44.6442 47.3904 44.5887 47.3904C44.5332 47.3904 44.4223 47.3904 44.3668 47.4459C44.3113 47.5014 44.3113 47.5561 44.3113 47.667C44.3113 47.7225 44.3113 47.8327 44.4223 47.8882C44.4777 47.9437 44.5887 47.9984 44.7552 47.9984C44.9771 47.9984 45.1428 47.8882 45.3647 47.7772C45.6421 47.5561 45.9195 47.2247 46.1407 46.7269C46.3071 46.3956 46.4736 45.8423 46.64 45.2335L47.0276 43.7402H47.4707L47.5817 43.519L47.0846 43.5198ZM50.9653 42.5804C50.7988 42.9118 50.5777 43.1884 50.4112 43.2986C50.2448 43.4103 50.0783 43.5198 49.8009 43.5752V43.7409H50.2995L49.7455 45.6766C49.6345 45.9533 49.6345 46.1189 49.6345 46.2307C49.6345 46.3409 49.6345 46.3964 49.69 46.5058C49.7455 46.5613 49.8556 46.5613 49.9674 46.5613C50.0783 46.5613 50.1893 46.5058 50.355 46.4511C50.5214 46.3393 50.7434 46.1182 50.9098 45.7876L50.7988 45.7321C50.6324 45.9533 50.5222 46.1189 50.4667 46.1189C50.355 46.2307 50.3003 46.2846 50.2448 46.2846L50.1893 46.2307C50.1338 46.2307 50.1338 46.1752 50.1338 46.1189C50.1338 46.0627 50.1893 45.9533 50.2448 45.7321L50.7988 43.7409H51.3529L51.4084 43.5198H50.8535L51.131 42.5804H50.9653ZM52.1296 41.917V42.0272H52.1851C52.2406 41.9717 52.3516 41.9717 52.3516 41.9717C52.4625 41.9717 52.5172 42.0271 52.5172 42.0834C52.5727 42.0834 52.6282 42.1389 52.6282 42.1936L52.5172 42.6359L51.4091 46.5065H51.9077L52.1296 45.7884C52.1851 45.6211 52.2406 45.4555 52.3516 45.2906C52.6282 44.7928 52.8501 44.5169 52.9056 44.4614C53.0721 44.1848 53.2385 44.0191 53.4042 43.9074C53.5151 43.8534 53.5706 43.8534 53.6261 43.8534C53.6808 43.8534 53.7371 43.8534 53.7371 43.9074C53.7926 43.9074 53.7926 43.9629 53.7926 43.9629C53.7926 44.0746 53.7371 44.2395 53.7371 44.4052L53.3495 45.7329C53.2385 46.0095 53.183 46.1752 53.183 46.2854C53.183 46.3971 53.2385 46.4526 53.294 46.5065C53.3495 46.562 53.4049 46.562 53.5159 46.562C53.5714 46.562 53.6824 46.562 53.7378 46.5065C53.8488 46.4526 53.9598 46.3409 54.1262 46.1752C54.2372 46.0635 54.3481 45.8986 54.4029 45.7884L54.3474 45.7329C54.1809 45.8986 54.07 46.0642 53.959 46.1752H53.7926C53.7371 46.1197 53.7371 46.1197 53.7371 46.0635C53.7371 46.0635 53.7926 45.9533 53.848 45.7884L54.2356 44.4052C54.2911 44.184 54.3466 44.0183 54.3466 43.8527C54.3447 43.75 54.3052 43.6516 54.2356 43.576C54.1247 43.4643 54.0692 43.4643 53.9582 43.4643C53.7363 43.4643 53.5144 43.5198 53.2932 43.7409C53.0721 43.9621 52.7392 44.3489 52.3508 44.9569L53.2932 41.6958L52.1296 41.917ZM56.6198 45.0132C57.0082 44.8475 57.2848 44.6818 57.4513 44.4606C57.6177 44.295 57.6732 44.1278 57.6732 43.9066C57.6732 43.7964 57.6177 43.6854 57.5068 43.5752C57.3958 43.4635 57.2301 43.4635 57.0082 43.4635C56.6753 43.4635 56.3424 43.519 56.0103 43.7402C55.7337 43.9058 55.4562 44.1825 55.2343 44.5693C55.0124 44.9022 54.9014 45.2328 54.9014 45.5657C54.9014 45.8408 55.0124 46.0627 55.1788 46.2838C55.3445 46.4511 55.5664 46.5605 55.8993 46.5605C56.3979 46.5605 56.8972 46.2838 57.4513 45.7868L57.3958 45.6751C57.0629 45.8962 56.841 46.0619 56.7308 46.1174C56.5643 46.1729 56.3979 46.2291 56.2322 46.2291C56.0665 46.2291 55.8438 46.1737 55.7337 46.008C55.5672 45.8962 55.5117 45.6751 55.5117 45.5102V45.2335C56.0095 45.1788 56.3424 45.1241 56.6198 45.0132ZM56.1213 43.9621C56.3987 43.7409 56.6198 43.6307 56.8418 43.6307C56.9527 43.6307 57.0637 43.6307 57.1192 43.6847C57.1773 43.7457 57.216 43.8227 57.2301 43.9058C57.2301 44.073 57.1192 44.2387 57.0082 44.4036C56.8417 44.5693 56.6753 44.7365 56.3979 44.8459C56.176 44.9561 55.8993 45.0116 55.5664 45.0671C55.6774 44.5708 55.8993 44.2395 56.1213 43.9621ZM60.556 42.0272C60.8326 42.0826 60.999 42.0826 61.0545 42.1389C61.11 42.1928 61.1655 42.2491 61.1655 42.3046C61.1655 42.4148 61.11 42.5812 61.0545 42.8024L60.6107 44.3497C60.4997 44.6263 60.4997 44.792 60.4442 44.9037V45.2906C60.4442 45.6774 60.5552 45.954 60.8318 46.2315C61.1092 46.4526 61.4968 46.6183 61.9407 46.6183C62.3845 46.6183 62.7167 46.5065 62.9386 46.3416C63.2122 46.1795 63.4409 45.9514 63.6036 45.6782C63.7146 45.4015 63.881 45.0147 64.0467 44.4622L64.5453 42.7476C64.6007 42.5265 64.6562 42.3608 64.7117 42.2499C64.775 42.1816 64.8502 42.1254 64.9336 42.0842C64.9891 42.0842 65.1001 42.0287 65.2665 42.0287L65.322 41.9185H63.881L63.8255 42.0287C64.0475 42.0842 64.1584 42.0842 64.2694 42.1404C64.3249 42.1944 64.3804 42.2506 64.3804 42.3061C64.3804 42.4163 64.3249 42.6375 64.2139 43.0258L63.8255 44.4075C63.7146 44.6841 63.6036 44.96 63.5489 45.1811C63.4379 45.4578 63.327 45.6789 63.1605 45.8446C63.0496 45.9563 62.8839 46.0658 62.7174 46.1775C62.521 46.2458 62.3151 46.283 62.1071 46.2877C61.7743 46.2877 61.4968 46.2338 61.3312 46.0126C61.2256 45.9377 61.1401 45.838 61.082 45.7224C61.024 45.6067 60.9952 45.4785 60.9983 45.3491C60.9983 45.1819 60.9983 45.0725 61.0538 44.9068C61.0538 44.8513 61.1092 44.6302 61.2202 44.3528L61.6633 42.75C61.7188 42.5288 61.7743 42.3631 61.8297 42.2522C61.9132 42.2109 61.9884 42.1547 62.0517 42.0865C62.1626 42.0865 62.2736 42.031 62.4947 42.031L62.5502 41.9208H60.6099L60.556 42.0272ZM65.0461 43.6315L65.1016 43.7972L65.2126 43.7417H65.3236C65.379 43.7417 65.4345 43.7417 65.49 43.7972C65.5455 43.8527 65.5455 43.8527 65.5455 43.9074C65.5455 43.9629 65.49 44.1285 65.4345 44.4052L64.8242 46.5065H65.3228L65.4892 45.954C65.5447 45.7329 65.6557 45.5117 65.7666 45.2906C65.9886 44.9577 66.1542 44.6271 66.3207 44.4059C66.5426 44.1848 66.7091 44.0191 66.8755 43.9081C66.931 43.8542 67.042 43.8542 67.0974 43.8542H67.2084C67.2084 43.9081 67.2639 43.9644 67.2639 43.9644C67.2639 44.0761 67.2084 44.241 67.1529 44.4067L66.7653 45.7344C66.7098 46.0111 66.6544 46.1767 66.6544 46.2869C66.6544 46.3987 66.6544 46.4541 66.7098 46.5081C66.7653 46.5636 66.8208 46.5636 66.9318 46.5636C67.0427 46.5636 67.1537 46.5081 67.2647 46.4534C67.4866 46.3416 67.6523 46.1205 67.875 45.7899L67.764 45.7344C67.653 45.9556 67.4866 46.0658 67.3764 46.1767C67.3209 46.1767 67.3209 46.2322 67.2654 46.2322L67.2099 46.1767V46.1213C67.2099 46.0658 67.2099 45.9556 67.2654 45.7899L67.7093 44.4067C67.7648 44.1856 67.7648 43.9644 67.7648 43.8542C67.7648 43.7425 67.7648 43.633 67.6538 43.5776C67.5983 43.4658 67.4873 43.4658 67.3772 43.4658C67.2107 43.4658 66.9888 43.5213 66.7669 43.7425C66.5449 43.9636 66.2128 44.3505 65.7689 44.9584L66.2128 43.4651L65.0461 43.6315ZM69.4801 42.1928C69.4261 42.2483 69.3699 42.36 69.3699 42.414C69.3719 42.5165 69.4111 42.6148 69.4801 42.6906C69.5356 42.7461 69.5918 42.8024 69.7028 42.8024C69.813 42.8024 69.8684 42.7469 69.9239 42.6906C70.0357 42.6351 70.0357 42.5249 70.0357 42.414C70.0357 42.36 70.0357 42.2483 69.9239 42.1928C69.8684 42.1389 69.8122 42.0826 69.7028 42.0826C69.5918 42.0826 69.5363 42.1381 69.4801 42.1928ZM68.5939 43.6315V43.7417H68.8713C68.9823 43.7417 68.9823 43.7417 69.0378 43.7972C69.094 43.7972 69.094 43.8527 69.094 43.9074C69.094 43.9629 69.0378 44.1285 68.9823 44.3497L68.5392 45.8431C68.4837 46.0642 68.4837 46.2315 68.4837 46.2854C68.4837 46.3971 68.4837 46.4526 68.5392 46.5065C68.5947 46.562 68.6502 46.562 68.7611 46.562C68.9268 46.562 69.0385 46.5066 69.2042 46.3964C69.4297 46.2351 69.6185 46.0278 69.7583 45.7884L69.6481 45.7329C69.4808 45.8986 69.3714 46.0642 69.2597 46.1752C69.2042 46.1752 69.148 46.2307 69.148 46.2307C69.094 46.2307 69.094 46.2307 69.0378 46.1752V46.1197C69.0378 46.0642 69.0378 45.954 69.094 45.7884L69.7575 43.4643L68.5939 43.6315ZM70.2568 43.7409H70.478C70.6452 43.7409 70.7007 43.7964 70.7562 43.9066C70.9218 44.2395 71.0875 45.1241 71.0875 46.5613H71.2547C71.6986 46.1189 71.9197 45.8415 71.976 45.7876C72.2764 45.4904 72.5369 45.1554 72.7512 44.7912C72.9184 44.5701 73.0294 44.3489 73.0856 44.1832C73.1396 44.073 73.1396 43.9621 73.1396 43.8519C73.1382 43.7492 73.099 43.6507 73.0294 43.5752C72.9739 43.4635 72.8622 43.4635 72.8067 43.4635C72.6965 43.4635 72.641 43.4635 72.5855 43.519C72.53 43.5745 72.4738 43.6307 72.4738 43.7402C72.4738 43.7956 72.5293 43.9058 72.641 43.9613C72.7512 44.073 72.8067 44.127 72.8067 44.1825C72.8067 44.238 72.8067 44.2942 72.7512 44.3481C72.7512 44.4599 72.6973 44.5693 72.641 44.681C72.5855 44.7365 72.4183 45.0124 72.0854 45.3992C72.0315 45.4547 71.8643 45.6759 71.5876 45.9533C71.5876 45.3992 71.5321 45.0124 71.5321 44.8467C71.4862 44.5502 71.431 44.2551 71.3665 43.9621L71.1992 43.4643L70.2568 43.6315V43.7409ZM75.0252 45.0132C75.4136 44.8475 75.7449 44.6818 75.9114 44.4606C76.077 44.295 76.1325 44.1278 76.1325 43.9066C76.1325 43.7964 76.077 43.6854 75.9668 43.5752C75.8551 43.4635 75.6902 43.4635 75.4128 43.4635C75.0784 43.4635 74.8017 43.519 74.4688 43.7402C74.1359 43.9058 73.9148 44.1825 73.6936 44.5693C73.4709 44.9022 73.3607 45.2328 73.3607 45.5657C73.3607 45.8408 73.4709 46.0627 73.6374 46.2838C73.803 46.4511 74.0257 46.5605 74.3586 46.5605C74.8564 46.5605 75.3565 46.2838 75.9106 45.7868L75.8551 45.6751C75.5222 45.8962 75.3011 46.0619 75.1338 46.1174C74.9965 46.187 74.8454 46.2252 74.6915 46.2291C74.4688 46.2291 74.3032 46.1737 74.1922 46.008C74.0265 45.8962 73.971 45.6751 73.971 45.5102V45.2335C74.4141 45.1788 74.8025 45.1241 75.0252 45.0132ZM74.5813 43.9621C74.858 43.7409 75.0791 43.6307 75.3026 43.6307C75.4143 43.6307 75.5238 43.6307 75.5792 43.6847C75.6347 43.7402 75.6347 43.8519 75.6347 43.9058C75.6347 44.073 75.5792 44.2387 75.4675 44.4036C75.2782 44.5948 75.0519 44.7453 74.8025 44.8459C74.6368 44.9561 74.3602 45.0116 74.0273 45.0671C74.1367 44.5708 74.3039 44.2395 74.5813 43.9621ZM76.6326 43.7409H76.8538C76.9655 43.7409 77.021 43.7409 77.021 43.7964C77.0749 43.7964 77.0749 43.8519 77.0749 43.8519C77.0749 43.9621 77.0749 44.127 76.9647 44.4044L76.3552 46.5058H76.853L76.9647 46.0635C77.0202 46.0095 77.0749 45.8423 77.1304 45.6211C77.2421 45.4 77.2976 45.2343 77.4071 45.1241C77.6298 44.7373 77.7954 44.4606 78.0181 44.2395C78.1283 44.1278 78.1838 44.0183 78.2948 43.9629H78.4604V44.0746C78.4604 44.1285 78.5159 44.1848 78.5159 44.2403C78.5714 44.2403 78.6277 44.2957 78.6831 44.2957C78.7933 44.2957 78.8488 44.2403 78.9043 44.1285C78.9598 43.9629 79.016 43.8534 79.016 43.6862C79.016 43.6323 79.016 43.576 78.9605 43.5205C78.9051 43.4651 78.8488 43.4651 78.7933 43.4651C78.6831 43.4651 78.5167 43.5205 78.351 43.6862C78.0181 43.9629 77.6298 44.4059 77.2421 45.0694L77.7399 43.4651L76.5764 43.6323L76.6326 43.7409ZM81.2893 43.4643C81.2338 43.5198 81.1775 43.576 81.0666 43.576C81.0126 43.576 80.9564 43.576 80.8454 43.5205C80.7344 43.4651 80.6242 43.4651 80.6242 43.4651H80.4015C80.1804 43.4651 79.9592 43.5205 79.792 43.6862C79.6263 43.798 79.5708 44.0191 79.5708 44.2403C79.5708 44.3505 79.5709 44.4614 79.6826 44.5716C79.7365 44.6834 79.8483 44.9045 80.0694 45.1257C80.2366 45.3468 80.4023 45.568 80.4578 45.6782C80.4578 45.7337 80.5133 45.8438 80.5133 45.8993C80.5153 45.972 80.5015 46.0441 80.4729 46.1109C80.4443 46.1777 80.4015 46.2375 80.3476 46.2862C80.2359 46.3979 80.1249 46.3979 79.9592 46.3979C79.7365 46.3979 79.5154 46.3424 79.4036 46.2322C79.2934 46.065 79.238 45.8438 79.1825 45.457H79.0723L78.8496 46.5636H79.0168C79.0168 46.4534 79.127 46.3979 79.238 46.3979C79.238 46.3979 79.2934 46.4534 79.4036 46.4534C79.6263 46.5073 79.792 46.5636 79.9592 46.5636C80.2359 46.5636 80.5133 46.5081 80.6805 46.2869C80.9016 46.1213 81.0134 45.9001 81.0134 45.6789C81.0134 45.5133 80.9579 45.4023 80.8462 45.2366C80.7907 45.071 80.5695 44.7943 80.2921 44.5184C80.1804 44.3512 80.1249 44.2973 80.0694 44.2418C80.0155 44.1301 80.0155 44.0761 80.0155 44.0206C80.0168 43.918 80.0561 43.8195 80.1257 43.744C80.2374 43.6338 80.3484 43.6338 80.4586 43.6338C80.6813 43.6338 80.7915 43.6878 80.9024 43.7995C81.0142 43.9652 81.1236 44.1863 81.1236 44.463H81.2353L81.4565 43.4666H81.2893V43.4643ZM82.9522 42.1928C82.8404 42.2483 82.8404 42.36 82.8404 42.414C82.8404 42.5257 82.8404 42.6351 82.9522 42.6906C83.0076 42.7461 83.0624 42.8024 83.1733 42.8024C83.2843 42.8024 83.3405 42.7469 83.3945 42.6906C83.5062 42.6351 83.5062 42.5249 83.5062 42.414C83.5062 42.36 83.5062 42.2483 83.3945 42.1928C83.3405 42.1389 83.2843 42.0826 83.1733 42.0826C83.0624 42.0826 83.0076 42.1381 82.9522 42.1928ZM82.0645 43.6315V43.7417H82.3426C82.3966 43.7417 82.4528 43.7417 82.5083 43.7972C82.5638 43.7972 82.5638 43.8527 82.5638 43.9074C82.5638 43.9629 82.5083 44.1285 82.4521 44.3497L82.0097 45.8431C81.9543 46.0642 81.898 46.2315 81.898 46.2854C81.898 46.3971 81.9535 46.4526 82.0097 46.5065C82.0637 46.562 82.1199 46.562 82.2309 46.562C82.3966 46.562 82.5075 46.5066 82.6748 46.3964C82.8995 46.2342 83.0882 46.0272 83.2288 45.7884L83.1171 45.7329C82.9514 45.8986 82.8404 46.0642 82.7287 46.1752C82.6748 46.1752 82.6185 46.2307 82.563 46.2307C82.563 46.2307 82.5075 46.2307 82.5075 46.1752V46.1197C82.5075 46.0642 82.5075 45.954 82.563 45.7884L83.228 43.4643L82.0645 43.6315ZM85.2246 42.5804C85.0035 42.9118 84.8362 43.1884 84.6706 43.2986C84.4836 43.424 84.2771 43.5175 84.0595 43.5752L84.0056 43.7409H84.5033L83.9493 45.6766C83.8938 45.9533 83.8376 46.1189 83.8376 46.2307C83.8376 46.3409 83.8931 46.3964 83.9493 46.5058C84.0048 46.5613 84.0595 46.5613 84.1705 46.5613C84.3377 46.5613 84.4471 46.5058 84.5588 46.4511C84.7245 46.3393 84.9472 46.1182 85.1684 45.7876L85.0566 45.7321C84.8355 45.9533 84.7237 46.1189 84.6698 46.1189C84.5581 46.2307 84.5026 46.2846 84.4471 46.2846C84.4471 46.2307 84.3916 46.2307 84.3916 46.2307V46.1189C84.3916 46.0627 84.3916 45.9533 84.4471 45.7321L85.0566 43.7409H85.556L85.6115 43.5198H85.1121L85.3348 42.5804H85.2246ZM85.613 43.6854V43.7972H85.8896C86.0553 43.7972 86.1663 43.8527 86.2225 43.9074C86.278 43.9629 86.3343 44.184 86.3343 44.5708L86.5554 46.6722C86.4437 46.8394 86.2788 47.0051 86.0561 47.2263C85.8904 47.3919 85.7232 47.5029 85.6138 47.6131H85.5028C85.5028 47.6131 85.5028 47.5576 85.4473 47.5029C85.4473 47.4474 85.3918 47.3912 85.3918 47.3912H85.2816C85.2254 47.3912 85.1144 47.3912 85.0589 47.5029C84.9487 47.5568 84.9487 47.6131 84.9487 47.7241C84.9487 47.778 84.9487 47.8343 85.0042 47.8897C85.0582 47.9452 85.1144 47.9999 85.2254 47.9999C85.3363 47.9999 85.4465 47.946 85.6138 47.8343C85.7794 47.7241 86.0561 47.5029 86.389 47.1145C86.8883 46.562 87.2767 46.0095 87.6635 45.5672C87.9979 45.0694 88.2191 44.7381 88.3301 44.5169C88.4403 44.2957 88.5512 44.0746 88.5512 43.9074C88.5512 43.7417 88.4957 43.6323 88.4395 43.576C88.3293 43.4643 88.2738 43.4643 88.1628 43.4643C88.1074 43.4643 87.9972 43.4643 87.9417 43.5198C87.8862 43.5752 87.8862 43.6315 87.8862 43.7409C87.8862 43.7964 87.8862 43.9066 87.9417 43.9621C87.9972 44.0176 88.0519 44.0176 88.1074 44.0738C88.1628 44.0738 88.2191 44.1278 88.2191 44.1278C88.2746 44.1278 88.2746 44.1278 88.2746 44.1832C88.2746 44.2387 88.2746 44.2387 88.2191 44.295C88.2191 44.3489 88.1636 44.5161 88.0519 44.6818C87.8307 44.9569 87.719 45.1788 87.5541 45.3453C87.3329 45.7321 87.1102 45.9533 87 46.1189L86.8328 44.4606C86.8328 44.1278 86.7773 43.9066 86.7773 43.7972L86.6117 43.4643L85.613 43.6854ZM93.3728 43.7409C93.1516 43.5198 92.9304 43.4643 92.6515 43.4643C92.3186 43.4643 92.042 43.5198 91.7091 43.7409C91.3762 43.9066 91.155 44.1832 90.9339 44.5161C90.7666 44.8475 90.6572 45.1781 90.6572 45.511C90.6572 45.8423 90.7674 46.0635 90.9339 46.2846C91.155 46.4518 91.3762 46.5613 91.7091 46.5613C91.9873 46.5613 92.3186 46.5058 92.6515 46.2846C92.9859 46.1189 93.2071 45.8423 93.3728 45.511C93.5955 45.1781 93.6494 44.8475 93.6494 44.5161C93.6502 44.184 93.54 43.9066 93.3728 43.7409ZM92.6523 45.6766C92.3756 46.1744 92.0982 46.3964 91.7661 46.3964C91.6933 46.3982 91.6209 46.3843 91.5539 46.3557C91.4869 46.3271 91.4268 46.2845 91.3777 46.2307C91.2675 46.1189 91.212 45.954 91.212 45.7329C91.212 45.2906 91.3777 44.792 91.6559 44.3497C91.9325 43.8527 92.2099 43.6315 92.5421 43.6315C92.7077 43.6315 92.8187 43.6854 92.9304 43.7972C93.041 43.9175 93.1005 44.0761 93.0961 44.2395C93.0961 44.7373 92.9304 45.2343 92.6523 45.6766ZM95.4803 43.5198C95.6475 42.9673 95.7569 42.6906 95.8132 42.5249C95.9249 42.3038 96.0898 42.0826 96.257 41.9709C96.3672 41.8607 96.4782 41.8607 96.5899 41.8607H96.7556V42.0264C96.7001 42.0819 96.7001 42.1381 96.7001 42.1921C96.7001 42.2475 96.7001 42.3038 96.7556 42.3038C96.8111 42.3593 96.8673 42.3593 96.9228 42.3593C96.9783 42.3593 97.0885 42.3593 97.144 42.3038C97.1995 42.2483 97.1995 42.1921 97.1995 42.0826C97.1995 42.0272 97.144 41.917 97.0322 41.806C96.9221 41.7505 96.8111 41.6958 96.6454 41.6958C96.4782 41.6958 96.311 41.7497 96.0898 41.8615C95.9241 41.9717 95.7569 42.0826 95.592 42.3038C95.4803 42.4695 95.3154 42.6351 95.2037 42.9118L94.981 43.3541C94.9203 43.4126 94.8431 43.4511 94.7598 43.4643C94.7043 43.5198 94.5386 43.5198 94.3714 43.5198L94.3175 43.7409H94.927L94.3175 46.0088C94.2058 46.5613 94.0948 46.8918 94.0393 46.9481C93.9854 47.1692 93.9291 47.3349 93.8181 47.5021C93.7555 47.6194 93.6591 47.7152 93.5415 47.7772C93.4298 47.8327 93.3204 47.8327 93.2086 47.8327H93.1531L93.0977 47.7772L93.1531 47.7233C93.2086 47.6678 93.2649 47.6116 93.2649 47.5561C93.2649 47.5021 93.2094 47.4459 93.1531 47.4459C93.1531 47.3904 93.0977 47.3904 93.0414 47.3904C92.9312 47.3904 92.8757 47.3904 92.8202 47.4459C92.7648 47.5014 92.7085 47.5561 92.7085 47.667C92.7085 47.7225 92.764 47.8327 92.8202 47.8882C92.932 47.9437 93.0414 47.9984 93.1531 47.9984C93.3743 47.9984 93.597 47.8882 93.8181 47.7772C94.0948 47.5561 94.3175 47.2247 94.5394 46.7269C94.7051 46.3956 94.8723 45.8423 95.0372 45.2335L95.4256 43.7402H95.9249L95.9789 43.519L95.4803 43.5198ZM98.8061 41.917L98.7506 42.0272C98.9734 42.0826 99.0835 42.0826 99.139 42.0826C99.1945 42.1381 99.3062 42.1928 99.3602 42.2483L98.3623 45.6766C98.3068 45.9533 98.1966 46.1189 98.1411 46.1744C98.0294 46.3401 97.8645 46.3956 97.6418 46.3956H97.5878L97.5324 46.5058H99.0281L99.0835 46.3956C98.8624 46.3401 98.6952 46.3401 98.6397 46.2838C98.5857 46.2299 98.5295 46.1737 98.5295 46.0627C98.5295 46.0088 98.585 45.8415 98.6397 45.6204L99.4719 42.7461L99.9158 46.5058H100.026L102.687 42.7461L101.966 45.3992C101.898 45.6479 101.805 45.8891 101.689 46.1189C101.635 46.1744 101.579 46.2846 101.523 46.2846C101.411 46.3401 101.301 46.3964 101.135 46.3964H101.023V46.5065H102.963V46.3964H102.909C102.687 46.3964 102.577 46.3409 102.466 46.2846C102.41 46.2307 102.41 46.1744 102.41 46.0635C102.41 45.9533 102.41 45.8423 102.466 45.6766L103.296 42.7461C103.408 42.5249 103.464 42.3593 103.519 42.2483C103.582 42.18 103.657 42.1239 103.74 42.0826C103.74 42.0826 103.907 42.0826 104.129 42.0272V41.917H103.02L100.359 45.6211L99.9705 41.917H98.8061ZM106.235 43.5198L106.124 43.9066C106.068 43.7409 106.012 43.6315 105.902 43.5198C105.791 43.4643 105.68 43.4643 105.57 43.4643C105.347 43.4643 105.07 43.5198 104.848 43.7409C104.515 43.9621 104.239 44.295 104.016 44.6818C103.795 45.0686 103.683 45.4555 103.683 45.7884C103.683 46.0635 103.739 46.2307 103.85 46.3964C103.971 46.5067 104.129 46.5661 104.293 46.562C104.46 46.562 104.626 46.5066 104.792 46.3964C105.122 46.2011 105.405 45.9366 105.623 45.6211L105.569 45.8423C105.513 46.0635 105.457 46.1752 105.457 46.2846C105.457 46.3964 105.513 46.4518 105.569 46.5058C105.623 46.5613 105.679 46.5613 105.79 46.5613C105.901 46.5613 106.067 46.5058 106.234 46.3956C106.399 46.2838 106.567 46.1189 106.732 45.8415L106.62 45.7876C106.454 45.9533 106.343 46.1189 106.233 46.1744C106.178 46.2299 106.178 46.2299 106.121 46.2299H106.066C106.01 46.1744 106.01 46.1182 106.01 46.1182V46.008L106.122 45.7313L106.787 43.4635L106.235 43.5198ZM105.847 43.7409C105.957 43.8527 105.957 43.9621 105.957 44.1832C105.957 44.681 105.791 45.1781 105.403 45.6204C105.126 46.0088 104.849 46.1744 104.626 46.1744C104.524 46.1723 104.425 46.1325 104.35 46.0627C104.24 45.9525 104.24 45.8415 104.24 45.6759C104.24 45.3992 104.293 45.0679 104.516 44.681C104.66 44.3492 104.867 44.0486 105.126 43.7964C105.291 43.6847 105.402 43.6307 105.57 43.6307C105.672 43.6331 105.771 43.6722 105.847 43.7409ZM108.285 42.1928C108.231 42.2483 108.175 42.36 108.175 42.414C108.177 42.5165 108.216 42.6148 108.285 42.6906C108.341 42.7461 108.452 42.8024 108.508 42.8024C108.618 42.8024 108.729 42.7469 108.784 42.6906C108.84 42.6344 108.896 42.5249 108.896 42.414C108.882 42.3307 108.843 42.2536 108.784 42.1928C108.708 42.1245 108.61 42.0854 108.508 42.0826C108.424 42.0965 108.347 42.1348 108.285 42.1928ZM107.398 43.6315V43.7417H107.731C107.787 43.7417 107.843 43.7417 107.843 43.7972C107.898 43.7972 107.898 43.8527 107.898 43.9074C107.898 43.9629 107.898 44.1285 107.786 44.3497L107.343 45.8431C107.287 46.0642 107.287 46.2315 107.287 46.2854C107.287 46.3971 107.287 46.4526 107.399 46.5065C107.454 46.562 107.511 46.562 107.62 46.562C107.732 46.562 107.898 46.5066 108.064 46.3964C108.231 46.2307 108.397 46.0635 108.563 45.7884L108.452 45.7329C108.336 45.8919 108.206 46.04 108.063 46.1752C108.008 46.1752 108.008 46.2307 107.951 46.2307C107.897 46.2307 107.897 46.2307 107.897 46.1752C107.842 46.1752 107.842 46.1197 107.842 46.1197C107.842 46.0642 107.842 45.954 107.897 45.7884L108.562 43.4643L107.398 43.6315ZM109.283 43.6315V43.7972L109.395 43.7417H109.562C109.616 43.7417 109.672 43.7417 109.728 43.7972C109.728 43.8527 109.783 43.8527 109.783 43.9074C109.783 43.9629 109.728 44.1285 109.671 44.4052L109.062 46.5065H109.561L109.727 45.954C109.782 45.7329 109.894 45.5117 110.003 45.2906C110.171 44.9577 110.392 44.6271 110.559 44.4059C110.696 44.2136 110.865 44.0454 111.057 43.9081C111.169 43.8542 111.224 43.8542 111.278 43.8542H111.39C111.445 43.9081 111.445 43.9644 111.445 43.9644C111.445 44.0761 111.445 44.241 111.39 44.4067L111.001 45.7344C110.891 46.0111 110.891 46.1767 110.891 46.2869C110.891 46.3987 110.891 46.4541 110.945 46.5081C111.001 46.5636 111.057 46.5636 111.168 46.5636C111.223 46.5636 111.389 46.5081 111.501 46.4534C111.666 46.3416 111.889 46.1205 112.11 45.7899L111.999 45.7344C111.833 45.9556 111.722 46.0658 111.61 46.1767C111.556 46.1767 111.5 46.2322 111.5 46.2322C111.5 46.2322 111.444 46.2322 111.444 46.1767L111.389 46.1213C111.389 46.0658 111.444 45.9556 111.501 45.7899L111.889 44.4067C111.943 44.1856 111.999 43.9644 111.999 43.8542C111.997 43.7517 111.958 43.6534 111.889 43.5776C111.834 43.4658 111.722 43.4658 111.611 43.4658C111.39 43.4658 111.169 43.5213 110.946 43.7425C110.725 43.9636 110.392 44.3505 110.003 44.9584L110.447 43.4651L109.283 43.6315ZM114.272 45.0132C114.66 44.8475 114.937 44.6818 115.104 44.4606C115.27 44.295 115.381 44.1278 115.381 43.9066C115.381 43.7964 115.269 43.6854 115.159 43.5752C115.048 43.4635 114.881 43.4635 114.66 43.4635C114.327 43.4635 113.995 43.519 113.662 43.7402C113.386 43.9058 113.108 44.1825 112.887 44.5693C112.664 44.9022 112.609 45.2328 112.609 45.5657C112.609 45.8408 112.664 46.0627 112.832 46.2838C112.997 46.4511 113.274 46.5605 113.607 46.5605C114.051 46.5605 114.605 46.2838 115.104 45.7868L115.048 45.6751C114.772 45.8962 114.551 46.0619 114.383 46.1174C114.218 46.1729 114.051 46.2291 113.886 46.2291C113.718 46.2291 113.553 46.1737 113.386 46.008C113.275 45.8962 113.165 45.6751 113.165 45.5102C113.165 45.3984 113.165 45.3445 113.221 45.2335C113.662 45.1788 113.995 45.1241 114.272 45.0132ZM113.774 43.9621C114.051 43.7409 114.272 43.6307 114.551 43.6307C114.661 43.6307 114.716 43.6307 114.772 43.6847C114.83 43.7458 114.868 43.8228 114.882 43.9058C114.882 44.073 114.828 44.2387 114.661 44.4036C114.551 44.5693 114.328 44.7365 114.051 44.8459C113.83 44.9561 113.554 45.0116 113.221 45.0671C113.33 44.5708 113.553 44.2395 113.774 43.9621ZM117.544 46.6175C117.598 46.3963 117.71 46.3409 117.821 46.3409C117.877 46.3409 117.987 46.3409 118.042 46.3964C118.319 46.4518 118.486 46.562 118.596 46.562C118.763 46.562 118.874 46.6175 118.985 46.6175C119.261 46.6175 119.54 46.562 119.761 46.3964C119.983 46.2846 120.15 46.1197 120.259 45.8986C120.426 45.6774 120.482 45.4562 120.482 45.2351C120.482 45.0139 120.426 44.8483 120.315 44.6826C120.204 44.4614 119.982 44.2403 119.65 43.9074C119.317 43.576 119.096 43.3549 119.04 43.1892C118.929 43.0691 118.87 42.9103 118.874 42.7469C118.874 42.5812 118.928 42.414 119.096 42.3046C119.261 42.1389 119.428 42.0834 119.65 42.0834C119.983 42.0834 120.205 42.1389 120.371 42.36C120.592 42.5257 120.648 42.7469 120.648 43.0235V43.3549H120.759L121.092 41.806H120.98C120.925 41.9177 120.869 41.9717 120.815 42.0272C120.759 42.0826 120.703 42.0826 120.648 42.0826H120.537L120.315 41.9709C120.149 41.917 119.982 41.8607 119.926 41.8607C119.816 41.8052 119.705 41.8052 119.593 41.8052C119.207 41.8052 118.874 41.917 118.651 42.1381C118.542 42.2463 118.456 42.3756 118.399 42.5182C118.341 42.6608 118.314 42.8137 118.318 42.9673C118.318 43.1884 118.374 43.3541 118.485 43.5198C118.539 43.6315 118.651 43.8527 118.874 44.0738C119.371 44.5161 119.649 44.8475 119.76 45.0132C119.815 45.1788 119.87 45.2898 119.87 45.4555C119.87 45.6766 119.76 45.8978 119.593 46.0635C119.483 46.2846 119.26 46.3401 118.928 46.3401C118.596 46.3401 118.374 46.2846 118.153 46.0635C117.986 45.8423 117.877 45.6211 117.877 45.2898V44.903H117.765L117.376 46.6175H117.544ZM120.924 43.6854L120.98 43.7972H121.256C121.368 43.7972 121.479 43.8527 121.534 43.9074C121.588 43.9629 121.645 44.184 121.7 44.5708L121.867 46.6722C121.756 46.8394 121.589 47.0051 121.424 47.2263C121.256 47.3919 121.091 47.5029 120.98 47.6131H120.868C120.814 47.6131 120.814 47.5576 120.814 47.5029C120.758 47.4474 120.758 47.3912 120.758 47.3912H120.647C120.537 47.3912 120.481 47.3912 120.37 47.5029C120.315 47.5568 120.258 47.6131 120.258 47.7241C120.258 47.778 120.314 47.8343 120.37 47.8897C120.426 47.9452 120.482 47.9999 120.537 47.9999C120.648 47.9999 120.814 47.946 120.98 47.8343C121.147 47.7241 121.368 47.5029 121.701 47.1145C122.148 46.6175 122.573 46.1012 122.975 45.5672C123.308 45.0694 123.585 44.7381 123.697 44.5169C123.808 44.2957 123.864 44.0746 123.864 43.9074C123.864 43.7417 123.808 43.6323 123.752 43.576C123.697 43.4643 123.585 43.4643 123.53 43.4643C123.419 43.4643 123.364 43.4643 123.308 43.5198C123.253 43.5752 123.253 43.6315 123.253 43.7409C123.253 43.7964 123.253 43.9066 123.308 43.9621C123.308 44.0176 123.364 44.0176 123.476 44.0738C123.53 44.0738 123.586 44.1278 123.586 44.1278V44.295C123.586 44.3489 123.476 44.5161 123.365 44.6818C123.197 44.9569 123.032 45.1788 122.921 45.3453C122.644 45.7321 122.478 45.9533 122.311 46.1189L122.199 44.4606C122.146 44.1278 122.146 43.9066 122.089 43.7972C122.089 43.6854 122.034 43.576 121.922 43.4643L120.924 43.6854ZM126.302 43.4643C126.19 43.5198 126.136 43.576 126.025 43.576C125.97 43.576 125.914 43.576 125.804 43.5205C125.693 43.4651 125.637 43.4651 125.582 43.4651H125.36C125.139 43.4651 124.917 43.5205 124.751 43.6862C124.584 43.798 124.528 44.0191 124.528 44.2403C124.528 44.3505 124.584 44.4614 124.64 44.5716C124.695 44.6834 124.807 44.9045 125.028 45.1257C125.196 45.3468 125.361 45.568 125.417 45.6782C125.417 45.7337 125.472 45.8438 125.472 45.8993C125.474 45.9721 125.46 46.0445 125.431 46.1113C125.403 46.1781 125.359 46.2378 125.305 46.2862C125.195 46.3979 125.084 46.3979 124.917 46.3979C124.719 46.4023 124.525 46.3443 124.363 46.2322C124.251 46.065 124.197 45.8438 124.141 45.457H124.03L123.808 46.5636H123.974C124.03 46.4534 124.086 46.3979 124.197 46.3979C124.251 46.3979 124.307 46.4534 124.363 46.4534C124.584 46.5073 124.751 46.5636 124.917 46.5636C125.195 46.5636 125.472 46.5081 125.638 46.2869C125.859 46.1213 125.971 45.9001 125.971 45.6789C125.971 45.5133 125.915 45.4023 125.805 45.2366C125.75 45.071 125.527 44.7943 125.249 44.5184C125.139 44.3512 125.084 44.2973 125.028 44.2418C125.028 44.1301 124.973 44.0761 124.973 44.0206C124.973 43.9089 125.028 43.7995 125.14 43.744C125.196 43.6338 125.306 43.6338 125.473 43.6338C125.639 43.6338 125.75 43.6878 125.86 43.7995C126.027 43.9652 126.082 44.1863 126.082 44.463H126.193L126.415 43.4666H126.302V43.4643ZM128.242 42.5804C128.02 42.9118 127.853 43.1884 127.688 43.2986C127.501 43.424 127.295 43.5175 127.078 43.5752L127.023 43.7409H127.577L126.967 45.6766C126.912 45.9533 126.855 46.1189 126.855 46.2307C126.855 46.3409 126.911 46.3964 126.967 46.5058C127.023 46.5613 127.134 46.5613 127.244 46.5613C127.355 46.5613 127.466 46.5058 127.577 46.4511C127.799 46.3393 127.965 46.1182 128.186 45.7876L128.076 45.7321C127.909 45.9533 127.799 46.1189 127.743 46.1189C127.631 46.2307 127.576 46.2846 127.522 46.2846C127.466 46.2307 127.466 46.2307 127.41 46.2307V46.1189C127.41 46.0627 127.41 45.9533 127.522 45.7321L128.076 43.7409H128.63L128.685 43.5198H128.131L128.408 42.5804H128.242ZM130.405 45.0132C130.793 44.8475 131.07 44.6818 131.291 44.4606C131.403 44.295 131.512 44.1278 131.512 43.9066C131.512 43.7964 131.458 43.6854 131.346 43.5752C131.179 43.4635 131.013 43.4635 130.792 43.4635C130.459 43.4635 130.127 43.519 129.848 43.7402C129.515 43.9058 129.239 44.1825 129.018 44.5693C128.852 44.9022 128.741 45.2328 128.741 45.5657C128.741 45.8408 128.796 46.0627 128.962 46.2838C129.129 46.4511 129.406 46.5605 129.739 46.5605C130.183 46.5605 130.737 46.2838 131.235 45.7868L131.179 45.6751C130.902 45.8962 130.681 46.0619 130.514 46.1174C130.348 46.1729 130.183 46.2291 130.072 46.2291C129.849 46.2291 129.683 46.1737 129.516 46.008C129.406 45.8962 129.295 45.6751 129.295 45.5102C129.295 45.3984 129.295 45.3445 129.35 45.2335C129.795 45.1788 130.128 45.1241 130.405 45.0132ZM129.905 43.9621C130.183 43.7409 130.461 43.6307 130.682 43.6307C130.794 43.6307 130.848 43.6307 130.903 43.6847C130.959 43.7402 131.015 43.8519 131.015 43.9058C131.015 44.073 130.959 44.2387 130.794 44.4036C130.682 44.5693 130.461 44.7365 130.184 44.8459C129.962 44.9561 129.685 45.0116 129.352 45.0671C129.462 44.5708 129.683 44.2395 129.905 43.9621ZM131.9 43.6315L131.956 43.7972C132.068 43.7417 132.177 43.7417 132.177 43.7417C132.289 43.7417 132.344 43.7417 132.344 43.7972L132.456 43.9074C132.456 43.9629 132.456 43.9629 132.4 44.0191L132.345 44.2957L131.735 46.5065H132.233C132.4 45.8431 132.566 45.4 132.622 45.2906C132.733 45.0139 132.898 44.7928 133.121 44.4614C133.342 44.1848 133.508 44.0191 133.619 43.9074C133.73 43.8534 133.786 43.8534 133.84 43.8534H133.952C134.007 43.9074 134.007 43.9636 134.007 44.0191C134.007 44.0746 133.952 44.2403 133.895 44.4614L133.341 46.5065H133.839C134.006 45.954 134.172 45.5117 134.338 45.1788C134.615 44.6818 134.893 44.2957 135.225 43.9629C135.336 43.9074 135.392 43.8527 135.501 43.8527C135.557 43.8527 135.557 43.8527 135.613 43.9066V44.1285C135.613 44.184 135.558 44.2957 135.501 44.5708L135.225 45.6211C135.114 45.954 135.059 46.1752 135.059 46.2846C135.059 46.3964 135.114 46.4518 135.169 46.5058C135.169 46.5613 135.281 46.5613 135.336 46.5613C135.448 46.5613 135.502 46.5613 135.613 46.5058C135.725 46.4518 135.834 46.3401 136.001 46.1744C136.113 46.0087 136.223 45.8978 136.278 45.7876L136.166 45.7321C136.07 45.8729 135.958 46.0026 135.833 46.1189C135.779 46.1744 135.723 46.1744 135.723 46.1744H135.668C135.612 46.1189 135.612 46.1189 135.612 46.0627C135.612 46.0627 135.668 45.897 135.724 45.6204L136.112 44.2942C136.166 44.127 136.166 44.0176 136.166 43.8519C136.166 43.7402 136.112 43.6307 136.056 43.519C136.001 43.4635 135.889 43.4635 135.833 43.4635C135.612 43.4635 135.447 43.519 135.279 43.6847C134.946 43.9613 134.614 44.4044 134.226 45.1234L134.449 44.2387C134.503 44.073 134.559 43.9621 134.559 43.7964C134.559 43.6847 134.503 43.6307 134.449 43.5198C134.337 43.4643 134.281 43.4643 134.17 43.4643C134.005 43.4643 133.894 43.4643 133.784 43.5198C133.561 43.6854 133.34 43.8527 133.173 44.1278C132.982 44.3887 132.816 44.6662 132.675 44.9569L133.063 43.4635L131.9 43.6315Z" fill="black"/>
</svg>
