<svg width="113" height="64" viewBox="0 0 113 64" fill="none" xmlns="http://www.w3.org/2000/svg">
<path fill-rule="evenodd" clip-rule="evenodd" d="M40.3937 39.4638C40.5484 38.7659 41.399 38.2229 42.3273 38.2229C43.2556 38.2229 44.0285 38.7666 44.1832 39.4638H40.3937ZM45.2656 40.0845C45.3433 38.6889 44.3373 37.448 42.3273 37.448C40.3173 37.448 39.2343 38.6106 39.2343 40.0069C39.2343 41.3242 40.4713 42.4097 42.3273 42.4097C43.5644 42.4097 44.6474 41.9449 45.1886 41.0918L44.3379 40.7047C43.8738 41.2478 43.3326 41.6349 42.405 41.6349C41.1679 41.6349 40.3943 40.9371 40.3173 40.0845H45.2656ZM49.364 38.2229C50.6787 38.2229 51.4523 38.999 51.4523 39.9292C51.4523 40.8594 50.7564 41.6349 49.364 41.6349C48.0498 41.6349 47.2763 40.7823 47.2763 39.9292C47.2756 38.999 48.1262 38.2229 49.364 38.2229ZM51.3746 42.255H52.457V35.1992H51.3746V38.3005C50.8334 37.7574 50.0599 37.448 49.2092 37.448C47.3533 37.448 46.1933 38.6106 46.1933 39.9285C46.1933 41.2465 47.3533 42.4091 49.2092 42.4091C50.0599 42.4091 50.8334 42.0996 51.3746 41.6336V42.255ZM55.473 40.2392C55.473 41.0147 55.5507 41.6342 56.8654 41.6342C58.1802 41.6342 58.2579 41.0141 58.2579 40.2392V37.6027H59.3396V40.3163C59.3396 41.5572 58.7214 42.4097 56.8654 42.4097C55.0088 42.4097 54.3906 41.5572 54.3906 40.3163V37.6027H55.473V40.2392ZM65.9121 38.999C65.448 38.5342 64.8304 38.2229 63.9798 38.2229C62.6644 38.2229 61.7367 38.999 61.7367 39.9292C61.7367 40.8594 62.5873 41.6349 63.9015 41.6349C64.8304 41.6349 65.4486 41.4025 65.9892 40.8594V41.9449C65.3709 42.255 64.7521 42.4097 63.9798 42.4097C62.1232 42.4097 60.6543 41.3242 60.6543 39.9292C60.6543 38.5342 62.2002 37.4486 63.9798 37.4486C64.675 37.4486 65.3716 37.681 65.9121 37.9134V38.999ZM70.2435 38.2229C71.5576 38.2229 72.3312 38.999 72.3312 39.9292C72.3312 40.8594 71.6347 41.6349 70.2435 41.6349C68.9281 41.6349 68.2328 40.7823 68.2328 39.9292C68.2328 38.999 69.0064 38.2229 70.2435 38.2229ZM73.4136 37.6027H72.3318V38.3005H72.2535C71.7894 37.7574 71.0164 37.448 70.1658 37.448C68.2335 37.448 67.1505 38.6106 67.1505 39.9285C67.1505 41.2465 68.3105 42.4091 70.0888 42.4091C71.0164 42.4091 71.713 42.1767 72.2535 41.6336H72.3318V42.2544H73.4136V37.6027ZM76.5072 42.255H75.4242V38.3782H74.7277V37.6027H75.4242V35.8977H76.5072V37.6027H77.589V38.3782H76.5072V42.255ZM78.749 37.6027H79.832V42.255H78.749V37.6027ZM80.0638 35.82C80.0638 36.2071 79.6773 36.4408 79.2902 36.4408C78.9031 36.4408 78.5166 36.2077 78.5166 35.82C78.5166 35.5876 78.9031 35.2769 79.2902 35.2769C79.6773 35.2769 80.0638 35.587 80.0638 35.82ZM84.7804 38.2229C86.0958 38.2229 87.0234 38.999 87.0234 39.9292C87.0234 40.8594 86.0958 41.6349 84.7804 41.6349C83.4662 41.6349 82.5386 40.8594 82.5386 39.9292C82.5386 38.999 83.4662 38.2229 84.7804 38.2229ZM84.7804 42.4097C86.6369 42.4097 88.1071 41.3242 88.1071 39.9292C88.1071 38.6112 86.6369 37.4486 84.7804 37.4486C82.9251 37.4486 81.5333 38.6112 81.5333 39.9292C81.5333 41.3242 83.0021 42.4097 84.7804 42.4097ZM90.6589 38.1458C91.1231 37.7581 91.6636 37.448 92.4372 37.448C94.2154 37.448 94.6019 38.3782 94.6019 39.5408V42.255H93.5202V39.6185C93.5202 38.9207 93.4419 38.2229 92.2048 38.2229C90.7359 38.2229 90.6589 39.2314 90.6589 40.0845V42.255H89.5759V37.6027H90.6589V38.1458Z" fill="black"/>
<path d="M31.5781 45.9767C34.2847 49.9312 33.2793 55.4354 29.181 58.3043C25.082 61.1732 19.5918 60.32 16.8082 56.3662C14.024 52.3341 15.107 46.8293 19.1283 43.961C23.226 41.0921 28.7945 42.0229 31.5781 45.9767Z" stroke="black" stroke-width="6.38112" stroke-miterlimit="2.613"/>
<path d="M19.8248 43.573C19.7133 43.7879 19.6858 44.0367 19.7478 44.2708C19.7478 44.5038 19.7478 44.6579 19.8248 44.8903M19.8248 43.573C19.5931 43.6507 19.3607 43.8054 19.1289 43.9601C18.9742 44.1155 18.7424 44.2702 18.5101 44.4249M19.8248 43.573C19.9019 43.4953 20.0572 43.4176 20.2119 43.34M18.5101 44.4249C18.7418 44.4249 18.9742 44.4249 19.283 44.5802M18.5101 44.4249C18.433 44.5026 18.3553 44.6579 18.2783 44.7356M18.2783 44.7356C17.8142 45.1233 17.5047 45.5887 17.273 45.9759M18.2783 44.7356C18.3553 44.6579 18.433 44.5032 18.5107 44.4255C18.7424 44.4255 18.9742 44.4255 19.2836 44.5809M17.273 45.9759C17.5824 45.7435 17.8918 45.5111 18.2783 45.3557M17.273 45.9759C17.5824 45.7428 17.8918 45.5104 18.2783 45.3557M17.273 45.9759C17.1183 46.2859 17.0412 46.5196 17.0412 46.752L16.9635 46.9067M18.2783 45.3557C18.3553 45.278 18.433 45.2787 18.5101 45.2016C18.8965 45.0463 19.3613 44.968 19.8248 44.8903M20.7531 43.573C21.0619 43.34 21.372 43.0299 21.6808 42.8745M20.7531 43.573C21.0619 43.3393 21.372 43.0299 21.6808 42.8745M20.7531 43.573L20.5213 43.8054C20.2119 44.1154 19.9795 44.5032 19.8248 44.8903M21.6808 42.8745C21.2166 42.9522 20.7531 43.1076 20.2113 43.3393M21.6808 42.8745L22.4543 42.8752L22.609 42.9522M29.2593 57.7609C29.1822 57.8386 29.0275 57.9163 28.9498 57.9933C28.7951 58.071 28.7181 58.1487 28.5634 58.2257M29.2593 57.7609C29.1822 57.8386 29.0275 57.9169 28.9498 57.994C28.7957 58.0717 28.7181 58.1493 28.5634 58.2264C28.3316 58.3817 28.0215 58.5364 27.7121 58.6911M29.2593 57.7609C29.5687 57.5279 29.8004 57.2955 30.0328 57.0631M26.8621 59.4666C27.3263 59.3896 27.481 59.2349 28.1762 58.9235C28.0215 58.9235 27.9445 58.8465 27.7121 58.6911M27.7121 58.6911C27.7121 58.7688 27.5574 58.7688 27.5574 58.8465M27.7121 58.6911C27.7121 58.6911 27.6357 58.6141 27.558 58.6141M30.1099 57.6069C30.1099 57.4509 30.1099 57.2962 30.0328 57.0638C30.1099 57.0638 30.1875 56.9861 30.1875 56.9091C30.574 56.599 30.9605 56.2106 31.2699 55.9005C31.4246 55.6675 31.5793 55.5128 31.7341 55.2804M30.1099 57.6069C30.4963 57.2191 30.8834 56.8314 31.1152 56.4436M30.1099 57.6069C30.1099 57.4515 30.1099 57.2962 30.0328 57.0631M16.3453 47.6822L16.423 47.6045C15.8041 48.6124 15.4947 49.5426 15.6494 50.3957M16.3453 47.6822C15.8899 48.5142 15.6506 49.4472 15.6494 50.3957M16.3453 47.6822L16.4224 47.6045M16.3453 47.6822C16.5771 47.4498 16.7311 47.1391 16.9635 46.9067M15.6494 50.3957C15.6494 50.5505 15.7265 50.7058 15.8041 50.8605M15.6494 50.3957C15.6494 50.5505 15.7271 50.7058 15.8041 50.8605M23.5367 42.6422H23.4597C24.6197 42.3327 25.7021 42.4098 26.398 42.7975C25.5474 42.4874 24.542 42.4098 23.5367 42.6422ZM23.5367 42.6422C24.542 42.4098 25.5474 42.4881 26.398 42.7981C26.5527 42.9529 26.7074 43.0305 26.8621 43.1852M23.5367 42.6422C23.2273 42.7198 22.9185 42.7975 22.609 42.9522M19.2836 44.5809C19.4383 44.6579 19.5931 44.7356 19.8248 44.8903M19.2836 44.5809C19.4712 44.671 19.652 44.7744 19.8248 44.8903M19.8248 44.8903C19.9795 44.5032 20.2113 44.1161 20.5213 43.806M19.8248 44.8903C20.2113 44.5032 20.6761 44.1154 21.0625 43.8054C21.6044 43.4176 22.0679 43.1076 22.609 42.9522M19.8248 44.8903C19.2836 45.1233 18.7424 45.4334 18.356 45.7435M19.8248 44.8903C19.3607 44.968 18.8978 45.0457 18.5113 45.201M19.8248 44.8903H19.9031L19.9808 44.8133C20.4449 44.5032 20.9091 44.2702 21.3732 44.0378M19.8248 44.8903L19.9025 44.8909M19.8248 44.8903V44.9686M19.8248 44.8903L19.7484 44.9686M19.8248 44.8903C20.289 45.201 20.7525 45.5117 21.2937 45.9765M32.9705 52.2561C32.8935 53.0316 32.5064 54.1942 31.7334 55.2798C31.7334 55.1244 31.8111 54.9697 31.8111 54.815C31.8881 54.4273 31.8111 54.0395 31.8111 53.6518M22.2996 59.7767C22.8414 60.0091 24.3103 60.0091 25.3926 59.6997M25.3926 59.6997C25.2379 59.6997 25.0832 59.622 24.9285 59.622M25.3926 59.6997C25.7014 59.622 25.9345 59.5443 26.1662 59.4666M25.3926 59.6997C25.9345 59.6997 26.3216 59.5443 26.8628 59.3896M25.3926 59.6997C25.2373 59.6997 25.0832 59.622 24.9285 59.622M24.9285 59.622C24.5472 59.5195 24.1831 59.363 23.8461 59.1572M27.558 58.8471C27.0939 59.0795 26.6297 59.2349 26.1656 59.4673M22.609 42.9522C22.9185 43.0299 23.1496 43.1076 23.3043 43.3393L24.6961 43.1076M22.609 42.9522C22.9185 43.0299 23.1502 43.1082 23.3049 43.34M22.609 42.9522C22.0679 43.1076 21.6037 43.4176 21.0625 43.806M31.1152 56.443C31.2699 56.1336 31.5793 55.7452 31.7341 55.2804M31.7341 55.2804C31.7341 55.1251 31.8117 54.9703 31.8117 54.8156M16.9635 46.9067C16.957 47.1832 17.0381 47.4553 17.1953 47.6828C16.8865 48.0699 16.6541 48.5353 16.4224 48.9231C16.1129 49.5432 15.8805 50.241 15.8035 50.8612C15.8035 50.9388 15.8805 51.0165 15.8805 51.0936C16.0352 51.2489 16.1129 51.3259 16.19 51.4813M16.9635 46.9067C16.7311 47.1391 16.5771 47.4504 16.3447 47.6828M16.9635 46.9067C17.3536 46.4383 17.8258 46.0442 18.356 45.7435M16.9635 46.9067C16.9635 47.2168 17.0418 47.4498 17.1959 47.6822M30.0328 57.0631V56.9855M18.356 45.7435C18.7431 45.4334 19.2843 45.124 19.8254 44.8909L19.7484 44.9686M30.0328 56.9861C30.0328 56.9861 30.0328 56.9091 29.9552 56.8314C29.9552 56.7537 29.8775 56.599 29.8775 56.4436M19.8248 58.6911C20.3666 59.1566 21.7584 59.7767 22.8408 59.9321M19.8248 58.6911C19.7478 58.6141 19.6701 58.5364 19.5931 58.5364M19.8248 58.6911C19.7478 58.6141 19.6707 58.5364 19.5931 58.5364M26.8621 43.1852C26.1662 43.0305 25.3926 43.0305 24.6967 43.1082L23.3049 43.34M26.8621 43.1852L27.0168 43.34C27.0939 43.4953 27.1716 43.573 27.1716 43.7277C27.3263 44.1155 27.3263 44.4255 27.3263 44.8133M23.8461 59.1572C23.5367 58.9242 23.1502 58.6918 22.7631 58.304M23.8461 59.1572C23.5367 58.9242 23.1496 58.6911 22.7631 58.304M23.3049 43.34C22.634 43.4911 21.9846 43.7258 21.372 44.0384C20.9078 44.2708 20.4443 44.5032 19.9802 44.8139M23.3049 43.34C23.4597 43.573 23.4597 43.8837 23.4597 44.1161M27.558 58.5364C27.4033 58.4588 27.3256 58.3817 27.1716 58.304C27.1716 58.2264 27.1716 58.2264 27.0939 58.2264C26.7851 57.9169 26.5527 57.6062 26.2433 57.2185M32.8941 52.6439C33.0488 51.636 32.9718 50.3181 32.7394 49.5426C32.6624 49.4655 32.6617 49.3879 32.584 49.2331C32.584 49.7756 32.4293 50.3181 32.1199 50.8612M15.8041 50.8605C15.7265 51.0165 15.7265 51.2489 15.7265 51.4036C15.417 53.1093 15.8041 54.892 16.8095 56.366C17.1959 56.9091 17.6601 57.3738 18.1236 57.7609C18.4568 58.0129 18.8208 58.2215 19.2066 58.3817C19.2836 58.4588 19.4383 58.4588 19.5931 58.5364M15.8041 50.8605C15.8812 50.2404 16.1136 49.5426 16.423 48.9224M31.8111 53.6518C31.7334 53.2647 31.5793 52.7216 31.3476 52.2568M31.8111 53.6518C31.7334 53.2647 31.58 52.7216 31.3476 52.2568M17.1959 47.6822C17.5054 47.0614 17.9695 46.5966 18.5107 46.0535C18.8201 45.7435 19.2836 45.3564 19.6707 45.0463M17.1959 47.6822C17.3506 47.9146 17.583 47.9922 17.8925 48.0699M29.9558 56.8307C29.9558 56.7531 29.8781 56.5984 29.8781 56.443C29.8781 56.443 29.8004 56.366 29.8004 56.2883M19.6707 45.0463C19.7484 45.0463 19.7484 44.9686 19.7484 44.9686M19.6707 45.0463C19.2843 45.4334 18.9742 45.8988 18.6648 46.4413M19.6707 45.0463C19.2843 45.3564 18.8195 45.7441 18.5101 46.0542M19.7484 44.9686H19.8248M29.8004 56.2883C29.6464 55.9782 29.414 55.5905 29.1822 55.1251M29.8004 56.2883C29.6457 55.9782 29.414 55.5905 29.1822 55.1251M19.9025 44.8909C19.9025 44.8909 19.9802 44.8909 19.9802 44.8139M19.9025 44.8909L19.9802 44.8139M19.9802 44.8139C20.522 44.6585 21.0619 44.4255 21.6808 44.3485M19.8248 44.9686C19.9025 45.434 20.0572 45.9759 20.289 46.6743C20.3666 46.9067 20.4437 47.218 20.5984 47.5275M19.8248 44.9686L19.7478 44.968M19.5931 58.5364C20.0572 58.6141 20.5984 58.6141 21.2172 58.6141C21.6814 58.5364 22.2219 58.4588 22.7631 58.304M19.5931 58.5364C19.2066 58.2264 18.9748 57.9163 18.8201 57.6062C18.433 56.9084 18.1236 56.2883 17.8918 55.6675M26.8621 43.1082C29.0275 43.5736 30.574 44.5815 31.5793 45.9765C32.0429 46.5973 32.3523 47.3721 32.507 48.0699C32.5847 48.2253 32.5847 48.38 32.5847 48.5347C32.6623 48.761 32.6623 49.0062 32.5847 49.2325M29.5687 44.1931C29.8781 44.3491 30.0328 44.5815 30.1875 44.8139C30.497 45.2787 30.6517 45.8994 30.574 46.5196V46.829M15.8812 54.2725C16.1906 54.8156 17.0412 55.4351 17.5824 55.5905C17.7371 55.5905 17.8142 55.6675 17.8918 55.6675M30.574 46.829C31.0382 47.2168 31.5793 47.7592 32.0435 48.3017M30.574 46.829C30.4193 46.6743 30.2646 46.5966 30.1099 46.4413M30.574 46.829C31.102 47.2803 31.5933 47.7727 32.0435 48.3017M30.574 46.829C30.4963 46.9837 30.4963 47.1397 30.4193 47.2944M30.574 46.829C30.497 46.9837 30.497 47.1397 30.4193 47.2944M32.0435 48.3017C32.2752 48.5341 32.43 48.8448 32.5847 49.2325M32.5847 49.2325C32.5847 49.775 32.4293 50.3181 32.1199 50.8612M30.1099 46.4413C29.1822 45.7435 28.2546 45.201 27.3263 44.8133M30.1099 46.4413C29.1822 45.7435 28.2539 45.2016 27.3256 44.8133C27.2486 45.201 27.1709 45.5111 27.0168 45.8211M17.8918 55.6675C17.8142 55.4351 17.8142 55.2804 17.7371 55.1244M17.8918 55.6675C18.0465 55.6675 18.2006 55.7452 18.433 55.7452M22.7631 58.304C22.6084 58.1493 22.455 57.994 22.2226 57.8393M22.7631 58.304C22.9185 58.2264 23.1502 58.2264 23.3049 58.1493M22.7631 58.304C22.6084 58.1493 22.4543 57.994 22.2226 57.8393M22.7631 58.304C22.9178 58.2264 23.1496 58.2264 23.3049 58.1493M27.3263 44.8133C26.9398 44.7356 26.5527 44.5809 26.1662 44.5032C25.7027 44.3485 25.2379 44.2708 24.8515 44.1931C24.3873 44.1931 23.9238 44.1161 23.4597 44.1161M18.433 55.7452C18.2006 55.7452 18.0465 55.6682 17.8918 55.6682C17.8142 55.4351 17.8142 55.2804 17.7371 55.1251C17.35 53.9625 17.1953 52.9546 17.1953 51.9467M18.433 55.7452C19.0512 55.7452 19.8254 55.7452 20.6761 55.5128C20.8301 55.9776 21.0625 56.366 21.372 56.7531M18.433 55.7452C19.0519 55.7452 19.8248 55.7452 20.6754 55.5128M22.2226 57.8393C22.0679 57.6845 21.9131 57.4515 21.7584 57.2962M22.2226 57.8393C22.0679 57.6839 21.9131 57.4515 21.7584 57.2962M23.4597 44.1161C22.8408 44.1931 22.2226 44.1931 21.6808 44.3485M23.4597 44.1161C23.4597 44.3485 23.382 44.5809 23.2273 44.8139C23.1556 45.0349 23.0513 45.2439 22.9178 45.434M21.6808 44.3485C21.0619 44.4255 20.5213 44.6579 19.9795 44.8133C19.9795 44.8903 19.9019 44.8903 19.9019 44.8903M23.3049 58.1493C23.9114 57.9235 24.5051 57.6647 25.0832 57.3738M32.1199 50.8612C31.9658 51.3259 31.6564 51.792 31.3476 52.2568M31.3476 52.2568C31.2699 52.1008 31.1929 51.8684 31.1152 51.7137M31.3476 52.2568C31.2699 52.4115 31.1146 52.5668 31.0375 52.7216M31.3476 52.2568C31.2699 52.4115 31.1152 52.5668 31.0375 52.7216M31.3476 52.2568C31.2699 52.1014 31.1922 51.869 31.1146 51.7137M17.1953 51.9467C16.8088 51.869 16.4994 51.7143 16.19 51.4819M17.1953 51.9467C17.1953 51.559 17.1953 51.1712 17.273 50.7835M17.1953 51.9467C17.5047 52.0244 17.8142 52.0244 18.2006 52.0244C18.5877 52.0244 19.0512 51.9467 19.5154 51.869M17.1953 51.9467C17.1953 51.559 17.1953 51.1706 17.273 50.7828C17.273 50.3181 17.3506 49.8526 17.4283 49.3879C17.583 48.9231 17.7377 48.5347 17.8925 48.0699M30.4193 47.2944C30.2646 47.9152 29.9552 48.6124 29.491 49.3879M31.1152 51.7137C30.9605 51.4807 30.8834 51.2489 30.7287 51.0165C30.574 50.7828 30.4963 50.6281 30.3416 50.3957M31.1152 51.7137C30.9605 51.4813 30.8834 51.2489 30.7287 51.0159C30.574 50.7828 30.497 50.6281 30.3423 50.3951M17.8925 48.0699C17.583 47.9922 17.3506 47.9152 17.1966 47.6828C16.8871 48.0699 16.6554 48.5353 16.4236 48.9231M17.8925 48.0699C18.0472 47.5268 18.356 46.9844 18.6648 46.4413M17.8925 48.0699C18.0465 48.1476 18.2783 48.1476 18.5877 48.1476M17.8925 48.0699C18.0465 47.5268 18.3553 46.9844 18.6648 46.4413M17.8925 48.0699C18.0472 48.1476 18.2783 48.1476 18.5877 48.1476M31.0375 52.7216C30.6511 53.1863 30.1869 53.6518 29.7234 54.1942M27.0168 45.8211C27.1716 45.5111 27.2486 45.2016 27.3256 44.8139C26.9392 44.7362 26.5527 44.5815 26.1656 44.5038M27.0168 45.8211C26.8621 46.2082 26.7074 46.5973 26.398 46.9844M29.491 49.3879C29.8004 49.6979 30.1099 50.008 30.3416 50.3957M29.491 49.3879C29.0269 48.9231 28.5634 48.457 28.0222 48.0699C27.5587 47.6828 27.0168 47.3721 26.475 47.062L26.398 46.9844M29.491 49.3879C29.7998 49.6979 30.1092 50.008 30.3416 50.3957M29.491 49.3879C29.2593 49.6979 29.0275 50.008 28.7187 50.3181M29.491 49.3879C29.2593 49.6979 29.0275 50.008 28.7181 50.3181C28.6404 50.4734 28.5634 50.5505 28.4086 50.7058C28.0222 51.1706 27.6357 51.5583 27.1716 52.0238M21.372 56.7531C21.449 56.9091 21.6037 57.1408 21.7584 57.2962M21.372 56.7531C21.0625 56.366 20.8301 55.9776 20.6754 55.5128M21.372 56.7531C21.449 56.9084 21.6037 57.1408 21.7584 57.2962M20.6754 55.5128C20.366 54.9697 20.1336 54.3496 19.9795 53.8071M20.6754 55.5128C20.9849 55.4351 21.3713 55.3581 21.8355 55.2027L22.2996 54.9703C22.8414 54.8156 23.382 54.5049 23.9238 54.2725M20.6754 55.5128C20.366 54.9697 20.1342 54.3496 19.9795 53.8071M19.9795 53.8071C19.7528 53.207 19.597 52.583 19.5154 51.9467M25.0832 57.3738C25.3156 57.2962 25.4703 57.2185 25.7021 57.1414M25.0832 57.3738C25.315 57.2962 25.4697 57.2185 25.7021 57.1414M25.7021 57.1414C25.7798 57.0638 25.8568 56.9861 25.9345 56.9861M26.2433 57.2185C26.1656 57.1414 26.0885 57.0638 25.9345 56.9861M26.2433 57.2185C26.1662 57.1414 26.0892 57.0638 25.9345 56.9861M26.398 46.9844C25.2379 46.3642 24.0779 45.8218 22.9178 45.434M26.398 46.9844C26.7068 46.5973 26.8621 46.2095 27.0168 45.8224M26.398 46.9844C26.398 47.062 26.3986 47.062 26.3209 47.1397C25.9345 47.6828 25.4703 48.3023 24.8515 48.8454M26.398 46.9844C25.2379 46.3642 24.0785 45.8218 22.9185 45.4334C22.9185 45.5111 22.8414 45.5887 22.7638 45.6664M22.9178 45.434C22.7631 45.357 22.6861 45.3564 22.5314 45.2787L22.3767 45.278C21.4484 45.0457 20.5978 44.8903 19.9019 44.8903M22.9178 45.434C23.0726 45.2023 23.1496 45.0463 23.2273 44.8133M22.9178 45.434C22.9178 45.5117 22.8414 45.5887 22.7638 45.6664M18.5877 48.1476C18.7424 48.1476 18.9742 48.0699 19.2066 48.0699M29.1822 55.1251C29.1045 55.048 29.0275 54.892 29.0275 54.815M19.5154 51.9467V51.869M19.5154 51.9467V51.8684L19.6701 51.7914C20.289 51.636 21.0619 51.4036 21.7578 51.0159M19.5154 51.9467C19.5931 52.5675 19.7478 53.187 19.9795 53.8078M19.5154 51.869C19.2836 50.5511 19.1289 49.2332 19.2066 48.0699M19.5154 51.869C19.2836 50.5505 19.1289 49.2332 19.2066 48.0699M19.5154 51.869L19.6701 51.792C20.2883 51.6366 21.0625 51.4036 21.7584 51.0165C21.8361 50.9388 21.9131 50.9388 21.9908 50.8612M19.2066 48.0699C19.2066 47.8375 19.2836 47.6828 19.2836 47.5268M19.2066 48.0699C19.2836 47.9922 19.4383 47.9922 19.5154 47.9922C19.8248 47.8375 20.2119 47.6828 20.5984 47.5275M19.2066 48.0699C19.2066 47.8369 19.2836 47.6822 19.2836 47.5268M19.2836 47.5268C19.3613 46.5189 19.5154 45.6664 19.7478 44.968M31.0375 52.7222C30.6517 53.187 30.1875 53.6518 29.7234 54.1949C29.5687 54.3496 29.414 54.5049 29.1822 54.6596L29.0275 54.815M25.9345 56.9861C25.8568 56.8314 25.7798 56.6754 25.625 56.5207M25.9345 56.9861L27.0939 56.2883M29.0275 54.815C29.0275 54.892 29.1052 55.0474 29.1822 55.1244M29.0275 54.815C28.9498 54.6596 28.7957 54.5049 28.7181 54.3496C28.5634 54.0401 28.3316 53.7294 28.0222 53.3423C27.7846 52.875 27.4996 52.4327 27.1716 52.0238M29.0275 54.815C28.641 55.1244 28.3316 55.3587 27.9445 55.6682C27.7898 55.7458 27.6351 55.9005 27.4803 55.9782C27.4033 56.0559 27.2486 56.2106 27.0939 56.2883M29.0275 54.815C28.6404 55.1244 28.331 55.3581 27.9445 55.6675C27.7898 55.7452 27.6357 55.8999 27.4803 55.9776C27.4033 56.0553 27.2486 56.2106 27.0939 56.2883M22.7638 45.6664C22.532 45.8988 22.299 46.2089 21.9902 46.5189C22.6084 46.9837 23.2273 47.6045 23.9232 48.3023M22.7638 45.6664C22.532 45.8988 22.2996 46.2095 21.9908 46.5196M27.1716 52.0238C27.481 52.4109 27.7904 52.8763 28.0222 53.3417C28.3316 53.7288 28.5634 54.0395 28.7181 54.3489M27.1716 52.0238C27.0168 51.7907 26.8621 51.636 26.7074 51.4036C26.3209 50.8612 25.8568 50.3957 25.4703 49.931C25.1609 49.6209 24.9291 49.3102 24.6197 49.0008M27.1716 52.0238C27.6357 51.5583 28.0222 51.1712 28.4086 50.7064M27.1716 52.0238C27.0168 52.1008 26.8621 52.2568 26.7074 52.4115C26.3209 52.6439 26.0115 52.9546 25.625 53.187M25.625 56.5207C25.3933 56.2883 25.1609 55.8999 24.8521 55.5128C24.5427 55.1251 24.2332 54.6596 23.9238 54.2725M25.625 56.5207C25.7798 56.6754 25.8568 56.8307 25.9345 56.9855L27.0939 56.2883M23.9238 54.2725C23.8461 54.0401 23.6914 53.8078 23.5367 53.5741M23.9238 54.2725C24.1556 54.1178 24.3103 54.0401 24.465 53.9625M23.9238 54.2725C23.8468 54.0395 23.6914 53.8071 23.5367 53.5741M23.5367 53.5741L22.6084 51.9461C22.3767 51.5583 22.2226 51.2489 21.9908 50.8612M24.8515 48.8454C24.7738 48.9231 24.6967 49.0008 24.6197 49.0008M24.8515 48.8454C24.7744 48.9231 24.6967 49.0008 24.6197 49.0008M19.9019 44.8903L19.8242 44.8909C20.2883 45.2016 20.7525 45.5117 21.2937 45.9765M21.2937 45.9765C21.526 46.1318 21.7584 46.2866 21.9908 46.5196M23.9232 48.3023L24.6197 49.0008M23.9232 48.3023C23.2273 47.6045 22.609 46.985 21.9908 46.5196M21.9908 46.5196C21.7584 46.6749 21.5267 46.9067 21.2943 47.062M21.9908 46.5196C21.7584 46.6756 21.5267 46.9073 21.2943 47.062M21.9908 46.5196C21.7584 46.2872 21.5267 46.1318 21.2943 45.9759M24.465 53.9625C24.8521 53.7301 25.2386 53.497 25.625 53.187M24.465 53.9625C24.8515 53.7301 25.2379 53.4977 25.625 53.187M24.6197 49.0008C24.2427 49.378 23.828 49.7155 23.382 50.008C22.9178 50.3181 22.455 50.6288 21.9908 50.8612M23.5373 53.5747L22.609 51.9467C22.3773 51.559 22.2226 51.2489 21.9908 50.8612M19.7478 44.968C19.7478 44.968 19.7478 45.0457 19.6701 45.0457C19.2836 45.4328 18.9742 45.8988 18.6648 46.4406M21.6037 49.931C21.1396 49.0778 20.8301 48.2253 20.5984 47.5275M21.6037 49.931C21.6808 50.241 21.8361 50.5511 21.9908 50.8612M21.6037 49.931C21.1396 49.0784 20.8301 48.2259 20.5984 47.5275M20.5984 47.5275L21.2943 47.062" stroke="black" stroke-width="6.53676" stroke-miterlimit="2.613" stroke-linecap="round" stroke-linejoin="round"/>
<path fill-rule="evenodd" clip-rule="evenodd" d="M29.6461 14.9639L36.7604 21.9414C38.6164 23.8018 40.0082 25.5851 40.7811 26.826C40.4717 25.5075 40.2399 23.2593 40.1623 22.0967L40.0088 14.9639H47.1232V32.3309H39.3129L32.9721 25.6628C30.9615 23.4917 28.7191 21.0882 28.0232 20.0027C28.2555 21.3983 28.3326 23.4911 28.4096 24.8873L28.5643 32.3302H21.3723V14.9639H29.6461ZM71.714 18.3753C69.7816 17.6775 67.848 17.3674 65.7597 17.3674C63.2849 17.3674 60.8107 17.9882 59.4959 18.8407C58.0258 19.8486 57.4082 21.3219 57.4082 23.3376C57.4082 25.7411 57.8724 27.0591 58.9554 27.9893C60.4242 29.2302 62.8984 29.9274 66.0697 29.9274C68.3115 29.9274 70.2458 29.6173 72.4105 28.8418L75.813 31.0129C72.8746 32.0985 69.7816 32.6409 65.5279 32.6409C60.4242 32.6409 56.4806 31.8661 53.4646 30.2381C50.5263 28.6871 48.9797 26.5937 48.9797 24.0354C48.9797 21.865 49.8304 20.1593 51.5316 18.6083C54.3929 16.1271 59.7283 14.5762 65.6839 14.5762C69.3175 14.5762 73.0294 15.1969 75.04 15.9718L71.714 18.3753Z" fill="black"/>
<path fill-rule="evenodd" clip-rule="evenodd" d="M94.9889 18.3753C93.1336 17.6775 91.123 17.3674 89.0346 17.3674C86.5598 17.3674 84.1627 17.9882 82.7709 18.8407C81.3778 19.8486 80.6832 21.3219 80.6832 23.3376C80.6832 25.7411 81.1473 27.0591 82.2291 27.9893C83.7762 29.2302 86.1734 29.9274 89.4217 29.9274C91.5865 29.9274 93.5207 29.6173 95.6855 28.8418L99.165 31.0129C96.2267 32.0985 93.0553 32.6409 88.8799 32.6409C83.7762 32.6409 79.8332 31.8661 76.8166 30.2381C73.8012 28.6871 72.3324 26.5937 72.3324 24.0354C72.3324 21.865 73.1047 20.1593 74.8072 18.6083C77.6672 16.1271 83.0033 14.5762 88.9589 14.5762C92.6708 14.5762 96.3043 15.1969 98.315 15.9718L94.9889 18.3753Z" fill="black"/>
<path fill-rule="evenodd" clip-rule="evenodd" d="M102.259 11.9399C105.892 15.2736 108.135 19.228 108.6 23.5696C110.145 39.0755 88.1072 54.1173 59.2627 57.0632C57.0973 57.2956 54.9325 57.4503 52.8442 57.528C54.1583 57.528 55.5508 57.6057 56.8655 57.6057C87.7977 57.6057 112.853 44.6574 112.853 28.7637C112.853 22.4841 108.91 16.6692 102.259 11.9399ZM53.5401 0.775546C57.3303 0.387803 61.0409 0.232451 64.5987 0.232451C62.024 0.0750604 59.4451 -0.00244158 56.8655 5.86008e-05C26.011 5.86008e-05 0.956055 12.8701 0.956055 28.7644C0.956055 33.4166 3.12143 37.8359 6.91036 41.7897C5.44089 39.4639 4.43555 36.9827 4.2038 34.2692C2.58025 18.7626 24.6962 3.7215 53.5401 0.775546Z" fill="#F6D563"/>
</svg>
