<svg width="179" height="54" viewBox="0 0 179 54" fill="none" xmlns="http://www.w3.org/2000/svg">
<path fill-rule="evenodd" clip-rule="evenodd" d="M162.911 10.269C161.951 10.269 161.747 10.7262 161.747 11.4308V11.7882H163.115V13.2046H161.747V19.6296H159.673V13.2046H158.813V11.7882H159.673V11.2323C159.673 9.66213 160.685 8.80173 162.406 8.80173C162.76 8.80173 163.013 8.80173 163.315 8.85366V10.27L162.911 10.269ZM175.872 43.3586V33.6925C175.872 32.4787 175.212 31.4666 173.595 31.4666C172.686 31.4666 172.026 31.7222 171.469 32.2761C171.622 32.7312 171.674 33.1884 171.674 34.1486V43.3586H168.585V33.6925C168.585 32.5816 168.281 31.4167 166.307 31.4167C165.298 31.4167 164.94 31.5705 164.387 31.825V43.3586H161.301V30.6093C162.467 30.1012 164.133 29.4953 166.459 29.4953C168.383 29.4953 169.649 29.9494 170.407 30.6093C171.316 29.9505 172.531 29.4953 174.305 29.4953C177.541 29.4953 178.956 31.3678 178.956 33.6925V43.3586H175.872ZM143.527 22.7678C142.361 22.7678 141.45 22.5133 140.844 22.2078L141.299 20.9951C141.902 21.2697 142.559 21.4087 143.222 21.4024C144.537 21.4024 144.941 20.7914 144.941 19.7813V19.2732C144.692 19.426 144.187 19.6286 143.324 19.6286C141.4 19.6286 140.54 18.6674 140.54 17.0983V11.7872H142.616V16.9975C142.616 17.7062 142.867 18.2632 143.881 18.2632C144.384 18.2632 144.692 18.1114 144.941 18.0086V11.7872H147.019V19.3252C147.019 21.8046 145.549 22.7678 143.527 22.7678ZM137.986 19.7325C136.467 19.7325 135.712 18.9199 135.712 17.6054V13.2046H134.848V11.7882H135.712V10.1672L137.786 9.61428V11.7892H139.05V13.2056H137.786V17.4058C137.786 18.1135 138.138 18.3151 138.643 18.3151C138.9 18.3151 139.096 18.3151 139.351 18.2662V19.5787C139.149 19.6296 138.744 19.7325 137.986 19.7325ZM131.381 19.6296V11.7872H133.457V19.6296H131.381ZM127.095 19.7824C126.083 19.7824 125.274 19.5278 124.665 19.2264L125.172 17.9088C125.579 18.1125 126.134 18.368 126.793 18.368C127.548 18.368 128.006 18.1135 128.006 17.5066C128.006 16.9486 127.653 16.6961 126.739 16.3428C125.222 15.7369 124.921 14.8246 124.921 13.9642C124.921 12.6995 125.882 11.6375 127.602 11.6375C128.563 11.6375 129.269 11.891 129.828 12.1935L129.269 13.4082C128.84 13.154 128.352 13.0144 127.853 13.003C127.143 13.003 126.793 13.3074 126.793 13.8125C126.793 14.3715 127.348 14.571 128.056 14.8735C129.623 15.4813 129.979 16.3916 129.979 17.3529C129.979 18.7713 128.816 19.7824 127.095 19.7824ZM124.009 13.2046C123.856 13.1537 123.4 13.1028 123.047 13.1028C122.695 13.1028 122.389 13.1537 122.185 13.2046V19.6296H120.113V12.2413C120.416 12.0906 121.633 11.6864 122.997 11.6864C123.804 11.6864 124.009 11.7373 124.314 11.7882L124.009 13.2046ZM143.64 43.3586V33.8961C143.64 32.5816 143.083 31.6204 141.363 31.6204C140.401 31.6204 139.742 31.8719 139.086 32.2771V43.3596H136V25.1444H139.086V30.205C139.898 29.8496 141.059 29.5961 142.122 29.5961C145.513 29.5961 146.725 31.6204 146.725 33.6925V43.3586H143.64ZM102.263 10.826C101.501 10.826 101.147 10.3698 101.147 9.81284C101.147 9.2579 101.501 8.80071 102.263 8.80071C102.972 8.80071 103.375 9.2579 103.375 9.81284C103.374 10.3698 102.972 10.826 102.263 10.826ZM108.94 19.6296H106.967L104.284 11.7882H106.513L107.525 15.4803C107.625 15.8337 107.879 16.746 107.978 17.2011H108.028C108.078 16.746 108.332 15.8337 108.431 15.4803L109.495 11.7882H111.571L108.94 19.6296ZM101.18 19.6296V11.7872H103.254V19.6296H101.18ZM132.465 10.826C131.704 10.826 131.354 10.3698 131.354 9.81284C131.354 9.2579 131.704 8.80071 132.465 8.80071C133.173 8.80071 133.577 9.2579 133.577 9.81284C133.577 10.3698 133.173 10.826 132.465 10.826ZM97.5971 19.6296V14.1149C97.5971 13.5579 97.3466 13.0019 96.3325 13.0019C95.8274 13.0019 95.527 13.1028 95.2704 13.2046V19.6296H93.1963V12.2413C94.0577 11.889 95.1197 11.6355 96.4363 11.6355C98.8149 11.6355 99.6763 12.7983 99.6763 14.1149V19.6296H97.5971ZM106.226 28.027C105.062 28.027 104.456 27.2684 104.456 26.408C104.456 25.5496 105.063 24.789 106.226 24.789C107.338 24.789 107.993 25.5507 107.993 26.408C107.994 27.2684 107.338 28.027 106.226 28.027ZM117.534 43.3586V33.6925C117.534 32.5816 117.077 31.4167 115.102 31.4167C114.091 31.4167 113.584 31.5705 113.027 31.825V43.3586H109.941V30.6093C111.616 29.8744 113.426 29.4951 115.255 29.4953C119.301 29.4953 120.617 31.4676 120.617 33.6446V43.3586H117.534ZM88.1998 19.7824C86.1746 19.7824 84.6564 18.7193 84.6564 16.6452V9.66112H86.8344V16.6452C86.8344 17.6054 87.3384 18.1114 88.1998 18.1114C89.0572 18.1114 89.5643 17.6044 89.5643 16.6452V9.66112H91.7392V16.6452C91.7402 18.7183 90.2241 19.7824 88.1998 19.7824ZM104.683 43.3586V29.7488H107.773V43.3586H104.683ZM100.813 43.5093C98.1317 43.5093 97.0717 41.9931 97.0717 39.8161V31.7232H95.5545V29.7499H97.0717V27.0139L100.156 26.1565V29.7499H102.332V31.7232H100.156V39.8161C100.156 41.0309 100.813 41.3862 101.675 41.3862C101.928 41.3862 102.282 41.3862 102.586 41.3363V43.3586C102.282 43.4074 101.475 43.5093 100.813 43.5093ZM92.7676 43.5093C90.0876 43.5093 89.0246 41.9931 89.0246 39.8161V31.7232H87.5074V29.7499H89.0246V27.0139L92.1139 26.1565V29.7499H94.2878V31.7232H92.1139V39.8161C92.1139 41.0309 92.7686 41.3862 93.6331 41.3862C93.8836 41.3862 94.24 41.3862 94.5424 41.3363V43.3586C94.24 43.4074 93.4264 43.5093 92.7676 43.5093ZM70.4846 19.6296V14.1149C70.4846 13.507 70.1842 13.0019 69.2719 13.0019C68.7648 13.0019 68.4624 13.1537 68.16 13.3064V19.6296H66.0858V8.95344H68.16V11.9888C68.4614 11.8361 69.0703 11.6355 69.727 11.6355C71.8012 11.6355 72.5598 12.8523 72.5598 14.0629V19.6286L70.4846 19.6296ZM62.9476 11.2811V19.6296H60.7717V11.2811H58.7484V9.66112H65.0218V11.2811H62.9476ZM27.5273 9.05323V4.3999C29.8041 4.95688 31.474 5.71648 33.2447 6.68075V11.0286C31.475 10.2191 29.5516 9.51042 27.5273 9.05323ZM70.6373 43.3586L64.1603 32.4309C63.7571 31.7721 63.4527 31.1133 63.0993 30.3048H63.0505C63.1492 31.1632 63.2022 31.8719 63.2022 32.5307V43.3596H60.2147V26.0038H63.4038L69.4236 36.2248C69.7779 36.8307 70.0814 37.3866 70.3868 38.1951H70.4357C70.3329 37.3367 70.3329 36.7309 70.3329 36.124V26.0048H73.3194V43.3596L70.6373 43.3586ZM24.1865 32.4787L24.491 22.9684C24.491 22.3605 24.9451 21.9064 25.5031 21.9064C26.112 21.9064 26.5132 22.3616 26.5132 22.9684L26.8706 32.4787H24.1865ZM25.5031 50.644C22.2152 50.644 19.9364 49.6828 17.3053 48.3163C14.9786 47.1057 12.7019 46.343 9.71537 46.343C6.93458 46.343 3.59477 47.0507 0.00244141 49.2806C2.9879 44.8269 6.93458 43.5103 10.6267 43.5103C14.5734 43.5103 17.6596 44.724 20.4435 46.1434C23.0227 47.4549 25.0469 48.1137 27.8817 48.1137C30.2593 48.1137 32.8894 47.4559 35.3688 45.3838C32.2835 49.4303 28.6912 50.644 25.5031 50.644ZM154.453 11.6355C152.127 11.6355 151.013 13.3563 151.013 15.683C151.013 18.0626 152.127 19.7824 154.453 19.7824C156.78 19.7824 157.896 18.0626 157.896 15.683C157.895 13.3563 156.78 11.6355 154.453 11.6355ZM154.453 18.4139C153.389 18.4139 153.139 17.2011 153.139 15.6819C153.139 14.2157 153.389 13.0009 154.453 13.0009C155.517 13.0009 155.77 14.2157 155.77 15.6819C155.769 17.2011 155.516 18.4139 154.453 18.4139ZM153.91 29.4953C151.781 29.4953 150.162 30.1011 149.254 30.5054L149.96 32.38C150.773 31.9716 152.036 31.5175 153.35 31.5175C154.972 31.5175 156.032 31.9706 156.032 33.7444V34.503C155.779 34.4541 154.868 34.3014 154.06 34.3014C150.92 34.3014 148.393 35.9214 148.393 39.1573C148.393 41.7884 150.162 43.7608 154.007 43.7608C156.133 43.7608 157.855 43.3586 159.019 42.8016V34.2525C159.019 30.708 156.74 29.4953 153.91 29.4953ZM156.032 41.6377C155.451 41.8621 154.835 41.9824 154.212 41.9931C152.591 41.9931 151.477 40.9301 151.477 39.0535C151.477 37.2878 152.441 36.0711 154.315 36.0711C155.172 36.0711 155.729 36.2238 156.032 36.2747V41.6377ZM118.793 15.5292C118.793 13.0529 117.53 11.6355 115.402 11.6355C113.228 11.6355 111.913 13.1537 111.913 15.683C111.913 18.3131 113.379 19.7824 115.704 19.7824C116.921 19.7824 117.832 19.5278 118.486 19.1765L117.981 17.807C117.336 18.118 116.627 18.2746 115.911 18.2642C114.949 18.2642 114.087 17.8599 113.935 16.3418H118.793V15.5292ZM116.818 15.0252H113.887C113.887 13.507 114.492 12.95 115.352 12.95C116.162 12.95 116.817 13.4571 116.817 14.9264L116.818 15.0252ZM129.117 29.4953C124.716 29.4953 122.54 32.2761 122.54 36.681C122.54 40.9301 124.716 43.4573 128.003 43.4573C129.215 43.4573 130.129 43.2577 130.682 42.9523V43.8137C130.682 45.6323 129.723 46.7971 127.446 46.7971C125.928 46.7971 124.967 46.3929 124.157 46.0416L123.297 47.964C124.311 48.521 125.928 48.9721 128.003 48.9721C131.393 48.9721 133.72 47.1057 133.72 43.5103V30.4535C132.808 29.9494 131.193 29.4953 129.117 29.4953ZM130.682 40.981C130.14 41.2786 129.532 41.4345 128.914 41.4341C126.74 41.4341 125.776 39.8151 125.776 36.68C125.776 33.4389 126.792 31.4157 129.064 31.4157C129.723 31.4157 130.229 31.4666 130.683 31.7222V40.981H130.682ZM80.4358 15.5292C80.4358 13.0529 79.1711 11.6355 77.0461 11.6355C74.8701 11.6355 73.5546 13.1537 73.5546 15.683C73.5546 18.3131 75.0218 19.7824 77.3495 19.7824C78.5622 19.7824 79.4736 19.5278 80.1344 19.1765L79.6263 17.807C78.9794 18.1182 78.269 18.2747 77.5511 18.2642C76.5899 18.2642 75.7305 17.8599 75.5778 16.3418H80.4358V15.5292ZM78.4635 15.0252H75.5269C75.5269 13.507 76.1358 12.95 76.9952 12.95C77.8057 12.95 78.4635 13.4571 78.4635 14.9264V15.0252ZM80.9276 29.4953C77.0838 29.4953 75.1634 32.4309 75.1634 36.5761C75.1634 40.6745 77.0838 43.6101 80.9276 43.6101C84.7745 43.6101 86.6959 40.6745 86.6959 36.5761C86.6959 32.4309 84.7745 29.4953 80.9276 29.4953ZM81.1282 41.7385C79.0042 41.7385 78.6488 39.0076 78.6488 36.5771C78.6488 34.0987 79.0042 31.3688 81.1282 31.3688C83.2522 31.3688 83.6076 34.0998 83.6076 36.5771C83.6076 39.0076 83.2522 41.7385 81.1282 41.7385Z" fill="#00557E"/>
<path fill-rule="evenodd" clip-rule="evenodd" d="M27.5288 10.0673C26.314 9.76283 24.9995 9.56121 23.6839 9.41052V3.59233C22.2256 3.38726 20.7547 3.28553 19.2821 3.28788C17.8637 3.28788 16.4473 3.39072 15.0829 3.54244V9.05515C13.7673 9.20891 12.5006 9.46245 11.2869 9.76384V4.30204C9.15132 4.89369 7.09567 5.74303 5.16528 6.83133V18.1653L7.74447 20.6437L6.98589 33.3909L4.91174 35.4671V42.8534L5.62043 43.613C7.34023 42.7047 9.51518 41.9441 12.1463 41.9441C14.6756 41.9441 17.6112 42.6497 20.9001 44.4754V35.0649L19.5346 33.3411V20.2883L22.2166 16.139L21.1017 20.1346C21.8738 20.0342 22.6517 19.9846 23.4304 19.9859C26.0605 19.9859 28.4879 20.439 30.5641 21.2516L33.2451 18.7722V12.0437C31.4764 11.2321 29.553 10.5733 27.5288 10.0673ZM11.4376 32.4796L11.7421 22.9693C11.7421 22.3614 12.1962 21.9073 12.7552 21.9073C13.3142 21.9073 13.7673 22.3625 13.7673 22.9693L14.1217 32.4796H11.4376ZM47.3782 0H46.0423V54H47.9627V0H47.3782Z" fill="#00557E"/>
</svg>
