<svg width="135" height="68" viewBox="0 0 135 68" fill="none" xmlns="http://www.w3.org/2000/svg">
<path d="M5.9879 46.0355C4.42291 46.0355 3.31662 47.3306 3.31662 49.2194C3.31662 51.1352 4.42291 52.4573 5.98791 52.4573C6.7704 52.4573 7.41798 52.2415 7.95764 51.8097C8.41634 51.432 9.06393 51.378 9.54962 51.7288L9.60358 51.7558C10.3321 52.2954 10.3861 53.4287 9.68453 53.9953C9.22583 54.3731 8.65919 54.6969 8.06557 54.9128C3.55946 56.4778 -0.919666 52.1335 0.34852 47.3036C1.02309 44.7403 3.07377 43.1213 5.87997 43.1213C7.31005 43.1213 8.55126 43.5261 9.52263 44.2816C10.2512 44.8482 10.2782 46.0085 9.52264 46.5481L9.44169 46.6021C8.98298 46.9529 8.36238 46.9259 7.87669 46.5751C7.36402 46.2243 6.74342 46.0085 5.9879 46.0355ZM24.4171 49.1924C24.4171 52.8081 21.9886 55.2635 18.3999 55.2635C14.7843 55.2635 12.3558 52.8081 12.3558 49.1924C12.3558 45.5498 14.7843 43.1213 18.3999 43.1213C21.9886 43.1483 24.4171 45.5498 24.4171 49.1924ZM15.5668 49.2464C15.5668 51.1891 16.727 52.5113 18.3999 52.5113C20.0459 52.5113 21.2061 51.1891 21.2061 49.2464C21.2061 47.3036 20.0459 45.9815 18.3999 45.9815C16.727 45.9545 15.5668 47.3036 15.5668 49.2464ZM38.4751 40.423L38.4751 53.4557C38.4751 54.4001 37.7465 55.1556 36.8831 55.1556C35.9927 55.1556 35.2911 54.4001 35.2911 53.4557L35.2911 53.4017C34.5086 54.6159 33.2944 55.2905 31.7294 55.2905C28.5454 55.2905 26.4138 52.8351 26.4138 49.1654C26.4138 45.5498 28.4915 43.1213 31.6484 43.1213C33.2404 43.1213 34.4816 43.7959 35.2911 45.0101L35.2911 40.45C35.2911 39.5056 36.0196 38.7501 36.8831 38.7501C37.7465 38.7231 38.4751 39.5056 38.4751 40.423ZM35.2641 49.2464C35.2641 47.3036 34.1039 45.9545 32.4579 45.9545C30.785 45.9545 29.6247 47.3306 29.6247 49.2464C29.6517 51.1891 30.785 52.5383 32.4579 52.5383C34.1309 52.5383 35.2641 51.1891 35.2641 49.2464ZM51.4807 51.7828L51.7505 52.0526C52.2362 52.5113 52.2092 53.3478 51.6966 53.7795C50.5363 54.7778 49.1332 55.2905 47.5143 55.2905C43.9525 55.2905 41.5241 52.8621 41.5241 49.2194C41.5241 45.6307 43.7637 43.1483 47.2984 43.1483C50.2125 43.1213 52.2362 44.7942 52.7219 47.6004C52.8299 48.1671 52.4791 48.7337 51.9394 48.8686L46.8397 50.2987C45.8413 50.5685 45.7334 52.1066 46.7318 52.4573C47.0286 52.5653 47.3793 52.6192 47.7301 52.6192C48.5396 52.6192 49.3491 52.3224 50.0506 51.7288C50.5093 51.405 51.103 51.405 51.4807 51.7828ZM45.1128 48.6528L49.457 47.4116C49.5919 47.3576 49.6729 47.1957 49.6189 47.0608C49.2412 46.1164 48.4856 45.6577 47.5143 45.6577C46.0302 45.6577 45.0319 46.6021 44.816 48.3829C44.789 48.5448 44.9509 48.7067 45.1128 48.6528ZM66.4561 45.5767C65.7006 45.5767 65.1609 45.8466 65.1609 46.4672C65.1609 48.248 71.0971 47.3576 71.0701 51.5399C71.0701 53.9684 69.0464 55.2635 66.4831 55.2635C65.107 55.2635 63.7309 54.9397 62.5976 54.2921C62.0309 53.9684 61.7881 53.2128 62.0579 52.5922C62.3547 51.9447 63.0833 51.6748 63.7039 51.9986C64.6483 52.5113 65.6736 52.7811 66.564 52.7811C67.3735 52.7811 67.9941 52.4843 67.9941 51.8637C67.9941 49.9749 62.1659 50.9733 62.1659 46.791C62.1659 44.3355 64.1626 43.0674 66.591 43.0674C67.6973 43.0674 68.8036 43.3102 69.8289 43.7689C70.4765 44.0657 70.7733 44.8752 70.4495 45.5228L70.4226 45.5767C70.1257 46.1973 69.4512 46.4402 68.8576 46.1704C67.9671 45.8196 67.1307 45.5767 66.4561 45.5767ZM78.9761 46.0354C77.4111 46.0354 76.3048 47.3306 76.3048 49.2194C76.3048 51.1352 77.4111 52.4573 78.9761 52.4573C79.7586 52.4573 80.4062 52.2415 80.9458 51.8097C81.4045 51.432 82.0521 51.378 82.5378 51.7288L82.5918 51.7558C83.3203 52.2954 83.3742 53.4287 82.6727 53.9953C82.214 54.3731 81.6474 54.6969 81.0537 54.9128C76.5476 56.4777 72.0685 52.1335 73.3367 47.3036C74.0113 44.7403 76.0619 43.1213 78.8681 43.1213C80.2982 43.1213 81.5394 43.5261 82.5108 44.2816C83.2393 44.8482 83.2663 46.0085 82.5108 46.5481L82.4299 46.6021C81.9711 46.9529 81.3505 46.9259 80.8649 46.5751C80.3522 46.2243 79.7316 46.0085 78.9761 46.0354ZM97.9989 47.6544L97.9989 53.4287C97.9989 54.3731 97.2703 55.1286 96.3799 55.1286C95.4895 55.1286 94.7609 54.3731 94.7609 53.4287L94.7609 48.6528C94.7609 47.1417 93.9245 46.2243 92.5484 46.2243C90.9294 46.2513 89.958 47.5195 89.958 49.2734L89.958 53.4287C89.958 54.3731 89.2295 55.1286 88.3391 55.1286C87.4486 55.1286 86.7201 54.3731 86.7201 53.4287L86.7201 40.423C86.7201 39.4786 87.4486 38.7231 88.3391 38.7231C89.2295 38.7231 89.958 39.4786 89.958 40.423L89.958 45.3339C90.7405 43.8498 92.0897 43.1213 93.8435 43.0943C96.4069 43.1213 97.9989 44.8752 97.9989 47.6544ZM112.704 49.1924C112.704 52.8081 110.276 55.2635 106.687 55.2635C103.072 55.2635 100.643 52.8081 100.643 49.1924C100.643 45.5498 103.072 43.1213 106.687 43.1213C110.276 43.1483 112.704 45.5498 112.704 49.1924ZM103.854 49.2464C103.854 51.1891 105.014 52.5113 106.687 52.5113C108.333 52.5113 109.494 51.1891 109.494 49.2464C109.494 47.3036 108.333 45.9815 106.687 45.9815C105.014 45.9545 103.854 47.3036 103.854 49.2464ZM126.762 49.1924C126.762 52.8081 124.334 55.2635 120.745 55.2635C117.13 55.2635 114.701 52.8081 114.701 49.1924C114.701 45.5498 117.13 43.1213 120.745 43.1213C124.334 43.1483 126.762 45.5498 126.762 49.1924ZM117.912 49.2464C117.912 51.1891 119.072 52.5113 120.745 52.5113C122.391 52.5113 123.551 51.1891 123.551 49.2464C123.551 47.3036 122.391 45.9815 120.745 45.9815C119.072 45.9545 117.912 47.3036 117.912 49.2464ZM133.724 52.2684C134.345 52.2684 134.911 52.8081 134.965 53.4557L134.992 53.7795C135.073 54.4271 134.668 54.9937 134.075 55.1556C133.697 55.2635 133.319 55.2905 132.968 55.2905C131.08 55.2905 129.488 53.9683 129.488 51.1891L129.488 39.9913C129.488 39.2898 130.027 38.7231 130.675 38.7231L131.484 38.7231C132.132 38.7231 132.672 39.2898 132.672 39.9913L132.672 50.9733C132.726 51.8637 133.157 52.2684 133.724 52.2684Z" fill="#454446"/>
<path d="M60.1678 34.9187C57.9012 33.9743 56.8219 31.411 57.7663 29.1714L69.0991 2.70138C70.0704 0.46182 72.6878 -0.590508 74.9543 0.353886C77.2209 1.29828 78.3002 3.86164 77.3558 6.1012L66.023 32.5712C65.0786 34.8108 62.4343 35.8631 60.1678 34.9187Z" fill="url(#paint0_linear_137_1291)"/>
<path d="M33.6457 20.7531C31.8918 19.0532 31.8918 16.274 33.6187 14.5471L47.0291 1.29856C48.783 -0.428331 51.6162 -0.428333 53.3431 1.27158C55.0969 2.97149 55.0969 5.7507 53.37 7.47759L39.9597 20.7261C38.2328 22.453 35.3996 22.48 33.6457 20.7531Z" fill="url(#paint1_linear_137_1291)"/>
<path d="M53.3701 27.7688L43.4944 18.0281L42.8468 17.4075C41.3088 15.6266 38.0978 10.1491 47.0291 1.29883L33.6457 14.5203C31.8918 16.2203 31.8918 18.9995 33.6187 20.7264L47.0291 33.9749C48.783 35.7018 51.6162 35.7018 53.3431 34.0018C55.0969 32.275 55.0969 29.4957 53.3701 27.7688Z" fill="url(#paint2_linear_137_1291)"/>
<path d="M101.506 14.5206C103.26 16.2205 103.26 18.9997 101.533 20.7266L88.1229 33.9751C86.369 35.702 83.5358 35.702 81.8089 34.0021C80.055 32.3022 80.055 29.523 81.7819 27.7961L95.1923 14.5476C96.9192 12.8207 99.7524 12.8207 101.506 14.5206Z" fill="url(#paint3_linear_137_1291)"/>
<path d="M81.7819 7.50458L91.6576 17.2453L92.3052 17.8659C93.8432 19.6468 97.0541 25.1243 88.1229 33.9746L101.506 20.7531C103.26 19.0532 103.26 16.274 101.533 14.5471L88.1229 1.29856C86.369 -0.42833 83.5358 -0.428331 81.8089 1.27158C80.055 2.99847 80.055 5.77769 81.7819 7.50458Z" fill="url(#paint4_linear_137_1291)"/>
<path opacity="0.8" d="M26.0357 60.2297L26.0357 66.1389C26.0357 66.2468 25.9548 66.3278 25.8469 66.3278L25.631 66.3278C25.5231 66.3278 25.4421 66.2468 25.4421 66.1389L25.4421 66.004C25.4421 65.8151 25.2262 65.7341 25.0913 65.869C24.7675 66.1928 24.3088 66.3817 23.7962 66.3817C22.5819 66.3817 21.7455 65.4373 21.7455 64.1152C21.7455 62.793 22.5819 61.8486 23.7692 61.8486C24.3088 61.8486 24.7406 62.0375 25.0913 62.3613C25.2262 62.4962 25.4421 62.3883 25.4421 62.2264L25.4421 60.2566C25.4421 60.1487 25.5231 60.0678 25.631 60.0678L25.8469 60.0678C25.9548 60.0138 26.0357 60.0947 26.0357 60.2297ZM25.4151 64.0882C25.4151 63.0898 24.7675 62.3883 23.8771 62.3883C22.9867 62.3883 22.3391 63.0898 22.3391 64.0882C22.3391 65.0865 22.9867 65.7881 23.8771 65.7881C24.7945 65.7881 25.4151 65.0865 25.4151 64.0882ZM31.7291 65.2754C31.837 65.3834 31.837 65.5453 31.7291 65.6532C31.2974 66.1389 30.7577 66.3547 30.1371 66.3547C28.8689 66.3547 27.9785 65.4373 27.9785 64.0882C27.9785 62.793 28.8149 61.8486 30.0562 61.8216C31.0275 61.8216 31.7291 62.3883 31.9449 63.3327C31.9719 63.4676 31.918 63.6025 31.783 63.6565L28.9768 64.6818C28.8149 64.7358 28.761 64.8977 28.8419 65.0596C29.1118 65.5453 29.5705 65.8421 30.1641 65.8421C30.6228 65.8421 31.0005 65.6802 31.3513 65.3294C31.4593 65.1675 31.6211 65.1675 31.7291 65.2754ZM28.6261 64.0612L28.6261 64.2501L31.1085 63.3327C31.2704 63.2787 31.3243 63.0898 31.2434 62.9279C31.0005 62.5502 30.5958 62.3613 30.1101 62.3613C29.2197 62.3883 28.6261 63.0089 28.6261 64.0612ZM33.8337 61.9566L34.994 65.2484C35.048 65.3834 35.2368 65.3834 35.2908 65.2484L36.451 61.9566C36.478 61.9026 36.532 61.8486 36.586 61.8486L36.8828 61.8486C36.9907 61.8486 37.0717 61.9566 37.0177 62.0645L35.5067 66.2198C35.4797 66.2738 35.4257 66.3278 35.3717 66.3278L34.94 66.3278C34.8861 66.3278 34.8051 66.3008 34.8051 66.2198L33.2401 62.0645C33.2131 61.9566 33.2671 61.8486 33.375 61.8486L33.6988 61.8486C33.7528 61.8486 33.8067 61.9026 33.8337 61.9566ZM41.8476 65.2754C41.9555 65.3834 41.9555 65.5453 41.8476 65.6532C41.4159 66.1389 40.8762 66.3547 40.2556 66.3547C38.9874 66.3547 38.097 65.4373 38.097 64.0882C38.097 62.793 38.9335 61.8486 40.1747 61.8216C41.146 61.8216 41.8476 62.3883 42.0634 63.3327C42.0904 63.4676 42.0365 63.6025 41.9016 63.6565L39.0953 64.6818C38.9335 64.7358 38.8795 64.8977 38.9604 65.0596C39.2303 65.5453 39.689 65.8421 40.2826 65.8421C40.7413 65.8421 41.1191 65.6802 41.4698 65.3294C41.5778 65.1675 41.7397 65.1675 41.8476 65.2754ZM38.7446 64.0612L38.7446 64.2501L41.227 63.3327C41.3889 63.2787 41.4429 63.0898 41.3619 62.9279C41.1191 62.5502 40.7143 62.3613 40.2286 62.3613C39.3382 62.3883 38.7446 63.0089 38.7446 64.0612ZM44.9506 65.7341C45.0046 65.7341 45.0585 65.7341 45.1125 65.7071C45.2744 65.6532 45.4363 65.7341 45.4633 65.896L45.4633 65.923C45.4902 66.0309 45.4363 66.1389 45.3284 66.1928C45.1395 66.3008 44.9506 66.3547 44.7887 66.3547C44.276 66.3547 43.9253 65.977 43.9253 65.2484L43.9253 60.2566C43.9253 60.1217 44.0332 60.0138 44.1681 60.0138L44.276 60.0138C44.4109 60.0138 44.5189 60.1217 44.5189 60.2566L44.5189 65.1675C44.5189 65.5722 44.6808 65.7341 44.9506 65.7341ZM50.9947 64.0882C50.9947 65.4103 50.1043 66.3547 48.8361 66.3547C47.5679 66.3547 46.6775 65.4103 46.6775 64.0882C46.6775 62.766 47.5679 61.8216 48.8361 61.8216C50.1043 61.8216 50.9947 62.766 50.9947 64.0882ZM47.3251 64.0882C47.3251 65.0865 47.9457 65.7611 48.8361 65.7611C49.7265 65.7611 50.3471 65.0865 50.3471 64.0882C50.3471 63.0898 49.6995 62.4153 48.8361 62.4153C47.9457 62.4153 47.3251 63.0898 47.3251 64.0882ZM57.2277 64.0882C57.2277 65.4103 56.4182 66.3547 55.204 66.3547C54.6374 66.3547 54.1787 66.1659 53.8549 65.8151C53.747 65.7071 53.5581 65.7881 53.5581 65.95L53.5581 67.8118C53.5581 67.9197 53.4771 68.0007 53.3692 68.0007L53.0994 68.0007C52.9914 68.0007 52.9105 67.9197 52.9105 67.8118L52.9105 62.0375C52.9105 61.9296 52.9914 61.8486 53.0994 61.8486L53.3692 61.8486C53.4771 61.8486 53.5581 61.9296 53.5581 62.0375L53.5581 62.2534C53.5581 62.4153 53.747 62.4962 53.8549 62.3883C54.1787 62.0375 54.6374 61.8486 55.177 61.8486C56.3913 61.8216 57.2277 62.766 57.2277 64.0882ZM56.6071 64.0882C56.6071 63.1168 55.9865 62.4153 55.0961 62.4153C54.2057 62.4153 53.5851 63.1168 53.5851 64.0882C53.5851 65.0865 54.2057 65.7611 55.0961 65.7611C55.9865 65.7611 56.6071 65.0596 56.6071 64.0882ZM65.8892 61.8486C66.0241 61.8486 66.105 61.9566 66.105 62.0645L66.105 65.8151C66.105 67.1642 65.3225 67.9737 64.0543 67.9737C63.4607 67.9467 62.8671 67.7308 62.4354 67.3531C62.3544 67.2991 62.3544 67.1912 62.3814 67.1102L62.4084 67.0563C62.4624 66.9214 62.6243 66.8674 62.7322 66.9753C63.083 67.2452 63.5417 67.4071 64.0004 67.434C64.9178 67.434 65.4844 66.8404 65.4844 65.8421L65.4844 65.0056C65.2146 65.6262 64.6749 65.95 63.9464 65.95C62.8941 65.95 62.2465 65.2754 62.2465 64.1961L62.2465 62.0645C62.2465 61.9296 62.3544 61.8486 62.4624 61.8486L62.6512 61.8486C62.7862 61.8486 62.8671 61.9566 62.8671 62.0645L62.8671 64.0342C62.8671 64.8437 63.3258 65.3024 64.0813 65.3024C64.9717 65.2754 65.5114 64.6278 65.5114 63.5755L65.5114 62.0645C65.5114 61.9296 65.6193 61.8486 65.7273 61.8486L65.8892 61.8486ZM72.2031 64.0882C72.2031 65.4103 71.3127 66.3547 70.0445 66.3547C68.7763 66.3547 67.8859 65.4103 67.8859 64.0882C67.8859 62.766 68.7763 61.8216 70.0445 61.8216C71.3127 61.8216 72.2031 62.766 72.2031 64.0882ZM68.5335 64.0882C68.5335 65.0865 69.1541 65.7611 70.0445 65.7611C70.9349 65.7611 71.5555 65.0865 71.5555 64.0882C71.5555 63.0898 70.9079 62.4153 70.0445 62.4153C69.181 62.4153 68.5335 63.0898 68.5335 64.0882ZM77.7885 62.1184L77.7885 66.0849C77.7885 66.2198 77.6806 66.3278 77.5457 66.3278L77.4378 66.3278C77.3028 66.3278 77.1949 66.2198 77.1949 66.0849L77.1949 65.5452C77.1949 65.4913 77.1409 65.4643 77.114 65.5183C76.8172 66.0849 76.2775 66.3547 75.6029 66.3547C74.6046 66.3547 74.011 65.6802 74.011 64.6009L74.011 62.0915C74.011 61.9566 74.1189 61.8486 74.2538 61.8486L74.3617 61.8486C74.4966 61.8486 74.6046 61.9566 74.6046 62.0915L74.6046 64.412C74.6046 65.2215 75.0363 65.6802 75.7648 65.6802C76.6283 65.6532 77.1679 64.9786 77.1679 64.0072L77.1679 62.0645C77.1679 61.9296 77.2759 61.8216 77.4108 61.8216L77.5187 61.8216C77.6806 61.8486 77.7885 61.9565 77.7885 62.1184ZM82.2677 61.9566L82.2677 62.3343C82.2677 62.4153 82.2137 62.4692 82.1327 62.4692C81.3233 62.5232 80.8106 63.0898 80.7566 63.9263L80.7566 66.1658C80.7566 66.2468 80.7027 66.3008 80.6217 66.3008L80.2709 66.3008C80.19 66.3008 80.136 66.2468 80.136 66.1658L80.136 61.9566C80.136 61.8756 80.19 61.8216 80.2709 61.8216L80.6217 61.8216C80.7027 61.8216 80.7566 61.8756 80.7566 61.9566L80.7566 62.4962C80.7566 62.5772 80.8646 62.6041 80.8915 62.5232C81.1614 62.0915 81.5931 61.8216 82.1327 61.7677C82.2137 61.8216 82.2677 61.9026 82.2677 61.9566ZM87.6912 61.3629L87.6912 61.7677C87.6912 61.8756 87.7721 61.9835 87.907 61.9835L88.6895 61.9835C88.7975 61.9835 88.9054 62.0645 88.9054 62.1994L88.9054 62.3073C88.9054 62.4153 88.8244 62.5232 88.6895 62.5232L87.907 62.5232C87.7991 62.5232 87.6912 62.6041 87.6912 62.739L87.6912 66.1389C87.6912 66.2468 87.6102 66.3547 87.4753 66.3547L87.2594 66.3547C87.1515 66.3547 87.0436 66.2738 87.0436 66.1389L87.0436 61.4709C87.0436 60.4995 87.6912 59.9868 88.3927 59.9868C88.6626 59.9868 88.9054 60.0678 89.1482 60.1757C89.2292 60.2297 89.2832 60.3376 89.2292 60.4455L89.1482 60.6074C89.0943 60.7153 88.9863 60.7423 88.8784 60.6884C88.7165 60.6074 88.5546 60.5804 88.4197 60.5534C88.015 60.5534 87.6912 60.8503 87.6912 61.3629ZM94.0321 62.0915L94.0321 66.0849C94.0321 66.2198 93.9242 66.3278 93.7893 66.3278L93.6274 66.3278C93.4925 66.3278 93.3845 66.2198 93.3845 66.0849L93.3845 65.8151C93.3845 65.6802 93.2226 65.6262 93.1417 65.7341C92.8179 66.1389 92.3592 66.3547 91.7656 66.3547C90.7672 66.3547 90.1736 65.6802 90.1736 64.6009L90.1736 62.0915C90.1736 61.9566 90.2815 61.8486 90.4164 61.8486L90.5783 61.8486C90.7132 61.8486 90.8212 61.9566 90.8212 62.0915L90.8212 64.439C90.8212 65.2484 91.2529 65.7071 91.9814 65.7071C92.8449 65.6802 93.3845 65.0056 93.3845 64.0342L93.3845 62.0645C93.3845 61.9296 93.4925 61.8216 93.6274 61.8216L93.7893 61.8216C93.9242 61.8486 94.0321 61.9566 94.0321 62.0915ZM98.2414 65.842C98.2684 65.95 98.2414 66.0579 98.1605 66.1119C97.8906 66.2738 97.6208 66.3547 97.351 66.3547C96.7034 66.3547 96.2447 65.869 96.2447 64.9246L96.2447 61.0391C96.2447 60.9312 96.3526 60.8233 96.4605 60.8233L96.6494 60.8233C96.7574 60.8233 96.8653 60.9312 96.8653 61.0391L96.8653 61.7677C96.8653 61.8756 96.9732 61.9835 97.0812 61.9835L97.9986 61.9835C98.1065 61.9835 98.2144 62.0915 98.2144 62.1994L98.2144 62.2803C98.2144 62.3883 98.1065 62.4962 97.9986 62.4962L97.0812 62.4962C96.9732 62.4962 96.8653 62.6041 96.8653 62.7121L96.8653 64.7897C96.8653 65.4373 97.0542 65.7341 97.4319 65.7341C97.5668 65.7341 97.7287 65.6802 97.8906 65.6262C97.9986 65.5722 98.1335 65.6262 98.1874 65.7341L98.2414 65.842ZM103.719 62.0645L103.719 66.0849C103.719 66.2198 103.611 66.3008 103.503 66.3008L103.314 66.3008C103.179 66.3008 103.098 66.1928 103.098 66.0849L103.098 65.7611C103.098 65.6532 102.936 65.5992 102.882 65.6802C102.559 66.1119 102.1 66.3008 101.506 66.3008C100.508 66.3008 99.9143 65.6262 99.9143 64.5469L99.9143 62.0105C99.9143 61.8756 100.022 61.7947 100.13 61.7947L100.319 61.7947C100.454 61.7947 100.535 61.9026 100.535 62.0105L100.535 64.385C100.535 65.1945 100.967 65.6532 101.695 65.6532C102.559 65.6262 103.098 64.9516 103.098 63.9803L103.098 62.0105C103.098 61.8756 103.206 61.7947 103.314 61.7947L103.503 61.7947C103.611 61.8486 103.719 61.9565 103.719 62.0645ZM108.198 62.0645L108.198 62.2803C108.198 62.3883 108.117 62.4692 108.009 62.4962C107.227 62.5502 106.741 63.1168 106.687 63.9533L106.687 66.1119C106.687 66.2198 106.606 66.3277 106.471 66.3277L106.255 66.3277C106.147 66.3277 106.039 66.2468 106.039 66.1119L106.039 62.0645C106.039 61.9565 106.12 61.8486 106.255 61.8486L106.471 61.8486C106.579 61.8486 106.687 61.9296 106.687 62.0645L106.687 62.4692C106.687 62.5772 106.822 62.6041 106.876 62.5232C107.146 62.1454 107.496 61.9026 107.982 61.8486C108.09 61.8216 108.198 61.9296 108.198 62.0645ZM113.163 65.2754C113.271 65.3833 113.271 65.5453 113.19 65.6532C112.758 66.1389 112.218 66.3547 111.598 66.3547C110.33 66.3547 109.439 65.4373 109.439 64.0882C109.439 62.793 110.276 61.8486 111.517 61.8216C112.488 61.8216 113.217 62.3883 113.406 63.3327C113.433 63.4676 113.379 63.6025 113.244 63.6295L110.411 64.6548C110.276 64.7088 110.195 64.8707 110.276 65.0056C110.546 65.4913 111.004 65.7881 111.598 65.7881C112.057 65.7881 112.434 65.6262 112.785 65.2754C112.893 65.1675 113.055 65.1675 113.163 65.2754ZM110.06 64.0612L110.06 64.2501L112.542 63.3327C112.704 63.2787 112.758 63.0898 112.677 62.9549C112.434 62.5771 112.03 62.3883 111.544 62.3883C110.653 62.3883 110.06 63.0089 110.06 64.0612Z" fill="#454446"/>
<defs>
<linearGradient id="paint0_linear_137_1291" x1="43.3778" y1="72.8726" x2="71.0469" y2="9.67776" gradientUnits="userSpaceOnUse">
<stop stop-color="#120A34"/>
<stop offset="0.488" stop-color="#2E0B7E"/>
<stop offset="1" stop-color="#3A4FCF"/>
</linearGradient>
<linearGradient id="paint1_linear_137_1291" x1="29.3099" y1="25.1507" x2="52.8914" y2="1.64772" gradientUnits="userSpaceOnUse">
<stop stop-color="#120A34"/>
<stop offset="0.488" stop-color="#2E0B7E"/>
<stop offset="1" stop-color="#3A4FCF"/>
</linearGradient>
<linearGradient id="paint2_linear_137_1291" x1="38.3264" y1="9.01399" x2="59.1945" y2="29.8821" gradientUnits="userSpaceOnUse">
<stop stop-color="#08C8F6"/>
<stop offset="0.999" stop-color="#4D5DFB"/>
</linearGradient>
<linearGradient id="paint3_linear_137_1291" x1="105.837" y1="10.1305" x2="82.2549" y2="33.6338" gradientUnits="userSpaceOnUse">
<stop stop-color="#120A34"/>
<stop offset="0.488" stop-color="#2E0B7E"/>
<stop offset="1" stop-color="#3A4FCF"/>
</linearGradient>
<linearGradient id="paint4_linear_137_1291" x1="96.8245" y1="26.2562" x2="75.9564" y2="5.38779" gradientUnits="userSpaceOnUse">
<stop stop-color="#08C8F6"/>
<stop offset="0.999" stop-color="#4D5DFB"/>
</linearGradient>
</defs>
</svg>
