<svg width="130" height="49" viewBox="0 0 130 49" fill="none" xmlns="http://www.w3.org/2000/svg">
<path fill-rule="evenodd" clip-rule="evenodd" d="M0.320801 0H36.8124V47.9941H0.320801V0Z" fill="black"/>
<path fill-rule="evenodd" clip-rule="evenodd" d="M14.3094 46.0693V45.0872H14.8987V46.0693H14.3094ZM15.282 46.0693V45.0872H15.7834V46.0693H15.282ZM17.7579 45.9792V44.9985H18.5238V45.9792H17.7579ZM18.9364 45.9792V45.1773V44.9985H19.5257V45.9792H18.9364ZM19.909 45.9792V44.9985H20.4983C20.5276 45.1172 20.5569 45.236 20.5862 45.3848V45.9792H19.909ZM22.3555 45.9792V44.8798H22.9448C22.9741 45.0872 23.0041 45.2961 23.0628 45.5343C23.0628 45.5929 23.0628 45.653 23.0921 45.7417C23.0628 45.8018 23.0628 45.8905 23.0628 45.9792H22.3555ZM23.3574 45.9792V44.8798H24.0354C24.0647 45.236 24.0947 45.5929 24.124 45.9792H23.3574ZM17.7579 44.6423V43.6902H18.5238V44.7009C18.2584 44.6724 17.9939 44.6423 17.7579 44.6423ZM18.8191 44.7009V43.6902H19.5264V44.7009H18.8191ZM19.909 44.7009L19.8203 43.809C20.0263 43.7503 20.2623 43.7203 20.4983 43.6902V44.7009H19.909ZM12.129 40.0344V39.8856H12.247C12.3357 39.9157 12.4236 39.9457 12.5416 39.9758C12.3943 39.9758 12.2463 40.0044 12.129 40.0344ZM12.5409 39.9758C12.4229 39.9457 12.3349 39.9157 12.2463 39.8856C13.3955 38.1317 13.3955 38.1317 15.1933 35.7842C15.2234 35.694 15.2527 35.6354 15.282 35.5753C15.636 35.1004 15.9893 34.6247 16.3726 34.1783L16.4613 34.001C16.8439 33.496 17.2272 32.9903 17.6399 32.5139C17.661 32.4359 17.7016 32.3645 17.7579 32.3064C17.8465 32.1577 17.9345 32.0389 18.0525 31.9202C18.0818 31.8315 18.1119 31.7714 18.1412 31.7128C18.4058 31.3265 18.7011 30.9395 18.9958 30.5533C19.4971 31.1176 19.9977 31.7128 20.499 32.3072C20.5283 32.3673 20.5576 32.4259 20.5869 32.5146L21.2942 33.4066L21.3829 33.5854C21.9429 34.27 22.5028 34.9523 23.0628 35.6669C23.0921 35.7255 23.1221 35.7856 23.1514 35.8743C23.534 36.3192 23.9174 36.7963 24.33 37.2713C24.3593 37.3314 24.3886 37.39 24.448 37.4501C24.684 37.7763 24.9493 38.1031 25.2139 38.4594C25.2423 38.5255 25.2823 38.586 25.3319 38.6382C25.6265 39.0244 25.9212 39.4114 26.2158 39.8277H25.8039C24.7133 38.4593 23.6227 37.1225 22.5614 35.7849C22.5321 35.6948 22.5028 35.6361 22.4735 35.576C21.6482 34.5067 20.8229 33.4359 19.9977 32.3951L19.909 32.2178C19.6218 31.8933 19.3269 31.5759 19.0243 31.2657C18.8883 31.4069 18.7605 31.556 18.6418 31.712C18.5853 31.7699 18.5446 31.8413 18.5238 31.9195C16.5199 34.5946 14.5161 37.2698 12.5409 39.9758ZM23.534 39.9758C23.416 39.9457 23.3281 39.9457 23.2394 39.9457H19.113V39.0537H22.7674V37.8642V36.7648C23.5333 37.7755 24.3293 38.7862 25.1252 39.827C24.6327 39.8497 24.1411 39.8893 23.6513 39.9457C23.5934 39.9457 23.5633 39.9457 23.534 39.9758ZM16.078 38.6374V38.3399V38.1625V36.4086C16.078 35.7541 17.1678 35.694 17.4632 36.1712C17.4925 36.2298 17.5219 36.2899 17.5519 36.3786V38.6374H16.078ZM18.2291 38.6374L18.1412 35.7842V35.5753V35.189L18.2291 34.8328C18.3772 34.5367 18.5238 34.4466 18.8191 34.388C18.8778 34.3579 18.9371 34.3279 19.0251 34.2978H19.231C19.2611 34.2978 19.2904 34.2978 19.3197 34.3279C19.3783 34.3279 19.4377 34.3579 19.5257 34.388C19.585 34.4165 19.6437 34.4466 19.7023 34.4766C20.3803 35.5174 20.145 37.39 20.2036 38.6382L18.2291 38.6374ZM20.7936 36.3786C20.8229 36.2899 20.8523 36.2298 20.8816 36.1712C21.1176 36.0224 21.3536 35.9036 21.5889 35.7849C22.6794 36.3192 22.3254 37.4787 22.3548 38.6382H20.7929L20.7936 36.3786ZM14.1035 35.933C14.1335 35.7241 14.1629 35.5167 14.1922 35.3378C14.2222 35.1004 14.2515 34.8929 14.3102 34.6833C14.3395 34.4459 14.3688 34.2084 14.3989 34.0002L14.4875 33.1083C14.5498 33.0707 14.6208 33.05 14.6935 33.0482H16.462C16.2554 33.3157 16.0494 33.5832 15.872 33.8815C15.8427 33.9401 15.8134 34.0002 15.7834 34.0889C15.2234 34.8021 14.6634 35.5159 14.1335 36.2291C14.1035 36.1103 14.1035 36.0216 14.1035 35.933ZM24.0354 36.1103C23.6912 35.6119 23.3572 35.1066 23.0334 34.5946H23.9474L24.0354 36.1103ZM20.5869 35.0696C20.5614 34.9599 20.5321 34.8511 20.499 34.7434C20.0563 34.2084 19.9684 34.119 19.3204 33.8815C19.2318 33.8515 19.1731 33.8515 19.1138 33.8515C19.0844 33.227 19.0844 32.6033 19.0844 31.9788C19.1438 32.0375 19.2318 32.1276 19.3204 32.2163L19.4091 32.3937C20.1457 33.3758 20.9124 34.3564 21.6783 35.3671C21.4723 35.3972 21.2656 35.4258 21.089 35.4859C20.9124 35.5746 20.735 35.6647 20.5877 35.7834L20.5869 35.0696ZM23.652 32.9903C23.6814 33.109 23.7107 33.2578 23.7407 33.4051V33.8815C23.2687 33.8515 22.7974 33.8515 22.3262 33.8515C22.1195 33.5253 21.9429 33.197 21.7662 32.8994C22.3848 32.9294 23.0041 32.9602 23.652 32.9903ZM14.7814 31.4137C15.2234 31.3837 15.6947 31.3551 16.1667 31.3251C16.6973 31.3251 17.2272 31.3251 17.7579 31.3551C17.5519 31.5926 17.3745 31.8601 17.1979 32.1283C16.3726 32.2757 15.4594 32.217 14.6041 32.187C14.6634 31.9195 14.7221 31.6512 14.7814 31.4137ZM21.1469 32.217C20.5862 31.5024 20.5862 31.5024 20.5862 31.3251H23.4453L23.534 32.217H21.1469ZM23.1514 29.6906L23.2401 30.1355V30.5218C19.939 30.4917 19.939 30.4917 19.7624 30.403C19.5858 30.1656 19.4384 29.9281 19.2904 29.6899L23.1514 29.6906ZM14.3981 29.2436C14.6041 28.8287 14.6041 28.8287 14.7814 28.7386H21.2942C21.3829 28.7085 21.4716 28.6799 21.5889 28.6499H23.3574C23.4168 28.7085 23.4754 28.7686 23.534 28.8287C23.5633 28.8874 23.6432 29.1006 23.7026 29.1893C20.6141 29.3579 17.4962 29.2436 14.3981 29.2436ZM16.4613 24.2208C16.4906 24.3095 16.5199 24.3997 16.5793 24.4883V28.3516H15.1941C15.1941 26.9546 15.1941 25.5577 15.2241 24.19C15.724 23.8639 15.96 23.8338 16.4613 24.2208ZM17.2565 28.3516V24.3689C17.6399 23.7144 18.1119 23.8338 18.5238 24.3689V28.3516H17.2565ZM20.8816 24.2795V28.2336H19.6144C19.6151 27.6978 18.9364 22.3174 20.8816 24.2795ZM21.6775 28.2328V24.6371V24.1314C21.7955 24.0127 21.9128 23.8939 22.0308 23.8045C22.4434 23.8346 22.6501 23.8939 22.8561 24.2208L22.9448 28.2035C22.5221 28.1976 22.0994 28.2074 21.6775 28.2328ZM20.7049 23.4776C20.6055 23.4519 20.5072 23.4221 20.4103 23.3882H20.2036C20.1042 23.4139 20.0059 23.4437 19.909 23.4776C19.8312 23.4992 19.7601 23.54 19.7023 23.5964L19.5257 23.6858C19.3197 23.8346 19.3197 23.8346 18.9364 23.8939V22.5857C19.4084 22.5556 19.909 22.5556 20.4103 22.5556C20.4404 22.5256 20.4689 22.4962 20.499 22.4962H23.3574V23.7737H23.1514C22.9741 23.655 22.7974 23.5663 22.6501 23.4769C21.7655 23.3875 21.7655 23.3875 21.7655 23.4769C21.6256 23.5592 21.4968 23.6589 21.3822 23.7737C21.3528 23.8338 21.3235 23.8932 21.2935 23.9826C21.0883 23.8038 20.8816 23.6257 20.7049 23.4776ZM15.282 20.8017H15.8713C15.9307 20.7724 15.9893 20.7724 16.078 20.7724C16.108 20.7424 16.1374 20.713 16.1667 20.713L22.1789 20.6236H22.2675C22.3562 20.6537 22.4442 20.683 22.5622 20.713C22.8861 21.0399 23.5348 21.4562 23.2401 21.9612C20.4404 21.9612 17.6699 21.9612 14.8994 21.9913C14.8115 21.9612 14.7228 21.9612 14.6642 21.9612V21.3961C14.8694 21.188 15.0761 20.9806 15.282 20.8017ZM18.9364 17.9785C18.877 15.5708 18.8477 13.1632 18.8184 10.7555V7.69336C18.8477 7.69336 18.877 7.72341 18.9364 7.75273C18.9958 8.58533 19.0544 9.44725 19.113 10.3092V13.3413C19.1431 14.3219 19.1724 15.3033 19.231 16.314L19.3197 19.5242V19.8218H18.9364V17.9785ZM19.821 19.8211C19.7617 19.4348 19.7324 19.0772 19.703 18.721C19.585 16.8776 19.4971 15.0351 19.4084 13.1925L19.3197 11.8549L19.231 10.3986V8.97159H19.3197C19.349 9.2391 19.3784 9.50662 19.4084 9.80419C19.4971 11.2011 19.585 12.5981 19.703 14.0251C19.7324 14.3219 19.7624 14.6488 19.821 14.9757L19.9097 16.0458L19.9984 16.937C20.057 17.8883 20.1164 18.8397 20.2044 19.8211H19.821ZM20.5869 17.9785C20.5576 17.7703 20.5283 17.5622 20.499 17.3834C20.4689 17.1459 20.4404 16.9084 20.4103 16.6995C20.3509 16.4914 20.3216 16.2832 20.2923 16.1044C20.263 15.8669 20.2337 15.6588 20.2036 15.4506C20.1149 14.7969 20.0563 14.1431 19.9977 13.5187C19.9684 13.3105 19.9383 13.1023 19.909 12.9242C19.8789 12.7161 19.8496 12.5079 19.8203 12.3291C19.7609 12.0909 19.7316 11.8534 19.7023 11.6453C19.6144 10.6646 19.6144 10.6646 19.7023 10.6646C19.7316 10.7541 19.7617 10.8728 19.8203 10.9915C19.8496 11.1403 19.8789 11.3184 19.909 11.4965C19.9383 11.6746 19.9684 11.8828 19.9977 12.0909C20.0563 12.5966 20.1157 13.1309 20.2036 13.6667C20.2337 13.8155 20.263 13.9936 20.2923 14.1717C20.3224 14.3205 20.3517 14.4993 20.4103 14.6774C20.4404 14.8555 20.4689 15.0637 20.499 15.2718L20.5869 15.8068C20.6463 16.3118 20.7049 16.8469 20.7936 17.3819C20.8229 17.5307 20.8523 17.7088 20.8816 17.8869C20.9116 18.0357 20.9409 18.2138 20.9996 18.3919C21.0289 18.5406 21.0589 18.6894 21.0883 18.8675C21.1176 19.1651 21.1476 19.492 21.1769 19.8189H20.7944C20.7049 19.1966 20.6456 18.5722 20.5869 17.9785ZM21.6775 19.4348L21.5889 19.0779C21.5295 18.9592 21.5002 18.8404 21.4708 18.7217C21.4408 18.5729 21.4115 18.4542 21.3822 18.3354L21.2935 17.8898C21.2055 17.5615 21.1469 17.2346 21.0883 16.9084L20.9996 16.4621C20.9467 16.348 20.9071 16.2282 20.8816 16.1051C20.8564 16.005 20.827 15.906 20.7936 15.8083C20.7049 15.4221 20.6456 15.0358 20.5869 14.6789C20.5608 14.5397 20.5314 14.4011 20.499 14.2633C20.4689 14.1438 20.4404 14.0251 20.4103 13.9357V13.5795C20.4689 13.5795 20.5283 13.6088 20.5869 13.6388C20.6463 13.9657 20.7049 14.2926 20.7936 14.6195L20.8816 14.9757C20.9116 15.0651 20.9409 15.1545 20.9996 15.2725C21.0289 15.3326 21.0589 15.4213 21.0883 15.5107C21.1476 15.8376 21.2063 16.1946 21.2942 16.5508L21.3829 16.9077C21.4129 16.9671 21.4423 17.0557 21.4716 17.1452C21.5009 17.2639 21.5302 17.3826 21.5896 17.5014C21.6196 17.5908 21.649 17.6802 21.6783 17.7989C21.7369 18.0958 21.7963 18.3933 21.885 18.7202L21.9736 19.1658L22.0623 19.5228V19.761H21.7376C21.7053 19.6549 21.6852 19.5455 21.6775 19.4348ZM18.8191 7.12828V5.61186H18.9371C19.0258 5.84933 19.1138 6.08753 19.2318 6.35505L19.3204 6.53388L19.4091 6.8014C19.4384 6.89081 19.4678 7.00955 19.5271 7.12901L18.8191 7.12828ZM18.8191 4.15554V3.97744C18.8851 3.9122 18.962 3.86896 19.1138 3.97744C19.1783 4.10423 19.2208 4.23836 19.1138 4.42305C19.0574 4.48129 19.0168 4.55293 18.9958 4.63121C18.9364 4.45311 18.8778 4.30432 18.8191 4.15554ZM9.47654 46.0693C9.44722 45.653 9.41717 45.266 9.38785 44.8798C9.358 44.8203 9.32843 44.7607 9.29917 44.7009C8.82716 43.9878 9.1218 43.0966 8.5919 42.412L8.50321 40.7182C8.41526 40.5394 8.41526 40.5394 8.09131 40.332V40.1231H8.50321L11.3624 40.0344C11.8043 39.3213 11.8043 39.3213 11.9516 39.2311L12.0396 39.0537C12.6296 38.2505 13.2482 37.5667 13.5135 36.616C13.5428 36.3786 13.5721 36.1411 13.6022 35.933C13.6315 35.694 13.6608 35.4866 13.7194 35.2785C13.7718 34.8513 13.8307 34.4249 13.8961 33.9995C13.9554 33.345 14.0141 32.6912 14.1028 32.0668C14.1328 31.8594 14.1621 31.6505 14.1914 31.4724C14.2215 31.2635 14.2508 31.0561 14.3094 30.8772C14.3094 30.6698 14.3094 30.4624 14.3388 30.2828C14.1914 30.0454 14.0441 29.838 13.8961 29.6283C13.8722 29.557 13.8428 29.4876 13.8081 29.4209V29.1835C14.4861 28.2314 14.3681 27.3394 14.3974 26.1513L14.3087 23.1486C14.22 23.0892 14.1614 23.0298 14.102 23.0005C14.0133 22.9404 13.9547 22.9111 13.8953 22.881C13.7256 22.7609 13.5484 22.6517 13.3647 22.5541C13.3647 21.6329 14.5733 20.8897 15.1919 20.2652L15.2806 19.9083C15.3106 19.7888 15.3399 19.6701 15.3693 19.5814C15.3986 19.4627 15.4286 19.3432 15.4873 19.2245L15.5759 18.8675C15.6353 18.5106 15.6939 18.1544 15.7819 17.7982C15.8119 17.6787 15.8413 17.59 15.8706 17.5006L15.9593 17.1444C15.9893 16.9956 16.0186 16.8469 16.0773 16.6988C16.1659 16.2532 16.2539 15.8068 16.3719 15.3612C16.4019 15.2124 16.4313 15.0937 16.4606 14.975C16.4899 14.8562 16.5192 14.7375 16.5786 14.6188L16.6673 14.2626C16.7266 13.935 16.7853 13.6081 16.8732 13.2812L16.9619 12.8356L17.0506 12.4794C17.0806 12.3599 17.1099 12.2412 17.1686 12.1517C17.1943 12.0517 17.2239 11.9527 17.2573 11.8549C17.3166 11.4687 17.3753 11.1117 17.464 10.7555L17.5526 10.3099L17.6413 9.95297C17.6706 9.83424 17.7 9.71477 17.7593 9.62609C17.848 9.15042 17.936 8.67475 18.054 8.2284L18.1426 7.87147C18.1771 7.60175 18.2306 7.42585 18.1426 7.42585H18.054C17.9653 7.39653 17.9066 7.36648 17.848 7.33716C17.642 7.12901 18.1426 6.32646 18.2306 6.08826C18.2606 5.99885 18.29 5.90943 18.3486 5.85006C18.4072 5.67196 18.4666 5.49386 18.5252 5.34508C18.5553 5.25566 18.5846 5.16624 18.6432 5.10687C18.4754 4.89506 18.2988 4.65466 18.2841 4.37468C18.2643 3.99942 18.5157 3.80593 18.8792 3.80227C19.2318 3.79934 19.4443 4.09983 19.3915 4.44431C19.3505 4.70743 19.1775 5.005 19.0559 5.06656C19.1739 5.33408 19.1746 5.49386 19.3219 5.76138L19.4106 5.94021C19.5286 6.23778 19.6759 6.53461 19.8232 6.83218C19.8526 6.9216 19.8819 7.01028 19.9119 7.12975C19.8526 7.3379 19.8526 7.3379 19.588 7.516C19.6481 7.99167 19.6122 7.99167 19.706 8.61612C19.7353 8.73485 19.7653 8.85359 19.824 8.97232C19.8533 9.03169 19.8826 9.1211 19.9127 9.20978L20.0013 9.56672C20.06 9.8936 20.1193 10.2205 20.2073 10.5474L20.296 10.8149C20.326 10.9637 20.3553 11.1117 20.414 11.2605C20.444 11.3199 20.4726 11.4093 20.5027 11.498L20.5906 11.8549C20.65 12.1818 20.7086 12.5087 20.7973 12.8356L20.8852 13.1925C20.9153 13.2819 20.9446 13.4007 21.0032 13.5194L21.0919 13.7869C21.1513 14.1138 21.2099 14.4407 21.2979 14.7676L21.3866 15.1245C21.4166 15.2132 21.4459 15.3326 21.4752 15.4514C21.5046 15.5708 21.5339 15.6896 21.5932 15.8083C21.6233 15.8977 21.6526 15.9864 21.6819 16.1051C21.7406 16.4027 21.7999 16.7296 21.8886 17.0565C21.9179 17.1459 21.9473 17.2646 21.9773 17.3834L22.066 17.7403C22.0953 17.8297 22.1246 17.9184 22.184 18.0379C22.2727 18.4241 22.3606 18.8104 22.4786 19.2267L22.5666 19.5836C22.5966 19.673 22.6259 19.7918 22.6553 19.9105C22.6846 20.0292 22.7139 20.1487 22.7733 20.2674C23.1859 20.683 23.5392 20.9212 23.8345 21.3969C23.8932 21.4269 23.9525 21.4562 24.0405 21.5156C25.0424 22.7645 23.4219 22.4076 23.7458 23.3889L23.8345 28.4432C23.9232 28.5619 24.0112 28.6807 24.1292 28.8295C24.1592 28.8881 24.1878 28.9482 24.2472 29.0369C24.2472 29.1556 24.2772 29.2743 24.3065 29.3931H24.1292C23.9837 29.6311 23.8558 29.8795 23.7466 30.1363C23.6579 30.1363 23.6579 30.3737 23.7466 30.3737C23.7759 30.5225 23.8052 30.7013 23.8353 30.8787C23.924 31.5933 24.0119 32.3057 24.1299 33.0489C24.16 33.2277 24.1885 33.4352 24.2479 33.644L24.3366 34.1783C24.3659 34.3271 24.3952 34.506 24.4546 34.6833L24.6312 36.3778C24.6613 36.5266 24.6906 36.6754 24.7492 36.8528C25.2799 37.5659 25.8398 38.3098 26.399 39.053C26.4291 39.1131 26.4584 39.1717 26.517 39.2304C26.6937 39.4393 26.8996 39.6467 27.1063 39.8849C28.1375 39.8548 29.1695 39.8263 30.23 39.8263C30.23 40.0337 30.23 40.0337 30.1421 40.0337L30.0534 40.1224C29.9971 40.181 29.9565 40.2528 29.9354 40.3312L29.8467 40.4199L29.758 42.1144C29.6107 42.3519 29.4634 42.5894 29.3461 42.8576C29.3161 43.2439 29.2868 43.6309 29.2574 44.0457C29.1101 44.3132 28.9921 44.5807 28.8741 44.879C28.8155 45.2352 28.7854 45.5922 28.7561 45.9784H28.2849V44.7904C28.4322 44.4041 28.5795 44.0457 28.7561 43.6895V42.6202C28.8741 42.3827 29.0214 42.1438 29.1688 41.9056C29.2574 41.9056 29.2574 40.48 29.1688 40.48C21.0047 40.45 21.0047 40.45 21.0047 40.5387C20.9453 40.5387 20.916 40.5387 20.8867 40.5687C18.9122 40.5387 16.9377 40.5387 14.9925 40.5387C14.8745 40.5687 14.7866 40.5988 14.6979 40.6273L9.00966 40.7175V40.9249C11.1615 40.9249 13.3127 40.955 15.4938 40.985C16.7017 40.955 17.9103 40.9249 19.1189 40.9249V41.7282C20.0402 41.6696 20.7621 41.8726 21.7713 42.2031C21.8307 42.2332 21.8894 42.2618 21.978 42.3219C23.3926 42.9163 24.3065 43.9563 25.2198 45.1766C25.2491 45.2352 25.2791 45.2953 25.3378 45.384C25.4257 45.5328 25.5144 45.7102 25.6031 45.889C25.3971 45.889 25.2198 45.889 25.0431 45.9191C24.9251 45.7703 24.8372 45.6215 24.7485 45.4727C24.6891 45.4141 24.6598 45.354 24.6305 45.2953C24.4539 45.0564 24.2772 44.849 24.1292 44.6408C23.8751 44.607 23.6195 44.587 23.3633 44.5807C23.2453 43.6888 23.2453 43.6888 23.1573 43.6001C23.1573 43.5114 23.1573 43.5114 22.9506 43.5114V44.5807H22.3614C22.2974 44.0474 22.2482 43.5124 22.214 42.9764L21.5954 42.7088C21.5068 42.6788 21.4481 42.6502 21.3888 42.6502C21.1278 42.5568 20.8621 42.4771 20.5928 42.4113L20.5049 43.3934H19.8269C19.7675 43.0071 19.7382 42.6202 19.7089 42.2625C19.5909 42.2625 19.5029 42.2925 19.4143 42.3226C19.4436 42.6788 19.4729 43.0357 19.5323 43.3934H18.825V42.3226C18.825 42.1137 18.5663 42.2669 18.4651 42.3167C18.4651 42.6444 18.4417 43.065 18.4417 43.3934H17.7637C17.7044 43.0958 17.675 42.7983 17.6457 42.5014C17.3804 42.5901 17.1151 42.6788 16.8791 42.7675C16.7904 42.7675 16.7318 42.7675 16.6731 42.7975C16.4078 42.9163 16.1425 43.065 15.8772 43.2138C15.8479 43.6888 15.8185 44.1945 15.7885 44.6995H15.2872L15.1985 43.8075C15.0512 43.8376 15.0512 43.8376 14.9925 43.9563C14.9632 44.1938 14.9332 44.4312 14.9038 44.6995H14.1966L14.1079 44.8783C13.9899 44.997 13.9012 45.1458 13.8133 45.2946L13.7246 45.472C13.5703 45.6581 13.4325 45.8572 13.3127 46.0671C13.136 46.0371 12.9184 46.0539 12.771 46.0239C13.2071 44.9978 13.9547 44.0626 14.8621 43.3238C15.8588 42.5146 17.0498 41.9437 18.2343 41.756C18.4314 41.7062 18.6271 41.6556 18.8243 41.6073L18.7356 41.4284C17.911 41.4929 17.1781 41.6344 16.4679 41.9239C15.7174 42.2288 15.0065 42.6539 14.4186 43.2109C13.6344 43.9556 13.0378 44.7786 12.5468 45.7688C12.4905 45.8268 12.4499 45.8982 12.4288 45.9762V46.0664C11.421 46.0693 10.4491 46.0693 9.47654 46.0693Z" fill="white"/>
<path fill-rule="evenodd" clip-rule="evenodd" d="M43.6026 7.2169H44.5166C45.0765 7.2169 45.3118 7.15753 45.3118 7.93077V8.34633C45.3118 8.43575 45.3118 8.52444 45.4298 8.52444C45.5771 8.52444 45.6064 8.31629 45.6365 8.16824L46.0198 6.77128C46.0198 6.68187 46.0491 6.56313 46.0491 6.47445C46.0491 6.41435 46.0198 6.38503 45.9604 6.38503C45.8725 6.38503 45.8432 6.44439 45.7838 6.56386C45.7252 6.65328 45.6951 6.77202 45.5778 6.83138C45.4012 6.89148 45.0765 6.89148 44.8999 6.89148H41.3041C41.2155 6.89148 40.9208 6.9208 40.8321 6.8607C40.7141 6.80133 40.7141 6.6826 40.7141 6.59391C40.7141 6.47518 40.7141 6.35571 40.5961 6.35571C40.4488 6.35571 40.4195 6.62323 40.3902 6.77202L40.0076 8.16897C40.0076 8.22834 39.9482 8.43649 39.9482 8.49585C39.9482 8.55522 40.0076 8.61459 40.0662 8.61459C40.1549 8.61459 40.2136 8.4658 40.2429 8.37638C40.3609 8.10887 40.5375 7.8113 40.7442 7.6332C41.1869 7.21763 41.6281 7.21763 42.1881 7.21763H42.748L41.1862 13.3112C41.0975 13.5787 41.0088 13.9657 40.8321 14.143C40.6848 14.2926 40.4496 14.2625 40.2722 14.2926C40.1542 14.2926 40.0069 14.3226 40.0069 14.5007C40.0069 14.6788 40.2722 14.6194 40.3308 14.6194C40.6548 14.5894 40.9795 14.5601 41.3034 14.5601C41.7161 14.5601 42.1287 14.5894 42.512 14.6194C42.6293 14.6194 42.718 14.5894 42.718 14.4707C42.718 14.2625 42.512 14.2926 42.4233 14.2926C42.1873 14.2625 41.8927 14.2926 41.8927 13.9056C41.8927 13.7568 41.9814 13.49 42.0107 13.3112L43.6026 7.2169ZM45.2231 14.113C45.1938 14.2024 45.1344 14.3505 45.1344 14.4399C45.1344 14.5879 45.429 14.5586 45.4877 14.5586C45.8417 14.5586 45.8116 14.4399 45.9296 14.0536C46.313 12.5973 46.7549 11.7354 47.1675 11.0809C47.4622 10.6052 48.3468 9.50509 48.8181 9.50509C49.2307 9.50509 49.4374 9.95144 49.3781 10.6045C49.2601 11.9721 48.5528 14.4391 47.8455 14.4391C47.4622 14.4391 47.5216 13.7253 47.1969 13.7253C47.1497 13.7236 47.1027 13.7317 47.0589 13.7491C47.015 13.7665 46.9752 13.7928 46.942 13.8263C46.9088 13.8599 46.883 13.8999 46.866 13.944C46.8491 13.988 46.8414 14.0351 46.8436 14.0822C46.8436 14.5571 47.2856 14.7059 47.5802 14.7059C48.9361 14.7059 50.1146 11.9413 50.1447 10.6932C50.174 9.80119 49.938 8.93927 49.1428 8.93927C48.1409 8.93927 46.903 10.9907 46.549 11.7039H46.5189L47.9041 6.41288C47.9041 6.38283 47.9628 6.14536 47.9628 6.08599C47.9628 6.05594 47.9335 5.99658 47.9041 5.99658C47.8748 5.99658 47.8455 6.02663 47.8155 6.02663C47.4321 6.3242 46.9601 6.41288 46.5182 6.44293C46.4295 6.44293 46.3122 6.47298 46.3122 6.59171C46.3122 6.6804 46.3415 6.71045 46.4009 6.71045L46.6069 6.6804C46.8429 6.6804 46.9902 6.7405 46.9902 7.06665C46.9902 7.24549 46.8722 7.60169 46.8429 7.78052L45.2231 14.113ZM51.2939 12.2704H51.4119C52.5318 12.1216 54.831 11.8842 54.831 10.1002C54.831 9.32772 54.2124 8.94074 53.6224 8.94074C52.0312 8.94074 50.4686 10.8727 50.4686 12.7754C50.4686 13.8455 51.0293 14.7074 51.9426 14.7074C52.7092 14.7074 53.4165 14.1724 53.9171 13.5186C53.9464 13.4292 54.1824 13.1323 54.1824 13.0429C54.1824 12.9836 54.1531 12.9535 54.0937 12.9535C54.0644 12.9535 54.005 12.9836 53.9757 13.0429C53.6517 13.6381 52.9738 14.1724 52.3552 14.1724C51.6186 14.1724 51.2646 13.5479 51.2646 12.7454V12.4778L51.2939 12.2704ZM51.324 12.0322C51.56 10.8727 52.3552 9.17821 53.5052 9.17821C53.8885 9.17821 54.0944 9.41567 54.0944 9.86202C54.0944 10.2783 53.9471 10.6946 53.7412 11.0215C53.2691 11.7354 52.0899 11.9729 51.324 12.0322ZM49.0842 25.6756C49.0842 26.7765 48.8782 28.7378 46.2844 28.7378C43.4546 28.7378 43.4546 26.4789 43.4546 25.2007V19.434C43.4546 18.7209 43.4546 18.2452 44.3099 18.1859C44.6631 18.1558 44.8991 18.1258 44.8991 17.8883C44.8991 17.5907 44.6925 17.5907 44.5752 17.5907C44.4572 17.5907 43.7206 17.6801 42.5714 17.6801C41.4515 17.6801 40.8028 17.5907 40.6262 17.5907C40.5082 17.5907 40.3022 17.5907 40.3022 17.8582C40.3022 18.1258 40.5382 18.1551 40.8915 18.1851C41.7168 18.2144 41.7168 18.7201 41.7168 19.4927V25.4975C41.7168 28.5882 43.78 29.2721 46.0198 29.2721C49.7035 29.2721 49.7035 26.6269 49.7035 25.5862V19.8496C49.7035 18.3332 49.8801 18.2144 50.646 18.1551C50.8527 18.125 51.1481 18.125 51.1481 17.8582C51.1481 17.7989 51.118 17.5907 50.8827 17.5907C50.6467 17.5907 49.9395 17.6801 49.2908 17.6801C48.5249 17.6801 48.1709 17.5907 47.9056 17.5907C47.7583 17.5907 47.523 17.5907 47.523 17.8282C47.523 18.0964 47.729 18.1257 48.083 18.1257C48.9676 18.2152 49.0849 18.4233 49.0849 19.9691L49.0842 25.6756ZM60.4599 26.122L54.8896 18.1551C54.7716 17.977 54.6243 17.59 54.3297 17.59C54.0937 17.59 53.7111 17.6794 53.2391 17.6794C52.7085 17.6794 51.9719 17.59 51.7952 17.59C51.5006 17.59 51.2939 17.62 51.2939 17.8575C51.2939 18.125 51.5592 18.125 51.9132 18.1543C52.6498 18.1543 52.7678 18.3324 52.7678 19.7594V25.883C52.7678 28.4094 52.6799 28.4681 51.9726 28.5868C51.2653 28.6769 51.206 28.707 51.206 28.9144C51.206 29.1519 51.442 29.1519 51.5006 29.1519C51.7952 29.1519 52.5318 29.0918 53.3571 29.0918C53.8877 29.0918 54.5063 29.1519 54.6837 29.1519C54.831 29.1519 55.0963 29.1519 55.0963 28.8844C55.0963 28.6469 55.0076 28.6469 54.3597 28.5868C53.6232 28.5282 53.4165 28.3493 53.3871 25.6734L53.3278 19.3424L53.3571 19.2823L60.3712 29.0625C60.6365 29.4788 60.7545 29.4788 60.9018 29.4788C61.1378 29.4788 61.1378 29.1211 61.1378 28.9437L61.1078 19.3124C61.0785 18.3017 61.3438 18.2716 61.9331 18.1829C62.4344 18.1529 62.5817 18.0935 62.5817 17.8854C62.5817 17.5878 62.3757 17.5878 62.2871 17.5878C62.0217 17.5878 60.7838 17.6772 60.5192 17.6772C60.3126 17.6772 59.3993 17.5878 59.222 17.5878C59.104 17.5878 58.8093 17.5878 58.8093 17.8553C58.8093 18.1228 59.0453 18.1228 59.5459 18.1521C60.1938 18.1822 60.3705 18.1822 60.4298 20.4117L60.4892 26.089L60.4599 26.122ZM65.9422 19.434C65.9422 18.7209 65.9422 18.2452 66.7667 18.1859C67.0914 18.1558 67.3567 18.1258 67.3567 17.8883C67.3567 17.5907 67.1207 17.5907 67.0034 17.5907C66.7674 17.5907 66.2375 17.6801 65.0582 17.6801C64.0556 17.6801 63.437 17.5907 63.1131 17.5907C62.9657 17.5907 62.7598 17.5907 62.7598 17.8582C62.7598 18.1258 62.9958 18.1551 63.3491 18.1851C64.1743 18.2445 64.1743 18.7201 64.1743 19.4927V27.2807C64.1743 28.0239 64.1743 28.4988 63.3491 28.5875C62.9958 28.5875 62.7598 28.6176 62.7598 28.8851C62.7598 29.1526 62.9657 29.1526 63.1131 29.1526C63.2604 29.1526 64.0857 29.0925 65.0289 29.0925C66.1188 29.0925 66.6494 29.1526 67.0034 29.1526C67.1207 29.1526 67.3567 29.1526 67.3567 28.8851C67.3567 28.6176 67.1207 28.5875 66.7667 28.5875C65.9422 28.5289 65.9422 28.0232 65.9422 27.2507V19.434Z" fill="black"/>
<path fill-rule="evenodd" clip-rule="evenodd" d="M76.4064 19.8797C76.8777 18.4828 77.0836 18.2453 77.467 18.1852C78.1156 18.0958 78.1742 18.0658 78.1742 17.8283C78.1742 17.5908 77.9683 17.5908 77.8796 17.5908C77.6436 17.5908 76.8476 17.6802 76.4064 17.6802C75.875 17.6802 75.1091 17.5908 75.0205 17.5908C74.8431 17.5908 74.5778 17.5908 74.5778 17.8583C74.5778 18.1259 74.7837 18.1259 75.285 18.1552C75.5511 18.1852 75.9637 18.2739 75.9637 18.7203C75.9637 19.0772 75.8164 19.4928 75.6691 19.9391L73.4586 26.2408L70.982 19.6122C70.7175 18.869 70.6288 18.721 70.6288 18.6316C70.6288 18.2153 70.8648 18.2153 71.6307 18.0973C71.778 18.0973 71.9253 18.0379 71.9253 17.8591C71.9253 17.6509 71.7494 17.5916 71.6021 17.5916C71.2774 17.5916 70.7761 17.681 69.8629 17.681C68.7136 17.681 67.829 17.5916 67.5351 17.5916C67.4164 17.5916 67.269 17.6509 67.269 17.829C67.269 18.0973 67.4464 18.0973 67.8004 18.1266C68.3017 18.1867 68.449 18.2461 68.891 19.4048L72.4853 29.0362C72.604 29.3337 72.6927 29.4224 72.81 29.4224C72.9272 29.4224 73.046 29.185 73.0745 29.0948L76.4064 19.8797Z" fill="black"/>
<path fill-rule="evenodd" clip-rule="evenodd" d="M79.531 27.2508C79.531 28.024 79.531 28.499 78.705 28.5591C78.3818 28.5876 78.1165 28.6177 78.1165 28.8852C78.1165 29.1527 78.3224 29.1527 78.4697 29.1527C78.587 29.1527 78.7043 29.1227 78.9711 29.1227C79.2356 29.0926 79.6483 29.0926 80.327 29.0926H80.5329C80.6216 29.0926 81.3875 29.0926 82.3308 29.1227C83.2741 29.1227 84.4233 29.1527 85.2779 29.1527C85.7492 29.1527 85.9265 28.9453 85.9265 28.5876C85.9852 27.9346 86.1611 26.7451 86.1611 26.5076C86.1611 26.3889 86.1024 26.2401 85.9551 26.2401C85.8078 26.2401 85.7792 26.3002 85.4838 26.9532C84.7766 28.499 83.7446 28.499 83.0073 28.499C81.6514 28.499 81.2981 28.3216 81.2981 27.0133V23.8324C81.2981 23.2673 81.4168 23.2673 82.2113 23.2673C83.5687 23.2673 84.0092 23.2974 84.3632 24.7237C84.4519 25.0498 84.5406 25.17 84.6879 25.17C84.8652 25.17 84.8652 24.9025 84.8652 24.7838C84.8652 24.635 84.8352 24.0098 84.8352 23.8618C84.8352 23.4748 84.9525 21.5721 84.9525 21.3053C84.9525 21.0972 84.8652 21.0378 84.7766 21.0378C84.6879 21.0378 84.5992 21.0972 84.512 21.3346C84.2173 22.286 84.0693 22.7023 82.2414 22.7023C81.2981 22.7023 81.2981 22.5535 81.2981 21.9591V19.2839C81.2981 18.3626 81.3582 18.2439 82.1827 18.2439C84.512 18.2439 84.9239 18.957 85.0998 19.4327C85.3944 20.1165 85.4245 20.1759 85.6312 20.1759C85.7785 20.1759 85.7785 19.9677 85.7785 19.8783V18.1838C85.7785 17.7382 85.7785 17.5886 85.5725 17.5886C85.5425 17.5886 85.5124 17.6187 85.0998 17.648C84.6571 17.648 83.8025 17.6781 82.1234 17.6781H81.3274C79.9415 17.6781 79.2349 17.648 78.8523 17.648C78.4976 17.6187 78.469 17.5886 78.439 17.5886C78.3217 17.5886 78.1157 17.5886 78.1157 17.8562C78.1157 18.1237 78.3517 18.153 78.7043 18.183C79.5303 18.2124 79.5303 18.7181 79.5303 19.4906L79.531 27.2508ZM87.9597 27.2808C87.9597 28.0541 87.9597 28.529 87.1351 28.5876C86.8104 28.6177 86.5451 28.6477 86.5451 28.8852C86.5451 29.1828 86.7811 29.1527 86.8984 29.1527C87.193 29.1527 88.5189 29.0926 88.8135 29.0926C88.8721 29.0926 90.4641 29.1527 90.7887 29.1527C90.906 29.1527 91.112 29.1828 91.112 28.9153C91.112 28.6477 90.906 28.6177 90.522 28.5876C89.6974 28.5591 89.6974 28.0533 89.6974 27.2808V23.9512C89.6974 23.6543 89.7561 23.5349 90.0221 23.5349C90.758 23.5349 90.8466 23.6243 91.1999 24.3975L93.2037 28.5876C93.3796 29.004 93.4397 29.1527 93.7351 29.1527C93.8824 29.1527 94.501 29.0926 94.6183 29.0926C94.8829 29.0926 95.9456 29.1527 96.1516 29.1527C96.2688 29.1527 96.4462 29.1227 96.4462 28.9453C96.4462 28.7078 96.2989 28.6778 95.7675 28.5876C95.2962 28.529 95.0602 28.0834 94.737 27.4296L93.1451 24.2487C92.7618 23.4755 92.5851 23.3568 92.3491 23.208C92.9091 23.0892 94.6183 22.6429 94.6183 20.5028C94.6183 19.849 94.3537 17.5894 91.4645 17.5894C90.9632 17.5894 88.7835 17.6788 88.3408 17.6788C88.1348 17.6788 87.3389 17.5894 87.1615 17.5894C86.6316 17.5894 86.5429 17.5894 86.5429 17.8569C86.5429 18.1244 86.7789 18.1244 87.1329 18.1537C87.9575 18.2131 87.9575 18.7188 87.9575 19.462V27.2808H87.9597ZM89.6989 19.2846C89.6989 18.5715 89.7289 18.1251 90.4948 18.1251C92.5272 18.1251 92.764 20.0872 92.764 20.741C92.764 23.0592 91.1134 23.0592 90.5234 23.0592C89.6989 23.0592 89.6989 23.0291 89.6989 22.3754V19.2846ZM102.903 25.4976C102.903 23.4169 101.164 22.5249 100.251 22.0785C98.9535 21.4841 97.9802 21.0085 97.9802 19.7009C97.9802 18.9871 98.4229 17.9463 99.7781 17.9463C101.133 17.9463 101.429 18.9871 101.635 19.7009C101.812 20.266 101.871 20.3848 102.018 20.3848C102.254 20.3848 102.254 20.236 102.254 19.8197C102.254 18.2146 102.254 18.0365 102.077 17.917C101.841 17.7983 100.869 17.5007 99.8961 17.5007C97.8322 17.5007 96.6822 18.957 96.6822 20.6515C96.6822 22.6136 97.9795 23.3267 99.3061 24.0105C100.484 24.6057 101.605 25.3181 101.605 26.7451C101.605 28.2307 100.337 28.7965 99.6601 28.7965C98.4808 28.7965 97.3609 27.637 97.0377 25.9718C97.0076 25.8231 96.9776 25.6743 96.8302 25.6743C96.6243 25.6743 96.5957 25.9418 96.5957 26.0019C96.5657 26.6564 96.5657 27.5777 96.5657 27.6664C96.5657 28.1112 96.5657 28.3795 96.743 28.5283C97.0377 28.7657 98.0989 29.2715 99.3654 29.2715C101.546 29.2722 102.903 27.5491 102.903 25.4976ZM106.675 19.4334C106.675 18.7203 106.675 18.2446 107.471 18.1852C107.824 18.1552 108.089 18.1251 108.089 17.8877C108.089 17.5901 107.853 17.5901 107.736 17.5901C107.472 17.5901 106.97 17.6795 105.762 17.6795C104.76 17.6795 104.17 17.5901 103.846 17.5901C103.698 17.5901 103.493 17.5901 103.493 17.8576C103.493 18.1251 103.729 18.1545 104.083 18.1845C104.907 18.2439 104.907 18.7195 104.907 19.4921V27.2801C104.907 28.0233 104.907 28.4982 104.083 28.5869C103.729 28.5869 103.493 28.617 103.493 28.8845C103.493 29.152 103.698 29.152 103.846 29.152C103.993 29.152 104.819 29.0919 105.762 29.0919C106.852 29.0919 107.383 29.152 107.736 29.152C107.853 29.152 108.089 29.152 108.089 28.8845C108.089 28.617 107.853 28.5869 107.471 28.5869C106.675 28.5283 106.675 28.0226 106.675 27.2501V19.4334ZM113.984 18.8683C113.984 18.2439 114.072 18.2439 115.015 18.2439C116.075 18.2439 116.871 18.2439 117.167 20.0271C117.225 20.4133 117.344 20.4133 117.433 20.4133C117.639 20.4133 117.667 20.2052 117.667 19.8189L117.786 17.5894C117.786 17.1438 117.786 16.8462 117.579 16.8462C117.433 16.8462 117.373 16.9649 117.344 17.1137C117.225 17.4406 117.138 17.6788 115.458 17.6788H110.183C109.799 17.6788 109.504 17.6487 109.417 17.1731C109.417 16.995 109.357 16.9056 109.239 16.9056C109.092 16.9056 109.033 17.0243 108.975 17.2324L108.296 19.8182C108.296 19.9369 108.268 20.0264 108.268 20.115C108.268 20.2338 108.355 20.3532 108.473 20.3532C108.621 20.3532 108.708 20.2931 108.855 19.9963C109.681 18.2424 110.772 18.2424 111.774 18.2424C112.097 18.2424 112.215 18.2424 112.215 18.7181V27.2794C112.215 28.0226 112.215 28.4975 111.391 28.5576C111.067 28.5862 110.831 28.6162 110.831 28.8837C110.831 29.1513 111.037 29.1513 111.184 29.1513C111.478 29.1513 112.804 29.0912 113.099 29.0912C113.63 29.0912 114.485 29.1513 115.044 29.1513C115.161 29.1513 115.367 29.1513 115.367 28.8837C115.367 28.5862 115.161 28.5862 114.807 28.5576C113.983 28.4975 113.983 28.0226 113.983 27.2493V18.8683H113.984ZM122.708 23.9819C122.855 24.1894 122.855 24.3382 122.855 24.4268V27.2816C122.855 28.0248 122.855 28.4997 122.029 28.5884C121.676 28.5884 121.44 28.6184 121.44 28.8859C121.44 29.1535 121.646 29.1535 121.764 29.1535C121.881 29.1535 122.883 29.0934 123.915 29.0934C124.447 29.0934 125.213 29.1535 125.655 29.1535C125.802 29.1535 126.008 29.1535 126.008 28.8859C126.008 28.5884 125.772 28.5884 125.418 28.5598C124.592 28.4997 124.592 28.0248 124.592 27.2515V23.9519C124.592 23.7144 124.652 23.625 124.711 23.5356L126.743 20.1172C127.716 18.5129 128.07 18.1259 128.807 18.1259C128.894 18.1259 129.13 18.0372 129.13 17.8584C129.13 17.7096 129.013 17.5908 128.866 17.5908C128.718 17.5908 128.04 17.6803 127.421 17.6803C126.478 17.6803 126.213 17.5908 125.859 17.5908C125.682 17.5908 125.386 17.5908 125.386 17.8884C125.386 18.1259 125.681 18.1559 125.8 18.1559C126.36 18.186 126.713 18.186 126.713 18.6316C126.713 18.9885 126.301 19.731 126.182 19.9399L124.297 23.1801L121.909 19.1967C121.586 18.6616 121.586 18.5722 121.586 18.4828C121.586 18.2747 121.731 18.186 122.174 18.186C122.675 18.1559 122.853 18.0966 122.853 17.8591C122.853 17.5916 122.675 17.5916 122.439 17.5916C122.263 17.5916 121.909 17.681 120.377 17.681C119.11 17.681 118.874 17.5916 118.492 17.5916C118.167 17.5916 117.932 17.5916 117.932 17.8591C117.932 18.0973 117.991 18.1266 118.609 18.186C118.815 18.2153 119.199 18.2747 119.936 19.4935L122.708 23.9819ZM62.2897 35.4266C62.791 34.0296 62.9677 33.7907 63.3803 33.732C63.9989 33.6434 64.0876 33.6133 64.0876 33.4059C64.0876 33.167 63.8516 33.167 63.7929 33.167C63.5276 33.167 62.7617 33.2271 62.3197 33.2271C61.7891 33.2271 61.0225 33.167 60.9345 33.167C60.7286 33.167 60.4625 33.167 60.4625 33.4059C60.4625 33.6719 60.6985 33.702 61.1698 33.702C61.4644 33.732 61.8477 33.8207 61.8477 34.2671C61.8477 34.6233 61.7297 35.0389 61.5531 35.4852L59.3719 41.7869L56.8968 35.159C56.6022 34.4159 56.5436 34.2671 56.5436 34.1769C56.5436 33.7907 56.7788 33.7621 57.5455 33.6426C57.6928 33.6426 57.8401 33.5825 57.8401 33.4052C57.8401 33.1963 57.6635 33.1662 57.5162 33.1662C57.1922 33.1662 56.6909 33.2263 55.7476 33.2263C54.5984 33.2263 53.7438 33.1662 53.4484 33.1662C53.3304 33.1662 53.1831 33.1963 53.1831 33.4052C53.1831 33.6426 53.3597 33.6426 53.7137 33.7013C54.2151 33.7313 54.3616 33.7899 54.7743 34.9494L58.3993 44.6108C58.5173 44.8784 58.576 44.9971 58.694 44.9971C58.8413 44.9971 58.9593 44.7296 58.9886 44.6409L62.2897 35.4266ZM65.6201 42.7969C65.6201 43.5701 65.6201 44.0751 64.7956 44.1051C64.4423 44.1652 64.2063 44.1652 64.2063 44.4328C64.2063 44.6988 64.4122 44.6988 64.5302 44.6988C64.6482 44.6988 64.7956 44.6988 65.0609 44.6702C65.2969 44.6402 65.7088 44.6402 66.3875 44.6402H66.5934C66.6821 44.6402 67.4766 44.6402 68.3913 44.6702C69.3632 44.6988 70.5131 44.6988 71.3384 44.6988C71.8097 44.6988 71.9856 44.4914 72.0156 44.1645C72.0457 43.4799 72.2216 42.2904 72.2216 42.0529C72.2216 41.9342 72.193 41.7854 72.0457 41.7854C71.8983 41.7854 71.8683 41.8455 71.5443 42.5C70.8371 44.0744 69.8051 44.0743 69.0978 44.0743C67.7119 44.0743 67.3586 43.8669 67.3586 42.5587V39.3778C67.3586 38.8134 67.5059 38.8134 68.2718 38.8134C69.6277 38.8134 70.0997 38.8435 70.4537 40.2705C70.5124 40.6267 70.6297 40.7154 70.7484 40.7154C70.9543 40.7154 70.9543 40.4478 70.9543 40.3291C70.9543 40.1803 70.8957 39.5559 70.8957 39.4071C70.8957 39.0208 71.013 37.1182 71.013 36.8506C71.013 36.6432 70.9243 36.5846 70.8371 36.5846C70.7484 36.5846 70.6597 36.6432 70.6011 36.8807C70.3064 37.8613 70.1283 38.2476 68.3319 38.2476C67.3586 38.2476 67.3586 38.1003 67.3586 37.5044V34.8593C67.3586 33.9373 67.4172 33.7885 68.2432 33.7885C70.6011 33.7885 70.9829 34.5031 71.1903 34.978C71.4835 35.6626 71.5136 35.7212 71.6902 35.7212C71.8676 35.7212 71.8676 35.5138 71.8676 35.4251V33.7306C71.8676 33.3143 71.8676 33.1655 71.6616 33.1655C71.603 33.1655 71.603 33.1655 71.1603 33.1955C70.7176 33.1955 69.8931 33.2256 68.1831 33.2256H67.3887C66.0027 33.2256 65.2962 33.1955 64.9422 33.1955C64.5596 33.1655 64.5596 33.1655 64.5295 33.1655C64.4115 33.1655 64.2056 33.1655 64.2056 33.4044C64.2056 33.7005 64.4115 33.7005 64.7948 33.7306C65.6194 33.7892 65.6194 34.2656 65.6194 35.0374L65.6201 42.7969ZM74.1961 42.8269C74.1961 43.6001 74.1961 44.0751 73.3715 44.1652C73.0483 44.1652 72.7815 44.1938 72.7815 44.4613C72.7815 44.7288 73.0175 44.6988 73.1348 44.6988C73.4294 44.6988 74.7567 44.6402 75.0514 44.6402C75.11 44.6402 76.7019 44.6988 77.0251 44.6988C77.1424 44.6988 77.3484 44.7288 77.3484 44.4613C77.3484 44.1938 77.1424 44.1652 76.7598 44.1652C75.9338 44.1051 75.9338 43.6001 75.9338 42.8269V39.4972C75.9338 39.2011 75.9925 39.0824 76.2585 39.0824C76.9944 39.0824 77.0831 39.1711 77.4363 39.9443L79.4401 44.166C79.6175 44.5522 79.6761 44.7003 79.9715 44.7003C80.1188 44.7003 80.7374 44.6416 80.8547 44.6416C81.1207 44.6416 82.182 44.7003 82.388 44.7003C82.5052 44.7003 82.6826 44.7003 82.6826 44.4928C82.6826 44.2554 82.5353 44.2253 82.0039 44.1667C81.5326 44.0765 81.2966 43.6317 80.9734 42.9772L79.3815 39.7963C78.9982 39.023 78.7915 38.9343 78.5856 38.7856C79.1455 38.6368 80.8547 38.1912 80.8547 36.0518C80.8547 35.3973 80.5901 33.167 77.7024 33.167C77.2011 33.167 75.0199 33.2271 74.5772 33.2271C74.3712 33.2271 73.5753 33.167 73.3994 33.167C72.868 33.167 72.7793 33.167 72.7793 33.4059C72.7793 33.6719 73.0153 33.702 73.3693 33.702C74.1939 33.7621 74.1939 34.2671 74.1939 35.0103V42.8269H74.1961ZM75.9353 34.8307C75.9353 34.1176 75.9653 33.6712 76.7312 33.6712C78.7651 33.6712 79.0004 35.634 79.0004 36.3178C79.0004 38.6053 77.3498 38.6053 76.7613 38.6053C75.9353 38.6053 75.9353 38.5767 75.9353 37.9222V34.8307Z" fill="black"/>
<path fill-rule="evenodd" clip-rule="evenodd" d="M92.2014 34.8034H92.2314L92.3487 42.7696C92.3787 43.6315 92.3487 44.0764 91.6114 44.1665C91.1101 44.1951 90.9627 44.1951 90.9627 44.4626C90.9627 44.7001 91.1401 44.7001 91.2574 44.7001C91.5821 44.7001 92.4652 44.6415 93.2912 44.6415C93.9098 44.6415 94.7644 44.7001 95.029 44.7001C95.1763 44.7001 95.4424 44.7001 95.4424 44.4626C95.4424 44.2552 95.295 44.1665 94.941 44.1665C94.2037 44.1665 94.1737 43.9291 94.1737 42.7696L93.9391 34.9507C93.9091 33.9701 93.9391 33.7326 94.7051 33.6725C95.1763 33.6439 95.3236 33.6439 95.3236 33.4065C95.3236 33.1675 95.0891 33.1675 94.9117 33.1675C94.7358 33.1675 94.2931 33.2276 93.9098 33.2276C93.5566 33.2276 92.9079 33.1675 92.5539 33.1675C92.2893 33.1675 92.1112 33.1976 91.9053 33.792L89.2829 41.2832L86.5117 33.5846C86.3358 33.1683 86.2185 33.1683 86.0404 33.1683C85.8645 33.1683 85.509 33.2284 84.9212 33.2284C84.4785 33.2284 83.5653 33.1683 83.388 33.1683C83.1234 33.1683 83.0347 33.2584 83.0347 33.4072C83.0347 33.5846 83.1234 33.7033 83.6833 33.7333C84.4207 33.7333 84.4492 33.7333 84.4492 34.6554C84.4492 37.0931 84.096 42.5028 84.096 42.6516C84.0674 43.9298 83.8314 44.0485 83.2714 44.1372C82.8287 44.1958 82.6514 44.2559 82.6514 44.4634C82.6514 44.6722 82.8287 44.7008 82.946 44.7008C83.2121 44.7008 83.8306 44.6422 84.4206 44.6422C85.1279 44.6422 85.6578 44.7008 85.8938 44.7008C86.0712 44.7008 86.3651 44.7008 86.3651 44.4348C86.3651 44.1673 86.1005 44.1673 85.7465 44.1673C84.922 44.1372 84.7747 44.0485 84.7747 41.1637C84.7747 39.2611 84.8919 37.151 85.0092 35.1002H85.0392L88.2817 43.9584C88.399 44.286 88.4876 44.4348 88.6635 44.4348C88.8409 44.4348 88.8996 44.2559 89.0469 43.8089L92.2014 34.8034ZM106.79 38.7275C106.79 35.5752 104.314 33.0488 101.249 33.0488C98.0355 33.0488 95.5604 35.5752 95.5604 38.9049C95.5604 42.4134 98.3015 44.8196 101.189 44.8196C103.99 44.8196 106.79 42.3232 106.79 38.7275ZM104.816 38.8162C104.816 41.4914 103.636 44.3446 101.309 44.3446C99.0982 44.3446 97.5356 41.4913 97.5356 38.5186C97.5356 35.9035 98.7449 33.5259 101.044 33.5259C103.667 33.5252 104.816 36.6159 104.816 38.8162ZM116.014 41.6988L110.444 33.7026C110.327 33.5538 110.179 33.1675 109.884 33.1675C109.678 33.1675 109.265 33.2276 108.823 33.2276C108.292 33.2276 107.556 33.1675 107.379 33.1675C107.054 33.1675 106.847 33.1675 106.847 33.4065C106.847 33.7026 107.113 33.7026 107.467 33.7026C108.203 33.7026 108.322 33.8814 108.322 35.3084V41.4613C108.322 43.9576 108.263 44.0177 107.526 44.1365C106.847 44.2252 106.76 44.2552 106.76 44.4626C106.76 44.7001 106.995 44.7001 107.053 44.7001C107.348 44.7001 108.085 44.6415 108.94 44.6415C109.441 44.6415 110.059 44.7001 110.267 44.7001C110.385 44.7001 110.649 44.7001 110.649 44.4626C110.649 44.1951 110.56 44.1951 109.912 44.1665C109.176 44.0764 108.97 43.899 108.97 41.2231L108.881 34.8914L108.94 34.8613L115.925 44.6114C116.219 45.0277 116.337 45.0277 116.455 45.0277C116.691 45.0277 116.691 44.7001 116.691 44.4927L116.661 34.8613C116.661 33.8506 116.897 33.8206 117.516 33.7319C117.989 33.7018 118.136 33.6432 118.136 33.4343C118.136 33.1668 117.93 33.1668 117.841 33.1668C117.575 33.1668 116.338 33.2269 116.102 33.2269C115.866 33.2269 114.953 33.1668 114.776 33.1668C114.657 33.1668 114.363 33.1668 114.363 33.4057C114.363 33.6718 114.629 33.7018 115.1 33.7018C115.779 33.7319 115.955 33.7319 115.985 35.9607L116.043 41.6394L116.014 41.6988ZM123.736 34.4172C123.736 33.7912 123.825 33.7912 124.768 33.7912C125.829 33.7912 126.655 33.7912 126.92 35.5752C126.979 35.9614 127.097 35.9614 127.185 35.9614C127.391 35.9614 127.421 35.754 127.451 35.3971L127.568 33.1382C127.568 32.6919 127.568 32.3936 127.332 32.3936C127.215 32.3936 127.156 32.5138 127.097 32.6611C126.979 32.9887 126.92 33.2262 125.211 33.2262H119.936C119.583 33.2262 119.287 33.1961 119.199 32.7212C119.169 32.5423 119.14 32.4537 118.993 32.4537C118.845 32.4537 118.815 32.5724 118.757 32.7813L118.079 35.3963C118.049 35.485 118.019 35.5737 118.019 35.6639C118.019 35.7826 118.108 35.9314 118.255 35.9314C118.403 35.9314 118.461 35.8412 118.609 35.5451C119.463 33.7898 120.554 33.7898 121.526 33.7898C121.85 33.7898 121.998 33.7898 121.998 34.2662V42.8568C121.998 43.5699 121.998 44.0749 121.172 44.105C120.819 44.1651 120.582 44.1651 120.582 44.4326C120.582 44.6986 120.818 44.6986 120.937 44.6986C121.26 44.6986 122.588 44.64 122.852 44.64C123.412 44.64 124.267 44.6986 124.797 44.6986C124.943 44.6986 125.151 44.6986 125.151 44.4326C125.151 44.1651 124.915 44.135 124.561 44.105C123.735 44.0749 123.735 43.5699 123.735 42.7967V34.4172H123.736Z" fill="black"/>
<path d="M40.3323 48H128.984" stroke="black" stroke-miterlimit="2.613"/>
<path fill-rule="evenodd" clip-rule="evenodd" d="M44.9021 37.596C44.9021 36.4379 44.2242 35.3371 43.2223 35.3371C41.8663 35.3371 40.5991 36.9129 40.5991 38.518C40.5991 39.6174 41.2184 40.7483 42.2203 40.7483C42.8983 40.7483 43.6642 40.2733 44.1362 39.7075C44.5774 39.1717 44.9021 38.3685 44.9021 37.596ZM44.2535 37.0617C44.2535 38.3098 43.5462 40.48 42.3083 40.48C41.5123 40.48 41.3064 39.6767 41.3064 38.8742C41.3064 37.596 41.9843 35.5745 43.2809 35.5745C44.0182 35.5745 44.2535 36.2892 44.2535 37.0617ZM47.4073 35.812H48.1732C48.2325 35.812 48.3505 35.8421 48.4092 35.7534C48.4385 35.6948 48.4385 35.6346 48.4385 35.6046C48.4385 35.4859 48.2619 35.5159 48.2325 35.5159H47.4959L47.6726 34.8314C47.7906 34.3264 47.9672 33.6433 48.2619 33.257C48.3505 33.1083 48.5565 32.9294 48.7339 32.9294C49.1465 32.9294 48.7925 33.7913 49.3825 33.7913C49.6478 33.7913 49.7951 33.5839 49.7951 33.2871C49.7951 32.7821 49.4419 32.6025 49.0879 32.6025C48.6452 32.6025 47.9679 33.0474 47.644 33.4344C47.2607 33.9394 47.0547 34.6826 46.8781 35.3371L46.8488 35.5159H46.2888C46.1114 35.5159 45.9942 35.5159 45.9942 35.7534C45.9942 35.8421 46.1708 35.812 46.2302 35.812H46.7608L45.5229 40.6574C45.3756 41.1924 45.1403 42.1731 44.9043 42.6202C44.7863 42.8276 44.6097 43.0365 44.403 43.0365C44.1963 43.0365 44.1963 42.8576 44.1963 42.6788C44.2264 42.3526 44.1076 42.0243 43.7844 42.0243C43.5484 42.0243 43.3718 42.2332 43.3718 42.5007C43.3718 43.0357 43.8731 43.2138 44.2557 43.2138C44.8457 43.2138 45.317 42.7975 45.6116 42.2332C45.9062 41.6981 46.0242 41.1924 46.2016 40.5988L47.4073 35.812Z" fill="black"/>
</svg>
