<svg width="116" height="48" viewBox="0 0 116 48" fill="none" xmlns="http://www.w3.org/2000/svg">
<path fill-rule="evenodd" clip-rule="evenodd" d="M15.8947 7.17881L16.4752 8.4891C16.4752 8.4891 18.8499 15.3015 19.2725 16.3496H30.5134C30.2499 16.5068 24.4439 20.9607 21.5944 23.0569C21.3831 23.3185 23.9691 30.5508 25.0772 33.7989C24.8659 33.7467 18.7971 29.3977 15.7362 27.3009C12.5697 29.5543 9.61456 31.8077 6.60656 34.0089C7.66184 30.4445 8.82278 26.7771 9.93089 23.1613C6.97571 21.0651 0.695557 16.3489 0.695557 16.3489H12.0949C12.5169 15.1436 14.9451 7.54535 14.8923 7.12598C14.8916 7.12663 15.5249 7.12663 15.8947 7.17881Z" fill="#C82E37"/>
<path fill-rule="evenodd" clip-rule="evenodd" d="M33.4143 36.0001H37.0028V32.0705H41.2252V30.1315H37.0028V28.5584H41.4887V26.515H33.4143V36.0001ZM42.2277 26.515V32.698C42.2277 35.3707 43.8641 36.1566 46.8192 36.1566C49.7744 36.1566 51.4108 35.3707 51.4108 32.698V26.515H47.8752V33.3273C47.8752 34.2698 47.506 34.4805 46.8199 34.4805C46.1866 34.4805 45.764 34.2704 45.764 33.3273V26.515H42.2277ZM52.2019 36.0001H55.4741V30.1315H55.5269L57.9016 36.0001H61.7542V26.515H58.4814V32.3314H58.4293L56.1602 26.515H52.2019V36.0001ZM66.0817 28.2975H66.7684C68.1407 28.2975 68.2985 28.7169 68.2985 31.2324C68.2985 33.7995 68.1407 34.2183 66.7684 34.2183H66.0817V28.2975ZM62.5454 36.0001H67.6652C71.782 36.0001 71.9927 33.7467 71.9927 31.2318C71.9927 28.7684 71.7827 26.515 67.6652 26.515H62.5454V36.0001ZM33.4143 25.1532H41.6472V23.1613H37.0028V21.2751H41.2252V19.3367H37.0028V17.7121H41.4887V15.7209H33.4143V25.1532ZM45.9224 17.5027H46.6079C47.9802 17.5027 48.1387 17.8693 48.1387 20.437C48.1387 23.0048 47.9802 23.372 46.6079 23.372H45.9218L45.9224 17.5027ZM42.3861 25.1532H47.5054C51.6221 25.1532 51.8328 22.8991 51.8328 20.4364C51.8328 17.9736 51.6221 15.7202 47.5054 15.7202H42.3861V25.1532Z" fill="#C82E37"/>
<path fill-rule="evenodd" clip-rule="evenodd" d="M52.572 15.7209V21.9039C52.572 24.5767 54.2077 25.3626 57.1635 25.3626C60.1716 25.3626 61.8073 24.5767 61.8073 21.9039V15.7209H58.2723V22.5333C58.2723 23.4242 57.8503 23.6864 57.1642 23.6864C56.5309 23.6864 56.1089 23.4242 56.1089 22.5333V15.7209H52.572ZM68.3516 19.1268H71.7822V18.5502C71.7822 16.7162 70.5685 15.5109 67.3478 15.5109C63.7072 15.5109 62.5456 16.8206 62.5456 20.4364C62.5456 23.9473 63.3902 25.3619 67.3478 25.3619C69.6175 25.3619 71.8866 24.7339 71.8866 22.0604V21.3795H68.456C68.456 23.1607 68.2459 23.6851 67.3478 23.6851C66.2932 23.6851 66.1876 23.0042 66.1876 20.4364C66.1876 17.8687 66.2932 17.1878 67.3478 17.1878C68.0346 17.1878 68.3516 17.5021 68.3516 18.6024V19.1268ZM71.8344 25.1532H75.6342L76.0034 23.5279H78.8007L79.1685 25.1532H82.9162L79.6434 15.7203H75.1581L71.8344 25.1532ZM78.3781 21.6417H76.4253L77.3756 17.6593H77.4278L78.3781 21.6417ZM84.2369 25.1532H87.7719V17.8165H90.4636V15.7209H81.5974V17.8165H84.2369V25.1532ZM91.0962 25.1532H94.6325V15.7209H91.0962V25.1532ZM95.4249 20.4371C95.4249 24.0001 96.6374 25.3626 100.279 25.3626C103.868 25.3626 105.134 24.0001 105.134 20.4371C105.134 16.9262 103.868 15.5116 100.279 15.5116C96.6374 15.5109 95.4249 16.9262 95.4249 20.4371ZM99.0656 20.4371C99.0656 17.8693 99.1712 17.1884 100.279 17.1884C101.334 17.1884 101.44 17.87 101.44 20.4371C101.44 23.0048 101.334 23.6858 100.279 23.6858C99.1712 23.6858 99.0656 23.0048 99.0656 20.4371ZM105.609 25.1532H108.934V19.3368H108.988L111.31 25.1532H115.214V15.7209H111.889V21.5374H111.837L109.568 15.7209H105.609V25.1532ZM35.2088 14.3578H38.7979V7.02172H41.4361V4.92551H32.5706V7.02172H35.2088V14.3578ZM42.2279 14.3578H45.7635V10.4804H47.9276V14.3578H51.4632V4.92551H47.9276V8.38419H45.7635V4.92551H42.2279V14.3578ZM52.255 14.3578H60.4885V12.3673H55.7906V10.4804H60.0131V8.54138H55.7906V6.91736H60.2766V4.92551H52.255V14.3578ZM16.7909 6.49734L13.5188 4.03524L12.5157 6.1308C13.8351 6.96954 14.7319 8.22701 15.2602 9.58948C16.6325 9.11793 18.2154 8.96075 19.6926 9.4323L20.6957 7.33609L16.6853 6.44516L16.7909 6.49734ZM20.5907 14.6728L21.329 15.0394L22.068 11.8429C22.2793 11.8957 22.49 11.7907 22.5956 11.5813C22.6485 11.4242 22.5956 11.2148 22.49 11.057L24.0735 7.6511L26.9231 8.33202L18.6902 2.3584L8.71655 0L16.9494 5.97426L23.7572 7.59828L22.2271 10.9526C22.0158 10.8998 21.8052 11.0048 21.6995 11.2141C21.6467 11.3713 21.6995 11.6335 21.858 11.7379L19.8524 14.3578L20.5907 14.6728Z" fill="#0C0E0F"/>
<path fill-rule="evenodd" clip-rule="evenodd" d="M2.85913 47.8957H3.54591V46.061H5.02317V45.4851H3.54591V44.3327H5.076V43.8076H2.85913V47.8957ZM6.81741 48.0001C7.76768 48.0001 8.18966 47.3185 8.18966 45.8523C8.18966 44.3848 7.76768 43.7033 6.81741 43.7033C5.81496 43.7033 5.44515 44.3848 5.44515 45.8523C5.44581 47.3185 5.81496 48.0001 6.81741 48.0001ZM6.81741 47.4763C6.39543 47.4763 6.07845 47.2663 6.07845 45.8523C6.07845 44.437 6.39477 44.227 6.81741 44.227C7.18656 44.227 7.50354 44.437 7.50354 45.8523C7.50354 47.2663 7.18721 47.4763 6.81741 47.4763ZM8.7173 47.8957H9.3506V46.1139H9.93107C10.3531 46.1139 10.5115 46.3239 10.5115 46.7954C10.5115 47.0576 10.5115 47.3192 10.5644 47.5292C10.5644 47.7392 10.6172 47.8435 10.67 47.8957H11.409C11.3033 47.8435 11.1977 47.7392 11.1977 47.5813V46.7432C11.1448 46.166 10.9342 45.9052 10.5115 45.9052V45.853C10.987 45.8008 11.2505 45.3801 11.2505 44.8571C11.2505 44.0711 10.775 43.8089 10.1952 43.8089H8.7173V47.8957ZM9.3506 45.6423V44.2792H9.93107C10.3531 44.2792 10.5644 44.5414 10.5644 44.9608C10.5644 45.3801 10.3002 45.6423 9.87824 45.6423H9.3506ZM13.1504 47.8957H15.4201V47.372H13.7837V46.061H15.2616V45.4851H13.7837V44.3327H15.3673V43.8076H13.1504V47.8957ZM15.5251 47.8957H16.2641L17.003 46.4282L17.6891 47.8957H18.4281L17.3722 45.8001L18.3753 43.8076H17.6891L17.003 45.1708L16.3697 43.8076H15.6308L16.6332 45.8001L15.5251 47.8957ZM20.6443 46.4282V46.5326C20.6443 46.8991 20.5915 47.4763 20.0104 47.4763C19.5356 47.4763 19.3242 47.162 19.3242 45.8523C19.3242 44.4892 19.5356 44.227 20.0104 44.227C20.4858 44.1748 20.5915 44.6464 20.5915 45.0129V45.0651H21.2776V45.0129C21.2776 44.5936 21.2248 43.7033 20.011 43.7033C18.9557 43.7033 18.6388 44.3848 18.6388 45.8523C18.6388 47.3185 18.9551 48.0001 20.011 48.0001C21.0141 48.0001 21.2776 47.2663 21.2776 46.5326V46.4282H20.6443ZM21.6996 47.8957H24.0221V47.372H22.3857V46.061H23.8636V45.4851H22.3857V44.3327H23.9693V43.8076H21.6996V47.8957ZM24.3913 47.8957H26.6603V47.372H25.0246V43.8076H24.3913V47.8957ZM26.9245 47.8957H29.1935V47.372H27.5578V43.8076H26.9245V47.8957ZM29.5105 47.8957H31.8324V47.372H30.1966V46.061H31.6739V45.4851H30.1966V44.3327H31.7795V43.8076H29.5105V47.8957ZM32.2543 47.8957H32.8876V44.7514L34.1021 47.8957H34.946V43.8076H34.3127V46.847L33.099 43.8076H32.2543V47.8957ZM37.4792 46.4282V46.5326C37.4792 46.8991 37.3736 47.4763 36.8459 47.4763C36.3705 47.4763 36.107 47.162 36.107 45.8523C36.107 44.4892 36.3705 44.227 36.8459 44.227C37.3207 44.1748 37.4264 44.6464 37.4264 45.0129V45.0651H38.1125V45.0129C38.1125 44.5936 38.0069 43.7033 36.8459 43.7033C35.7906 43.7033 35.4737 44.3848 35.4737 45.8523C35.4737 47.3185 35.7906 48.0001 36.8459 48.0001C37.7955 48.0001 38.1125 47.2663 38.1125 46.5326V46.4282H37.4792ZM38.5352 47.8957H40.8042V47.372H39.2206V46.061H40.6985V45.4851H39.2206V44.3327H40.8042V43.8076H38.5352V47.8957ZM42.5978 47.8957H43.2846V43.8076H42.5978V47.8957ZM43.865 47.8957H44.4983V44.7514L45.7121 47.8957H46.5039V43.8076H45.8706V46.847L44.6568 43.8076H43.865V47.8957ZM48.5088 47.8957H49.1421V44.4892L49.9867 47.8957H50.5672L51.359 44.4892H51.4118V47.8957H52.0451V43.8076H50.9891L50.303 46.847H50.2508L49.5647 43.8076H48.5088V47.8957ZM52.6255 47.8957H53.3117V43.8076H52.6255V47.8957ZM54.5783 46.3761L55.0531 44.3327H55.1059L55.5807 46.3761H54.5783ZM53.5223 47.8957H54.2085L54.472 46.8998H55.6857L55.9492 47.8957H56.6354L55.5272 43.8076H54.6833L53.5223 47.8957ZM56.8473 47.8957H57.4806V44.4892L58.3252 47.8957H58.9057L59.7503 44.4892V47.8957H60.3836V43.8076H59.3805L58.6422 46.847L57.9026 43.8076H56.8473V47.8957ZM60.9641 47.8957H61.6496V43.8076H61.0163L60.9641 47.8957ZM62.1772 46.5326H63.7079V45.9567H62.1772V46.5326ZM64.9224 44.2792H65.45C66.0311 44.2792 66.2411 44.6999 66.2411 45.8523C66.2411 47.0576 66.0311 47.4242 65.45 47.4242H64.9224V44.2792ZM64.2356 47.8957H65.4494C66.7688 47.8957 66.9273 47.0576 66.9273 45.8523C66.9273 44.6457 66.7694 43.8076 65.4494 43.8076H64.2356V47.8957ZM68.141 46.3761L68.6165 44.3327L69.092 46.3761H68.141ZM67.0329 47.8957H67.7184L67.9832 46.8998H69.2491L69.4605 47.8957H70.1994L69.0913 43.8076H68.2467L67.0329 47.8957ZM71.0962 44.2792H71.6238C72.205 44.2792 72.4163 44.6999 72.4163 45.8523C72.4163 47.0576 72.1515 47.4242 71.6238 47.4242H71.0962V44.2792ZM70.4101 47.8957H71.5717C72.8898 47.8957 73.0496 47.0576 73.0496 45.8523C73.0496 44.6457 72.8904 43.8076 71.5717 43.8076H70.4101V47.8957ZM73.5766 47.8957H75.8991V47.372H74.2634V46.061H75.7406V45.4851H74.2634V44.3327H75.8469V43.8076H73.5766V47.8957ZM78.3788 44.2792H78.8014C79.3291 44.2792 79.4869 44.5414 79.4869 45.0129C79.4869 45.538 79.1699 45.6945 78.8014 45.6945H78.3788V44.2792ZM77.6927 47.8957H78.3795V46.2195H78.9606C79.6995 46.2195 80.1743 45.7467 80.1743 45.0129C80.1743 44.2792 79.8052 43.8076 79.0128 43.8076H77.6933L77.6927 47.8957ZM80.49 43.8076V46.6904C80.49 47.6329 80.9655 48.0001 81.756 48.0001C82.5484 48.0001 83.0232 47.6335 83.0232 46.6904V43.8076H82.3899V46.7426C82.3899 47.2663 82.1786 47.4763 81.7553 47.4763C81.3862 47.4763 81.1755 47.2663 81.1755 46.7426V43.8076H80.49ZM84.2898 45.5373V44.2785H84.7653C85.1344 44.2785 85.452 44.3842 85.452 44.9079C85.452 45.2745 85.2407 45.5373 84.8175 45.5373H84.2898ZM84.2898 47.4242V46.0089H84.9231C85.2923 46.0089 85.5564 46.2711 85.5564 46.6904C85.5564 47.162 85.3464 47.4242 84.9231 47.4242H84.2898ZM83.603 47.8957H84.9225C85.7149 47.8957 86.2419 47.4763 86.2419 46.7948C86.2419 46.1132 85.9249 45.8001 85.5029 45.7467C85.8721 45.5901 86.0841 45.2751 86.0841 44.8042C86.0841 44.0705 85.6086 43.8083 84.9759 43.8083H83.603V47.8957ZM86.6117 47.8957H88.8807V47.372H87.2972V43.8076H86.6117V47.8957ZM89.1977 47.8957H89.8845V43.8076H89.1977V47.8957ZM92.3648 46.4282V46.5326C92.3648 46.8991 92.3114 47.4763 91.7303 47.4763C91.2561 47.4763 91.0448 47.162 91.0448 45.8523C91.0448 44.4892 91.2561 44.227 91.7303 44.227C92.2057 44.1748 92.3648 44.6464 92.3648 45.0129V45.0651H92.9982V45.0129C92.9982 44.5936 92.9447 43.7033 91.7309 43.7033C90.6763 43.7033 90.3587 44.3848 90.3587 45.8523C90.3587 47.3185 90.6756 48.0001 91.7309 48.0001C92.7346 48.0001 93.0503 47.2663 93.0503 46.5326V46.4282H92.3648ZM94.6333 46.6382V46.7426C94.6333 47.3185 94.8446 48.0001 95.8992 48.0001C96.7438 48.0001 97.2721 47.6335 97.2721 46.7426C97.2721 46.1654 97.0073 45.8523 96.4275 45.6417L96.0049 45.4851C95.5294 45.3273 95.3716 45.1708 95.3716 44.8036C95.3716 44.3842 95.635 44.2264 95.8992 44.2264C96.3218 44.2264 96.4803 44.4364 96.4803 44.8036V44.9079H97.1671V44.8036C97.1671 44.3842 97.0614 43.7026 96.0055 43.7026C95.2144 43.7026 94.6874 44.122 94.6874 44.9079C94.6874 45.4851 94.9509 45.7995 95.5842 46.0089L96.0055 46.1654C96.3746 46.2711 96.5866 46.4798 96.5866 46.8991C96.5866 47.2135 96.4288 47.4763 96.0055 47.4763C95.53 47.4763 95.32 47.2663 95.32 46.7426V46.6382H94.6333ZM99.6475 46.4282V46.5326C99.6475 46.8991 99.594 47.4763 99.0142 47.4763C98.5387 47.4763 98.3274 47.162 98.3274 45.8523C98.3274 44.4892 98.5387 44.227 99.0142 44.227C99.4896 44.1748 99.6475 44.6464 99.6475 45.0129V45.0651H100.281V45.0129C100.281 44.5936 100.227 43.7033 99.0148 43.7033C97.9589 43.7033 97.6426 44.3848 97.6426 45.8523C97.6426 47.3185 97.9582 48.0001 99.0148 48.0001C100.017 48.0001 100.333 47.2663 100.333 46.5326V46.4282H99.6475ZM100.702 47.8957H101.389V46.0089H102.603V47.8957H103.288V43.8076H102.603V45.4317H101.389V43.8076H100.702V47.8957ZM105.189 48.0001C106.139 48.0001 106.561 47.3185 106.561 45.8523C106.561 44.3848 106.14 43.7033 105.189 43.7033C104.238 43.7033 103.816 44.3848 103.816 45.8523C103.816 47.3185 104.238 48.0001 105.189 48.0001ZM105.189 47.4763C104.819 47.4763 104.502 47.2663 104.502 45.8523C104.502 44.437 104.819 44.227 105.189 44.227C105.61 44.227 105.928 44.437 105.928 45.8523C105.928 47.2663 105.61 47.4763 105.189 47.4763ZM108.354 48.0001C109.358 48.0001 109.727 47.3185 109.727 45.8523C109.727 44.3848 109.358 43.7033 108.354 43.7033C107.405 43.7033 106.982 44.3848 106.982 45.8523C106.982 47.3185 107.405 48.0001 108.354 48.0001ZM108.354 47.4763C107.985 47.4763 107.668 47.2663 107.668 45.8523C107.668 44.437 107.984 44.227 108.354 44.227C108.776 44.227 109.094 44.437 109.094 45.8523C109.094 47.2663 108.777 47.4763 108.354 47.4763ZM110.201 47.8957H112.471V47.372H110.888V43.8076H110.201V47.8957ZM112.683 46.6382V46.7426C112.683 47.3185 112.893 48.0001 113.949 48.0001C114.793 48.0001 115.321 47.6335 115.321 46.7426C115.321 46.1654 115.057 45.8523 114.476 45.6417L114.001 45.4851C113.579 45.3273 113.367 45.1708 113.367 44.8036C113.367 44.3842 113.684 44.2264 113.949 44.2264C114.37 44.2264 114.53 44.4364 114.53 44.8036V44.9079H115.215V44.8036C115.215 44.3842 115.109 43.7026 114.001 43.7026C113.262 43.7026 112.735 44.122 112.735 44.9079C112.735 45.4851 112.999 45.7995 113.58 46.0089L114.055 46.1654C114.425 46.2711 114.635 46.4798 114.635 46.8991C114.635 47.2135 114.425 47.4763 114.002 47.4763C113.528 47.4763 113.317 47.2663 113.317 46.7426V46.6382H112.683Z" fill="#0C0E0F"/>
</svg>
