<svg width="109" height="48" viewBox="0 0 109 48" fill="none" xmlns="http://www.w3.org/2000/svg">
<g clip-path="url(#clip0_137_1264)">
<path d="M19.298 44.327L19.2194 44.3664V44.4057H19.2587L19.298 44.3664V44.327ZM15.9346 44.3664H15.9149V44.4057L15.9346 44.3664ZM7.55533 42.9502L7.83071 42.6354L8.14542 42.2224C8.24179 42.1058 8.32738 41.9807 8.40112 41.8487L8.26344 41.9864L8.08641 42.183C8.03869 42.2585 7.98613 42.3308 7.92906 42.3994L7.7717 42.6354L7.61434 42.8518L7.55533 42.9502ZM8.30278 44.3467L8.34212 44.3074H8.30278V44.3467ZM3.56242 44.1107L3.75912 43.5206L3.99515 42.9305L4.44755 41.77L4.56557 41.5143L4.66391 41.2586L4.82127 40.8455H4.78193L4.6049 40.9242L4.42788 41.0225L4.25085 41.1406L3.95581 41.3963L3.68044 41.6716C3.44901 41.8864 3.23216 42.1164 3.03134 42.3601C2.81498 42.6158 2.61828 42.8715 2.42159 43.1469L2.0282 43.7369C1.92108 43.8886 1.82258 44.0463 1.73315 44.209L2.24456 44.1107L2.85432 44.0713H3.56242V44.1107ZM45.8126 44.3467H45.7929C45.7929 44.3664 45.7929 44.386 45.8126 44.386V44.3467ZM42.3311 42.0847L42.3901 41.9667L42.4688 41.8487L42.5671 41.77L42.6851 41.711L42.7835 41.652L42.9212 41.6126H43.1375C43.2349 41.593 43.3352 41.593 43.4326 41.6126H43.8456C43.8861 41.6274 43.9207 41.655 43.944 41.6913C43.9525 41.7237 43.959 41.7565 43.9636 41.7897L43.9243 41.8487C43.9243 41.8683 43.9046 41.888 43.885 41.9077C43.8695 41.9284 43.8476 41.9435 43.8228 41.9506C43.7979 41.9577 43.7714 41.9565 43.7473 41.947L43.5309 41.9077H43.2949L43.0785 41.947C43.0065 41.9744 42.9398 42.0143 42.8818 42.065H42.8621L42.8228 42.1044L42.7835 42.1634C42.7835 42.2027 42.7638 42.2224 42.7441 42.2617L42.6654 42.3404L42.5474 42.3797C42.523 42.3845 42.4978 42.3835 42.4738 42.3766C42.4499 42.3698 42.4279 42.3574 42.4097 42.3404C42.3704 42.3011 42.3311 42.2617 42.3311 42.2224C42.3219 42.2006 42.3171 42.1772 42.3171 42.1535C42.3171 42.1299 42.3219 42.1065 42.3311 42.0847ZM43.1375 44.386V44.3467H43.1178L43.1375 44.386ZM35.9581 45.0155L35.8598 45.1335L35.7614 45.2712L35.6828 45.3892L35.7614 45.3105L35.8991 45.1925L36.0171 45.0351L36.1548 44.8974L36.2925 44.7007H36.2728L36.1155 44.8581C36.0596 44.9009 36.0128 44.9544 35.9778 45.0155H35.9581ZM40.9739 40.5701L40.7575 40.8062L40.5411 41.0816L40.3641 41.3569L39.9314 42.0257L39.6953 42.3994L39.4593 42.7928L39.302 43.0485H39.597L39.715 43.0878L39.8134 43.1469C39.8384 43.1885 39.852 43.236 39.8527 43.2845L39.774 43.4222C39.7488 43.4486 39.7181 43.4693 39.6842 43.4829C39.6503 43.4965 39.6138 43.5026 39.5773 43.5009H39.0266L38.8496 43.8156L38.6529 44.1893C38.5743 44.3037 38.5145 44.4298 38.4758 44.5631C38.4213 44.6843 38.3753 44.8092 38.3381 44.9368L38.2988 45.1138V45.1728C38.2988 45.1925 38.2988 45.2122 38.3185 45.2122H38.5742L38.7905 45.1531L38.9676 45.0548L39.3806 44.8581L40.1871 44.445C40.6395 44.1893 41.1116 43.914 41.5836 43.6976L41.7016 43.6583L41.8197 43.6189H42.0557C42.0785 43.6267 42.0993 43.6396 42.1163 43.6566C42.1334 43.6737 42.1463 43.6944 42.154 43.7173C42.1738 43.7679 42.1738 43.824 42.154 43.8746V43.9533L42.095 44.0517C42.0671 44.0936 42.0471 44.1402 42.036 44.1893L41.977 44.3074L41.9377 44.4647C41.9377 44.5041 41.918 44.5434 41.918 44.5827C41.9251 44.5907 41.9305 44.6001 41.9339 44.6102C41.9373 44.6204 41.9386 44.6311 41.9377 44.6417H42.036L42.1737 44.6024L42.4688 44.5041C42.5607 44.4633 42.6467 44.4104 42.7245 44.3467L42.8425 44.2877L42.9802 44.2287L43.0982 44.1893H43.1375L43.4916 44.0123L43.6883 43.914L43.9046 43.8156L44.1407 43.7369L44.357 43.6779L44.5931 43.6386H44.9471L45.0258 43.6779C45.0651 43.7173 45.0651 43.7566 45.0848 43.796C45.0809 43.8378 45.0674 43.8781 45.0455 43.914C45.0307 43.9545 45.0031 43.989 44.9668 44.0123H44.416L44.2193 44.0517L44.0423 44.1107L43.9833 44.15L43.9243 44.1893L43.8653 44.2484L43.8063 44.2877L43.7669 44.3467L43.7276 44.4057V44.4647C43.7267 44.4754 43.728 44.4861 43.7314 44.4962C43.7347 44.5064 43.7402 44.5157 43.7473 44.5237L43.8063 44.6024L43.9243 44.6614H44.298L44.3767 44.6221L44.5144 44.5434L44.5931 44.5041H44.7504L44.8291 44.5434H44.8488C44.8738 44.585 44.8874 44.6325 44.8881 44.6811C44.8818 44.7287 44.8685 44.775 44.8488 44.8188L44.8094 44.9368L45.0061 44.7401L45.2422 44.5237L45.5175 44.3467L45.6159 44.2484H45.6749L45.7536 44.1893L46.2453 43.9336L46.7174 43.6386L47.1501 43.3239L47.5238 42.9895L47.7992 42.4191L47.9565 42.1634L48.0942 41.9077C48.1486 41.8144 48.2147 41.7284 48.2909 41.652C48.3533 41.5764 48.4261 41.5101 48.5073 41.4553L48.586 41.3963L48.6843 41.3569H49.0187L49.0974 41.4159C49.1167 41.4332 49.132 41.4544 49.1422 41.4782C49.1524 41.502 49.1572 41.5278 49.1564 41.5536C49.1503 41.6076 49.1371 41.6605 49.1171 41.711C49.1131 41.7528 49.0997 41.7932 49.0777 41.829C49.0559 41.8773 49.0295 41.9234 48.999 41.9667L48.9204 42.065L48.822 42.183L48.7237 42.2814L48.5466 42.4584L48.1139 42.9108L47.9369 43.0682L47.7598 43.2255C47.6615 43.4616 47.5435 43.6976 47.4255 43.9533H47.4451L47.7008 43.8156L47.9565 43.6779L48.2122 43.5599L48.3106 43.5009L48.4286 43.4616C48.5194 43.4419 48.6133 43.4419 48.704 43.4616L48.8417 43.5402C48.8752 43.5816 48.9018 43.6281 48.9204 43.6779V43.8353C48.9162 43.8833 48.9029 43.93 48.881 43.973L48.822 44.091L48.7433 44.1893L48.586 44.4057C48.5667 44.4493 48.5401 44.4892 48.5073 44.5237L48.4483 44.6221C48.4437 44.6552 48.4371 44.6881 48.4286 44.7204L48.527 44.6811L48.7433 44.6024L48.9597 44.5041L49.2154 44.3467L49.3728 44.2484L49.4514 44.209H49.6285L49.6678 44.268C49.6875 44.268 49.6875 44.3074 49.7071 44.327V44.386C49.7018 44.4155 49.6881 44.4428 49.6678 44.4647C49.6678 44.4844 49.6481 44.5041 49.6088 44.5041L49.4318 44.6221L49.2547 44.7204L49.0777 44.8188L48.7237 45.0155L48.6253 45.0745L48.5073 45.1335H48.2909L48.1532 45.0941C48.1139 45.0745 48.0942 45.0351 48.0549 44.9958L47.9959 44.8974V44.6811C48.0156 44.6614 48.0156 44.6221 48.0352 44.5827L48.0746 44.5041L48.1336 44.4254L48.3106 44.15L48.3893 44.0123C48.4234 43.9821 48.4446 43.9398 48.4483 43.8943V43.855H48.3499L48.0352 43.973H47.9762L47.8189 44.0713L47.6615 44.15L47.4845 44.268L47.3271 44.3664L47.1108 44.5434L46.9731 44.6614L46.8354 44.7991L46.7764 44.8581H46.5993L46.5207 44.8188L46.4617 44.7401C46.4497 44.7232 46.4417 44.7038 46.4383 44.6833C46.4349 44.6629 46.4362 44.642 46.442 44.6221C46.4411 44.6114 46.4424 44.6007 46.4458 44.5905C46.4491 44.5804 46.4545 44.571 46.4617 44.5631C46.4617 44.5478 46.4652 44.5327 46.472 44.5191C46.4789 44.5054 46.4888 44.4935 46.501 44.4844C46.5837 44.4014 46.6563 44.309 46.7174 44.209C46.7942 44.121 46.8664 44.0291 46.9337 43.9336C46.9935 43.8462 47.0461 43.7541 47.0911 43.6583L46.9534 43.7566L46.737 43.914L46.3633 44.1697L46.2256 44.2484C46.1081 44.3319 45.9829 44.4044 45.8519 44.4647L45.6945 44.5631L45.4979 44.6811L45.3012 44.8384L45.1241 44.9958L44.9274 45.1925L44.7307 45.4089L44.5537 45.6252C44.4966 45.6939 44.4441 45.7661 44.3964 45.8416L44.1997 46.353L43.9046 47.1594L43.7276 47.5528L43.6883 47.6315L43.6489 47.6905L43.5899 47.7692L43.5112 47.8282L43.4326 47.8675H43.3342L43.2162 47.8282C43.1965 47.7889 43.1572 47.7692 43.1572 47.7299C43.1572 47.6905 43.1375 47.6512 43.1178 47.6118C43.1166 47.578 43.1233 47.5443 43.1375 47.5135V47.4151L43.1769 47.3168L43.2359 47.1398C43.2752 47.0218 43.3342 46.8841 43.3932 46.7464L43.6096 46.3727L43.8456 46.0186L44.1013 45.6646L44.3177 44.9761H43.8063L43.6489 44.9368L43.5112 44.8778L43.3932 44.7598C43.3554 44.7139 43.3285 44.6601 43.3145 44.6024C43.2921 44.5323 43.2788 44.4596 43.2752 44.386C43.2583 44.398 43.2389 44.406 43.2184 44.4094C43.198 44.4128 43.1771 44.4115 43.1572 44.4057H43.1375L43.0392 44.4647L42.9212 44.5237L42.3114 44.8188L42.1147 44.8974L41.918 44.9565H41.741C41.6509 44.8975 41.5874 44.8058 41.5639 44.7007C41.5462 44.6503 41.5395 44.5966 41.5443 44.5434C41.5389 44.4176 41.5522 44.2916 41.5836 44.1697L41.6426 43.973L41.4066 44.0517L41.2492 44.1303L41.0722 44.209L40.9345 44.2877L40.8362 44.3467H40.7968L40.4428 44.5434L40.0887 44.7204L39.7347 44.8974L39.3806 45.0941L38.9479 45.3498C38.8709 45.405 38.7841 45.4451 38.6922 45.4679C38.61 45.4989 38.524 45.5187 38.4365 45.5269H38.2988L38.1415 45.4679C38.0386 45.4178 37.9555 45.3347 37.9054 45.2318C37.8846 45.1613 37.8714 45.0888 37.8661 45.0155C37.8695 44.9355 37.8827 44.8562 37.9054 44.7794C37.9229 44.7044 37.9493 44.6318 37.9841 44.5631C38.0021 44.5007 38.0286 44.4412 38.0628 44.386C38.0967 44.2887 38.1429 44.1962 38.2005 44.1107C38.2382 44.0087 38.2843 43.91 38.3381 43.8156L38.5545 43.4419L38.1415 43.5599L37.8464 43.6583L37.5514 43.7763L37.2563 43.9336L36.9809 44.0713C36.8629 44.268 36.7449 44.4647 36.6072 44.6614L36.4105 44.9565L36.1942 45.2515L36.0762 45.3892L35.9385 45.5269C35.8957 45.5827 35.8422 45.6295 35.7811 45.6646L35.6041 45.7432H35.4664L35.3484 45.7039L35.2697 45.6449C35.25 45.6055 35.2304 45.5859 35.2304 45.5465C35.2145 45.5163 35.2076 45.4822 35.2107 45.4482V45.3302C35.2095 45.2963 35.2162 45.2626 35.2304 45.2318C35.2304 45.1925 35.25 45.1532 35.25 45.1138L35.368 44.9171C35.4072 44.8471 35.4534 44.7812 35.5057 44.7204L35.6631 44.5434L35.8401 44.386L36.0171 44.2484L36.2138 44.1107L36.3909 43.973L36.7646 43.7369L36.9023 43.5402L37.2563 42.8518L37.453 42.4781L37.6497 42.0847C37.7704 41.8403 37.8628 41.5829 37.9251 41.3176L37.9644 41.1209V40.9635C37.9674 40.9358 37.9604 40.9079 37.9448 40.8849L37.8267 40.7865L37.7677 40.7275C37.7544 40.7034 37.7476 40.6763 37.7481 40.6488V40.7275C37.7481 40.6882 37.7677 40.6685 37.7677 40.6488L37.8267 40.5898L37.8857 40.5505H38.0431C38.1185 40.5705 38.1867 40.6114 38.2398 40.6685C38.2799 40.7231 38.3129 40.7826 38.3381 40.8455C38.3606 40.9156 38.3738 40.9884 38.3775 41.0619C38.3977 41.1326 38.3977 41.2075 38.3775 41.2783C38.3615 41.4258 38.3285 41.571 38.2791 41.711L38.2201 41.9077L38.1415 42.065C38.0878 42.2207 38.0221 42.372 37.9448 42.5174L37.7087 42.9502L37.3153 43.6386L37.4137 43.5993L37.7087 43.4616L38.3185 43.2452L38.5939 43.1665L38.8496 43.0878L39.361 42.3011L39.5183 42.0257L39.9117 41.3963L40.1084 41.0816L40.3051 40.7668L40.4821 40.4718C40.5104 40.4167 40.5433 40.364 40.5805 40.3144L40.7182 40.1768H40.8952L40.9542 40.2161L41.0132 40.2751C41.0382 40.3167 41.0518 40.3642 41.0525 40.4128C41.0476 40.4734 41.0194 40.5298 40.9739 40.5701ZM28.8771 42.9502C28.9791 42.8547 29.0714 42.7492 29.1525 42.6354L29.4869 42.2224L29.7229 41.8487L29.6049 41.9864L29.4279 42.183L29.2705 42.3994L28.9361 42.8518L28.8771 42.9502ZM29.6245 44.3467H29.5852C29.5852 44.3664 29.5852 44.386 29.6049 44.386L29.6639 44.3467H29.6245ZM27.2052 44.209L27.4412 44.091L27.6773 43.9533L27.8936 43.796L28.11 43.6386L28.228 43.4222C28.2665 43.3395 28.3126 43.2604 28.3657 43.1862C28.5821 42.8125 28.7984 42.4781 29.0345 42.124L29.3098 41.7503L29.4475 41.5733C29.524 41.4673 29.6169 41.3744 29.7229 41.2979H29.6836L29.5262 41.2586L29.3688 41.2192H28.4837L28.11 41.2586L27.7363 41.3373L27.3822 41.4159L27.0085 41.5143L26.6938 41.6323L26.5364 41.6913L26.3987 41.7503L26.1824 42.0257L25.9463 42.3404L25.73 42.6551C25.6649 42.771 25.5926 42.8826 25.5136 42.9895L25.3956 43.2059L25.2776 43.4222L25.1202 43.6976L25.3956 43.6386L26.0644 43.5402H27.0085C27.049 43.555 27.0836 43.5826 27.1068 43.6189C27.1337 43.6468 27.1539 43.6804 27.1659 43.7173C27.1687 43.7576 27.162 43.7981 27.1462 43.8353L27.1068 43.914L27.0085 43.973H25.5923L25.3563 44.0123L24.9039 44.1107L24.8449 44.2484L24.7858 44.4057L24.6482 44.7204L24.5891 44.9368L24.5301 45.1335C24.5078 45.1968 24.4945 45.2631 24.4908 45.3302C24.4745 45.4011 24.4679 45.4739 24.4711 45.5465V45.7826L24.5105 45.8416L24.5498 45.9399L24.5891 46.0186C24.6025 46.0604 24.5999 46.1058 24.5817 46.1458C24.5635 46.1857 24.5311 46.2175 24.4908 46.235H24.3925C24.3763 46.2436 24.3577 46.2464 24.3397 46.2428C24.3218 46.2393 24.3056 46.2295 24.2941 46.2153L24.2154 46.1563L24.1564 46.0776L24.1171 45.9989V45.7629C24.1 45.6788 24.0934 45.5929 24.0974 45.5072C24.1171 45.4285 24.1171 45.3498 24.1367 45.2515L24.1958 45.0155C24.2282 44.9323 24.2545 44.8468 24.2744 44.7598L24.4121 44.4254L24.4711 44.2877L24.4121 44.327H24.2548L24.1761 44.2877L24.1171 44.209C24.1171 44.1893 24.0974 44.15 24.1171 44.1107C24.1166 44.0832 24.1234 44.056 24.1367 44.032L24.1958 43.973H24.2154L24.4711 43.8746L24.7072 43.7763C24.8448 43.5206 24.9825 43.2649 25.1399 43.0092L25.3366 42.6748L25.553 42.3601C25.6135 42.2415 25.686 42.1295 25.7693 42.0257L25.8283 41.9273L25.4349 42.1044L24.9235 42.3404H24.7465L24.6875 42.2814L24.6285 42.2224V42.1044C24.6405 42.0675 24.6606 42.0339 24.6875 42.006L24.7662 41.9667L25.5136 41.6716L25.907 41.5143L26.2611 41.3963L26.5364 41.0816C26.6234 40.9606 26.7223 40.8486 26.8315 40.7472C26.9284 40.6335 27.041 40.5341 27.1659 40.4521C27.2744 40.3601 27.3932 40.2809 27.5199 40.2161L27.6576 40.1768H27.9133L27.992 40.2161L28.051 40.2751C28.0793 40.3152 28.0932 40.3638 28.0903 40.4128C28.0896 40.4614 28.076 40.5089 28.051 40.5505C28.0227 40.5946 27.9815 40.6289 27.933 40.6488H27.5789L27.5002 40.6882L27.3429 40.7865L27.1659 40.9242L27.0085 41.0619L26.8905 41.1799L27.1265 41.1012L27.3822 41.0225L27.6379 40.9635L28.0116 40.8849L28.3854 40.8259L28.7591 40.7865H29.7032L29.8999 40.8455L29.9589 40.8849L30.0179 40.9242C30.0376 40.9439 30.0376 40.9832 30.0573 41.0029V41.0619C30.0769 41.1012 30.0573 41.1209 30.0573 41.1406L30.195 41.1799C30.2428 41.2213 30.2771 41.2761 30.2933 41.3373C30.312 41.3664 30.319 41.4015 30.313 41.4356C30.3158 41.476 30.3091 41.5164 30.2933 41.5536C30.292 41.59 30.2781 41.6247 30.254 41.652L30.195 41.77L30.136 41.8487L29.9786 42.0847C29.8606 42.2421 29.7622 42.4191 29.6442 42.5568C29.5262 42.6945 29.3885 42.8715 29.2508 43.0092L28.8378 43.4419L28.405 43.8156L28.3264 44.0123C28.2818 44.0925 28.2487 44.1786 28.228 44.268V44.386L28.1887 44.5041V44.6221L28.464 44.5827L28.7001 44.5237L28.9361 44.445L29.1525 44.3664L29.4475 44.2287L29.5262 44.1893H29.5852L30.0179 43.9533L30.4703 43.6976L30.608 43.6189L30.7654 43.5009L30.9227 43.4026L31.0801 43.3436H31.2178C31.2571 43.3632 31.2768 43.4026 31.3161 43.4419C31.3381 43.4777 31.3515 43.5181 31.3555 43.5599C31.3563 43.5858 31.3514 43.6115 31.3412 43.6353C31.331 43.6591 31.3158 43.6804 31.2965 43.6976C31.2911 43.727 31.2774 43.7543 31.2571 43.7763L31.1784 43.855C31.1298 43.8837 31.0892 43.9243 31.0604 43.973L30.9031 44.1893C30.8586 44.2556 30.8254 44.3287 30.8047 44.4057H30.785C30.785 44.445 30.7654 44.4647 30.7457 44.5041L30.7064 44.6221V44.7401L30.8047 44.6811L30.9817 44.5827L31.3358 44.327L31.4735 44.1893L31.6112 44.0713L31.7489 43.9336L31.8669 43.855L31.9456 43.8156H32.0242L32.0832 43.855L32.1422 43.8943C32.1619 43.914 32.1619 43.9533 32.1816 43.973V44.0713C32.1596 44.1071 32.1462 44.1475 32.1422 44.1893L32.0832 44.3074L32.0242 44.386L31.9062 44.5631C31.8615 44.6654 31.8089 44.764 31.7489 44.8581L31.4538 45.4285L32.1619 44.7204L32.3193 44.5827L32.4963 44.445L32.6537 44.327L32.7913 44.2484L32.9094 44.1697H33.0274C33.0514 44.1739 33.0743 44.1831 33.0946 44.1967C33.1149 44.2102 33.1322 44.2278 33.1454 44.2484C33.1558 44.2663 33.1612 44.2866 33.1612 44.3074C33.1612 44.3281 33.1558 44.3484 33.1454 44.3664C33.1372 44.4048 33.1164 44.4394 33.0864 44.4647L32.9094 44.6221L32.693 44.7598L32.6143 44.7991L32.575 44.8384L32.3979 44.9958L32.2209 45.1335L32.0439 45.3105L31.8865 45.4875L31.5915 45.8416C31.4888 45.9578 31.3967 46.0828 31.3161 46.2153C31.2178 46.3417 31.1259 46.473 31.0408 46.6087C30.9547 46.742 30.8759 46.8799 30.8047 47.0218C30.667 47.2578 30.549 47.5332 30.4113 47.7692V47.8282C30.3921 47.8718 30.3655 47.9117 30.3326 47.9462L30.2343 47.9856H30.0769L29.9983 47.9266L29.9393 47.8282V47.7299L29.9786 47.6512L30.0376 47.5332C30.3326 46.9627 30.6277 46.3923 30.9031 45.8022L31.1194 45.3695L31.3358 44.8974L31.4145 44.7204L31.3161 44.7991L31.1588 44.9368C31.1023 44.9997 31.0359 45.0529 30.9621 45.0941L30.8637 45.1531L30.7457 45.1925H30.6277L30.5097 45.1531C30.4565 45.132 30.4093 45.0982 30.372 45.0548C30.3344 45.0164 30.3074 44.969 30.2933 44.9171V44.7598C30.2969 44.699 30.3102 44.6393 30.3326 44.5827L30.3917 44.4057C30.4093 44.337 30.4358 44.2709 30.4703 44.209L30.549 44.0517L30.3523 44.15L30.0966 44.2877L29.8212 44.445L29.7229 44.5041H29.6639C29.3098 44.7007 28.8378 44.8384 28.4444 45.0155L28.287 45.0548H28.0116L27.9133 45.0155L27.8346 44.9368L27.7756 44.8188C27.7671 44.7864 27.7605 44.7536 27.7559 44.7204V44.4844C27.7499 44.4503 27.7569 44.4152 27.7756 44.386L27.8346 44.1697L27.6969 44.268L27.3429 44.4647H27.2052C27.1647 44.45 27.1301 44.4223 27.1068 44.386H27.0872C27.0785 44.3711 27.074 44.3541 27.074 44.3369C27.074 44.3196 27.0785 44.3026 27.0872 44.2877C27.0872 44.2484 27.1068 44.2287 27.1462 44.1893L27.2052 44.209ZM0.0809128 44.7401L0.375956 44.6024L0.670999 44.5041L1.26108 44.327C1.39758 44.0758 1.54863 43.8328 1.71348 43.5993L1.98886 43.2059L2.26423 42.8321L2.55927 42.4388L2.85432 42.0847L3.14936 41.711L3.46407 41.3766L3.81812 41.0619L3.97548 40.9045L4.15251 40.7668L4.3492 40.6488L4.52623 40.5308L4.68358 40.4521L4.8016 40.3931L4.91962 40.3538H5.15565C5.17869 40.353 5.20157 40.3579 5.22219 40.3682C5.24281 40.3785 5.26051 40.3939 5.27367 40.4128C5.30997 40.4361 5.33761 40.4706 5.35235 40.5111V40.6095C5.35529 40.6372 5.34832 40.6651 5.33268 40.6882C5.21466 40.9832 5.07697 41.2783 4.95896 41.5536C4.84094 41.829 4.74259 42.0257 4.64424 42.2421L4.50656 42.5764C4.36887 42.9108 4.23118 43.2255 4.11317 43.5599L3.99515 43.8746L3.91647 44.1107H4.07383C4.11435 44.1254 4.1489 44.153 4.17217 44.1893C4.20212 44.2287 4.21617 44.2778 4.21151 44.327C4.21077 44.3756 4.1972 44.4231 4.17217 44.4647C4.15899 44.4853 4.1417 44.5029 4.12139 44.5164C4.10108 44.5299 4.07819 44.5391 4.05416 44.5434H3.77878C3.76183 44.644 3.73549 44.7428 3.70011 44.8384L3.66077 45.0351L3.62143 45.2515V45.4482L3.58209 45.6449V46.0383L3.8968 45.6842C3.9587 45.6026 4.0315 45.5298 4.11317 45.4679L4.3492 45.2515L4.72292 44.9565C4.83909 44.8538 4.96416 44.7616 5.09664 44.6811C5.22009 44.5846 5.35172 44.499 5.49003 44.4254L5.88342 44.1893L6.11946 44.0517L6.35549 43.914L6.59153 43.7566L6.80789 43.5993C6.83693 43.5255 6.86975 43.4533 6.90624 43.3829C6.95934 43.3086 7.00543 43.2296 7.04393 43.1469C7.27996 42.7731 7.47666 42.4388 7.73236 42.0847L7.98806 41.711L8.12575 41.534C8.21907 41.4042 8.33998 41.2967 8.4798 41.2192L8.59782 41.1602H8.71584C8.76889 41.1466 8.82512 41.1537 8.87319 41.1799C8.90023 41.1972 8.92308 41.2203 8.94009 41.2475C8.9571 41.2747 8.96784 41.3054 8.97154 41.3373C8.98571 41.3681 8.99245 41.4017 8.99121 41.4356V41.5536C8.96927 41.5894 8.95581 41.6298 8.95187 41.6716L8.89286 41.77L8.83385 41.8487L8.63716 42.1044C8.53703 42.2695 8.42529 42.4272 8.30278 42.5764L7.92906 43.0288C7.79483 43.1828 7.65025 43.3273 7.49633 43.4616L7.0636 43.8353L6.94558 44.15L6.90624 44.268L6.8669 44.4057C6.8511 44.4429 6.84436 44.4834 6.84723 44.5237V44.6417L7.1226 44.6024L7.33897 44.5434L7.575 44.4647L7.81104 44.386L8.04707 44.2877L8.18476 44.209H8.24377L8.6765 43.9926L8.99121 43.855L9.14857 43.796C9.20628 43.7819 9.26008 43.755 9.30592 43.7173L9.44361 43.6386L9.54196 43.5796H9.65997C9.70918 43.5749 9.75834 43.589 9.79766 43.6189C9.8318 43.6492 9.85294 43.6915 9.85667 43.7369H9.87634C9.87951 43.7837 9.8728 43.8306 9.85667 43.8746L9.75832 43.9926L9.60097 44.1303L9.50262 44.2287L9.40427 44.327L9.32559 44.445L9.24691 44.5631L9.1289 44.7204C9.1289 44.7357 9.12534 44.7507 9.11851 44.7644C9.11169 44.7781 9.10177 44.7899 9.08956 44.7991L9.26658 44.7598L9.56163 44.6221L9.81733 44.4254L10.0337 44.209L10.0927 44.0713L10.132 43.9926L10.1911 43.9336L10.2304 43.855L10.3091 43.796L10.3877 43.7566H10.4664L10.5844 43.796C10.6164 43.8262 10.6417 43.8629 10.6587 43.9035C10.6756 43.9442 10.6838 43.988 10.6828 44.032C10.6791 44.0775 10.6579 44.1197 10.6238 44.15L10.5648 44.2484L10.4861 44.327L10.3287 44.4647V44.6614H10.4861L10.6041 44.6221L10.8795 44.445C10.8633 44.3943 10.8566 44.3409 10.8598 44.2877L10.9188 44.091L11.0172 43.9533C11.0368 43.8943 11.0958 43.855 11.1352 43.796L11.3122 43.6779H11.4892C11.5181 43.6768 11.5469 43.6814 11.5739 43.6915C11.6009 43.7017 11.6256 43.7171 11.6466 43.7369L11.7056 43.796V43.855C11.7253 43.8746 11.7056 43.914 11.7056 43.9533L11.6466 44.0517L11.5876 44.1303C11.4892 44.2484 11.4106 44.3664 11.2925 44.4844H11.7843L11.981 44.4254L12.1777 44.3664L12.3547 44.268H12.4137L12.7481 44.091L13.5939 43.7173L13.7119 43.6583L13.8693 43.6189L14.0266 43.5599L14.184 43.5206H14.479L14.597 43.5599C14.6364 43.6189 14.6757 43.6583 14.6757 43.6976C14.6851 43.7217 14.6864 43.7482 14.6793 43.7731C14.6722 43.798 14.6571 43.8198 14.6364 43.8353L14.5577 43.914C14.5183 43.9533 14.479 43.9533 14.4397 43.973L14.0856 44.0123L14.0069 44.0517L13.9283 44.091L13.7512 44.1893L13.6332 44.327L13.5349 44.445L13.4365 44.5631C13.4037 44.5976 13.3771 44.6375 13.3578 44.6811L13.2988 44.7991C13.2917 44.8071 13.2863 44.8164 13.2829 44.8266C13.2795 44.8367 13.2783 44.8475 13.2792 44.8581H13.3578L13.4562 44.8188L13.5742 44.7794L13.6726 44.7204L13.7709 44.6811L13.8889 44.6024L14.1053 44.445L14.2626 44.2877C14.3413 44.1893 14.42 44.1697 14.5183 44.2484C14.5389 44.2615 14.5565 44.2788 14.57 44.2991C14.5836 44.3194 14.5928 44.3423 14.597 44.3664C14.6075 44.3878 14.6129 44.4114 14.6129 44.4352C14.6129 44.4591 14.6075 44.4826 14.597 44.5041L14.5577 44.5827C14.5577 44.6024 14.538 44.6221 14.5183 44.6417L14.4397 44.7204V44.7598L14.4003 44.8384H14.656L14.8134 44.7991L14.9904 44.7401L15.1674 44.6811L15.3445 44.6024L15.5018 44.5237L15.6789 44.445L15.7969 44.3664L16.3673 44.0713L16.8197 43.8156L16.9377 43.7369L17.0951 43.6189L17.2524 43.5206L17.4294 43.4616H17.5475C17.5894 43.4837 17.6236 43.518 17.6458 43.5599C17.6612 43.5751 17.6727 43.5937 17.6796 43.6142C17.6864 43.6347 17.6883 43.6566 17.6851 43.6779C17.6844 43.7265 17.6708 43.774 17.6458 43.8156L17.5868 43.8943L17.5081 43.973L17.4491 44.032L17.3901 44.091L17.2524 44.3074L17.1344 44.5237L17.0754 44.6811V44.8581L17.3704 44.7007L17.7048 44.445L17.8622 44.3074L17.9999 44.1893L18.1375 44.0517C18.1507 44.0311 18.168 44.0135 18.1883 44C18.2086 43.9864 18.2315 43.9772 18.2556 43.973L18.3146 43.9336H18.3932L18.4719 43.973L18.5113 44.0123L18.5506 44.091V44.1893C18.5467 44.2312 18.5332 44.2715 18.5113 44.3074L18.4523 44.4254L18.3932 44.5041L18.2949 44.6811L18.1375 44.9761L17.7835 45.4482L18.4916 44.7401L18.6489 44.6024L18.8063 44.4647L18.9637 44.3467L19.1013 44.268L19.5144 44.0123L19.6914 43.914L19.8881 43.8156L20.0652 43.7369L20.2422 43.6583H20.5372L20.5962 43.6976L20.6552 43.7369C20.6735 43.7674 20.6868 43.8006 20.6946 43.8353C20.6906 43.8771 20.6772 43.9175 20.6552 43.9533L20.5962 44.0123L20.5372 44.0517L20.4585 44.091L20.3209 44.1303L20.3799 44.1697H20.4389L20.6159 44.2287L20.7536 44.268L20.8913 44.386C20.9288 44.4245 20.9559 44.4719 20.97 44.5237C20.9856 44.5468 20.9926 44.5747 20.9896 44.6024L21.6781 44.209L21.7764 44.1697L21.8551 44.209L21.9141 44.268C21.93 44.2982 21.9368 44.3324 21.9338 44.3664C21.9331 44.4017 21.9237 44.4362 21.9066 44.4671C21.8894 44.498 21.865 44.5241 21.8354 44.5434L21.6977 44.5827L21.5207 44.6811L20.6946 45.1335L20.4782 45.2318L20.2422 45.3105H19.8291L19.6718 45.1925C19.628 45.1478 19.5944 45.0941 19.5734 45.0351C19.5467 44.98 19.5332 44.9194 19.5341 44.8581V44.7794L19.5734 44.6811L19.7111 44.6024H19.8095L19.8881 44.6417C19.9003 44.6509 19.9103 44.6628 19.9171 44.6764C19.9239 44.6901 19.9275 44.7052 19.9275 44.7204C19.9471 44.7401 19.9471 44.7794 19.9668 44.7991C19.9621 44.8395 19.969 44.8804 19.9865 44.9171H20.3012L20.3995 44.8778L20.4782 44.8188L20.5569 44.7598L20.5962 44.7007L20.6552 44.6221L20.5962 44.5827L20.5176 44.5237H20.3995L20.2815 44.4844L20.1635 44.445L20.0848 44.386C20.0455 44.3664 20.0258 44.327 20.0061 44.3074C19.9865 44.2877 19.9668 44.2484 19.9668 44.209V44.1697L19.6324 44.327L19.5537 44.386L19.4751 44.445L19.3571 44.5237H19.3374L19.2194 44.6221L19.0227 44.7598L18.9243 44.7991L18.885 44.8384L18.708 44.9958L18.5309 45.1335L18.3736 45.3105L18.2162 45.4875C18.1011 45.5961 17.9958 45.7146 17.9015 45.8416L17.6261 46.2153L17.3508 46.6087L17.1147 47.0218C16.9967 47.2578 16.8787 47.5332 16.741 47.7692V47.8282L16.6623 47.9462H16.6427C16.6132 47.9635 16.5804 47.9742 16.5465 47.9776C16.5125 47.981 16.4782 47.977 16.446 47.9659L16.3476 47.9069C16.3235 47.8796 16.3096 47.8449 16.3083 47.8085C16.2896 47.7794 16.2826 47.7443 16.2886 47.7102L16.3279 47.6315L16.387 47.5332L17.2721 45.7826L17.4884 45.3498L17.6851 44.8778L17.7638 44.7007L17.6851 44.7794L17.5278 44.9171L17.3311 45.0745L17.2131 45.1335L17.1147 45.1728H16.977L16.859 45.1335C16.8059 45.1123 16.7586 45.0786 16.7213 45.0351C16.6901 44.9951 16.6698 44.9477 16.6623 44.8974C16.6623 44.8384 16.6427 44.7794 16.6623 44.7401C16.6592 44.6804 16.6659 44.6206 16.682 44.5631C16.7213 44.445 16.7607 44.327 16.8197 44.1893L16.918 44.032L16.7213 44.1303L16.446 44.268L16.1706 44.4254L16.0722 44.4844L16.0132 44.5237L15.1281 44.9565L14.9117 45.0745L14.7937 45.1138L14.656 45.1531H14.2626L14.125 45.0548C14.0874 45.0164 14.0603 44.969 14.0463 44.9171V44.8581L13.6726 45.0941L13.5152 45.1728L13.3382 45.2122H13.1611L13.0235 45.1335L12.9054 45.0155C12.883 44.9589 12.8697 44.8992 12.8661 44.8384C12.8661 44.7991 12.8858 44.7598 12.8858 44.7204L12.9448 44.5827L13.0235 44.4254L13.1218 44.2877L13.2005 44.1697L12.5711 44.5041H12.5514L12.4334 44.5631L12.3154 44.6024L12.1187 44.6811L11.7056 44.7794H11.2335L11.1155 44.7401H11.0762L10.9582 44.8581L10.7615 44.9958L10.5648 45.0941H10.3484C10.3164 45.0969 10.2843 45.093 10.2538 45.0829C10.2234 45.0727 10.1953 45.0565 10.1714 45.0351C10.1165 45.0052 10.0746 44.9562 10.0534 44.8974C10.0309 44.8409 10.0176 44.7811 10.014 44.7204V44.6811L9.60097 45.0155L9.40427 45.1335L9.16824 45.2318H9.01088L8.83385 45.1925L8.75518 45.1335L8.69617 45.0548C8.67208 45.0276 8.65818 44.9928 8.65683 44.9565C8.65396 44.9161 8.6607 44.8757 8.6765 44.8384L8.73551 44.7007C8.74955 44.6489 8.77664 44.6015 8.81418 44.5631C8.91253 44.4254 9.03055 44.2877 9.1289 44.1303L9.06989 44.1697L8.59782 44.4057C8.53405 44.4544 8.46008 44.488 8.38145 44.5041C8.0274 44.7204 7.516 44.8581 7.1226 45.0351L6.98492 45.0745H6.68987L6.57186 45.0351L6.49318 44.9565C6.47124 44.9206 6.45778 44.8803 6.45384 44.8384C6.42954 44.7688 6.41627 44.6958 6.4145 44.6221V44.4057L6.47351 44.1893L6.33582 44.2877L5.98177 44.4844H5.9621L5.66706 44.6614L5.29334 44.9761L5.09664 45.1138L4.89995 45.2712L4.32953 45.7826C4.13675 45.9715 3.95917 46.1754 3.79845 46.3923L3.75912 46.471L3.71978 46.53L3.6411 46.589L3.54275 46.6284H3.40506L3.30672 46.5694L3.22804 46.4907L3.16903 46.412C3.16903 46.3727 3.14936 46.3333 3.14936 46.294C3.13346 46.2638 3.12663 46.2296 3.12969 46.1956V45.9793C3.12969 45.8613 3.14936 45.7236 3.14936 45.5859C3.14936 45.4482 3.20837 45.3302 3.22804 45.1925L3.32639 44.8188L3.42473 44.5237H2.40192L2.10687 44.5631L1.8315 44.6024L1.49712 44.6417L1.20208 45.2515C1.18241 45.3302 1.14307 45.3892 1.1234 45.4679C1.10373 45.5465 1.10373 45.6055 1.08406 45.6842V45.8219C1.06932 45.8624 1.04168 45.897 1.00538 45.9203L0.907033 45.9596C0.873245 45.9629 0.839184 45.9574 0.808163 45.9436C0.777142 45.9298 0.750217 45.9082 0.730007 45.8809L0.670999 45.8022V45.7039C0.672611 45.5457 0.713143 45.3903 0.789016 45.2515L1.02505 44.7598L0.63166 44.8974L0.513642 44.9565L0.238269 45.0745L0.17926 45.1138H0.0809128L0.0219042 45.0745V45.0155C0.0147873 45.0075 0.00937253 44.9981 0.00599063 44.988C0.00260874 44.9778 0.00133073 44.9671 0.0022347 44.9565V44.8581L0.0415738 44.7991L0.0809128 44.7598V44.7401Z" fill="#C39B54"/>
<path d="M95.3797 45.0352C95.4295 45.0381 95.4794 45.0304 95.526 45.0126C95.5727 44.9948 95.615 44.9674 95.6503 44.9321C95.6856 44.8968 95.713 44.8545 95.7308 44.8078C95.7486 44.7612 95.7563 44.7113 95.7534 44.6615C95.7534 44.5624 95.7141 44.4673 95.644 44.3973C95.5739 44.3272 95.4788 44.2878 95.3797 44.2878C95.2806 44.2878 95.1855 44.3272 95.1155 44.3973C95.0454 44.4673 95.006 44.5624 95.006 44.6615C95.0031 44.7113 95.0109 44.7612 95.0286 44.8078C95.0464 44.8545 95.0738 44.8968 95.1091 44.9321C95.1444 44.9674 95.1868 44.9948 95.2334 45.0126C95.28 45.0304 95.3299 45.0381 95.3797 45.0352ZM94.0028 44.5435C93.8652 44.5435 93.7471 44.4255 93.7471 44.2288C93.7471 44.161 93.7741 44.0959 93.822 44.048C93.87 44 93.935 43.9731 94.0028 43.9731C94.0707 43.9731 94.1357 44 94.1837 44.048C94.2316 44.0959 94.2586 44.161 94.2586 44.2288C94.2586 44.4255 94.1405 44.5435 94.0028 44.5435ZM94.0028 45.0352C94.5143 45.0352 94.888 44.7009 94.888 44.2288C94.888 43.7567 94.5143 43.442 94.0028 43.442C93.4914 43.442 93.0981 43.7567 93.0981 44.2288C93.0981 44.7009 93.4718 45.0352 94.0028 45.0352ZM92.1736 45.0549C92.3415 45.0626 92.509 45.0311 92.6626 44.9628C92.8163 44.8945 92.9519 44.7914 93.0587 44.6615L92.626 44.2878C92.5751 44.3544 92.5096 44.4085 92.4346 44.446C92.3597 44.4835 92.2771 44.5034 92.1933 44.5042C92.1295 44.5077 92.0657 44.497 92.0065 44.473C91.9474 44.4489 91.8942 44.4121 91.851 44.3651C91.8077 44.3181 91.7754 44.2621 91.7564 44.2011C91.7374 44.1401 91.732 44.0757 91.7409 44.0124C91.7354 43.9498 91.743 43.8867 91.7633 43.8272C91.7836 43.7677 91.816 43.713 91.8586 43.6668C91.9012 43.6205 91.9529 43.5836 92.0105 43.5585C92.0682 43.5333 92.1304 43.5204 92.1933 43.5207C92.2794 43.5204 92.3643 43.5419 92.4399 43.5831C92.5156 43.6244 92.5796 43.6841 92.626 43.7567L93.0587 43.383C92.9519 43.2532 92.8163 43.15 92.6626 43.0817C92.509 43.0134 92.3415 42.9819 92.1736 42.9896C91.5245 42.9896 91.0721 43.4027 91.0721 44.0124C91.0721 44.6222 91.5245 45.0549 92.1736 45.0549ZM88.6331 44.4845V43.5403H88.9084C88.9712 43.5376 89.0338 43.5479 89.0923 43.5706C89.1509 43.5933 89.204 43.628 89.2485 43.6724C89.2929 43.7168 89.3275 43.77 89.3503 43.8285C89.373 43.8871 89.3833 43.9497 89.3805 44.0124C89.3866 44.0759 89.3786 44.14 89.357 44.2C89.3354 44.2601 89.3009 44.3146 89.2557 44.3597C89.2106 44.4048 89.1561 44.4394 89.0961 44.461C89.036 44.4826 88.9719 44.4906 88.9084 44.4845H88.6331ZM87.9643 44.9959H88.9478C89.5969 44.9959 90.0493 44.6222 90.0493 44.0124C90.0493 43.4027 89.5969 43.0289 88.9478 43.0289H87.9643V44.9959ZM86.7251 44.5042V44.2485H87.5512V43.7567H86.7251V43.5403H87.6693V43.0289H86.076V44.9959H87.7086V44.5042H86.7251ZM85.0729 44.9959H85.7416V43.0289H85.0729V44.9959ZM84.8762 43.5403V43.0289H83.2633V44.9959H83.932V44.3665H84.7582V43.8747H83.932V43.5403H84.8762ZM82.2798 44.9959H82.9486V43.0289H82.2798V44.9959ZM80.8636 44.9959H81.5127V43.5403H82.1028V43.0289H80.2735V43.5403H80.8636V44.9959ZM79.5261 43.7764C79.5298 43.81 79.5255 43.8441 79.5136 43.8758C79.5018 43.9075 79.4826 43.9359 79.4577 43.9589C79.4329 43.9818 79.403 43.9986 79.3704 44.0079C79.3379 44.0172 79.3036 44.0188 79.2704 44.0124H79.0147V43.5403H79.2704C79.3036 43.534 79.3379 43.5355 79.3704 43.5448C79.403 43.5541 79.4329 43.5709 79.4577 43.5939C79.4826 43.6168 79.5018 43.6453 79.5136 43.677C79.5255 43.7087 79.5298 43.7427 79.5261 43.7764ZM79.5261 44.9959H80.2538L79.8408 44.3861C79.9539 44.3315 80.0481 44.2442 80.1112 44.1355C80.1743 44.0268 80.2034 43.9018 80.1948 43.7764C80.1948 43.324 79.8605 43.0289 79.3097 43.0289H78.3459V44.9959H79.0147V44.5042H79.1917L79.5261 44.9959ZM77.1067 44.5042V44.2485H77.9525V43.7567H77.1067V43.5403H78.0509V43.0289H76.4576V44.9959H78.0902V44.5042H77.1067ZM75.3758 45.0549C75.544 45.0642 75.7119 45.0334 75.8658 44.965C76.0197 44.8966 76.1551 44.7926 76.2609 44.6615L75.8479 44.2878C75.797 44.3544 75.7315 44.4085 75.6565 44.446C75.5816 44.4835 75.499 44.5034 75.4151 44.5042C75.3506 44.5072 75.2862 44.4964 75.2262 44.4725C75.1663 44.4486 75.1121 44.4121 75.0674 44.3656C75.0226 44.319 74.9884 44.2634 74.967 44.2025C74.9455 44.1415 74.9374 44.0767 74.9431 44.0124C74.9374 43.9481 74.9455 43.8833 74.967 43.8224C74.9884 43.7615 75.0226 43.7059 75.0674 43.6593C75.1121 43.6127 75.1663 43.5762 75.2262 43.5523C75.2862 43.5284 75.3506 43.5176 75.4151 43.5207C75.5013 43.5204 75.5862 43.5419 75.6618 43.5831C75.7375 43.6244 75.8015 43.6841 75.8479 43.7567L76.2609 43.383C76.1551 43.2519 76.0197 43.1479 75.8658 43.0795C75.7119 43.0111 75.544 42.9803 75.3758 42.9896C74.7464 42.9896 74.2743 43.4027 74.2743 44.0124C74.2741 44.1544 74.3029 44.295 74.3589 44.4255C74.415 44.556 74.4971 44.6736 74.6002 44.7712C74.7033 44.8689 74.8253 44.9444 74.9587 44.9931C75.0921 45.0419 75.234 45.0629 75.3758 45.0549ZM72.4844 43.7174H72.386V43.5403H73.1531V43.0289H71.8353L71.7369 44.2288H72.3074C72.5434 44.2288 72.6024 44.2878 72.6024 44.3665C72.6024 44.4451 72.5041 44.5238 72.3467 44.5238C72.1607 44.5252 71.9775 44.4778 71.8156 44.3861L71.5993 44.8779C71.8358 45.0009 72.0998 45.0618 72.3664 45.0549C72.9958 45.0549 73.2712 44.7009 73.2712 44.3468C73.2712 43.9927 73.0745 43.7174 72.4844 43.7174ZM70.4388 43.0289V43.5403H70.7731V44.9959H71.4419V43.0289H70.4388ZM69.4749 44.5238C69.3373 44.5238 69.2389 44.4058 69.2389 44.0124C69.2389 43.619 69.3373 43.5207 69.4749 43.5207C69.6126 43.5207 69.6913 43.6387 69.6913 44.0124C69.6913 44.3861 69.593 44.5238 69.4749 44.5238ZM69.4749 45.0549C69.9864 45.0549 70.3601 44.6615 70.3601 44.0124C70.3601 43.3633 69.9864 42.9896 69.4749 42.9896C68.9635 42.9896 68.5701 43.3633 68.5701 44.0124C68.5701 44.6615 68.9439 45.0549 69.4749 45.0549ZM67.7637 44.4845L68.0587 44.2288C68.3341 43.9731 68.3931 43.7961 68.3931 43.5994C68.3931 43.4027 68.0587 42.9896 67.5867 42.9896C67.4171 42.9758 67.2472 43.0111 67.0972 43.0913C66.9472 43.1715 66.8235 43.2933 66.7409 43.442L67.2523 43.6977C67.2747 43.6421 67.3125 43.594 67.3613 43.5592C67.4101 43.5244 67.4678 43.5042 67.5277 43.501C67.6653 43.501 67.7244 43.56 67.7244 43.6584C67.7244 43.7567 67.7047 43.8157 67.567 43.9337L66.8589 44.6025V44.9959H68.4325V44.4845H67.7637ZM65.5017 45.0352C65.5515 45.0381 65.6014 45.0304 65.648 45.0126C65.6947 44.9948 65.737 44.9674 65.7723 44.9321C65.8076 44.8968 65.835 44.8545 65.8528 44.8078C65.8706 44.7612 65.8783 44.7113 65.8754 44.6615C65.8754 44.5624 65.836 44.4673 65.766 44.3973C65.6959 44.3272 65.6008 44.2878 65.5017 44.2878C65.4026 44.2878 65.3075 44.3272 65.2374 44.3973C65.1674 44.4673 65.128 44.5624 65.128 44.6615C65.1251 44.7113 65.1328 44.7612 65.1506 44.8078C65.1684 44.8545 65.1958 44.8968 65.2311 44.9321C65.2664 44.9674 65.3087 44.9948 65.3554 45.0126C65.402 45.0304 65.4519 45.0381 65.5017 45.0352ZM65.5017 44.1698C65.5515 44.1726 65.6014 44.1649 65.648 44.1471C65.6947 44.1294 65.737 44.1019 65.7723 44.0667C65.8076 44.0314 65.835 43.989 65.8528 43.9424C65.8706 43.8957 65.8783 43.8459 65.8754 43.7961C65.8754 43.6969 65.836 43.6019 65.766 43.5318C65.6959 43.4617 65.6008 43.4223 65.5017 43.4223C65.4026 43.4223 65.3075 43.4617 65.2374 43.5318C65.1674 43.6019 65.128 43.6969 65.128 43.7961C65.1251 43.8459 65.1328 43.8957 65.1506 43.9424C65.1684 43.989 65.1958 44.0314 65.2311 44.0667C65.2664 44.1019 65.3087 44.1294 65.3554 44.1471C65.402 44.1649 65.4519 44.1726 65.5017 44.1698ZM63.0627 43.0289V43.5403H63.3971V44.9959H64.0658V43.0289H63.0627ZM62.0989 44.5238C61.9612 44.5238 61.8628 44.4058 61.8628 44.0124C61.8628 43.619 61.9612 43.5207 62.0989 43.5207C62.2366 43.5207 62.3152 43.6387 62.3152 44.0124C62.3152 44.3861 62.2169 44.5238 62.0989 44.5238ZM62.0989 45.0549C62.6103 45.0549 62.984 44.6615 62.984 44.0124C62.984 43.3633 62.6103 42.9896 62.0989 42.9896C61.5875 42.9896 61.1941 43.3633 61.1941 44.0124C61.1941 44.6615 61.5678 45.0549 62.0989 45.0549ZM60.1516 44.5238C60.0139 44.5238 59.9156 44.4058 59.9156 44.0124C59.9156 43.619 60.0139 43.5207 60.1516 43.5207C60.2893 43.5207 60.368 43.6387 60.368 44.0124C60.368 44.3861 60.2696 44.5238 60.1516 44.5238ZM60.1516 45.0549C60.663 45.0549 61.0367 44.6615 61.0367 44.0124C61.0367 43.3633 60.663 42.9896 60.1516 42.9896C59.6402 42.9896 59.2468 43.3633 59.2468 44.0124C59.2468 44.6615 59.6205 45.0549 60.1516 45.0549ZM58.1846 43.8551C58.1571 43.8552 58.1298 43.8495 58.1045 43.8384C58.0793 43.8274 58.0567 43.8111 58.0381 43.7907C58.0196 43.7703 58.0055 43.7462 57.9969 43.72C57.9882 43.6938 57.9852 43.6661 57.9879 43.6387C57.9879 43.5865 58.0087 43.5365 58.0456 43.4996C58.0824 43.4627 58.1325 43.442 58.1846 43.442C58.2368 43.442 58.2868 43.4627 58.3237 43.4996C58.3606 43.5365 58.3813 43.5865 58.3813 43.6387C58.3841 43.6661 58.381 43.6938 58.3724 43.72C58.3638 43.7462 58.3497 43.7703 58.3312 43.7907C58.3126 43.8111 58.29 43.8274 58.2647 43.8384C58.2395 43.8495 58.2122 43.8552 58.1846 43.8551ZM58.1453 42.9896C57.6929 42.9896 57.3388 43.2453 57.3388 43.678C57.3387 43.7641 57.3562 43.8493 57.3902 43.9284C57.4243 44.0074 57.4742 44.0786 57.5369 44.1376C57.5996 44.1966 57.6737 44.2421 57.7546 44.2713C57.8356 44.3005 57.9217 44.3128 58.0076 44.3075C58.1486 44.3165 58.2882 44.2746 58.401 44.1894C58.3963 44.2405 58.3811 44.2901 58.3564 44.3351C58.3317 44.38 58.298 44.4194 58.2574 44.4508C58.2168 44.4821 58.1702 44.5048 58.1204 44.5174C58.0707 44.53 58.0189 44.5321 57.9683 44.5238C57.8429 44.5282 57.7193 44.4939 57.6142 44.4255L57.3782 44.8975C57.563 45.0052 57.7741 45.0597 57.9879 45.0549C58.1356 45.0668 58.2841 45.0464 58.4231 44.9953C58.5621 44.9441 58.6884 44.8634 58.7931 44.7586C58.8979 44.6539 58.9786 44.5276 59.0298 44.3886C59.081 44.2496 59.1013 44.1011 59.0894 43.9534C59.0894 43.3043 58.696 42.9896 58.1453 42.9896ZM55.2539 44.5042C55.1917 44.5047 55.1302 44.4919 55.0734 44.4666C55.0167 44.4412 54.966 44.404 54.925 44.3573C54.8839 44.3107 54.8534 44.2557 54.8355 44.1962C54.8176 44.1367 54.8127 44.074 54.8211 44.0124C54.8072 43.9465 54.8081 43.8783 54.8239 43.8128C54.8396 43.7473 54.8698 43.6861 54.9122 43.6338C54.9546 43.5815 55.0082 43.5392 55.069 43.5102C55.1298 43.4813 55.1963 43.4662 55.2637 43.4662C55.3311 43.4662 55.3976 43.4813 55.4584 43.5102C55.5192 43.5392 55.5728 43.5815 55.6152 43.6338C55.6576 43.6861 55.6878 43.7473 55.7036 43.8128C55.7193 43.8783 55.7202 43.9465 55.7063 44.0124C55.7117 44.0751 55.7041 44.1381 55.6838 44.1976C55.6635 44.2572 55.6311 44.3118 55.5885 44.3581C55.546 44.4043 55.4942 44.4412 55.4366 44.4664C55.379 44.4915 55.3167 44.5044 55.2539 44.5042ZM55.2539 45.0549C55.903 45.0549 56.375 44.6222 56.375 44.0124C56.375 43.4027 55.903 42.9896 55.2539 42.9896C54.6048 42.9896 54.1524 43.4223 54.1524 44.0124C54.1524 44.6025 54.6048 45.0549 55.2539 45.0549ZM53.1099 45.0549C53.7197 45.0549 54.0147 44.7402 54.0147 44.3861C54.0147 43.6584 52.9329 43.8551 52.9329 43.619C52.9329 43.383 52.9919 43.501 53.1886 43.501C53.3805 43.5022 53.5694 43.5494 53.7393 43.6387L53.936 43.147C53.7015 43.0401 53.4463 42.9864 53.1886 42.9896C52.5788 42.9896 52.2838 43.2846 52.2838 43.6584C52.2838 44.3861 53.3656 44.1894 53.3656 44.4255C53.3656 44.6615 53.3066 44.5435 53.1099 44.5435C52.8827 44.536 52.6604 44.4754 52.4608 44.3665L52.2444 44.8385C52.5068 44.9906 52.8068 45.0656 53.1099 45.0549ZM51.379 44.9959H52.0477V43.0289H51.379V44.9959ZM95.0847 38.4263C95.1707 38.429 95.2563 38.4141 95.3363 38.3824C95.4163 38.3508 95.4889 38.3031 95.5497 38.2422C95.6106 38.1814 95.6583 38.1088 95.6899 38.0288C95.7216 37.9488 95.7365 37.8632 95.7338 37.7772C95.7338 37.605 95.6654 37.4399 95.5437 37.3182C95.4219 37.1965 95.2568 37.1281 95.0847 37.1281C94.9125 37.1281 94.7474 37.1965 94.6257 37.3182C94.504 37.4399 94.4356 37.605 94.4356 37.7772C94.4328 37.8632 94.4478 37.9488 94.4794 38.0288C94.5111 38.1088 94.5588 38.1814 94.6196 38.2422C94.6804 38.3031 94.7531 38.3508 94.8331 38.3824C94.9131 38.4141 94.9987 38.429 95.0847 38.4263ZM91.8195 37.4625V35.8299H92.3113C92.506 35.8602 92.6835 35.9591 92.8117 36.1088C92.9398 36.2585 93.0103 36.4491 93.0103 36.6462C93.0103 36.8433 92.9398 37.0338 92.8117 37.1835C92.6835 37.3332 92.506 37.4321 92.3113 37.4625H91.8195ZM90.659 38.3673H92.3506C93.5111 38.3673 94.2979 37.7182 94.2979 36.656C94.2979 35.5939 93.5111 34.9251 92.3506 34.9251H90.659V38.3673ZM88.1807 38.3673H89.3412V35.8299H90.364V34.9251H87.1775V35.8299H88.1807V38.3673ZM84.7188 38.3673H87.4332V37.4625H85.8793V34.9251H84.7188V38.3673ZM82.2208 38.4263C82.3068 38.429 82.3924 38.4141 82.4724 38.3824C82.5524 38.3508 82.625 38.3031 82.6859 38.2422C82.7467 38.1814 82.7944 38.1088 82.826 38.0288C82.8577 37.9488 82.8726 37.8632 82.8699 37.7772C82.8699 37.605 82.8015 37.4399 82.6798 37.3182C82.558 37.1965 82.393 37.1281 82.2208 37.1281C82.0487 37.1281 81.8835 37.1965 81.7618 37.3182C81.6401 37.4399 81.5717 37.605 81.5717 37.7772C81.569 37.8632 81.5839 37.9488 81.6155 38.0288C81.6472 38.1088 81.6949 38.1814 81.7557 38.2422C81.8166 38.3031 81.8892 38.3508 81.9692 38.3824C82.0492 38.4141 82.1348 38.429 82.2208 38.4263ZM79.4671 38.3673H80.6276V35.8299H81.6307V34.9251H78.4443V35.8299H79.4671V38.3673ZM77.4804 34.9251L76.6347 36.9314L75.8282 34.9251H74.5694L76.0249 38.3673H77.1657L78.6213 34.9251H77.4804ZM72.9761 36.6363H72.5434V35.8299H72.9761C73.2908 35.8299 73.4482 35.9676 73.4482 36.2233C73.4482 36.479 73.2908 36.6363 72.9761 36.6363ZM73.0548 34.9251H71.3829V38.3673H72.5434V37.5215H73.0548C73.9989 37.5215 74.6087 37.0297 74.6087 36.2233C74.6087 35.4168 73.9989 34.9251 73.0548 34.9251ZM67.449 38.3673H68.6095V35.8299H69.6126V34.9251H66.4458V35.8299H67.449V38.3673ZM65.01 34.9251V36.4987L63.6921 34.9251H62.748V38.3673H63.8691V36.8134L65.187 38.3673H66.1311V34.9251H65.01ZM60.1319 36.9314L60.4663 36.0659L60.8007 36.9314H60.1319ZM61.3514 38.3673H62.5513L61.0564 34.9251H59.9156L58.401 38.3673H59.5812L59.8172 37.7772H61.1351L61.3514 38.3673ZM56.493 38.3673H57.6536V35.8299H58.6567V34.9251H55.4899V35.8299H56.493V38.3673ZM53.0312 38.3673H55.7456V37.4625H54.1917V34.9251H53.0312V38.3673ZM50.8282 38.4459C51.8707 38.4459 52.5001 37.8559 52.5001 36.8134V34.9251H51.3593V36.7937C51.3593 37.3051 51.1626 37.5018 50.8282 37.5018C50.4938 37.5018 50.2971 37.3051 50.2971 36.7937V34.9251H49.1366V36.8134C49.1366 37.8559 49.7661 38.4459 50.8282 38.4459ZM47.2287 38.4459C48.2909 38.4459 48.8219 37.9149 48.8219 37.2854C48.8219 36.0266 46.9337 36.361 46.9337 35.9479C46.9337 35.8299 47.032 35.7315 47.3664 35.7315C47.7039 35.7352 48.0352 35.823 48.3302 35.9872L48.6842 35.1415C48.2814 34.9406 47.8362 34.8395 47.3861 34.8464C46.3239 34.8464 45.7732 35.3775 45.7732 36.0069C45.7732 37.2854 47.6811 36.9511 47.6811 37.3838C47.6811 37.5018 47.5631 37.5608 47.2287 37.5608C46.8338 37.5565 46.447 37.4479 46.1075 37.2461L45.7338 38.0919C46.1928 38.3381 46.7081 38.4601 47.2287 38.4459ZM44.2586 34.9251V36.4987L42.9407 34.9251H41.9966V38.3673H43.1178V36.8134L44.4356 38.3673H45.3798V34.9251H44.2586ZM39.6166 37.5018C39.2035 37.5018 38.8495 37.1871 38.8495 36.656C38.8495 36.1249 39.2035 35.7906 39.6166 35.7906C40.0297 35.7906 40.4034 36.1053 40.4034 36.656C40.4115 36.7642 40.3972 36.8729 40.3613 36.9753C40.3254 37.0776 40.2688 37.1715 40.1949 37.2509C40.121 37.3303 40.0315 37.3936 39.932 37.4368C39.8324 37.48 39.7251 37.5021 39.6166 37.5018ZM39.6166 38.4459C40.7378 38.4459 41.5639 37.6985 41.5639 36.656C41.5639 35.6135 40.7378 34.8464 39.6166 34.8464C38.4954 34.8464 37.689 35.6135 37.689 36.656C37.689 37.6985 38.4954 38.4459 39.6166 38.4459ZM36.0171 38.4459C36.6858 38.4459 37.2169 38.2099 37.5513 37.7575L36.8235 37.1084C36.7403 37.2298 36.6288 37.3291 36.4985 37.3977C36.3683 37.4662 36.2233 37.502 36.0761 37.5018C35.9651 37.5081 35.8541 37.4902 35.7507 37.4494C35.6473 37.4085 35.5541 37.3457 35.4774 37.2653C35.4007 37.1848 35.3424 37.0887 35.3065 36.9835C35.2706 36.8783 35.258 36.7666 35.2696 36.656C35.2696 36.1249 35.5843 35.7906 36.0761 35.7906C36.2233 35.7904 36.3683 35.8261 36.4985 35.8947C36.6288 35.9632 36.7403 36.0625 36.8235 36.1839L37.5513 35.5349C37.3671 35.3082 37.1324 35.1279 36.866 35.0083C36.5996 34.8887 36.3088 34.8333 36.0171 34.8464C34.9156 34.8464 34.0895 35.5939 34.0895 36.656C34.0895 37.7182 34.9156 38.4459 36.0171 38.4459ZM31.0603 34.9251V36.4987L29.7622 34.9251H28.7984V38.3673H29.9392V36.8134L31.2374 38.3673H32.2012V34.9251H31.0603ZM26.438 37.5018C26.0053 37.5018 25.6709 37.1871 25.6709 36.656C25.6709 36.1249 26.0053 35.7906 26.438 35.7906C26.8707 35.7906 27.2051 36.1053 27.2051 36.656C27.2051 37.2068 26.8707 37.5018 26.438 37.5018ZM26.438 38.4459C27.5592 38.4459 28.3853 37.6985 28.3853 36.656C28.3853 35.6135 27.5592 34.8464 26.438 34.8464C25.3168 34.8464 24.4907 35.6135 24.4907 36.656C24.4907 37.6985 25.3168 38.4459 26.438 38.4459ZM22.9172 38.3673H24.0777V34.9251H22.9172V38.3673ZM20.4388 38.3673H21.5993V35.8299H22.6221V34.9251H19.4357V35.8299H20.4388V38.3673ZM17.272 36.9314L17.6064 36.0659L17.9408 36.9314H17.272ZM18.4915 38.3673H19.6914L18.1768 34.9251H17.036L15.5411 38.3673H16.7213L16.9376 37.7772H18.2555L18.4915 38.3673ZM14.0855 38.4459C14.7543 38.4459 15.2854 38.2099 15.6198 37.7575L14.892 37.1084C14.8076 37.2287 14.6958 37.3271 14.5658 37.3955C14.4358 37.4639 14.2914 37.5003 14.1446 37.5018C14.0336 37.5081 13.9226 37.4902 13.8192 37.4494C13.7158 37.4085 13.6226 37.3457 13.5459 37.2653C13.4692 37.1848 13.4108 37.0887 13.375 36.9835C13.3391 36.8783 13.3265 36.7666 13.3381 36.656C13.3381 36.1249 13.6528 35.7906 14.1446 35.7906C14.2914 35.792 14.4358 35.8285 14.5658 35.8969C14.6958 35.9653 14.8076 36.0637 14.892 36.1839L15.6198 35.5349C15.4356 35.3082 15.2009 35.1279 14.9345 35.0083C14.668 34.8887 14.3773 34.8333 14.0855 34.8464C12.9644 34.8464 12.1579 35.5939 12.1579 36.656C12.1579 37.7182 12.9644 38.4459 14.0855 38.4459ZM10.0926 38.4459C11.1548 38.4459 11.7645 37.8559 11.7645 36.8134V34.9251H10.6237V36.7937C10.6237 37.3051 10.427 37.5018 10.0926 37.5018C9.75825 37.5018 9.58122 37.3051 9.58122 36.7937V34.9251H8.42072V36.8134C8.42072 37.8559 9.03048 38.4459 10.0926 38.4459ZM5.54897 37.4625V35.8299H6.04071C6.23543 35.8602 6.41291 35.9591 6.5411 36.1088C6.66928 36.2585 6.73973 36.4491 6.73973 36.6462C6.73973 36.8433 6.66928 37.0338 6.5411 37.1835C6.41291 37.3332 6.23543 37.4321 6.04071 37.4625H5.54897ZM4.38847 38.3673H6.08005C7.24055 38.3673 8.02733 37.7182 8.02733 36.656C8.02733 35.5939 7.24055 34.9251 6.08005 34.9251H4.38847V38.3673ZM2.22482 37.5018V37.0494H3.68036V36.2036H2.22482V35.8102H3.87706V34.9251H1.08398V38.3673H3.93607V37.5018H2.22482ZM55.3326 21.0384L48.3892 23.7331C48.435 24.1744 48.5273 24.6095 48.6646 25.0313C48.811 25.5054 49.0372 25.9511 49.3333 26.3492C49.5694 26.6784 49.8793 26.9479 50.2381 27.136C50.5638 27.3123 50.93 27.4005 51.3003 27.3917C51.5331 27.3894 51.7646 27.3564 51.9887 27.2933C52.2214 27.2358 52.4415 27.1357 52.6378 26.9983C52.8699 26.8572 53.0816 26.6851 53.2673 26.4869C53.4828 26.2532 53.6801 26.0033 53.8573 25.7394L54.4081 24.8936L56.198 27.1556L55.9226 27.5884C55.6641 28.0069 55.3607 28.3961 55.0178 28.7489C54.6734 29.0817 54.2904 29.3723 53.877 29.6143C53.4746 29.8624 53.0369 30.0481 52.5788 30.1651C52.1163 30.2844 51.6403 30.3439 51.1626 30.3421C50.2939 30.355 49.4356 30.1523 48.6646 29.752C47.8909 29.3155 47.2254 28.7105 46.7173 27.9818C46.1681 27.1816 45.7683 26.2886 45.5371 25.346C45.2663 24.2657 45.1341 23.1553 45.1437 22.0416C45.1416 21.072 45.2673 20.1065 45.5175 19.1698C45.7712 18.3121 46.1632 17.5016 46.678 16.7701C47.1541 16.0998 47.7719 15.5424 48.4876 15.1375C49.1784 14.7521 49.9585 14.5553 50.7495 14.5671C51.3942 14.5548 52.0332 14.6893 52.6182 14.9605C53.2083 15.248 53.7312 15.6568 54.1524 16.1604C54.6097 16.6967 54.9692 17.3092 55.2145 17.97C55.49 18.7147 55.6877 19.4859 55.8046 20.2713L55.8833 20.8417L55.3326 21.0384ZM52.3231 19.2681L52.1461 18.7764C52.0392 18.5255 51.8931 18.2931 51.7134 18.088C51.5869 17.9418 51.4332 17.8216 51.261 17.7339C51.0955 17.6538 50.9137 17.6134 50.7299 17.6159C50.3933 17.6073 50.0606 17.6887 49.7661 17.8519C49.4605 18.0459 49.2046 18.3086 49.0186 18.6191C48.7682 19.0321 48.5887 19.4842 48.4876 19.9566C48.4128 20.2605 48.3602 20.5695 48.3302 20.881L52.3231 19.2681ZM44.0422 21.0384L37.0792 23.7331C37.1346 24.1728 37.2267 24.607 37.3546 25.0313C37.5078 25.5064 37.7406 25.9521 38.043 26.3492C38.2766 26.6734 38.5788 26.942 38.9282 27.136C39.2539 27.3123 39.62 27.4005 39.9903 27.3917C40.2296 27.3893 40.4676 27.3563 40.6984 27.2933C40.9284 27.2281 41.1472 27.1287 41.3475 26.9983C41.5732 26.8565 41.7784 26.6844 41.9573 26.4869C42.1844 26.2633 42.3826 26.0122 42.5474 25.7394L43.0981 24.8936L44.888 27.1556L44.6323 27.5884C44.3671 28.0075 44.0572 28.3967 43.7079 28.7489C43.3743 29.0859 42.9972 29.377 42.5867 29.6143C42.1843 29.8624 41.7466 30.0481 41.2885 30.1651C40.8259 30.2844 40.35 30.3439 39.8723 30.3421C38.9974 30.3542 38.133 30.1516 37.3546 29.752C36.5809 29.3155 35.9154 28.7105 35.4073 27.9818C34.8582 27.1816 34.4583 26.2886 34.2271 25.346C33.9563 24.2657 33.8241 23.1553 33.8338 22.0416C33.8279 21.0705 33.9604 20.1035 34.2271 19.1698C34.4729 18.309 34.8655 17.4972 35.3876 16.7701C35.8588 16.0954 36.4777 15.537 37.1972 15.1375C37.8809 14.7519 38.6548 14.5551 39.4396 14.5671C40.0906 14.5545 40.736 14.689 41.3278 14.9605C41.9088 15.2537 42.4241 15.6619 42.8424 16.1604C43.2997 16.6967 43.6592 17.3092 43.9046 17.97C44.1982 18.7089 44.3965 19.4822 44.4946 20.2713L44.5733 20.8417L44.0422 21.0384ZM41.0131 19.2681L40.8361 18.7764C40.7367 18.5216 40.5898 18.288 40.4034 18.088C40.2769 17.9418 40.1232 17.8216 39.951 17.7339C39.7856 17.6538 39.6037 17.6134 39.4199 17.6159C39.0899 17.6098 38.7641 17.6913 38.4758 17.8519C38.1601 18.0397 37.8964 18.3034 37.7087 18.6191C37.4582 19.0321 37.2787 19.4842 37.1776 19.9566C37.1096 20.261 37.0636 20.57 37.0399 20.881L41.0131 19.2681ZM30.4506 18.5797V26.1328C30.4506 26.5459 30.4506 26.8999 30.4703 27.1753C30.4899 27.4507 30.5096 27.726 30.5293 27.9621C30.5446 28.1666 30.5708 28.3701 30.6079 28.5718C30.6473 28.7489 30.6866 28.9259 30.726 29.0636L31.0407 30.0077H26.7331L27.0478 29.0439C27.1079 28.8993 27.1476 28.747 27.1658 28.5915C27.2044 28.4099 27.2307 28.2259 27.2445 28.0408C27.2641 27.8244 27.2838 27.5687 27.2838 27.254C27.2838 26.9393 27.3035 26.6049 27.3035 26.1328V18.7174C27.3035 18.3633 27.3035 18.0683 27.2838 17.8519C27.2833 17.6611 27.2702 17.4706 27.2445 17.2815C27.2296 17.1484 27.2033 17.0167 27.1658 16.8881C27.1449 16.7799 27.1119 16.6743 27.0674 16.5734L26.7724 15.9637L30.2342 14.1147L30.2932 15.2162L30.6276 15.0195C30.905 14.8615 31.2029 14.7424 31.5127 14.6655C31.8354 14.5929 32.1656 14.5599 32.4962 14.5671C32.6742 14.5591 32.8525 14.5723 33.0273 14.6065C33.2097 14.6355 33.3839 14.7025 33.5387 14.8032H33.5584C33.7295 14.9139 33.8659 15.0707 33.9518 15.2556C34.0242 15.4298 34.0578 15.6178 34.0501 15.8063C34.0534 15.9181 34.0468 16.03 34.0304 16.1407C34.0104 16.1912 33.9972 16.2441 33.9911 16.298L33.9518 16.3964L33.4404 18.147L32.5552 17.9306L32.3782 17.8913H32.0438C31.8846 17.8916 31.7261 17.9114 31.5718 17.9503C31.402 17.9917 31.2372 18.051 31.08 18.1273C30.9179 18.2071 30.766 18.3061 30.6276 18.4224L30.4506 18.5797ZM16.7606 8.35156V15.3932L17.7047 14.9802C18.1002 14.8362 18.5086 14.7308 18.9242 14.6655C19.3465 14.5937 19.7745 14.5607 20.2028 14.5671C20.8013 14.5573 21.398 14.6369 21.973 14.8032C22.4936 14.9589 22.9708 15.2338 23.3669 15.6059C23.7629 15.978 24.0668 16.4372 24.2547 16.9471C24.4413 17.4982 24.5344 18.0766 24.5301 18.6584V26.1328C24.5301 26.5459 24.5301 26.8999 24.5497 27.1753C24.5475 27.4387 24.5672 27.7019 24.6087 27.9621C24.624 28.1666 24.6503 28.3701 24.6874 28.5718C24.7268 28.7489 24.7661 28.9259 24.8054 29.0636L25.1005 30.0077H20.9109L21.1862 29.0832C21.2059 28.9456 21.2453 28.8079 21.2649 28.6702C21.2846 28.5325 21.3043 28.3358 21.3239 28.1391C21.3436 27.9424 21.3633 27.6474 21.3633 27.3523C21.3633 27.0573 21.3829 26.6836 21.3829 26.1328V19.3665C21.3874 19.0165 21.3544 18.667 21.2846 18.324C21.2436 18.1481 21.1702 17.9813 21.0682 17.8323C20.9798 17.7296 20.8637 17.6546 20.7338 17.6159C20.5045 17.5458 20.2655 17.5126 20.0257 17.5176C19.7021 17.5201 19.3794 17.553 19.0619 17.6159C18.752 17.6777 18.4489 17.7699 18.1571 17.8913C17.8614 18.0147 17.5782 18.1662 17.3113 18.3437L16.7606 18.7764V27.254C16.7803 27.5687 16.7999 27.8441 16.8196 28.0408C16.8333 28.2194 16.8596 28.3969 16.8983 28.5718C16.9115 28.7283 16.9515 28.8813 17.0163 29.0242L17.331 29.988H13.1021L13.3971 29.0439C13.4436 28.9098 13.4766 28.7715 13.4955 28.6308L13.5545 28.1391C13.5741 27.9227 13.5938 27.6474 13.5938 27.3523C13.5938 27.0573 13.6135 26.6639 13.6135 26.1328V11.302C13.6187 11.0789 13.6121 10.8556 13.5938 10.6332C13.5932 10.4816 13.58 10.3303 13.5545 10.1808L13.4955 9.86611C13.4748 9.77671 13.4417 9.69064 13.3971 9.61041L13.1414 8.98098L16.7606 7.17139V8.35156ZM93.9438 15.2752V26.1328C93.9438 26.6442 93.9438 27.1753 93.9832 27.667C94.0153 28.1407 94.1011 28.6092 94.2389 29.0636L94.5339 30.0077H90.246L90.541 29.0439C90.8164 28.2571 90.8164 27.2736 90.8164 26.3688V26.1328H90.7967V18.5994H90.8164C90.8164 17.911 90.8164 17.1438 90.5607 16.5734L90.2656 15.944L93.9438 14.1147V15.2752ZM85.8597 18.5797V26.1328C85.8597 26.6442 85.8597 27.1753 85.899 27.667C85.9344 28.1388 86.0135 28.6063 86.135 29.0636L86.4498 30.0077H82.1421L82.4568 29.0439C82.7322 28.2571 82.7125 27.2736 82.7125 26.3688V18.5994C82.7125 17.911 82.7125 17.1438 82.4765 16.5931L82.1815 15.9637L85.6433 14.1147L85.7023 15.2359L85.9777 15.0589C86.5678 14.7333 87.2313 14.5641 87.9053 14.5671C89.0855 14.5671 89.4592 15.1179 89.4592 15.885C89.4288 16.305 89.3291 16.7171 89.1641 17.1045L89.0461 17.4979L88.8494 18.1667L88.1807 17.9896C87.7088 17.8681 87.2131 17.8749 86.7448 18.0093C86.4093 18.1278 86.1062 18.3232 85.8597 18.5797ZM76.7133 20.8614V18.7961C76.7133 18.2847 76.5953 17.9503 76.3789 17.7733C76.1626 17.5962 75.7692 17.4979 75.2775 17.4979C74.7087 17.4848 74.1441 17.599 73.6252 17.8323C73.1287 18.0837 72.6977 18.4473 72.3664 18.8944L71.5009 19.9959L71.0092 18.4027C70.5568 16.8881 70.3404 16.18 72.327 15.2162C73.403 14.7153 74.5833 14.4792 75.7692 14.5278C76.851 14.5868 77.8935 14.9212 78.6409 15.6293C79.0418 16.0109 79.3453 16.483 79.5261 17.0062C79.7075 17.5648 79.7939 18.1499 79.7818 18.7371V26.4672C79.7729 26.8183 79.84 27.1672 79.9785 27.49C80.098 27.731 80.2733 27.9401 80.4899 28.0998L81.375 28.7095L80.4899 29.2996L80.1555 29.5356C79.7424 29.8504 79.29 30.1847 78.7393 30.3028H78.6016C78.0312 30.3028 77.6575 29.87 77.4018 29.398C76.6943 29.8895 75.8771 30.2002 75.0218 30.3028C73.8219 30.4601 72.5827 30.1651 71.6583 29.2406L71.5993 29.2013C71.4812 29.0832 71.3829 28.9456 71.2845 28.8275C70.6115 27.8889 70.3359 26.7227 70.5174 25.5821C70.6409 24.4704 71.1325 23.4319 71.914 22.6316L72.3074 22.2776C72.9663 21.8057 73.7063 21.459 74.4907 21.2548C75.2172 21.0527 75.9615 20.921 76.7133 20.8614ZM76.7133 23.7135C76.0433 23.7793 75.387 23.945 74.7661 24.2052C74.0383 24.5396 73.4875 25.0707 73.4875 25.9755C73.4712 26.3738 73.6125 26.7625 73.8809 27.0573C74.023 27.1782 74.1821 27.2776 74.353 27.3523C74.5479 27.4246 74.755 27.458 74.9627 27.4507C75.1961 27.4536 75.4276 27.4099 75.6438 27.3221C75.86 27.2343 76.0564 27.1041 76.2216 26.9393C76.3837 26.769 76.5107 26.5685 76.5953 26.3492C76.6772 26.0883 76.717 25.8161 76.7133 25.5427V23.7135ZM60.6433 8.35156V15.4326C61.7308 14.8643 62.9372 14.5611 64.1642 14.5475C64.7816 14.5396 65.3952 14.6463 65.9738 14.8622C66.5705 15.0636 67.1009 15.4241 67.508 15.9047C68.0784 16.5734 68.4128 17.4782 68.4128 18.6584V26.1328C68.4128 26.6442 68.4128 27.1753 68.4521 27.667C68.4778 28.14 68.557 28.6085 68.6882 29.0636L68.9832 30.0077H64.7936L65.069 29.0832C65.2853 28.3161 65.2657 27.3917 65.2657 26.5459V19.3665C65.2657 18.6977 65.1673 18.206 64.951 17.8913C64.7346 17.5766 64.4395 17.5176 63.9085 17.5176C63.2675 17.5221 62.6333 17.6489 62.0399 17.8913C61.5279 18.1057 61.0558 18.405 60.6433 18.7764V26.4082C60.6237 27.2933 60.6237 28.2768 60.899 29.0439L61.2137 30.0077H56.9848L57.2798 29.0636C57.5159 28.3358 57.4962 27.4113 57.4962 26.5655V11.302C57.5036 10.9868 57.4904 10.6714 57.4569 10.3579C57.4377 10.1009 57.3779 9.84864 57.2798 9.61041L57.0241 8.98098L60.6433 7.17139V8.35156ZM11.0368 17.3405L10.0336 19.7009L9.28618 18.6191C9.15671 18.4308 9.00479 18.2591 8.83378 18.1076C8.68725 17.9617 8.52187 17.836 8.34204 17.7339H8.32237C8.1513 17.6333 7.96544 17.5603 7.77163 17.5176C7.57338 17.4613 7.36789 17.4348 7.16187 17.4389C6.92885 17.4383 6.69698 17.4715 6.47344 17.5372C6.28901 17.5964 6.12073 17.6974 5.9817 17.8323C5.85033 17.935 5.74853 18.0708 5.68665 18.2257C5.61106 18.378 5.57713 18.5477 5.58831 18.7174C5.58405 18.8656 5.61085 19.013 5.66699 19.1501C5.7228 19.2997 5.80251 19.4392 5.90302 19.5632C6.06645 19.7412 6.24406 19.9057 6.4341 20.0549C6.71262 20.2537 7.00152 20.4376 7.29956 20.6057L7.75196 20.8614C8.99114 21.5498 9.93527 22.2776 10.5647 23.0447C11.2241 23.7732 11.5949 24.7175 11.6072 25.7001C11.6119 26.3382 11.4986 26.9718 11.2728 27.5687C11.0389 28.1423 10.6753 28.6539 10.2106 29.0636C9.74406 29.4966 9.18613 29.8193 8.57808 30.0077C7.92582 30.2281 7.24049 30.3346 6.55211 30.3224C6.04327 30.3207 5.53588 30.268 5.03756 30.1651C4.56033 30.0672 4.09761 29.9085 3.66069 29.693C3.2817 29.5235 2.9303 29.298 2.61821 29.0242C2.46266 28.8935 2.33663 28.7312 2.24847 28.5481C2.16031 28.365 2.11203 28.1652 2.1068 27.9621C2.11155 27.8693 2.12471 27.7771 2.14614 27.6867C2.16632 27.6061 2.19263 27.5272 2.22482 27.4507C2.67722 26.4082 3.09028 25.346 3.50334 24.3035L4.1721 25.9361C4.27241 26.1637 4.40489 26.3757 4.56549 26.5655C4.72528 26.7543 4.91065 26.9198 5.11624 27.0573C5.32839 27.1919 5.56084 27.2916 5.80467 27.3523C6.06615 27.4314 6.33794 27.4712 6.61112 27.4703C6.91039 27.4752 7.20872 27.4355 7.49625 27.3523C7.70992 27.2773 7.9046 27.1564 8.06667 26.9983C8.22296 26.8656 8.3445 26.6968 8.42072 26.5065C8.50468 26.2733 8.54469 26.0266 8.53874 25.7788C8.54115 25.6259 8.52127 25.4735 8.47973 25.3264C8.44618 25.1932 8.37837 25.0711 8.28303 24.9723C8.14558 24.8005 7.97917 24.6541 7.7913 24.5396C7.51592 24.3429 7.16187 24.1265 6.74881 23.8905C6.04195 23.5056 5.35885 23.0787 4.70318 22.612C4.22187 22.2906 3.791 21.8995 3.42466 21.4515C3.13342 21.0791 2.90731 20.6601 2.75589 20.2123C2.61092 19.7543 2.53793 19.2765 2.53953 18.7961C2.53848 18.2221 2.65217 17.6536 2.87391 17.1242C3.11351 16.6036 3.46235 16.1407 3.89673 15.767C4.33585 15.3716 4.85129 15.0704 5.41128 14.8818C5.99311 14.6805 6.60523 14.5807 7.22088 14.5868C7.66939 14.5853 8.11709 14.6248 8.55841 14.7048C8.98359 14.7941 9.39873 14.9259 9.79759 15.0982C10.1317 15.2342 10.4434 15.4198 10.7221 15.649C10.8746 15.765 10.9996 15.9133 11.088 16.0834C11.1764 16.2534 11.2261 16.4409 11.2335 16.6324C11.2311 16.7399 11.2112 16.8462 11.1745 16.9471C11.1548 17.0455 11.1154 17.1242 11.0958 17.2028L11.0368 17.3405Z" fill="#044F87"/>
<path fill-rule="evenodd" clip-rule="evenodd" d="M88.8697 0.680483C88.8697 0.680483 99.0586 4.49637 108.697 0.0117188C104.055 5.42084 91.7415 15.4523 82.6738 11.8331C86.8831 11.0267 89.9909 7.17143 88.8697 0.680483Z" fill="#C39B54"/>
<path fill-rule="evenodd" clip-rule="evenodd" d="M75.9863 5.69629C80.1956 7.58456 82.6543 7.91895 87.7684 7.09283C86.1751 9.59086 85.3687 10.5743 81.6315 11.3414C79.0548 10.0433 77.3042 8.35168 75.9863 5.69629Z" fill="#C39B54"/>
<path d="M3.05078 31.9355H93.7273V32.6358H3.05078V31.9355Z" fill="#C39B54"/>
<path fill-rule="evenodd" clip-rule="evenodd" d="M94.0221 31.2271H94.8876L95.3203 31.8958H93.7074L94.0221 31.2271ZM93.6878 31.9352H95.3597L95.7924 32.6433H93.373L93.6878 31.9352Z" fill="#C39B54"/>
<path d="M94.397 30.48L94.8691 31.1881H94.043L94.397 30.48Z" fill="#C39B54"/>
<path fill-rule="evenodd" clip-rule="evenodd" d="M1.73322 31.2271H2.59868L3.03141 31.8958H1.4185L1.73322 31.2271ZM1.39884 31.9352H3.07075L3.50347 32.6433H1.06445L1.39884 31.9352Z" fill="#C39B54"/>
<path d="M2.106 30.48L2.57807 31.1881H1.75195L2.106 30.48Z" fill="#C39B54"/>
</g>
<defs>
<clipPath id="clip0_137_1264">
<rect width="108.696" height="48" fill="white"/>
</clipPath>
</defs>
</svg>
