<svg width="109" height="48" viewBox="0 0 109 48" fill="none" xmlns="http://www.w3.org/2000/svg">
<g clip-path="url(#clip0_261_859)">
<path d="M19.2961 44.327L19.2174 44.3664V44.4057H19.2568L19.2961 44.3664V44.327ZM15.9326 44.3664H15.9129V44.4057L15.9326 44.3664ZM7.55338 42.9502L7.82875 42.6354L8.14347 42.2224C8.23984 42.1058 8.32543 41.9807 8.39917 41.8487L8.26148 41.9864L8.08446 42.183C8.03674 42.2585 7.98418 42.3308 7.9271 42.3994L7.76975 42.6354L7.61239 42.8518L7.55338 42.9502ZM8.30082 44.3467L8.34016 44.3074H8.30082V44.3467ZM3.56047 44.1107L3.75716 43.5206L3.9932 42.9305L4.4456 41.77L4.56361 41.5143L4.66196 41.2586L4.81932 40.8455H4.77998L4.60295 40.9242L4.42593 41.0225L4.2489 41.1406L3.95386 41.3963L3.67848 41.6716C3.44705 41.8864 3.23021 42.1164 3.02939 42.3601C2.81302 42.6158 2.61633 42.8715 2.41963 43.1469L2.02624 43.7369C1.91913 43.8886 1.82063 44.0463 1.7312 44.209L2.24261 44.1107L2.85236 44.0713H3.56047V44.1107ZM45.8106 44.3467H45.7909C45.7909 44.3664 45.7909 44.386 45.8106 44.386V44.3467ZM42.3291 42.0847L42.3881 41.9667L42.4668 41.8487L42.5651 41.77L42.6832 41.711L42.7815 41.652L42.9192 41.6126H43.1356C43.2329 41.593 43.3332 41.593 43.4306 41.6126H43.8437C43.8842 41.6274 43.9187 41.655 43.942 41.6913C43.9505 41.7237 43.9571 41.7565 43.9617 41.7897L43.9223 41.8487C43.9223 41.8683 43.9027 41.888 43.883 41.9077C43.8675 41.9284 43.8457 41.9435 43.8208 41.9506C43.7959 41.9577 43.7694 41.9565 43.7453 41.947L43.5289 41.9077H43.2929L43.0766 41.947C43.0045 41.9744 42.9379 42.0143 42.8799 42.065H42.8602L42.8208 42.1044L42.7815 42.1634C42.7815 42.2027 42.7618 42.2224 42.7422 42.2617L42.6635 42.3404L42.5455 42.3797C42.521 42.3845 42.4958 42.3835 42.4719 42.3766C42.448 42.3698 42.426 42.3574 42.4078 42.3404C42.3684 42.3011 42.3291 42.2617 42.3291 42.2224C42.3199 42.2006 42.3152 42.1772 42.3152 42.1535C42.3152 42.1299 42.3199 42.1065 42.3291 42.0847ZM43.1356 44.386V44.3467H43.1159L43.1356 44.386ZM35.9562 45.0155L35.8578 45.1335L35.7595 45.2712L35.6808 45.3892L35.7595 45.3105L35.8972 45.1925L36.0152 45.0351L36.1529 44.8974L36.2906 44.7007H36.2709L36.1135 44.8581C36.0577 44.9009 36.0109 44.9544 35.9758 45.0155H35.9562ZM40.9719 40.5701L40.7555 40.8062L40.5392 41.0816L40.3622 41.3569L39.9294 42.0257L39.6934 42.3994L39.4574 42.7928L39.3 43.0485H39.595L39.7131 43.0878L39.8114 43.1469C39.8364 43.1885 39.85 43.236 39.8507 43.2845L39.7721 43.4222C39.7468 43.4486 39.7162 43.4693 39.6823 43.4829C39.6483 43.4965 39.6119 43.5026 39.5754 43.5009H39.0246L38.8476 43.8156L38.6509 44.1893C38.5723 44.3037 38.5125 44.4298 38.4739 44.5631C38.4194 44.6843 38.3734 44.8092 38.3362 44.9368L38.2969 45.1138V45.1728C38.2969 45.1925 38.2969 45.2122 38.3165 45.2122H38.5722L38.7886 45.1531L38.9656 45.0548L39.3787 44.8581L40.1851 44.445C40.6375 44.1893 41.1096 43.914 41.5817 43.6976L41.6997 43.6583L41.8177 43.6189H42.0537C42.0766 43.6267 42.0973 43.6396 42.1144 43.6566C42.1314 43.6737 42.1443 43.6944 42.1521 43.7173C42.1718 43.7679 42.1718 43.824 42.1521 43.8746V43.9533L42.0931 44.0517C42.0652 44.0936 42.0452 44.1402 42.0341 44.1893L41.9751 44.3074L41.9357 44.4647C41.9357 44.5041 41.916 44.5434 41.916 44.5827C41.9232 44.5907 41.9286 44.6001 41.932 44.6102C41.9353 44.6204 41.9366 44.6311 41.9357 44.6417H42.0341L42.1718 44.6024L42.4668 44.5041C42.5587 44.4633 42.6447 44.4104 42.7225 44.3467L42.8405 44.2877L42.9782 44.2287L43.0962 44.1893H43.1356L43.4896 44.0123L43.6863 43.914L43.9027 43.8156L44.1387 43.7369L44.3551 43.6779L44.5911 43.6386H44.9452L45.0238 43.6779C45.0632 43.7173 45.0632 43.7566 45.0828 43.796C45.0789 43.8378 45.0654 43.8781 45.0435 43.914C45.0288 43.9545 45.0011 43.989 44.9648 44.0123H44.4141L44.2174 44.0517L44.0404 44.1107L43.9813 44.15L43.9223 44.1893L43.8633 44.2484L43.8043 44.2877L43.765 44.3467L43.7256 44.4057V44.4647C43.7247 44.4754 43.726 44.4861 43.7294 44.4962C43.7328 44.5064 43.7382 44.5157 43.7453 44.5237L43.8043 44.6024L43.9223 44.6614H44.2961L44.3747 44.6221L44.5124 44.5434L44.5911 44.5041H44.7485L44.8271 44.5434H44.8468C44.8718 44.585 44.8854 44.6325 44.8862 44.6811C44.8798 44.7287 44.8666 44.775 44.8468 44.8188L44.8075 44.9368L45.0042 44.7401L45.2402 44.5237L45.5156 44.3467L45.6139 44.2484H45.6729L45.7516 44.1893L46.2433 43.9336L46.7154 43.6386L47.1481 43.3239L47.5219 42.9895L47.7972 42.4191L47.9546 42.1634L48.0923 41.9077C48.1466 41.8144 48.2127 41.7284 48.289 41.652C48.3513 41.5764 48.4242 41.5101 48.5053 41.4553L48.584 41.3963L48.6824 41.3569H49.0168L49.0954 41.4159C49.1147 41.4332 49.13 41.4544 49.1402 41.4782C49.1504 41.502 49.1553 41.5278 49.1544 41.5536C49.1484 41.6076 49.1352 41.6605 49.1151 41.711C49.1112 41.7528 49.0977 41.7932 49.0758 41.829C49.0539 41.8773 49.0276 41.9234 48.9971 41.9667L48.9184 42.065L48.8201 42.183L48.7217 42.2814L48.5447 42.4584L48.1119 42.9108L47.9349 43.0682L47.7579 43.2255C47.6595 43.4616 47.5415 43.6976 47.4235 43.9533H47.4432L47.6989 43.8156L47.9546 43.6779L48.2103 43.5599L48.3086 43.5009L48.4267 43.4616C48.5174 43.4419 48.6113 43.4419 48.702 43.4616L48.8397 43.5402C48.8732 43.5816 48.8998 43.6281 48.9184 43.6779V43.8353C48.9143 43.8833 48.9009 43.93 48.8791 43.973L48.8201 44.091L48.7414 44.1893L48.584 44.4057C48.5648 44.4493 48.5382 44.4892 48.5053 44.5237L48.4463 44.6221C48.4417 44.6552 48.4352 44.6881 48.4267 44.7204L48.525 44.6811L48.7414 44.6024L48.9577 44.5041L49.2134 44.3467L49.3708 44.2484L49.4495 44.209H49.6265L49.6658 44.268C49.6855 44.268 49.6855 44.3074 49.7052 44.327V44.386C49.6998 44.4155 49.6862 44.4428 49.6658 44.4647C49.6658 44.4844 49.6462 44.5041 49.6068 44.5041L49.4298 44.6221L49.2528 44.7204L49.0758 44.8188L48.7217 45.0155L48.6234 45.0745L48.5053 45.1335H48.289L48.1513 45.0941C48.1119 45.0745 48.0923 45.0351 48.0529 44.9958L47.9939 44.8974V44.6811C48.0136 44.6614 48.0136 44.6221 48.0333 44.5827L48.0726 44.5041L48.1316 44.4254L48.3086 44.15L48.3873 44.0123C48.4215 43.9821 48.4426 43.9398 48.4463 43.8943V43.855H48.348L48.0333 43.973H47.9743L47.8169 44.0713L47.6595 44.15L47.4825 44.268L47.3252 44.3664L47.1088 44.5434L46.9711 44.6614L46.8334 44.7991L46.7744 44.8581H46.5974L46.5187 44.8188L46.4597 44.7401C46.4478 44.7232 46.4398 44.7038 46.4364 44.6833C46.433 44.6629 46.4342 44.642 46.44 44.6221C46.4391 44.6114 46.4404 44.6007 46.4438 44.5905C46.4472 44.5804 46.4526 44.571 46.4597 44.5631C46.4597 44.5478 46.4633 44.5327 46.4701 44.5191C46.4769 44.5054 46.4868 44.4935 46.4991 44.4844C46.5817 44.4014 46.6543 44.309 46.7154 44.209C46.7923 44.121 46.8645 44.0291 46.9318 43.9336C46.9916 43.8462 47.0442 43.7541 47.0891 43.6583L46.9515 43.7566L46.7351 43.914L46.3614 44.1697L46.2237 44.2484C46.1061 44.3319 45.981 44.4044 45.85 44.4647L45.6926 44.5631L45.4959 44.6811L45.2992 44.8384L45.1222 44.9958L44.9255 45.1925L44.7288 45.4089L44.5518 45.6252C44.4947 45.6939 44.4421 45.7661 44.3944 45.8416L44.1977 46.353L43.9027 47.1594L43.7256 47.5528L43.6863 47.6315L43.647 47.6905L43.588 47.7692L43.5093 47.8282L43.4306 47.8675H43.3323L43.2142 47.8282C43.1946 47.7889 43.1552 47.7692 43.1552 47.7299C43.1552 47.6905 43.1356 47.6512 43.1159 47.6118C43.1147 47.578 43.1214 47.5443 43.1356 47.5135V47.4151L43.1749 47.3168L43.2339 47.1398C43.2732 47.0218 43.3323 46.8841 43.3913 46.7464L43.6076 46.3727L43.8437 46.0186L44.0994 45.6646L44.3157 44.9761H43.8043L43.647 44.9368L43.5093 44.8778L43.3913 44.7598C43.3535 44.7139 43.3266 44.6601 43.3126 44.6024C43.2901 44.5323 43.2769 44.4596 43.2732 44.386C43.2563 44.398 43.2369 44.406 43.2165 44.4094C43.1961 44.4128 43.1751 44.4115 43.1552 44.4057H43.1356L43.0372 44.4647L42.9192 44.5237L42.3094 44.8188L42.1127 44.8974L41.916 44.9565H41.739C41.649 44.8975 41.5854 44.8058 41.562 44.7007C41.5443 44.6503 41.5376 44.5966 41.5423 44.5434C41.537 44.4176 41.5502 44.2916 41.5817 44.1697L41.6407 43.973L41.4046 44.0517L41.2473 44.1303L41.0703 44.209L40.9326 44.2877L40.8342 44.3467H40.7949L40.4408 44.5434L40.0868 44.7204L39.7327 44.8974L39.3787 45.0941L38.9459 45.3498C38.869 45.405 38.7822 45.4451 38.6902 45.4679C38.608 45.4989 38.522 45.5187 38.4345 45.5269H38.2969L38.1395 45.4679C38.0366 45.4178 37.9535 45.3347 37.9035 45.2318C37.8826 45.1613 37.8694 45.0888 37.8641 45.0155C37.8676 44.9355 37.8808 44.8562 37.9035 44.7794C37.921 44.7044 37.9474 44.6318 37.9821 44.5631C38.0001 44.5007 38.0266 44.4412 38.0608 44.386C38.0947 44.2887 38.141 44.1962 38.1985 44.1107C38.2363 44.0087 38.2823 43.91 38.3362 43.8156L38.5526 43.4419L38.1395 43.5599L37.8445 43.6583L37.5494 43.7763L37.2544 43.9336L36.979 44.0713C36.861 44.268 36.743 44.4647 36.6053 44.6614L36.4086 44.9565L36.1922 45.2515L36.0742 45.3892L35.9365 45.5269C35.8937 45.5827 35.8402 45.6295 35.7792 45.6646L35.6021 45.7432H35.4644L35.3464 45.7039L35.2677 45.6449C35.2481 45.6055 35.2284 45.5859 35.2284 45.5465C35.2125 45.5163 35.2057 45.4822 35.2087 45.4482V45.3302C35.2075 45.2963 35.2142 45.2626 35.2284 45.2318C35.2284 45.1925 35.2481 45.1532 35.2481 45.1138L35.3661 44.9171C35.4053 44.8471 35.4514 44.7812 35.5038 44.7204L35.6611 44.5434L35.8382 44.386L36.0152 44.2484L36.2119 44.1107L36.3889 43.973L36.7626 43.7369L36.9003 43.5402L37.2544 42.8518L37.4511 42.4781L37.6478 42.0847C37.7685 41.8403 37.8608 41.5829 37.9231 41.3176L37.9625 41.1209V40.9635C37.9654 40.9358 37.9585 40.9079 37.9428 40.8849L37.8248 40.7865L37.7658 40.7275C37.7525 40.7034 37.7457 40.6763 37.7461 40.6488V40.7275C37.7461 40.6882 37.7658 40.6685 37.7658 40.6488L37.8248 40.5898L37.8838 40.5505H38.0412C38.1165 40.5705 38.1847 40.6114 38.2378 40.6685C38.2779 40.7231 38.311 40.7826 38.3362 40.8455C38.3587 40.9156 38.3719 40.9884 38.3755 41.0619C38.3958 41.1326 38.3958 41.2075 38.3755 41.2783C38.3595 41.4258 38.3265 41.571 38.2772 41.711L38.2182 41.9077L38.1395 42.065C38.0859 42.2207 38.0201 42.372 37.9428 42.5174L37.7068 42.9502L37.3134 43.6386L37.4117 43.5993L37.7068 43.4616L38.3165 43.2452L38.5919 43.1665L38.8476 43.0878L39.359 42.3011L39.5164 42.0257L39.9098 41.3963L40.1065 41.0816L40.3031 40.7668L40.4802 40.4718C40.5085 40.4167 40.5414 40.364 40.5785 40.3144L40.7162 40.1768H40.8932L40.9522 40.2161L41.0113 40.2751C41.0363 40.3167 41.0498 40.3642 41.0506 40.4128C41.0456 40.4734 41.0174 40.5298 40.9719 40.5701ZM28.8751 42.9502C28.9772 42.8547 29.0694 42.7492 29.1505 42.6354L29.4849 42.2224L29.7209 41.8487L29.6029 41.9864L29.4259 42.183L29.2685 42.3994L28.9342 42.8518L28.8751 42.9502ZM29.6226 44.3467H29.5833C29.5833 44.3664 29.5833 44.386 29.6029 44.386L29.6619 44.3467H29.6226ZM27.2032 44.209L27.4393 44.091L27.6753 43.9533L27.8917 43.796L28.108 43.6386L28.2261 43.4222C28.2646 43.3395 28.3106 43.2604 28.3637 43.1862C28.5801 42.8125 28.7965 42.4781 29.0325 42.124L29.3079 41.7503L29.4456 41.5733C29.522 41.4673 29.615 41.3744 29.7209 41.2979H29.6816L29.5242 41.2586L29.3669 41.2192H28.4818L28.108 41.2586L27.7343 41.3373L27.3803 41.4159L27.0065 41.5143L26.6918 41.6323L26.5345 41.6913L26.3968 41.7503L26.1804 42.0257L25.9444 42.3404L25.728 42.6551C25.6629 42.771 25.5906 42.8826 25.5117 42.9895L25.3936 43.2059L25.2756 43.4222L25.1183 43.6976L25.3936 43.6386L26.0624 43.5402H27.0065C27.0471 43.555 27.0816 43.5826 27.1049 43.6189C27.1318 43.6468 27.1519 43.6804 27.1639 43.7173C27.1668 43.7576 27.16 43.7981 27.1442 43.8353L27.1049 43.914L27.0065 43.973H25.5903L25.3543 44.0123L24.9019 44.1107L24.8429 44.2484L24.7839 44.4057L24.6462 44.7204L24.5872 44.9368L24.5282 45.1335C24.5058 45.1968 24.4926 45.2631 24.4888 45.3302C24.4726 45.4011 24.4659 45.4739 24.4692 45.5465V45.7826L24.5085 45.8416L24.5479 45.9399L24.5872 46.0186C24.6006 46.0604 24.5979 46.1058 24.5797 46.1458C24.5616 46.1857 24.5292 46.2175 24.4888 46.235H24.3905C24.3744 46.2436 24.3557 46.2464 24.3378 46.2428C24.3198 46.2393 24.3037 46.2295 24.2922 46.2153L24.2135 46.1563L24.1545 46.0776L24.1151 45.9989V45.7629C24.0981 45.6788 24.0915 45.5929 24.0955 45.5072C24.1151 45.4285 24.1151 45.3498 24.1348 45.2515L24.1938 45.0155C24.2262 44.9323 24.2525 44.8468 24.2725 44.7598L24.4102 44.4254L24.4692 44.2877L24.4102 44.327H24.2528L24.1741 44.2877L24.1151 44.209C24.1151 44.1893 24.0955 44.15 24.1151 44.1107C24.1147 44.0832 24.1215 44.056 24.1348 44.032L24.1938 43.973H24.2135L24.4692 43.8746L24.7052 43.7763C24.8429 43.5206 24.9806 43.2649 25.1379 43.0092L25.3346 42.6748L25.551 42.3601C25.6115 42.2415 25.684 42.1295 25.7674 42.0257L25.8264 41.9273L25.433 42.1044L24.9216 42.3404H24.7445L24.6855 42.2814L24.6265 42.2224V42.1044C24.6385 42.0675 24.6587 42.0339 24.6855 42.006L24.7642 41.9667L25.5117 41.6716L25.9051 41.5143L26.2591 41.3963L26.5345 41.0816C26.6215 40.9606 26.7203 40.8486 26.8295 40.7472C26.9264 40.6335 27.039 40.5341 27.1639 40.4521C27.2724 40.3601 27.3912 40.2809 27.518 40.2161L27.6556 40.1768H27.9113L27.99 40.2161L28.049 40.2751C28.0774 40.3152 28.0913 40.3638 28.0884 40.4128C28.0876 40.4614 28.0741 40.5089 28.049 40.5505C28.0207 40.5946 27.9795 40.6289 27.931 40.6488H27.577L27.4983 40.6882L27.3409 40.7865L27.1639 40.9242L27.0065 41.0619L26.8885 41.1799L27.1246 41.1012L27.3803 41.0225L27.636 40.9635L28.0097 40.8849L28.3834 40.8259L28.7571 40.7865H29.7013L29.898 40.8455L29.957 40.8849L30.016 40.9242C30.0357 40.9439 30.0357 40.9832 30.0553 41.0029V41.0619C30.075 41.1012 30.0553 41.1209 30.0553 41.1406L30.193 41.1799C30.2409 41.2213 30.2751 41.2761 30.2914 41.3373C30.31 41.3664 30.3171 41.4015 30.311 41.4356C30.3139 41.476 30.3072 41.5164 30.2914 41.5536C30.29 41.59 30.2761 41.6247 30.252 41.652L30.193 41.77L30.134 41.8487L29.9766 42.0847C29.8586 42.2421 29.7603 42.4191 29.6423 42.5568C29.5242 42.6945 29.3866 42.8715 29.2489 43.0092L28.8358 43.4419L28.4031 43.8156L28.3244 44.0123C28.2799 44.0925 28.2467 44.1786 28.2261 44.268V44.386L28.1867 44.5041V44.6221L28.4621 44.5827L28.6981 44.5237L28.9342 44.445L29.1505 44.3664L29.4456 44.2287L29.5242 44.1893H29.5833L30.016 43.9533L30.4684 43.6976L30.6061 43.6189L30.7634 43.5009L30.9208 43.4026L31.0781 43.3436H31.2158C31.2552 43.3632 31.2748 43.4026 31.3142 43.4419C31.3361 43.4777 31.3496 43.5181 31.3535 43.5599C31.3543 43.5858 31.3495 43.6115 31.3393 43.6353C31.3291 43.6591 31.3138 43.6804 31.2945 43.6976C31.2891 43.727 31.2755 43.7543 31.2552 43.7763L31.1765 43.855C31.1278 43.8837 31.0872 43.9243 31.0585 43.973L30.9011 44.1893C30.8567 44.2556 30.8235 44.3287 30.8028 44.4057H30.7831C30.7831 44.445 30.7634 44.4647 30.7438 44.5041L30.7044 44.6221V44.7401L30.8028 44.6811L30.9798 44.5827L31.3338 44.327L31.4715 44.1893L31.6092 44.0713L31.7469 43.9336L31.8649 43.855L31.9436 43.8156H32.0223L32.0813 43.855L32.1403 43.8943C32.16 43.914 32.16 43.9533 32.1796 43.973V44.0713C32.1577 44.1071 32.1442 44.1475 32.1403 44.1893L32.0813 44.3074L32.0223 44.386L31.9043 44.5631C31.8596 44.6654 31.807 44.764 31.7469 44.8581L31.4519 45.4285L32.16 44.7204L32.3173 44.5827L32.4943 44.445L32.6517 44.327L32.7894 44.2484L32.9074 44.1697H33.0254C33.0495 44.1739 33.0723 44.1831 33.0927 44.1967C33.113 44.2102 33.1303 44.2278 33.1434 44.2484C33.1538 44.2663 33.1593 44.2866 33.1593 44.3074C33.1593 44.3281 33.1538 44.3484 33.1434 44.3664C33.1352 44.4048 33.1145 44.4394 33.0844 44.4647L32.9074 44.6221L32.691 44.7598L32.6124 44.7991L32.573 44.8384L32.396 44.9958L32.219 45.1335L32.0419 45.3105L31.8846 45.4875L31.5895 45.8416C31.4869 45.9578 31.3947 46.0828 31.3142 46.2153C31.2158 46.3417 31.1239 46.473 31.0388 46.6087C30.9528 46.742 30.874 46.8799 30.8028 47.0218C30.6651 47.2578 30.5471 47.5332 30.4094 47.7692V47.8282C30.3901 47.8718 30.3635 47.9117 30.3307 47.9462L30.2323 47.9856H30.075L29.9963 47.9266L29.9373 47.8282V47.7299L29.9766 47.6512L30.0357 47.5332C30.3307 46.9627 30.6257 46.3923 30.9011 45.8022L31.1175 45.3695L31.3338 44.8974L31.4125 44.7204L31.3142 44.7991L31.1568 44.9368C31.1004 44.9997 31.0339 45.0529 30.9601 45.0941L30.8618 45.1531L30.7438 45.1925H30.6257L30.5077 45.1531C30.4546 45.132 30.4073 45.0982 30.37 45.0548C30.3325 45.0164 30.3054 44.969 30.2914 44.9171V44.7598C30.2949 44.699 30.3082 44.6393 30.3307 44.5827L30.3897 44.4057C30.4074 44.337 30.4338 44.2709 30.4684 44.209L30.5471 44.0517L30.3504 44.15L30.0947 44.2877L29.8193 44.445L29.7209 44.5041H29.6619C29.3079 44.7007 28.8358 44.8384 28.4424 45.0155L28.2851 45.0548H28.0097L27.9113 45.0155L27.8327 44.9368L27.7737 44.8188C27.7652 44.7864 27.7586 44.7536 27.754 44.7204V44.4844C27.7479 44.4503 27.755 44.4152 27.7737 44.386L27.8327 44.1697L27.695 44.268L27.3409 44.4647H27.2032C27.1627 44.45 27.1282 44.4223 27.1049 44.386H27.0852C27.0766 44.3711 27.072 44.3541 27.072 44.3369C27.072 44.3196 27.0766 44.3026 27.0852 44.2877C27.0852 44.2484 27.1049 44.2287 27.1442 44.1893L27.2032 44.209ZM0.0789597 44.7401L0.374003 44.6024L0.669046 44.5041L1.25913 44.327C1.39562 44.0758 1.54668 43.8328 1.71153 43.5993L1.9869 43.2059L2.26228 42.8321L2.55732 42.4388L2.85236 42.0847L3.14741 41.711L3.46212 41.3766L3.81617 41.0619L3.97353 40.9045L4.15055 40.7668L4.34725 40.6488L4.52427 40.5308L4.68163 40.4521L4.79965 40.3931L4.91766 40.3538H5.1537C5.17674 40.353 5.19962 40.3579 5.22024 40.3682C5.24086 40.3785 5.25856 40.3939 5.27172 40.4128C5.30801 40.4361 5.33566 40.4706 5.35039 40.5111V40.6095C5.35334 40.6372 5.34637 40.6651 5.33072 40.6882C5.21271 40.9832 5.07502 41.2783 4.957 41.5536C4.83899 41.829 4.74064 42.0257 4.64229 42.2421L4.5046 42.5764C4.36692 42.9108 4.22923 43.2255 4.11121 43.5599L3.9932 43.8746L3.91452 44.1107H4.07187C4.11239 44.1254 4.14695 44.153 4.17022 44.1893C4.20017 44.2287 4.21421 44.2778 4.20956 44.327C4.20882 44.3756 4.19525 44.4231 4.17022 44.4647C4.15704 44.4853 4.13975 44.5029 4.11944 44.5164C4.09913 44.5299 4.07624 44.5391 4.05221 44.5434H3.77683C3.75988 44.644 3.73354 44.7428 3.69815 44.8384L3.65881 45.0351L3.61948 45.2515V45.4482L3.58014 45.6449V46.0383L3.89485 45.6842C3.95674 45.6026 4.02954 45.5298 4.11121 45.4679L4.34725 45.2515L4.72097 44.9565C4.83714 44.8538 4.9622 44.7616 5.09469 44.6811C5.21814 44.5846 5.34977 44.499 5.48808 44.4254L5.88147 44.1893L6.11751 44.0517L6.35354 43.914L6.58957 43.7566L6.80594 43.5993C6.83497 43.5255 6.8678 43.4533 6.90429 43.3829C6.95739 43.3086 7.00348 43.2296 7.04197 43.1469C7.27801 42.7731 7.4747 42.4388 7.73041 42.0847L7.98611 41.711L8.1238 41.534C8.21712 41.4042 8.33803 41.2967 8.47785 41.2192L8.59587 41.1602H8.71388C8.76693 41.1466 8.82317 41.1537 8.87124 41.1799C8.89828 41.1972 8.92113 41.2203 8.93814 41.2475C8.95515 41.2747 8.96589 41.3054 8.96959 41.3373C8.98376 41.3681 8.99049 41.4017 8.98926 41.4356V41.5536C8.96731 41.5894 8.95386 41.6298 8.94992 41.6716L8.89091 41.77L8.8319 41.8487L8.63521 42.1044C8.53508 42.2695 8.42334 42.4272 8.30082 42.5764L7.9271 43.0288C7.79288 43.1828 7.6483 43.3273 7.49437 43.4616L7.06164 43.8353L6.94363 44.15L6.90429 44.268L6.86495 44.4057C6.84915 44.4429 6.84241 44.4834 6.84528 44.5237V44.6417L7.12065 44.6024L7.33702 44.5434L7.57305 44.4647L7.80908 44.386L8.04512 44.2877L8.18281 44.209H8.24181L8.67454 43.9926L8.98926 43.855L9.14661 43.796C9.20433 43.7819 9.25813 43.755 9.30397 43.7173L9.44166 43.6386L9.54 43.5796H9.65802C9.70723 43.5749 9.75638 43.589 9.79571 43.6189C9.82985 43.6492 9.85099 43.6915 9.85472 43.7369H9.87439C9.87755 43.7837 9.87085 43.8306 9.85472 43.8746L9.75637 43.9926L9.59901 44.1303L9.50066 44.2287L9.40232 44.327L9.32364 44.445L9.24496 44.5631L9.12694 44.7204C9.12694 44.7357 9.12339 44.7507 9.11656 44.7644C9.10973 44.7781 9.09982 44.7899 9.0876 44.7991L9.26463 44.7598L9.55967 44.6221L9.81538 44.4254L10.0317 44.209L10.0908 44.0713L10.1301 43.9926L10.1891 43.9336L10.2284 43.855L10.3071 43.796L10.3858 43.7566H10.4645L10.5825 43.796C10.6145 43.8262 10.6398 43.8629 10.6567 43.9035C10.6737 43.9442 10.6819 43.988 10.6808 44.032C10.6771 44.0775 10.656 44.1197 10.6218 44.15L10.5628 44.2484L10.4841 44.327L10.3268 44.4647V44.6614H10.4841L10.6022 44.6221L10.8775 44.445C10.8613 44.3943 10.8547 44.3409 10.8579 44.2877L10.9169 44.091L11.0152 43.9533C11.0349 43.8943 11.0939 43.855 11.1332 43.796L11.3103 43.6779H11.4873C11.5161 43.6768 11.5449 43.6814 11.5719 43.6915C11.599 43.7017 11.6237 43.7171 11.6446 43.7369L11.7037 43.796V43.855C11.7233 43.8746 11.7037 43.914 11.7037 43.9533L11.6446 44.0517L11.5856 44.1303C11.4873 44.2484 11.4086 44.3664 11.2906 44.4844H11.7823L11.979 44.4254L12.1757 44.3664L12.3527 44.268H12.4118L12.7461 44.091L13.5919 43.7173L13.7099 43.6583L13.8673 43.6189L14.0247 43.5599L14.182 43.5206H14.4771L14.5951 43.5599C14.6344 43.6189 14.6737 43.6583 14.6737 43.6976C14.6832 43.7217 14.6845 43.7482 14.6774 43.7731C14.6702 43.798 14.6552 43.8198 14.6344 43.8353L14.5557 43.914C14.5164 43.9533 14.4771 43.9533 14.4377 43.973L14.0837 44.0123L14.005 44.0517L13.9263 44.091L13.7493 44.1893L13.6313 44.327L13.5329 44.445L13.4346 44.5631C13.4017 44.5976 13.3751 44.6375 13.3559 44.6811L13.2969 44.7991C13.2898 44.8071 13.2844 44.8164 13.281 44.8266C13.2776 44.8367 13.2763 44.8475 13.2772 44.8581H13.3559L13.4542 44.8188L13.5723 44.7794L13.6706 44.7204L13.769 44.6811L13.887 44.6024L14.1033 44.445L14.2607 44.2877C14.3394 44.1893 14.418 44.1697 14.5164 44.2484C14.5369 44.2615 14.5545 44.2788 14.5681 44.2991C14.5816 44.3194 14.5908 44.3423 14.5951 44.3664C14.6055 44.3878 14.6109 44.4114 14.6109 44.4352C14.6109 44.4591 14.6055 44.4826 14.5951 44.5041L14.5557 44.5827C14.5557 44.6024 14.5361 44.6221 14.5164 44.6417L14.4377 44.7204V44.7598L14.3984 44.8384H14.6541L14.8114 44.7991L14.9885 44.7401L15.1655 44.6811L15.3425 44.6024L15.4999 44.5237L15.6769 44.445L15.7949 44.3664L16.3653 44.0713L16.8177 43.8156L16.9357 43.7369L17.0931 43.6189L17.2505 43.5206L17.4275 43.4616H17.5455C17.5874 43.4837 17.6217 43.518 17.6439 43.5599C17.6592 43.5751 17.6708 43.5937 17.6776 43.6142C17.6844 43.6347 17.6864 43.6566 17.6832 43.6779C17.6824 43.7265 17.6689 43.774 17.6439 43.8156L17.5848 43.8943L17.5062 43.973L17.4472 44.032L17.3881 44.091L17.2505 44.3074L17.1324 44.5237L17.0734 44.6811V44.8581L17.3685 44.7007L17.7029 44.445L17.8602 44.3074L17.9979 44.1893L18.1356 44.0517C18.1488 44.0311 18.1661 44.0135 18.1864 44C18.2067 43.9864 18.2296 43.9772 18.2536 43.973L18.3126 43.9336H18.3913L18.47 43.973L18.5093 44.0123L18.5486 44.091V44.1893C18.5447 44.2312 18.5313 44.2715 18.5093 44.3074L18.4503 44.4254L18.3913 44.5041L18.2929 44.6811L18.1356 44.9761L17.7815 45.4482L18.4896 44.7401L18.647 44.6024L18.8043 44.4647L18.9617 44.3467L19.0994 44.268L19.5125 44.0123L19.6895 43.914L19.8862 43.8156L20.0632 43.7369L20.2402 43.6583H20.5353L20.5943 43.6976L20.6533 43.7369C20.6715 43.7674 20.6848 43.8006 20.6926 43.8353C20.6887 43.8771 20.6752 43.9175 20.6533 43.9533L20.5943 44.0123L20.5353 44.0517L20.4566 44.091L20.3189 44.1303L20.3779 44.1697H20.4369L20.6139 44.2287L20.7516 44.268L20.8893 44.386C20.9269 44.4245 20.954 44.4719 20.968 44.5237C20.9836 44.5468 20.9906 44.5747 20.9877 44.6024L21.6761 44.209L21.7745 44.1697L21.8531 44.209L21.9121 44.268C21.928 44.2982 21.9349 44.3324 21.9318 44.3664C21.9311 44.4017 21.9218 44.4362 21.9046 44.4671C21.8875 44.498 21.863 44.5241 21.8335 44.5434L21.6958 44.5827L21.5187 44.6811L20.6926 45.1335L20.4763 45.2318L20.2402 45.3105H19.8272L19.6698 45.1925C19.626 45.1478 19.5925 45.0941 19.5715 45.0351C19.5447 44.98 19.5313 44.9194 19.5321 44.8581V44.7794L19.5715 44.6811L19.7092 44.6024H19.8075L19.8862 44.6417C19.8984 44.6509 19.9083 44.6628 19.9151 44.6764C19.922 44.6901 19.9255 44.7052 19.9255 44.7204C19.9452 44.7401 19.9452 44.7794 19.9649 44.7991C19.9602 44.8395 19.967 44.8804 19.9845 44.9171H20.2992L20.3976 44.8778L20.4763 44.8188L20.5549 44.7598L20.5943 44.7007L20.6533 44.6221L20.5943 44.5827L20.5156 44.5237H20.3976L20.2796 44.4844L20.1615 44.445L20.0829 44.386C20.0435 44.3664 20.0239 44.327 20.0042 44.3074C19.9845 44.2877 19.9649 44.2484 19.9649 44.209V44.1697L19.6305 44.327L19.5518 44.386L19.4731 44.445L19.3551 44.5237H19.3354L19.2174 44.6221L19.0207 44.7598L18.9224 44.7991L18.883 44.8384L18.706 44.9958L18.529 45.1335L18.3716 45.3105L18.2143 45.4875C18.0992 45.5961 17.9939 45.7146 17.8996 45.8416L17.6242 46.2153L17.3488 46.6087L17.1128 47.0218C16.9948 47.2578 16.8767 47.5332 16.739 47.7692V47.8282L16.6604 47.9462H16.6407C16.6113 47.9635 16.5785 47.9742 16.5445 47.9776C16.5106 47.981 16.4763 47.977 16.444 47.9659L16.3457 47.9069C16.3216 47.8796 16.3077 47.8449 16.3063 47.8085C16.2876 47.7794 16.2806 47.7443 16.2867 47.7102L16.326 47.6315L16.385 47.5332L17.2701 45.7826L17.4865 45.3498L17.6832 44.8778L17.7619 44.7007L17.6832 44.7794L17.5258 44.9171L17.3291 45.0745L17.2111 45.1335L17.1128 45.1728H16.9751L16.8571 45.1335C16.8039 45.1123 16.7567 45.0786 16.7194 45.0351C16.6882 44.9951 16.6679 44.9477 16.6604 44.8974C16.6604 44.8384 16.6407 44.7794 16.6604 44.7401C16.6573 44.6804 16.6639 44.6206 16.68 44.5631C16.7194 44.445 16.7587 44.327 16.8177 44.1893L16.9161 44.032L16.7194 44.1303L16.444 44.268L16.1686 44.4254L16.0703 44.4844L16.0113 44.5237L15.1261 44.9565L14.9098 45.0745L14.7918 45.1138L14.6541 45.1531H14.2607L14.123 45.0548C14.0855 45.0164 14.0584 44.969 14.0443 44.9171V44.8581L13.6706 45.0941L13.5132 45.1728L13.3362 45.2122H13.1592L13.0215 45.1335L12.9035 45.0155C12.881 44.9589 12.8677 44.8992 12.8642 44.8384C12.8642 44.7991 12.8838 44.7598 12.8838 44.7204L12.9428 44.5827L13.0215 44.4254L13.1199 44.2877L13.1985 44.1697L12.5691 44.5041H12.5494L12.4314 44.5631L12.3134 44.6024L12.1167 44.6811L11.7037 44.7794H11.2316L11.1136 44.7401H11.0742L10.9562 44.8581L10.7595 44.9958L10.5628 45.0941H10.3465C10.3145 45.0969 10.2823 45.093 10.2519 45.0829C10.2214 45.0727 10.1934 45.0565 10.1694 45.0351C10.1146 45.0052 10.0726 44.9562 10.0514 44.8974C10.0289 44.8409 10.0157 44.7811 10.0121 44.7204V44.6811L9.59901 45.0155L9.40232 45.1335L9.16628 45.2318H9.00893L8.8319 45.1925L8.75322 45.1335L8.69421 45.0548C8.67013 45.0276 8.65623 44.9928 8.65487 44.9565C8.65201 44.9161 8.65875 44.8757 8.67454 44.8384L8.73355 44.7007C8.7476 44.6489 8.77468 44.6015 8.81223 44.5631C8.91058 44.4254 9.0286 44.2877 9.12694 44.1303L9.06793 44.1697L8.59587 44.4057C8.5321 44.4544 8.45813 44.488 8.3795 44.5041C8.02545 44.7204 7.51404 44.8581 7.12065 45.0351L6.98296 45.0745H6.68792L6.5699 45.0351L6.49123 44.9565C6.46928 44.9206 6.45583 44.8803 6.45189 44.8384C6.42759 44.7688 6.41431 44.6958 6.41255 44.6221V44.4057L6.47156 44.1893L6.33387 44.2877L5.97982 44.4844H5.96015L5.66511 44.6614L5.29139 44.9761L5.09469 45.1138L4.89799 45.2712L4.32758 45.7826C4.1348 45.9715 3.95722 46.1754 3.7965 46.3923L3.75716 46.471L3.71782 46.53L3.63914 46.589L3.5408 46.6284H3.40311L3.30476 46.5694L3.22608 46.4907L3.16708 46.412C3.16708 46.3727 3.14741 46.3333 3.14741 46.294C3.13151 46.2638 3.12468 46.2296 3.12774 46.1956V45.9793C3.12774 45.8613 3.14741 45.7236 3.14741 45.5859C3.14741 45.4482 3.20641 45.3302 3.22608 45.1925L3.32443 44.8188L3.42278 44.5237H2.39996L2.10492 44.5631L1.82955 44.6024L1.49517 44.6417L1.20012 45.2515C1.18045 45.3302 1.14111 45.3892 1.12144 45.4679C1.10178 45.5465 1.10178 45.6055 1.08211 45.6842V45.8219C1.06737 45.8624 1.03972 45.897 1.00343 45.9203L0.90508 45.9596C0.871292 45.9629 0.83723 45.9574 0.806209 45.9436C0.775189 45.9298 0.748264 45.9082 0.728054 45.8809L0.669046 45.8022V45.7039C0.670658 45.5457 0.711189 45.3903 0.787063 45.2515L1.0231 44.7598L0.629707 44.8974L0.511689 44.9565L0.236316 45.0745L0.177307 45.1138H0.0789597L0.0199511 45.0745V45.0155C0.0128342 45.0075 0.00741941 44.9981 0.00403751 44.988C0.00065561 44.9778 -0.00062239 44.9671 0.000281575 44.9565V44.8581L0.0396206 44.7991L0.0789597 44.7598V44.7401Z" fill="#C39B54"/>
<path d="M95.3817 45.0357C95.4315 45.0386 95.4814 45.0309 95.528 45.0131C95.5746 44.9953 95.617 44.9679 95.6523 44.9326C95.6876 44.8973 95.715 44.855 95.7328 44.8083C95.7505 44.7617 95.7582 44.7118 95.7554 44.662C95.7554 44.5629 95.716 44.4678 95.6459 44.3977C95.5758 44.3277 95.4808 44.2883 95.3817 44.2883C95.2826 44.2883 95.1875 44.3277 95.1174 44.3977C95.0473 44.4678 95.0079 44.5629 95.0079 44.662C95.0051 44.7118 95.0128 44.7617 95.0306 44.8083C95.0483 44.855 95.0758 44.8973 95.1111 44.9326C95.1464 44.9679 95.1887 44.9953 95.2353 45.0131C95.282 45.0309 95.3318 45.0386 95.3817 45.0357ZM94.0048 44.544C93.8671 44.544 93.7491 44.426 93.7491 44.2293C93.7491 44.1615 93.776 44.0964 93.824 44.0485C93.8719 44.0005 93.937 43.9736 94.0048 43.9736C94.0726 43.9736 94.1377 44.0005 94.1856 44.0485C94.2336 44.0964 94.2605 44.1615 94.2605 44.2293C94.2605 44.426 94.1425 44.544 94.0048 44.544ZM94.0048 45.0357C94.5162 45.0357 94.8899 44.7013 94.8899 44.2293C94.8899 43.7572 94.5162 43.4425 94.0048 43.4425C93.4934 43.4425 93.1 43.7572 93.1 44.2293C93.1 44.7013 93.4737 45.0357 94.0048 45.0357ZM92.1755 45.0554C92.3435 45.0631 92.5109 45.0316 92.6646 44.9633C92.8182 44.895 92.9538 44.7918 93.0607 44.662L92.6279 44.2883C92.577 44.3549 92.5116 44.409 92.4366 44.4465C92.3616 44.484 92.279 44.5039 92.1952 44.5046C92.1314 44.5082 92.0677 44.4975 92.0085 44.4735C91.9493 44.4494 91.8962 44.4126 91.8529 44.3656C91.8097 44.3185 91.7774 44.2625 91.7583 44.2016C91.7393 44.1406 91.734 44.0762 91.7428 44.0129C91.7373 43.9503 91.745 43.8872 91.7653 43.8277C91.7855 43.7682 91.818 43.7135 91.8606 43.6673C91.9031 43.621 91.9549 43.5841 92.0125 43.559C92.0701 43.5338 92.1323 43.5209 92.1952 43.5212C92.2814 43.5209 92.3662 43.5423 92.4419 43.5836C92.5175 43.6249 92.5815 43.6846 92.6279 43.7572L93.0607 43.3835C92.9538 43.2536 92.8182 43.1505 92.6646 43.0822C92.5109 43.0139 92.3435 42.9824 92.1755 42.9901C91.5264 42.9901 91.074 43.4031 91.074 44.0129C91.074 44.6227 91.5264 45.0554 92.1755 45.0554ZM88.635 44.485V43.5408H88.9104C88.9731 43.538 89.0358 43.5483 89.0943 43.5711C89.1528 43.5938 89.206 43.6285 89.2504 43.6729C89.2948 43.7173 89.3295 43.7705 89.3522 43.829C89.375 43.8875 89.3853 43.9502 89.3825 44.0129C89.3885 44.0764 89.3805 44.1405 89.359 44.2005C89.3374 44.2606 89.3028 44.3151 89.2577 44.3602C89.2126 44.4053 89.1581 44.4399 89.098 44.4615C89.038 44.483 88.9739 44.4911 88.9104 44.485H88.635ZM87.9663 44.9964H88.9497C89.5988 44.9964 90.0512 44.6227 90.0512 44.0129C90.0512 43.4031 89.5988 43.0294 88.9497 43.0294H87.9663V44.9964ZM86.7271 44.5046V44.2489H87.5532V43.7572H86.7271V43.5408H87.6712V43.0294H86.078V44.9964H87.7105V44.5046H86.7271ZM85.0748 44.9964H85.7436V43.0294H85.0748V44.9964ZM84.8781 43.5408V43.0294H83.2652V44.9964H83.934V44.367H84.7601V43.8752H83.934V43.5408H84.8781ZM82.2818 44.9964H82.9505V43.0294H82.2818V44.9964ZM80.8656 44.9964H81.5146V43.5408H82.1047V43.0294H80.2755V43.5408H80.8656V44.9964ZM79.528 43.7769C79.5317 43.8105 79.5274 43.8446 79.5156 43.8763C79.5037 43.908 79.4846 43.9364 79.4597 43.9594C79.4348 43.9823 79.4049 43.9991 79.3724 44.0084C79.3398 44.0177 79.3056 44.0193 79.2723 44.0129H79.0166V43.5408H79.2723C79.3056 43.5345 79.3398 43.536 79.3724 43.5453C79.4049 43.5546 79.4348 43.5714 79.4597 43.5944C79.4846 43.6173 79.5037 43.6458 79.5156 43.6775C79.5274 43.7092 79.5317 43.7432 79.528 43.7769ZM79.528 44.9964H80.2558L79.8427 44.3866C79.9559 44.3319 80.0501 44.2446 80.1132 44.136C80.1763 44.0273 80.2054 43.9022 80.1968 43.7769C80.1968 43.3245 79.8624 43.0294 79.3117 43.0294H78.3479V44.9964H79.0166V44.5046H79.1936L79.528 44.9964ZM77.1087 44.5046V44.2489H77.9545V43.7572H77.1087V43.5408H78.0528V43.0294H76.4596V44.9964H78.0922V44.5046H77.1087ZM75.3778 45.0554C75.5459 45.0647 75.7139 45.0339 75.8678 44.9655C76.0217 44.8971 76.1571 44.7931 76.2629 44.662L75.8498 44.2883C75.7989 44.3549 75.7335 44.409 75.6585 44.4465C75.5835 44.484 75.5009 44.5039 75.4171 44.5046C75.3526 44.5077 75.2882 44.4969 75.2282 44.473C75.1682 44.4491 75.114 44.4126 75.0693 44.3661C75.0246 44.3195 74.9904 44.2639 74.9689 44.2029C74.9475 44.142 74.9393 44.0772 74.945 44.0129C74.9393 43.9486 74.9475 43.8838 74.9689 43.8229C74.9904 43.762 75.0246 43.7063 75.0693 43.6598C75.114 43.6132 75.1682 43.5767 75.2282 43.5528C75.2882 43.5289 75.3526 43.5181 75.4171 43.5212C75.5033 43.5209 75.5881 43.5423 75.6638 43.5836C75.7394 43.6249 75.8034 43.6846 75.8498 43.7572L76.2629 43.3835C76.1571 43.2524 76.0217 43.1484 75.8678 43.08C75.7139 43.0116 75.5459 42.9808 75.3778 42.9901C74.7483 42.9901 74.2763 43.4031 74.2763 44.0129C74.276 44.1549 74.3048 44.2955 74.3609 44.426C74.4169 44.5565 74.499 44.6741 74.6022 44.7717C74.7053 44.8693 74.8273 44.9449 74.9607 44.9936C75.094 45.0424 75.236 45.0634 75.3778 45.0554ZM72.4863 43.7179H72.388V43.5408H73.1551V43.0294H71.8372L71.7389 44.2293H72.3093C72.5453 44.2293 72.6044 44.2883 72.6044 44.367C72.6044 44.4456 72.506 44.5243 72.3486 44.5243C72.1626 44.5257 71.9795 44.4782 71.8176 44.3866L71.6012 44.8784C71.8378 45.0014 72.1017 45.0623 72.3683 45.0554C72.9977 45.0554 73.2731 44.7013 73.2731 44.3473C73.2731 43.9932 73.0764 43.7179 72.4863 43.7179ZM70.4407 43.0294V43.5408H70.7751V44.9964H71.4438V43.0294H70.4407ZM69.4769 44.5243C69.3392 44.5243 69.2409 44.4063 69.2409 44.0129C69.2409 43.6195 69.3392 43.5212 69.4769 43.5212C69.6146 43.5212 69.6933 43.6392 69.6933 44.0129C69.6933 44.3866 69.5949 44.5243 69.4769 44.5243ZM69.4769 45.0554C69.9883 45.0554 70.362 44.662 70.362 44.0129C70.362 43.3638 69.9883 42.9901 69.4769 42.9901C68.9655 42.9901 68.5721 43.3638 68.5721 44.0129C68.5721 44.662 68.9458 45.0554 69.4769 45.0554ZM67.7656 44.485L68.0607 44.2293C68.3361 43.9736 68.3951 43.7965 68.3951 43.5998C68.3951 43.4032 68.0607 42.9901 67.5886 42.9901C67.4191 42.9763 67.2491 43.0116 67.0991 43.0918C66.9491 43.172 66.8254 43.2938 66.7428 43.4425L67.2542 43.6982C67.2766 43.6426 67.3145 43.5945 67.3632 43.5597C67.412 43.5248 67.4697 43.5047 67.5296 43.5015C67.6673 43.5015 67.7263 43.5605 67.7263 43.6589C67.7263 43.7572 67.7066 43.8162 67.569 43.9342L66.8608 44.603V44.9964H68.4344V44.485H67.7656ZM65.5037 45.0357C65.5535 45.0386 65.6033 45.0309 65.65 45.0131C65.6966 44.9953 65.739 44.9679 65.7743 44.9326C65.8095 44.8973 65.837 44.855 65.8547 44.8083C65.8725 44.7617 65.8802 44.7118 65.8774 44.662C65.8774 44.5629 65.838 44.4678 65.7679 44.3977C65.6978 44.3277 65.6028 44.2883 65.5037 44.2883C65.4045 44.2883 65.3095 44.3277 65.2394 44.3977C65.1693 44.4678 65.1299 44.5629 65.1299 44.662C65.1271 44.7118 65.1348 44.7617 65.1526 44.8083C65.1703 44.855 65.1978 44.8973 65.2331 44.9326C65.2683 44.9679 65.3107 44.9953 65.3573 45.0131C65.404 45.0309 65.4538 45.0386 65.5037 45.0357ZM65.5037 44.1703C65.5535 44.1731 65.6033 44.1654 65.65 44.1476C65.6966 44.1299 65.739 44.1024 65.7743 44.0671C65.8095 44.0319 65.837 43.9895 65.8547 43.9429C65.8725 43.8962 65.8802 43.8464 65.8774 43.7965C65.8774 43.6974 65.838 43.6024 65.7679 43.5323C65.6978 43.4622 65.6028 43.4228 65.5037 43.4228C65.4045 43.4228 65.3095 43.4622 65.2394 43.5323C65.1693 43.6024 65.1299 43.6974 65.1299 43.7965C65.1271 43.8464 65.1348 43.8962 65.1526 43.9429C65.1703 43.9895 65.1978 44.0319 65.2331 44.0671C65.2683 44.1024 65.3107 44.1299 65.3573 44.1476C65.404 44.1654 65.4538 44.1731 65.5037 44.1703ZM63.0646 43.0294V43.5408H63.399V44.9964H64.0678V43.0294H63.0646ZM62.1008 44.5243C61.9631 44.5243 61.8648 44.4063 61.8648 44.0129C61.8648 43.6195 61.9631 43.5212 62.1008 43.5212C62.2385 43.5212 62.3172 43.6392 62.3172 44.0129C62.3172 44.3866 62.2188 44.5243 62.1008 44.5243ZM62.1008 45.0554C62.6122 45.0554 62.986 44.662 62.986 44.0129C62.986 43.3638 62.6122 42.9901 62.1008 42.9901C61.5894 42.9901 61.196 43.3638 61.196 44.0129C61.196 44.662 61.5697 45.0554 62.1008 45.0554ZM60.1535 44.5243C60.0159 44.5243 59.9175 44.4063 59.9175 44.0129C59.9175 43.6195 60.0159 43.5212 60.1535 43.5212C60.2912 43.5212 60.3699 43.6392 60.3699 44.0129C60.3699 44.3866 60.2716 44.5243 60.1535 44.5243ZM60.1535 45.0554C60.6649 45.0554 61.0387 44.662 61.0387 44.0129C61.0387 43.3638 60.6649 42.9901 60.1535 42.9901C59.6421 42.9901 59.2487 43.3638 59.2487 44.0129C59.2487 44.662 59.6225 45.0554 60.1535 45.0554ZM58.1866 43.8556C58.159 43.8557 58.1317 43.85 58.1065 43.8389C58.0812 43.8278 58.0586 43.8116 58.0401 43.7912C58.0215 43.7708 58.0075 43.7467 57.9988 43.7205C57.9902 43.6943 57.9871 43.6666 57.9899 43.6392C57.9899 43.587 58.0106 43.537 58.0475 43.5001C58.0844 43.4632 58.1344 43.4425 58.1866 43.4425C58.2388 43.4425 58.2888 43.4632 58.3257 43.5001C58.3626 43.537 58.3833 43.587 58.3833 43.6392C58.386 43.6666 58.383 43.6943 58.3744 43.7205C58.3657 43.7467 58.3517 43.7708 58.3331 43.7912C58.3146 43.8116 58.2919 43.8278 58.2667 43.8389C58.2415 43.85 58.2142 43.8557 58.1866 43.8556ZM58.1472 42.9901C57.6949 42.9901 57.3408 43.2458 57.3408 43.6785C57.3406 43.7646 57.3581 43.8498 57.3922 43.9288C57.4262 44.0079 57.4762 44.0791 57.5388 44.1381C57.6015 44.1971 57.6756 44.2426 57.7566 44.2718C57.8376 44.301 57.9237 44.3133 58.0096 44.3079C58.1506 44.317 58.2902 44.2751 58.403 44.1899C58.3982 44.241 58.383 44.2906 58.3583 44.3355C58.3336 44.3805 58.2999 44.4199 58.2593 44.4513C58.2187 44.4826 58.1721 44.5053 58.1224 44.5179C58.0726 44.5304 58.0208 44.5326 57.9702 44.5243C57.8449 44.5287 57.7213 44.4944 57.6162 44.426L57.3801 44.898C57.565 45.0057 57.776 45.0601 57.9899 45.0554C58.1376 45.0673 58.286 45.0469 58.4251 44.9958C58.5641 44.9446 58.6903 44.8639 58.7951 44.7591C58.8998 44.6544 58.9806 44.5281 59.0318 44.3891C59.0829 44.25 59.1033 44.1016 59.0914 43.9539C59.0914 43.3048 58.698 42.9901 58.1472 42.9901ZM55.2558 44.5046C55.1937 44.5052 55.1321 44.4924 55.0754 44.4671C55.0186 44.4417 54.968 44.4045 54.9269 44.3578C54.8859 44.3111 54.8553 44.2562 54.8374 44.1967C54.8195 44.1372 54.8146 44.0745 54.8231 44.0129C54.8091 43.947 54.8101 43.8788 54.8258 43.8133C54.8416 43.7478 54.8717 43.6866 54.9142 43.6343C54.9566 43.5819 55.0101 43.5397 55.071 43.5107C55.1318 43.4817 55.1983 43.4667 55.2657 43.4667C55.333 43.4667 55.3996 43.4817 55.4604 43.5107C55.5212 43.5397 55.5747 43.5819 55.6172 43.6343C55.6596 43.6866 55.6898 43.7478 55.7055 43.8133C55.7213 43.8788 55.7222 43.947 55.7082 44.0129C55.7137 44.0755 55.706 44.1386 55.6858 44.1981C55.6655 44.2576 55.633 44.3123 55.5905 44.3586C55.5479 44.4048 55.4962 44.4417 55.4385 44.4669C55.3809 44.492 55.3187 44.5049 55.2558 44.5046ZM55.2558 45.0554C55.9049 45.0554 56.377 44.6227 56.377 44.0129C56.377 43.4031 55.9049 42.9901 55.2558 42.9901C54.6067 42.9901 54.1543 43.4228 54.1543 44.0129C54.1543 44.603 54.6067 45.0554 55.2558 45.0554ZM53.1118 45.0554C53.7216 45.0554 54.0166 44.7407 54.0166 44.3866C54.0166 43.6589 52.9348 43.8555 52.9348 43.6195C52.9348 43.3835 52.9938 43.5015 53.1905 43.5015C53.3825 43.5027 53.5713 43.5499 53.7413 43.6392L53.938 43.1474C53.7034 43.0406 53.4482 42.9869 53.1905 42.9901C52.5808 42.9901 52.2857 43.2851 52.2857 43.6589C52.2857 44.3866 53.3675 44.1899 53.3675 44.426C53.3675 44.662 53.3085 44.544 53.1118 44.544C52.8846 44.5365 52.6623 44.4758 52.4627 44.367L52.2464 44.839C52.5088 44.9911 52.8088 45.0661 53.1118 45.0554ZM51.3809 44.9964H52.0497V43.0294H51.3809V44.9964ZM95.0866 38.4268C95.1726 38.4295 95.2582 38.4146 95.3382 38.3829C95.4182 38.3513 95.4909 38.3036 95.5517 38.2427C95.6125 38.1819 95.6602 38.1092 95.6919 38.0293C95.7235 37.9493 95.7384 37.8636 95.7357 37.7777C95.7357 37.6055 95.6673 37.4404 95.5456 37.3187C95.4239 37.197 95.2588 37.1286 95.0866 37.1286C94.9145 37.1286 94.7494 37.197 94.6276 37.3187C94.5059 37.4404 94.4375 37.6055 94.4375 37.7777C94.4348 37.8636 94.4497 37.9493 94.4814 38.0293C94.513 38.1092 94.5607 38.1819 94.6216 38.2427C94.6824 38.3036 94.755 38.3513 94.835 38.3829C94.915 38.4146 95.0006 38.4295 95.0866 38.4268ZM91.8215 37.463V35.8304H92.3132C92.5079 35.8607 92.6854 35.9596 92.8136 36.1093C92.9418 36.259 93.0123 36.4496 93.0123 36.6467C93.0123 36.8437 92.9418 37.0343 92.8136 37.184C92.6854 37.3337 92.5079 37.4326 92.3132 37.463H91.8215ZM90.661 38.3678H92.3526C93.5131 38.3678 94.2998 37.7187 94.2998 36.6565C94.2998 35.5943 93.5131 34.9256 92.3526 34.9256H90.661V38.3678ZM88.1826 38.3678H89.3431V35.8304H90.3659V34.9256H87.1795V35.8304H88.1826V38.3678ZM84.7208 38.3678H87.4352V37.463H85.8813V34.9256H84.7208V38.3678ZM82.2228 38.4268C82.3087 38.4295 82.3944 38.4146 82.4743 38.3829C82.5543 38.3513 82.627 38.3036 82.6878 38.2427C82.7486 38.1819 82.7963 38.1092 82.828 38.0293C82.8597 37.9493 82.8746 37.8636 82.8718 37.7777C82.8718 37.6055 82.8035 37.4404 82.6817 37.3187C82.56 37.197 82.3949 37.1286 82.2228 37.1286C82.0506 37.1286 81.8855 37.197 81.7638 37.3187C81.642 37.4404 81.5737 37.6055 81.5737 37.7777C81.5709 37.8636 81.5858 37.9493 81.6175 38.0293C81.6492 38.1092 81.6969 38.1819 81.7577 38.2427C81.8185 38.3036 81.8912 38.3513 81.9712 38.3829C82.0511 38.4146 82.1368 38.4295 82.2228 38.4268ZM79.469 38.3678H80.6295V35.8304H81.6327V34.9256H78.4462V35.8304H79.469V38.3678ZM77.4824 34.9256L76.6366 36.9319L75.8302 34.9256H74.5713L76.0269 38.3678H77.1677L78.6232 34.9256H77.4824ZM72.9781 36.6368H72.5453V35.8304H72.9781C73.2928 35.8304 73.4501 35.9681 73.4501 36.2238C73.4501 36.4795 73.2928 36.6368 72.9781 36.6368ZM73.0568 34.9256H71.3848V38.3678H72.5453V37.522H73.0568C74.0009 37.522 74.6106 37.0302 74.6106 36.2238C74.6106 35.4173 74.0009 34.9256 73.0568 34.9256ZM67.4509 38.3678H68.6114V35.8304H69.6146V34.9256H66.4478V35.8304H67.4509V38.3678ZM65.0119 34.9256V36.4991L63.6941 34.9256H62.7499V38.3678H63.8711V36.8139L65.1889 38.3678H66.1331V34.9256H65.0119ZM60.1339 36.9319L60.4683 36.0664L60.8026 36.9319H60.1339ZM61.3534 38.3678H62.5532L61.0583 34.9256H59.9175L58.403 38.3678H59.5831L59.8192 37.7777H61.137L61.3534 38.3678ZM56.495 38.3678H57.6555V35.8304H58.6587V34.9256H55.4919V35.8304H56.495V38.3678ZM53.0332 38.3678H55.7476V37.463H54.1937V34.9256H53.0332V38.3678ZM50.8302 38.4464C51.8727 38.4464 52.5021 37.8563 52.5021 36.8139V34.9256H51.3613V36.7942C51.3613 37.3056 51.1646 37.5023 50.8302 37.5023C50.4958 37.5023 50.2991 37.3056 50.2991 36.7942V34.9256H49.1386V36.8139C49.1386 37.8563 49.768 38.4464 50.8302 38.4464ZM47.2307 38.4464C48.2928 38.4464 48.8239 37.9154 48.8239 37.2859C48.8239 36.0271 46.9356 36.3615 46.9356 35.9484C46.9356 35.8304 47.034 35.732 47.3683 35.732C47.7059 35.7356 48.0372 35.8235 48.3321 35.9877L48.6862 35.142C48.2833 34.9411 47.8381 34.84 47.388 34.8469C46.3259 34.8469 45.7751 35.378 45.7751 36.0074C45.7751 37.2859 47.6831 36.9515 47.6831 37.3843C47.6831 37.5023 47.565 37.5613 47.2307 37.5613C46.8357 37.557 46.449 37.4484 46.1095 37.2466L45.7358 38.0924C46.1947 38.3386 46.71 38.4606 47.2307 38.4464ZM44.2606 34.9256V36.4991L42.9427 34.9256H41.9986V38.3678H43.1197V36.8139L44.4376 38.3678H45.3817V34.9256H44.2606ZM39.6185 37.5023C39.2055 37.5023 38.8514 37.1876 38.8514 36.6565C38.8514 36.1254 39.2055 35.791 39.6185 35.791C40.0316 35.791 40.4053 36.1058 40.4053 36.6565C40.4135 36.7647 40.3991 36.8734 40.3633 36.9757C40.3274 37.0781 40.2707 37.172 40.1968 37.2514C40.1229 37.3308 40.0334 37.3941 39.9339 37.4373C39.8344 37.4805 39.727 37.5026 39.6185 37.5023ZM39.6185 38.4464C40.7397 38.4464 41.5658 37.699 41.5658 36.6565C41.5658 35.614 40.7397 34.8469 39.6185 34.8469C38.4974 34.8469 37.6909 35.614 37.6909 36.6565C37.6909 37.699 38.4974 38.4464 39.6185 38.4464ZM36.019 38.4464C36.6878 38.4464 37.2189 38.2104 37.5532 37.758L36.8255 37.1089C36.7423 37.2303 36.6307 37.3296 36.5005 37.3982C36.3702 37.4667 36.2252 37.5025 36.078 37.5023C35.9671 37.5086 35.856 37.4907 35.7527 37.4499C35.6493 37.409 35.556 37.3462 35.4793 37.2658C35.4026 37.1853 35.3443 37.0892 35.3085 36.984C35.2726 36.8788 35.26 36.767 35.2716 36.6565C35.2716 36.1254 35.5863 35.791 36.078 35.791C36.2252 35.7909 36.3702 35.8266 36.5005 35.8952C36.6307 35.9637 36.7423 36.063 36.8255 36.1844L37.5532 35.5353C37.3691 35.3087 37.1344 35.1283 36.868 35.0088C36.6015 34.8892 36.3108 34.8338 36.019 34.8469C34.9175 34.8469 34.0914 35.5943 34.0914 36.6565C34.0914 37.7187 34.9175 38.4464 36.019 38.4464ZM31.0623 34.9256V36.4991L29.7641 34.9256H28.8003V38.3678H29.9411V36.8139L31.2393 38.3678H32.2031V34.9256H31.0623ZM26.44 37.5023C26.0072 37.5023 25.6729 37.1876 25.6729 36.6565C25.6729 36.1254 26.0072 35.791 26.44 35.791C26.8727 35.791 27.2071 36.1058 27.2071 36.6565C27.2071 37.2072 26.8727 37.5023 26.44 37.5023ZM26.44 38.4464C27.5611 38.4464 28.3872 37.699 28.3872 36.6565C28.3872 35.614 27.5611 34.8469 26.44 34.8469C25.3188 34.8469 24.4927 35.614 24.4927 36.6565C24.4927 37.699 25.3188 38.4464 26.44 38.4464ZM22.9191 38.3678H24.0796V34.9256H22.9191V38.3678ZM20.4408 38.3678H21.6013V35.8304H22.6241V34.9256H19.4376V35.8304H20.4408V38.3678ZM17.274 36.9319L17.6083 36.0664L17.9427 36.9319H17.274ZM18.4935 38.3678H19.6933L18.1788 34.9256H17.0379L15.543 38.3678H16.7232L16.9396 37.7777H18.2574L18.4935 38.3678ZM14.0875 38.4464C14.7563 38.4464 15.2873 38.2104 15.6217 37.758L14.8939 37.1089C14.8096 37.2291 14.6978 37.3275 14.5678 37.396C14.4378 37.4644 14.2934 37.5008 14.1465 37.5023C14.0355 37.5086 13.9245 37.4907 13.8211 37.4499C13.7178 37.409 13.6245 37.3462 13.5478 37.2658C13.4711 37.1853 13.4128 37.0892 13.3769 36.984C13.3411 36.8788 13.3285 36.767 13.3401 36.6565C13.3401 36.1254 13.6548 35.791 14.1465 35.791C14.2934 35.7925 14.4378 35.829 14.5678 35.8974C14.6978 35.9658 14.8096 36.0642 14.8939 36.1844L15.6217 35.5353C15.4376 35.3087 15.2029 35.1283 14.9364 35.0088C14.67 34.8892 14.3792 34.8338 14.0875 34.8469C12.9663 34.8469 12.1599 35.5943 12.1599 36.6565C12.1599 37.7187 12.9663 38.4464 14.0875 38.4464ZM10.0946 38.4464C11.1567 38.4464 11.7665 37.8563 11.7665 36.8139V34.9256H10.6257V36.7942C10.6257 37.3056 10.429 37.5023 10.0946 37.5023C9.7602 37.5023 9.58317 37.3056 9.58317 36.7942V34.9256H8.42267V36.8139C8.42267 37.8563 9.03243 38.4464 10.0946 38.4464ZM5.55092 37.463V35.8304H6.04266C6.23739 35.8607 6.41486 35.9596 6.54305 36.1093C6.67123 36.259 6.74169 36.4496 6.74169 36.6467C6.74169 36.8437 6.67123 37.0343 6.54305 37.184C6.41486 37.3337 6.23739 37.4326 6.04266 37.463H5.55092ZM4.39042 38.3678H6.082C7.2425 38.3678 8.02928 37.7187 8.02928 36.6565C8.02928 35.5943 7.2425 34.9256 6.082 34.9256H4.39042V38.3678ZM2.22677 37.5023V37.0499H3.68232V36.2041H2.22677V35.8107H3.87901V34.9256H1.08594V38.3678H3.93802V37.5023H2.22677ZM55.3345 21.0389L48.3912 23.7336C48.437 24.1748 48.5293 24.61 48.6665 25.0318C48.813 25.5059 49.0391 25.9516 49.3353 26.3497C49.5714 26.6789 49.8812 26.9484 50.2401 27.1364C50.5658 27.3128 50.932 27.401 51.3022 27.3922C51.5351 27.3899 51.7666 27.3568 51.9907 27.2938C52.2234 27.2362 52.4434 27.1362 52.6398 26.9988C52.8718 26.8577 53.0836 26.6856 53.2692 26.4874C53.4848 26.2537 53.6821 26.0038 53.8593 25.7399L54.41 24.8941L56.2 27.1561L55.9246 27.5888C55.6661 28.0074 55.3627 28.3966 55.0198 28.7494C54.6753 29.0822 54.2923 29.3727 53.879 29.6148C53.4765 29.8629 53.0388 30.0486 52.5808 30.1656C52.1182 30.2849 51.6423 30.3444 51.1646 30.3426C50.2959 30.3555 49.4376 30.1528 48.6665 29.7525C47.8928 29.316 47.2273 28.7109 46.7192 27.9822C46.1701 27.182 45.7703 26.2891 45.5391 25.3465C45.2682 24.2662 45.136 23.1558 45.1457 22.042C45.1436 21.0725 45.2692 20.107 45.5194 19.1703C45.7731 18.3126 46.1651 17.5021 46.6799 16.7706C47.1561 16.1003 47.7739 15.5429 48.4895 15.138C49.1803 14.7526 49.9605 14.5558 50.7515 14.5676C51.3962 14.5553 52.0352 14.6898 52.6201 14.961C53.2103 15.2485 53.7331 15.6573 54.1543 16.1609C54.6116 16.6972 54.9711 17.3097 55.2165 17.9704C55.4919 18.7152 55.6897 19.4864 55.8066 20.2718L55.8853 20.8422L55.3345 21.0389ZM52.3251 19.2686L52.148 18.7769C52.0411 18.526 51.8951 18.2936 51.7153 18.0885C51.5888 17.9423 51.4352 17.8221 51.2629 17.7344C51.0975 17.6543 50.9156 17.6138 50.7318 17.6164C50.3953 17.6077 50.0625 17.6892 49.768 17.8524C49.4625 18.0464 49.2065 18.3091 49.0206 18.6195C48.7701 19.0326 48.5906 19.4847 48.4895 19.9571C48.4148 20.261 48.3622 20.57 48.3321 20.8815L52.3251 19.2686ZM44.0442 21.0389L37.0812 23.7336C37.1365 24.1733 37.2286 24.6075 37.3566 25.0318C37.5097 25.5069 37.7425 25.9526 38.045 26.3497C38.2785 26.6739 38.5808 26.9425 38.9301 27.1364C39.2558 27.3128 39.622 27.401 39.9923 27.3922C40.2315 27.3898 40.4695 27.3568 40.7004 27.2938C40.9303 27.2286 41.1491 27.1291 41.3495 26.9988C41.5752 26.857 41.7803 26.6849 41.9592 26.4874C42.1864 26.2638 42.3846 26.0127 42.5493 25.7399L43.1001 24.8941L44.89 27.1561L44.6343 27.5888C44.3691 28.008 44.0591 28.3972 43.7098 28.7494C43.3763 29.0864 42.9992 29.3775 42.5886 29.6148C42.1862 29.8629 41.7485 30.0486 41.2905 30.1656C40.8279 30.2849 40.3519 30.3444 39.8743 30.3426C38.9994 30.3547 38.1349 30.1521 37.3566 29.7525C36.5829 29.316 35.9173 28.7109 35.4093 27.9822C34.8601 27.182 34.4603 26.2891 34.2291 25.3465C33.9582 24.2662 33.826 23.1558 33.8357 22.042C33.8298 21.071 33.9623 20.104 34.2291 19.1703C34.4748 18.3095 34.8674 17.4977 35.3896 16.7706C35.8607 16.0958 36.4797 15.5375 37.1992 15.138C37.8828 14.7524 38.6567 14.5556 39.4415 14.5676C40.0925 14.555 40.738 14.6895 41.3298 14.961C41.9108 15.2541 42.4261 15.6624 42.8443 16.1609C43.3016 16.6972 43.6611 17.3097 43.9065 17.9704C44.2001 18.7094 44.3984 19.4827 44.4966 20.2718L44.5753 20.8422L44.0442 21.0389ZM41.0151 19.2686L40.8381 18.7769C40.7386 18.5221 40.5918 18.2885 40.4053 18.0885C40.2788 17.9423 40.1252 17.8221 39.9529 17.7344C39.7875 17.6543 39.6057 17.6138 39.4219 17.6164C39.0918 17.6103 38.7661 17.6917 38.4777 17.8524C38.1621 18.0402 37.8984 18.3039 37.7106 18.6195C37.4602 19.0326 37.2807 19.4847 37.1795 19.9571C37.1115 20.2615 37.0655 20.5705 37.0418 20.8815L41.0151 19.2686ZM30.4525 18.5802V26.1333C30.4525 26.5464 30.4525 26.9004 30.4722 27.1758C30.4919 27.4512 30.5116 27.7265 30.5312 27.9626C30.5465 28.1671 30.5728 28.3706 30.6099 28.5723C30.6492 28.7493 30.6886 28.9264 30.7279 29.0641L31.0426 30.0082H26.735L27.0497 29.0444C27.1098 28.8998 27.1495 28.7475 27.1677 28.592C27.2064 28.4104 27.2327 28.2264 27.2464 28.0412C27.2661 27.8249 27.2858 27.5692 27.2858 27.2545C27.2858 26.9398 27.3054 26.6054 27.3054 26.1333V18.7179C27.3054 18.3638 27.3054 18.0688 27.2858 17.8524C27.2853 17.6616 27.2721 17.4711 27.2464 17.282C27.2316 17.1489 27.2053 17.0172 27.1677 16.8886C27.1468 16.7804 27.1138 16.6748 27.0694 16.5739L26.7743 15.9642L30.2362 14.1152L30.2952 15.2167L30.6296 15.02C30.907 14.862 31.2048 14.7428 31.5147 14.666C31.8373 14.5934 32.1676 14.5603 32.4982 14.5676C32.6761 14.5596 32.8544 14.5728 33.0293 14.607C33.2116 14.636 33.3859 14.703 33.5407 14.8037H33.5603C33.7315 14.9144 33.8678 15.0712 33.9537 15.2561C34.0261 15.4303 34.0597 15.6183 34.0521 15.8068C34.0553 15.9186 34.0487 16.0305 34.0324 16.1412C34.0123 16.1916 33.9991 16.2446 33.9931 16.2985L33.9537 16.3969L33.4423 18.1475L32.5572 17.9311L32.3802 17.8918H32.0458C31.8866 17.8921 31.7281 17.9119 31.5737 17.9508C31.404 17.9921 31.2391 18.0515 31.082 18.1278C30.9198 18.2076 30.7679 18.3066 30.6296 18.4228L30.4525 18.5802ZM16.7626 8.35205V15.3937L17.7067 14.9807C18.1021 14.8367 18.5105 14.7313 18.9262 14.666C19.3485 14.5941 19.7764 14.5612 20.2047 14.5676C20.8033 14.5578 21.3999 14.6374 21.975 14.8037C22.4956 14.9594 22.9728 15.2343 23.3688 15.6064C23.7648 15.9785 24.0688 16.4377 24.2566 16.9476C24.4433 17.4987 24.5364 18.0771 24.532 18.6589V26.1333C24.532 26.5464 24.532 26.9004 24.5517 27.1758C24.5495 27.4392 24.5692 27.7024 24.6107 27.9626C24.626 28.1671 24.6522 28.3706 24.6894 28.5723C24.7287 28.7493 24.7681 28.9264 24.8074 29.0641L25.1024 30.0082H20.9128L21.1882 29.0837C21.2079 28.946 21.2472 28.8084 21.2669 28.6707C21.2865 28.533 21.3062 28.3363 21.3259 28.1396C21.3456 27.9429 21.3652 27.6479 21.3652 27.3528C21.3652 27.0578 21.3849 26.684 21.3849 26.1333V19.367C21.3893 19.017 21.3563 18.6675 21.2865 18.3245C21.2456 18.1486 21.1722 17.9818 21.0702 17.8328C20.9817 17.7301 20.8657 17.655 20.7358 17.6164C20.5065 17.5463 20.2675 17.5131 20.0277 17.518C19.7041 17.5206 19.3814 17.5535 19.0639 17.6164C18.754 17.6782 18.4509 17.7704 18.1591 17.8918C17.8634 18.0152 17.5801 18.1667 17.3133 18.3442L16.7626 18.7769V27.2545C16.7822 27.5692 16.8019 27.8446 16.8216 28.0412C16.8352 28.2199 16.8615 28.3974 16.9002 28.5723C16.9135 28.7287 16.9534 28.8818 17.0183 29.0247L17.333 29.9885H13.104L13.3991 29.0444C13.4456 28.9103 13.4785 28.772 13.4974 28.6313L13.5564 28.1396C13.5761 27.9232 13.5958 27.6479 13.5958 27.3528C13.5958 27.0578 13.6154 26.6644 13.6154 26.1333V11.3025C13.6206 11.0794 13.6141 10.8561 13.5958 10.6337C13.5951 10.4821 13.582 10.3308 13.5564 10.1813L13.4974 9.8666C13.4767 9.77719 13.4436 9.69113 13.3991 9.6109L13.1434 8.98147L16.7626 7.17188V8.35205ZM93.9458 15.2757V26.1333C93.9458 26.6447 93.9458 27.1758 93.9851 27.6675C94.0173 28.1412 94.103 28.6097 94.2408 29.0641L94.5359 30.0082H90.2479L90.543 29.0444C90.8183 28.2576 90.8183 27.2741 90.8183 26.3693V26.1333H90.7987V18.5999H90.8183C90.8183 17.9114 90.8183 17.1443 90.5626 16.5739L90.2676 15.9445L93.9458 14.1152V15.2757ZM85.8616 18.5802V26.1333C85.8616 26.6447 85.8616 27.1758 85.901 27.6675C85.9364 28.1393 86.0154 28.6068 86.137 29.0641L86.4517 30.0082H82.1441L82.4588 29.0444C82.7342 28.2576 82.7145 27.2741 82.7145 26.3693V18.5999C82.7145 17.9114 82.7145 17.1443 82.4785 16.5936L82.1834 15.9642L85.6452 14.1152L85.7043 15.2364L85.9796 15.0594C86.5698 14.7338 87.2333 14.5646 87.9072 14.5676C89.0874 14.5676 89.4611 15.1184 89.4611 15.8855C89.4308 16.3055 89.3311 16.7175 89.1661 17.105L89.0481 17.4984L88.8514 18.1671L88.1826 17.9901C87.7108 17.8686 87.2151 17.8754 86.7467 18.0098C86.4113 18.1283 86.1081 18.3237 85.8616 18.5802ZM76.7153 20.8619V18.7966C76.7153 18.2852 76.5973 17.9508 76.3809 17.7738C76.1645 17.5967 75.7711 17.4984 75.2794 17.4984C74.7106 17.4853 74.1461 17.5995 73.6272 17.8328C73.1307 18.0842 72.6997 18.4478 72.3683 18.8949L71.5029 19.9964L71.0111 18.4032C70.5587 16.8886 70.3424 16.1805 72.329 15.2167C73.405 14.7158 74.5853 14.4797 75.7711 14.5283C76.853 14.5873 77.8955 14.9217 78.6429 15.6298C79.0438 16.0114 79.3473 16.4835 79.528 17.0066C79.7094 17.5653 79.7959 18.1503 79.7837 18.7376V26.4677C79.7749 26.8188 79.842 27.1677 79.9804 27.4905C80.1 27.7315 80.2753 27.9406 80.4918 28.1003L81.377 28.71L80.4918 29.3001L80.1575 29.5361C79.7444 29.8508 79.292 30.1852 78.7412 30.3032H78.6036C78.0331 30.3032 77.6594 29.8705 77.4037 29.3984C76.6962 29.89 75.8791 30.2007 75.0237 30.3032C73.8239 30.4606 72.5847 30.1656 71.6602 29.2411L71.6012 29.2017C71.4832 29.0837 71.3848 28.946 71.2865 28.828C70.6135 27.8894 70.3378 26.7232 70.5194 25.5826C70.6429 24.4709 71.1345 23.4324 71.9159 22.6321L72.3093 22.2781C72.9682 21.8061 73.7083 21.4594 74.4926 21.2553C75.2192 21.0532 75.9635 20.9214 76.7153 20.8619ZM76.7153 23.714C76.0453 23.7798 75.3889 23.9455 74.768 24.2057C74.0402 24.5401 73.4895 25.0711 73.4895 25.9759C73.4731 26.3743 73.6145 26.763 73.8829 27.0578C74.025 27.1787 74.184 27.2781 74.3549 27.3528C74.5498 27.4251 74.757 27.4585 74.9647 27.4512C75.198 27.4541 75.4296 27.4104 75.6458 27.3226C75.8619 27.2348 76.0584 27.1046 76.2235 26.9398C76.3857 26.7695 76.5126 26.569 76.5973 26.3497C76.6791 26.0888 76.719 25.8166 76.7153 25.5432V23.714ZM60.6453 8.35205V15.4331C61.7328 14.8648 62.9392 14.5616 64.1661 14.5479C64.7836 14.5401 65.3972 14.6468 65.9757 14.8627C66.5724 15.0641 67.1029 15.4246 67.5099 15.9051C68.0804 16.5739 68.4147 17.4787 68.4147 18.6589V26.1333C68.4147 26.6447 68.4147 27.1758 68.4541 27.6675C68.4798 28.1405 68.559 28.6089 68.6901 29.0641L68.9852 30.0082H64.7955L65.0709 29.0837C65.2873 28.3166 65.2676 27.3922 65.2676 26.5464V19.367C65.2676 18.6982 65.1693 18.2065 64.9529 17.8918C64.7365 17.5771 64.4415 17.518 63.9104 17.518C63.2694 17.5226 62.6352 17.6494 62.0418 17.8918C61.5299 18.1062 61.0577 18.4054 60.6453 18.7769V26.4087C60.6256 27.2938 60.6256 28.2773 60.901 29.0444L61.2157 30.0082H56.9867L57.2818 29.0641C57.5178 28.3363 57.4981 27.4118 57.4981 26.566V11.3025C57.5055 10.9872 57.4924 10.6719 57.4588 10.3583C57.4397 10.1014 57.3799 9.84913 57.2818 9.6109L57.0261 8.98147L60.6453 7.17188V8.35205ZM11.0387 17.341L10.0356 19.7014L9.28813 18.6195C9.15866 18.4313 9.00674 18.2596 8.83573 18.1081C8.6892 17.9622 8.52382 17.8365 8.34399 17.7344H8.32433C8.15325 17.6338 7.96739 17.5608 7.77358 17.518C7.57533 17.4618 7.36985 17.4353 7.16382 17.4394C6.93081 17.4388 6.69893 17.472 6.47539 17.5377C6.29096 17.5969 6.12268 17.6979 5.98365 17.8328C5.85228 17.9355 5.75048 18.0713 5.68861 18.2262C5.61301 18.3785 5.57908 18.5482 5.59026 18.7179C5.58601 18.866 5.61281 19.0134 5.66894 19.1506C5.72475 19.3002 5.80447 19.4397 5.90497 19.5637C6.0684 19.7417 6.24601 19.9061 6.43605 20.0554C6.71458 20.2542 7.00347 20.438 7.30151 20.6062L7.75391 20.8619C8.99309 21.5503 9.93723 22.2781 10.5667 23.0452C11.2261 23.7737 11.5968 24.718 11.6091 25.7006C11.6139 26.3387 11.5005 26.9723 11.2748 27.5692C11.0408 28.1428 10.6773 28.6544 10.2126 29.0641C9.74601 29.4971 9.18808 29.8198 8.58003 30.0082C7.92777 30.2286 7.24244 30.335 6.55407 30.3229C6.04523 30.3212 5.53784 30.2685 5.03951 30.1656C4.56228 30.0676 4.09956 29.909 3.66265 29.6935C3.28366 29.524 2.93225 29.2985 2.62016 29.0247C2.46461 28.894 2.33859 28.7317 2.25043 28.5485C2.16227 28.3654 2.11398 28.1657 2.10875 27.9626C2.1135 27.8698 2.12667 27.7776 2.14809 27.6872C2.16828 27.6066 2.19458 27.5277 2.22677 27.4512C2.67917 26.4087 3.09223 25.3465 3.50529 24.304L4.17405 25.9366C4.27436 26.1642 4.40685 26.3761 4.56744 26.566C4.72723 26.7548 4.91261 26.9203 5.11819 27.0578C5.33034 27.1924 5.5628 27.2921 5.80662 27.3528C6.0681 27.4319 6.33989 27.4717 6.61308 27.4708C6.91235 27.4757 7.21067 27.4359 7.49821 27.3528C7.71187 27.2778 7.90655 27.1569 8.06862 26.9988C8.22492 26.8661 8.34645 26.6973 8.42267 26.507C8.50663 26.2738 8.54665 26.0271 8.54069 25.7793C8.5431 25.6264 8.52322 25.474 8.48168 25.3269C8.44814 25.1937 8.38033 25.0716 8.28499 24.9728C8.14753 24.801 7.98112 24.6546 7.79325 24.5401C7.51787 24.3434 7.16382 24.127 6.75076 23.891C6.04391 23.5061 5.3608 23.0792 4.70513 22.6125C4.22383 22.2911 3.79295 21.9 3.42661 21.452C3.13538 21.0796 2.90926 20.6606 2.75785 20.2128C2.61288 19.7547 2.53988 19.277 2.54148 18.7966C2.54043 18.2226 2.65412 17.6541 2.87586 17.1247C3.11546 16.6041 3.4643 16.1412 3.89868 15.7675C4.33781 15.3721 4.85325 15.0709 5.41323 14.8823C5.99506 14.681 6.60718 14.5812 7.22283 14.5873C7.67134 14.5858 8.11905 14.6253 8.56036 14.7053C8.98554 14.7946 9.40069 14.9264 9.79954 15.0987C10.1337 15.2346 10.4454 15.4203 10.724 15.6494C10.8766 15.7655 11.0015 15.9138 11.09 16.0839C11.1784 16.2539 11.2281 16.4414 11.2354 16.6329C11.2331 16.7403 11.2131 16.8467 11.1764 16.9476C11.1567 17.046 11.1174 17.1247 11.0977 17.2033L11.0387 17.341Z" fill="#044F87"/>
<path fill-rule="evenodd" clip-rule="evenodd" d="M88.8678 0.680483C88.8678 0.680483 99.0566 4.49637 108.695 0.0117188C104.053 5.42084 91.7395 15.4523 82.6719 11.8331C86.8812 11.0267 89.9889 7.17143 88.8678 0.680483Z" fill="#C39B54"/>
<path fill-rule="evenodd" clip-rule="evenodd" d="M75.9844 5.69629C80.1937 7.58456 82.6523 7.91895 87.7664 7.09283C86.1732 9.59086 85.3667 10.5743 81.6295 11.3414C79.0528 10.0433 77.3022 8.35168 75.9844 5.69629Z" fill="#C39B54"/>
<path d="M3.04688 31.9355H93.7234V32.6358H3.04688V31.9355Z" fill="#C39B54"/>
<path fill-rule="evenodd" clip-rule="evenodd" d="M94.0202 31.2266H94.8857L95.3184 31.8953H93.7055L94.0202 31.2266ZM93.6858 31.9347H95.3577L95.7904 32.6428H93.3711L93.6858 31.9347Z" fill="#C39B54"/>
<path d="M94.3931 30.4805L94.8652 31.1886H94.0391L94.3931 30.4805Z" fill="#C39B54"/>
<path fill-rule="evenodd" clip-rule="evenodd" d="M1.73126 31.2275H2.59672L3.02945 31.8963H1.41655L1.73126 31.2275ZM1.39688 31.9356H3.06879L3.50152 32.6437H1.0625L1.39688 31.9356Z" fill="#C39B54"/>
<path d="M2.10405 30.4805L2.57612 31.1886H1.75L2.10405 30.4805Z" fill="#C39B54"/>
</g>
<defs>
<clipPath id="clip0_261_859">
<rect width="108.696" height="48" fill="white"/>
</clipPath>
</defs>
</svg>
