<svg width="115" height="48" viewBox="0 0 115 48" fill="none" xmlns="http://www.w3.org/2000/svg">
<path fill-rule="evenodd" clip-rule="evenodd" d="M15.1992 7.17881L15.7796 8.4891C15.7796 8.4891 18.1543 15.3015 18.577 16.3496H29.8179C29.5544 16.5068 23.7484 20.9607 20.8988 23.0569C20.6875 23.3185 23.2736 30.5508 24.3817 33.7989C24.1703 33.7467 18.1015 29.3977 15.0407 27.3009C11.8742 29.5543 8.91901 31.8077 5.911 34.0089C6.96628 30.4445 8.12722 26.7771 9.23533 23.1613C6.28015 21.0651 0 16.3489 0 16.3489H11.3994C11.8214 15.1436 14.2495 7.54535 14.1967 7.12598C14.1961 7.12663 14.8294 7.12663 15.1992 7.17881Z" fill="#C82E37"/>
<path fill-rule="evenodd" clip-rule="evenodd" d="M32.7188 36.0006H36.3072V32.071H40.5296V30.132H36.3072V28.5589H40.7931V26.5155H32.7188V36.0006ZM41.5321 26.5155V32.6984C41.5321 35.3712 43.1685 36.1571 46.1237 36.1571C49.0788 36.1571 50.7152 35.3712 50.7152 32.6984V26.5155H47.1796V33.3278C47.1796 34.2703 46.8105 34.4809 46.1243 34.4809C45.491 34.4809 45.0684 34.2709 45.0684 33.3278V26.5155H41.5321ZM51.5064 36.0006H54.7785V30.132H54.8314L57.2061 36.0006H61.0587V26.5155H57.7859V32.3319H57.7337L55.4647 26.5155H51.5064V36.0006ZM65.3861 28.298H66.0729C67.4451 28.298 67.603 28.7173 67.603 31.2329C67.603 33.8 67.4451 34.2188 66.0729 34.2188H65.3861V28.298ZM61.8498 36.0006H66.9697C71.0864 36.0006 71.2971 33.7472 71.2971 31.2323C71.2971 28.7689 71.0871 26.5155 66.9697 26.5155H61.8498V36.0006ZM32.7188 25.1537H40.9516V23.1618H36.3072V21.2756H40.5296V19.3372H36.3072V17.7126H40.7931V15.7214H32.7188V25.1537ZM45.2269 17.5032H45.9124C47.2846 17.5032 47.4431 17.8697 47.4431 20.4375C47.4431 23.0053 47.2846 23.3725 45.9124 23.3725H45.2262L45.2269 17.5032ZM41.6906 25.1537H46.8098C50.9266 25.1537 51.1372 22.8996 51.1372 20.4369C51.1372 17.9741 50.9266 15.7207 46.8098 15.7207H41.6906V25.1537Z" fill="#C82E37"/>
<path fill-rule="evenodd" clip-rule="evenodd" d="M51.875 15.7209V21.9039C51.875 24.5767 53.5107 25.3626 56.4665 25.3626C59.4745 25.3626 61.1103 24.5767 61.1103 21.9039V15.7209H57.5753V22.5333C57.5753 23.4242 57.1533 23.6864 56.4672 23.6864C55.8339 23.6864 55.4119 23.4242 55.4119 22.5333V15.7209H51.875ZM67.6546 19.1268H71.0852V18.5502C71.0852 16.7162 69.8714 15.5109 66.6508 15.5109C63.0102 15.5109 61.8486 16.8206 61.8486 20.4364C61.8486 23.9473 62.6932 25.3619 66.6508 25.3619C68.9205 25.3619 71.1896 24.7339 71.1896 22.0604V21.3795H67.7589C67.7589 23.1607 67.5489 23.6851 66.6508 23.6851C65.5962 23.6851 65.4905 23.0042 65.4905 20.4364C65.4905 17.8687 65.5962 17.1878 66.6508 17.1878C67.3376 17.1878 67.6546 17.5021 67.6546 18.6024V19.1268ZM71.1374 25.1532H74.9372L75.3063 23.5279H78.1037L78.4715 25.1532H82.2191L78.9463 15.7203H74.4611L71.1374 25.1532ZM77.681 21.6417H75.7283L76.6786 17.6593H76.7308L77.681 21.6417ZM83.5399 25.1532H87.0749V17.8165H89.7665V15.7209H80.9004V17.8165H83.5399V25.1532ZM90.3992 25.1532H93.9355V15.7209H90.3992V25.1532ZM94.7279 20.4371C94.7279 24.0001 95.9404 25.3626 99.5823 25.3626C103.171 25.3626 104.437 24.0001 104.437 20.4371C104.437 16.9262 103.171 15.5116 99.5823 15.5116C95.9404 15.5109 94.7279 16.9262 94.7279 20.4371ZM98.3686 20.4371C98.3686 17.8693 98.4742 17.1884 99.5823 17.1884C100.637 17.1884 100.743 17.87 100.743 20.4371C100.743 23.0048 100.637 23.6858 99.5823 23.6858C98.4742 23.6858 98.3686 23.0048 98.3686 20.4371ZM104.912 25.1532H108.237V19.3368H108.291L110.613 25.1532H114.517V15.7209H111.192V21.5374H111.14L108.871 15.7209H104.912V25.1532ZM34.5118 14.3578H38.1009V7.02172H40.7391V4.92551H31.8736V7.02172H34.5118V14.3578ZM41.5309 14.3578H45.0665V10.4804H47.2305V14.3578H50.7662V4.92551H47.2305V8.38419H45.0665V4.92551H41.5309V14.3578ZM51.558 14.3578H59.7915V12.3673H55.0936V10.4804H59.316V8.54138H55.0936V6.91736H59.5795V4.92551H51.558V14.3578ZM16.0939 6.49734L12.8218 4.03524L11.8187 6.1308C13.1381 6.96954 14.0349 8.22701 14.5632 9.58948C15.9354 9.11793 17.5184 8.96075 18.9956 9.4323L19.9987 7.33609L15.9883 6.44516L16.0939 6.49734ZM19.8937 14.6728L20.632 15.0394L21.371 11.8429C21.5823 11.8957 21.793 11.7907 21.8986 11.5813C21.9514 11.4242 21.8986 11.2148 21.793 11.057L23.3765 7.6511L26.226 8.33202L17.9932 2.3584L8.01953 0L16.2524 5.97426L23.0602 7.59828L21.5301 10.9526C21.3188 10.8998 21.1081 11.0048 21.0025 11.2141C20.9496 11.3713 21.0025 11.6335 21.161 11.7379L19.1554 14.3578L19.8937 14.6728Z" fill="#0C0E0F"/>
<path fill-rule="evenodd" clip-rule="evenodd" d="M2.16406 47.8962H2.85084V46.0615H4.3281V45.4856H2.85084V44.3332H4.38093V43.8081H2.16406V47.8962ZM6.12234 48.0006C7.07261 48.0006 7.49459 47.319 7.49459 45.8528C7.49459 44.3853 7.07261 43.7038 6.12234 43.7038C5.11989 43.7038 4.75008 44.3853 4.75008 45.8528C4.75074 47.319 5.11989 48.0006 6.12234 48.0006ZM6.12234 47.4768C5.70036 47.4768 5.38338 47.2668 5.38338 45.8528C5.38338 44.4375 5.69971 44.2275 6.12234 44.2275C6.49149 44.2275 6.80847 44.4375 6.80847 45.8528C6.80847 47.2668 6.49214 47.4768 6.12234 47.4768ZM8.02223 47.8962H8.65553V46.1144H9.236C9.65798 46.1144 9.81647 46.3244 9.81647 46.7959C9.81647 47.0581 9.81647 47.3196 9.8693 47.5297C9.8693 47.7397 9.92213 47.844 9.97496 47.8962H10.7139C10.6083 47.844 10.5026 47.7397 10.5026 47.5818V46.7437C10.4498 46.1665 10.2391 45.9057 9.81647 45.9057V45.8535C10.2919 45.8013 10.5554 45.3806 10.5554 44.8575C10.5554 44.0716 10.08 43.8094 9.50015 43.8094H8.02223V47.8962ZM8.65553 45.6428V44.2797H9.236C9.65798 44.2797 9.8693 44.5419 9.8693 44.9612C9.8693 45.3806 9.60515 45.6428 9.18317 45.6428H8.65553ZM12.4553 47.8962H14.725V47.3725H13.0886V46.0615H14.5665V45.4856H13.0886V44.3332H14.6722V43.8081H12.4553V47.8962ZM14.83 47.8962H15.569L16.3079 46.4287L16.9941 47.8962H17.733L16.6771 45.8006L17.6802 43.8081H16.9941L16.3079 45.1713L15.6746 43.8081H14.9357L15.9381 45.8006L14.83 47.8962ZM19.9492 46.4287V46.5331C19.9492 46.8996 19.8964 47.4768 19.3153 47.4768C18.8405 47.4768 18.6292 47.1625 18.6292 45.8528C18.6292 44.4897 18.8405 44.2275 19.3153 44.2275C19.7908 44.1753 19.8964 44.6469 19.8964 45.0134V45.0656H20.5825V45.0134C20.5825 44.594 20.5297 43.7038 19.3159 43.7038C18.2607 43.7038 17.9437 44.3853 17.9437 45.8528C17.9437 47.319 18.26 48.0006 19.3159 48.0006C20.319 48.0006 20.5825 47.2668 20.5825 46.5331V46.4287H19.9492ZM21.0045 47.8962H23.3271V47.3725H21.6907V46.0615H23.1686V45.4856H21.6907V44.3332H23.2742V43.8081H21.0045V47.8962ZM23.6962 47.8962H25.9653V47.3725H24.3295V43.8081H23.6962V47.8962ZM26.2294 47.8962H28.4984V47.3725H26.8627V43.8081H26.2294V47.8962ZM28.8154 47.8962H31.1373V47.3725H29.5015V46.0615H30.9788V45.4856H29.5015V44.3332H31.0845V43.8081H28.8154V47.8962ZM31.5593 47.8962H32.1926V44.7519L33.407 47.8962H34.251V43.8081H33.6177V46.8474L32.4039 43.8081H31.5593V47.8962ZM36.7842 46.4287V46.5331C36.7842 46.8996 36.6785 47.4768 36.1509 47.4768C35.6754 47.4768 35.4119 47.1625 35.4119 45.8528C35.4119 44.4897 35.6754 44.2275 36.1509 44.2275C36.6257 44.1753 36.7313 44.6469 36.7313 45.0134V45.0656H37.4174V45.0134C37.4174 44.594 37.3118 43.7038 36.1509 43.7038C35.0956 43.7038 34.7786 44.3853 34.7786 45.8528C34.7786 47.319 35.0956 48.0006 36.1509 48.0006C37.1005 48.0006 37.4174 47.2668 37.4174 46.5331V46.4287H36.7842ZM37.8401 47.8962H40.1091V47.3725H38.5256V46.0615H40.0035V45.4856H38.5256V44.3332H40.1091V43.8081H37.8401V47.8962ZM41.9027 47.8962H42.5895V43.8081H41.9027V47.8962ZM43.17 47.8962H43.8033V44.7519L45.017 47.8962H45.8088V43.8081H45.1755V46.8474L43.9617 43.8081H43.17V47.8962ZM47.8137 47.8962H48.447V44.4897L49.2916 47.8962H49.8721L50.6639 44.4897H50.7167V47.8962H51.35V43.8081H50.2941L49.608 46.8474H49.5558L48.8696 43.8081H47.8137V47.8962ZM51.9305 47.8962H52.6166V43.8081H51.9305V47.8962ZM53.8832 46.3765L54.358 44.3332H54.4108L54.8857 46.3765H53.8832ZM52.8273 47.8962H53.5134L53.7769 46.9003H54.9907L55.2542 47.8962H55.9403L54.8322 43.8081H53.9882L52.8273 47.8962ZM56.1523 47.8962H56.7855V44.4897L57.6302 47.8962H58.2106L59.0553 44.4897V47.8962H59.6885V43.8081H58.6854L57.9471 46.8474L57.2075 43.8081H56.1523V47.8962ZM60.269 47.8962H60.9545V43.8081H60.3212L60.269 47.8962ZM61.4821 46.5331H63.0129V45.9572H61.4821V46.5331ZM64.2273 44.2797H64.7549C65.3361 44.2797 65.5461 44.7004 65.5461 45.8528C65.5461 47.0581 65.3361 47.4247 64.7549 47.4247H64.2273V44.2797ZM63.5405 47.8962H64.7543C66.0737 47.8962 66.2322 47.0581 66.2322 45.8528C66.2322 44.6462 66.0744 43.8081 64.7543 43.8081H63.5405V47.8962ZM67.446 46.3765L67.9214 44.3332L68.3969 46.3765H67.446ZM66.3379 47.8962H67.0233L67.2881 46.9003H68.5541L68.7654 47.8962H69.5043L68.3962 43.8081H67.5516L66.3379 47.8962ZM70.4011 44.2797H70.9288C71.5099 44.2797 71.7212 44.7004 71.7212 45.8528C71.7212 47.0581 71.4564 47.4247 70.9288 47.4247H70.4011V44.2797ZM69.715 47.8962H70.8766C72.1947 47.8962 72.3545 47.0581 72.3545 45.8528C72.3545 44.6462 72.1954 43.8081 70.8766 43.8081H69.715V47.8962ZM72.8815 47.8962H75.204V47.3725H73.5683V46.0615H75.0455V45.4856H73.5683V44.3332H75.1518V43.8081H72.8815V47.8962ZM77.6837 44.2797H78.1064C78.634 44.2797 78.7918 44.5419 78.7918 45.0134C78.7918 45.5384 78.4749 45.695 78.1064 45.695H77.6837V44.2797ZM76.9976 47.8962H77.6844V46.22H78.2655C79.0045 46.22 79.4793 45.7472 79.4793 45.0134C79.4793 44.2797 79.1101 43.8081 78.3177 43.8081H76.9983L76.9976 47.8962ZM79.795 43.8081V46.6909C79.795 47.6334 80.2704 48.0006 81.0609 48.0006C81.8533 48.0006 82.3281 47.634 82.3281 46.6909V43.8081H81.6948V46.7431C81.6948 47.2668 81.4835 47.4768 81.0602 47.4768C80.6911 47.4768 80.4804 47.2668 80.4804 46.7431V43.8081H79.795ZM83.5947 45.5378V44.279H84.0702C84.4394 44.279 84.757 44.3847 84.757 44.9084C84.757 45.275 84.5457 45.5378 84.1224 45.5378H83.5947ZM83.5947 47.4247V46.0094H84.228C84.5972 46.0094 84.8613 46.2715 84.8613 46.6909C84.8613 47.1625 84.6513 47.4247 84.228 47.4247H83.5947ZM82.908 47.8962H84.2274C85.0198 47.8962 85.5468 47.4768 85.5468 46.7953C85.5468 46.1137 85.2298 45.8006 84.8079 45.7472C85.177 45.5906 85.389 45.2756 85.389 44.8047C85.389 44.071 84.9135 43.8088 84.2809 43.8088H82.908V47.8962ZM85.9166 47.8962H88.1857V47.3725H86.6021V43.8081H85.9166V47.8962ZM88.5026 47.8962H89.1894V43.8081H88.5026V47.8962ZM91.6698 46.4287V46.5331C91.6698 46.8996 91.6163 47.4768 91.0352 47.4768C90.561 47.4768 90.3497 47.1625 90.3497 45.8528C90.3497 44.4897 90.561 44.2275 91.0352 44.2275C91.5106 44.1753 91.6698 44.6469 91.6698 45.0134V45.0656H92.3031V45.0134C92.3031 44.594 92.2496 43.7038 91.0358 43.7038C89.9812 43.7038 89.6636 44.3853 89.6636 45.8528C89.6636 47.319 89.9806 48.0006 91.0358 48.0006C92.0396 48.0006 92.3553 47.2668 92.3553 46.5331V46.4287H91.6698ZM93.9382 46.6387V46.7431C93.9382 47.319 94.1495 48.0006 95.2041 48.0006C96.0487 48.0006 96.577 47.634 96.577 46.7431C96.577 46.1659 96.3122 45.8528 95.7324 45.6422L95.3098 45.4856C94.8343 45.3278 94.6765 45.1713 94.6765 44.8041C94.6765 44.3847 94.94 44.2269 95.2041 44.2269C95.6268 44.2269 95.7852 44.4369 95.7852 44.8041V44.9084H96.472V44.8041C96.472 44.3847 96.3664 43.7031 95.3104 43.7031C94.5193 43.7031 93.9923 44.1225 93.9923 44.9084C93.9923 45.4856 94.2558 45.8 94.8891 46.0094L95.3104 46.1659C95.6796 46.2715 95.8916 46.4803 95.8916 46.8996C95.8916 47.214 95.7337 47.4768 95.3104 47.4768C94.835 47.4768 94.625 47.2668 94.625 46.7431V46.6387H93.9382ZM98.9524 46.4287V46.5331C98.9524 46.8996 98.8989 47.4768 98.3191 47.4768C97.8436 47.4768 97.6323 47.1625 97.6323 45.8528C97.6323 44.4897 97.8436 44.2275 98.3191 44.2275C98.7946 44.1753 98.9524 44.6469 98.9524 45.0134V45.0656H99.5857V45.0134C99.5857 44.594 99.5322 43.7038 98.3197 43.7038C97.2638 43.7038 96.9475 44.3853 96.9475 45.8528C96.9475 47.319 97.2632 48.0006 98.3197 48.0006C99.3222 48.0006 99.6379 47.2668 99.6379 46.5331V46.4287H98.9524ZM100.007 47.8962H100.694V46.0094H101.908V47.8962H102.593V43.8081H101.908V45.4321H100.694V43.8081H100.007V47.8962ZM104.494 48.0006C105.444 48.0006 105.866 47.319 105.866 45.8528C105.866 44.3853 105.445 43.7038 104.494 43.7038C103.543 43.7038 103.121 44.3853 103.121 45.8528C103.121 47.319 103.543 48.0006 104.494 48.0006ZM104.494 47.4768C104.124 47.4768 103.807 47.2668 103.807 45.8528C103.807 44.4375 104.124 44.2275 104.494 44.2275C104.915 44.2275 105.233 44.4375 105.233 45.8528C105.233 47.2668 104.915 47.4768 104.494 47.4768ZM107.659 48.0006C108.663 48.0006 109.032 47.319 109.032 45.8528C109.032 44.3853 108.663 43.7038 107.659 43.7038C106.71 43.7038 106.287 44.3853 106.287 45.8528C106.287 47.319 106.71 48.0006 107.659 48.0006ZM107.659 47.4768C107.29 47.4768 106.973 47.2668 106.973 45.8528C106.973 44.4375 107.289 44.2275 107.659 44.2275C108.081 44.2275 108.399 44.4375 108.399 45.8528C108.399 47.2668 108.082 47.4768 107.659 47.4768ZM109.506 47.8962H111.776V47.3725H110.193V43.8081H109.506V47.8962ZM111.988 46.6387V46.7431C111.988 47.319 112.198 48.0006 113.253 48.0006C114.098 48.0006 114.626 47.634 114.626 46.7431C114.626 46.1659 114.362 45.8528 113.781 45.6422L113.306 45.4856C112.884 45.3278 112.672 45.1713 112.672 44.8041C112.672 44.3847 112.989 44.2269 113.253 44.2269C113.675 44.2269 113.835 44.4369 113.835 44.8041V44.9084H114.52V44.8041C114.52 44.3847 114.414 43.7031 113.306 43.7031C112.567 43.7031 112.04 44.1225 112.04 44.9084C112.04 45.4856 112.304 45.8 112.885 46.0094L113.36 46.1659C113.73 46.2715 113.94 46.4803 113.94 46.8996C113.94 47.214 113.73 47.4768 113.307 47.4768C112.833 47.4768 112.621 47.2668 112.621 46.7431V46.6387H111.988Z" fill="#0C0E0F"/>
</svg>
