<svg width="112" height="56" viewBox="0 0 112 56" fill="none" xmlns="http://www.w3.org/2000/svg">
<path d="M4.82392 37.9106C3.53511 37.9106 2.62405 38.9772 2.62405 40.5326C2.62405 42.1103 3.53511 43.1991 4.82392 43.1991C5.46832 43.1991 6.00162 43.0214 6.44604 42.6658C6.82379 42.3548 7.3571 42.3103 7.75707 42.5992L7.80151 42.6214C8.40148 43.0658 8.44592 43.9991 7.86818 44.4657C7.49042 44.7768 7.02378 45.0435 6.53492 45.2213C2.82404 46.5101 -0.864629 42.9325 0.179752 38.9549C0.735273 36.8439 2.42406 35.5107 4.73503 35.5107C5.91274 35.5107 6.9349 35.844 7.73485 36.4662C8.33481 36.9328 8.35704 37.8883 7.73485 38.3328L7.66819 38.3772C7.29043 38.6661 6.77935 38.6439 6.37938 38.355C5.95718 38.0661 5.4461 37.8883 4.82392 37.9106ZM20.0008 40.5104C20.0008 43.488 18.0009 45.5101 15.0455 45.5101C12.0679 45.5101 10.068 43.488 10.068 40.5104C10.068 37.5106 12.0679 35.5107 15.0455 35.5107C18.0009 35.5329 20.0008 37.5106 20.0008 40.5104ZM12.7123 40.5549C12.7123 42.1548 13.6678 43.2436 15.0455 43.2436C16.401 43.2436 17.3565 42.1548 17.3565 40.5549C17.3565 38.9549 16.401 37.8661 15.0455 37.8661C13.6678 37.8439 12.7123 38.9549 12.7123 40.5549ZM31.5779 33.2886L31.5779 44.0213C31.5779 44.7991 30.9779 45.4212 30.2668 45.4212C29.5335 45.4212 28.9558 44.7991 28.9558 44.0213L28.9558 43.9769C28.3114 44.9768 27.3114 45.5323 26.0226 45.5323C23.4006 45.5323 21.6451 43.5102 21.6451 40.4882C21.6451 37.5106 23.3561 35.5107 25.956 35.5107C27.267 35.5107 28.2892 36.0662 28.9558 37.0662L28.9558 33.3108C28.9558 32.5331 29.5558 31.9109 30.2668 31.9109C30.9779 31.8887 31.5779 32.5331 31.5779 33.2886ZM28.9336 40.5549C28.9336 38.9549 27.9781 37.8439 26.6226 37.8439C25.2449 37.8439 24.2894 38.9772 24.2894 40.5549C24.3116 42.1548 25.2449 43.2658 26.6226 43.2658C28.0003 43.2658 28.9336 42.1548 28.9336 40.5549ZM42.2883 42.6436L42.5105 42.8658C42.9105 43.2436 42.8883 43.9324 42.4661 44.288C41.5106 45.1101 40.3551 45.5323 39.0218 45.5323C36.0887 45.5323 34.0888 43.5325 34.0888 40.5326C34.0888 37.5772 35.9331 35.5329 38.8441 35.5329C41.2439 35.5107 42.9105 36.8884 43.3105 39.1994C43.3994 39.666 43.1105 40.1327 42.6661 40.2438L38.4663 41.4215C37.6442 41.6437 37.5553 42.9103 38.3774 43.1991C38.6219 43.288 38.9107 43.3325 39.1996 43.3325C39.8662 43.3325 40.5329 43.088 41.1106 42.5992C41.4884 42.3325 41.9772 42.3325 42.2883 42.6436ZM37.0442 40.066L40.6218 39.0438C40.7329 38.9994 40.7995 38.8661 40.7551 38.7549C40.444 37.9772 39.8218 37.5995 39.0218 37.5995C37.7997 37.5995 36.9775 38.3772 36.7998 39.8438C36.7775 39.9771 36.9109 40.1104 37.0442 40.066ZM54.6209 37.5328C53.9987 37.5328 53.5543 37.755 53.5543 38.2661C53.5543 39.7327 58.4429 38.9994 58.4207 42.4436C58.4207 44.4435 56.7541 45.5101 54.6431 45.5101C53.5099 45.5101 52.3766 45.2435 51.4433 44.7102C50.9767 44.4435 50.7767 43.8213 50.9989 43.3102C51.2433 42.7769 51.8433 42.5547 52.3544 42.8214C53.1321 43.2436 53.9765 43.4658 54.7098 43.4658C55.3764 43.4658 55.8875 43.2214 55.8875 42.7103C55.8875 41.1548 51.0878 41.977 51.0878 38.5327C51.0878 36.5106 52.7321 35.4662 54.732 35.4662C55.6431 35.4662 56.5541 35.6662 57.3985 36.044C57.9318 36.2884 58.1762 36.955 57.9096 37.4883L57.8874 37.5328C57.6429 38.0439 57.0874 38.2439 56.5986 38.0217C55.8653 37.7328 55.1764 37.5328 54.6209 37.5328ZM64.9314 37.9106C63.6426 37.9106 62.7315 38.9772 62.7315 40.5326C62.7315 42.1103 63.6426 43.1991 64.9314 43.1991C65.5758 43.1991 66.1091 43.0214 66.5535 42.6658C66.9313 42.3547 67.4646 42.3103 67.8645 42.5992L67.909 42.6214C68.509 43.0658 68.5534 43.9991 67.9756 44.4657C67.5979 44.7768 67.1312 45.0435 66.6424 45.2213C62.9315 46.5101 59.2428 42.9325 60.2872 38.9549C60.8428 36.8439 62.5315 35.5107 64.8425 35.5107C66.0202 35.5107 67.0424 35.844 67.8423 36.4662C68.4423 36.9328 68.4645 37.8883 67.8423 38.3327L67.7757 38.3772C67.3979 38.6661 66.8868 38.6438 66.4868 38.355C66.0647 38.0661 65.5536 37.8883 64.9314 37.9106ZM80.5971 39.2438L80.5971 43.9991C80.5971 44.7768 79.9971 45.399 79.2639 45.399C78.5306 45.399 77.9306 44.7768 77.9306 43.9991L77.9306 40.066C77.9306 38.8216 77.2418 38.0661 76.1085 38.0661C74.7752 38.0883 73.9753 39.1327 73.9753 40.5771L73.9753 43.9991C73.9753 44.7768 73.3753 45.399 72.642 45.399C71.9087 45.399 71.3088 44.7768 71.3088 43.9991L71.3088 33.2886C71.3088 32.5109 71.9087 31.8887 72.642 31.8887C73.3753 31.8887 73.9753 32.5109 73.9753 33.2886L73.9753 37.3328C74.6197 36.1107 75.7307 35.5107 77.1751 35.4885C79.2861 35.5107 80.5971 36.955 80.5971 39.2438ZM92.7075 40.5104C92.7075 43.488 90.7076 45.5101 87.7522 45.5101C84.7746 45.5101 82.7748 43.488 82.7748 40.5104C82.7748 37.5106 84.7746 35.5107 87.7522 35.5107C90.7076 35.5329 92.7075 37.5106 92.7075 40.5104ZM85.419 40.5548C85.419 42.1548 86.3745 43.2436 87.7522 43.2436C89.1077 43.2436 90.0632 42.1548 90.0632 40.5548C90.0632 38.9549 89.1077 37.8661 87.7522 37.8661C86.3745 37.8439 85.419 38.9549 85.419 40.5548ZM104.285 40.5104C104.285 43.488 102.285 45.5101 99.3293 45.5101C96.3517 45.5101 94.3518 43.488 94.3518 40.5104C94.3518 37.5106 96.3517 35.5107 99.3293 35.5107C102.285 35.5329 104.285 37.5106 104.285 40.5104ZM96.9961 40.5548C96.9961 42.1548 97.9516 43.2436 99.3293 43.2436C100.685 43.2436 101.64 42.1548 101.64 40.5548C101.64 38.9549 100.685 37.8661 99.3293 37.8661C97.9516 37.8439 96.9961 38.9549 96.9961 40.5548ZM110.018 43.0436C110.529 43.0436 110.995 43.488 111.04 44.0213L111.062 44.288C111.129 44.8213 110.795 45.2879 110.306 45.4212C109.995 45.5101 109.684 45.5323 109.395 45.5323C107.84 45.5323 106.529 44.4435 106.529 42.1548L106.529 32.933C106.529 32.3553 106.973 31.8887 107.507 31.8887L108.173 31.8887C108.707 31.8887 109.151 32.3553 109.151 32.933L109.151 41.977C109.195 42.7103 109.551 43.0436 110.018 43.0436Z" fill="#454446"/>
<path d="M49.4429 28.7563C47.5764 27.9786 46.6875 25.8676 47.4653 24.0233L56.798 2.22449C57.598 0.380149 59.7534 -0.486472 61.62 0.291262C63.4865 1.069 64.3753 3.17999 63.5976 5.02433L54.2648 26.8231C53.4871 28.6675 51.3095 29.5341 49.4429 28.7563Z" fill="url(#paint0_linear_261_876)"/>
<path d="M27.5978 17.0907C26.1534 15.6908 26.1534 13.402 27.5756 11.9799L38.6193 1.0694C40.0637 -0.352742 42.3969 -0.352744 43.819 1.04718C45.2634 2.4471 45.2634 4.73586 43.8412 6.158L32.7975 17.0685C31.3753 18.4906 29.0421 18.5129 27.5978 17.0907Z" fill="url(#paint1_linear_261_876)"/>
<path d="M43.8412 22.8681L35.7084 14.8463L35.1751 14.3353C33.9085 12.8687 31.2642 8.35782 38.6193 1.06933L27.5978 11.9576C26.1534 13.3575 26.1534 15.6463 27.5756 17.0684L38.6193 27.9789C40.0637 29.4011 42.3969 29.4011 43.819 28.0012C45.2634 26.579 45.2634 24.2903 43.8412 22.8681Z" fill="url(#paint2_linear_261_876)"/>
<path d="M83.487 11.9583C84.9313 13.3582 84.9313 15.647 83.5092 17.0691L72.4654 27.9796C71.0211 29.4018 68.6879 29.4018 67.2658 28.0019C65.8214 26.6019 65.8214 24.3132 67.2435 22.891L78.2873 11.9805C79.7094 10.5584 82.0426 10.5584 83.487 11.9583Z" fill="url(#paint3_linear_261_876)"/>
<path d="M67.2435 6.18023L75.3764 14.202L75.9097 14.7131C77.1763 16.1797 79.8205 20.6905 72.4654 27.979L83.487 17.0907C84.9313 15.6908 84.9313 13.402 83.5092 11.9799L72.4654 1.0694C71.0211 -0.352741 68.6879 -0.352743 67.2657 1.04718C65.8214 2.46932 65.8214 4.75808 67.2435 6.18023Z" fill="url(#paint4_linear_261_876)"/>
<path opacity="0.8" d="M21.3339 49.6004L21.3339 54.4668C21.3339 54.5557 21.2672 54.6223 21.1784 54.6223L21.0006 54.6223C20.9117 54.6223 20.845 54.5557 20.845 54.4668L20.845 54.3557C20.845 54.2001 20.6673 54.1335 20.5562 54.2446C20.2895 54.5112 19.9118 54.6668 19.4896 54.6668C18.4896 54.6668 17.8008 53.889 17.8008 52.8002C17.8008 51.7114 18.4896 50.9336 19.4673 50.9336C19.9118 50.9336 20.2673 51.0892 20.5562 51.3558C20.6673 51.4669 20.845 51.3781 20.845 51.2447L20.845 49.6226C20.845 49.5337 20.9117 49.4671 21.0006 49.4671L21.1784 49.4671C21.2672 49.4226 21.3339 49.4893 21.3339 49.6004ZM20.8228 52.778C20.8228 51.9558 20.2895 51.3781 19.5562 51.3781C18.8229 51.3781 18.2896 51.9558 18.2896 52.778C18.2896 53.6002 18.8229 54.1779 19.5562 54.1779C20.3117 54.1779 20.8228 53.6002 20.8228 52.778ZM26.0225 53.7557C26.1114 53.8446 26.1114 53.9779 26.0225 54.0668C25.667 54.4668 25.2226 54.6445 24.7115 54.6445C23.6671 54.6445 22.9338 53.889 22.9338 52.778C22.9338 51.7114 23.6227 50.9336 24.6448 50.9114C25.4448 50.9114 26.0225 51.3781 26.2003 52.1558C26.2225 52.2669 26.1781 52.378 26.0669 52.4224L23.756 53.2668C23.6227 53.3113 23.5782 53.4446 23.6449 53.5779C23.8671 53.9779 24.2448 54.2223 24.7337 54.2223C25.1114 54.2223 25.4225 54.089 25.7114 53.8001C25.8003 53.6668 25.9336 53.6668 26.0225 53.7557ZM23.4671 52.7558L23.4671 52.9113L25.5114 52.1558C25.6448 52.1113 25.6892 51.9558 25.6225 51.8225C25.4225 51.5114 25.0892 51.3558 24.6893 51.3558C23.956 51.3781 23.4671 51.8891 23.4671 52.7558ZM27.7557 51.0225L28.7112 53.7335C28.7557 53.8446 28.9112 53.8446 28.9557 53.7335L29.9112 51.0225C29.9334 50.9781 29.9778 50.9336 30.0223 50.9336L30.2667 50.9336C30.3556 50.9336 30.4222 51.0225 30.3778 51.1114L29.1334 54.5334C29.1112 54.5779 29.0668 54.6223 29.0223 54.6223L28.6668 54.6223C28.6223 54.6223 28.5557 54.6001 28.5557 54.5334L27.2669 51.1114C27.2447 51.0225 27.2891 50.9336 27.378 50.9336L27.6446 50.9336C27.6891 50.9336 27.7335 50.9781 27.7557 51.0225ZM34.3553 53.7557C34.4442 53.8446 34.4442 53.9779 34.3553 54.0668C33.9998 54.4668 33.5554 54.6445 33.0443 54.6445C31.9999 54.6445 31.2666 53.889 31.2666 52.778C31.2666 51.7114 31.9555 50.9336 32.9776 50.9114C33.7776 50.9114 34.3553 51.3781 34.5331 52.1558C34.5553 52.2669 34.5109 52.378 34.3998 52.4224L32.0888 53.2668C31.9555 53.3113 31.911 53.4446 31.9777 53.5779C32.1999 53.9779 32.5777 54.2223 33.0665 54.2223C33.4443 54.2223 33.7554 54.089 34.0442 53.8001C34.1331 53.6668 34.2665 53.6668 34.3553 53.7557ZM31.7999 52.7558L31.7999 52.9113L33.8443 52.1558C33.9776 52.1113 34.022 51.9558 33.9554 51.8225C33.7554 51.5114 33.4221 51.3558 33.0221 51.3558C32.2888 51.3781 31.7999 51.8891 31.7999 52.7558ZM36.9107 54.1335C36.9552 54.1335 36.9996 54.1335 37.0441 54.1112C37.1774 54.0668 37.3107 54.1335 37.3329 54.2668L37.3329 54.289C37.3552 54.3779 37.3107 54.4668 37.2218 54.5112C37.0663 54.6001 36.9107 54.6445 36.7774 54.6445C36.3552 54.6445 36.0663 54.3334 36.0663 53.7335L36.0663 49.6226C36.0663 49.5115 36.1552 49.4226 36.2663 49.4226L36.3552 49.4226C36.4663 49.4226 36.5552 49.5115 36.5552 49.6226L36.5552 53.6668C36.5552 54.0001 36.6885 54.1335 36.9107 54.1335ZM41.8882 52.778C41.8882 53.8668 41.1549 54.6445 40.1105 54.6445C39.0662 54.6445 38.3329 53.8668 38.3329 52.778C38.3329 51.6892 39.0662 50.9114 40.1105 50.9114C41.1549 50.9114 41.8882 51.6892 41.8882 52.778ZM38.8662 52.778C38.8662 53.6002 39.3773 54.1557 40.1105 54.1557C40.8438 54.1557 41.3549 53.6002 41.3549 52.778C41.3549 51.9558 40.8216 51.4003 40.1105 51.4003C39.3773 51.4003 38.8662 51.9558 38.8662 52.778ZM47.0212 52.778C47.0212 53.8668 46.3546 54.6445 45.3547 54.6445C44.888 54.6445 44.5103 54.489 44.2436 54.2001C44.1547 54.1112 43.9992 54.1779 43.9992 54.3112L43.9992 55.8445C43.9992 55.9334 43.9325 56 43.8437 56L43.6214 56C43.5326 56 43.4659 55.9334 43.4659 55.8445L43.4659 51.0892C43.4659 51.0003 43.5326 50.9336 43.6214 50.9336L43.8437 50.9336C43.9325 50.9336 43.9992 51.0003 43.9992 51.0892L43.9992 51.2669C43.9992 51.4003 44.1547 51.4669 44.2436 51.3781C44.5103 51.0892 44.888 50.9336 45.3324 50.9336C46.3324 50.9114 47.0212 51.6892 47.0212 52.778ZM46.5102 52.778C46.5102 51.978 45.9991 51.4003 45.2658 51.4003C44.5325 51.4003 44.0214 51.978 44.0214 52.778C44.0214 53.6002 44.5325 54.1557 45.2658 54.1557C45.9991 54.1557 46.5102 53.5779 46.5102 52.778ZM54.1541 50.9336C54.2652 50.9336 54.3319 51.0225 54.3319 51.1114L54.3319 54.2001C54.3319 55.3112 53.6875 55.9778 52.6431 55.9778C52.1543 55.9556 51.6654 55.7778 51.3099 55.4667C51.2432 55.4223 51.2432 55.3334 51.2654 55.2667L51.2876 55.2223C51.3321 55.1112 51.4654 55.0667 51.5543 55.1556C51.8432 55.3778 52.2209 55.5112 52.5987 55.5334C53.3542 55.5334 53.8208 55.0445 53.8208 54.2223L53.8208 53.5335C53.5986 54.0446 53.1542 54.3112 52.5542 54.3112C51.6876 54.3112 51.1543 53.7557 51.1543 52.8669L51.1543 51.1114C51.1543 51.0003 51.2432 50.9336 51.3321 50.9336L51.4876 50.9336C51.5987 50.9336 51.6654 51.0225 51.6654 51.1114L51.6654 52.7335C51.6654 53.4002 52.0432 53.7779 52.6653 53.7779C53.3986 53.7557 53.843 53.2224 53.843 52.3558L53.843 51.1114C53.843 51.0003 53.9319 50.9336 54.0208 50.9336L54.1541 50.9336ZM59.3538 52.778C59.3538 53.8668 58.6205 54.6445 57.5761 54.6445C56.5318 54.6445 55.7985 53.8668 55.7985 52.778C55.7985 51.6892 56.5318 50.9114 57.5761 50.9114C58.6205 50.9114 59.3538 51.6892 59.3538 52.778ZM56.3318 52.778C56.3318 53.6002 56.8429 54.1557 57.5761 54.1557C58.3094 54.1557 58.8205 53.6002 58.8205 52.778C58.8205 51.9558 58.2872 51.4003 57.5761 51.4003C56.8651 51.4003 56.3318 51.9558 56.3318 52.778ZM63.9535 51.1558L63.9535 54.4223C63.9535 54.5334 63.8647 54.6223 63.7536 54.6223L63.6647 54.6223C63.5536 54.6223 63.4647 54.5334 63.4647 54.4223L63.4647 53.9779C63.4647 53.9335 63.4202 53.9113 63.398 53.9557C63.1536 54.4223 62.7092 54.6445 62.1537 54.6445C61.3315 54.6445 60.8426 54.089 60.8426 53.2002L60.8426 51.1336C60.8426 51.0225 60.9315 50.9336 61.0426 50.9336L61.1315 50.9336C61.2426 50.9336 61.3315 51.0225 61.3315 51.1336L61.3315 53.0446C61.3315 53.7113 61.687 54.089 62.287 54.089C62.998 54.0668 63.4425 53.5113 63.4425 52.7113L63.4425 51.1114C63.4425 51.0003 63.5313 50.9114 63.6424 50.9114L63.7313 50.9114C63.8647 50.9336 63.9535 51.0225 63.9535 51.1558ZM67.6422 51.0225L67.6422 51.3336C67.6422 51.4003 67.5978 51.4447 67.5311 51.4447C66.8645 51.4892 66.4423 51.9558 66.3978 52.6447L66.3978 54.489C66.3978 54.5557 66.3534 54.6001 66.2867 54.6001L65.9979 54.6001C65.9312 54.6001 65.8868 54.5557 65.8868 54.489L65.8868 51.0225C65.8868 50.9559 65.9312 50.9114 65.9979 50.9114L66.2867 50.9114C66.3534 50.9114 66.3978 50.9559 66.3978 51.0225L66.3978 51.4669C66.3978 51.5336 66.4867 51.5558 66.5089 51.4892C66.7312 51.1336 67.0867 50.9114 67.5311 50.867C67.5978 50.9114 67.6422 50.9781 67.6422 51.0225ZM72.1086 50.5337L72.1086 50.867C72.1086 50.9559 72.1753 51.0447 72.2864 51.0447L72.9308 51.0447C73.0197 51.0447 73.1085 51.1114 73.1085 51.2225L73.1085 51.3114C73.1085 51.4003 73.0419 51.4892 72.9308 51.4892L72.2864 51.4892C72.1975 51.4892 72.1086 51.5558 72.1086 51.6669L72.1086 54.4668C72.1086 54.5557 72.0419 54.6445 71.9308 54.6445L71.7531 54.6445C71.6642 54.6445 71.5753 54.5779 71.5753 54.4668L71.5753 50.6225C71.5753 49.8226 72.1086 49.4004 72.6863 49.4004C72.9086 49.4004 73.1085 49.4671 73.3085 49.5559C73.3752 49.6004 73.4196 49.6893 73.3752 49.7781L73.3085 49.9115C73.2641 50.0004 73.1752 50.0226 73.0863 49.9781C72.953 49.9115 72.8197 49.8892 72.7086 49.867C72.3753 49.867 72.1086 50.1115 72.1086 50.5337ZM77.3305 51.1336L77.3305 54.4223C77.3305 54.5334 77.2416 54.6223 77.1305 54.6223L76.9972 54.6223C76.8861 54.6223 76.7972 54.5334 76.7972 54.4223L76.7972 54.2001C76.7972 54.089 76.6639 54.0446 76.5972 54.1335C76.3306 54.4668 75.9528 54.6445 75.464 54.6445C74.6418 54.6445 74.1529 54.089 74.1529 53.2002L74.1529 51.1336C74.1529 51.0225 74.2418 50.9336 74.3529 50.9336L74.4862 50.9336C74.5973 50.9336 74.6862 51.0225 74.6862 51.1336L74.6862 53.0668C74.6862 53.7335 75.0418 54.1112 75.6417 54.1112C76.3528 54.089 76.7972 53.5335 76.7972 52.7335L76.7972 51.1114C76.7972 51.0003 76.8861 50.9114 76.9972 50.9114L77.1305 50.9114C77.2416 50.9336 77.3305 51.0225 77.3305 51.1336ZM80.797 54.2223C80.8192 54.3112 80.797 54.4001 80.7303 54.4445C80.5081 54.5779 80.2859 54.6445 80.0637 54.6445C79.5304 54.6445 79.1526 54.2446 79.1526 53.4668L79.1526 50.267C79.1526 50.1781 79.2415 50.0892 79.3304 50.0892L79.4859 50.0892C79.5748 50.0892 79.6637 50.1781 79.6637 50.267L79.6637 50.867C79.6637 50.9559 79.7526 51.0447 79.8415 51.0447L80.597 51.0447C80.6859 51.0447 80.7747 51.1336 80.7747 51.2225L80.7747 51.2892C80.7747 51.3781 80.6859 51.4669 80.597 51.4669L79.8415 51.4669C79.7526 51.4669 79.6637 51.5558 79.6637 51.6447L79.6637 53.3557C79.6637 53.889 79.8192 54.1335 80.1303 54.1335C80.2414 54.1335 80.3748 54.089 80.5081 54.0446C80.597 54.0001 80.7081 54.0446 80.7525 54.1335L80.797 54.2223ZM85.3078 51.1114L85.3078 54.4223C85.3078 54.5334 85.2189 54.6001 85.13 54.6001L84.9745 54.6001C84.8634 54.6001 84.7967 54.5112 84.7967 54.4223L84.7967 54.1557C84.7967 54.0668 84.6634 54.0223 84.619 54.089C84.3523 54.4445 83.9745 54.6001 83.4857 54.6001C82.6635 54.6001 82.1747 54.0446 82.1747 53.1557L82.1747 51.067C82.1747 50.9559 82.2635 50.8892 82.3524 50.8892L82.508 50.8892C82.6191 50.8892 82.6857 50.9781 82.6857 51.067L82.6857 53.0224C82.6857 53.689 83.0413 54.0668 83.6412 54.0668C84.3523 54.0446 84.7967 53.489 84.7967 52.6891L84.7967 51.067C84.7967 50.9559 84.8856 50.8892 84.9745 50.8892L85.13 50.8892C85.2189 50.9336 85.3078 51.0225 85.3078 51.1114ZM88.9965 51.1114L88.9965 51.2892C88.9965 51.3781 88.9298 51.4447 88.8409 51.4669C88.1965 51.5114 87.7965 51.978 87.7521 52.6669L87.7521 54.4445C87.7521 54.5334 87.6854 54.6223 87.5743 54.6223L87.3966 54.6223C87.3077 54.6223 87.2188 54.5556 87.2188 54.4445L87.2188 51.1114C87.2188 51.0225 87.2855 50.9336 87.3966 50.9336L87.5743 50.9336C87.6632 50.9336 87.7521 51.0003 87.7521 51.1114L87.7521 51.4447C87.7521 51.5336 87.8632 51.5558 87.9076 51.4892C88.1299 51.1781 88.4187 50.9781 88.8187 50.9336C88.9076 50.9114 88.9965 51.0003 88.9965 51.1114ZM93.0851 53.7557C93.174 53.8446 93.174 53.9779 93.1073 54.0668C92.7518 54.4668 92.3074 54.6445 91.7963 54.6445C90.7519 54.6445 90.0186 53.889 90.0186 52.778C90.0186 51.7114 90.7075 50.9336 91.7296 50.9114C92.5296 50.9114 93.1296 51.378 93.2851 52.1558C93.3073 52.2669 93.2629 52.378 93.1518 52.4002L90.8186 53.2446C90.7075 53.2891 90.6408 53.4224 90.7075 53.5335C90.9297 53.9335 91.3074 54.1779 91.7963 54.1779C92.1741 54.1779 92.4852 54.0446 92.774 53.7557C92.8629 53.6668 92.9962 53.6668 93.0851 53.7557ZM90.5297 52.7558L90.5297 52.9113L92.574 52.1558C92.7074 52.1113 92.7518 51.9558 92.6851 51.8447C92.4851 51.5336 92.1518 51.378 91.7519 51.378C91.0186 51.378 90.5297 51.8891 90.5297 52.7558Z" fill="#454446"/>
<defs>
<linearGradient id="paint0_linear_261_876" x1="35.616" y1="60.0124" x2="58.4023" y2="7.9698" gradientUnits="userSpaceOnUse">
<stop stop-color="#120A34"/>
<stop offset="0.488" stop-color="#2E0B7E"/>
<stop offset="1" stop-color="#3A4FCF"/>
</linearGradient>
<linearGradient id="paint1_linear_261_876" x1="24.0271" y1="20.7123" x2="43.4471" y2="1.35703" gradientUnits="userSpaceOnUse">
<stop stop-color="#120A34"/>
<stop offset="0.488" stop-color="#2E0B7E"/>
<stop offset="1" stop-color="#3A4FCF"/>
</linearGradient>
<linearGradient id="paint2_linear_261_876" x1="31.4524" y1="7.42298" x2="48.6379" y2="24.6084" gradientUnits="userSpaceOnUse">
<stop stop-color="#08C8F6"/>
<stop offset="0.999" stop-color="#4D5DFB"/>
</linearGradient>
<linearGradient id="paint3_linear_261_876" x1="87.0532" y1="8.34296" x2="67.633" y2="27.6985" gradientUnits="userSpaceOnUse">
<stop stop-color="#120A34"/>
<stop offset="0.488" stop-color="#2E0B7E"/>
<stop offset="1" stop-color="#3A4FCF"/>
</linearGradient>
<linearGradient id="paint4_linear_261_876" x1="79.6314" y1="21.6227" x2="62.446" y2="4.43707" gradientUnits="userSpaceOnUse">
<stop stop-color="#08C8F6"/>
<stop offset="0.999" stop-color="#4D5DFB"/>
</linearGradient>
</defs>
</svg>
