<svg width="146" height="44" viewBox="0 0 146 44" fill="none" xmlns="http://www.w3.org/2000/svg">
<path fill-rule="evenodd" clip-rule="evenodd" d="M132.74 8.36621C131.958 8.36621 131.792 8.73874 131.792 9.31287V9.60409H132.907V10.7582H131.792V15.9934H130.102V10.7582H129.401V9.60409H130.102V9.15108C130.102 7.87173 130.926 7.17066 132.329 7.17066C132.617 7.17066 132.823 7.17066 133.069 7.21297V8.36704L132.74 8.36621ZM143.301 35.3281V27.452C143.301 26.463 142.763 25.6383 141.446 25.6383C140.705 25.6383 140.167 25.8466 139.713 26.2979C139.838 26.6688 139.88 27.0413 139.88 27.8237V35.3281H137.364V27.452C137.364 26.5468 137.116 25.5977 135.507 25.5977C134.686 25.5977 134.394 25.723 133.943 25.9304V35.3281H131.428V24.9397C132.378 24.5257 133.736 24.0321 135.631 24.0321C137.199 24.0321 138.231 24.4021 138.848 24.9397C139.589 24.403 140.579 24.0321 142.024 24.0321C144.661 24.0321 145.814 25.5579 145.814 27.452V35.3281H143.301ZM116.946 18.5504C115.996 18.5504 115.254 18.343 114.759 18.0941L115.13 17.106C115.622 17.3297 116.157 17.443 116.698 17.4379C117.769 17.4379 118.098 16.94 118.098 16.117V15.703C117.896 15.8275 117.484 15.9926 116.78 15.9926C115.213 15.9926 114.512 15.2094 114.512 13.9308V9.60326H116.204V13.8487C116.204 14.4261 116.408 14.88 117.234 14.88C117.644 14.88 117.896 14.7564 118.098 14.6726V9.60326H119.791V15.7453C119.791 17.7656 118.593 18.5504 116.946 18.5504ZM112.431 16.0772C111.193 16.0772 110.578 15.4151 110.578 14.344V10.7582H109.874V9.60409H110.578V8.28325L112.268 7.83274V9.60492H113.298V10.759H112.268V14.1814C112.268 14.758 112.555 14.9223 112.966 14.9223C113.176 14.9223 113.336 14.9223 113.543 14.8825V15.9519C113.379 15.9934 113.049 16.0772 112.431 16.0772ZM107.049 15.9934V9.60326H108.741V15.9934H107.049ZM103.557 16.1178C102.732 16.1178 102.073 15.9104 101.577 15.6648L101.99 14.5912C102.322 14.7572 102.774 14.9654 103.311 14.9654C103.926 14.9654 104.299 14.758 104.299 14.2635C104.299 13.8089 104.012 13.6031 103.267 13.3152C102.031 12.8216 101.786 12.0782 101.786 11.3771C101.786 10.3466 102.568 9.4813 103.97 9.4813C104.753 9.4813 105.329 9.68788 105.784 9.93429L105.329 10.9241C104.978 10.7169 104.581 10.6032 104.174 10.5939C103.596 10.5939 103.311 10.842 103.311 11.2535C103.311 11.709 103.763 11.8716 104.34 12.118C105.616 12.6133 105.907 13.355 105.907 14.1382C105.907 15.294 104.959 16.1178 103.557 16.1178ZM101.042 10.7582C100.918 10.7167 100.546 10.6752 100.258 10.6752C99.9713 10.6752 99.7224 10.7167 99.5565 10.7582V15.9934H97.8681V9.97329C98.1145 9.8505 99.106 9.52112 100.218 9.52112C100.876 9.52112 101.042 9.5626 101.291 9.60409L101.042 10.7582ZM117.038 35.3281V27.6179C117.038 26.5468 116.584 25.7636 115.183 25.7636C114.398 25.7636 113.862 25.9685 113.327 26.2987V35.3289H110.813V20.4869H113.327V24.6104C113.989 24.3208 114.935 24.1142 115.801 24.1142C118.564 24.1142 119.552 25.7636 119.552 27.452V35.3281H117.038ZM83.3231 8.82005C82.7025 8.82005 82.4138 8.44835 82.4138 7.99452C82.4138 7.54235 82.7025 7.16983 83.3231 7.16983C83.9014 7.16983 84.2291 7.54235 84.2291 7.99452C84.2283 8.44835 83.9014 8.82005 83.3231 8.82005ZM88.7641 15.9934H87.1562L84.97 9.60409H86.7862L87.6109 12.6125C87.6922 12.9004 87.8996 13.6438 87.9801 14.0146H88.0207C88.0614 13.6438 88.2688 12.9004 88.3493 12.6125L89.2163 9.60409H90.908L88.7641 15.9934ZM82.4412 15.9934V9.60326H84.1312V15.9934H82.4412ZM107.933 8.82005C107.312 8.82005 107.027 8.44835 107.027 7.99452C107.027 7.54235 107.312 7.16983 107.933 7.16983C108.509 7.16983 108.839 7.54235 108.839 7.99452C108.839 8.44835 108.509 8.82005 107.933 8.82005ZM79.5216 15.9934V11.4999C79.5216 11.0461 79.3175 10.5931 78.4911 10.5931C78.0796 10.5931 77.8349 10.6752 77.6258 10.7582V15.9934H75.9357V9.97329C76.6376 9.68623 77.503 9.47964 78.5758 9.47964C80.5139 9.47964 81.2158 10.4271 81.2158 11.4999V15.9934H79.5216ZM86.5522 22.8357C85.6039 22.8357 85.1102 22.2176 85.1102 21.5165C85.1102 20.8171 85.6047 20.1973 86.5522 20.1973C87.4582 20.1973 87.9925 20.8179 87.9925 21.5165C87.9934 22.2176 87.4582 22.8357 86.5522 22.8357ZM95.7666 35.3281V27.452C95.7666 26.5468 95.394 25.5977 93.7845 25.5977C92.9614 25.5977 92.5483 25.723 92.0944 25.9304V35.3281H89.5797V24.9397C90.9447 24.341 92.4192 24.0319 93.9098 24.0321C97.206 24.0321 98.2788 25.6392 98.2788 27.413V35.3281H95.7666ZM71.8645 16.1178C70.2143 16.1178 68.9773 15.2517 68.9773 13.5616V7.8709H70.7519V13.5616C70.7519 14.344 71.1626 14.7564 71.8645 14.7564C72.5631 14.7564 72.9763 14.3432 72.9763 13.5616V7.8709H74.7485V13.5616C74.7493 15.2508 73.5139 16.1178 71.8645 16.1178ZM85.2953 35.3281V24.2387H87.8133V35.3281H85.2953ZM82.1417 35.4509C79.9572 35.4509 79.0935 34.2155 79.0935 32.4416V25.8474H77.8573V24.2395H79.0935V22.0102L81.6065 21.3116V24.2395H83.3796V25.8474H81.6065V32.4416C81.6065 33.4314 82.1417 33.721 82.8444 33.721C83.0502 33.721 83.3389 33.721 83.587 33.6803V35.3281C83.3389 35.3679 82.681 35.4509 82.1417 35.4509ZM75.5864 35.4509C73.4027 35.4509 72.5366 34.2155 72.5366 32.4416V25.8474H71.3004V24.2395H72.5366V22.0102L75.0538 21.3116V24.2395H76.8251V25.8474H75.0538V32.4416C75.0538 33.4314 75.5873 33.721 76.2917 33.721C76.4958 33.721 76.7861 33.721 77.0326 33.6803V35.3281C76.7861 35.3679 76.1232 35.4509 75.5864 35.4509ZM57.4299 15.9934V11.4999C57.4299 11.0046 57.1851 10.5931 56.4418 10.5931C56.0286 10.5931 55.7822 10.7167 55.5358 10.8411V15.9934H53.8457V7.29428H55.5358V9.76753C55.7813 9.64308 56.2775 9.47964 56.8126 9.47964C58.5027 9.47964 59.1208 10.4711 59.1208 11.4576V15.9926L57.4299 15.9934ZM51.2887 9.19091V15.9934H49.5157V9.19091H47.8671V7.8709H52.9787V9.19091H51.2887ZM22.4277 7.37559V3.58398C24.2828 4.03782 25.6435 4.65675 27.0863 5.44245V8.98515C25.6443 8.32556 24.0771 7.74811 22.4277 7.37559ZM57.5544 35.3281L52.2768 26.424C51.9483 25.8872 51.7002 25.3504 51.4123 24.6917H51.3725C51.4529 25.3911 51.4961 25.9685 51.4961 26.5053V35.3289H49.0618V21.1871H51.6604L56.5654 29.5154C56.8541 30.009 57.1013 30.462 57.3503 31.1208H57.3901C57.3063 30.4214 57.3063 29.9277 57.3063 29.4332V21.188H59.7397V35.3289L57.5544 35.3281ZM19.7055 26.463L19.9536 18.7139C19.9536 18.2186 20.3236 17.8485 20.7783 17.8485C21.2745 17.8485 21.6013 18.2194 21.6013 18.7139L21.8926 26.463H19.7055ZM20.7783 41.2644C18.0993 41.2644 16.2425 40.4812 14.0986 39.3677C12.2028 38.3813 10.3477 37.7598 7.91424 37.7598C5.64841 37.7598 2.92708 38.3365 0 40.1534C2.4326 36.5245 5.64841 35.4517 8.6568 35.4517C11.8726 35.4517 14.3873 36.4407 16.6557 37.5972C18.7572 38.6658 20.4066 39.2026 22.7164 39.2026C24.6537 39.2026 26.7967 38.6667 28.817 36.9783C26.3031 40.2754 23.376 41.2644 20.7783 41.2644ZM125.849 9.47964C123.953 9.47964 123.045 10.8818 123.045 12.7776C123.045 14.7165 123.953 16.1178 125.849 16.1178C127.745 16.1178 128.654 14.7165 128.654 12.7776C128.653 10.8818 127.745 9.47964 125.849 9.47964ZM125.849 15.0028C124.982 15.0028 124.778 14.0146 124.778 12.7768C124.778 11.582 124.982 10.5922 125.849 10.5922C126.716 10.5922 126.922 11.582 126.922 12.7768C126.921 14.0146 126.715 15.0028 125.849 15.0028ZM125.406 24.0321C123.672 24.0321 122.353 24.5257 121.612 24.8551L122.187 26.3825C122.85 26.0498 123.879 25.6798 124.95 25.6798C126.271 25.6798 127.135 26.049 127.135 27.4943V28.1124C126.929 28.0726 126.186 27.9481 125.529 27.9481C122.97 27.9481 120.911 29.2681 120.911 31.9048C120.911 34.0487 122.353 35.6558 125.485 35.6558C127.218 35.6558 128.621 35.3281 129.569 34.8742V27.9083C129.569 25.0202 127.712 24.0321 125.406 24.0321ZM127.135 33.9259C126.661 34.1088 126.16 34.2068 125.652 34.2155C124.331 34.2155 123.424 33.3493 123.424 31.8202C123.424 30.3816 124.209 29.3901 125.736 29.3901C126.435 29.3901 126.888 29.5146 127.135 29.556V33.9259ZM96.792 12.6523C96.792 10.6345 95.7632 9.47964 94.0292 9.47964C92.2579 9.47964 91.1868 10.7167 91.1868 12.7776C91.1868 14.9206 92.3807 16.1178 94.2756 16.1178C95.2671 16.1178 96.0097 15.9104 96.5423 15.6242L96.1308 14.5083C95.6051 14.7617 95.0276 14.8893 94.4441 14.8808C93.66 14.8808 92.9581 14.5514 92.8337 13.3144H96.792V12.6523ZM95.1833 12.2416H92.7947C92.7947 11.0046 93.2875 10.5507 93.9886 10.5507C94.6482 10.5507 95.1825 10.9639 95.1825 12.1611L95.1833 12.2416ZM105.204 24.0321C101.618 24.0321 99.8452 26.2979 99.8452 29.8871C99.8452 33.3493 101.618 35.4085 104.296 35.4085C105.285 35.4085 106.029 35.2459 106.479 34.997V35.6989C106.479 37.1807 105.699 38.1299 103.843 38.1299C102.606 38.1299 101.823 37.8005 101.163 37.5143L100.462 39.0807C101.289 39.5345 102.606 39.9021 104.296 39.9021C107.059 39.9021 108.955 38.3813 108.955 35.4517V24.8128C108.212 24.4021 106.896 24.0321 105.204 24.0321ZM106.479 33.3908C106.038 33.6333 105.543 33.7603 105.039 33.76C103.268 33.76 102.482 32.4408 102.482 29.8863C102.482 27.2454 103.31 25.5968 105.161 25.5968C105.699 25.5968 106.111 25.6383 106.48 25.8466V33.3908H106.479ZM65.5383 12.6523C65.5383 10.6345 64.5078 9.47964 62.7763 9.47964C61.0033 9.47964 59.9314 10.7167 59.9314 12.7776C59.9314 14.9206 61.1269 16.1178 63.0235 16.1178C64.0117 16.1178 64.7542 15.9104 65.2927 15.6242L64.8787 14.5083C64.3516 14.7619 63.7727 14.8894 63.1878 14.8808C62.4046 14.8808 61.7044 14.5514 61.5799 13.3144H65.5383V12.6523ZM63.9312 12.2416H61.5384C61.5384 11.0046 62.0346 10.5507 62.7348 10.5507C63.3952 10.5507 63.9312 10.9639 63.9312 12.1611V12.2416ZM65.939 24.0321C62.807 24.0321 61.2422 26.424 61.2422 29.8016C61.2422 33.1411 62.807 35.533 65.939 35.533C69.0735 35.533 70.6391 33.1411 70.6391 29.8016C70.6391 26.424 69.0735 24.0321 65.939 24.0321ZM66.1025 34.0081C64.3718 34.0081 64.0822 31.7829 64.0822 29.8025C64.0822 27.783 64.3718 25.5587 66.1025 25.5587C67.8332 25.5587 68.1227 27.7839 68.1227 29.8025C68.1227 31.7829 67.8332 34.0081 66.1025 34.0081Z" fill="#00557E"/>
<path fill-rule="evenodd" clip-rule="evenodd" d="M22.4287 8.20297C21.4389 7.9549 20.3678 7.79062 19.2958 7.66783V2.92708C18.1076 2.75999 16.9091 2.6771 15.7092 2.67901C14.5534 2.67901 13.3994 2.76281 12.2876 2.88643V7.37827C11.2157 7.50355 10.1835 7.71014 9.19458 7.95572V3.50536C7.45447 3.98745 5.77949 4.6795 4.20659 5.56627V14.8014L6.30815 16.8208L5.69004 27.2074L4 28.8991V34.9176L4.57745 35.5365C5.97877 34.7965 7.75095 34.1767 9.89482 34.1767C11.9557 34.1767 14.3477 34.7516 17.0275 36.2393V28.5714L15.9149 27.1668V16.5312L18.1003 13.1503L17.1918 16.4059C17.8209 16.3242 18.4548 16.2837 19.0892 16.2848C21.2323 16.2848 23.2102 16.654 24.9019 17.3161L27.0865 15.2958V9.81336C25.6453 9.15212 24.0781 8.61532 22.4287 8.20297ZM9.31737 26.4649L9.56544 18.7157C9.56544 18.2204 9.93547 17.8504 10.391 17.8504C10.8465 17.8504 11.2157 18.2213 11.2157 18.7157L11.5044 26.4649H9.31737ZM38.6023 0H37.5138V44H39.0785V0H38.6023Z" fill="#00557E"/>
</svg>
