<svg width="119" height="45" viewBox="0 0 119 45" fill="none" xmlns="http://www.w3.org/2000/svg">
<path fill-rule="evenodd" clip-rule="evenodd" d="M0 0H33.4504V43.9946H0V0Z" fill="black"/>
<path fill-rule="evenodd" clip-rule="evenodd" d="M12.821 42.2311V41.3309H13.3612V42.2311H12.821ZM13.7125 42.2311V41.3309H14.1721V42.2311H13.7125ZM15.982 42.1485V41.2496H16.6841V42.1485H15.982ZM17.0624 42.1485V41.4135V41.2496H17.6025V42.1485H17.0624ZM17.9539 42.1485V41.2496H18.4941C18.5209 41.3584 18.5478 41.4672 18.5747 41.6036V42.1485H17.9539ZM20.1965 42.1485V41.1407H20.7367C20.7635 41.3309 20.7911 41.5223 20.8448 41.7407C20.8448 41.7944 20.8448 41.8495 20.8717 41.9308C20.8448 41.9859 20.8448 42.0672 20.8448 42.1485H20.1965ZM21.1149 42.1485V41.1407H21.7364C21.7632 41.4672 21.7908 41.7944 21.8177 42.1485H21.1149ZM15.982 40.923V40.0503H16.6841V40.9768C16.4409 40.9506 16.1984 40.923 15.982 40.923ZM16.9549 40.9768V40.0503H17.6032V40.9768H16.9549ZM17.9539 40.9768L17.8726 40.1592C18.0614 40.1054 18.2777 40.0779 18.4941 40.0503V40.9768H17.9539ZM10.8223 36.6991V36.5628H10.9304C11.0117 36.5903 11.0924 36.6178 11.2005 36.6454C11.0655 36.6454 10.9298 36.6716 10.8223 36.6991ZM11.1999 36.6454C11.0917 36.6178 11.0111 36.5903 10.9298 36.5628C11.9832 34.955 11.9832 34.955 13.6313 32.8031C13.6588 32.7205 13.6857 32.6667 13.7125 32.6116C14.037 32.1763 14.3609 31.7402 14.7122 31.3311L14.7935 31.1685C15.1442 30.7056 15.4956 30.242 15.8739 29.8053C15.8933 29.7338 15.9305 29.6684 15.982 29.6152C16.0633 29.4788 16.1439 29.37 16.2521 29.2611C16.279 29.1798 16.3065 29.1247 16.3334 29.071C16.5759 28.7169 16.8467 28.3622 17.1168 28.0081C17.5763 28.5254 18.0352 29.071 18.4947 29.6158C18.5216 29.6709 18.5485 29.7247 18.5753 29.806L19.2237 30.6236L19.305 30.7876C19.8183 31.4151 20.3315 32.0405 20.8448 32.6956C20.8717 32.7493 20.8992 32.8044 20.9261 32.8857C21.2768 33.2935 21.6282 33.7309 22.0064 34.1663C22.0333 34.2214 22.0602 34.2751 22.1146 34.3302C22.3309 34.6292 22.5742 34.9288 22.8167 35.2553C22.8428 35.316 22.8794 35.3715 22.9249 35.4193C23.1949 35.7733 23.465 36.1281 23.7351 36.5097H23.3575C22.3578 35.2553 21.3581 34.0299 20.3853 32.8038C20.3584 32.7211 20.3315 32.6674 20.3047 32.6123C19.5482 31.6321 18.7917 30.6505 18.0352 29.6965L17.9539 29.5339C17.6907 29.2365 17.4203 28.9455 17.143 28.6612C17.0182 28.7906 16.9011 28.9272 16.7923 29.0703C16.7405 29.1233 16.7032 29.1888 16.6841 29.2604C14.8473 31.7127 13.0105 34.1649 11.1999 36.6454ZM21.2768 36.6454C21.1687 36.6178 21.088 36.6178 21.0067 36.6178H17.2243V35.8002H20.5741V34.7098V33.702C21.2762 34.6285 22.0058 35.555 22.7354 36.509C22.2839 36.5298 21.8333 36.5661 21.3843 36.6178C21.3312 36.6178 21.3037 36.6178 21.2768 36.6454ZM14.4422 35.4186V35.1458V34.9832V33.3755C14.4422 32.7755 15.4412 32.7205 15.7119 33.1578C15.7388 33.2116 15.7657 33.2667 15.7932 33.348V35.4186H14.4422ZM16.414 35.4186L16.3334 32.8031V32.6116V32.2576L16.414 31.931C16.5497 31.6596 16.6841 31.577 16.9549 31.5232C17.0086 31.4957 17.063 31.4681 17.1436 31.4406H17.3324C17.36 31.4406 17.3869 31.4406 17.4137 31.4681C17.4675 31.4681 17.5219 31.4957 17.6025 31.5232C17.6569 31.5494 17.7107 31.577 17.7644 31.6045C18.3859 32.5585 18.1702 34.2751 18.224 35.4193L16.414 35.4186ZM18.7648 33.348C18.7917 33.2667 18.8186 33.2116 18.8454 33.1578C19.0618 33.0214 19.2781 32.9126 19.4938 32.8038C20.4935 33.2935 20.169 34.3564 20.1958 35.4193H18.7641L18.7648 33.348ZM12.6322 32.9395C12.6598 32.748 12.6866 32.5579 12.7135 32.3939C12.7411 32.1763 12.7679 31.9861 12.8217 31.794C12.8486 31.5763 12.8754 31.3586 12.903 31.1678L12.9843 30.3502C13.0414 30.3158 13.1064 30.2968 13.1731 30.2951H14.7942C14.6048 30.5403 14.416 30.7855 14.2534 31.059C14.2265 31.1127 14.1996 31.1678 14.1721 31.2491C13.6588 31.9028 13.1455 32.5572 12.6598 33.2109C12.6322 33.1021 12.6322 33.0208 12.6322 32.9395ZM21.7364 33.1021C21.4209 32.6452 21.1147 32.1819 20.818 31.7127H21.6557L21.7364 33.1021ZM18.5753 32.148C18.552 32.0475 18.5251 31.9478 18.4947 31.8491C18.0889 31.3586 18.0083 31.2767 17.4144 31.059C17.3331 31.0314 17.2794 31.0314 17.2249 31.0314C17.1981 30.459 17.1981 29.8873 17.1981 29.3149C17.2525 29.3686 17.3331 29.4512 17.4144 29.5325L17.4957 29.6951C18.1709 30.5954 18.8736 31.4943 19.5757 32.4208C19.3869 32.4484 19.1975 32.4746 19.0356 32.5297C18.8736 32.6109 18.7111 32.6936 18.576 32.8024L18.5753 32.148ZM21.385 30.242C21.4119 30.3508 21.4387 30.4872 21.4663 30.6223V31.059C21.0336 31.0314 20.6016 31.0314 20.1696 31.0314C19.9802 30.7325 19.8183 30.4315 19.6563 30.1587C20.2234 30.1863 20.7911 30.2145 21.385 30.242ZM13.2537 28.7969C13.6588 28.7693 14.0908 28.7431 14.5235 28.7156C15.0099 28.7156 15.4956 28.7156 15.982 28.7431C15.7932 28.9608 15.6307 29.206 15.4687 29.4519C14.7122 29.587 13.8751 29.5332 13.0911 29.5057C13.1455 29.2604 13.1993 29.0145 13.2537 28.7969ZM19.0886 29.5332C18.5747 28.8782 18.5747 28.8782 18.5747 28.7156H21.1955L21.2768 29.5332H19.0886ZM20.9261 27.2174L21.0074 27.6252V27.9792C17.9814 27.9517 17.9814 27.9517 17.8195 27.8704C17.6576 27.6527 17.5226 27.435 17.3869 27.2167L20.9261 27.2174ZM12.9023 26.8075C13.0911 26.4273 13.0911 26.4273 13.2537 26.3446H19.2237C19.305 26.3171 19.3863 26.2909 19.4938 26.2633H21.1149C21.1693 26.3171 21.2231 26.3722 21.2768 26.4273C21.3037 26.481 21.3769 26.6765 21.4314 26.7578C18.6002 26.9123 15.7422 26.8075 12.9023 26.8075ZM14.7935 22.2034C14.8204 22.2846 14.8473 22.3673 14.9017 22.4486V25.9899H13.6319C13.6319 24.7093 13.6319 23.4288 13.6595 22.1751C14.1177 21.8762 14.334 21.8486 14.7935 22.2034ZM15.5225 25.9899V22.3391C15.8739 21.7391 16.3065 21.8486 16.6841 22.3391V25.9899H15.5225ZM18.8454 22.2571V25.8817H17.6838C17.6845 25.3906 17.0624 20.4586 18.8454 22.2571ZM19.575 25.881V22.585V22.1214C19.6832 22.0125 19.7907 21.9037 19.8989 21.8217C20.2771 21.8493 20.4666 21.9037 20.6554 22.2034L20.7367 25.8542C20.3493 25.8487 19.9618 25.8577 19.575 25.881ZM18.6835 21.5221C18.5924 21.4985 18.5023 21.4712 18.4134 21.4401H18.224C18.1328 21.4637 18.0427 21.491 17.9539 21.5221C17.8826 21.5419 17.8174 21.5793 17.7644 21.6309L17.6025 21.7129C17.4137 21.8493 17.4137 21.8493 17.0624 21.9037V20.7045C17.495 20.6769 17.9539 20.6769 18.4134 20.6769C18.441 20.6494 18.4672 20.6225 18.4947 20.6225H21.1149V21.7935H20.9261C20.7635 21.6847 20.6016 21.6034 20.4666 21.5214C19.6557 21.4395 19.6557 21.4395 19.6557 21.5214C19.5275 21.5969 19.4094 21.6883 19.3043 21.7935C19.2774 21.8486 19.2505 21.903 19.223 21.985C19.0349 21.8211 18.8454 21.6578 18.6835 21.5221ZM13.7125 19.0692H14.2527C14.3071 19.0423 14.3609 19.0423 14.4422 19.0423C14.4697 19.0148 14.4966 18.9879 14.5235 18.9879L20.0346 18.9059H20.1159C20.1972 18.9335 20.2778 18.9603 20.386 18.9879C20.6829 19.2875 21.2775 19.6691 21.0074 20.132C18.441 20.132 15.9014 20.132 13.3618 20.1596C13.2812 20.132 13.1999 20.132 13.1462 20.132V19.614C13.3343 19.4232 13.5238 19.2331 13.7125 19.0692ZM17.0624 16.4812C17.0079 14.2742 16.9811 12.0672 16.9542 9.86017V7.05319C16.9811 7.05319 17.0079 7.08073 17.0624 7.10761C17.1168 7.87083 17.1705 8.66092 17.2243 9.45101V12.2304C17.2518 13.1294 17.2787 14.029 17.3324 14.9555L17.4137 17.8982V18.1709H17.0624V16.4812ZM17.8733 18.1703C17.8188 17.8162 17.792 17.4883 17.7651 17.1618C17.6569 15.4721 17.5763 13.7831 17.495 12.0941L17.4137 10.8679L17.3324 9.53298V8.22489H17.4137C17.4406 8.47011 17.4675 8.71534 17.495 8.98811C17.5763 10.2687 17.6569 11.5492 17.7651 12.8573C17.792 13.1294 17.8195 13.429 17.8733 13.7287L17.9546 14.7096L18.0359 15.5265C18.0896 16.3986 18.144 17.2706 18.2246 18.1703H17.8733ZM18.5753 16.4812C18.5485 16.2904 18.5216 16.0996 18.4947 15.9357C18.4672 15.718 18.441 15.5003 18.4134 15.3089C18.359 15.118 18.3321 14.9272 18.3053 14.7633C18.2784 14.5456 18.2515 14.3548 18.224 14.164C18.1427 13.5647 18.0889 12.9654 18.0352 12.393C18.0083 12.2022 17.9808 12.0114 17.9539 11.8482C17.9263 11.6574 17.8995 11.4666 17.8726 11.3026C17.8182 11.0843 17.7913 10.8666 17.7644 10.6758C17.6838 9.77686 17.6838 9.77686 17.7644 9.77686C17.7913 9.85882 17.8188 9.96766 17.8726 10.0765C17.8995 10.2129 17.9263 10.3761 17.9539 10.5394C17.9808 10.7027 18.0083 10.8935 18.0352 11.0843C18.0889 11.5478 18.1433 12.0376 18.224 12.5287C18.2515 12.6651 18.2784 12.8284 18.3053 12.9917C18.3328 13.128 18.3597 13.292 18.4134 13.4552C18.441 13.6185 18.4672 13.8093 18.4947 14.0001L18.5753 14.4905C18.6298 14.9534 18.6835 15.4439 18.7648 15.9343C18.7917 16.0707 18.8186 16.234 18.8454 16.3972C18.873 16.5336 18.8998 16.6969 18.9536 16.8601C18.9805 16.9965 19.008 17.1329 19.0349 17.2962C19.0618 17.5689 19.0893 17.8686 19.1162 18.1682H18.7655C18.6835 17.5978 18.6291 17.0254 18.5753 16.4812ZM19.575 17.8162L19.4938 17.489C19.4393 17.3802 19.4125 17.2713 19.3856 17.1625C19.358 17.0261 19.3312 16.9173 19.3043 16.8084L19.223 16.3999C19.1424 16.0989 19.0886 15.7993 19.0349 15.5003L18.9536 15.0912C18.9051 14.9866 18.8688 14.8768 18.8454 14.764C18.8223 14.6722 18.7954 14.5814 18.7648 14.4919C18.6835 14.1378 18.6291 13.7838 18.5753 13.4566C18.5513 13.329 18.5245 13.202 18.4947 13.0756C18.4672 12.9661 18.441 12.8573 18.4134 12.7753V12.4488C18.4672 12.4488 18.5216 12.4757 18.5753 12.5032C18.6298 12.8029 18.6835 13.1025 18.7648 13.4021L18.8454 13.7287C18.873 13.8106 18.8998 13.8926 18.9536 14.0008C18.9805 14.0559 19.008 14.1371 19.0349 14.2191C19.0893 14.5188 19.1431 14.8459 19.2237 15.1725L19.305 15.4997C19.3325 15.5541 19.3594 15.6354 19.3863 15.7173C19.4131 15.8262 19.44 15.935 19.4944 16.0439C19.522 16.1258 19.5488 16.2078 19.5757 16.3166C19.6295 16.5887 19.6839 16.8615 19.7652 17.1611L19.8465 17.5696L19.9278 17.8968V18.1152H19.6301C19.6005 18.0179 19.582 17.9176 19.575 17.8162ZM16.9549 6.53519V5.14514H17.063C17.1443 5.36282 17.2249 5.58117 17.3331 5.82639L17.4144 5.99032L17.4957 6.23555C17.5226 6.31752 17.5494 6.42635 17.6039 6.53587L16.9549 6.53519ZM16.9549 3.81018V3.64692C17.0153 3.58712 17.0859 3.54748 17.2249 3.64692C17.2841 3.76315 17.323 3.8861 17.2249 4.0554C17.1733 4.10878 17.136 4.17445 17.1168 4.24621C17.0624 4.08295 17.0086 3.94656 16.9549 3.81018ZM8.39088 42.2311C8.364 41.8495 8.33646 41.4948 8.30958 41.1407C8.28222 41.0862 8.25512 41.0316 8.22829 40.9768C7.79562 40.3231 8.06571 39.5061 7.57996 38.8786L7.49867 37.326C7.41805 37.162 7.41805 37.162 7.12109 36.9719V36.7804H7.49867L10.1195 36.6991C10.5246 36.0454 10.5247 36.0454 10.6597 35.9628L10.7403 35.8002C11.2811 35.0639 11.8482 34.437 12.0914 33.5656C12.1183 33.348 12.1451 33.1303 12.1727 32.9395C12.1996 32.7205 12.2264 32.5303 12.2802 32.3395C12.3282 31.9479 12.3821 31.5571 12.4421 31.1671C12.4965 30.5672 12.5503 29.9679 12.6315 29.3955C12.6591 29.2054 12.686 29.0139 12.7128 28.8506C12.7404 28.6591 12.7673 28.469 12.821 28.3051C12.821 28.1149 12.821 27.9248 12.8479 27.7602C12.7128 27.5425 12.5778 27.3524 12.4421 27.1602C12.4203 27.0948 12.3933 27.0313 12.3615 26.9701V26.7524C12.9829 25.8797 12.8748 25.0621 12.9016 23.973L12.8203 21.2204C12.739 21.166 12.6853 21.1116 12.6309 21.0847C12.5496 21.0296 12.4958 21.0028 12.4414 20.9752C12.2858 20.8651 12.1234 20.765 11.955 20.6756C11.955 19.8311 13.0629 19.1498 13.6299 18.5774L13.7112 18.2502C13.7387 18.1407 13.7656 18.0318 13.7925 17.9506C13.8194 17.8417 13.8469 17.7322 13.9007 17.6234L13.982 17.2962C14.0364 16.969 14.0901 16.6425 14.1707 16.316C14.1983 16.2064 14.2252 16.1251 14.252 16.0432L14.3333 15.7167C14.3609 15.5803 14.3877 15.4439 14.4415 15.3082C14.5228 14.8997 14.6034 14.4905 14.7116 14.0821C14.7391 13.9457 14.766 13.8368 14.7929 13.728C14.8197 13.6192 14.8466 13.5103 14.901 13.4015L14.9823 13.075C15.0367 12.7746 15.0905 12.475 15.1711 12.1754L15.2524 11.7669L15.3337 11.4404C15.3612 11.3308 15.3881 11.222 15.4419 11.14C15.4655 11.0483 15.4926 10.9576 15.5232 10.8679C15.5776 10.5139 15.6313 10.1867 15.7126 9.86017L15.7939 9.45168L15.8752 9.12449C15.9021 9.01565 15.929 8.90614 15.9834 8.82485C16.0647 8.38882 16.1453 7.95279 16.2535 7.54364L16.3347 7.21645C16.3663 6.96921 16.4154 6.80796 16.3347 6.80796H16.2535C16.1722 6.78109 16.1184 6.75354 16.0647 6.72667C15.8759 6.53586 16.3347 5.80019 16.4154 5.58184C16.4429 5.49988 16.4698 5.41791 16.5235 5.36349C16.5773 5.20023 16.6317 5.03697 16.6854 4.90059C16.713 4.81862 16.7399 4.73666 16.7936 4.68224C16.6398 4.48807 16.4779 4.26771 16.4644 4.01106C16.4463 3.66707 16.6767 3.48971 17.01 3.48635C17.3331 3.48366 17.5279 3.75912 17.4796 4.07489C17.4419 4.31608 17.2834 4.58885 17.1719 4.64528C17.28 4.89051 17.2807 5.03697 17.4157 5.2822L17.497 5.44613C17.6052 5.7189 17.7402 5.991 17.8753 6.26377C17.9022 6.34573 17.929 6.42703 17.9566 6.53654C17.9022 6.72734 17.9022 6.72734 17.6596 6.8906C17.7147 7.32663 17.6818 7.32663 17.7678 7.89904C17.7947 8.00788 17.8222 8.11672 17.876 8.22556C17.9028 8.27998 17.9297 8.36195 17.9572 8.44324L18.0385 8.77043C18.0923 9.07007 18.1467 9.36972 18.2273 9.66936L18.3086 9.91459C18.3362 10.051 18.363 10.1867 18.4168 10.3231C18.4443 10.3775 18.4705 10.4595 18.4981 10.5407L18.5787 10.8679C18.6331 11.1676 18.6869 11.4672 18.7682 11.7669L18.8488 12.0941C18.8763 12.176 18.9032 12.2849 18.957 12.3937L19.0382 12.6389C19.0927 12.9386 19.1464 13.2382 19.227 13.5379L19.3083 13.865C19.3359 13.9463 19.3627 14.0559 19.3896 14.1647C19.4165 14.2742 19.4434 14.383 19.4978 14.4919C19.5253 14.5739 19.5522 14.6551 19.5791 14.764C19.6328 15.0368 19.6872 15.3364 19.7685 15.636C19.7954 15.718 19.8223 15.8268 19.8498 15.9357L19.9311 16.2629C19.958 16.3448 19.9849 16.4261 20.0393 16.5356C20.1206 16.8897 20.2012 17.2438 20.3094 17.6254L20.39 17.9526C20.4175 18.0345 20.4444 18.1434 20.4713 18.2522C20.4982 18.3611 20.525 18.4706 20.5795 18.5794C20.9577 18.9603 21.2815 19.1787 21.5523 19.6147C21.606 19.6423 21.6604 19.6691 21.7411 19.7236C22.6595 20.8684 21.174 20.5412 21.471 21.4408L21.5523 26.0739C21.6336 26.1827 21.7142 26.2915 21.8224 26.4279C21.8499 26.4817 21.8761 26.5368 21.9305 26.6181C21.9305 26.7269 21.9581 26.8357 21.9849 26.9446H21.8224C21.689 27.1628 21.5718 27.3905 21.4717 27.6258C21.3904 27.6258 21.3904 27.8435 21.4717 27.8435C21.4985 27.9799 21.5254 28.1438 21.553 28.3064C21.6342 28.9615 21.7149 29.6145 21.823 30.2958C21.8506 30.4597 21.8768 30.6498 21.9312 30.8413L22.0125 31.3311C22.0394 31.4675 22.0662 31.6314 22.1207 31.794L22.2826 33.3473C22.3101 33.4837 22.337 33.6201 22.3907 33.7826C22.8772 34.4364 23.3904 35.1183 23.9031 35.7995C23.9306 35.8546 23.9575 35.9084 24.0112 35.9621C24.1731 36.1536 24.3619 36.3437 24.5514 36.5621C25.4967 36.5345 26.4426 36.5083 27.4148 36.5083C27.4148 36.6985 27.4148 36.6985 27.3342 36.6985L27.2529 36.7798C27.2013 36.8335 27.1641 36.8993 27.1447 36.9712L27.0634 37.0525L26.9821 38.6058C26.8471 38.8235 26.712 39.0412 26.6045 39.2871C26.577 39.6412 26.5501 39.9959 26.5232 40.3762C26.3882 40.6214 26.28 40.8666 26.1719 41.1401C26.1181 41.4666 26.0906 41.7938 26.0637 42.1478H25.6317V41.0588C25.7668 40.7047 25.9018 40.3762 26.0637 40.0496V39.0694C26.1719 38.8517 26.3069 38.6327 26.442 38.4144C26.5232 38.4144 26.5232 37.1076 26.442 37.1076C18.9583 37.0801 18.9583 37.0801 18.9583 37.1614C18.9039 37.1614 18.877 37.1614 18.8501 37.1889C17.0402 37.1614 15.2302 37.1614 13.4472 37.1614C13.339 37.1889 13.2584 37.2165 13.1771 37.2427L7.96291 37.3253V37.5154C9.93544 37.5154 11.9073 37.543 13.9067 37.5705C15.0139 37.543 16.1218 37.5154 17.2296 37.5154V38.2518C18.0742 38.198 18.7359 38.3841 19.661 38.6871C19.7155 38.7147 19.7692 38.7409 19.8505 38.796C21.1472 39.3408 21.9849 40.2942 22.8221 41.4128C22.8489 41.4666 22.8765 41.5217 22.9302 41.603C23.0109 41.7393 23.0921 41.9019 23.1734 42.0659C22.9847 42.0659 22.8221 42.0659 22.6602 42.0934C22.552 41.957 22.4714 41.8206 22.3901 41.6843C22.3356 41.6305 22.3088 41.5754 22.2819 41.5217C22.12 41.3026 21.9581 41.1125 21.8224 40.9217C21.5895 40.8907 21.3551 40.8723 21.1203 40.8666C21.0121 40.049 21.0121 40.049 20.9315 39.9677C20.9315 39.8864 20.9315 39.8864 20.742 39.8864V40.8666H20.2019C20.1432 40.3777 20.0982 39.8873 20.0668 39.3959L19.4998 39.1507C19.4185 39.1232 19.3648 39.097 19.3103 39.097C19.0711 39.0114 18.8276 38.9383 18.5807 38.8779L18.5001 39.7782H17.8786C17.8242 39.4242 17.7974 39.0694 17.7705 38.7416C17.6623 38.7416 17.5817 38.7691 17.5004 38.7966C17.5273 39.1232 17.5541 39.4504 17.6086 39.7782H16.9602V38.7966C16.9602 38.6052 16.7231 38.7456 16.6304 38.7913C16.6304 39.0916 16.6089 39.4772 16.6089 39.7782H15.9874C15.933 39.5054 15.9061 39.2327 15.8792 38.9606C15.636 39.0419 15.3928 39.1232 15.1765 39.2045C15.0952 39.2045 15.0415 39.2045 14.9877 39.232C14.7445 39.3408 14.5013 39.4772 14.2581 39.6136C14.2312 40.049 14.2043 40.5126 14.1768 40.9755H13.7172L13.636 40.1578C13.5009 40.1854 13.5009 40.1854 13.4472 40.2942C13.4203 40.5119 13.3927 40.7296 13.3659 40.9755H12.7175L12.6363 41.1394C12.5281 41.2482 12.4468 41.3846 12.3662 41.521L12.2849 41.6836C12.1435 41.8542 12.0172 42.0367 11.9073 42.2291C11.7454 42.2016 11.5459 42.217 11.4108 42.1895C11.8106 41.2489 12.4958 40.3916 13.3276 39.7144C14.2413 38.9727 15.333 38.4493 16.4187 38.2773C16.5995 38.2316 16.7788 38.1853 16.9596 38.1409L16.8783 37.977C16.1224 38.0361 15.4506 38.1658 14.7996 38.4312C14.1116 38.7107 13.4599 39.1003 12.9211 39.6109C12.2022 40.2935 11.6554 41.048 11.2052 41.9557C11.1536 42.0089 11.1164 42.0743 11.0971 42.1458V42.2284C10.1733 42.2311 9.28241 42.2311 8.39088 42.2311Z" fill="white"/>
<path fill-rule="evenodd" clip-rule="evenodd" d="M39.6779 6.61472H40.5157C41.029 6.61472 41.2447 6.5603 41.2447 7.2691V7.65003C41.2447 7.732 41.2447 7.81329 41.3528 7.81329C41.4879 7.81329 41.5148 7.62249 41.5423 7.48678L41.8937 6.20624C41.8937 6.12427 41.9205 6.01543 41.9205 5.93414C41.9205 5.87905 41.8937 5.85217 41.8393 5.85217C41.7586 5.85217 41.7318 5.90659 41.6773 6.0161C41.6236 6.09807 41.596 6.20691 41.4885 6.26133C41.3266 6.31642 41.029 6.31642 40.8671 6.31642H37.571C37.4897 6.31642 37.2197 6.34329 37.1384 6.2882C37.0302 6.23378 37.0302 6.12494 37.0302 6.04365C37.0302 5.93481 37.0302 5.8253 36.922 5.8253C36.787 5.8253 36.7601 6.07052 36.7332 6.20691L36.3825 7.48745C36.3825 7.54187 36.3281 7.73267 36.3281 7.78709C36.3281 7.84151 36.3825 7.89593 36.4363 7.89593C36.5176 7.89593 36.5713 7.75954 36.5982 7.67758C36.7064 7.43235 36.8683 7.15958 37.0577 6.99633C37.4635 6.61539 37.868 6.61539 38.3813 6.61539H38.8946L37.4629 12.2011C37.3816 12.4464 37.3003 12.8011 37.1384 12.9637C37.0033 13.1007 36.7877 13.0732 36.6251 13.1007C36.5169 13.1007 36.3819 13.1283 36.3819 13.2915C36.3819 13.4548 36.6251 13.4004 36.6788 13.4004C36.9758 13.3728 37.2734 13.346 37.5704 13.346C37.9486 13.346 38.3269 13.3728 38.6782 13.4004C38.7857 13.4004 38.867 13.3728 38.867 13.264C38.867 13.0732 38.6782 13.1007 38.5969 13.1007C38.3806 13.0732 38.1105 13.1007 38.1105 12.746C38.1105 12.6096 38.1918 12.3651 38.2187 12.2011L39.6779 6.61472ZM41.1634 12.9361C41.1365 13.0181 41.0821 13.1538 41.0821 13.2358C41.0821 13.3715 41.3522 13.3446 41.4059 13.3446C41.7304 13.3446 41.7029 13.2358 41.811 12.8817C42.1624 11.5468 42.5675 10.7567 42.9458 10.1567C43.2159 9.72067 44.0268 8.71222 44.4588 8.71222C44.837 8.71222 45.0265 9.12138 44.9721 9.72C44.8639 10.9737 44.2156 13.2351 43.5672 13.2351C43.2159 13.2351 43.2703 12.5807 42.9726 12.5807C42.9294 12.5792 42.8864 12.5866 42.8462 12.6026C42.8059 12.6185 42.7695 12.6426 42.7391 12.6734C42.7086 12.7041 42.6849 12.7408 42.6694 12.7812C42.6538 12.8216 42.6468 12.8647 42.6488 12.9079C42.6488 13.3433 43.0539 13.4797 43.324 13.4797C44.5669 13.4797 45.6473 10.9454 45.6748 9.80129C45.7017 8.98365 45.4853 8.19356 44.7564 8.19356C43.838 8.19356 42.7032 10.0741 42.3787 10.7278H42.3512L43.621 5.8777C43.621 5.85016 43.6747 5.63247 43.6747 5.57806C43.6747 5.55051 43.6479 5.49609 43.621 5.49609C43.5941 5.49609 43.5672 5.52364 43.5397 5.52364C43.1883 5.79641 42.7556 5.8777 42.3505 5.90524C42.2692 5.90524 42.1617 5.93279 42.1617 6.04163C42.1617 6.12293 42.1886 6.15047 42.243 6.15047L42.4318 6.12293C42.6481 6.12293 42.7832 6.17802 42.7832 6.47699C42.7832 6.64092 42.675 6.96744 42.6482 7.13137L41.1634 12.9361ZM46.7283 11.2471H46.8364C47.863 11.1107 49.9706 10.893 49.9706 9.25777C49.9706 8.54964 49.4035 8.1949 48.8627 8.1949C47.4041 8.1949 45.9718 9.9659 45.9718 11.71C45.9718 12.6909 46.4857 13.481 47.3228 13.481C48.0256 13.481 48.6739 12.9906 49.1328 12.3913C49.1597 12.3093 49.376 12.0372 49.376 11.9552C49.376 11.9008 49.3491 11.8733 49.2947 11.8733C49.2678 11.8733 49.2134 11.9008 49.1865 11.9552C48.8896 12.5008 48.2681 12.9906 47.7011 12.9906C47.0259 12.9906 46.7014 12.4181 46.7014 11.6825V11.4372L46.7283 11.2471ZM46.7558 11.0288C46.9721 9.9659 47.7011 8.41258 48.7552 8.41258C49.1066 8.41258 49.2954 8.63026 49.2954 9.03941C49.2954 9.42102 49.1603 9.80263 48.9715 10.1023C48.5389 10.7567 47.4579 10.9743 46.7558 11.0288ZM44.7026 23.5352C44.7026 24.5443 44.5139 26.3422 42.1362 26.3422C39.5422 26.3422 39.5422 24.2715 39.5422 23.0998V17.8137C39.5422 17.16 39.5422 16.724 40.3263 16.6696C40.6501 16.642 40.8664 16.6145 40.8664 16.3968C40.8664 16.1241 40.677 16.1241 40.5695 16.1241C40.4613 16.1241 39.7861 16.206 38.7327 16.206C37.7061 16.206 37.1115 16.1241 36.9496 16.1241C36.8414 16.1241 36.6526 16.1241 36.6526 16.3693C36.6526 16.6145 36.869 16.6414 37.1928 16.6689C37.9493 16.6958 37.9493 17.1594 37.9493 17.8675V23.3719C37.9493 26.2051 39.8405 26.832 41.8937 26.832C45.2704 26.832 45.2704 24.4073 45.2704 23.4532V18.1947C45.2704 16.8046 45.4323 16.6958 46.1343 16.6414C46.3238 16.6138 46.5946 16.6138 46.5946 16.3693C46.5946 16.3149 46.567 16.1241 46.3513 16.1241C46.135 16.1241 45.4867 16.206 44.8921 16.206C44.19 16.206 43.8655 16.1241 43.6223 16.1241C43.4873 16.1241 43.2716 16.1241 43.2716 16.3417C43.2716 16.5876 43.4604 16.6145 43.7849 16.6145C44.5958 16.6965 44.7033 16.8873 44.7033 18.3042L44.7026 23.5352ZM55.1303 23.9444L50.0243 16.6414C49.9161 16.4781 49.7811 16.1234 49.511 16.1234C49.2947 16.1234 48.944 16.2053 48.5113 16.2053C48.0249 16.2053 47.3497 16.1234 47.1878 16.1234C46.9177 16.1234 46.7283 16.1509 46.7283 16.3686C46.7283 16.6138 46.9715 16.6138 47.296 16.6407C47.9712 16.6407 48.0793 16.804 48.0793 18.112V23.7253C48.0793 26.0412 47.9987 26.0949 47.3504 26.2038C46.7021 26.2864 46.6476 26.314 46.6476 26.5041C46.6476 26.7218 46.864 26.7218 46.9177 26.7218C47.1878 26.7218 47.863 26.6667 48.6195 26.6667C49.1059 26.6667 49.6729 26.7218 49.8355 26.7218C49.9706 26.7218 50.2138 26.7218 50.2138 26.4765C50.2138 26.2589 50.1325 26.2589 49.5386 26.2038C48.8634 26.15 48.6739 25.9861 48.647 23.5332L48.5926 17.7298L48.6195 17.6747L55.049 26.6398C55.2922 27.0214 55.4004 27.0214 55.5354 27.0214C55.7518 27.0214 55.7518 26.6936 55.7518 26.531L55.7242 17.7022C55.6974 16.7757 55.9406 16.7482 56.4807 16.6669C56.9403 16.6394 57.0753 16.5849 57.0753 16.3941C57.0753 16.1214 56.8865 16.1214 56.8052 16.1214C56.562 16.1214 55.4273 16.2033 55.1847 16.2033C54.9953 16.2033 54.1582 16.1214 53.9956 16.1214C53.8874 16.1214 53.6173 16.1214 53.6173 16.3666C53.6173 16.6118 53.8337 16.6118 54.2925 16.6387C54.8864 16.6662 55.0484 16.6662 55.1028 18.71L55.1572 23.9141L55.1303 23.9444ZM60.1557 17.8137C60.1557 17.16 60.1557 16.724 60.9115 16.6696C61.2092 16.642 61.4524 16.6145 61.4524 16.3968C61.4524 16.1241 61.236 16.1241 61.1285 16.1241C60.9122 16.1241 60.4265 16.206 59.3455 16.206C58.4264 16.206 57.8594 16.1241 57.5624 16.1241C57.4274 16.1241 57.2386 16.1241 57.2386 16.3693C57.2386 16.6145 57.4549 16.6414 57.7787 16.6689C58.5352 16.7233 58.5352 17.1594 58.5352 17.8675V25.0065C58.5352 25.6878 58.5352 26.1232 57.7787 26.2045C57.4549 26.2045 57.2386 26.232 57.2386 26.4772C57.2386 26.7224 57.4274 26.7224 57.5624 26.7224C57.6974 26.7224 58.4539 26.6674 59.3186 26.6674C60.3176 26.6674 60.804 26.7224 61.1285 26.7224C61.236 26.7224 61.4524 26.7224 61.4524 26.4772C61.4524 26.232 61.236 26.2045 60.9115 26.2045C60.1557 26.1507 60.1557 25.6871 60.1557 24.979V17.8137Z" fill="black"/>
<path fill-rule="evenodd" clip-rule="evenodd" d="M69.747 18.2232C70.179 16.9426 70.3677 16.725 70.7191 16.6699C71.3137 16.5879 71.3674 16.5604 71.3674 16.3427C71.3674 16.125 71.1787 16.125 71.0974 16.125C70.881 16.125 70.1514 16.207 69.747 16.207C69.2599 16.207 68.5578 16.125 68.4765 16.125C68.3139 16.125 68.0707 16.125 68.0707 16.3702C68.0707 16.6154 68.2595 16.6154 68.719 16.6423C68.9629 16.6699 69.3412 16.7512 69.3412 17.1603C69.3412 17.4875 69.2061 17.8684 69.0711 18.2776L67.0448 24.0541L64.7747 17.978C64.5321 17.2967 64.4508 17.161 64.4508 17.079C64.4508 16.6974 64.6672 16.6974 65.3692 16.5892C65.5043 16.5892 65.6393 16.5348 65.6393 16.3709C65.6393 16.1801 65.4781 16.1257 65.343 16.1257C65.0454 16.1257 64.5859 16.2076 63.7487 16.2076C62.6953 16.2076 61.8844 16.1257 61.615 16.1257C61.5061 16.1257 61.3711 16.1801 61.3711 16.3433C61.3711 16.5892 61.5337 16.5892 61.8582 16.6161C62.3177 16.6712 62.4528 16.7256 62.8579 17.7878L66.1526 26.6166C66.2614 26.8893 66.3427 26.9706 66.4502 26.9706C66.5577 26.9706 66.6666 26.753 66.6928 26.6703L69.747 18.2232Z" fill="black"/>
<path fill-rule="evenodd" clip-rule="evenodd" d="M72.6091 24.979C72.6091 25.6878 72.6091 26.1231 71.8519 26.1782C71.5557 26.2044 71.3125 26.232 71.3125 26.4772C71.3125 26.7224 71.5012 26.7224 71.6363 26.7224C71.7438 26.7224 71.8513 26.6949 72.0958 26.6949C72.3384 26.6673 72.7166 26.6673 73.3387 26.6673H73.5275C73.6088 26.6673 74.3109 26.6673 75.1756 26.6949C76.0402 26.6949 77.0937 26.7224 77.877 26.7224C78.309 26.7224 78.4716 26.5323 78.4716 26.2044C78.5254 25.6058 78.6866 24.5154 78.6866 24.2977C78.6866 24.1889 78.6329 24.0525 78.4978 24.0525C78.3628 24.0525 78.3366 24.1076 78.0658 24.7062C77.4175 26.1231 76.4715 26.1231 75.7957 26.1231C74.5528 26.1231 74.2289 25.9605 74.2289 24.7613V21.8455C74.2289 21.3275 74.3378 21.3275 75.066 21.3275C76.3103 21.3275 76.7141 21.355 77.0386 22.6624C77.1199 22.9614 77.2012 23.0716 77.3362 23.0716C77.4988 23.0716 77.4988 22.8264 77.4988 22.7175C77.4988 22.5811 77.4712 22.008 77.4712 21.8723C77.4712 21.5176 77.5787 19.7735 77.5787 19.5289C77.5787 19.3381 77.4988 19.2837 77.4175 19.2837C77.3362 19.2837 77.2549 19.3381 77.175 19.5558C76.9049 20.4279 76.7692 20.8095 75.0936 20.8095C74.2289 20.8095 74.2289 20.6731 74.2289 20.1282V17.676C74.2289 16.8315 74.284 16.7226 75.0398 16.7226C77.175 16.7226 77.5525 17.3763 77.7138 17.8124C77.9839 18.4392 78.0114 18.4936 78.2009 18.4936C78.3359 18.4936 78.3359 18.3028 78.3359 18.2208V16.6675C78.3359 16.259 78.3359 16.122 78.1471 16.122C78.1196 16.122 78.092 16.1495 77.7138 16.1764C77.308 16.1764 76.5246 16.204 74.9854 16.204H74.2558C72.9853 16.204 72.3377 16.1764 71.987 16.1764C71.6618 16.1495 71.6356 16.122 71.6081 16.122C71.5006 16.122 71.3118 16.122 71.3118 16.3672C71.3118 16.6124 71.5281 16.6393 71.8513 16.6669C72.6084 16.6937 72.6084 17.1573 72.6084 17.8654L72.6091 24.979ZM80.3353 25.0065C80.3353 25.7153 80.3353 26.1507 79.5795 26.2044C79.2819 26.232 79.0387 26.2595 79.0387 26.4772C79.0387 26.7499 79.255 26.7224 79.3625 26.7224C79.6326 26.7224 80.8479 26.6673 81.118 26.6673C81.1718 26.6673 82.631 26.7224 82.9286 26.7224C83.0361 26.7224 83.2249 26.7499 83.2249 26.5047C83.2249 26.2595 83.0361 26.232 82.6841 26.2044C81.9283 26.1782 81.9283 25.7146 81.9283 25.0065V21.9543C81.9283 21.6822 81.982 21.5727 82.2259 21.5727C82.9004 21.5727 82.9817 21.6547 83.3055 22.3635L85.1424 26.2044C85.3036 26.586 85.3587 26.7224 85.6294 26.7224C85.7645 26.7224 86.3315 26.6673 86.439 26.6673C86.6815 26.6673 87.6557 26.7224 87.8445 26.7224C87.952 26.7224 88.1146 26.6949 88.1146 26.5323C88.1146 26.3146 87.9795 26.287 87.4925 26.2044C87.0605 26.1507 86.8441 25.7422 86.5478 25.1429L85.0886 22.2271C84.7372 21.5183 84.5753 21.4094 84.359 21.273C84.8723 21.1642 86.439 20.7551 86.439 18.7933C86.439 18.194 86.1965 16.1227 83.5481 16.1227C83.0885 16.1227 81.0905 16.2046 80.6847 16.2046C80.4959 16.2046 79.7663 16.1227 79.6037 16.1227C79.1179 16.1227 79.0366 16.1227 79.0366 16.3679C79.0366 16.6131 79.253 16.6131 79.5775 16.64C80.3333 16.6944 80.3333 17.158 80.3333 17.8392V25.0065H80.3353ZM81.9296 17.6766C81.9296 17.0229 81.9571 16.6138 82.6592 16.6138C84.5222 16.6138 84.7392 18.4123 84.7392 19.0116C84.7392 21.1367 83.2263 21.1367 82.6854 21.1367C81.9296 21.1367 81.9296 21.1091 81.9296 20.5098V17.6766ZM94.0335 23.3719C94.0335 21.4645 92.4392 20.6469 91.6021 20.2377C90.413 19.6929 89.5208 19.2568 89.5208 18.0583C89.5208 17.4039 89.9265 16.4499 91.1688 16.4499C92.411 16.4499 92.6818 17.4039 92.8706 18.0583C93.0331 18.5763 93.0869 18.6851 93.2219 18.6851C93.4383 18.6851 93.4383 18.5487 93.4383 18.1671C93.4383 16.6958 93.4383 16.5325 93.2757 16.423C93.0594 16.3141 92.1685 16.0414 91.2769 16.0414C89.385 16.0414 88.3309 17.3763 88.3309 18.9296C88.3309 20.7282 89.5201 21.3819 90.7361 22.0087C91.8158 22.5543 92.8437 23.2073 92.8437 24.5154C92.8437 25.8772 91.6814 26.3959 91.0606 26.3959C89.9796 26.3959 88.953 25.333 88.6568 23.8066C88.6292 23.6702 88.6017 23.5338 88.4666 23.5338C88.2778 23.5338 88.2516 23.779 88.2516 23.8341C88.2241 24.4341 88.2241 25.2786 88.2241 25.3599C88.2241 25.7677 88.2241 26.0136 88.3867 26.15C88.6568 26.3677 89.6296 26.8312 90.7905 26.8312C92.7893 26.8319 94.0335 25.2524 94.0335 23.3719ZM97.4908 17.813C97.4908 17.1593 97.4908 16.7233 98.2205 16.6689C98.5443 16.6413 98.7875 16.6138 98.7875 16.3961C98.7875 16.1233 98.5712 16.1233 98.4637 16.1233C98.2211 16.1233 97.7616 16.2053 96.6544 16.2053C95.736 16.2053 95.1951 16.1233 94.8975 16.1233C94.7625 16.1233 94.5737 16.1233 94.5737 16.3686C94.5737 16.6138 94.79 16.6407 95.1145 16.6682C95.8703 16.7226 95.8703 17.1586 95.8703 17.8668V25.0058C95.8703 25.6871 95.8703 26.1224 95.1145 26.2037C94.7907 26.2037 94.5737 26.2313 94.5737 26.4765C94.5737 26.7217 94.7625 26.7217 94.8975 26.7217C95.0326 26.7217 95.7897 26.6666 96.6544 26.6666C97.6527 26.6666 98.1398 26.7217 98.4637 26.7217C98.5712 26.7217 98.7875 26.7217 98.7875 26.4765C98.7875 26.2313 98.5712 26.2037 98.2205 26.2037C97.4908 26.15 97.4908 25.6864 97.4908 24.9783V17.813ZM104.191 17.295C104.191 16.7226 104.271 16.7226 105.136 16.7226C106.108 16.7226 106.838 16.7226 107.108 18.3572C107.162 18.7113 107.271 18.7113 107.352 18.7113C107.541 18.7113 107.567 18.5205 107.567 18.1664L107.676 16.1227C107.676 15.7142 107.676 15.4414 107.486 15.4414C107.352 15.4414 107.297 15.5502 107.271 15.6866C107.162 15.9863 107.082 16.2046 105.542 16.2046H100.706C100.355 16.2046 100.084 16.1771 100.004 15.7411C100.004 15.5778 99.9491 15.4958 99.8416 15.4958C99.7066 15.4958 99.6528 15.6047 99.5991 15.7955L98.9769 18.1657C98.9769 18.2746 98.9507 18.3566 98.9507 18.4379C98.9507 18.5467 99.0307 18.6562 99.1395 18.6562C99.2746 18.6562 99.3545 18.6011 99.4896 18.329C100.247 16.7213 101.246 16.7213 102.165 16.7213C102.461 16.7213 102.569 16.7213 102.569 17.1573V25.0052C102.569 25.6864 102.569 26.1218 101.813 26.1769C101.517 26.2031 101.3 26.2306 101.3 26.4758C101.3 26.7211 101.489 26.7211 101.624 26.7211C101.894 26.7211 103.109 26.666 103.38 26.666C103.867 26.666 104.65 26.7211 105.163 26.7211C105.27 26.7211 105.459 26.7211 105.459 26.4758C105.459 26.2031 105.27 26.2031 104.946 26.1769C104.19 26.1218 104.19 25.6864 104.19 24.9776V17.295H104.191ZM112.187 21.9825C112.322 22.1726 112.322 22.309 112.322 22.3903V25.0072C112.322 25.6884 112.322 26.1238 111.565 26.2051C111.241 26.2051 111.026 26.2326 111.026 26.4778C111.026 26.7231 111.215 26.7231 111.322 26.7231C111.43 26.7231 112.348 26.668 113.295 26.668C113.782 26.668 114.484 26.7231 114.889 26.7231C115.024 26.7231 115.213 26.7231 115.213 26.4778C115.213 26.2051 114.996 26.2051 114.672 26.1789C113.915 26.1238 113.915 25.6884 113.915 24.9796V21.955C113.915 21.7373 113.97 21.6553 114.024 21.5734L115.887 18.4399C116.779 16.9692 117.103 16.6145 117.778 16.6145C117.858 16.6145 118.075 16.5332 118.075 16.3692C118.075 16.2328 117.967 16.124 117.832 16.124C117.697 16.124 117.075 16.206 116.508 16.206C115.643 16.206 115.401 16.124 115.076 16.124C114.914 16.124 114.643 16.124 114.643 16.3968C114.643 16.6145 114.913 16.642 115.022 16.642C115.535 16.6695 115.859 16.6695 115.859 17.078C115.859 17.4052 115.481 18.0858 115.372 18.2773L113.644 21.2475L111.455 17.596C111.159 17.1056 111.159 17.0236 111.159 16.9416C111.159 16.7508 111.292 16.6695 111.698 16.6695C112.158 16.642 112.32 16.5876 112.32 16.3699C112.32 16.1247 112.158 16.1247 111.941 16.1247C111.78 16.1247 111.456 16.2066 110.051 16.2066C108.889 16.2066 108.673 16.1247 108.323 16.1247C108.025 16.1247 107.81 16.1247 107.81 16.3699C107.81 16.5883 107.863 16.6151 108.43 16.6695C108.619 16.6964 108.971 16.7508 109.647 17.8681L112.187 21.9825ZM56.8047 32.4734C57.2642 31.1929 57.4261 30.9739 57.8044 30.9201C58.3714 30.8388 58.4527 30.8113 58.4527 30.6211C58.4527 30.4021 58.2364 30.4021 58.1826 30.4021C57.9394 30.4021 57.2374 30.4572 56.8322 30.4572C56.3458 30.4572 55.6431 30.4021 55.5624 30.4021C55.3737 30.4021 55.1298 30.4021 55.1298 30.6211C55.1298 30.865 55.3461 30.8926 55.7781 30.8926C56.0482 30.9201 56.3996 31.0014 56.3996 31.4106C56.3996 31.7371 56.2914 32.118 56.1295 32.5272L54.1301 38.3037L51.8613 32.2282C51.5912 31.5469 51.5374 31.4106 51.5374 31.3279C51.5374 30.9739 51.7531 30.9477 52.4558 30.8381C52.5909 30.8381 52.7259 30.7831 52.7259 30.6205C52.7259 30.429 52.564 30.4014 52.429 30.4014C52.132 30.4014 51.6725 30.4565 50.8078 30.4565C49.7544 30.4565 48.971 30.4014 48.7002 30.4014C48.5921 30.4014 48.457 30.429 48.457 30.6205C48.457 30.8381 48.6189 30.8381 48.9434 30.8919C49.403 30.9194 49.5374 30.9732 49.9156 32.036L53.2385 40.8923C53.3467 41.1376 53.4005 41.2464 53.5086 41.2464C53.6437 41.2464 53.7518 41.0012 53.7787 40.9199L56.8047 32.4734ZM59.8575 39.2295C59.8575 39.9383 59.8575 40.4012 59.1017 40.4288C58.7779 40.4839 58.5616 40.4839 58.5616 40.7291C58.5616 40.973 58.7503 40.973 58.8585 40.973C58.9667 40.973 59.1017 40.973 59.3449 40.9468C59.5613 40.9192 59.9388 40.9192 60.561 40.9192H60.7497C60.831 40.9192 61.5593 40.9192 62.3978 40.9468C63.2886 40.973 64.3428 40.973 65.0993 40.973C65.5313 40.973 65.6925 40.7828 65.72 40.4832C65.7476 39.8557 65.9088 38.7653 65.9088 38.5476C65.9088 38.4388 65.8826 38.3024 65.7476 38.3024C65.6125 38.3024 65.585 38.3575 65.288 38.9574C64.6397 40.4006 63.6938 40.4005 63.0454 40.4005C61.775 40.4005 61.4511 40.2104 61.4511 39.0112V36.0954C61.4511 35.578 61.5862 35.578 62.2883 35.578C63.5312 35.578 63.9638 35.6056 64.2883 36.9137C64.3421 37.2402 64.4496 37.3215 64.5584 37.3215C64.7472 37.3215 64.7472 37.0762 64.7472 36.9674C64.7472 36.831 64.6935 36.2586 64.6935 36.1222C64.6935 35.7682 64.801 34.024 64.801 33.7788C64.801 33.5887 64.7197 33.5349 64.6397 33.5349C64.5584 33.5349 64.4771 33.5887 64.4234 33.8064C64.1533 34.7053 63.99 35.0594 62.3434 35.0594C61.4511 35.0594 61.4511 34.9243 61.4511 34.3781V31.9534C61.4511 31.1082 61.5049 30.9718 62.2621 30.9718C64.4234 30.9718 64.7734 31.6269 64.9635 32.0623C65.2323 32.6898 65.2598 32.7435 65.4217 32.7435C65.5843 32.7435 65.5843 32.5534 65.5843 32.4721V30.9188C65.5843 30.5372 65.5843 30.4008 65.3955 30.4008C65.3418 30.4008 65.3418 30.4008 64.936 30.4283C64.5302 30.4283 63.7744 30.4559 62.207 30.4559H61.4787C60.2082 30.4559 59.5606 30.4283 59.2361 30.4283C58.8854 30.4008 58.8854 30.4008 58.8578 30.4008C58.7497 30.4008 58.5609 30.4008 58.5609 30.6198C58.5609 30.8912 58.7497 30.8912 59.101 30.9188C59.8569 30.9725 59.8569 31.4092 59.8569 32.1167L59.8575 39.2295ZM67.7188 39.2571C67.7188 39.9659 67.7188 40.4012 66.9629 40.4839C66.6667 40.4839 66.4221 40.5101 66.4221 40.7553C66.4221 41.0005 66.6384 40.973 66.7459 40.973C67.016 40.973 68.2327 40.9192 68.5028 40.9192C68.5566 40.9192 70.0158 40.973 70.3121 40.973C70.4196 40.973 70.6084 41.0005 70.6084 40.7553C70.6084 40.5101 70.4196 40.4839 70.0689 40.4839C69.3117 40.4288 69.3117 39.9659 69.3117 39.2571V36.2049C69.3117 35.9334 69.3655 35.8246 69.6093 35.8246C70.2839 35.8246 70.3652 35.9059 70.689 36.6147L72.5258 40.4845C72.6884 40.8386 72.7421 40.9743 73.0129 40.9743C73.1479 40.9743 73.715 40.9206 73.8225 40.9206C74.0663 40.9206 75.0392 40.9743 75.228 40.9743C75.3355 40.9743 75.498 40.9743 75.498 40.7842C75.498 40.5665 75.363 40.5389 74.8759 40.4852C74.4439 40.4026 74.2276 39.9948 73.9313 39.3948L72.4721 36.479C72.1207 35.7702 71.9312 35.6889 71.7424 35.5525C72.2557 35.4161 73.8225 35.0076 73.8225 33.0465C73.8225 32.4465 73.5799 30.4021 70.9329 30.4021C70.4733 30.4021 68.4739 30.4572 68.0681 30.4572C67.8793 30.4572 67.1497 30.4021 66.9885 30.4021C66.5014 30.4021 66.4201 30.4021 66.4201 30.6211C66.4201 30.865 66.6364 30.8926 66.9609 30.8926C67.7168 30.9477 67.7168 31.4106 67.7168 32.0918V39.2571H67.7188ZM69.3131 31.9272C69.3131 31.2735 69.3406 30.8643 70.0427 30.8643C71.907 30.8643 72.1227 32.6636 72.1227 33.2904C72.1227 35.3872 70.6097 35.3872 70.0702 35.3872C69.3131 35.3872 69.3131 35.361 69.3131 34.7611V31.9272Z" fill="black"/>
<path fill-rule="evenodd" clip-rule="evenodd" d="M84.2229 31.9034H84.2504L84.3579 39.2057C84.3854 39.9958 84.3579 40.4036 83.682 40.4862C83.2225 40.5124 83.0875 40.5124 83.0875 40.7576C83.0875 40.9753 83.25 40.9753 83.3575 40.9753C83.6552 40.9753 84.4647 40.9216 85.2219 40.9216C85.7889 40.9216 86.5723 40.9753 86.8148 40.9753C86.9499 40.9753 87.1938 40.9753 87.1938 40.7576C87.1938 40.5675 87.0587 40.4862 86.7342 40.4862C86.0583 40.4862 86.0308 40.2685 86.0308 39.2057L85.8158 32.0384C85.7883 31.1395 85.8158 30.9218 86.5179 30.8667C86.9499 30.8405 87.0849 30.8405 87.0849 30.6228C87.0849 30.4038 86.8699 30.4038 86.7073 30.4038C86.5461 30.4038 86.1403 30.4589 85.7889 30.4589C85.4651 30.4589 84.8705 30.4038 84.546 30.4038C84.3035 30.4038 84.1402 30.4314 83.9514 30.9762L81.5476 37.8432L79.0073 30.7861C78.8461 30.4045 78.7386 30.4045 78.5754 30.4045C78.4141 30.4045 78.0883 30.4596 77.5494 30.4596C77.1437 30.4596 76.3065 30.4045 76.144 30.4045C75.9014 30.4045 75.8201 30.4871 75.8201 30.6235C75.8201 30.7861 75.9014 30.8949 76.4147 30.9225C77.0906 30.9225 77.1168 30.9225 77.1168 31.7677C77.1168 34.0022 76.793 38.9611 76.793 39.0975C76.7668 40.2692 76.5504 40.3781 76.0371 40.4593C75.6313 40.5131 75.4688 40.5682 75.4688 40.7583C75.4688 40.9498 75.6313 40.976 75.7388 40.976C75.9827 40.976 76.5497 40.9223 77.0906 40.9223C77.7389 40.9223 78.2247 40.976 78.441 40.976C78.6036 40.976 78.873 40.976 78.873 40.7321C78.873 40.4869 78.6304 40.4869 78.3059 40.4869C77.5501 40.4593 77.4151 40.3781 77.4151 37.7337C77.4151 35.9895 77.5226 34.0553 77.6301 32.1755H77.6576L80.6298 40.2954C80.7373 40.5957 80.8186 40.7321 80.9799 40.7321C81.1425 40.7321 81.1962 40.5682 81.3313 40.1584L84.2229 31.9034ZM97.5952 35.5004C97.5952 32.6108 95.3264 30.295 92.5168 30.295C89.5707 30.295 87.3019 32.6108 87.3019 35.663C87.3019 38.8792 89.8146 41.0848 92.4617 41.0848C95.0288 41.0848 97.5952 38.7965 97.5952 35.5004ZM95.786 35.5817C95.786 38.034 94.705 40.6495 92.5712 40.6495C90.5449 40.6495 89.1125 38.034 89.1125 35.309C89.1125 32.9118 90.2211 30.7323 92.3287 30.7323C94.7325 30.7317 95.786 33.5649 95.786 35.5817ZM106.051 38.2241L100.945 30.8943C100.838 30.7579 100.702 30.4038 100.432 30.4038C100.243 30.4038 99.8647 30.4589 99.4596 30.4589C98.9725 30.4589 98.298 30.4038 98.1354 30.4038C97.8378 30.4038 97.6483 30.4038 97.6483 30.6228C97.6483 30.8943 97.8922 30.8943 98.2167 30.8943C98.8912 30.8943 99 31.0582 99 32.3663V38.0064C99 40.2947 98.9463 40.3498 98.2704 40.4587C97.6483 40.54 97.5684 40.5675 97.5684 40.7576C97.5684 40.9753 97.7833 40.9753 97.8371 40.9753C98.1072 40.9753 98.783 40.9216 99.5664 40.9216C100.026 40.9216 100.592 40.9753 100.783 40.9753C100.891 40.9753 101.133 40.9753 101.133 40.7576C101.133 40.5124 101.052 40.5124 100.457 40.4862C99.7828 40.4036 99.594 40.241 99.594 37.7881L99.5127 31.984L99.5664 31.9564L105.97 40.894C106.238 41.2756 106.347 41.2756 106.455 41.2756C106.672 41.2756 106.672 40.9753 106.672 40.7852L106.644 31.9564C106.644 31.03 106.861 31.0024 107.428 30.9211C107.861 30.8936 107.996 30.8398 107.996 30.6484C107.996 30.4031 107.807 30.4031 107.726 30.4031C107.482 30.4031 106.348 30.4582 106.132 30.4582C105.915 30.4582 105.078 30.4031 104.916 30.4031C104.807 30.4031 104.537 30.4031 104.537 30.6222C104.537 30.866 104.781 30.8936 105.213 30.8936C105.835 30.9211 105.997 30.9211 106.024 32.9642L106.078 38.1697L106.051 38.2241ZM113.13 31.5493C113.13 30.9755 113.211 30.9755 114.076 30.9755C115.048 30.9755 115.805 30.9755 116.048 32.6108C116.102 32.9649 116.211 32.9649 116.291 32.9649C116.479 32.9649 116.507 32.7748 116.534 32.4476L116.642 30.3769C116.642 29.9678 116.642 29.6943 116.426 29.6943C116.318 29.6943 116.264 29.8045 116.211 29.9396C116.102 30.2399 116.048 30.4576 114.481 30.4576H109.646C109.322 30.4576 109.051 30.43 108.97 29.9947C108.943 29.8307 108.916 29.7494 108.781 29.7494C108.646 29.7494 108.619 29.8583 108.565 30.0497L107.944 32.4469C107.917 32.5282 107.889 32.6095 107.889 32.6921C107.889 32.801 107.97 32.9373 108.106 32.9373C108.241 32.9373 108.294 32.8547 108.429 32.5833C109.213 30.9742 110.212 30.9742 111.103 30.9742C111.401 30.9742 111.537 30.9742 111.537 31.4109V39.2856C111.537 39.9393 111.537 40.4022 110.779 40.4298C110.456 40.4849 110.239 40.4849 110.239 40.7301C110.239 40.974 110.455 40.974 110.564 40.974C110.86 40.974 112.077 40.9202 112.319 40.9202C112.833 40.9202 113.616 40.974 114.102 40.974C114.236 40.974 114.426 40.974 114.426 40.7301C114.426 40.4849 114.21 40.4573 113.885 40.4298C113.128 40.4022 113.128 39.9393 113.128 39.2305V31.5493H113.13Z" fill="black"/>
<path d="M36.6758 44H117.939" stroke="black" stroke-miterlimit="2.613"/>
<path fill-rule="evenodd" clip-rule="evenodd" d="M40.8663 34.463C40.8663 33.4015 40.2448 32.3924 39.3264 32.3924C38.0835 32.3924 36.9219 33.8369 36.9219 35.3082C36.9219 36.316 37.4896 37.3527 38.408 37.3527C39.0294 37.3527 39.7315 36.9173 40.1642 36.3986C40.5686 35.9075 40.8663 35.1712 40.8663 34.463ZM40.2717 33.9733C40.2717 35.1174 39.6234 37.1068 38.4886 37.1068C37.759 37.1068 37.5702 36.3704 37.5702 35.6347C37.5702 34.463 38.1917 32.6101 39.3801 32.6101C40.056 32.6101 40.2717 33.2651 40.2717 33.9733ZM43.1626 32.8278H43.8647C43.9191 32.8278 44.0273 32.8553 44.081 32.774C44.1079 32.7203 44.1079 32.6652 44.1079 32.6376C44.1079 32.5288 43.946 32.5563 43.9191 32.5563H43.2439L43.4058 31.9288C43.514 31.4659 43.6759 30.8398 43.946 30.4857C44.0273 30.3493 44.2161 30.1854 44.3787 30.1854C44.7569 30.1854 44.4324 30.9755 44.9732 30.9755C45.2164 30.9755 45.3515 30.7854 45.3515 30.5133C45.3515 30.0503 45.0277 29.8857 44.7032 29.8857C44.2974 29.8857 43.6766 30.2936 43.3796 30.6483C43.0283 31.1112 42.8395 31.7924 42.6776 32.3924L42.6507 32.5563H42.1374C41.9748 32.5563 41.8673 32.5563 41.8673 32.774C41.8673 32.8553 42.0292 32.8278 42.0836 32.8278H42.5701L41.4353 37.2694C41.3003 37.7598 41.0846 38.6587 40.8683 39.0686C40.7601 39.2587 40.5982 39.4502 40.4087 39.4502C40.2193 39.4502 40.2193 39.2862 40.2193 39.1223C40.2468 38.8233 40.138 38.5223 39.8417 38.5223C39.6254 38.5223 39.4635 38.7138 39.4635 38.959C39.4635 39.4495 39.923 39.6128 40.2737 39.6128C40.8145 39.6128 41.2465 39.2311 41.5166 38.7138C41.7867 38.2234 41.8949 37.7598 42.0574 37.2156L43.1626 32.8278Z" fill="black"/>
</svg>
