<svg width="126" height="44" viewBox="0 0 126 44" fill="none" xmlns="http://www.w3.org/2000/svg">
<path fill-rule="evenodd" clip-rule="evenodd" d="M37.1295 8.92144C36.6216 8.92144 36.0622 8.97159 35.5543 8.97159C34.6396 8.97159 33.7249 8.92144 32.861 8.92144V9.58047C33.674 9.58047 34.2327 9.68219 34.5887 10.0368C34.944 10.3412 35.0966 10.8985 35.0966 11.8112C35.0966 15.4609 34.8932 19.009 34.7915 22.6588C34.6898 26.156 33.6224 26.613 31.793 26.613V27.3222C32.9111 27.2713 34.0293 27.2713 35.1468 27.2713C36.1632 27.2713 37.2305 27.3222 38.2463 27.3222V26.613C37.2807 26.613 36.6202 26.5621 36.2141 26.1567C35.8079 25.8021 35.7062 25.0915 35.7062 23.7741V22.1516L35.9096 12.5719H35.9605C38.3487 17.5899 40.7878 22.5076 42.9217 27.5249H43.4303C43.6337 26.8651 44.0907 25.5478 44.3959 24.9396L50.2904 12.0139H50.3413L50.5447 24.585C50.5447 25.5993 50.3413 26.1051 49.8836 26.3594C49.4774 26.613 48.8163 26.613 47.9531 26.613V27.3222C49.173 27.2713 50.3921 27.2713 51.612 27.2713C52.9838 27.2713 54.3562 27.3222 55.7789 27.3222V26.613C53.2381 26.613 53.0855 26.0556 53.0346 24.0785C52.9329 20.0735 52.6793 15.663 52.6793 11.5067C52.6793 10.5941 52.8319 10.1887 53.1879 9.88492C53.4924 9.63134 54.102 9.58047 54.915 9.58047V8.92144C54.2037 8.92144 53.4415 8.97159 52.7302 8.97159C52.0698 8.97159 51.3585 8.92144 50.6464 8.92144C48.5634 13.8893 46.1243 18.7554 43.8887 23.6724L37.1295 8.92144ZM67.0594 8.1614H66.6017C66.2471 8.76958 65.687 9.07402 65.1791 9.3269C65.23 9.53033 65.23 9.73305 65.23 10.0368C65.23 10.7975 64.874 11.7603 64.6712 12.3685L61.4693 21.7963C61.1641 22.7591 60.8597 23.7734 60.4535 24.7362C59.844 26.2068 59.5388 26.4604 58.0145 26.6123V27.3214C59.0302 27.2706 60.0467 27.2706 61.0631 27.2706C62.0287 27.2706 63.0452 27.3214 64.0108 27.3214V26.6123H63.4513C62.5366 26.5614 61.7236 26.6123 61.7236 25.3952C61.7236 24.5843 62.0789 23.3672 62.384 22.2526L62.9435 20.3765H68.8381L70.1088 24.2297C70.2607 24.7362 70.4648 25.4468 70.4648 25.7498C70.4648 26.5098 69.7528 26.6123 69.0923 26.6123H68.636V27.3214C69.9068 27.2706 71.0751 27.2706 72.295 27.2706C73.2606 27.2706 74.2763 27.3214 75.1911 27.3214V26.6123C74.3787 26.6123 73.6667 26.4604 73.2613 25.9017C72.8544 25.3443 72.1933 23.0635 71.8373 22.0499L67.0594 8.1614ZM65.7378 11.5576H65.7887L68.4813 19.3127H63.2988L65.7378 11.5576ZM79.7633 24.7362C79.7633 26.5614 78.7977 26.6123 77.4775 26.6123V27.3214C78.7483 27.2706 79.9166 27.2706 81.0849 27.2706C82.2024 27.2706 83.2704 27.3214 84.4896 27.3214V26.6123C83.168 26.6123 82.2024 26.5614 82.2024 24.7362V11.5067C82.2024 9.63134 83.168 9.63133 84.4896 9.58047V8.92144C83.2188 8.92144 82.1014 8.97159 80.9316 8.97159C79.8142 8.97159 78.6459 8.92144 77.4768 8.92144V9.58047C78.797 9.63133 79.7626 9.63134 79.7626 11.5067L79.7633 24.7362ZM104.408 12.3176C104.408 9.73234 105.222 9.58047 106.746 9.58047V8.92144C105.781 8.92144 104.816 8.97159 103.85 8.97159C102.681 8.97159 101.512 8.92144 100.344 8.92144V9.58047C102.884 9.63133 103.393 10.3412 103.393 12.7739V23.2669C101.302 20.9391 99.2355 18.5901 97.1928 16.2203C94.3468 12.9251 92.0095 10.4924 90.9429 8.92144C90.2817 8.92144 89.5704 8.97159 88.9093 8.97159C88.1478 8.97159 87.385 8.92144 86.6235 8.92144V9.58047C88.7574 9.58047 89.6721 10.3914 89.6721 12.6729V23.2676C89.6721 26.613 88.5533 26.613 86.9781 26.613V27.3222C88.097 27.2713 89.2144 27.2713 90.3319 27.2713C91.4508 27.2713 92.5682 27.3222 93.6857 27.3222V26.613C90.9429 26.613 90.6879 25.9024 90.6879 22.2533V12.4186L103.799 27.5242H104.408V12.3176ZM113.962 9.73235H116.909C119.399 9.73235 120.517 10.4924 120.924 12.976L121.432 12.8241V8.92144C118.992 8.97159 116.604 8.97159 114.165 8.97159C112.489 8.97159 110.811 8.97159 109.135 8.92144V9.58047C111.117 9.68219 111.523 9.7832 111.523 11.9122V23.6215C111.523 26.2068 111.319 26.6123 109.135 26.6123V27.3214C110.965 27.2706 112.845 27.2706 114.673 27.2706C117.215 27.2706 119.704 27.3214 122.194 27.3214C122.448 25.9525 122.856 24.5843 123.261 23.2669L122.651 23.1645C121.687 26.0041 120.568 26.3071 118.078 26.4604H116.553C114.065 26.4604 113.962 25.6989 113.962 22.8099V18.2984H116.655C118.586 18.2984 119.399 18.2984 119.399 20.8328H119.856C119.907 20.0219 119.806 18.7547 119.806 17.9438C119.806 16.981 119.856 15.5612 119.856 14.9531H119.399C119.297 15.5612 119.297 17.2339 117.265 17.2339H113.962V9.73235ZM34.4362 4.40991C34.4362 5.06895 34.4362 5.1191 34.0802 5.16996H33.775C33.7242 5.22082 33.7242 5.37269 33.775 5.42354H36.1131C36.1639 5.37269 36.1639 5.22082 36.1131 5.16996H35.8588C35.5035 5.1191 35.5035 5.06824 35.5035 4.40991V1.21646C35.5035 1.06459 35.5035 1.01302 35.6561 1.01302H36.1131C36.6209 1.01302 36.7227 1.36832 36.8752 1.82393C36.8752 1.87479 37.0787 1.87479 37.1288 1.77378C37.1288 1.36832 37.1797 0.8103 37.2305 0.556716C37.2305 0.556716 37.1797 0.505859 37.1288 0.505859C37.078 0.505859 37.078 0.505858 37.0271 0.556716C36.9762 0.708584 36.8745 0.708581 36.3659 0.708581H33.7235C33.164 0.708581 33.164 0.657726 33.1139 0.556716C33.1139 0.505858 33.063 0.505859 33.0121 0.505859C32.9613 0.505859 32.9613 0.505858 32.9104 0.556716C32.8596 0.8103 32.8087 1.26661 32.707 1.77378C32.707 1.87479 32.8596 1.87479 32.9613 1.82393C33.1647 1.31676 33.3166 1.01302 33.8252 1.01302H34.2822C34.4348 1.01302 34.4348 1.06388 34.4348 1.21646V4.40991H34.4362ZM42.1094 3.1427C42.4145 3.1427 42.4145 3.1427 42.4145 3.34543V4.40991C42.4145 5.06895 42.3637 5.1191 42.0585 5.16996H41.9066C41.8836 5.18214 41.8643 5.20039 41.8508 5.22273C41.8373 5.24507 41.8302 5.27066 41.8302 5.29675C41.8302 5.32284 41.8373 5.34843 41.8508 5.37077C41.8643 5.39312 41.8836 5.41136 41.9066 5.42354H43.9897C44.0406 5.37269 44.0406 5.22082 43.9897 5.16996H43.7863C43.4811 5.1191 43.431 5.06824 43.431 4.40991V1.72292C43.431 1.06388 43.4811 1.01302 43.7863 0.962872L43.9388 0.912015C43.9897 0.861157 43.9897 0.709288 43.9388 0.65843C43.6344 0.709288 43.2784 0.709287 42.9231 0.709287C42.6179 0.709287 42.2626 0.709288 41.8558 0.65843C41.8049 0.709288 41.8049 0.861157 41.8558 0.912015L42.0592 0.962872C42.3644 1.01302 42.4152 1.06459 42.4152 1.72292V2.53382C42.4152 2.73654 42.4152 2.7874 42.1101 2.7874H40.6366C40.3315 2.7874 40.3315 2.73654 40.3315 2.53382V1.72292C40.3315 1.06388 40.3823 1.01302 40.6875 0.962872L40.8393 0.912015C40.8902 0.861157 40.8902 0.709288 40.8393 0.65843C40.484 0.709288 40.128 0.709287 39.8236 0.709287C39.4683 0.709287 39.1123 0.709288 38.7563 0.65843C38.7054 0.709288 38.7054 0.861157 38.7563 0.912015L38.9088 0.962872C39.2641 1.01302 39.2641 1.06459 39.2641 1.72292V4.40991C39.2641 5.06895 39.2641 5.1191 38.9088 5.16996H38.7563C38.7054 5.22082 38.7054 5.37269 38.7563 5.42354H40.8902C40.9133 5.41136 40.9326 5.39312 40.946 5.37077C40.9595 5.34843 40.9666 5.32284 40.9666 5.29675C40.9666 5.27066 40.9595 5.24507 40.946 5.22273C40.9326 5.20039 40.9133 5.18214 40.8902 5.16996H40.6875C40.3823 5.1191 40.3315 5.06824 40.3315 4.40991V3.34543C40.3315 3.1427 40.3315 3.1427 40.6366 3.1427H42.1094ZM47.3435 1.31746C47.3435 1.01302 47.3435 1.01302 47.5469 1.01302H48.1572C48.4617 1.01302 48.716 1.11474 48.8177 1.26661C48.9201 1.36832 49.0211 1.57105 49.1228 1.82393C49.1737 1.87479 49.3262 1.87479 49.3771 1.77378C49.3262 1.31747 49.2747 0.810298 49.2747 0.65843C49.173 0.709288 48.7668 0.709287 48.3091 0.709287H46.7848C46.4803 0.709287 46.1243 0.709288 45.769 0.65843C45.7182 0.709288 45.6673 0.861157 45.769 0.912015L45.9209 0.962872C46.2769 1.01302 46.2769 1.06459 46.2769 1.72292V4.40991C46.2769 5.01809 46.2769 5.06895 45.9209 5.1191L45.6157 5.16996C45.5927 5.18214 45.5734 5.20039 45.5599 5.22273C45.5464 5.24507 45.5393 5.27066 45.5393 5.29675C45.5393 5.32284 45.5464 5.34843 45.5599 5.37077C45.5734 5.39312 45.5927 5.41136 45.6157 5.42354H49.4273C49.529 5.22082 49.6816 4.66279 49.7324 4.3082C49.6816 4.20648 49.529 4.15633 49.4788 4.25734C49.072 5.06824 48.8177 5.06825 48.2088 5.06825C47.6493 5.06825 47.5476 5.01738 47.4466 4.91638C47.3449 4.7638 47.3449 4.56108 47.3449 4.20648V3.34472C47.3449 3.142 47.3449 3.142 47.5483 3.142H48.0054C48.4122 3.142 48.4624 3.19215 48.5648 3.54745V3.75017C48.6157 3.80103 48.8184 3.80103 48.8699 3.69932C48.8191 3.49659 48.8191 3.24301 48.8191 2.93927C48.8191 2.68569 48.8191 2.4321 48.8699 2.17852C48.8191 2.12766 48.6164 2.12766 48.5648 2.17852V2.38125C48.4631 2.73584 48.4122 2.7867 48.0054 2.7867H47.5462C47.3428 2.7867 47.3428 2.73584 47.3428 2.53311L47.3435 1.31746ZM54.8133 3.49729C54.8133 4.3082 54.9658 4.81537 55.3211 5.1191C55.728 5.42354 56.185 5.52455 56.7437 5.52455C57.3032 5.52455 57.8619 5.37268 58.1671 5.01809C58.5732 4.56178 58.6241 3.95361 58.6241 3.29457V2.48367C58.6241 1.92564 58.6749 1.36832 58.7258 1.1656C58.7766 1.01303 58.9292 0.962872 59.1327 0.962872L59.2344 0.912015C59.2852 0.861157 59.2852 0.709288 59.2344 0.65843C58.9801 0.709288 58.7258 0.709287 58.4213 0.709287C58.1678 0.709287 57.8626 0.709288 57.5066 0.65843C57.4558 0.709288 57.4049 0.861157 57.5066 0.912015L57.6592 0.962872C57.8626 0.962872 58.0152 1.01303 58.1162 1.1656C58.1671 1.36832 58.2179 1.92564 58.2179 2.48367V3.34543C58.2179 4.35906 57.9128 5.1191 56.998 5.1191C55.9307 5.1191 55.829 4.20648 55.829 3.39558V1.72292C55.829 1.06388 55.8799 1.01302 56.185 0.962872L56.3376 0.912015C56.3607 0.899831 56.38 0.881587 56.3934 0.859245C56.4069 0.836903 56.414 0.811307 56.414 0.78522C56.414 0.759133 56.4069 0.733543 56.3934 0.711201C56.38 0.688858 56.3607 0.670614 56.3376 0.65843C56.0324 0.709288 55.6764 0.709287 55.3211 0.709287C54.9658 0.709287 54.6098 0.709288 54.2538 0.65843C54.203 0.709288 54.203 0.861157 54.2538 0.912015L54.4064 0.962872C54.7617 1.01302 54.8133 1.06459 54.8133 1.72292V3.49729ZM65.2307 2.48367C65.2307 1.92564 65.2307 1.36832 65.3331 1.1656C65.3825 1.01303 65.5358 0.962872 65.7385 0.962872L65.841 0.912015C65.8918 0.861157 65.8918 0.709288 65.841 0.65843C65.5874 0.709288 65.3331 0.709287 65.0286 0.709287C64.7751 0.709287 64.4685 0.709288 64.063 0.65843C64.063 0.709288 64.0122 0.861157 64.063 0.912015L64.2658 0.962872C64.4685 0.962872 64.6218 1.01303 64.6726 1.1656C64.7751 1.36832 64.8245 1.92564 64.8245 2.48367V3.49729C64.8245 3.59901 64.8245 3.75088 64.7751 3.80174C64.6218 3.64987 64.4191 3.39629 64.063 2.99084L63.5036 2.28165C62.8425 1.5209 62.3854 1.01444 62.2837 0.659842C62.1312 0.7107 61.9277 0.710699 61.6741 0.710699C61.4199 0.710699 61.0638 0.7107 60.7085 0.659842C60.6577 0.7107 60.6068 0.862569 60.6577 0.913427L60.8611 0.964284C61.1154 1.01444 61.2171 1.066 61.268 1.21787C61.3188 1.31888 61.3188 1.42059 61.3188 1.82605V3.59901C61.3188 4.20719 61.3188 4.71436 61.2171 4.91708C61.1663 5.06895 61.0137 5.11981 60.8611 5.16996H60.7085C60.6577 5.22082 60.6577 5.37269 60.7085 5.42354H62.4865C62.5373 5.37269 62.5373 5.22082 62.4865 5.16996H62.2837C62.0803 5.1191 61.9277 5.06824 61.8769 4.91708C61.7752 4.71436 61.7751 4.20719 61.7751 3.59901V2.23008V1.77378C61.9277 1.87479 62.182 2.17923 62.5882 2.68569L64.2135 4.71365C64.5695 5.16996 64.8231 5.52385 64.8231 5.52385C64.9764 5.52385 65.1791 5.42284 65.23 5.37198L65.2307 2.48367ZM68.9913 1.72363C68.9913 1.06459 69.0408 1.01373 69.3473 0.963578L69.5501 0.912721C69.6009 0.861863 69.6009 0.709994 69.5501 0.659136C69.1432 0.709994 68.7872 0.709993 68.482 0.709993C68.1275 0.709993 67.7714 0.709994 67.3646 0.659136C67.3137 0.709994 67.3137 0.861863 67.3646 0.912721L67.5673 0.963578C67.9233 1.01373 67.9742 1.0653 67.9742 1.72363V4.35976C67.9742 5.0188 67.9233 5.06895 67.5673 5.17067H67.3646C67.3137 5.22152 67.3137 5.37339 67.3646 5.42425H69.5501C69.6009 5.37339 69.6009 5.22152 69.5501 5.17067H69.3473C69.0408 5.06895 68.9913 5.0188 68.9913 4.35976V1.72363ZM74.7842 2.38266C75.0378 1.82463 75.2405 1.41918 75.3938 1.21716C75.4948 1.06529 75.5965 1.01373 75.7484 0.963578L75.9525 0.912721C76.0034 0.861863 76.0034 0.709994 75.9525 0.659136C75.7484 0.709994 75.5457 0.709993 75.2914 0.709993C74.9862 0.709993 74.7326 0.709994 74.3766 0.659136C74.3258 0.709994 74.3258 0.861863 74.3766 0.912721L74.5793 0.963578C74.7326 1.01373 74.7835 1.01373 74.7835 1.0653C74.7835 1.11616 74.7326 1.21716 74.6811 1.36974C74.6302 1.57246 74.3251 2.38336 74.1223 2.83967L73.8688 3.49871C73.7663 3.75229 73.7155 3.90416 73.6138 4.05673C73.5531 3.86828 73.4855 3.68215 73.411 3.49871L72.8014 1.8769C72.5987 1.47145 72.4963 1.16772 72.4963 1.11686C72.4963 1.01514 72.5471 0.96499 72.7004 0.96499L72.9032 0.914133C72.954 0.863275 72.954 0.711406 72.9032 0.660548C72.4454 0.711406 72.1403 0.711405 71.7843 0.711405C71.4297 0.711405 71.1747 0.660548 70.8201 0.660548C70.7692 0.711406 70.7692 0.863275 70.8201 0.914133L71.0228 0.96499C71.328 1.06671 71.328 1.01514 71.6324 1.72504L72.8007 4.66491C72.9032 4.91849 73.0035 5.27309 73.1059 5.47581C73.1567 5.52596 73.2083 5.52596 73.3086 5.52596C73.411 5.52596 73.4619 5.52596 73.5127 5.47581C73.7155 5.07036 73.8687 4.51304 74.2742 3.65128L74.7842 2.38266ZM78.6459 1.31746C78.6459 1.01302 78.6459 1.01302 78.8995 1.01302H79.4582C79.8142 1.01302 80.0678 1.11474 80.1702 1.26661C80.2726 1.36832 80.3729 1.57105 80.4753 1.82393C80.5262 1.87479 80.6781 1.87479 80.7289 1.77378C80.6781 1.31747 80.6265 0.810298 80.6265 0.65843C80.5255 0.709288 80.1186 0.709287 79.6623 0.709287H78.138C77.782 0.709287 77.4768 0.709288 77.1215 0.65843C77.0985 0.670614 77.0792 0.688858 77.0657 0.711201C77.0522 0.733543 77.0451 0.759133 77.0451 0.78522C77.0451 0.811307 77.0522 0.836903 77.0657 0.859245C77.0792 0.881587 77.0985 0.899831 77.1215 0.912015L77.2734 0.962872C77.5786 1.01302 77.6294 1.06459 77.6294 1.72292V4.40991C77.6294 5.01809 77.5786 5.06895 77.2734 5.1191L76.9188 5.16996C76.868 5.22082 76.868 5.37269 76.9188 5.42354H80.7805C80.8829 5.22082 81.0341 4.66279 81.0856 4.3082C81.0348 4.20648 80.8829 4.15633 80.7805 4.25734C80.4245 5.06824 80.1709 5.06825 79.5606 5.06825C79.0019 5.06825 78.8994 5.01738 78.7977 4.91638C78.6967 4.7638 78.6459 4.56108 78.6459 4.20648V3.34472C78.6459 3.142 78.6967 3.142 78.8486 3.142H79.3579C79.7633 3.142 79.8142 3.19215 79.9166 3.54745V3.75017C79.9675 3.80103 80.1702 3.80103 80.2218 3.69932C80.1709 3.49659 80.1709 3.24301 80.1709 2.93927C80.1709 2.68569 80.1709 2.4321 80.2218 2.17852C80.1709 2.12766 79.9682 2.12766 79.9166 2.17852V2.38125C79.8142 2.73584 79.7633 2.7867 79.3579 2.7867H78.8486C78.6967 2.7867 78.6459 2.73584 78.6459 2.53311V1.31746ZM83.1171 4.40991C83.1171 5.01809 83.0663 5.06895 82.7611 5.16996H82.5584C82.5075 5.22082 82.5075 5.37269 82.5584 5.42354H84.6422C84.693 5.37269 84.693 5.22082 84.6422 5.16996H84.4394C84.1343 5.06824 84.0834 5.01809 84.0834 4.40991V3.49729C84.0834 3.34543 84.1343 3.34543 84.3886 3.34543C84.5419 3.34543 84.6422 3.39558 84.7446 3.59831C84.8965 3.9529 85.0497 4.3082 85.3033 4.71365C85.6085 5.22011 86.0153 5.4737 86.6758 5.4737C86.9294 5.4737 87.1321 5.42284 87.2839 5.37198C87.2839 5.37198 87.284 5.22011 87.2345 5.22011C87.1321 5.22011 86.9294 5.16925 86.7768 5.01738C86.4208 4.71365 86.1156 4.15563 85.6593 3.24301C85.6085 3.142 85.6085 3.09114 85.6593 3.04028C86.0153 2.88771 86.4208 2.63483 86.4208 1.97579C86.4208 1.51948 86.2181 1.16489 85.8112 0.911309C85.5576 0.759441 84.9989 0.657724 84.3886 0.657724C83.7274 0.657724 83.1687 0.70858 82.61 0.759438C82.5591 0.759438 82.5591 0.962166 82.61 0.962166L82.8127 1.01232C83.1178 1.06317 83.1178 1.11403 83.1178 1.87408L83.1171 4.40991ZM84.0827 1.36903C84.1336 1.01373 84.1336 1.01373 84.3879 1.01373C84.9466 1.01373 85.3535 1.41918 85.3535 2.07892C85.3535 2.48438 85.2002 2.68639 85.0999 2.83897C84.9466 2.99083 84.7947 3.04169 84.5412 3.04169C84.1343 3.04169 84.0834 2.99084 84.0834 2.73725L84.0827 1.36903ZM91.7051 4.05532C91.7051 3.29457 91.1463 2.88912 90.6886 2.63624L90.2323 2.38266C89.8763 2.17993 89.5711 1.92635 89.5711 1.57175C89.5711 1.21716 89.8247 0.912721 90.2832 0.912721C90.791 0.912721 91.147 1.41918 91.2488 1.77448C91.2982 1.87549 91.5023 1.87549 91.5023 1.77448C91.5023 1.31817 91.4515 0.912718 91.3999 0.760144C91.2975 0.760144 91.248 0.709287 91.1463 0.709287C90.8412 0.607571 90.5876 0.557422 90.3326 0.557422C89.3169 0.557422 88.6564 1.11544 88.6564 1.92635C88.6564 2.63624 89.2151 3.09184 89.7739 3.34613C90.1807 3.54886 90.7395 3.90346 90.7395 4.46077C90.7395 4.81537 90.4859 5.22152 89.978 5.22152C89.3684 5.22152 88.8591 4.56249 88.7073 4.05603C88.6564 4.00517 88.5031 4.00517 88.4537 4.10689C88.4537 4.5632 88.5547 5.12051 88.6564 5.27238C88.8097 5.32324 89.2151 5.52526 89.8763 5.52526C90.993 5.52455 91.7051 4.96723 91.7051 4.05532ZM94.9571 1.72363C94.9571 1.06459 95.008 1.01373 95.364 0.963578L95.5173 0.912721C95.6183 0.861863 95.6183 0.709994 95.5173 0.659136C95.1613 0.709994 94.8053 0.709993 94.4493 0.709993C94.0933 0.709993 93.7373 0.709994 93.3827 0.659136C93.3318 0.709994 93.3318 0.861863 93.3827 0.912721L93.5854 0.963578C93.8905 1.01373 93.9414 1.0653 93.9414 1.72363V4.35976C93.9414 5.0188 93.8905 5.06895 93.5854 5.17067H93.3827C93.3318 5.22152 93.3318 5.37339 93.3827 5.42425H95.5173C95.5667 5.37339 95.6183 5.22152 95.5173 5.17067H95.364C95.008 5.06895 94.9571 5.0188 94.9571 4.35976V1.72363ZM98.8195 4.40991C98.8195 5.06895 98.7687 5.1191 98.4635 5.16996H98.1075C98.0566 5.22082 98.0566 5.37269 98.1075 5.42354H100.496C100.547 5.37269 100.547 5.22082 100.496 5.16996H100.191C99.8854 5.1191 99.8346 5.06824 99.8346 4.40991V1.21646C99.8346 1.06459 99.8854 1.01302 100.039 1.01302H100.444C101.003 1.01302 101.105 1.36832 101.207 1.82393C101.258 1.87479 101.461 1.87479 101.512 1.77378C101.461 1.36832 101.512 0.8103 101.613 0.556716C101.564 0.556716 101.512 0.505859 101.512 0.505859C101.461 0.505859 101.41 0.505858 101.41 0.556716C101.359 0.708584 101.207 0.708581 100.749 0.708581H98.1068C97.5481 0.708581 97.4972 0.657726 97.4972 0.556716C97.4464 0.505858 97.3948 0.505859 97.3948 0.505859C97.3439 0.505859 97.2938 0.505858 97.2938 0.556716C97.2429 0.8103 97.1914 1.26661 97.0388 1.77378C97.0896 1.87479 97.2429 1.87479 97.2938 1.82393C97.5474 1.31676 97.6992 1.01302 98.2085 1.01302H98.6648C98.8181 1.01302 98.8181 1.06388 98.8181 1.21646V4.40991H98.8195ZM105.577 3.90345C105.577 3.498 105.68 3.29528 105.832 2.94069L106.289 2.12978C106.645 1.5216 106.847 1.26802 106.95 1.11615C107.001 1.01444 107.152 0.964284 107.306 0.964284L107.458 0.913427C107.508 0.862569 107.508 0.7107 107.458 0.659842C107.255 0.7107 107.001 0.710699 106.746 0.710699C106.492 0.710699 106.238 0.7107 105.933 0.659842C105.882 0.7107 105.882 0.862569 105.933 0.913427L106.087 0.964284C106.238 0.964284 106.34 1.01444 106.34 1.066C106.34 1.11686 106.238 1.37044 105.984 1.8769C105.781 2.2315 105.577 2.63765 105.375 2.99225C105.272 2.84038 105.121 2.53594 105.019 2.33321L104.713 1.52231C104.562 1.21857 104.511 1.11686 104.511 1.066C104.511 1.01515 104.562 1.01514 104.663 0.964284L104.918 0.913427C104.967 0.862569 104.967 0.7107 104.918 0.659842C104.663 0.7107 104.308 0.710699 103.85 0.710699C103.443 0.710699 103.188 0.7107 102.833 0.659842C102.784 0.7107 102.732 0.862569 102.833 0.913427L103.088 0.964284C103.291 1.01444 103.393 1.11615 103.544 1.4206L104.357 3.19498C104.561 3.54957 104.561 3.65128 104.561 4.00587V4.41133C104.561 5.07036 104.51 5.12051 104.205 5.17137H103.951C103.9 5.22223 103.9 5.3741 103.951 5.42496H106.237C106.288 5.3741 106.288 5.22223 106.237 5.17137H105.983C105.627 5.12051 105.577 5.06966 105.577 4.41133L105.577 3.90345ZM114.216 0.557422C112.692 0.557422 111.675 1.67276 111.675 3.09184C111.675 4.56178 112.691 5.52455 114.165 5.52455C115.689 5.52455 116.757 4.61264 116.757 3.04099C116.758 1.57176 115.69 0.557422 114.216 0.557422ZM115.588 3.1427C115.588 4.3082 115.233 5.22082 114.268 5.22082C113.099 5.22082 112.794 3.80174 112.794 2.93998C112.794 1.72292 113.25 0.912015 114.165 0.912015C115.029 0.912721 115.588 1.92635 115.588 3.1427ZM120.111 1.31746C120.111 1.01302 120.111 1.01302 120.314 1.01302H120.873C121.229 1.01302 121.482 1.11474 121.585 1.26661C121.687 1.36832 121.737 1.51949 121.788 1.82393C121.89 1.87479 122.041 1.87479 122.093 1.77378C122.042 1.31747 122.042 0.810298 122.042 0.65843C121.941 0.709288 121.534 0.709287 121.076 0.709287H119.603C119.247 0.709287 118.892 0.709288 118.587 0.65843C118.485 0.709288 118.485 0.861157 118.536 0.912015L118.688 0.962872C119.044 1.01302 119.044 1.06459 119.044 1.72292V4.40991C119.044 5.06895 119.044 5.1191 118.688 5.16996H118.485C118.462 5.18214 118.443 5.20039 118.429 5.22273C118.416 5.24507 118.409 5.27066 118.409 5.29675C118.409 5.32284 118.416 5.34843 118.429 5.37077C118.443 5.39312 118.462 5.41136 118.485 5.42354H120.722C120.771 5.37269 120.771 5.22082 120.722 5.16996H120.467C120.112 5.1191 120.112 5.06824 120.112 4.40991V3.39558C120.112 3.24371 120.112 3.19285 120.315 3.19285H120.823C121.23 3.19285 121.28 3.24371 121.381 3.59831L121.432 3.80174C121.482 3.85259 121.636 3.85259 121.687 3.75088V3.04169V2.28094C121.636 2.17922 121.482 2.17922 121.432 2.23008L121.381 2.43281C121.28 2.7874 121.229 2.83826 120.822 2.83826H120.314C120.111 2.83826 120.111 2.78741 120.111 2.63554V1.31746Z" fill="black"/>
<path fill-rule="evenodd" clip-rule="evenodd" d="M1.05078 28.2852C1.05078 28.2852 9.79129 31.1742 14.11 36.0926C14.2117 36.1936 14.11 28.2852 14.11 28.2852H1.05078ZM27.3225 28.2852C27.3225 28.2852 18.5311 31.1742 14.2117 36.0926C14.1608 36.1936 14.2117 28.2852 14.2117 28.2852H27.3225Z" fill="black" stroke="#003562" stroke-width="2.14001" stroke-miterlimit="2.613"/>
<path fill-rule="evenodd" clip-rule="evenodd" d="M1.05078 6.94434H27.3225V27.1703H1.05078V6.94434Z" fill="black"/>
<path fill-rule="evenodd" clip-rule="evenodd" d="M19.3426 26.6112V14.091C20.3591 14.091 24.119 11.5566 25.3898 8.00781V20.0209C25.3898 21.1369 24.831 21.6434 24.1197 22.5553C22.6455 24.3806 21.4257 25.1922 19.3426 26.6112ZM2.98047 26.6112V14.091C3.94606 14.091 7.75688 11.5566 8.97676 8.00781V20.0209C8.97676 21.1369 8.41803 21.6434 7.70673 22.5553C6.23255 24.3806 5.01267 25.1922 2.98047 26.6112Z" fill="white"/>
<path fill-rule="evenodd" clip-rule="evenodd" d="M9.78906 30.9723V14.7515C11.2117 14.7515 16.7502 11.4054 18.5289 6.84375V22.4565C18.5289 23.8762 17.7667 24.5339 16.7001 25.7001C14.5655 28.0826 12.7869 29.1471 9.78906 30.9723Z" fill="white" stroke="white" stroke-width="2.43832" stroke-miterlimit="2.613"/>
<path fill-rule="evenodd" clip-rule="evenodd" d="M1 0H27.2208V5.9306H1V0Z" fill="black"/>
<path fill-rule="evenodd" clip-rule="evenodd" d="M4.9625 5.06857C4.30205 5.06857 4.2512 4.9167 4.2512 4.4604V0.760477H4.14948L2.52344 1.47037V1.62223C2.72616 1.52052 2.92959 1.47037 3.03131 1.47037C3.2856 1.47037 3.2856 1.72324 3.2856 1.92667V4.41095C3.2856 4.8164 3.2856 5.06998 2.52344 5.06998V5.22185H4.9625V5.06857ZM9.94305 1.46966C9.94305 1.16522 10.1465 0.911636 10.4509 0.911636C10.9588 0.911636 11.0605 1.36795 11.0605 1.72254C11.0605 2.12799 10.9588 2.28056 10.8062 2.48329C10.7052 2.43314 9.94305 2.07855 9.94305 1.46966ZM10.6035 0.759766C9.53619 0.759766 9.07917 1.31709 9.07917 1.92526C9.07917 2.43243 9.48603 2.83788 9.99391 3.14232C9.53689 3.24333 9.02831 3.49692 9.02831 4.20681C9.02831 4.96686 9.68876 5.32215 10.4001 5.32215C11.3148 5.32215 11.9251 4.81499 11.9251 4.00408C11.9251 3.39591 11.5182 2.9396 10.9595 2.5843C11.3155 2.48329 11.8234 2.2297 11.8234 1.67168C11.8227 1.31708 11.5684 0.759766 10.6035 0.759766ZM9.79048 4.20681C9.79048 3.7505 9.94305 3.54778 10.1458 3.24334C10.6028 3.54778 11.0097 3.80136 11.0097 4.35868C11.0097 4.51054 11.0097 5.11872 10.4502 5.11872C9.9932 5.11943 9.79048 4.66312 9.79048 4.20681ZM18.6828 0.759766C16.7008 0.911633 15.7861 2.17885 15.7861 3.3952C15.7861 4.96685 16.7008 5.32144 17.2595 5.32144C18.4787 5.32144 18.733 4.20611 18.733 3.85151C18.733 2.73617 17.9708 2.48258 17.5131 2.48258C17.208 2.48258 17.1063 2.53344 16.9544 2.58359C17.208 1.36724 18.021 1.0635 18.6821 0.91093V0.759766H18.6828ZM17.7173 4.20681C17.7173 4.71398 17.7173 5.16958 17.3104 5.16958C16.9042 5.16958 16.8025 4.76413 16.8025 3.44606C16.8025 3.24333 16.8527 2.88803 16.8527 2.88803C16.9551 2.78702 17.0561 2.78702 17.1578 2.78702C17.6155 2.78773 17.7173 3.29419 17.7173 4.20681ZM23.3067 1.67238H25.1362L25.4413 0.810628H23.3074L22.6978 3.09146C23.1548 3.09146 23.6634 3.14232 24.1204 3.34505C24.4256 3.49692 24.7809 3.80136 24.7809 4.20681C24.7809 4.76413 24.3747 4.9167 24.1204 4.9167C23.7135 4.9167 23.3582 4.30852 22.9005 4.30852C22.5954 4.30852 22.4944 4.51125 22.4944 4.71397C22.4944 5.06857 22.9514 5.27129 23.46 5.27129C24.629 5.27129 25.2894 4.5614 25.2894 3.69964C25.289 3.458 25.2284 3.22027 25.1131 3.00791C24.9978 2.79555 24.8314 2.61525 24.629 2.48329C24.172 2.2297 23.7651 2.2297 23.2064 2.17885L23.3067 1.67238Z" fill="white"/>
<path fill-rule="evenodd" clip-rule="evenodd" d="M13.5025 38.3227L10.9617 41.7196C10.7583 42.0742 10.5555 42.2769 10.4538 42.3793C10.3521 42.4288 10.1995 42.4803 10.047 42.5312L9.99609 42.6322H11.2661L11.317 42.5312C11.1644 42.4803 11.0627 42.4803 11.0118 42.4288C10.961 42.3793 10.961 42.3278 10.961 42.2769V42.125C11.0118 42.0226 11.0627 41.9732 11.1644 41.8199L11.5706 41.2626H12.7905L12.7396 41.7704C12.7396 42.0226 12.6887 42.1759 12.6887 42.226C12.6513 42.3027 12.5995 42.3715 12.5362 42.4288C12.4345 42.4796 12.3327 42.5312 12.2317 42.5312H12.13V42.6322H13.7561L13.8069 42.5312C13.6543 42.5312 13.5526 42.4803 13.4516 42.4803L13.299 42.3285C13.2482 42.2776 13.2482 42.226 13.2482 42.1257C13.2482 42.0749 13.2482 41.9739 13.299 41.8206L13.6042 38.3234L13.5025 38.3227ZM12.842 41.0097H11.7747L12.9946 39.3363L12.842 41.0097ZM16.8054 38.4244L16.7546 38.5254C16.958 38.5763 17.0597 38.5763 17.1099 38.5763C17.1607 38.6271 17.2624 38.6773 17.3133 38.7281L16.3985 41.8707C16.3477 42.1243 16.2467 42.2762 16.1958 42.327C16.0941 42.4789 15.9415 42.5298 15.7388 42.5298H15.6879L15.6371 42.6308H17.0095L17.0604 42.5298C16.857 42.4789 16.7051 42.4789 16.6535 42.4274C16.6027 42.3779 16.5518 42.3263 16.5518 42.2246C16.5518 42.1752 16.6027 42.0219 16.6535 41.8192L17.4164 39.1844L17.8226 42.6308H17.9243L20.3633 39.1844L19.7022 41.6165C19.6399 41.8444 19.5547 42.0654 19.4479 42.2762C19.3978 42.327 19.3462 42.4281 19.296 42.4281C19.1943 42.4789 19.0926 42.5305 18.9407 42.5305H18.839V42.6315H20.6176V42.5305H20.5668C20.3633 42.5305 20.2616 42.4796 20.1599 42.4281C20.1091 42.3786 20.1091 42.327 20.1091 42.2253C20.1091 42.1243 20.1091 42.0226 20.1599 41.8707L20.9221 39.1844C21.0238 38.9817 21.0747 38.8299 21.1255 38.7281C21.1764 38.6773 21.2279 38.6271 21.3289 38.5763C21.3289 38.5763 21.4815 38.5763 21.6842 38.5254V38.4244H20.6678L18.2287 41.8199L17.8727 38.4244H16.8054ZM22.8526 41.2626C23.2086 41.1107 23.4622 40.9588 23.6656 40.7561C23.8175 40.6042 23.869 40.451 23.869 40.2482C23.869 40.1472 23.8182 40.0455 23.7164 39.9445C23.6147 39.8421 23.412 39.8421 23.2086 39.8421C22.9034 39.8421 22.5983 39.8929 22.344 40.0957C22.0234 40.2555 21.771 40.5253 21.6327 40.8557C21.4292 41.1608 21.3275 41.4639 21.3275 41.769C21.3275 42.0212 21.3784 42.2246 21.5811 42.4274C21.7337 42.5806 21.9371 42.6809 22.2423 42.6809C22.6993 42.6809 23.157 42.4274 23.6656 41.9717L23.5632 41.8693C23.3096 42.0721 23.1061 42.2239 22.9536 42.2748C22.801 42.3256 22.6993 42.3772 22.5467 42.3772C22.3433 42.3772 22.1914 42.3263 22.0388 42.1745C21.9371 42.0721 21.8863 41.8693 21.8863 41.7182V41.4646C22.2931 41.4144 22.6491 41.3643 22.8526 41.2626ZM22.4464 40.2991C22.6491 40.0964 22.9034 39.9954 23.1069 39.9954C23.2093 39.9954 23.2594 39.9954 23.3103 40.0448C23.412 40.0957 23.412 40.1981 23.412 40.2475C23.412 40.4008 23.3611 40.5527 23.2086 40.7038C23.1061 40.8557 22.9034 41.009 22.6491 41.1093C22.4464 41.2103 22.1921 41.2612 21.887 41.312C22.0395 40.8571 22.1921 40.5534 22.4464 40.2991ZM24.2752 39.9961V40.1479C24.4277 40.0971 24.4786 40.0971 24.5295 40.0971C24.5803 40.0971 24.6312 40.0971 24.682 40.1479C24.682 40.1988 24.7329 40.2489 24.7329 40.2489C24.7329 40.2998 24.7329 40.2998 24.682 40.3514L24.6312 40.6049L24.0717 42.6315H24.5288C24.7322 42.0233 24.8339 41.6172 24.8848 41.5169C24.9865 41.2633 25.1383 41.0605 25.3418 40.7568C25.5445 40.5032 25.6971 40.3514 25.7988 40.2489C25.9005 40.1995 25.9507 40.1995 26.0524 40.1995H26.1032C26.1541 40.2489 26.1541 40.3005 26.1541 40.3514C26.1541 40.4022 26.1032 40.5541 26.0524 40.7568L25.5438 42.6315H26.0008C26.1534 42.125 26.306 41.7196 26.4578 41.4144C26.7121 40.9588 26.9664 40.6049 27.2709 40.2998C27.3726 40.2489 27.4743 40.1988 27.5244 40.1988C27.5753 40.1988 27.5753 40.1988 27.6261 40.2482C27.6261 40.2482 27.677 40.2991 27.677 40.3507C27.677 40.4022 27.677 40.4517 27.6261 40.4517C27.6261 40.5025 27.6261 40.6049 27.5244 40.8571L27.2709 41.8199C27.1691 42.125 27.1183 42.3278 27.1183 42.4281C27.1183 42.5305 27.1691 42.5813 27.22 42.6308C27.2708 42.6816 27.3217 42.6816 27.3726 42.6816C27.4743 42.6816 27.576 42.6816 27.6269 42.6308C27.7286 42.5813 27.8303 42.4789 27.9829 42.327C28.1347 42.1752 28.1863 42.0735 28.2364 41.9725L28.1347 41.9216C28.0459 42.0503 27.9436 42.1692 27.8296 42.2762C27.7787 42.327 27.7279 42.327 27.7279 42.327H27.677C27.6262 42.2762 27.6261 42.2762 27.6261 42.2246C27.6261 42.2246 27.677 42.0728 27.7279 41.8192L28.0832 40.6035C28.134 40.4503 28.134 40.3499 28.134 40.1981C28.134 40.0957 28.134 39.9954 28.0323 39.8929C27.9814 39.8421 27.9306 39.8421 27.8289 39.8421C27.6763 39.8421 27.4736 39.8929 27.321 40.0448C27.0166 40.2984 26.7114 40.7045 26.3554 41.3636L26.609 40.5527C26.609 40.4008 26.6598 40.2991 26.6598 40.1472C26.6598 40.0448 26.609 39.9954 26.5581 39.8936C26.5073 39.8428 26.4056 39.8428 26.3038 39.8428C26.1513 39.8428 26.0496 39.8428 25.9478 39.8936C25.7444 40.0455 25.5925 40.1988 25.3884 40.451C25.2139 40.6903 25.061 40.9447 24.9314 41.211L25.3382 39.8421L24.2752 39.9961ZM29.3059 38.3735V38.5254C29.3567 38.4746 29.4584 38.4746 29.5093 38.4746C29.611 38.4746 29.6619 38.5254 29.7127 38.5254C29.7127 38.5763 29.7636 38.6278 29.7636 38.6773C29.7636 38.7281 29.7127 38.88 29.6619 39.0827L28.6963 42.3278C29.0516 42.5813 29.3567 42.6824 29.6619 42.6824C29.967 42.6824 30.2213 42.5813 30.5258 42.4288C30.8004 42.2134 31.0403 41.957 31.2371 41.6687C31.4405 41.3141 31.4906 41.0104 31.4906 40.6544C31.4906 40.4022 31.4398 40.1988 31.2872 40.0462C31.1346 39.8943 30.9821 39.8435 30.7278 39.8435C30.5752 39.8435 30.4226 39.8435 30.2708 39.9459C30.1189 39.9968 29.9656 40.1486 29.7629 40.3514L30.3725 38.2224L29.3059 38.3735ZM29.5602 41.0097C29.6619 40.7045 29.7636 40.5018 29.9663 40.3499C30.1698 40.1981 30.3223 40.0964 30.5258 40.0964C30.6783 40.0964 30.7801 40.1472 30.8811 40.2991C30.9319 40.4015 30.9828 40.5527 30.9828 40.7045C30.9828 41.0591 30.9319 41.3643 30.7793 41.6673C30.6268 41.9725 30.4742 42.2246 30.2708 42.327C30.0673 42.4789 29.9155 42.5298 29.712 42.5298C29.5595 42.5298 29.356 42.4789 29.1526 42.3779L29.5602 41.0097ZM33.4218 41.2626C33.7771 41.1107 34.0823 40.9588 34.2349 40.7561C34.3874 40.6042 34.4383 40.451 34.4383 40.2482C34.4383 40.1472 34.3874 40.0455 34.2857 39.9445C34.1833 39.8421 34.0314 39.8421 33.7771 39.8421C33.472 39.8421 33.2184 39.8929 32.9133 40.0957C32.6081 40.2475 32.4047 40.5011 32.202 40.8557C31.9985 41.1608 31.8968 41.4639 31.8968 41.769C31.8968 42.0212 31.9985 42.2246 32.1511 42.4274C32.3037 42.5806 32.5064 42.6809 32.8115 42.6809C33.2686 42.6809 33.7263 42.4274 34.2342 41.9717L34.1324 41.8693C33.8781 42.0721 33.6754 42.2239 33.5228 42.2748C33.4211 42.3256 33.2686 42.3772 33.116 42.3772C32.9126 42.3772 32.7607 42.3263 32.659 42.1745C32.5064 42.0721 32.4555 41.8693 32.4555 41.7182V41.4646C32.8631 41.4144 33.2191 41.3643 33.4218 41.2626ZM33.0157 40.2991C33.27 40.0964 33.4727 39.9954 33.6768 39.9954C33.7786 39.9954 33.8803 39.9954 33.9304 40.0448C33.9813 40.0957 33.9813 40.1981 33.9813 40.2475C33.9813 40.4008 33.9304 40.5527 33.8287 40.7038C33.6551 40.8789 33.4477 41.0168 33.2191 41.1093C33.0665 41.2103 32.8122 41.2612 32.5078 41.312C32.6088 40.8571 32.7614 40.5534 33.0157 40.2991ZM34.896 40.0964H35.0994C35.2012 40.0964 35.252 40.0964 35.252 40.1472C35.3029 40.1472 35.3029 40.1981 35.3029 40.1981C35.3029 40.2991 35.3029 40.4502 35.2012 40.7045L34.6417 42.6308H35.0987L35.2005 42.2253C35.2513 42.1759 35.3022 42.0226 35.353 41.8199C35.4547 41.6172 35.5056 41.4653 35.6066 41.3643C35.81 41.0097 35.9626 40.7561 36.166 40.5534C36.2678 40.451 36.3186 40.3507 36.4203 40.2998H36.5729V40.4022C36.5729 40.4517 36.6238 40.5032 36.6238 40.5541C36.6746 40.5541 36.7255 40.6049 36.7763 40.6049C36.8781 40.6049 36.9289 40.5541 36.9798 40.4517C37.0306 40.2998 37.0815 40.1995 37.0815 40.0462C37.0815 39.9968 37.0815 39.9452 37.0306 39.8943C36.9798 39.8435 36.9289 39.8435 36.8781 39.8435C36.7763 39.8435 36.6238 39.8943 36.4712 40.0462C36.166 40.2998 35.8107 40.706 35.4547 41.3141L35.9118 39.8435L34.8444 39.9968L34.896 40.0964ZM41.4002 40.0964C41.2476 39.8936 40.994 39.8428 40.7397 39.8428C40.4854 39.8428 40.1803 39.8936 39.8759 40.0964C39.5945 40.2681 39.3657 40.5139 39.2147 40.807C39.012 41.1107 38.9103 41.4137 38.9103 41.7189C38.9103 42.0226 39.012 42.2253 39.2147 42.4281C39.3673 42.5813 39.6216 42.6816 39.8759 42.6816C40.181 42.6816 40.4353 42.6308 40.7397 42.4281C41.0449 42.2762 41.2476 42.0226 41.451 41.7189C41.6029 41.4137 41.7046 41.1107 41.7046 40.807C41.7046 40.5025 41.6029 40.2482 41.4002 40.0964ZM40.7906 41.8707C40.537 42.3271 40.2827 42.5305 39.9776 42.5305C39.8274 42.5345 39.6815 42.48 39.5707 42.3786C39.469 42.2762 39.4181 42.125 39.4181 41.9223C39.4181 41.5169 39.5707 41.0598 39.825 40.6544C40.0793 40.1988 40.3837 39.9961 40.6889 39.9961C40.7906 39.9961 40.9425 40.0455 41.0442 40.1479C41.095 40.2489 41.1459 40.4015 41.1459 40.5534C41.1459 41.0097 41.0442 41.4653 40.7906 41.8707ZM43.3815 39.8936C43.5341 39.3872 43.6358 39.1336 43.6867 38.9817C43.7884 38.779 43.8901 38.5763 44.0427 38.4739C44.1444 38.3728 44.2454 38.3728 44.398 38.3728H44.4997C44.5505 38.3728 44.5505 38.4237 44.5505 38.4237C44.5505 38.4731 44.4997 38.4731 44.4997 38.5247C44.4488 38.5756 44.4488 38.6271 44.4488 38.6766C44.4488 38.7274 44.4997 38.779 44.4997 38.779C44.5505 38.8299 44.6014 38.8299 44.6523 38.8299C44.754 38.8299 44.8048 38.8299 44.8557 38.779C44.9066 38.7281 44.9066 38.6766 44.9066 38.5763C44.9066 38.5254 44.8557 38.4244 44.8048 38.3227C44.6783 38.2595 44.5394 38.225 44.398 38.2217C44.2454 38.2217 44.0928 38.2711 43.9403 38.3735C43.7368 38.4746 43.585 38.5763 43.4324 38.779C43.3307 38.9309 43.229 39.0827 43.0764 39.3363C43.0255 39.539 42.9238 39.6401 42.8729 39.7418C42.8221 39.7926 42.7712 39.8428 42.6695 39.8428C42.6187 39.8936 42.5169 39.8936 42.3135 39.8936L42.2626 40.0964H42.8214L42.2626 42.1752C42.1609 42.6816 42.0592 42.9847 42.0592 43.0362C42.0084 43.239 41.9074 43.3908 41.8558 43.5441C41.7541 43.6451 41.6523 43.7468 41.5506 43.7963C41.4489 43.8471 41.3981 43.8471 41.2971 43.8471H41.1953V43.7963C41.1953 43.7963 41.1953 43.7468 41.2462 43.7468C41.2971 43.696 41.2971 43.6444 41.2971 43.5936C41.2971 43.5441 41.2971 43.4926 41.2462 43.4926C41.1953 43.4417 41.1445 43.4417 41.0936 43.4417C41.0428 43.4417 40.941 43.4417 40.8902 43.4926C40.8393 43.5434 40.8393 43.5936 40.8393 43.6953C40.8393 43.7461 40.8393 43.8471 40.941 43.898C40.9919 43.9489 41.0936 43.999 41.2462 43.999C41.4496 43.999 41.6015 43.898 41.8049 43.7963C42.0592 43.5936 42.3135 43.2898 42.5162 42.8335C42.6688 42.5298 42.8214 42.0226 42.974 41.4646L43.3293 40.0957H43.7354L43.8371 39.8929L43.3815 39.8936ZM46.9388 39.0326C46.7862 39.3363 46.5835 39.5899 46.4309 39.6909C46.2783 39.7933 46.1257 39.8936 45.8714 39.9445V40.0964H46.3285L45.8206 41.8707C45.7189 42.1243 45.7189 42.2762 45.7189 42.3786C45.7189 42.4796 45.7189 42.5305 45.7697 42.6308C45.8206 42.6816 45.9216 42.6816 46.024 42.6816C46.1257 42.6816 46.2275 42.6308 46.3793 42.5806C46.5319 42.4782 46.7353 42.2755 46.8879 41.9725L46.7862 41.9216C46.6336 42.1243 46.5326 42.2762 46.4817 42.2762C46.3793 42.3786 46.3292 42.4281 46.2783 42.4281L46.2275 42.3786C46.1766 42.3786 46.1766 42.3278 46.1766 42.2762C46.1766 42.2246 46.2274 42.1243 46.2783 41.9216L46.7862 40.0964H47.2941L47.3449 39.8936H46.8363L47.0906 39.0326H46.9388ZM48.0061 38.4244V38.5254H48.0569C48.1078 38.4746 48.2095 38.4746 48.2095 38.4746C48.3112 38.4746 48.3614 38.5254 48.3614 38.577C48.4122 38.577 48.4631 38.6278 48.4631 38.678L48.3614 39.0834L47.3456 42.6315H47.8026L48.0061 41.9732C48.0569 41.8199 48.1078 41.668 48.2095 41.5169C48.4631 41.0605 48.6665 40.8077 48.7174 40.7568C48.8699 40.5032 49.0225 40.3514 49.1744 40.2489C49.2761 40.1995 49.327 40.1995 49.3778 40.1995C49.428 40.1995 49.4795 40.1995 49.4795 40.2489C49.5304 40.2489 49.5304 40.2998 49.5304 40.2998C49.5304 40.4022 49.4795 40.5534 49.4795 40.7052L49.1242 41.9223C49.0225 42.1759 48.9717 42.3278 48.9717 42.4288C48.9717 42.5312 49.0225 42.582 49.0734 42.6315C49.1242 42.6823 49.1751 42.6824 49.2768 42.6824C49.3277 42.6824 49.4294 42.6823 49.4802 42.6315C49.582 42.582 49.6837 42.4796 49.8362 42.3278C49.938 42.2253 50.0397 42.0742 50.0898 41.9732L50.039 41.9223C49.8864 42.0742 49.7847 42.226 49.683 42.3278H49.5304C49.4795 42.2769 49.4795 42.2769 49.4795 42.2253C49.4795 42.2253 49.5304 42.1243 49.5812 41.9732L49.9366 40.7052C49.9874 40.5025 50.0383 40.3506 50.0383 40.1988C50.0365 40.1047 50.0003 40.0144 49.9366 39.9452C49.8348 39.8428 49.784 39.8428 49.6823 39.8428C49.4788 39.8428 49.2754 39.8936 49.0727 40.0964C48.8699 40.2991 48.5648 40.6537 48.2088 41.211L49.0727 38.2217L48.0061 38.4244ZM52.122 41.2626C52.478 41.1107 52.7316 40.9588 52.8842 40.7561C53.0368 40.6042 53.0876 40.451 53.0876 40.2482C53.0876 40.1472 53.0368 40.0455 52.9351 39.9445C52.8333 39.8421 52.6815 39.8421 52.478 39.8421C52.1729 39.8421 51.8677 39.8929 51.5633 40.0957C51.3097 40.2475 51.0554 40.5011 50.852 40.8557C50.6486 41.1608 50.5468 41.4639 50.5468 41.769C50.5468 42.0212 50.6486 42.2246 50.8011 42.4274C50.953 42.5806 51.1564 42.6809 51.4616 42.6809C51.9186 42.6809 52.3763 42.4274 52.8842 41.9717L52.8333 41.8693C52.5282 42.0721 52.3248 42.2239 52.2237 42.2748C52.0712 42.3256 51.9186 42.3772 51.7667 42.3772C51.6149 42.3772 51.4107 42.3263 51.3097 42.1745C51.1571 42.0721 51.1063 41.8693 51.1063 41.7182V41.4646C51.5626 41.4144 51.8677 41.3643 52.122 41.2626ZM51.665 40.2991C51.9193 40.0964 52.122 39.9954 52.3255 39.9954C52.4272 39.9954 52.5289 39.9954 52.5798 40.0448C52.6331 40.1008 52.6685 40.1713 52.6815 40.2475C52.6815 40.4008 52.5798 40.5527 52.478 40.7038C52.3255 40.8557 52.1729 41.009 51.9186 41.1093C51.7152 41.2103 51.4616 41.2612 51.1564 41.312C51.2582 40.8571 51.4616 40.5534 51.665 40.2991ZM55.7301 38.5254C55.9837 38.5763 56.1363 38.5763 56.1871 38.6278C56.238 38.6773 56.2889 38.7288 56.2889 38.7797C56.2889 38.8807 56.238 39.0333 56.1871 39.236L55.7803 40.6544C55.6786 40.908 55.6786 41.0598 55.6277 41.1623V41.5169C55.6277 41.8714 55.7294 42.125 55.983 42.3793C56.2373 42.582 56.5926 42.7339 56.9995 42.7339C57.4063 42.7339 57.7108 42.6315 57.9142 42.4803C58.165 42.3317 58.3746 42.1226 58.5238 41.8722C58.6255 41.6186 58.7781 41.264 58.9299 40.7575L59.387 39.1859C59.4378 38.9831 59.4887 38.8313 59.5395 38.7296C59.5975 38.667 59.6665 38.6155 59.743 38.5777C59.7938 38.5777 59.8955 38.5268 60.0481 38.5268L60.099 38.4258H58.7781L58.7272 38.5268C58.9306 38.5777 59.0324 38.5777 59.1341 38.6292C59.1849 38.6787 59.2358 38.7303 59.2358 38.7811C59.2358 38.8821 59.1849 39.0849 59.0832 39.4409L58.7272 40.7074C58.6255 40.9609 58.5238 41.2138 58.4736 41.4165C58.3719 41.6701 58.2702 41.8729 58.1176 42.0247C58.0159 42.1271 57.864 42.2275 57.7115 42.3299C57.5314 42.3925 57.3426 42.4266 57.152 42.4309C56.8469 42.4309 56.5926 42.3814 56.4407 42.1787C56.344 42.1101 56.2655 42.0187 56.2123 41.9127C56.1591 41.8066 56.1328 41.6891 56.1356 41.5705C56.1356 41.4173 56.1356 41.317 56.1864 41.1651C56.1864 41.1142 56.2373 40.9115 56.339 40.6572L56.7452 39.188C56.796 38.9853 56.8469 38.8334 56.8977 38.7317C56.9742 38.6938 57.0432 38.6424 57.1012 38.5798C57.2029 38.5798 57.3046 38.5289 57.5073 38.5289L57.5582 38.4279H55.7796L55.7301 38.5254ZM59.8461 39.9961L59.8969 40.1479L59.9987 40.0971H60.1004C60.1512 40.0971 60.2021 40.0971 60.2529 40.1479C60.3038 40.1988 60.3038 40.1988 60.3038 40.2489C60.3038 40.2998 60.2529 40.4517 60.2021 40.7052L59.6427 42.6315H60.0997L60.2522 42.125C60.3031 41.9223 60.4048 41.7196 60.5065 41.5169C60.71 41.2117 60.8618 40.9087 61.0144 40.706C61.2178 40.5032 61.3704 40.3514 61.523 40.2496C61.5738 40.2002 61.6756 40.2002 61.7264 40.2002H61.8281C61.8281 40.2496 61.879 40.3012 61.879 40.3012C61.879 40.4036 61.8281 40.5548 61.7773 40.7067L61.422 41.9237C61.3711 42.1773 61.3203 42.3292 61.3203 42.4302C61.3203 42.5326 61.3203 42.5835 61.3711 42.6329C61.422 42.6838 61.4728 42.6838 61.5746 42.6838C61.6763 42.6838 61.778 42.6329 61.8797 42.5828C62.0831 42.4803 62.235 42.2776 62.4391 41.9746L62.3374 41.9237C62.2357 42.1264 62.0831 42.2274 61.9821 42.3292C61.9313 42.3292 61.9313 42.38 61.8804 42.38L61.8295 42.3292V42.2783C61.8295 42.2275 61.8295 42.1264 61.8804 41.9746L62.2873 40.7067C62.3381 40.5039 62.3381 40.3012 62.3381 40.2002C62.3381 40.0978 62.3381 39.9975 62.2364 39.9466C62.1856 39.8442 62.0838 39.8442 61.9828 39.8442C61.8302 39.8442 61.6268 39.895 61.4234 40.0978C61.22 40.3005 60.9155 40.6551 60.5087 41.2124L60.9155 39.8435L59.8461 39.9961ZM63.9105 38.6773C63.861 38.7281 63.8095 38.8306 63.8095 38.88C63.8114 38.974 63.8473 39.0641 63.9105 39.1336C63.9613 39.1845 64.0129 39.236 64.1146 39.236C64.2156 39.236 64.2665 39.1852 64.3173 39.1336C64.4198 39.0827 64.4198 38.9817 64.4198 38.88C64.4198 38.8306 64.4198 38.7281 64.3173 38.6773C64.2665 38.6278 64.2149 38.5763 64.1146 38.5763C64.0129 38.5763 63.962 38.6271 63.9105 38.6773ZM63.0982 39.9961V40.0971H63.3525C63.4542 40.0971 63.4542 40.0971 63.505 40.1479C63.5566 40.1479 63.5566 40.1988 63.5566 40.2489C63.5566 40.2998 63.505 40.4517 63.4542 40.6544L63.048 42.0233C62.9972 42.226 62.9972 42.3793 62.9972 42.4288C62.9972 42.5312 62.9972 42.582 63.048 42.6315C63.0989 42.6823 63.1497 42.6824 63.2514 42.6824C63.4033 42.6824 63.5057 42.6315 63.6576 42.5305C63.8643 42.3826 64.0374 42.1927 64.1655 41.9732L64.0645 41.9223C63.9112 42.0742 63.8109 42.226 63.7085 42.3278C63.6576 42.3278 63.606 42.3786 63.606 42.3786C63.5566 42.3786 63.5566 42.3786 63.505 42.3278V42.2769C63.505 42.226 63.505 42.125 63.5566 41.9732L64.1648 39.8428L63.0982 39.9961ZM64.6225 40.0964H64.8252C64.9785 40.0964 65.0294 40.1472 65.0802 40.2482C65.2321 40.5534 65.384 41.3643 65.384 42.6816H65.5372C65.9441 42.2762 66.1468 42.0219 66.1984 41.9725C66.4737 41.7 66.7126 41.393 66.909 41.0591C67.0623 40.8564 67.164 40.6537 67.2155 40.5018C67.265 40.4008 67.265 40.2991 67.265 40.1981C67.2638 40.104 67.2278 40.0137 67.164 39.9445C67.1131 39.8421 67.0107 39.8421 66.9598 39.8421C66.8588 39.8421 66.808 39.8421 66.7571 39.8929C66.7063 39.9438 66.6547 39.9954 66.6547 40.0957C66.6547 40.1465 66.7056 40.2475 66.808 40.2984C66.909 40.4008 66.9598 40.4502 66.9598 40.5011C66.9598 40.552 66.9598 40.6035 66.909 40.653C66.909 40.7554 66.8595 40.8557 66.808 40.9581C66.7571 41.009 66.6038 41.2619 66.2987 41.6165C66.2492 41.6673 66.096 41.87 65.8424 42.1243C65.8424 41.6165 65.7915 41.2619 65.7915 41.11C65.7494 40.8382 65.6988 40.5677 65.6397 40.2991L65.4864 39.8428L64.6225 39.9961V40.0964ZM68.9935 41.2626C69.3495 41.1107 69.6532 40.9588 69.8058 40.7561C69.9576 40.6042 70.0085 40.451 70.0085 40.2482C70.0085 40.1472 69.9576 40.0455 69.8566 39.9445C69.7542 39.8421 69.603 39.8421 69.3488 39.8421C69.0422 39.8421 68.7886 39.8929 68.4835 40.0957C68.1783 40.2475 67.9756 40.5011 67.7729 40.8557C67.5687 41.1608 67.4677 41.4639 67.4677 41.769C67.4677 42.0212 67.5687 42.2246 67.7213 42.4274C67.8732 42.5806 68.0773 42.6809 68.3825 42.6809C68.8388 42.6809 69.2972 42.4274 69.8051 41.9717L69.7542 41.8693C69.4491 42.0721 69.2463 42.2239 69.0931 42.2748C68.9672 42.3386 68.8287 42.3735 68.6876 42.3772C68.4835 42.3772 68.3316 42.3263 68.2299 42.1745C68.078 42.0721 68.0272 41.8693 68.0272 41.7182V41.4646C68.4333 41.4144 68.7893 41.3643 68.9935 41.2626ZM68.5866 40.2991C68.8402 40.0964 69.0429 39.9954 69.2477 39.9954C69.3502 39.9954 69.4505 39.9954 69.5013 40.0448C69.5522 40.0957 69.5522 40.1981 69.5522 40.2475C69.5522 40.4008 69.5013 40.5527 69.3989 40.7038C69.2254 40.879 69.018 41.017 68.7893 41.1093C68.6374 41.2103 68.3839 41.2612 68.0787 41.312C68.179 40.8571 68.3323 40.5534 68.5866 40.2991ZM70.4669 40.0964H70.6697C70.7721 40.0964 70.8229 40.0964 70.8229 40.1472C70.8724 40.1472 70.8724 40.1981 70.8724 40.1981C70.8724 40.2991 70.8724 40.4502 70.7714 40.7045L70.2126 42.6308H70.6689L70.7714 42.2253C70.8222 42.1759 70.8724 42.0226 70.9232 41.8199C71.0257 41.6172 71.0765 41.4653 71.1768 41.3643C71.381 41.0097 71.5328 40.7561 71.737 40.5534C71.838 40.451 71.8888 40.3507 71.9905 40.2998H72.1424V40.4022C72.1424 40.4517 72.1933 40.5032 72.1933 40.5541C72.2441 40.5541 72.2957 40.6049 72.3465 40.6049C72.4476 40.6049 72.4984 40.5541 72.5493 40.4517C72.6001 40.2998 72.6517 40.1995 72.6517 40.0462C72.6517 39.9968 72.6517 39.9452 72.6008 39.8943C72.55 39.8435 72.4984 39.8435 72.4476 39.8435C72.3465 39.8435 72.194 39.8943 72.0421 40.0462C71.737 40.2998 71.381 40.706 71.0257 41.3141L71.482 39.8435L70.4154 39.9968L70.4669 40.0964ZM74.7355 39.8428C74.6846 39.8936 74.633 39.9452 74.5313 39.9452C74.4819 39.9452 74.4303 39.9452 74.3286 39.8943C74.2269 39.8435 74.1259 39.8435 74.1259 39.8435H73.9217C73.719 39.8435 73.5163 39.8943 73.363 40.0462C73.2111 40.1486 73.1603 40.3514 73.1603 40.5541C73.1603 40.6551 73.1603 40.7568 73.2627 40.8578C73.3121 40.9602 73.4146 41.163 73.6173 41.3657C73.7706 41.5684 73.9224 41.7711 73.9733 41.8722C73.9733 41.923 74.0242 42.024 74.0242 42.0749C74.026 42.1415 74.0134 42.2076 73.9871 42.2688C73.9609 42.3301 73.9217 42.3849 73.8723 42.4295C73.7699 42.5319 73.6681 42.5319 73.5163 42.5319C73.3121 42.5319 73.1094 42.481 73.007 42.38C72.906 42.2267 72.8551 42.024 72.8043 41.6694H72.7033L72.4991 42.6838H72.6524C72.6524 42.5828 72.7534 42.5319 72.8551 42.5319C72.8551 42.5319 72.906 42.5828 73.007 42.5828C73.2111 42.6322 73.363 42.6838 73.5163 42.6838C73.7699 42.6838 74.0242 42.6329 74.1774 42.4302C74.3802 42.2783 74.4826 42.0756 74.4826 41.8729C74.4826 41.721 74.4317 41.6193 74.3293 41.4674C74.2784 41.3155 74.0757 41.062 73.8214 40.8091C73.719 40.6558 73.6681 40.6064 73.6173 40.5555C73.5678 40.4531 73.5678 40.4036 73.5678 40.3528C73.5691 40.2587 73.6051 40.1684 73.6689 40.0992C73.7713 39.9982 73.873 39.9982 73.974 39.9982C74.1781 39.9982 74.2792 40.0476 74.3809 40.15C74.4833 40.3019 74.5836 40.5046 74.5836 40.7582H74.686L74.8887 39.8449H74.7355V39.8428ZM76.2598 38.6773C76.1574 38.7281 76.1574 38.8306 76.1574 38.88C76.1574 38.9824 76.1574 39.0827 76.2598 39.1336C76.3106 39.1845 76.3608 39.236 76.4625 39.236C76.5642 39.236 76.6158 39.1852 76.6652 39.1336C76.7677 39.0827 76.7677 38.9817 76.7677 38.88C76.7677 38.8306 76.7677 38.7281 76.6652 38.6773C76.6158 38.6278 76.5642 38.5763 76.4625 38.5763C76.3608 38.5763 76.3106 38.6271 76.2598 38.6773ZM75.4461 39.9961V40.0971H75.701C75.7505 40.0971 75.8021 40.0971 75.8529 40.1479C75.9038 40.1479 75.9038 40.1988 75.9038 40.2489C75.9038 40.2998 75.8529 40.4517 75.8014 40.6544L75.3959 42.0233C75.345 42.226 75.2935 42.3793 75.2935 42.4288C75.2935 42.5312 75.3443 42.582 75.3959 42.6315C75.4454 42.6823 75.4969 42.6824 75.5986 42.6824C75.7505 42.6824 75.8522 42.6315 76.0055 42.5305C76.2115 42.3818 76.3844 42.1921 76.5134 41.9732L76.4109 41.9223C76.2591 42.0742 76.1574 42.226 76.0549 42.3278C76.0055 42.3278 75.9539 42.3786 75.9031 42.3786C75.9031 42.3786 75.8522 42.3786 75.8522 42.3278V42.2769C75.8522 42.226 75.8522 42.125 75.9031 41.9732L76.5127 39.8428L75.4461 39.9961ZM78.3428 39.0326C78.1401 39.3363 77.9868 39.5899 77.835 39.6909C77.6636 39.8058 77.4743 39.8915 77.2748 39.9445L77.2254 40.0964H77.6817L77.1738 41.8707C77.123 42.1243 77.0714 42.2762 77.0714 42.3786C77.0714 42.4796 77.1223 42.5305 77.1738 42.6308C77.2247 42.6816 77.2748 42.6816 77.3765 42.6816C77.5298 42.6816 77.6301 42.6308 77.7326 42.5806C77.8844 42.4782 78.0886 42.2755 78.2913 41.9725L78.1889 41.9216C77.9861 42.1243 77.8837 42.2762 77.8343 42.2762C77.7318 42.3786 77.681 42.4281 77.6301 42.4281C77.6301 42.3786 77.5793 42.3786 77.5793 42.3786V42.2762C77.5793 42.2246 77.5793 42.1243 77.6301 41.9216L78.1889 40.0964H78.6466L78.6974 39.8936H78.2397L78.4439 39.0326H78.3428ZM78.6989 40.0455V40.1479H78.9524C79.1043 40.1479 79.206 40.1988 79.2576 40.2489C79.3084 40.2998 79.36 40.5025 79.36 40.8571L79.5627 42.7834C79.4603 42.9366 79.3091 43.0885 79.105 43.2912C78.9531 43.4431 78.7999 43.5448 78.6996 43.6458H78.5978C78.5978 43.6458 78.5978 43.595 78.547 43.5448C78.547 43.494 78.4961 43.4424 78.4961 43.4424H78.3951C78.3436 43.4424 78.2418 43.4424 78.191 43.5448C78.09 43.5943 78.09 43.6458 78.09 43.7475C78.09 43.797 78.09 43.8485 78.1408 43.8994C78.1903 43.9503 78.2418 44.0004 78.3436 44.0004C78.4453 44.0004 78.5463 43.951 78.6996 43.8486C78.8514 43.7475 79.105 43.5448 79.4102 43.1888C79.8679 42.6823 80.2239 42.1759 80.5785 41.7704C80.885 41.3141 81.0878 41.0104 81.1895 40.8077C81.2905 40.6049 81.3922 40.4022 81.3922 40.2489C81.3922 40.0971 81.3413 39.9968 81.2898 39.9452C81.1888 39.8428 81.1379 39.8428 81.0362 39.8428C80.9853 39.8428 80.8843 39.8428 80.8335 39.8936C80.7826 39.9445 80.7826 39.9961 80.7826 40.0964C80.7826 40.1472 80.7826 40.2482 80.8335 40.2991C80.8843 40.3499 80.9345 40.3499 80.9853 40.4015C81.0362 40.4015 81.0878 40.451 81.0878 40.451C81.1386 40.451 81.1386 40.451 81.1386 40.5018C81.1386 40.5527 81.1386 40.5527 81.0878 40.6042C81.0878 40.6537 81.0369 40.807 80.9345 40.9588C80.7318 41.211 80.6293 41.4144 80.4782 41.567C80.2754 41.9216 80.0713 42.1243 79.9703 42.2762L79.817 40.7561C79.817 40.451 79.7662 40.2482 79.7662 40.1479L79.6143 39.8428L78.6989 40.0455ZM85.8119 40.0964C85.6092 39.8936 85.4064 39.8428 85.1507 39.8428C84.8456 39.8428 84.592 39.8936 84.2869 40.0964C83.9817 40.2482 83.779 40.5018 83.5763 40.807C83.423 41.1107 83.3227 41.4137 83.3227 41.7189C83.3227 42.0226 83.4237 42.2253 83.5763 42.4281C83.779 42.5813 83.9817 42.6816 84.2869 42.6816C84.5419 42.6816 84.8456 42.6308 85.1507 42.4281C85.4573 42.2762 85.66 42.0226 85.8119 41.7189C86.016 41.4137 86.0655 41.1107 86.0655 40.807C86.0662 40.5025 85.9652 40.2482 85.8119 40.0964ZM85.1515 41.8707C84.8979 42.3271 84.6436 42.5305 84.3391 42.5305C84.2724 42.5321 84.206 42.5194 84.1446 42.4932C84.0832 42.467 84.0281 42.4279 83.9831 42.3786C83.8821 42.2762 83.8313 42.125 83.8313 41.9223C83.8313 41.5169 83.9831 41.0598 84.2381 40.6544C84.4917 40.1988 84.746 39.9961 85.0504 39.9961C85.2023 39.9961 85.304 40.0455 85.4064 40.1479C85.5078 40.2582 85.5623 40.4036 85.5583 40.5534C85.5583 41.0097 85.4064 41.4653 85.1515 41.8707ZM87.7438 39.8936C87.8971 39.3872 87.9974 39.1336 88.0489 38.9817C88.1514 38.779 88.3025 38.5763 88.4558 38.4739C88.5568 38.3728 88.6585 38.3728 88.761 38.3728H88.9128V38.5247C88.862 38.5756 88.862 38.6271 88.862 38.6766C88.862 38.7274 88.862 38.779 88.9128 38.779C88.9637 38.8299 89.0152 38.8299 89.0661 38.8299C89.117 38.8299 89.218 38.8299 89.2688 38.779C89.3197 38.7281 89.3197 38.6766 89.3197 38.5763C89.3197 38.5254 89.2688 38.4244 89.1664 38.3227C89.0654 38.2718 88.9637 38.2217 88.8118 38.2217C88.6585 38.2217 88.5052 38.2711 88.3025 38.3735C88.1507 38.4746 87.9974 38.5763 87.8462 38.779C87.7438 38.9309 87.5926 39.0827 87.4902 39.3363L87.2861 39.7418C87.2304 39.7954 87.1597 39.8307 87.0833 39.8428C87.0325 39.8936 86.8806 39.8936 86.7273 39.8936L86.6779 40.0964H87.2366L86.6779 42.1752C86.5755 42.6816 86.4738 42.9847 86.4229 43.0362C86.3735 43.239 86.3219 43.3908 86.2202 43.5441C86.1627 43.6516 86.0744 43.7394 85.9666 43.7963C85.8642 43.8471 85.7639 43.8471 85.6614 43.8471H85.6106L85.5597 43.7963L85.6106 43.7468C85.6614 43.696 85.713 43.6444 85.713 43.5936C85.713 43.5441 85.6622 43.4926 85.6106 43.4926C85.6106 43.4417 85.5597 43.4417 85.5082 43.4417C85.4072 43.4417 85.3563 43.4417 85.3054 43.4926C85.2546 43.5434 85.203 43.5936 85.203 43.6953C85.203 43.7461 85.2539 43.8471 85.3054 43.898C85.4079 43.9489 85.5082 43.999 85.6106 43.999C85.8133 43.999 86.0174 43.898 86.2202 43.7963C86.4738 43.5936 86.6779 43.2898 86.8813 42.8335C87.0332 42.5298 87.1865 42.0226 87.3376 41.4646L87.6936 40.0957H88.1514L88.2008 39.8929L87.7438 39.8936ZM90.7924 38.4244L90.7416 38.5254C90.9457 38.5763 91.0467 38.5763 91.0976 38.5763C91.1485 38.6271 91.2509 38.6773 91.3003 38.7281L90.3856 41.8707C90.3347 42.1243 90.2337 42.2762 90.1829 42.327C90.0804 42.4789 89.9293 42.5298 89.7251 42.5298H89.6757L89.6248 42.6308H90.9959L91.0467 42.5298C90.844 42.4789 90.6907 42.4789 90.6399 42.4274C90.5904 42.3779 90.5389 42.3263 90.5389 42.2246C90.5389 42.1752 90.5897 42.0219 90.6399 41.8192L91.4027 39.1844L91.8096 42.6308H91.9106L94.3497 39.1844L93.6885 41.6165C93.6267 41.8444 93.5418 42.0655 93.4349 42.2762C93.3855 42.327 93.3339 42.4281 93.2831 42.4281C93.1807 42.4789 93.0789 42.5305 92.9271 42.5305H92.8246V42.6315H94.6033V42.5305H94.5538C94.3497 42.5305 94.2487 42.4796 94.1469 42.4281C94.0961 42.3786 94.0961 42.327 94.0961 42.2253C94.0961 42.1243 94.0961 42.0226 94.1469 41.8707L94.9084 39.1844C95.0108 38.9817 95.0617 38.8299 95.1125 38.7281C95.1703 38.6656 95.239 38.6141 95.3153 38.5763C95.3153 38.5763 95.4686 38.5763 95.6713 38.5254V38.4244H94.6548L92.2158 41.8199L91.8598 38.4244H90.7924ZM97.6025 39.8936L97.5001 40.2482C97.4492 40.0964 97.3976 39.9961 97.2973 39.8936C97.1949 39.8428 97.0932 39.8428 96.9922 39.8428C96.788 39.8428 96.5345 39.8936 96.331 40.0964C96.0259 40.2991 95.7723 40.6042 95.5682 40.9588C95.3654 41.3134 95.263 41.668 95.263 41.9732C95.263 42.2253 95.3139 42.3786 95.4163 42.5305C95.5267 42.6316 95.672 42.686 95.8217 42.6824C95.975 42.6824 96.1269 42.6315 96.2795 42.5305C96.5817 42.3515 96.8415 42.1091 97.0409 41.8199L96.9915 42.0226C96.9406 42.2253 96.889 42.3278 96.889 42.4281C96.889 42.5305 96.9399 42.5813 96.9915 42.6308C97.0409 42.6816 97.0925 42.6816 97.1942 42.6816C97.2959 42.6816 97.4478 42.6308 97.6011 42.5298C97.7529 42.4274 97.9062 42.2762 98.0574 42.0219L97.9549 41.9725C97.8031 42.1243 97.7014 42.2762 97.6004 42.327C97.5495 42.3779 97.5495 42.3779 97.4979 42.3779H97.4471C97.3962 42.327 97.3962 42.2755 97.3962 42.2755V42.1745L97.4986 41.9209L98.1082 39.8421L97.6025 39.8936ZM97.2465 40.0964C97.3475 40.1988 97.3475 40.2991 97.3475 40.5018C97.3475 40.9581 97.1956 41.4137 96.8396 41.8192C96.586 42.1752 96.3317 42.327 96.1276 42.327C96.0334 42.3251 95.9432 42.2887 95.874 42.2246C95.773 42.1236 95.773 42.0219 95.773 41.87C95.773 41.6165 95.8224 41.3127 96.0266 40.9581C96.1581 40.6539 96.3479 40.3784 96.5853 40.1472C96.7372 40.0448 96.8389 39.9954 96.9922 39.9954C97.0863 39.9975 97.1765 40.0334 97.2465 40.0964ZM99.4814 38.6773C99.4319 38.7281 99.3804 38.8306 99.3804 38.88C99.3823 38.974 99.4182 39.0641 99.4814 39.1336C99.5322 39.1845 99.6347 39.236 99.6855 39.236C99.7865 39.236 99.8883 39.1852 99.9391 39.1336C99.99 39.082 100.042 38.9817 100.042 38.88C100.029 38.8037 99.9929 38.733 99.9391 38.6773C99.8692 38.6146 99.7794 38.5788 99.6855 38.5763C99.609 38.589 99.5379 38.6241 99.4814 38.6773ZM98.6684 39.9961V40.0971H98.9735C99.0251 40.0971 99.0759 40.0971 99.0759 40.1479C99.1268 40.1479 99.1268 40.1988 99.1268 40.2489C99.1268 40.2998 99.1268 40.4517 99.0244 40.6544L98.6175 42.0233C98.5667 42.226 98.5667 42.3793 98.5667 42.4288C98.5667 42.5312 98.5667 42.582 98.6691 42.6315C98.7199 42.6823 98.7715 42.6824 98.8718 42.6824C98.9742 42.6824 99.1268 42.6315 99.2787 42.5305C99.4319 42.3786 99.5838 42.2253 99.7364 41.9732L99.634 41.9223C99.528 42.0681 99.4088 42.2038 99.278 42.3278C99.2271 42.3278 99.2271 42.3786 99.1755 42.3786C99.1261 42.3786 99.1261 42.3786 99.1261 42.3278C99.0752 42.3278 99.0752 42.2769 99.0752 42.2769C99.0752 42.226 99.0752 42.125 99.1261 41.9732L99.7357 39.8428L98.6684 39.9961ZM100.396 39.9961V40.1479L100.499 40.0971H100.652C100.701 40.0971 100.753 40.0971 100.804 40.1479C100.804 40.1988 100.855 40.1988 100.855 40.2489C100.855 40.2998 100.804 40.4517 100.752 40.7052L100.193 42.6315H100.651L100.803 42.125C100.854 41.9223 100.956 41.7196 101.057 41.5169C101.21 41.2117 101.413 40.9087 101.566 40.706C101.692 40.5296 101.846 40.3754 102.022 40.2496C102.125 40.2002 102.175 40.2002 102.225 40.2002H102.327C102.378 40.2496 102.378 40.3012 102.378 40.3012C102.378 40.4036 102.378 40.5548 102.327 40.7067L101.971 41.9237C101.87 42.1773 101.87 42.3292 101.87 42.4302C101.87 42.5326 101.87 42.5835 101.92 42.6329C101.971 42.6838 102.022 42.6838 102.124 42.6838C102.175 42.6838 102.327 42.6329 102.429 42.5828C102.581 42.4803 102.785 42.2776 102.988 41.9746L102.885 41.9237C102.733 42.1264 102.632 42.2274 102.529 42.3292C102.48 42.3292 102.428 42.38 102.428 42.38C102.428 42.38 102.377 42.38 102.377 42.3292L102.327 42.2783C102.327 42.2275 102.377 42.1264 102.429 41.9746L102.785 40.7067C102.834 40.5039 102.886 40.3012 102.886 40.2002C102.884 40.1062 102.848 40.0161 102.785 39.9466C102.734 39.8442 102.632 39.8442 102.53 39.8442C102.327 39.8442 102.125 39.895 101.92 40.0978C101.718 40.3005 101.413 40.6551 101.057 41.2124L101.463 39.8435L100.396 39.9961ZM104.969 41.2626C105.325 41.1107 105.579 40.9588 105.732 40.7561C105.884 40.6042 105.986 40.451 105.986 40.2482C105.986 40.1472 105.883 40.0455 105.783 39.9445C105.68 39.8421 105.528 39.8421 105.325 39.8421C105.02 39.8421 104.716 39.8929 104.41 40.0957C104.157 40.2475 103.903 40.5011 103.7 40.8557C103.496 41.1608 103.445 41.4639 103.445 41.769C103.445 42.0212 103.496 42.2246 103.649 42.4274C103.801 42.5806 104.054 42.6809 104.36 42.6809C104.766 42.6809 105.274 42.4274 105.732 41.9717L105.681 41.8693C105.428 42.0721 105.225 42.2239 105.072 42.2748C104.92 42.3256 104.766 42.3772 104.615 42.3772C104.462 42.3772 104.31 42.3263 104.158 42.1745C104.055 42.0721 103.955 41.8693 103.955 41.7182C103.955 41.6157 103.955 41.5663 104.006 41.4646C104.41 41.4144 104.716 41.3643 104.969 41.2626ZM104.513 40.2991C104.766 40.0964 104.969 39.9954 105.225 39.9954C105.326 39.9954 105.377 39.9954 105.428 40.0448C105.481 40.1008 105.516 40.1714 105.529 40.2475C105.529 40.4008 105.479 40.5527 105.326 40.7038C105.225 40.8557 105.021 41.009 104.767 41.1093C104.564 41.2103 104.311 41.2612 104.006 41.312C104.106 40.8571 104.31 40.5534 104.513 40.2991ZM107.969 42.7332C108.018 42.5305 108.121 42.4796 108.223 42.4796C108.273 42.4796 108.374 42.4796 108.425 42.5305C108.679 42.5813 108.832 42.6824 108.933 42.6824C109.086 42.6824 109.188 42.7332 109.289 42.7332C109.543 42.7332 109.799 42.6824 110.001 42.5305C110.204 42.4281 110.357 42.2769 110.458 42.0742C110.611 41.8714 110.662 41.6687 110.662 41.466C110.662 41.2633 110.611 41.1114 110.508 40.9595C110.407 40.7568 110.203 40.5541 109.899 40.2489C109.594 39.9452 109.391 39.7425 109.34 39.5906C109.238 39.4806 109.184 39.335 109.188 39.1852C109.188 39.0333 109.238 38.88 109.391 38.7797C109.543 38.6278 109.696 38.577 109.899 38.577C110.204 38.577 110.408 38.6278 110.56 38.8306C110.763 38.9824 110.814 39.1852 110.814 39.4387V39.7425H110.916L111.221 38.3227H111.119C111.068 38.4251 111.016 38.4746 110.967 38.5254C110.916 38.5763 110.864 38.5763 110.814 38.5763H110.713L110.508 38.4739C110.357 38.4244 110.203 38.3728 110.152 38.3728C110.051 38.322 109.95 38.322 109.847 38.322C109.493 38.322 109.187 38.4244 108.983 38.6271C108.883 38.7263 108.805 38.8448 108.752 38.9756C108.7 39.1063 108.674 39.2464 108.678 39.3872C108.678 39.5899 108.729 39.7418 108.831 39.8936C108.881 39.9961 108.983 40.1988 109.187 40.4015C109.644 40.807 109.898 41.1107 110 41.2626C110.051 41.4144 110.101 41.5161 110.101 41.668C110.101 41.8707 110 42.0735 109.847 42.2253C109.746 42.4281 109.542 42.4789 109.238 42.4789C108.933 42.4789 108.73 42.4281 108.527 42.2253C108.374 42.0226 108.273 41.8199 108.273 41.5161V41.1616H108.171L107.815 42.7332H107.969ZM111.067 40.0455L111.118 40.1479H111.372C111.474 40.1479 111.576 40.1988 111.627 40.2489C111.676 40.2998 111.728 40.5025 111.778 40.8571L111.932 42.7834C111.829 42.9366 111.677 43.0885 111.525 43.2912C111.372 43.4431 111.22 43.5448 111.118 43.6458H111.016C110.966 43.6458 110.966 43.595 110.966 43.5448C110.915 43.494 110.915 43.4424 110.915 43.4424H110.813C110.712 43.4424 110.661 43.4424 110.559 43.5448C110.508 43.5943 110.457 43.6458 110.457 43.7475C110.457 43.797 110.508 43.8485 110.559 43.8994C110.611 43.9503 110.662 44.0004 110.713 44.0004C110.814 44.0004 110.966 43.951 111.118 43.8486C111.271 43.7475 111.474 43.5448 111.779 43.1888C112.189 42.7332 112.579 42.2599 112.947 41.7704C113.253 41.3141 113.506 41.0104 113.609 40.8077C113.711 40.6049 113.762 40.4022 113.762 40.2489C113.762 40.0971 113.711 39.9968 113.659 39.9452C113.609 39.8428 113.506 39.8428 113.455 39.8428C113.354 39.8428 113.303 39.8428 113.253 39.8936C113.202 39.9445 113.202 39.9961 113.202 40.0964C113.202 40.1472 113.202 40.2482 113.253 40.2991C113.253 40.3499 113.303 40.3499 113.406 40.4015C113.455 40.4015 113.507 40.451 113.507 40.451V40.6042C113.507 40.6537 113.406 40.807 113.304 40.9588C113.151 41.211 112.999 41.4144 112.897 41.567C112.644 41.9216 112.492 42.1243 112.339 42.2762L112.236 40.7561C112.187 40.451 112.187 40.2482 112.135 40.1479C112.135 40.0455 112.084 39.9452 111.982 39.8428L111.067 40.0455ZM115.997 39.8428C115.894 39.8936 115.845 39.9452 115.743 39.9452C115.692 39.9452 115.641 39.9452 115.54 39.8943C115.438 39.8435 115.387 39.8435 115.336 39.8435H115.134C114.931 39.8435 114.727 39.8943 114.575 40.0462C114.422 40.1486 114.371 40.3514 114.371 40.5541C114.371 40.6551 114.422 40.7568 114.473 40.8578C114.524 40.9602 114.626 41.163 114.829 41.3657C114.982 41.5684 115.134 41.7711 115.185 41.8722C115.185 41.923 115.236 42.024 115.236 42.0749C115.238 42.1416 115.225 42.2079 115.199 42.2692C115.172 42.3304 115.133 42.3851 115.083 42.4295C114.982 42.5319 114.88 42.5319 114.727 42.5319C114.546 42.5359 114.368 42.4828 114.219 42.38C114.116 42.2267 114.067 42.024 114.016 41.6694H113.914L113.711 42.6838H113.863C113.914 42.5828 113.965 42.5319 114.067 42.5319C114.116 42.5319 114.168 42.5828 114.219 42.5828C114.422 42.6322 114.575 42.6838 114.727 42.6838C114.982 42.6838 115.236 42.6329 115.388 42.4302C115.591 42.2783 115.693 42.0756 115.693 41.8729C115.693 41.721 115.642 41.6193 115.541 41.4674C115.49 41.3155 115.286 41.062 115.032 40.8091C114.931 40.6558 114.88 40.6064 114.829 40.5555C114.829 40.4531 114.778 40.4036 114.778 40.3528C114.778 40.2503 114.829 40.15 114.932 40.0992C114.982 39.9982 115.083 39.9982 115.237 39.9982C115.389 39.9982 115.49 40.0476 115.591 40.15C115.745 40.3019 115.796 40.5046 115.796 40.7582H115.896L116.101 39.8449H115.997V39.8428ZM117.775 39.0326C117.572 39.3363 117.419 39.5899 117.267 39.6909C117.096 39.8058 116.907 39.8915 116.708 39.9445L116.657 40.0964H117.165L116.606 41.8707C116.556 42.1243 116.504 42.2762 116.504 42.3786C116.504 42.4796 116.555 42.5305 116.606 42.6308C116.657 42.6816 116.76 42.6816 116.86 42.6816C116.962 42.6816 117.064 42.6308 117.165 42.5806C117.369 42.4782 117.521 42.2755 117.724 41.9725L117.623 41.9216C117.47 42.1243 117.369 42.2762 117.318 42.2762C117.215 42.3786 117.164 42.4281 117.115 42.4281C117.064 42.3786 117.064 42.3786 117.013 42.3786V42.2762C117.013 42.2246 117.013 42.1243 117.115 41.9216L117.623 40.0964H118.131L118.182 39.8936H117.674L117.927 39.0326H117.775ZM119.757 41.2626C120.113 41.1107 120.367 40.9588 120.57 40.7561C120.672 40.6042 120.773 40.451 120.773 40.2482C120.773 40.1472 120.723 40.0455 120.621 39.9445C120.467 39.8421 120.315 39.8421 120.113 39.8421C119.808 39.8421 119.503 39.8929 119.247 40.0957C118.942 40.2475 118.689 40.5011 118.486 40.8557C118.334 41.1608 118.232 41.4639 118.232 41.769C118.232 42.0212 118.283 42.2246 118.435 42.4274C118.588 42.5806 118.842 42.6809 119.147 42.6809C119.554 42.6809 120.062 42.4274 120.518 41.9717L120.467 41.8693C120.214 42.0721 120.011 42.2239 119.858 42.2748C119.706 42.3256 119.554 42.3772 119.452 42.3772C119.248 42.3772 119.096 42.3263 118.943 42.1745C118.842 42.0721 118.74 41.8693 118.74 41.7182C118.74 41.6157 118.74 41.5663 118.791 41.4646C119.199 41.4144 119.504 41.3643 119.757 41.2626ZM119.3 40.2991C119.555 40.0964 119.809 39.9954 120.012 39.9954C120.114 39.9954 120.164 39.9954 120.214 40.0448C120.265 40.0957 120.317 40.1981 120.317 40.2475C120.317 40.4008 120.266 40.5527 120.114 40.7038C120.012 40.8557 119.809 41.009 119.555 41.1093C119.351 41.2103 119.098 41.2612 118.793 41.312C118.894 40.8571 119.096 40.5534 119.3 40.2991ZM121.129 39.9961L121.179 40.1479C121.282 40.0971 121.382 40.0971 121.382 40.0971C121.485 40.0971 121.535 40.0971 121.535 40.1479L121.638 40.2489C121.638 40.2998 121.638 40.2998 121.587 40.3514L121.536 40.6049L120.977 42.6315H121.434C121.587 42.0233 121.739 41.6172 121.79 41.5169C121.892 41.2633 122.043 41.0605 122.247 40.7568C122.45 40.5032 122.602 40.3514 122.704 40.2489C122.806 40.1995 122.857 40.1995 122.906 40.1995H123.009C123.06 40.2489 123.06 40.3005 123.06 40.3514C123.06 40.4022 123.009 40.5541 122.957 40.7568L122.449 42.6315H122.906C123.059 42.125 123.211 41.7196 123.363 41.4144C123.617 40.9588 123.871 40.6049 124.176 40.2998C124.278 40.2489 124.329 40.1988 124.429 40.1988C124.48 40.1988 124.48 40.1988 124.532 40.2482V40.4517C124.532 40.5025 124.481 40.6049 124.429 40.8571L124.176 41.8199C124.075 42.125 124.024 42.3278 124.024 42.4281C124.024 42.5305 124.075 42.5813 124.125 42.6308C124.125 42.6816 124.227 42.6816 124.278 42.6816C124.381 42.6816 124.43 42.6816 124.532 42.6308C124.634 42.5813 124.734 42.4789 124.888 42.327C124.99 42.1752 125.09 42.0735 125.141 41.9725L125.039 41.9216C124.951 42.0506 124.848 42.1696 124.734 42.2762C124.684 42.327 124.633 42.327 124.633 42.327H124.582C124.531 42.2762 124.531 42.2762 124.531 42.2246C124.531 42.2246 124.582 42.0728 124.633 41.8192L124.989 40.6035C125.039 40.4503 125.039 40.3499 125.039 40.1981C125.039 40.0957 124.989 39.9954 124.938 39.8929C124.887 39.8421 124.785 39.8421 124.734 39.8421C124.531 39.8421 124.379 39.8929 124.226 40.0448C123.921 40.2984 123.616 40.7045 123.26 41.3636L123.464 40.5527C123.514 40.4008 123.565 40.2991 123.565 40.1472C123.565 40.0448 123.515 39.9954 123.464 39.8936C123.362 39.8428 123.311 39.8428 123.209 39.8428C123.058 39.8428 122.956 39.8428 122.855 39.8936C122.651 40.0455 122.448 40.1988 122.295 40.451C122.12 40.6902 121.968 40.9446 121.838 41.211L122.194 39.8421L121.129 39.9961Z" fill="black"/>
</svg>
