<svg width="97" height="56" viewBox="0 0 97 56" fill="none" xmlns="http://www.w3.org/2000/svg">
<path fill-rule="evenodd" clip-rule="evenodd" d="M34.1767 34.2018C34.3108 33.597 35.048 33.1263 35.8525 33.1263C36.657 33.1263 37.3269 33.5976 37.461 34.2018H34.1767ZM38.399 34.7398C38.4664 33.5303 37.5945 32.4548 35.8525 32.4548C34.1105 32.4548 33.1719 33.4624 33.1719 34.6725C33.1719 35.8141 34.244 36.755 35.8525 36.755C36.9246 36.755 37.8632 36.3521 38.3323 35.6127L37.5951 35.2772C37.1928 35.7479 36.7238 36.0834 35.9198 36.0834C34.8477 36.0834 34.1773 35.4786 34.1105 34.7398H38.399ZM41.951 33.1263C43.0904 33.1263 43.7608 33.799 43.7608 34.6052C43.7608 35.4113 43.1577 36.0834 41.951 36.0834C40.812 36.0834 40.1416 35.3446 40.1416 34.6052C40.1411 33.799 40.8783 33.1263 41.951 33.1263ZM43.6935 36.6209H44.6316V30.5059H43.6935V33.1937C43.2245 32.723 42.5541 32.4548 41.8169 32.4548C40.2084 32.4548 39.203 33.4624 39.203 34.6046C39.203 35.7468 40.2084 36.7544 41.8169 36.7544C42.5541 36.7544 43.2245 36.4862 43.6935 36.0823V36.6209ZM47.2454 34.8739C47.2454 35.546 47.3128 36.0829 48.4522 36.0829C49.5917 36.0829 49.659 35.5454 49.659 34.8739V32.5889H50.5965V34.9406C50.5965 36.0161 50.0607 36.755 48.4522 36.755C46.8432 36.755 46.3074 36.0161 46.3074 34.9406V32.5889H47.2454V34.8739ZM56.2927 33.799C55.8904 33.3962 55.3552 33.1263 54.618 33.1263C53.478 33.1263 52.674 33.799 52.674 34.6052C52.674 35.4113 53.4112 36.0834 54.5501 36.0834C55.3552 36.0834 55.891 35.882 56.3595 35.4113V36.3521C55.8237 36.6209 55.2873 36.755 54.618 36.755C53.0089 36.755 51.736 35.8141 51.736 34.6052C51.736 33.3962 53.0757 32.4554 54.618 32.4554C55.2205 32.4554 55.8242 32.6568 56.2927 32.8582V33.799ZM60.0466 33.1263C61.1855 33.1263 61.8559 33.799 61.8559 34.6052C61.8559 35.4113 61.2522 36.0834 60.0466 36.0834C58.9065 36.0834 58.304 35.3446 58.304 34.6052C58.304 33.799 58.9744 33.1263 60.0466 33.1263ZM62.794 32.5889H61.8565V33.1937H61.7886C61.3863 32.723 60.7164 32.4548 59.9792 32.4548C58.3045 32.4548 57.3659 33.4624 57.3659 34.6046C57.3659 35.7468 58.3713 36.7544 59.9125 36.7544C60.7164 36.7544 61.3201 36.553 61.7886 36.0823H61.8565V36.6203H62.794V32.5889ZM65.4751 36.6209H64.5365V33.261H63.9329V32.5889H64.5365V31.1112H65.4751V32.5889H66.4126V33.261H65.4751V36.6209ZM67.418 32.5889H68.3566V36.6209H67.418V32.5889ZM68.5575 31.0439C68.5575 31.3794 68.2225 31.5819 67.887 31.5819C67.5515 31.5819 67.2166 31.3799 67.2166 31.0439C67.2166 30.8425 67.5515 30.5732 67.887 30.5732C68.2225 30.5732 68.5575 30.8419 68.5575 31.0439ZM72.6452 33.1263C73.7852 33.1263 74.5891 33.799 74.5891 34.6052C74.5891 35.4113 73.7852 36.0834 72.6452 36.0834C71.5063 36.0834 70.7023 35.4113 70.7023 34.6052C70.7023 33.799 71.5063 33.1263 72.6452 33.1263ZM72.6452 36.755C74.2542 36.755 75.5283 35.8141 75.5283 34.6052C75.5283 33.4629 74.2542 32.4554 72.6452 32.4554C71.0372 32.4554 69.831 33.4629 69.831 34.6052C69.831 35.8141 71.104 36.755 72.6452 36.755ZM77.7399 33.0596C78.1422 32.7235 78.6106 32.4548 79.2811 32.4548C80.8222 32.4548 81.1572 33.261 81.1572 34.2686V36.6209H80.2197V34.3359C80.2197 33.7311 80.1518 33.1263 79.0797 33.1263C77.8067 33.1263 77.7399 34.0004 77.7399 34.7398V36.6209H76.8013V32.5889H77.7399V33.0596Z" fill="#050505"/>
<path d="M26.5383 39.8468C28.8839 43.274 28.0127 48.0443 24.4607 50.5306C20.9083 53.017 16.1501 52.2776 13.7377 48.851C11.3247 45.3565 12.2633 40.5856 15.7484 38.0998C19.2998 35.6134 24.1258 36.4201 26.5383 39.8468Z" stroke="#050505" stroke-width="6.38112" stroke-miterlimit="2.613"/>
<path d="M16.3521 37.7633C16.2554 37.9495 16.2316 38.1651 16.2853 38.368C16.2853 38.57 16.2853 38.7035 16.3521 38.9049M16.3521 37.7633C16.1512 37.8306 15.9498 37.9647 15.749 38.0988C15.6149 38.2334 15.414 38.3675 15.2126 38.5016M16.3521 37.7633C16.4188 37.6959 16.5535 37.6286 16.6876 37.5613M15.2126 38.5016C15.4135 38.5016 15.6149 38.5016 15.8825 38.6362M15.2126 38.5016C15.1458 38.5689 15.0785 38.7035 15.0118 38.7708M15.0118 38.7708C14.6095 39.1069 14.3413 39.5102 14.1405 39.8457M15.0118 38.7708C15.0785 38.7035 15.1458 38.5694 15.2132 38.5021C15.414 38.5021 15.6149 38.5021 15.883 38.6368M14.1405 39.8457C14.4086 39.6443 14.6768 39.4429 15.0118 39.3083M14.1405 39.8457C14.4086 39.6438 14.6768 39.4424 15.0118 39.3083M14.1405 39.8457C14.0064 40.1145 13.9396 40.317 13.9396 40.5184L13.8723 40.6525M15.0118 39.3083C15.0785 39.241 15.1458 39.2415 15.2126 39.1748C15.5476 39.0401 15.9504 38.9722 16.3521 38.9049M17.1566 37.7633C17.4242 37.5613 17.6929 37.2926 17.9606 37.1579M17.1566 37.7633C17.4242 37.5608 17.6929 37.2926 17.9606 37.1579M17.1566 37.7633L16.9557 37.9647C16.6876 38.2334 16.4862 38.5694 16.3521 38.9049M17.9606 37.1579C17.5583 37.2253 17.1566 37.3599 16.687 37.5608M17.9606 37.1579L18.631 37.1585L18.7651 37.2253M24.5286 50.0595C24.4618 50.1268 24.3277 50.1941 24.2604 50.2609C24.1263 50.3282 24.0596 50.3955 23.9255 50.4623M24.5286 50.0595C24.4618 50.1268 24.3277 50.1947 24.2604 50.2614C24.1269 50.3288 24.0596 50.3961 23.9255 50.4629C23.7246 50.5975 23.4559 50.7316 23.1877 50.8657M24.5286 50.0595C24.7968 49.8575 24.9976 49.6561 25.199 49.4547M22.4511 51.5378C22.8533 51.471 22.9874 51.3369 23.59 51.0671C23.4559 51.0671 23.3891 51.0003 23.1877 50.8657M23.1877 50.8657C23.1877 50.933 23.0536 50.933 23.0536 51.0003M23.1877 50.8657C23.1877 50.8657 23.1215 50.7989 23.0542 50.7989M25.2658 49.926C25.2658 49.7908 25.2658 49.6567 25.199 49.4553C25.2658 49.4553 25.3331 49.388 25.3331 49.3212C25.668 49.0525 26.003 48.7159 26.2712 48.4471C26.4052 48.2452 26.5393 48.1111 26.6734 47.9097M25.2658 49.926C25.6007 49.5899 25.9362 49.2539 26.1371 48.9178M25.2658 49.926C25.2658 49.7913 25.2658 49.6567 25.199 49.4547M13.3365 41.3246L13.4038 41.2572C12.8675 42.1307 12.5993 42.9369 12.7334 43.6763M13.3365 41.3246C12.9418 42.0456 12.7344 42.8543 12.7334 43.6763M13.3365 41.3246L13.4033 41.2572M13.3365 41.3246C13.5374 41.1231 13.6709 40.8539 13.8723 40.6525M12.7334 43.6763C12.7334 43.8104 12.8002 43.945 12.8675 44.0791M12.7334 43.6763C12.7334 43.8104 12.8007 43.945 12.8675 44.0791M19.569 36.9565H19.5023C20.5076 36.6884 21.4457 36.7551 22.0488 37.0912C21.3116 36.8224 20.4403 36.7551 19.569 36.9565ZM19.569 36.9565C20.4403 36.7551 21.3116 36.823 22.0488 37.0917C22.1829 37.2258 22.317 37.2931 22.4511 37.4272M19.569 36.9565C19.3009 37.0239 19.0332 37.0912 18.7651 37.2253M15.883 38.6368C16.0171 38.7035 16.1512 38.7708 16.3521 38.9049M15.883 38.6368C16.0456 38.7149 16.2023 38.8045 16.3521 38.9049M16.3521 38.9049C16.4862 38.5694 16.687 38.2339 16.9557 37.9652M16.3521 38.9049C16.687 38.5694 17.0898 38.2334 17.4248 37.9647C17.8943 37.6286 18.296 37.3599 18.7651 37.2253M16.3521 38.9049C15.883 39.1069 15.414 39.3756 15.0791 39.6443M16.3521 38.9049C15.9498 38.9722 15.5487 39.0396 15.2137 39.1742M16.3521 38.9049H16.4199L16.4873 38.8382C16.8895 38.5694 17.2918 38.3675 17.694 38.1661M16.3521 38.9049L16.4194 38.9055M16.3521 38.9049V38.9728M16.3521 38.9049L16.2859 38.9728M16.3521 38.9049C16.7543 39.1742 17.156 39.4435 17.6251 39.8463M27.745 45.2887C27.6782 45.9607 27.3427 46.9683 26.6729 47.9091C26.6729 47.7745 26.7402 47.6404 26.7402 47.5063C26.807 47.1703 26.7402 46.8342 26.7402 46.4982M18.4969 51.8065C18.9665 52.0079 20.2395 52.0079 21.1775 51.7397M21.1775 51.7397C21.0434 51.7397 20.9094 51.6724 20.7753 51.6724M21.1775 51.7397C21.4451 51.6724 21.6471 51.6051 21.848 51.5378M21.1775 51.7397C21.6471 51.7397 21.9826 51.6051 22.4516 51.471M21.1775 51.7397C21.0429 51.7397 20.9094 51.6724 20.7753 51.6724M20.7753 51.6724C20.4448 51.5835 20.1293 51.4479 19.8372 51.2696M23.0542 51.0008C22.6519 51.2023 22.2497 51.3369 21.8474 51.5383M18.7651 37.2253C19.0332 37.2926 19.2335 37.3599 19.3676 37.5608L20.5739 37.3599M18.7651 37.2253C19.0332 37.2926 19.2341 37.3605 19.3682 37.5613M18.7651 37.2253C18.296 37.3599 17.8938 37.6286 17.4248 37.9652M26.1371 48.9173C26.2712 48.6491 26.5393 48.3125 26.6734 47.9097M26.6734 47.9097C26.6734 47.7751 26.7407 47.641 26.7407 47.5069M13.8723 40.6525C13.8666 40.8921 13.937 41.1279 14.0731 41.3251C13.8055 41.6606 13.6041 42.064 13.4033 42.4C13.1351 42.9375 12.9337 43.5422 12.8669 44.0797C12.8669 44.147 12.9337 44.2143 12.9337 44.2811C13.0678 44.4157 13.1351 44.4825 13.2019 44.6171M13.8723 40.6525C13.6709 40.8539 13.5374 41.1237 13.336 41.3251M13.8723 40.6525C14.2104 40.2465 14.6196 39.905 15.0791 39.6443M13.8723 40.6525C13.8723 40.9212 13.9402 41.1231 14.0737 41.3246M25.199 49.4547V49.3874M15.0791 39.6443C15.4146 39.3756 15.8836 39.1074 16.3526 38.9055L16.2859 38.9728M25.199 49.388C25.199 49.388 25.199 49.3212 25.1317 49.2539C25.1317 49.1865 25.0644 49.0525 25.0644 48.9178M16.3521 50.8657C16.8216 51.269 18.0279 51.8065 18.9659 51.9411M16.3521 50.8657C16.2853 50.7989 16.218 50.7316 16.1512 50.7316M16.3521 50.8657C16.2853 50.7989 16.2185 50.7316 16.1512 50.7316M22.4511 37.4272C21.848 37.2931 21.1775 37.2931 20.5744 37.3605L19.3682 37.5613M22.4511 37.4272L22.5852 37.5613C22.6519 37.6959 22.7192 37.7633 22.7192 37.8973C22.8533 38.2334 22.8533 38.5021 22.8533 38.8382M19.8372 51.2696C19.569 51.0676 19.2341 50.8662 18.8986 50.5302M19.8372 51.2696C19.569 51.0676 19.2335 50.8657 18.8986 50.5302M19.3682 37.5613C18.7867 37.6923 18.2239 37.8957 17.6929 38.1666C17.2907 38.368 16.889 38.5694 16.4867 38.8387M19.3682 37.5613C19.5023 37.7633 19.5023 38.0325 19.5023 38.2339M23.0542 50.7316C22.9201 50.6643 22.8528 50.5975 22.7192 50.5302C22.7192 50.4629 22.7192 50.4629 22.6519 50.4629C22.3843 50.1947 22.1829 49.9254 21.9147 49.5894M27.6788 45.6247C27.8129 44.7512 27.7461 43.609 27.5447 42.9369C27.4779 42.8701 27.4774 42.8028 27.4101 42.6687C27.4101 43.1389 27.276 43.609 27.0078 44.0797M12.8675 44.0791C12.8002 44.2143 12.8002 44.4157 12.8002 44.5498C12.532 46.0281 12.8675 47.5731 13.7388 48.8505C14.0737 49.3212 14.476 49.724 14.8777 50.0595C15.1665 50.2778 15.4819 50.4586 15.8163 50.5975C15.883 50.6643 16.0171 50.6643 16.1512 50.7316M12.8675 44.0791C12.9342 43.5417 13.1356 42.9369 13.4038 42.3995M26.7402 46.4982C26.6729 46.1627 26.5393 45.692 26.3385 45.2892M26.7402 46.4982C26.6729 46.1627 26.5399 45.692 26.3385 45.2892M14.0737 41.3246C14.3419 40.7866 14.7441 40.3837 15.2132 39.9131C15.4813 39.6443 15.883 39.3088 16.2185 39.0401M14.0737 41.3246C14.2078 41.526 14.4092 41.5933 14.6774 41.6606M25.1322 49.2533C25.1322 49.186 25.0649 49.0519 25.0649 48.9173C25.0649 48.9173 24.9976 48.8505 24.9976 48.7832M16.2185 39.0401C16.2859 39.0401 16.2859 38.9728 16.2859 38.9728M16.2185 39.0401C15.8836 39.3756 15.6149 39.779 15.3467 40.2491M16.2185 39.0401C15.8836 39.3088 15.4808 39.6449 15.2126 39.9136M16.2859 38.9728H16.3521M24.9976 48.7832C24.8641 48.5145 24.6627 48.1784 24.4618 47.7751M24.9976 48.7832C24.8635 48.5145 24.6627 48.1784 24.4618 47.7751M16.4194 38.9055C16.4194 38.9055 16.4867 38.9055 16.4867 38.8387M16.4194 38.9055L16.4867 38.8387M16.4867 38.8387C16.9563 38.7041 17.4242 38.5021 17.9606 38.4353M16.3521 38.9728C16.4194 39.3762 16.5535 39.8457 16.7543 40.4511C16.8216 40.6525 16.8884 40.9223 17.0225 41.1905M16.3521 38.9728L16.2853 38.9722M16.1512 50.7316C16.5535 50.7989 17.0225 50.7989 17.5588 50.7989C17.9611 50.7316 18.4296 50.6643 18.8986 50.5302M16.1512 50.7316C15.8163 50.4629 15.6154 50.1941 15.4813 49.9254C15.1458 49.3206 14.8777 48.7832 14.6768 48.2452M22.4511 37.3605C24.3277 37.7638 25.668 38.6373 26.5393 39.8463C26.941 40.3843 27.2092 41.0558 27.3433 41.6606C27.4106 41.7952 27.4106 41.9293 27.4106 42.0634C27.4779 42.2596 27.4779 42.472 27.4106 42.6682M24.7968 38.3007C25.0649 38.4359 25.199 38.6373 25.3331 38.8387C25.6013 39.2415 25.7354 39.7795 25.668 40.317V40.5851M12.9342 47.0362C13.2024 47.5069 13.9396 48.0438 14.4086 48.1784C14.5427 48.1784 14.6095 48.2452 14.6768 48.2452M25.668 40.5851C26.0703 40.9212 26.5393 41.3913 26.9416 41.8615M25.668 40.5851C25.534 40.4511 25.3999 40.3837 25.2658 40.2491M25.668 40.5851C26.1256 40.9763 26.5515 41.403 26.9416 41.8615M25.668 40.5851C25.6007 40.7192 25.6007 40.8544 25.534 40.9885M25.668 40.5851C25.6013 40.7192 25.6013 40.8544 25.534 40.9885M26.9416 41.8615C27.1424 42.0629 27.2765 42.3321 27.4106 42.6682M27.4106 42.6682C27.4106 43.1383 27.276 43.609 27.0078 44.0797M25.2658 40.2491C24.4618 39.6443 23.6579 39.1742 22.8533 38.8382M25.2658 40.2491C24.4618 39.6443 23.6573 39.1748 22.8528 38.8382C22.786 39.1742 22.7187 39.4429 22.5852 39.7117M14.6768 48.2452C14.6095 48.0438 14.6095 47.9097 14.5427 47.7745M14.6768 48.2452C14.8109 48.2452 14.9444 48.3125 15.1458 48.3125M18.8986 50.5302C18.7645 50.3961 18.6315 50.2614 18.4301 50.1274M18.8986 50.5302C19.0332 50.4629 19.2341 50.4629 19.3682 50.3961M18.8986 50.5302C18.7645 50.3961 18.631 50.2614 18.4301 50.1274M18.8986 50.5302C19.0327 50.4629 19.2335 50.4629 19.3682 50.3961M22.8533 38.8382C22.5184 38.7708 22.1829 38.6368 21.848 38.5694C21.4463 38.4353 21.0434 38.368 20.7085 38.3007C20.3062 38.3007 19.9045 38.2339 19.5023 38.2339M15.1458 48.3125C14.9444 48.3125 14.8109 48.2457 14.6768 48.2457C14.6095 48.0438 14.6095 47.9097 14.5427 47.7751C14.2072 46.7675 14.0731 45.894 14.0731 45.0205M15.1458 48.3125C15.6816 48.3125 16.3526 48.3125 17.0898 48.1111C17.2234 48.5139 17.4248 48.8505 17.6929 49.186M15.1458 48.3125C15.6822 48.3125 16.3521 48.3125 17.0893 48.1111M18.4301 50.1274C18.296 49.9933 18.162 49.7913 18.0279 49.6567M18.4301 50.1274C18.296 49.9927 18.162 49.7913 18.0279 49.6567M19.5023 38.2339C18.9659 38.3007 18.4301 38.3007 17.9606 38.4353M19.5023 38.2339C19.5023 38.4354 19.435 38.6368 19.3009 38.8387C19.2387 39.0302 19.1484 39.2114 19.0327 39.3762M17.9606 38.4353C17.4242 38.5021 16.9557 38.7035 16.4862 38.8382C16.4862 38.9049 16.4188 38.9049 16.4188 38.9049M19.3682 50.3961C19.8938 50.2004 20.4083 49.976 20.9094 49.724M27.0078 44.0797C26.8743 44.4825 26.6061 44.8864 26.3385 45.2892M26.3385 45.2892C26.2712 45.154 26.2044 44.9526 26.1371 44.8185M26.3385 45.2892C26.2712 45.4233 26.1365 45.5579 26.0698 45.692M26.3385 45.2892C26.2712 45.4233 26.1371 45.5579 26.0698 45.692M26.3385 45.2892C26.2712 45.1546 26.2038 44.9532 26.1365 44.8185M14.0731 45.0205C13.7382 44.9532 13.47 44.8191 13.2019 44.6177M14.0731 45.0205C14.0731 44.6844 14.0732 44.3484 14.1405 44.0124M14.0731 45.0205C14.3413 45.0878 14.6095 45.0878 14.9444 45.0878C15.2799 45.0878 15.6816 45.0205 16.0839 44.9532M14.0731 45.0205C14.0731 44.6844 14.0732 44.3478 14.1405 44.0118C14.1405 43.609 14.2078 43.2056 14.2751 42.8028C14.4092 42.4 14.5433 42.0634 14.6774 41.6606M25.534 40.9885C25.3999 41.5265 25.1317 42.1307 24.7294 42.8028M26.1371 44.8185C26.003 44.6166 25.9362 44.4157 25.8021 44.2143C25.668 44.0118 25.6007 43.8777 25.4666 43.6763M26.1371 44.8185C26.003 44.6171 25.9362 44.4157 25.8021 44.2138C25.668 44.0118 25.6013 43.8777 25.4672 43.6758M14.6774 41.6606C14.4092 41.5933 14.2078 41.5265 14.0743 41.3251C13.8061 41.6606 13.6052 42.064 13.4044 42.4M14.6774 41.6606C14.8115 41.1899 15.0791 40.7198 15.3467 40.2491M14.6774 41.6606C14.8109 41.7279 15.0118 41.7279 15.2799 41.7279M14.6774 41.6606C14.8109 41.1899 15.0785 40.7198 15.3467 40.2491M14.6774 41.6606C14.8115 41.7279 15.0118 41.7279 15.2799 41.7279M26.0698 45.692C25.7348 46.0948 25.3326 46.4982 24.9308 46.9683M22.5852 39.7117C22.7192 39.4429 22.786 39.1748 22.8528 38.8387C22.5178 38.7714 22.1829 38.6373 21.8474 38.57M22.5852 39.7117C22.4511 40.0471 22.317 40.3843 22.0488 40.7198M24.7294 42.8028C24.9976 43.0715 25.2658 43.3403 25.4666 43.6763M24.7294 42.8028C24.3272 42.4 23.9255 41.9961 23.4564 41.6606C23.0547 41.3251 22.5852 41.0558 22.1156 40.7871L22.0488 40.7198M24.7294 42.8028C24.9971 43.0715 25.2652 43.3403 25.4666 43.6763M24.7294 42.8028C24.5286 43.0715 24.3277 43.3403 24.0601 43.609M24.7294 42.8028C24.5286 43.0715 24.3277 43.3403 24.0596 43.609C23.9922 43.7436 23.9255 43.8104 23.7914 43.945C23.4564 44.3478 23.1215 44.6839 22.7192 45.0873M17.6929 49.186C17.7597 49.3212 17.8938 49.522 18.0279 49.6567M17.6929 49.186C17.4248 48.8505 17.2234 48.5139 17.0893 48.1111M17.6929 49.186C17.7597 49.3206 17.8938 49.522 18.0279 49.6567M17.0893 48.1111C16.8211 47.6404 16.6197 47.103 16.4862 46.6328M17.0893 48.1111C17.3574 48.0438 17.6924 47.977 18.0946 47.8424L18.4969 47.641C18.9665 47.5069 19.435 47.2376 19.9045 47.0362M17.0893 48.1111C16.8211 47.6404 16.6202 47.103 16.4862 46.6328M16.4862 46.6328C16.2897 46.1127 16.1547 45.572 16.0839 45.0205M20.9094 49.724C21.1108 49.6567 21.2448 49.5894 21.4457 49.5226M20.9094 49.724C21.1102 49.6567 21.2443 49.5894 21.4457 49.5226M21.4457 49.5226C21.513 49.4553 21.5798 49.388 21.6471 49.388M21.9147 49.5894C21.8474 49.5226 21.7806 49.4553 21.6471 49.388M21.9147 49.5894C21.848 49.5226 21.7812 49.4553 21.6471 49.388M22.0488 40.7198C21.0434 40.1823 20.0381 39.7122 19.0327 39.3762M22.0488 40.7198C22.3164 40.3843 22.4511 40.0483 22.5852 39.7128M22.0488 40.7198C22.0488 40.7871 22.0494 40.7871 21.982 40.8544C21.6471 41.3251 21.2448 41.862 20.7085 42.3327M22.0488 40.7198C21.0434 40.1823 20.0386 39.7122 19.0332 39.3756C19.0332 39.4429 18.9665 39.5102 18.8992 39.5776M19.0327 39.3762C18.8986 39.3094 18.8318 39.3088 18.6978 39.2415L18.5637 39.241C17.7591 39.0396 17.0219 38.9049 16.4188 38.9049M19.0327 39.3762C19.1668 39.1753 19.2335 39.0401 19.3009 38.8382M19.0327 39.3762C19.0327 39.4435 18.9665 39.5102 18.8992 39.5776M15.2799 41.7279C15.414 41.7279 15.6149 41.6606 15.8163 41.6606M24.4618 47.7751C24.3945 47.7083 24.3277 47.5731 24.3277 47.5063M16.0839 45.0205V44.9532M16.0839 45.0205V44.9526L16.218 44.8858C16.7543 44.7512 17.4242 44.5498 18.0273 44.2138M16.0839 45.0205C16.1512 45.5585 16.2853 46.0954 16.4862 46.6334M16.0839 44.9532C15.883 43.8109 15.749 42.6687 15.8163 41.6606M16.0839 44.9532C15.883 43.8104 15.749 42.6687 15.8163 41.6606M16.0839 44.9532L16.218 44.8864C16.7538 44.7518 17.4248 44.5498 18.0279 44.2143C18.0952 44.147 18.162 44.147 18.2293 44.0797M15.8163 41.6606C15.8163 41.4592 15.883 41.3251 15.883 41.1899M15.8163 41.6606C15.883 41.5933 16.0171 41.5933 16.0839 41.5933C16.3521 41.4592 16.6876 41.3251 17.0225 41.1905M15.8163 41.6606C15.8163 41.4586 15.883 41.3246 15.883 41.1899M15.883 41.1899C15.9504 40.3164 16.0839 39.5776 16.2853 38.9722M26.0698 45.6926C25.7354 46.0954 25.3331 46.4982 24.9308 46.9689C24.7968 47.103 24.6627 47.2376 24.4618 47.3717L24.3277 47.5063M21.6471 49.388C21.5798 49.2539 21.513 49.1187 21.3789 48.9846M21.6471 49.388L22.6519 48.7832M24.3277 47.5063C24.3277 47.5731 24.395 47.7077 24.4618 47.7745M24.3277 47.5063C24.2604 47.3717 24.1269 47.2376 24.0596 47.103C23.9255 46.8348 23.7246 46.5655 23.4564 46.23C23.2506 45.825 23.0036 45.4417 22.7192 45.0873M24.3277 47.5063C23.9928 47.7745 23.7246 47.9776 23.3891 48.2457C23.255 48.3131 23.121 48.4471 22.9869 48.5145C22.9201 48.5818 22.786 48.7159 22.6519 48.7832M24.3277 47.5063C23.9922 47.7745 23.7241 47.977 23.3891 48.2452C23.255 48.3125 23.1215 48.4466 22.9869 48.5139C22.9201 48.5812 22.786 48.7159 22.6519 48.7832M18.8992 39.5776C18.6983 39.779 18.4963 40.0477 18.2287 40.3164C18.7645 40.7192 19.3009 41.2572 19.904 41.862M18.8992 39.5776C18.6983 39.779 18.4969 40.0482 18.2293 40.317M22.7192 45.0873C22.9874 45.4227 23.2556 45.8261 23.4564 46.2295C23.7246 46.565 23.9255 46.8342 24.0596 47.1024M22.7192 45.0873C22.5852 44.8853 22.4511 44.7512 22.317 44.5498C21.982 44.0797 21.5798 43.6763 21.2448 43.2735C20.9767 43.0048 20.7758 42.7355 20.5076 42.4673M22.7192 45.0873C23.1215 44.6839 23.4564 44.3484 23.7914 43.9456M22.7192 45.0873C22.5852 45.154 22.4511 45.2892 22.317 45.4233C21.982 45.6247 21.7139 45.894 21.3789 46.0954M21.3789 48.9846C21.1781 48.7832 20.9767 48.4466 20.7091 48.1111C20.4409 47.775 20.1727 47.3717 19.9045 47.0362M21.3789 48.9846C21.513 49.1187 21.5798 49.2533 21.6471 49.3874L22.6519 48.7832M19.9045 47.0362C19.8372 46.8348 19.7031 46.6334 19.569 46.4309M19.9045 47.0362C20.1054 46.9021 20.2395 46.8348 20.3736 46.7675M19.9045 47.0362C19.8378 46.8342 19.7031 46.6328 19.569 46.4309M19.569 46.4309L18.7645 45.0199C18.5637 44.6839 18.4301 44.4157 18.2293 44.0797M20.7085 42.3327C20.6412 42.4 20.5744 42.4673 20.5076 42.4673M20.7085 42.3327C20.6417 42.4 20.5744 42.4673 20.5076 42.4673M16.4188 38.9049L16.3515 38.9055C16.7538 39.1748 17.156 39.4435 17.6251 39.8463M17.6251 39.8463C17.8265 39.9809 18.0279 40.115 18.2293 40.317M19.904 41.862L20.5076 42.4673M19.904 41.862C19.3009 41.2572 18.7651 40.7203 18.2293 40.317M18.2293 40.317C18.0279 40.4516 17.827 40.6525 17.6256 40.7871M18.2293 40.317C18.0279 40.4522 17.827 40.653 17.6256 40.7871M18.2293 40.317C18.0279 40.1156 17.827 39.9809 17.6256 39.8457M20.3736 46.7675C20.7091 46.5661 21.044 46.3641 21.3789 46.0954M20.3736 46.7675C20.7085 46.5661 21.0434 46.3647 21.3789 46.0954M20.5076 42.4673C20.1809 42.7943 19.8215 43.0868 19.435 43.3403C19.0327 43.609 18.6315 43.8783 18.2293 44.0797M19.5696 46.4314L18.7651 45.0205C18.5642 44.6844 18.4301 44.4157 18.2293 44.0797M16.2853 38.9722C16.2853 38.9722 16.2853 39.0396 16.218 39.0396C15.883 39.3751 15.6149 39.779 15.3467 40.2485M17.8938 43.2735C17.4915 42.5341 17.2234 41.7952 17.0225 41.1905M17.8938 43.2735C17.9606 43.5422 18.0952 43.8109 18.2293 44.0797M17.8938 43.2735C17.4915 42.5346 17.2234 41.7958 17.0225 41.1905M17.0225 41.1905L17.6256 40.7871" stroke="#050505" stroke-width="6.53676" stroke-miterlimit="2.613" stroke-linecap="round" stroke-linejoin="round"/>
<path fill-rule="evenodd" clip-rule="evenodd" d="M24.8659 12.9689L31.0317 19.016C32.6402 20.6283 33.8464 22.1739 34.5163 23.2494C34.2481 22.1066 34.0472 20.1582 33.9799 19.1506L33.8469 12.9689H40.0127V28.0202H33.2438L27.7485 22.2412C26.0059 20.3596 24.0625 18.2766 23.4594 17.3358C23.6608 18.5453 23.7276 20.3591 23.7943 21.5692L23.9284 28.0197H17.6953V12.9689H24.8659ZM61.3247 15.9254C59.65 15.3206 57.9742 15.0519 56.1643 15.0519C54.0195 15.0519 51.8752 15.5899 50.7358 16.3287C49.4617 17.2022 48.9264 18.4791 48.9264 20.2261C48.9264 22.3091 49.3287 23.4513 50.2673 24.2575C51.5403 25.333 53.6846 25.9372 56.4331 25.9372C58.3759 25.9372 60.0523 25.6684 61.9284 24.9964L64.8772 26.878C62.3307 27.8188 59.65 28.2889 55.9635 28.2889C51.5403 28.2889 48.1225 27.6174 45.5086 26.2064C42.9621 24.8623 41.6217 23.048 41.6217 20.8309C41.6217 18.9498 42.359 17.4715 43.8334 16.1273C46.3131 13.977 50.9372 12.6328 56.0987 12.6328C59.2478 12.6328 62.4647 13.1708 64.2073 13.8424L61.3247 15.9254Z" fill="#050505"/>
<path fill-rule="evenodd" clip-rule="evenodd" d="M81.495 15.9254C79.8871 15.3206 78.1445 15.0519 76.3346 15.0519C74.1898 15.0519 72.1123 15.5899 70.9061 16.3287C69.6987 17.2022 69.0967 18.4791 69.0967 20.2261C69.0967 22.3091 69.499 23.4513 70.4365 24.2575C71.7774 25.333 73.8549 25.9372 76.6701 25.9372C78.5462 25.9372 80.2226 25.6684 82.0987 24.9964L85.1143 26.878C82.5677 27.8188 79.8192 28.2889 76.2006 28.2889C71.7774 28.2889 68.3601 27.6174 65.7457 26.2064C63.1324 24.8623 61.8594 23.048 61.8594 20.8309C61.8594 18.9498 62.5287 17.4715 64.0042 16.1273C66.4829 13.977 71.1075 12.6328 76.269 12.6328C79.486 12.6328 82.6351 13.1708 84.3776 13.8424L81.495 15.9254Z" fill="#050505"/>
<path fill-rule="evenodd" clip-rule="evenodd" d="M87.7957 10.3479C90.9448 13.2371 92.8888 16.6643 93.2911 20.427C94.6308 33.8654 75.531 46.9016 50.5324 49.4548C48.6557 49.6562 46.7796 49.7903 44.9697 49.8576C46.1086 49.8576 47.3154 49.9249 48.4549 49.9249C75.2628 49.9249 96.9771 38.703 96.9771 24.9285C96.9771 19.4862 93.5598 14.4466 87.7957 10.3479ZM45.5728 0.67214C48.8577 0.336096 52.0736 0.201457 55.157 0.201457C52.9256 0.0650524 50.6905 -0.00211603 48.4549 5.07874e-05C21.7143 5.07874e-05 0 11.1541 0 24.9291C0 28.9611 1.87666 32.7911 5.1604 36.2178C3.88685 34.202 3.01557 32.0517 2.81471 29.6999C1.40763 16.2609 20.5748 3.2253 45.5728 0.67214Z" fill="#F4BF00"/>
</svg>
