<svg width="154" height="32" viewBox="0 0 154 32" fill="none" xmlns="http://www.w3.org/2000/svg">
<path d="M85.8624 26.0812C86.1213 26.0442 86.3063 25.9702 86.5282 25.8592C86.7132 25.7852 86.9722 25.6003 87.3051 25.3783C87.7491 25.0823 88.008 24.7864 88.156 24.4904C88.267 24.2315 88.341 23.9725 88.341 23.7876C88.341 23.6026 88.23 23.4916 87.971 23.4916C87.7861 23.4916 87.6011 23.5656 87.4161 23.6766C87.2311 23.8245 87.0092 24.0095 86.7502 24.3055C86.5282 24.6014 86.3433 24.8604 86.2323 25.1563C86.0103 25.4893 85.8993 25.7852 85.8624 26.0812ZM85.7144 27.006C85.6774 27.08 85.6774 27.117 85.6774 27.191V27.339C85.6774 27.9679 85.7884 28.4858 86.0103 28.8188C86.2323 29.1887 86.6392 29.3367 87.2311 29.3367C87.3791 29.3367 87.5271 29.2997 87.7121 29.2627C87.86 29.2257 88.008 29.1517 88.156 29.1147L88.5999 28.8928C88.6739 28.9667 88.6739 29.0407 88.6739 29.1887C88.6739 29.2627 88.5999 29.3367 88.452 29.4107C88.304 29.5217 88.156 29.5956 87.934 29.7066C87.7121 29.7806 87.4531 29.8916 87.1941 29.9286C86.9352 30.0026 86.6392 30.0396 86.3803 30.0396C85.7514 30.0396 85.2334 29.8546 84.8635 29.4847C84.4936 29.1147 84.3086 28.5598 84.3086 27.8939C84.3086 27.302 84.4196 26.7101 84.6045 26.1922C84.7895 25.6373 85.1225 25.1193 85.5664 24.6014C85.8254 24.3055 86.1213 24.0465 86.4173 23.7876C86.7132 23.5656 87.1202 23.3066 87.5641 23.0847C87.823 22.9367 88.045 22.8627 88.23 22.8257C88.4519 22.7887 88.5999 22.7517 88.7479 22.7147C89.0439 22.7147 89.2658 22.7517 89.3768 22.8257C89.4878 22.8997 89.5618 23.0477 89.5618 23.2326C89.5618 23.3066 89.5618 23.4546 89.5248 23.5656C89.4878 23.7136 89.4138 23.8615 89.3028 24.0835C89.1918 24.2685 89.0069 24.4904 88.7849 24.7124C88.5629 24.9344 88.267 25.1933 87.897 25.4893C87.6011 25.7112 87.3421 25.9332 87.0462 26.0812C86.7872 26.2292 86.5652 26.3771 86.3433 26.4881C86.1213 26.5991 85.8993 26.7101 85.7144 26.7841V27.006ZM97.5895 19.4222C97.4045 19.9771 97.2566 20.5321 97.0716 21.05C96.9236 21.5309 96.7757 22.0118 96.5907 22.5667C96.4057 23.0847 96.2577 23.6026 96.1467 24.0465C96.0358 24.3795 95.9618 24.7124 95.8508 24.9714C95.7768 25.2303 95.6658 25.4893 95.5918 25.7482C95.5178 26.0072 95.4439 26.2662 95.3699 26.5621C95.2959 26.8581 95.2219 27.191 95.1479 27.561C95.1109 27.6349 95.1109 27.7459 95.1109 27.8569C95.1109 27.9679 95.0739 28.0789 95.0739 28.1529C95.0369 28.2638 95.0369 28.3748 95.0369 28.4858C95.0369 28.5968 95.0739 28.7078 95.1479 28.8188L95.2959 29.0037C95.2959 29.0777 95.2219 29.1887 95.1479 29.3367C95.0739 29.4847 94.9629 29.5956 94.8519 29.7066C94.704 29.8546 94.593 29.9286 94.445 30.0026C94.334 30.0766 94.223 30.0766 94.1491 30.0766C93.9641 30.0766 93.8531 30.0396 93.8161 29.9286C93.7791 29.8176 93.7421 29.7066 93.7421 29.5956C93.7421 29.5217 93.7421 29.3737 93.7791 29.1887C93.8161 29.0037 93.8531 28.7818 93.8901 28.5598L94.0011 27.8939C94.0381 27.6719 94.0751 27.524 94.1121 27.413H94.0751C93.8531 27.7089 93.5941 28.0049 93.3722 28.3008C93.1132 28.5968 92.8543 28.8928 92.5213 29.1887C92.3363 29.3737 92.1514 29.5217 92.0034 29.6696C91.8554 29.7806 91.7074 29.8916 91.5965 29.9656C91.4855 30.0396 91.3745 30.0766 91.2635 30.1136C91.1525 30.1506 91.0785 30.1875 90.9676 30.1875C90.6716 30.1875 90.4126 30.1136 90.2277 29.9286C90.0427 29.7436 89.9317 29.4107 89.9317 28.8558C89.9317 28.1899 90.0797 27.561 90.3387 26.9321C90.5976 26.3032 91.0045 25.7112 91.5225 25.1193C92.0034 24.5644 92.5213 24.1205 93.0762 23.8245C93.6311 23.4916 94.186 23.3066 94.8149 23.2326L95.3329 23.1586C95.4809 22.6777 95.6288 22.2708 95.7398 21.8638C95.8508 21.5309 95.9248 21.198 96.0358 20.865C96.1098 20.5691 96.1837 20.3471 96.1837 20.2361C96.1837 20.1991 96.1837 20.1621 96.1467 20.1251C96.1097 20.0881 96.0728 20.0881 96.0358 20.0881C95.9988 20.0881 95.9248 20.0881 95.8508 20.1251H95.7398C95.7028 20.1251 95.6658 20.1251 95.6658 20.1621C95.6288 20.1621 95.6288 20.1621 95.6288 20.1251V20.0511L95.7028 19.9771C95.7768 19.9032 95.9248 19.8292 96.1097 19.7552C96.2947 19.6442 96.5167 19.5702 96.7757 19.4592C97.0346 19.3852 97.2566 19.3112 97.4785 19.3112C97.5525 19.2003 97.5895 19.2743 97.5895 19.4222ZM94.556 23.7876C94.0011 23.7876 93.4832 23.9725 93.0022 24.3795C92.5213 24.7864 92.1144 25.3783 91.7814 26.1552C91.6335 26.5621 91.4855 26.9321 91.4115 27.302C91.3375 27.6719 91.3005 28.0049 91.3005 28.3378C91.3005 28.7818 91.4115 29.0407 91.6335 29.1147C91.8184 29.0777 92.0034 28.9667 92.2624 28.7818C92.4843 28.5968 92.7433 28.3378 93.0392 28.0049C93.1502 27.8939 93.2612 27.7459 93.4092 27.598L93.8531 27.043C94.0011 26.8211 94.1491 26.6361 94.26 26.4141C94.371 26.1922 94.482 25.9702 94.556 25.7852L95.1479 23.8245H94.556V23.7876ZM99.2913 26.6361C99.2543 26.7471 99.2173 26.8951 99.1803 27.043C99.1433 27.191 99.1063 27.339 99.0323 27.487C98.9953 27.6349 98.9583 27.7459 98.9213 27.8569C98.8843 27.9679 98.8843 28.0419 98.8843 28.0789C98.8843 28.1159 98.8843 28.1529 98.9213 28.1899C98.9213 28.2269 98.9583 28.2639 98.9953 28.2639C99.0323 28.2639 99.1433 28.1899 99.2543 28.0789C99.4022 27.9679 99.5502 27.7829 99.7722 27.487C100.031 27.191 100.253 26.8951 100.438 26.6361C100.623 26.3771 100.808 26.1552 100.993 25.8962C101.178 25.6743 101.326 25.4153 101.511 25.1933C101.696 24.9344 101.881 24.6754 102.066 24.3425C102.214 24.1205 102.325 23.9355 102.399 23.7506C102.473 23.5656 102.621 23.4176 102.806 23.2326C102.917 23.1217 103.065 23.0477 103.176 22.9737C103.287 22.8997 103.435 22.8627 103.546 22.7887C103.657 22.7517 103.731 22.7147 103.805 22.7147H103.953C104.027 22.7147 104.064 22.7517 104.064 22.8627C104.064 22.8997 104.027 22.9737 103.99 23.1217C103.916 23.2696 103.879 23.4546 103.768 23.6766C103.694 23.8985 103.62 24.1205 103.509 24.3795C103.435 24.6384 103.361 24.8604 103.287 25.0823C103.213 25.2673 103.176 25.4523 103.139 25.6003C103.102 25.7482 103.065 25.8962 103.028 26.0812C102.991 26.2292 102.954 26.3771 102.917 26.5621C102.88 26.7101 102.843 26.8951 102.806 27.08C102.769 27.265 102.695 27.487 102.658 27.7089C102.621 27.9309 102.584 28.1529 102.547 28.3378C102.51 28.5598 102.473 28.8188 102.436 29.0407C102.436 29.0777 102.436 29.1517 102.399 29.2257C102.399 29.2997 102.362 29.3737 102.325 29.4847C102.325 29.5217 102.288 29.5586 102.214 29.6326C102.177 29.6696 102.14 29.7066 102.066 29.7436C101.992 29.8176 101.918 29.8546 101.807 29.9286C101.733 30.0026 101.622 30.0396 101.548 30.1136C101.474 30.1506 101.4 30.1875 101.363 30.1875C101.326 30.1875 101.252 30.1875 101.215 30.1506C101.141 30.1136 101.141 30.0766 101.141 30.0396V29.8916C101.141 29.8176 101.141 29.7066 101.178 29.4847C101.215 29.2997 101.252 29.0407 101.289 28.7818C101.326 28.5228 101.4 28.2269 101.437 27.8939C101.511 27.598 101.548 27.302 101.622 27.006C101.659 26.8211 101.696 26.6361 101.77 26.4141C101.844 26.1922 101.881 26.0072 101.955 25.8222C102.029 25.6003 102.066 25.3783 102.14 25.1563C101.955 25.4153 101.733 25.6743 101.548 25.9332C101.363 26.1552 101.178 26.4141 100.956 26.7101L100.29 27.598C100.142 27.7829 99.9941 28.0049 99.8462 28.1529C99.6982 28.3378 99.5502 28.4858 99.4392 28.5968C99.3282 28.7078 99.2173 28.8188 99.1433 28.9297C99.0693 29.0407 98.9583 29.1147 98.8843 29.2257C98.8103 29.2997 98.6993 29.4107 98.5884 29.4847C98.4774 29.5586 98.3664 29.6326 98.2554 29.7436C98.1444 29.8176 98.0334 29.8546 97.9595 29.8546H97.7745C97.5155 29.8546 97.3676 29.6696 97.3676 29.2627C97.3676 29.1887 97.4045 29.0037 97.4415 28.7448C97.5155 28.4858 97.5895 28.1529 97.7375 27.7829L98.4034 25.7112C98.5514 25.3043 98.6254 24.9714 98.6993 24.7124C98.7733 24.4534 98.8103 24.2685 98.8843 24.1205C98.9213 23.9725 98.9583 23.8615 98.9583 23.7876V23.6766V23.5656C98.9583 23.5286 98.9213 23.5286 98.8843 23.5286C98.8473 23.5286 98.7733 23.5656 98.6624 23.6026C98.5884 23.6766 98.5144 23.6766 98.4404 23.6766C98.3664 23.6766 98.3294 23.6026 98.3294 23.4916C98.3294 23.4546 98.4774 23.3066 98.7363 23.1586C99.1063 22.9367 99.4392 22.7517 99.6982 22.6777C99.9572 22.6037 100.142 22.5667 100.29 22.5667C100.364 22.5667 100.401 22.6407 100.401 22.7517C100.401 22.8257 100.401 22.9737 100.364 23.1586L100.253 23.7136L99.2913 26.6361ZM108.244 24.8974C108.318 24.7124 108.355 24.5274 108.392 24.3795C108.429 24.1945 108.429 24.0095 108.429 23.7876C108.429 23.5656 108.318 23.4546 108.096 23.4546C107.763 23.4546 107.467 23.5656 107.171 23.8245C106.875 24.0835 106.616 24.3795 106.357 24.7864C106.135 25.1933 105.95 25.6373 105.802 26.1182C105.654 26.5991 105.58 27.154 105.58 27.6719C105.58 28.2269 105.691 28.6338 105.913 28.9667C106.024 29.1147 106.172 29.2257 106.32 29.2627C106.468 29.3367 106.727 29.3367 106.986 29.3367C107.171 29.3367 107.393 29.2997 107.541 29.2257C107.726 29.1517 107.874 29.0777 108.059 28.9667C108.17 28.8928 108.244 28.8558 108.318 28.8558C108.355 28.8558 108.429 28.8558 108.466 28.8928C108.503 28.9297 108.54 29.0037 108.54 29.1147C108.54 29.1517 108.466 29.2257 108.355 29.3367C108.207 29.4477 108.059 29.5586 107.8 29.6326C107.578 29.7436 107.282 29.8176 106.986 29.9286C106.69 30.0026 106.32 30.0396 105.987 30.0396C105.506 30.0396 105.099 29.8916 104.766 29.5956C104.433 29.2997 104.285 28.8558 104.248 28.2639C104.248 26.8581 104.766 25.5263 105.876 24.3055C106.135 24.0465 106.357 23.7875 106.653 23.6026C106.912 23.4176 107.171 23.2326 107.43 23.0847C107.689 22.9367 107.911 22.8627 108.133 22.7887C108.355 22.7147 108.54 22.6777 108.688 22.6777C108.762 22.6777 108.873 22.6777 108.984 22.7147C109.095 22.7147 109.169 22.7517 109.28 22.7887C109.354 22.8257 109.428 22.8997 109.502 22.9737C109.576 23.0477 109.576 23.1586 109.576 23.2696C109.576 23.6396 109.539 23.9725 109.465 24.2685C109.428 24.3795 109.391 24.4904 109.354 24.6384C109.28 24.7864 109.206 24.8974 109.095 24.9714C108.91 25.1193 108.762 25.1933 108.614 25.2673C108.466 25.3043 108.355 25.3413 108.281 25.3413C108.207 25.3413 108.17 25.3043 108.17 25.2673L108.244 24.8974ZM113.978 27.376C113.275 28.2269 112.683 28.8558 112.202 29.2997C111.721 29.7436 111.277 30.0026 110.907 30.0766C110.574 30.0766 110.316 29.9656 110.131 29.7436C109.946 29.5217 109.872 29.1887 109.872 28.7818C109.872 28.1159 110.02 27.487 110.316 26.8581C110.611 26.2292 111.018 25.6373 111.499 25.1193C111.98 24.6014 112.498 24.1945 113.016 23.8615C113.534 23.5656 114.089 23.3066 114.644 23.1956C114.829 23.1586 115.051 23.1217 115.273 23.0847C115.495 23.0477 115.643 23.0477 115.754 23.0477C115.865 23.0477 115.976 23.0477 116.05 23.0847C116.124 23.1217 116.161 23.1586 116.161 23.1956C116.161 23.3066 116.124 23.4176 116.013 23.4916C115.976 23.5286 115.902 23.5656 115.828 23.6026C115.754 23.6396 115.68 23.6396 115.569 23.6766C115.495 23.6766 115.347 23.6766 115.199 23.6396C115.014 23.6026 114.866 23.6026 114.718 23.6026C114.459 23.6026 114.237 23.6396 114.015 23.7506C113.793 23.8615 113.571 23.9725 113.349 24.1575C113.127 24.3425 112.905 24.5274 112.72 24.7494C112.498 24.9714 112.313 25.2303 112.128 25.5263C111.943 25.8222 111.795 26.1182 111.647 26.4141C111.499 26.7841 111.388 27.154 111.314 27.45C111.24 27.7829 111.203 28.0789 111.203 28.4118C111.203 28.6708 111.24 28.8558 111.314 28.9297C111.388 29.0037 111.462 29.0777 111.573 29.0777C111.721 29.0777 111.943 28.9667 112.165 28.7818C112.387 28.5968 112.646 28.3378 112.905 28.0419C113.164 27.7459 113.423 27.413 113.645 27.043C113.904 26.6731 114.126 26.3402 114.274 26.0072C114.385 25.7852 114.496 25.5633 114.57 25.3413C114.644 25.1193 114.718 24.9714 114.755 24.8604C114.829 24.7124 114.866 24.5644 114.94 24.4165C115.014 24.2685 115.088 24.1575 115.273 24.0835C115.421 24.0095 115.569 23.9355 115.717 23.8985C115.865 23.8615 115.976 23.8245 116.05 23.8245C116.161 23.8245 116.198 23.8615 116.198 23.9725C116.124 24.1945 116.013 24.4534 115.939 24.7124C115.865 24.9344 115.754 25.1933 115.68 25.4523C115.606 25.7113 115.495 25.9702 115.421 26.2662C115.31 26.6731 115.236 27.117 115.162 27.524C115.088 27.9309 115.051 28.2639 115.051 28.4858C115.051 28.5968 115.051 28.7078 115.088 28.8188C115.125 28.9297 115.162 29.0037 115.199 29.0777L115.347 29.2627C115.347 29.2997 115.273 29.4107 115.199 29.5217C115.125 29.6326 115.014 29.7436 114.903 29.8916C114.792 30.0026 114.681 30.1136 114.533 30.2245C114.422 30.2985 114.311 30.3725 114.2 30.3725C114.052 30.3725 113.978 30.3355 113.904 30.2245C113.83 30.1136 113.793 29.9286 113.793 29.6326C113.793 29.4107 113.793 29.1887 113.83 28.9297C113.867 28.6708 113.867 28.4488 113.904 28.2269L114.015 27.45H113.978V27.376ZM121.266 23.3436C121.562 23.3436 121.821 23.3436 122.006 23.3066C122.191 23.2696 122.413 23.2696 122.672 23.2696C122.783 23.2696 122.857 23.2696 122.894 23.3066C122.931 23.3066 122.931 23.3436 122.931 23.3806C122.931 23.4546 122.82 23.5656 122.635 23.6766C122.561 23.7136 122.413 23.7875 122.265 23.8245C122.117 23.8615 121.932 23.8985 121.71 23.9355C121.562 23.9725 121.451 23.9725 121.34 23.9725C121.229 23.9725 121.118 24.0095 120.97 24.0095H120.415C120.378 24.1205 120.341 24.3425 120.23 24.6014C120.156 24.8974 120.045 25.1933 119.971 25.5263C119.86 25.8592 119.786 26.2292 119.675 26.6361C119.564 27.043 119.49 27.413 119.416 27.7459C119.379 27.9679 119.342 28.1529 119.305 28.3008C119.305 28.4488 119.268 28.5968 119.268 28.6708C119.268 28.7448 119.268 28.8188 119.305 28.8558C119.305 28.8928 119.342 28.9667 119.342 29.0407C119.342 29.0777 119.342 29.1517 119.305 29.1887C119.305 29.2257 119.268 29.2627 119.231 29.3367C119.194 29.3737 119.157 29.4477 119.046 29.5217C118.972 29.5956 118.861 29.6696 118.75 29.7806L118.417 30.0026C118.306 30.0766 118.195 30.1136 118.121 30.1136C117.899 30.1136 117.788 30.0396 117.788 29.8916C117.788 29.8546 117.788 29.7806 117.825 29.6326C117.862 29.5217 117.899 29.3737 117.899 29.2257C117.936 29.0777 117.973 28.9297 118.01 28.7448C118.047 28.5598 118.084 28.4118 118.121 28.2269C118.195 27.8939 118.306 27.561 118.38 27.191C118.454 26.8211 118.565 26.4881 118.639 26.1922C118.713 25.8592 118.824 25.5633 118.898 25.3043C118.972 25.0454 119.046 24.7864 119.083 24.6384C119.12 24.5644 119.12 24.4534 119.157 24.3425C119.194 24.2315 119.231 24.0835 119.268 23.9725C119.083 23.9725 118.898 24.0095 118.713 24.0095H118.01C117.825 24.0095 117.751 23.9355 117.751 23.8245C117.751 23.7136 117.788 23.6396 117.825 23.5656C117.862 23.4916 117.936 23.4546 118.01 23.3806C118.121 23.3066 118.232 23.2696 118.306 23.2696H119.49L119.934 21.7529C120.008 21.4939 120.119 21.2719 120.267 21.087C120.415 20.902 120.563 20.754 120.785 20.68C120.933 20.643 121.081 20.606 121.229 20.606C121.303 20.606 121.377 20.643 121.377 20.754C121.34 20.865 121.303 20.939 121.266 21.013C121.229 21.087 121.192 21.161 121.192 21.2349C121.155 21.3089 121.118 21.3829 121.118 21.4569C121.081 21.5309 121.044 21.6419 121.007 21.7529L120.526 23.2696H121.266V23.3436ZM125.52 23.0847C125.446 23.3066 125.409 23.5656 125.335 23.7876C125.298 23.9725 125.224 24.1945 125.15 24.4165C125.076 24.6384 125.039 24.8604 124.965 25.0454C124.891 25.2303 124.854 25.4153 124.817 25.5633L124.706 26.0072L124.595 26.4511C124.558 26.5991 124.521 26.7841 124.447 26.9691C124.41 27.154 124.336 27.302 124.299 27.524C124.262 27.7089 124.188 27.8939 124.151 28.0419C124.114 28.2269 124.077 28.3378 124.04 28.4858C124.003 28.5968 124.003 28.7078 124.003 28.7448C124.003 28.8188 124.003 28.8928 124.04 28.9667C124.04 29.0407 124.077 29.0777 124.077 29.1517C124.077 29.1887 124.077 29.2997 124.04 29.4107C124.003 29.5217 123.855 29.6696 123.633 29.8916C123.596 29.9286 123.559 29.9286 123.522 29.9656L123.3 30.0766C123.227 30.1136 123.153 30.1506 123.042 30.1875C122.968 30.2245 122.894 30.2245 122.82 30.2245C122.746 30.2245 122.672 30.2245 122.598 30.1875C122.524 30.1506 122.524 30.1136 122.524 30.0396C122.524 29.9286 122.561 29.7436 122.635 29.5217C122.746 29.1887 122.857 28.8558 122.931 28.5968C123.005 28.3378 123.116 28.0049 123.227 27.6349C123.301 27.339 123.374 27.117 123.411 26.9321C123.448 26.7471 123.522 26.4881 123.596 26.2292C123.633 26.0442 123.707 25.8222 123.744 25.6003C123.818 25.3783 123.855 25.1933 123.892 25.0084C123.929 24.8234 123.966 24.6384 124.003 24.4904C124.04 24.3425 124.04 24.1945 124.04 24.1205C124.04 24.0095 124.04 23.9725 124.003 23.9355C123.966 23.8985 123.929 23.8985 123.892 23.8985H123.781C123.744 23.8985 123.707 23.9355 123.633 23.9355C123.559 23.9355 123.522 23.9725 123.448 23.9725C123.411 23.9355 123.374 23.8615 123.374 23.7506C123.448 23.6766 123.633 23.5656 123.892 23.4546C124.151 23.3436 124.484 23.2326 124.817 23.1217C125.002 23.0477 125.224 23.0107 125.409 23.0107C125.483 22.9367 125.52 22.9737 125.52 23.0847ZM126.149 20.828C126.112 21.087 126.038 21.3089 125.89 21.4939C125.742 21.6789 125.52 21.7899 125.187 21.7899C124.965 21.7899 124.817 21.7529 124.743 21.6789C124.669 21.6049 124.632 21.4199 124.632 21.161C124.669 20.828 124.743 20.5691 124.854 20.3841C125.002 20.1991 125.224 20.1251 125.594 20.1251C125.816 20.1251 125.964 20.1991 126.038 20.3101C126.112 20.4211 126.149 20.606 126.149 20.828ZM128.11 30.0396C127.629 30.0396 127.222 29.9286 126.926 29.6696C126.63 29.4107 126.482 29.0407 126.445 28.5228C126.445 28.1159 126.482 27.7089 126.593 27.265C126.704 26.8211 126.889 26.3771 127.185 25.8962C127.407 25.4893 127.666 25.1193 127.962 24.7864C128.258 24.4534 128.591 24.1205 128.961 23.7876C129.294 23.4916 129.59 23.2696 129.811 23.1217C130.07 22.9737 130.255 22.8997 130.403 22.8997H130.736C130.773 22.8627 130.847 22.8257 130.995 22.7887C131.143 22.7517 131.254 22.7147 131.402 22.7147C131.846 22.7147 132.142 22.8627 132.327 23.1586C132.512 23.4546 132.586 23.8615 132.586 24.3425C132.586 25.4153 132.179 26.5991 131.365 27.8939C130.403 29.3367 129.331 30.0396 128.11 30.0396ZM131.402 24.6384C131.402 24.2685 131.328 23.9725 131.217 23.7506C131.106 23.5286 130.921 23.4176 130.736 23.4176H130.662C130.625 23.4176 130.625 23.4546 130.588 23.4546L130.514 23.4916L130.255 23.4546C129.59 23.4546 128.998 24.1575 128.406 25.6003C128.184 26.1922 127.999 26.6731 127.888 27.08C127.777 27.487 127.703 27.8569 127.703 28.1159C127.703 28.5228 127.777 28.8558 127.962 29.0407C128.11 29.2627 128.332 29.3737 128.591 29.3737C128.887 29.3737 129.183 29.2627 129.516 29.0777C129.811 28.8928 130.107 28.5228 130.403 28.0789C130.551 27.8199 130.699 27.524 130.81 27.191C130.921 26.8581 131.032 26.5251 131.106 26.1922C131.18 25.8592 131.254 25.5633 131.291 25.2673C131.365 25.0084 131.402 24.7864 131.402 24.6384ZM138.875 26.4881C138.838 26.6361 138.801 26.8211 138.764 27.006C138.727 27.191 138.69 27.339 138.653 27.487C138.616 27.6349 138.579 27.7829 138.579 27.8939C138.542 28.0049 138.542 28.1159 138.542 28.1899V28.7818C138.542 28.8558 138.542 28.9297 138.505 28.9667C138.468 29.0037 138.431 29.0777 138.357 29.1517L138.172 29.3367C138.061 29.4107 137.95 29.4847 137.839 29.5956L137.506 29.8176C137.395 29.8916 137.321 29.8916 137.247 29.8916C137.173 29.8916 137.099 29.8546 137.062 29.8176C137.025 29.7806 136.988 29.7066 136.988 29.5586C136.988 29.5217 136.988 29.4107 137.025 29.2997C137.062 29.1887 137.099 29.0037 137.173 28.7078C137.21 28.5228 137.247 28.3748 137.284 28.2269C137.321 28.0789 137.358 27.9679 137.395 27.8199C137.432 27.6719 137.469 27.561 137.506 27.413L137.617 26.9691C137.728 26.5991 137.839 26.2292 137.913 25.9332C138.024 25.6373 138.098 25.3413 138.172 25.0454C138.246 24.8604 138.283 24.6384 138.32 24.4165C138.357 24.1945 138.394 24.0465 138.394 23.9725C138.394 23.7506 138.357 23.6396 138.283 23.6396C138.172 23.6396 137.987 23.7506 137.765 23.9355C137.506 24.1205 137.21 24.4534 136.877 24.9344C136.581 25.3413 136.285 25.7482 136.027 26.1552C135.768 26.5621 135.546 26.9691 135.361 27.413C135.287 27.598 135.176 27.8199 135.065 28.1159C134.954 28.3748 134.843 28.6708 134.769 28.9667C134.695 29.1517 134.658 29.2997 134.621 29.4107C134.584 29.5217 134.51 29.6326 134.399 29.7806C134.362 29.8176 134.325 29.8546 134.251 29.8916L134.029 30.0026C133.955 30.0396 133.844 30.0766 133.77 30.1136C133.696 30.1506 133.585 30.1506 133.511 30.1506C133.437 30.1506 133.363 30.1136 133.289 30.0766C133.252 30.0396 133.215 29.9656 133.215 29.8916C133.215 29.7806 133.215 29.6696 133.252 29.5956C133.289 29.5217 133.326 29.3737 133.4 29.1887C133.474 28.9667 133.585 28.7448 133.659 28.4858C133.733 28.2639 133.844 28.0049 133.918 27.7089C133.992 27.413 134.103 27.117 134.214 26.7841C134.288 26.4881 134.399 26.1922 134.473 25.8592C134.547 25.5263 134.658 25.2303 134.732 24.9344C134.806 24.6384 134.88 24.3795 134.954 24.1945C135.028 23.9725 135.028 23.8615 135.065 23.7876C135.065 23.7506 135.065 23.7136 135.102 23.6766V23.6026C135.102 23.5656 135.102 23.5286 135.065 23.5286H134.991C134.954 23.5286 134.88 23.5286 134.769 23.5656C134.695 23.6026 134.584 23.6396 134.51 23.6766C134.399 23.7136 134.325 23.7875 134.214 23.8615L134.14 23.9355C134.066 23.9725 134.029 24.0095 134.029 24.0095C133.992 24.0095 133.955 23.9725 133.955 23.9355C133.955 23.8985 133.918 23.8615 133.918 23.8245C133.918 23.7875 133.955 23.7506 134.066 23.6396C134.14 23.5656 134.288 23.4546 134.399 23.3806C134.547 23.2696 134.695 23.1956 134.88 23.0847C135.065 23.0107 135.213 22.8997 135.361 22.8627C135.546 22.7887 135.694 22.7517 135.842 22.7147C135.953 22.6777 136.138 22.6777 136.396 22.6777C136.47 22.6777 136.544 22.7147 136.544 22.8257C136.544 22.8627 136.544 23.0107 136.507 23.1956C136.47 23.3806 136.396 23.7136 136.248 24.1575L135.731 25.9332L135.768 25.9702C135.953 25.7482 136.101 25.4893 136.285 25.2673C136.433 25.0823 136.618 24.8604 136.766 24.6384C136.951 24.4165 137.099 24.1945 137.284 24.0095C137.358 23.8985 137.469 23.7875 137.58 23.6766C137.691 23.5656 137.802 23.4546 137.913 23.3806L138.172 23.1217C138.246 23.0477 138.283 23.0107 138.32 23.0107C138.468 22.8997 138.653 22.8257 138.801 22.7887C139.06 22.7147 139.282 22.6407 139.541 22.6407C139.726 22.6407 139.837 22.7887 139.837 23.0477C139.837 23.1217 139.837 23.2696 139.8 23.4546C139.763 23.6396 139.689 23.8985 139.615 24.1575C139.541 24.4534 139.467 24.7124 139.356 25.0084C139.282 25.2303 139.208 25.4893 139.134 25.7852C138.986 25.9702 138.949 26.2292 138.875 26.4881Z" stroke="#2B3990" stroke-width="2" stroke-miterlimit="22.9256" stroke-linejoin="round"/>
<path d="M85.8624 26.0812C86.1213 26.0442 86.3063 25.9702 86.5282 25.8592C86.7132 25.7852 86.9722 25.6003 87.3051 25.3783C87.7491 25.0823 88.008 24.7864 88.156 24.4904C88.267 24.2315 88.341 23.9725 88.341 23.7876C88.341 23.6026 88.23 23.4916 87.971 23.4916C87.7861 23.4916 87.6011 23.5656 87.4161 23.6766C87.2311 23.8245 87.0092 24.0095 86.7502 24.3055C86.5282 24.6014 86.3433 24.8604 86.2323 25.1563C86.0103 25.4893 85.8993 25.7852 85.8624 26.0812ZM85.7144 27.006C85.6774 27.08 85.6774 27.117 85.6774 27.191V27.339C85.6774 27.9679 85.7884 28.4858 86.0103 28.8188C86.2323 29.1887 86.6392 29.3367 87.2311 29.3367C87.3791 29.3367 87.5271 29.2997 87.7121 29.2627C87.86 29.2257 88.008 29.1517 88.156 29.1147L88.5999 28.8928C88.6739 28.9667 88.6739 29.0407 88.6739 29.1887C88.6739 29.2627 88.5999 29.3367 88.452 29.4107C88.304 29.5217 88.156 29.5956 87.934 29.7066C87.7121 29.7806 87.4531 29.8916 87.1941 29.9286C86.9352 30.0026 86.6392 30.0396 86.3803 30.0396C85.7514 30.0396 85.2334 29.8546 84.8635 29.4847C84.4936 29.1147 84.3086 28.5598 84.3086 27.8939C84.3086 27.302 84.4196 26.7101 84.6045 26.1922C84.7895 25.6373 85.1225 25.1193 85.5664 24.6014C85.8254 24.3055 86.1213 24.0465 86.4173 23.7876C86.7132 23.5656 87.1202 23.3066 87.5641 23.0847C87.823 22.9367 88.045 22.8627 88.23 22.8257C88.4519 22.7887 88.5999 22.7517 88.7479 22.7147C89.0439 22.7147 89.2658 22.7517 89.3768 22.8257C89.4878 22.8997 89.5618 23.0477 89.5618 23.2326C89.5618 23.3066 89.5618 23.4546 89.5248 23.5656C89.4878 23.7136 89.4138 23.8615 89.3028 24.0835C89.1918 24.2685 89.0069 24.4904 88.7849 24.7124C88.5629 24.9344 88.267 25.1933 87.897 25.4893C87.6011 25.7112 87.3421 25.9332 87.0462 26.0812C86.7872 26.2292 86.5652 26.3771 86.3433 26.4881C86.1213 26.5991 85.8993 26.7101 85.7144 26.7841V27.006ZM97.5895 19.4222C97.4045 19.9771 97.2566 20.5321 97.0716 21.05C96.9236 21.5309 96.7757 22.0118 96.5907 22.5667C96.4057 23.0847 96.2577 23.6026 96.1467 24.0465C96.0358 24.3795 95.9618 24.7124 95.8508 24.9714C95.7768 25.2303 95.6658 25.4893 95.5918 25.7482C95.5178 26.0072 95.4439 26.2662 95.3699 26.5621C95.2959 26.8581 95.2219 27.191 95.1479 27.561C95.1109 27.6349 95.1109 27.7459 95.1109 27.8569C95.1109 27.9679 95.0739 28.0789 95.0739 28.1529C95.0369 28.2639 95.0369 28.3748 95.0369 28.4858C95.0369 28.5968 95.0739 28.7078 95.1479 28.8188L95.2959 29.0037C95.2959 29.0777 95.2219 29.1887 95.1479 29.3367C95.0739 29.4847 94.9629 29.5956 94.8519 29.7066C94.704 29.8546 94.593 29.9286 94.445 30.0026C94.334 30.0766 94.223 30.0766 94.1491 30.0766C93.9641 30.0766 93.8531 30.0396 93.8161 29.9286C93.7791 29.8176 93.7421 29.7066 93.7421 29.5956C93.7421 29.5217 93.7421 29.3737 93.7791 29.1887C93.8161 29.0037 93.8531 28.7818 93.8901 28.5598L94.0011 27.8939C94.0381 27.6719 94.0751 27.524 94.1121 27.413H94.0751C93.8531 27.7089 93.5941 28.0049 93.3722 28.3008C93.1132 28.5968 92.8543 28.8928 92.5213 29.1887C92.3363 29.3737 92.1514 29.5217 92.0034 29.6696C91.8554 29.7806 91.7074 29.8916 91.5965 29.9656C91.4855 30.0396 91.3745 30.0766 91.2635 30.1136C91.1525 30.1506 91.0785 30.1875 90.9676 30.1875C90.6716 30.1875 90.4126 30.1136 90.2277 29.9286C90.0427 29.7436 89.9317 29.4107 89.9317 28.8558C89.9317 28.1899 90.0797 27.561 90.3387 26.9321C90.5976 26.3032 91.0045 25.7112 91.5225 25.1193C92.0034 24.5644 92.5213 24.1205 93.0762 23.8245C93.6311 23.4916 94.186 23.3066 94.8149 23.2326L95.3329 23.1586C95.4809 22.6777 95.6288 22.2708 95.7398 21.8638C95.8508 21.5309 95.9248 21.198 96.0358 20.865C96.1098 20.5691 96.1837 20.3471 96.1837 20.2361C96.1837 20.1991 96.1837 20.1621 96.1467 20.1251C96.1097 20.0881 96.0728 20.0881 96.0358 20.0881C95.9988 20.0881 95.9248 20.0881 95.8508 20.1251H95.7398C95.7028 20.1251 95.6658 20.1251 95.6658 20.1621C95.6288 20.1621 95.6288 20.1621 95.6288 20.1251V20.0511L95.7028 19.9771C95.7768 19.9032 95.9248 19.8292 96.1097 19.7552C96.2947 19.6442 96.5167 19.5702 96.7757 19.4592C97.0346 19.3852 97.2566 19.3112 97.4785 19.3112C97.5525 19.2003 97.5895 19.2743 97.5895 19.4222ZM94.556 23.7876C94.0011 23.7876 93.4832 23.9725 93.0022 24.3795C92.5213 24.7864 92.1144 25.3783 91.7814 26.1552C91.6335 26.5621 91.4855 26.9321 91.4115 27.302C91.3375 27.6719 91.3005 28.0049 91.3005 28.3378C91.3005 28.7818 91.4115 29.0407 91.6335 29.1147C91.8184 29.0777 92.0034 28.9667 92.2624 28.7818C92.4843 28.5968 92.7433 28.3378 93.0392 28.0049C93.1502 27.8939 93.2612 27.7459 93.4092 27.598L93.8531 27.043C94.0011 26.8211 94.1491 26.6361 94.26 26.4141C94.371 26.1922 94.482 25.9702 94.556 25.7852L95.1479 23.8245H94.556V23.7876ZM99.2913 26.6361C99.2543 26.7471 99.2173 26.8951 99.1803 27.043C99.1433 27.191 99.1063 27.339 99.0323 27.487C98.9953 27.6349 98.9583 27.7459 98.9213 27.8569C98.8843 27.9679 98.8843 28.0419 98.8843 28.0789C98.8843 28.1159 98.8843 28.1529 98.9213 28.1899C98.9213 28.2269 98.9583 28.2639 98.9953 28.2639C99.0323 28.2639 99.1433 28.1899 99.2543 28.0789C99.4022 27.9679 99.5502 27.7829 99.7722 27.487C100.031 27.191 100.253 26.8951 100.438 26.6361C100.623 26.3771 100.808 26.1552 100.993 25.8962C101.178 25.6743 101.326 25.4153 101.511 25.1933C101.696 24.9344 101.881 24.6754 102.066 24.3425C102.214 24.1205 102.325 23.9355 102.399 23.7506C102.473 23.5656 102.621 23.4176 102.806 23.2326C102.917 23.1217 103.065 23.0477 103.176 22.9737C103.287 22.8997 103.435 22.8627 103.546 22.7887C103.657 22.7517 103.731 22.7147 103.805 22.7147H103.953C104.027 22.7147 104.064 22.7517 104.064 22.8627C104.064 22.8997 104.027 22.9737 103.99 23.1217C103.916 23.2696 103.879 23.4546 103.768 23.6766C103.694 23.8985 103.62 24.1205 103.509 24.3795C103.435 24.6384 103.361 24.8604 103.287 25.0823C103.213 25.2673 103.176 25.4523 103.139 25.6003C103.102 25.7482 103.065 25.8962 103.028 26.0812C102.991 26.2292 102.954 26.3771 102.917 26.5621C102.88 26.7101 102.843 26.8951 102.806 27.08C102.769 27.265 102.695 27.487 102.658 27.7089C102.621 27.9309 102.584 28.1529 102.547 28.3378C102.51 28.5598 102.473 28.8188 102.436 29.0407C102.436 29.0777 102.436 29.1517 102.399 29.2257C102.399 29.2997 102.362 29.3737 102.325 29.4847C102.325 29.5217 102.288 29.5586 102.214 29.6326C102.177 29.6696 102.14 29.7066 102.066 29.7436C101.992 29.8176 101.918 29.8546 101.807 29.9286C101.733 30.0026 101.622 30.0396 101.548 30.1136C101.474 30.1506 101.4 30.1875 101.363 30.1875C101.326 30.1875 101.252 30.1875 101.215 30.1506C101.141 30.1136 101.141 30.0766 101.141 30.0396V29.8916C101.141 29.8176 101.141 29.7066 101.178 29.4847C101.215 29.2997 101.252 29.0407 101.289 28.7818C101.326 28.5228 101.4 28.2269 101.437 27.8939C101.511 27.598 101.548 27.302 101.622 27.006C101.659 26.8211 101.696 26.6361 101.77 26.4141C101.844 26.1922 101.881 26.0072 101.955 25.8222C102.029 25.6003 102.066 25.3783 102.14 25.1563C101.955 25.4153 101.733 25.6743 101.548 25.9332C101.363 26.1552 101.178 26.4141 100.956 26.7101L100.29 27.598C100.142 27.7829 99.9941 28.0049 99.8462 28.1529C99.6982 28.3378 99.5502 28.4858 99.4392 28.5968C99.3282 28.7078 99.2173 28.8188 99.1433 28.9297C99.0693 29.0407 98.9583 29.1147 98.8843 29.2257C98.8103 29.2997 98.6993 29.4107 98.5884 29.4847C98.4774 29.5586 98.3664 29.6326 98.2554 29.7436C98.1444 29.8176 98.0334 29.8546 97.9595 29.8546H97.7745C97.5155 29.8546 97.3676 29.6696 97.3676 29.2627C97.3676 29.1887 97.4045 29.0037 97.4415 28.7448C97.5155 28.4858 97.5895 28.1529 97.7375 27.7829L98.4034 25.7112C98.5514 25.3043 98.6254 24.9714 98.6993 24.7124C98.7733 24.4534 98.8103 24.2685 98.8843 24.1205C98.9213 23.9725 98.9583 23.8615 98.9583 23.7876V23.6766V23.5656C98.9583 23.5286 98.9213 23.5286 98.8843 23.5286C98.8473 23.5286 98.7733 23.5656 98.6624 23.6026C98.5884 23.6766 98.5144 23.6766 98.4404 23.6766C98.3664 23.6766 98.3294 23.6026 98.3294 23.4916C98.3294 23.4546 98.4774 23.3066 98.7363 23.1586C99.1063 22.9367 99.4392 22.7517 99.6982 22.6777C99.9572 22.6037 100.142 22.5667 100.29 22.5667C100.364 22.5667 100.401 22.6407 100.401 22.7517C100.401 22.8257 100.401 22.9737 100.364 23.1586L100.253 23.7136L99.2913 26.6361ZM108.244 24.8974C108.318 24.7124 108.355 24.5274 108.392 24.3795C108.429 24.1945 108.429 24.0095 108.429 23.7876C108.429 23.5656 108.318 23.4546 108.096 23.4546C107.763 23.4546 107.467 23.5656 107.171 23.8245C106.875 24.0835 106.616 24.3795 106.357 24.7864C106.135 25.1933 105.95 25.6373 105.802 26.1182C105.654 26.5991 105.58 27.154 105.58 27.6719C105.58 28.2269 105.691 28.6338 105.913 28.9667C106.024 29.1147 106.172 29.2257 106.32 29.2627C106.468 29.3367 106.727 29.3367 106.986 29.3367C107.171 29.3367 107.393 29.2997 107.541 29.2257C107.726 29.1517 107.874 29.0777 108.059 28.9667C108.17 28.8928 108.244 28.8558 108.318 28.8558C108.355 28.8558 108.429 28.8558 108.466 28.8928C108.503 28.9297 108.54 29.0037 108.54 29.1147C108.54 29.1517 108.466 29.2257 108.355 29.3367C108.207 29.4477 108.059 29.5586 107.8 29.6326C107.578 29.7436 107.282 29.8176 106.986 29.9286C106.69 30.0026 106.32 30.0396 105.987 30.0396C105.506 30.0396 105.099 29.8916 104.766 29.5956C104.433 29.2997 104.285 28.8558 104.248 28.2639C104.248 26.8581 104.766 25.5263 105.876 24.3055C106.135 24.0465 106.357 23.7875 106.653 23.6026C106.912 23.4176 107.171 23.2326 107.43 23.0847C107.689 22.9367 107.911 22.8627 108.133 22.7887C108.355 22.7147 108.54 22.6777 108.688 22.6777C108.762 22.6777 108.873 22.6777 108.984 22.7147C109.095 22.7147 109.169 22.7517 109.28 22.7887C109.354 22.8257 109.428 22.8997 109.502 22.9737C109.576 23.0477 109.576 23.1586 109.576 23.2696C109.576 23.6396 109.539 23.9725 109.465 24.2685C109.428 24.3795 109.391 24.4904 109.354 24.6384C109.28 24.7864 109.206 24.8974 109.095 24.9714C108.91 25.1193 108.762 25.1933 108.614 25.2673C108.466 25.3043 108.355 25.3413 108.281 25.3413C108.207 25.3413 108.17 25.3043 108.17 25.2673L108.244 24.8974ZM113.978 27.376C113.275 28.2269 112.683 28.8558 112.202 29.2997C111.721 29.7436 111.277 30.0026 110.907 30.0766C110.574 30.0766 110.316 29.9656 110.131 29.7436C109.946 29.5217 109.872 29.1887 109.872 28.7818C109.872 28.1159 110.02 27.487 110.316 26.8581C110.611 26.2292 111.018 25.6373 111.499 25.1193C111.98 24.6014 112.498 24.1945 113.016 23.8615C113.534 23.5656 114.089 23.3066 114.644 23.1956C114.829 23.1586 115.051 23.1217 115.273 23.0847C115.495 23.0477 115.643 23.0477 115.754 23.0477C115.865 23.0477 115.976 23.0477 116.05 23.0847C116.124 23.1217 116.161 23.1586 116.161 23.1956C116.161 23.3066 116.124 23.4176 116.013 23.4916C115.976 23.5286 115.902 23.5656 115.828 23.6026C115.754 23.6396 115.68 23.6396 115.569 23.6766C115.495 23.6766 115.347 23.6766 115.199 23.6396C115.014 23.6026 114.866 23.6026 114.718 23.6026C114.459 23.6026 114.237 23.6396 114.015 23.7506C113.793 23.8615 113.571 23.9725 113.349 24.1575C113.127 24.3425 112.905 24.5274 112.72 24.7494C112.498 24.9714 112.313 25.2303 112.128 25.5263C111.943 25.8222 111.795 26.1182 111.647 26.4141C111.499 26.7841 111.388 27.154 111.314 27.45C111.24 27.7829 111.203 28.0789 111.203 28.4118C111.203 28.6708 111.24 28.8558 111.314 28.9297C111.388 29.0037 111.462 29.0777 111.573 29.0777C111.721 29.0777 111.943 28.9667 112.165 28.7818C112.387 28.5968 112.646 28.3378 112.905 28.0419C113.164 27.7459 113.423 27.413 113.645 27.043C113.904 26.6731 114.126 26.3402 114.274 26.0072C114.385 25.7852 114.496 25.5633 114.57 25.3413C114.644 25.1193 114.718 24.9714 114.755 24.8604C114.829 24.7124 114.866 24.5644 114.94 24.4165C115.014 24.2685 115.088 24.1575 115.273 24.0835C115.421 24.0095 115.569 23.9355 115.717 23.8985C115.865 23.8615 115.976 23.8245 116.05 23.8245C116.161 23.8245 116.198 23.8615 116.198 23.9725C116.124 24.1945 116.013 24.4534 115.939 24.7124C115.865 24.9344 115.754 25.1933 115.68 25.4523C115.606 25.7113 115.495 25.9702 115.421 26.2662C115.31 26.6731 115.236 27.117 115.162 27.524C115.088 27.9309 115.051 28.2639 115.051 28.4858C115.051 28.5968 115.051 28.7078 115.088 28.8188C115.125 28.9297 115.162 29.0037 115.199 29.0777L115.347 29.2627C115.347 29.2997 115.273 29.4107 115.199 29.5217C115.125 29.6326 115.014 29.7436 114.903 29.8916C114.792 30.0026 114.681 30.1136 114.533 30.2245C114.422 30.2985 114.311 30.3725 114.2 30.3725C114.052 30.3725 113.978 30.3355 113.904 30.2245C113.83 30.1136 113.793 29.9286 113.793 29.6326C113.793 29.4107 113.793 29.1887 113.83 28.9297C113.867 28.6708 113.867 28.4488 113.904 28.2269L114.015 27.45H113.978V27.376ZM121.266 23.3436C121.562 23.3436 121.821 23.3436 122.006 23.3066C122.191 23.2696 122.413 23.2696 122.672 23.2696C122.783 23.2696 122.857 23.2696 122.894 23.3066C122.931 23.3066 122.931 23.3436 122.931 23.3806C122.931 23.4546 122.82 23.5656 122.635 23.6766C122.561 23.7136 122.413 23.7875 122.265 23.8245C122.117 23.8615 121.932 23.8985 121.71 23.9355C121.562 23.9725 121.451 23.9725 121.34 23.9725C121.229 23.9725 121.118 24.0095 120.97 24.0095H120.415C120.378 24.1205 120.341 24.3425 120.23 24.6014C120.156 24.8974 120.045 25.1933 119.971 25.5263C119.86 25.8592 119.786 26.2292 119.675 26.6361C119.564 27.043 119.49 27.413 119.416 27.7459C119.379 27.9679 119.342 28.1529 119.305 28.3008C119.305 28.4488 119.268 28.5968 119.268 28.6708C119.268 28.7448 119.268 28.8188 119.305 28.8558C119.305 28.8928 119.342 28.9667 119.342 29.0407C119.342 29.0777 119.342 29.1517 119.305 29.1887C119.305 29.2257 119.268 29.2627 119.231 29.3367C119.194 29.3737 119.157 29.4477 119.046 29.5217C118.972 29.5956 118.861 29.6696 118.75 29.7806L118.417 30.0026C118.306 30.0766 118.195 30.1136 118.121 30.1136C117.899 30.1136 117.788 30.0396 117.788 29.8916C117.788 29.8546 117.788 29.7806 117.825 29.6326C117.862 29.5217 117.899 29.3737 117.899 29.2257C117.936 29.0777 117.973 28.9297 118.01 28.7448C118.047 28.5598 118.084 28.4118 118.121 28.2269C118.195 27.8939 118.306 27.561 118.38 27.191C118.454 26.8211 118.565 26.4881 118.639 26.1922C118.713 25.8592 118.824 25.5633 118.898 25.3043C118.972 25.0454 119.046 24.7864 119.083 24.6384C119.12 24.5644 119.12 24.4534 119.157 24.3425C119.194 24.2315 119.231 24.0835 119.268 23.9725C119.083 23.9725 118.898 24.0095 118.713 24.0095H118.01C117.825 24.0095 117.751 23.9355 117.751 23.8245C117.751 23.7136 117.788 23.6396 117.825 23.5656C117.862 23.4916 117.936 23.4546 118.01 23.3806C118.121 23.3066 118.232 23.2696 118.306 23.2696H119.49L119.934 21.7529C120.008 21.4939 120.119 21.2719 120.267 21.087C120.415 20.902 120.563 20.754 120.785 20.68C120.933 20.643 121.081 20.606 121.229 20.606C121.303 20.606 121.377 20.643 121.377 20.754C121.34 20.865 121.303 20.939 121.266 21.013C121.229 21.087 121.192 21.161 121.192 21.2349C121.155 21.3089 121.118 21.3829 121.118 21.4569C121.081 21.5309 121.044 21.6419 121.007 21.7529L120.526 23.2696H121.266V23.3436ZM125.52 23.0847C125.446 23.3066 125.409 23.5656 125.335 23.7876C125.298 23.9725 125.224 24.1945 125.15 24.4165C125.076 24.6384 125.039 24.8604 124.965 25.0454C124.891 25.2303 124.854 25.4153 124.817 25.5633L124.706 26.0072L124.595 26.4511C124.558 26.5991 124.521 26.7841 124.447 26.9691C124.41 27.154 124.336 27.302 124.299 27.524C124.262 27.7089 124.188 27.8939 124.151 28.0419C124.114 28.2269 124.077 28.3378 124.04 28.4858C124.003 28.5968 124.003 28.7078 124.003 28.7448C124.003 28.8188 124.003 28.8928 124.04 28.9667C124.04 29.0407 124.077 29.0777 124.077 29.1517C124.077 29.1887 124.077 29.2997 124.04 29.4107C124.003 29.5217 123.855 29.6696 123.633 29.8916C123.596 29.9286 123.559 29.9286 123.522 29.9656L123.3 30.0766C123.227 30.1136 123.153 30.1506 123.042 30.1875C122.968 30.2245 122.894 30.2245 122.82 30.2245C122.746 30.2245 122.672 30.2245 122.598 30.1875C122.524 30.1506 122.524 30.1136 122.524 30.0396C122.524 29.9286 122.561 29.7436 122.635 29.5217C122.746 29.1887 122.857 28.8558 122.931 28.5968C123.005 28.3378 123.116 28.0049 123.227 27.6349C123.301 27.339 123.374 27.117 123.411 26.9321C123.448 26.7471 123.522 26.4881 123.596 26.2292C123.633 26.0442 123.707 25.8222 123.744 25.6003C123.818 25.3783 123.855 25.1933 123.892 25.0084C123.929 24.8234 123.966 24.6384 124.003 24.4904C124.04 24.3425 124.04 24.1945 124.04 24.1205C124.04 24.0095 124.04 23.9725 124.003 23.9355C123.966 23.8985 123.929 23.8985 123.892 23.8985H123.781C123.744 23.8985 123.707 23.9355 123.633 23.9355C123.559 23.9355 123.522 23.9725 123.448 23.9725C123.411 23.9355 123.374 23.8615 123.374 23.7506C123.448 23.6766 123.633 23.5656 123.892 23.4546C124.151 23.3436 124.484 23.2326 124.817 23.1217C125.002 23.0477 125.224 23.0107 125.409 23.0107C125.483 22.9367 125.52 22.9737 125.52 23.0847ZM126.149 20.828C126.112 21.087 126.038 21.3089 125.89 21.4939C125.742 21.6789 125.52 21.7899 125.187 21.7899C124.965 21.7899 124.817 21.7529 124.743 21.6789C124.669 21.6049 124.632 21.4199 124.632 21.161C124.669 20.828 124.743 20.5691 124.854 20.3841C125.002 20.1991 125.224 20.1251 125.594 20.1251C125.816 20.1251 125.964 20.1991 126.038 20.3101C126.112 20.4211 126.149 20.606 126.149 20.828ZM128.11 30.0396C127.629 30.0396 127.222 29.9286 126.926 29.6696C126.63 29.4107 126.482 29.0407 126.445 28.5228C126.445 28.1159 126.482 27.7089 126.593 27.265C126.704 26.8211 126.889 26.3771 127.185 25.8962C127.407 25.4893 127.666 25.1193 127.962 24.7864C128.258 24.4534 128.591 24.1205 128.961 23.7876C129.294 23.4916 129.59 23.2696 129.811 23.1217C130.07 22.9737 130.255 22.8997 130.403 22.8997H130.736C130.773 22.8627 130.847 22.8257 130.995 22.7887C131.143 22.7517 131.254 22.7147 131.402 22.7147C131.846 22.7147 132.142 22.8627 132.327 23.1586C132.512 23.4546 132.586 23.8615 132.586 24.3425C132.586 25.4153 132.179 26.5991 131.365 27.8939C130.403 29.3367 129.331 30.0396 128.11 30.0396ZM131.402 24.6384C131.402 24.2685 131.328 23.9725 131.217 23.7506C131.106 23.5286 130.921 23.4176 130.736 23.4176H130.662C130.625 23.4176 130.625 23.4546 130.588 23.4546L130.514 23.4916L130.255 23.4546C129.59 23.4546 128.998 24.1575 128.406 25.6003C128.184 26.1922 127.999 26.6731 127.888 27.08C127.777 27.487 127.703 27.8569 127.703 28.1159C127.703 28.5228 127.777 28.8558 127.962 29.0407C128.11 29.2627 128.332 29.3737 128.591 29.3737C128.887 29.3737 129.183 29.2627 129.516 29.0777C129.811 28.8928 130.107 28.5228 130.403 28.0789C130.551 27.8199 130.699 27.524 130.81 27.191C130.921 26.8581 131.032 26.5251 131.106 26.1922C131.18 25.8592 131.254 25.5633 131.291 25.2673C131.365 25.0084 131.402 24.7864 131.402 24.6384ZM138.875 26.4881C138.838 26.6361 138.801 26.8211 138.764 27.006C138.727 27.191 138.69 27.339 138.653 27.487C138.616 27.6349 138.579 27.7829 138.579 27.8939C138.542 28.0049 138.542 28.1159 138.542 28.1899V28.7818C138.542 28.8558 138.542 28.9297 138.505 28.9667C138.468 29.0037 138.431 29.0777 138.357 29.1517L138.172 29.3367C138.061 29.4107 137.95 29.4847 137.839 29.5956L137.506 29.8176C137.395 29.8916 137.321 29.8916 137.247 29.8916C137.173 29.8916 137.099 29.8546 137.062 29.8176C137.025 29.7806 136.988 29.7066 136.988 29.5586C136.988 29.5217 136.988 29.4107 137.025 29.2997C137.062 29.1887 137.099 29.0037 137.173 28.7078C137.21 28.5228 137.247 28.3748 137.284 28.2269C137.321 28.0789 137.358 27.9679 137.395 27.8199C137.432 27.6719 137.469 27.561 137.506 27.413L137.617 26.9691C137.728 26.5991 137.839 26.2292 137.913 25.9332C138.024 25.6373 138.098 25.3413 138.172 25.0454C138.246 24.8604 138.283 24.6384 138.32 24.4165C138.357 24.1945 138.394 24.0465 138.394 23.9725C138.394 23.7506 138.357 23.6396 138.283 23.6396C138.172 23.6396 137.987 23.7506 137.765 23.9355C137.506 24.1205 137.21 24.4534 136.877 24.9344C136.581 25.3413 136.285 25.7482 136.027 26.1552C135.768 26.5621 135.546 26.9691 135.361 27.413C135.287 27.598 135.176 27.8199 135.065 28.1159C134.954 28.3748 134.843 28.6708 134.769 28.9667C134.695 29.1517 134.658 29.2997 134.621 29.4107C134.584 29.5217 134.51 29.6326 134.399 29.7806C134.362 29.8176 134.325 29.8546 134.251 29.8916L134.029 30.0026C133.955 30.0396 133.844 30.0766 133.77 30.1136C133.696 30.1506 133.585 30.1506 133.511 30.1506C133.437 30.1506 133.363 30.1136 133.289 30.0766C133.252 30.0396 133.215 29.9656 133.215 29.8916C133.215 29.7806 133.215 29.6696 133.252 29.5956C133.289 29.5217 133.326 29.3737 133.4 29.1887C133.474 28.9667 133.585 28.7448 133.659 28.4858C133.733 28.2639 133.844 28.0049 133.918 27.7089C133.992 27.413 134.103 27.117 134.214 26.7841C134.288 26.4881 134.399 26.1922 134.473 25.8592C134.547 25.5263 134.658 25.2303 134.732 24.9344C134.806 24.6384 134.88 24.3795 134.954 24.1945C135.028 23.9725 135.028 23.8615 135.065 23.7876C135.065 23.7506 135.065 23.7136 135.102 23.6766V23.6026C135.102 23.5656 135.102 23.5286 135.065 23.5286H134.991C134.954 23.5286 134.88 23.5286 134.769 23.5656C134.695 23.6026 134.584 23.6396 134.51 23.6766C134.399 23.7136 134.325 23.7875 134.214 23.8615L134.14 23.9355C134.066 23.9725 134.029 24.0095 134.029 24.0095C133.992 24.0095 133.955 23.9725 133.955 23.9355C133.955 23.8985 133.918 23.8615 133.918 23.8245C133.918 23.7875 133.955 23.7506 134.066 23.6396C134.14 23.5656 134.288 23.4546 134.399 23.3806C134.547 23.2696 134.695 23.1956 134.88 23.0847C135.065 23.0107 135.213 22.8997 135.361 22.8627C135.546 22.7887 135.694 22.7517 135.842 22.7147C135.953 22.6777 136.138 22.6777 136.396 22.6777C136.47 22.6777 136.544 22.7147 136.544 22.8257C136.544 22.8627 136.544 23.0107 136.507 23.1956C136.47 23.3806 136.396 23.7136 136.248 24.1575L135.731 25.9332L135.768 25.9702C135.953 25.7482 136.101 25.4893 136.285 25.2673C136.433 25.0823 136.618 24.8604 136.766 24.6384C136.951 24.4165 137.099 24.1945 137.284 24.0095C137.358 23.8985 137.469 23.7875 137.58 23.6766C137.691 23.5656 137.802 23.4546 137.913 23.3806L138.172 23.1217C138.246 23.0477 138.283 23.0107 138.32 23.0107C138.468 22.8997 138.653 22.8257 138.801 22.7887C139.06 22.7147 139.282 22.6407 139.541 22.6407C139.726 22.6407 139.837 22.7887 139.837 23.0477C139.837 23.1217 139.837 23.2696 139.8 23.4546C139.763 23.6396 139.689 23.8985 139.615 24.1575C139.541 24.4534 139.467 24.7124 139.356 25.0084C139.282 25.2303 139.208 25.4893 139.134 25.7852C138.986 25.9702 138.949 26.2292 138.875 26.4881Z" fill="white"/>
<path fill-rule="evenodd" clip-rule="evenodd" d="M8.17572 1.18405H2.36763V8.24994H7.6578V8.98983H2.36763V17.3875H0V0.444161H8.17572V1.18405ZM20.9757 17.3875H18.1642L12.948 8.39792C15.0197 8.39792 16.3884 8.28694 17.0173 8.02798C18.2751 7.54705 18.941 6.43722 18.941 4.77248C18.941 3.69965 18.5341 2.81179 17.7572 2.18289C16.9803 1.55399 16.0185 1.22104 14.9087 1.22104H12.4301V17.3875H10.0624V0.444161H15.5376C17.0173 0.444161 18.2751 0.814103 19.311 1.55399C20.4578 2.40485 21.0497 3.51468 21.0497 4.95746C21.0497 6.25225 20.4948 7.28809 19.422 8.06497C18.5341 8.69387 17.4243 9.10081 16.0185 9.28578L20.9757 17.3875ZM31.852 11.9864L28.2266 3.77364L24.6012 11.9864H31.852ZM36.9572 17.7575H34.5526L32.259 12.7262H24.2682L22.0486 17.7575H21.2347L29.0405 0.0742188L36.9572 17.7575ZM50.1642 17.5725L38.8809 3.14474V17.2395H38.141V0.25919H39.3619L49.4243 12.7632V0.25919H50.1642V17.5725ZM67.7734 15.2418C66.2567 16.7956 64.037 17.5725 61.1515 17.5725C58.6728 17.5725 56.6752 16.7586 55.1584 15.0939C53.6786 13.4661 52.9387 11.4314 52.9387 8.95283C52.9387 6.10428 53.8266 3.92162 55.6393 2.40485C57.304 0.999074 59.5977 0.25919 62.4832 0.25919C64.296 0.25919 66.0717 1.03607 67.7364 2.58983L67.2925 3.18173C65.4798 1.88694 63.6671 1.25803 61.8543 1.25803C59.8197 1.25803 58.2289 2.03491 57.1561 3.62566C56.1942 4.99445 55.7133 6.77017 55.7133 8.87884C55.7133 11.0615 56.1942 12.8742 57.1561 14.243C58.2659 15.8338 59.8567 16.6106 61.9653 16.6106C64 16.6106 65.7757 15.9817 67.2555 14.7239L67.7734 15.2418ZM153.267 17.3875H145.091V0.444161H153.267V1.18405H147.496V8.24994H152.749V8.98983H147.496V16.6476H153.267V17.3875ZM97.1468 17.3505H94.3353L89.1191 8.32393C91.1908 8.32393 92.5595 8.21295 93.1884 7.95399C94.4462 7.47306 95.1121 6.36324 95.1121 4.6985C95.1121 3.62566 94.7052 2.7378 93.9283 2.1089C93.1515 1.48 92.1896 1.14705 91.0798 1.14705H88.6012V17.3505H86.2335V0.370173H91.7457C93.2254 0.370173 94.4832 0.740115 95.5191 1.48C96.6659 2.33087 97.2578 3.44069 97.2578 4.88347C97.2578 6.17827 96.7029 7.2141 95.6301 7.99098C94.7422 8.61988 93.6324 9.02682 92.2266 9.21179L97.1468 17.3505ZM113.572 8.84185C113.572 6.77017 113.091 4.95746 112.129 3.44069C111.02 1.70196 109.503 0.814103 107.505 0.814103C105.471 0.814103 103.917 1.70196 102.844 3.51468C101.919 5.03144 101.475 6.84416 101.475 8.98983C101.475 11.0245 101.956 12.8002 102.955 14.28C104.065 15.9817 105.582 16.8326 107.542 16.8326C109.54 16.8326 111.057 15.9447 112.166 14.206C113.091 12.7262 113.572 10.9505 113.572 8.84185ZM116.31 8.91584C116.31 11.5424 115.459 13.6881 113.794 15.3158C112.092 16.9436 109.947 17.7575 107.32 17.7575C104.879 17.7575 102.844 16.9066 101.29 15.2418C99.7364 13.5771 98.9595 11.4684 98.9595 9.02682C98.9595 6.47422 99.7364 4.36555 101.327 2.66381C102.881 0.96208 104.953 0.111213 107.468 0.111213C110.058 0.111213 112.166 0.925086 113.868 2.58983C115.496 4.21757 116.31 6.32624 116.31 8.91584ZM128.814 13.0222C128.814 14.428 128.37 15.5008 127.445 16.3147C126.52 17.1286 125.373 17.4985 123.931 17.4985C122.562 17.4985 121.415 17.1286 120.453 16.3517C119.454 15.5378 118.936 14.428 118.936 13.0962V0.370173H121.304V13.1332C121.304 14.095 121.6 14.9089 122.229 15.5748C122.858 16.2407 123.635 16.5736 124.597 16.5736C125.595 16.5736 126.409 16.2407 127.038 15.5748C127.704 14.9089 128.037 14.058 128.037 13.0962V0.370173H128.777V13.0222H128.814ZM140.319 4.62451C140.319 3.62566 140.06 2.81179 139.505 2.18289C138.913 1.48 138.136 1.11006 137.175 1.11006H134.585V8.13896H137.175C138.136 8.13896 138.913 7.76902 139.505 7.06613C140.023 6.43722 140.319 5.62335 140.319 4.62451ZM134.585 8.91584V17.3505H132.217V0.370173H137.618C138.987 0.370173 140.097 0.740115 141.022 1.443C142.021 2.21988 142.502 3.29272 142.502 4.62451C142.502 5.10543 142.428 5.51237 142.317 5.88231C141.91 7.10312 141.133 7.95399 140.06 8.39792C139.283 8.73087 138.173 8.87884 136.731 8.87884H135.658C135.177 8.91584 134.807 8.91584 134.585 8.91584Z" fill="#2B3990"/>
<path fill-rule="evenodd" clip-rule="evenodd" d="M84.2356 3.03353C84.2356 2.29364 84.0506 1.73873 83.7177 1.33179C83.3847 0.924855 82.8298 0.70289 82.0529 0.70289C79.6853 0.70289 77.3177 2.33064 75.024 5.54913C72.8784 8.54566 71.7685 11.2092 71.7685 13.5399C72.8414 13.4289 73.8402 13.2439 74.7651 12.948C75.9119 12.615 77.0217 12.0971 78.0946 11.4312C80.0553 10.2844 81.609 8.84162 82.7188 7.13988C83.7177 5.69711 84.2356 4.32832 84.2356 3.03353ZM65.5535 29.3734C65.5535 30.7422 66.4784 31.4451 68.3651 31.4451C68.846 31.4451 69.2529 31.4081 69.5859 31.2971C69.9188 31.2231 70.3258 31.1121 70.8067 30.9272C72.1755 30.3353 73.2113 29.2624 73.8772 27.6717C74.1732 26.9318 74.5431 25.563 74.9501 23.4913C71.5466 24.3422 69.142 25.2301 67.6992 26.1549C66.2934 27.0798 65.5535 28.1526 65.5535 29.3734ZM74.7281 17.5723C76.3558 17.5723 77.9836 16.7584 79.6853 15.0936C80.7211 14.1318 81.683 12.874 82.6079 11.3942C82.6448 11.3572 82.7188 11.3202 82.8298 11.2462C83.0148 11.2462 83.1258 11.3202 83.1258 11.4312L83.0518 11.5792C82.4969 12.2821 81.868 13.3919 81.2391 14.9087C80.4252 16.7954 79.6483 19.2 78.8714 22.1225C79.7223 21.8636 80.6102 21.1607 81.535 20.0879C82.3859 18.8301 82.9408 18.0532 83.1998 17.7572L83.4217 17.6462L83.5697 17.7942L83.4587 18.0532C82.7188 19.052 81.942 20.0509 81.2021 21.0497C80.3882 21.8636 79.6113 22.3815 78.8344 22.5665C78.4275 23.9723 78.0206 25.1191 77.6136 25.9699C76.9107 27.4867 76.0599 28.6335 75.061 29.4104C73.7662 30.3723 72.5084 31.0381 71.2876 31.4821C70.2518 31.815 69.142 32 67.9212 32C66.7743 32 65.8865 31.778 65.2576 31.3341C64.6287 30.9272 64.2957 30.2613 64.2957 29.3734C64.2957 28.1526 65.0726 27.0428 66.6633 25.9699C68.5131 24.7491 71.2876 23.7503 74.987 22.9364C75.246 21.6046 75.579 20.4208 76.0229 19.422C76.4298 18.4231 76.9847 17.6832 77.6136 17.1653C77.0957 17.4613 76.6148 17.6462 76.1709 17.7942C75.7269 17.9422 75.209 18.0162 74.5801 18.0162C72.9894 18.0162 71.6946 17.6462 70.7327 16.9434C69.7709 16.2405 69.179 15.2416 68.883 14.0578C67.1443 13.8728 65.8125 13.2439 64.8136 12.1711C63.8148 11.1353 63.2969 9.72948 63.2969 7.99075C63.2969 5.84509 63.9998 4.10636 65.3685 2.77457C66.7743 1.44277 68.735 0.517919 71.2876 0L71.3986 0.147977C69.4009 0.813873 67.8842 1.70173 66.8483 2.81156C65.5905 4.18035 64.9616 5.95607 64.9616 8.10173C64.9616 9.54451 65.2206 10.6913 65.7015 11.5792C66.3674 12.726 67.4032 13.3919 68.883 13.5399L68.809 12.4301C68.809 9.50751 69.9928 6.84393 72.3235 4.36532C74.9501 1.62775 78.1685 0.25896 81.905 0.25896C82.8298 0.25896 83.5327 0.480925 83.9766 0.96185C84.4206 1.47977 84.6795 2.14566 84.6795 3.03353C84.6795 4.36532 84.1616 5.80809 83.1628 7.32485C81.979 9.10058 80.3882 10.6173 78.3165 11.8751C77.2437 12.504 76.0969 13.022 74.8761 13.3919C73.8772 13.6879 72.8044 13.8728 71.6946 14.0208C71.7685 16.3884 72.7674 17.5723 74.7281 17.5723Z" fill="#C92434"/>
</svg>
