<svg width="139" height="40" viewBox="0 0 139 40" fill="none" xmlns="http://www.w3.org/2000/svg">
<path fill-rule="evenodd" clip-rule="evenodd" d="M49.4374 31.2197H51.985C54.7453 31.2197 56.1373 33.0841 56.1373 34.9004C56.1373 36.7401 55.2407 38.674 52.1267 38.674C50.1448 38.674 49.4374 38.0368 49.4374 36.2444V31.2197ZM47.48 36.928C47.48 38.4155 47.1023 38.863 45.1685 38.863H44.625V39.3108H53.2588C57.0575 39.3108 58.3545 36.6927 58.3545 34.8293C58.3545 32.9896 57.0575 31.55 54.8406 30.8898V30.842C56.421 30.5592 57.5293 29.3094 57.5293 27.9651C57.5293 26.832 57.0575 26.0294 56.0902 25.3468C55.2407 24.733 53.4244 24.4258 51.3488 24.4258C50.9 24.4258 49.1073 24.4492 47.8094 24.4971C47.126 24.5208 45.4979 24.615 44.8374 24.638V25.0865H45.6632C47.3142 25.0865 47.48 25.794 47.48 27.1384V36.928ZM49.4374 24.9449C50.0271 24.9212 50.9952 24.8741 51.5133 24.8741C54.4152 24.8741 55.4058 26.3839 55.4058 28.0354C55.4058 29.8754 54.2736 30.7714 52.009 30.7714H49.4374V24.9449ZM64.8192 32.7061C64.2757 32.7061 63.9219 32.7293 63.3559 32.659V24.9212C63.7803 24.8741 64.087 24.8741 64.5352 24.8741C68.1709 24.8741 69.16 26.5732 69.16 28.7662C69.16 31.5972 67.4397 32.7061 64.8192 32.7061ZM82.2507 25.0865V24.6382H76.5177V25.0865C77.8384 25.1568 78.2877 25.5106 78.2877 26.7848V36.8346C78.2877 38.3671 77.9955 38.7667 76.6456 38.8546C74.8461 38.7604 74.0819 38.0543 72.7911 36.7643L70.9289 34.9004C69.8217 33.7914 69.1139 33.1304 68.2407 32.4466C70.1752 31.8806 71.3772 30.3942 71.3772 28.6253C71.3772 26.2189 69.4198 24.4258 65.0548 24.4258C63.5205 24.4258 63.0488 24.4492 62.0816 24.4974C61.1148 24.5437 59.6754 24.638 59.1092 24.638V25.0865H59.6286C60.9968 25.0865 61.398 25.5106 61.398 26.9741V36.9051C61.398 38.486 60.9021 38.863 59.5106 38.863H59.1095V39.3108H65.7869V38.863H65.2433C63.9219 38.863 63.3559 38.509 63.3559 37.0936V33.1065C63.7337 33.1304 64.0401 33.1549 64.5592 33.1549C65.197 33.1549 65.5744 33.1304 66.1646 33.1065C66.7311 33.4845 67.5576 34.1681 68.5953 35.206L70.1515 36.7643C72.191 38.8054 73.0611 39.4501 76.9026 39.3108H82.2507V38.863C80.6228 38.863 80.2456 38.391 80.2456 36.9994V26.9978C80.2456 25.4173 80.7647 25.0865 82.2507 25.0865ZM83.8543 35.7256C84.3502 37.8253 86.001 39.052 87.841 39.052C89.422 39.052 91.0962 38.1318 91.0962 36.2686C91.0962 32.8707 83.5239 31.8338 83.5239 27.7056C83.5239 25.7467 85.3171 24.2842 87.7236 24.2842C89.7042 24.2842 90.1061 24.8743 90.9319 24.8743C91.1198 24.8743 91.2141 24.8269 91.3562 24.6382H91.7334L92.1343 27.634H91.7334C91.0727 25.9357 89.5633 24.8514 87.935 24.8514C86.3779 24.8514 85.2924 25.7467 85.2924 27.0681C85.2924 30.4174 92.8656 31.3155 92.8656 35.6548C92.8656 37.9665 90.8127 39.6892 88.0529 39.6892C86.7557 39.6892 85.1049 39.052 84.7748 39.052C84.5621 39.052 84.3966 39.1692 84.3026 39.3108H83.9017L83.407 35.7256H83.8543ZM101.948 37.1415C101.948 38.4155 102.372 38.8633 103.811 38.8633H104.685V39.3108H97.2532V38.863H98.1268C99.5659 38.863 99.9895 38.4155 99.9895 37.1415V25.4881H95.8849C94.9425 25.4881 94.5174 26.0294 94.1623 28.1052H93.7385L94.116 24.2842H94.5637C94.5887 24.4258 94.6827 24.5211 94.8238 24.5674C94.9652 24.615 95.1307 24.638 95.2955 24.638H106.643C106.973 24.638 107.327 24.5674 107.375 24.2842H107.822L108.2 28.1052H107.775C107.421 26.0294 106.997 25.4881 106.053 25.4881H101.949L101.948 37.1415ZM125.472 31.5737C125.472 27.3279 121.651 24.2842 117.192 24.2842C112.168 24.2842 108.557 27.6103 108.557 32.3045C108.557 36.7166 112.451 39.689 117.074 39.689C121.651 39.689 125.472 36.3389 125.472 31.5737ZM123.254 32.3518C123.254 35.7011 121.415 39.0978 117.57 39.0978C113.771 39.0978 110.776 35.9854 110.776 31.5737C110.776 28.7427 112.426 24.8741 116.578 24.8741C120.471 24.8741 123.254 27.9651 123.254 32.3518Z" fill="#231F20"/>
<mask id="mask0_261_912" style="mask-type:luminance" maskUnits="userSpaceOnUse" x="125" y="24" width="14" height="16">
<path d="M138.24 24.6396V39.3119H125.879V24.6396H138.24Z" fill="white"/>
</mask>
<g mask="url(#mask0_261_912)">
<path fill-rule="evenodd" clip-rule="evenodd" d="M136.424 39.3119H125.879V38.8644H126.657C127.742 38.8644 128.143 38.5104 128.143 37.3069V26.8566C128.143 25.607 127.766 25.0879 126.28 25.0879H125.95V24.6396H132.909V25.0879H132.035C130.503 25.0879 130.1 25.253 130.1 26.7155V37.5902C130.1 38.2269 130.361 38.4635 131.045 38.4635H134.512C135.904 38.4635 136.328 37.9208 137.816 35.8689H138.24L136.424 39.3119Z" fill="#231F20"/>
</g>
<mask id="mask1_261_912" style="mask-type:luminance" maskUnits="userSpaceOnUse" x="20" y="0" width="20" height="20">
<path d="M20.5898 0H39.3154V19.4813H20.5898V0Z" fill="white"/>
</mask>
<g mask="url(#mask1_261_912)">
<path fill-rule="evenodd" clip-rule="evenodd" d="M26.2523 17.895C26.2352 16.5219 25.7691 13.7154 22.4842 12.123C25.8198 13.1825 27.4242 16.0008 27.5883 18.1034C31.0902 18.8013 34.1979 20.4492 39.2442 18.7093L39.2615 18.6984C39.2615 18.6984 32.6213 18.7587 29.8445 16.7499C31.2785 16.8041 32.9295 16.4794 33.4705 15.6674C34.0471 14.8027 34.1067 13.9095 35.5272 13.8636C36.3252 13.8379 39.0318 14.0399 39.3155 10.066C38.4495 11.5275 37.5117 12.1317 36.0952 11.771C35.191 11.5405 33.5405 10.8487 32.361 12.258C31.387 13.4215 30.3409 14.0256 28.6718 13.8455C29.3396 12.9436 39.2888 0.0269983 39.2888 0.0269983C39.2888 0.0269983 26.5432 10.2558 25.8397 10.851C25.7044 8.98381 26.2635 8.29841 27.0121 7.47751C27.6247 6.80612 28.6896 5.89658 27.8419 3.97766C27.1565 2.42628 27.2467 1.48796 29.1137 0C27.6252 0.108248 25.354 1.10922 25.6227 3.84242C25.7852 5.49288 24.6158 5.63551 24.1884 5.87187C23.0792 6.48519 22.9345 8.27115 22.8986 9.66029C22.7728 9.20922 21.1584 2.26811 20.5902 0.022159C20.5897 0.0234325 20.5899 18.6981 20.5899 18.6981H20.6327C22.7957 17.8461 24.5952 17.7162 26.2523 17.895Z" fill="#BE2F37"/>
</g>
<path fill-rule="evenodd" clip-rule="evenodd" d="M57.9387 7.81461V8.14674C56.7671 8.16406 56.3471 8.63653 56.3471 9.75645V14.4791C56.3471 16.6481 54.9648 18.9746 51.1689 18.9746C47.8279 18.9746 46.1134 17.0676 46.1134 14.5665V9.4587C46.1134 8.33904 45.7986 8.16406 44.6094 8.14699V7.81435H49.105V8.14674H48.9473C47.9855 8.14674 47.5655 8.40934 47.5655 9.42381V14.2866C47.5655 16.6481 48.9473 18.065 51.5537 18.065C53.5305 18.065 55.5424 17.2426 55.5424 14.269V10.1935C55.5424 8.51427 55.2801 8.21704 53.8283 8.14699V7.81461H57.9387ZM60.2377 17.1728C60.2377 18.1348 60.4649 18.3623 61.4094 18.3623V18.6947H57.8934V18.3623C58.6631 18.3623 59.0656 17.9425 59.0656 17.2602V13.5869C59.0656 12.9397 58.9955 12.8172 58.5409 12.7296L57.9459 12.6073V12.3271L59.9575 11.5928H60.2377V12.957C61.4094 12.2225 62.389 11.575 63.2463 11.575C64.4361 11.575 65.1179 12.4499 65.1179 14.1992C65.1179 16.5256 64.9957 16.9803 64.9781 17.6626C64.9608 18.1348 65.2407 18.3623 65.9577 18.3623H66.3426V18.6947H62.5815V18.3623C63.0887 18.3444 63.3864 18.2222 63.5785 18.0299C63.9109 17.6975 63.946 16.4202 63.946 14.094C63.946 12.6947 63.2637 12.2574 62.564 12.2574C62.0041 12.2574 61.1473 12.7471 60.2377 13.377V17.1728ZM68.9709 7.55176C69.3904 7.55176 69.7404 7.84925 69.7404 8.21678C69.7404 8.58406 69.3904 8.88155 68.9711 8.88155C68.5511 8.88155 68.2187 8.58406 68.2187 8.21678C68.2187 7.84925 68.5511 7.55176 68.9709 7.55176ZM69.6879 17.3651C69.6879 17.9774 70.0208 18.3623 70.9472 18.3623V18.6947H67.0644V18.3623C68.1316 18.3623 68.5165 18.0126 68.5165 17.0855V13.5696C68.5165 12.8872 68.4289 12.7996 67.9742 12.7123L67.152 12.5546V12.2749L69.426 11.4879H69.6884V17.3651M74.9425 18.8521L72.4056 13.0449C72.1433 12.4323 71.9158 12.2225 71.6364 12.17L71.0929 12.0826V11.7678H74.6621V12.0826C73.5948 12.1175 73.2627 12.2574 73.6822 13.0798L75.5367 17.4352L77.3212 13.3946C77.6363 12.6771 77.4786 12.17 76.2015 12.0829V11.7676H79.2453V12.0824C78.581 12.2046 78.1954 12.5895 77.8638 13.3592L75.4499 18.8518L74.9425 18.8521ZM85.7709 14.2517V13.8492C85.1937 13.2718 85.2462 11.575 82.8845 11.575C80.7503 11.575 79.5086 13.4644 79.5086 15.3186C79.5086 17.3476 80.8375 18.9048 82.5524 18.9048C83.8293 18.9048 84.9314 18.0299 85.666 17.1028L85.4734 16.8929C84.8089 17.6799 84.1268 18.0299 83.2523 18.0299C81.8698 18.0299 80.5927 16.8053 80.5927 14.9865C80.5927 14.7588 80.6283 14.5143 80.6627 14.2517H85.7709ZM80.7149 13.7965C81.1179 12.17 81.9926 11.9077 82.5702 11.9077C83.4095 11.9077 84.1089 12.6598 84.3012 13.7965H80.7149ZM89.1442 17.4178C89.1442 18.1348 89.4066 18.3623 90.281 18.3623H90.946V18.6947H86.7997V18.3623C87.6921 18.3444 87.9721 17.9774 87.9721 17.0503V13.0097L86.7997 12.5895V12.2925L88.794 11.5928H89.1442V13.4468H89.1791C90.0535 12.0126 90.2637 11.6802 90.8406 11.6802C91.051 11.6802 91.1032 11.6978 91.4356 11.8379C91.6103 11.9077 91.9256 11.9774 92.3454 12.1L91.9256 13.1493C91.6043 13.1034 91.2917 13.0091 90.9985 12.8697C90.8062 12.7823 90.5963 12.6947 90.3864 12.6947C90.0711 12.6947 89.8786 12.9048 89.7038 13.1493C89.4766 13.4644 89.2841 13.7616 89.1442 14.0242V17.4178ZM93.5535 16.9278C93.7629 17.9774 94.4276 18.5722 95.2155 18.5722C95.9146 18.5722 96.4571 18.0472 96.4571 17.4178C96.4571 17.0503 96.3698 16.8229 95.8968 16.3507C94.6548 15.1087 93.2733 14.9865 93.2733 13.5342C93.2733 12.3799 94.1834 11.575 95.5122 11.575C95.9847 11.575 96.475 11.6802 96.9121 11.8552L96.9467 13.4468H96.6497C96.5269 12.5546 95.9493 11.995 95.2498 11.995C94.6724 11.995 94.1834 12.3972 94.1834 12.9746C94.1834 14.5143 97.436 14.7763 97.436 16.9105C97.436 18.0472 96.492 18.9045 95.2677 18.9045C94.9355 18.9045 94.6902 18.8521 94.4977 18.782C94.3051 18.7298 94.1658 18.6771 94.0257 18.6771C93.9205 18.6771 93.8161 18.7471 93.7282 18.8872H93.4659L93.2733 16.9278H93.5535ZM100.415 7.55176C100.835 7.55176 101.185 7.84925 101.185 8.21678C101.185 8.58406 100.835 8.88155 100.415 8.88155C99.9955 8.88155 99.6632 8.58406 99.6632 8.21678C99.6632 7.84925 99.9955 7.55176 100.415 7.55176ZM101.132 17.3651C101.132 17.9774 101.465 18.3623 102.392 18.3623V18.6947H98.5083V18.3623C99.5758 18.3623 99.9601 18.0126 99.9601 17.0855V13.5696C99.9601 12.8872 99.8728 12.7996 99.4176 12.7123L98.5957 12.5546V12.2749L100.87 11.4879H101.132V17.3651ZM107.377 11.7678L107.097 12.5373H104.876V16.6132C104.876 17.7148 105.663 18.0824 106.03 18.0824C106.415 18.0824 106.765 17.7851 107.097 17.2077L107.377 17.4701C106.957 18.3796 106.275 18.9045 105.47 18.9045C104.438 18.9045 103.703 18.0472 103.703 16.8756V12.5373H102.899V12.2574C103.581 11.925 104.176 11.1204 104.578 10.0359H104.876V11.7678H107.377ZM114.297 13.7094C114.821 12.3799 114.489 12.1175 113.456 12.0826V11.7678H116.36V12.0826C115.643 12.17 115.241 12.6598 114.909 13.4817L111.935 20.8988C111.41 22.1932 111.008 22.7701 110.396 22.7701C109.976 22.7701 109.679 22.508 109.679 22.1581C109.679 21.4406 110.693 21.6156 111.13 21.1788C111.322 20.9857 111.585 20.5313 111.725 20.1816L112.25 18.8694L109.538 13.1144C109.207 12.3972 108.891 12.0999 108.156 12.0829V11.7676H111.672V12.0824C110.605 12.0997 110.483 12.4148 110.833 13.1491L112.81 17.4178L114.297 13.7094ZM120.286 15.2837C120.286 17.3302 121.948 18.9045 124.117 18.9045C126.199 18.9045 127.826 17.3127 127.826 15.2488C127.826 13.1669 126.199 11.575 124.065 11.575C122.245 11.575 120.286 12.8699 120.286 15.2837ZM121.598 14.6887C121.598 13.1845 122.665 11.995 123.819 11.995C125.289 11.995 126.514 13.6918 126.514 15.6861C126.514 17.4349 125.342 18.4848 124.309 18.4848C122.805 18.4848 121.598 16.8053 121.598 14.6887Z" fill="#231F20"/>
<path fill-rule="evenodd" clip-rule="evenodd" d="M132.895 12.537H131.006V17.33C131.006 18.1348 131.32 18.362 132.3 18.362H132.965V18.6944H128.645V18.362C129.659 18.362 129.834 18.1346 129.834 17.155V12.5373H128.539V12.2395C129.029 12.1351 129.449 11.9772 129.834 11.7676C129.834 10.3158 130.149 9.21342 131.181 8.18137C132.038 7.32431 132.86 6.93945 133.665 6.93945C134.644 6.93945 135.467 7.49929 135.467 7.76163C135.467 7.90171 135.134 8.60112 134.994 8.60112C134.749 8.60112 134.102 7.74431 132.947 7.74431C131.688 7.74431 131.006 8.74121 131.006 10.438V11.7676H132.773L132.895 12.537Z" fill="#231F20"/>
<mask id="mask2_261_912" style="mask-type:luminance" maskUnits="userSpaceOnUse" x="0" y="0" width="19" height="20">
<path d="M0 19.4867V0.0273438H18.6296V19.4865L0 19.4867Z" fill="white"/>
</mask>
<g mask="url(#mask2_261_912)">
<path fill-rule="evenodd" clip-rule="evenodd" d="M13.7191 10.129C13.575 9.35321 13.6471 7.81991 14.4048 6.3047C11.6084 8.41541 11.5725 10.129 11.5725 10.129C11.5725 10.129 12.1137 9.71412 13.7191 10.129ZM12.4204 5.5108C12.4204 5.5108 9.0287 5.99804 8.0547 6.0882C7.38253 6.48503 6.61153 7.5945 6.61153 7.5945C6.61153 7.5945 5.8176 7.71167 4.23027 8.0005C3.12636 8.72054 2.46209 10.3995 3.83318 11.7706C3.40017 11.6804 3.40017 11.6804 2.76875 11.5722C1.41575 12.4382 2.04717 14.0438 4.86143 13.4845C4.06776 13.4575 3.67067 13.0696 3.67984 12.5642C3.66176 12.0141 4.73535 11.3287 6.04327 11.6804C4.79826 9.32622 6.17827 8.39707 6.17827 8.39707C6.17827 8.39707 5.44802 10.3409 7.04453 11.9328C7.18869 11.6985 7.66678 11.0401 9.01087 11.0131C10.3499 10.9861 11.1912 11.6437 11.2115 12.402C11.2296 13.0696 10.3817 13.773 9.28137 13.773L9.26329 12.1781C9.26329 12.1781 8.90491 12.3072 8.80329 12.4486C8.80481 12.5219 8.79437 13.7911 8.79437 13.7911C8.36111 13.7911 7.47753 13.6108 7.00836 12.862C6.64744 12.8261 4.63601 12.5283 4.63601 12.5283L4.74427 13.0604C4.74427 13.0604 5.44802 13.1778 5.58302 13.8813C5.7468 14.7325 6.23252 15.5139 6.66553 15.8297C7.50428 15.7304 8.89345 14.6752 11.4464 14.7111C9.10104 15.0358 6.71978 17.5431 3.29192 16.5872C8.74012 18.4455 9.29946 14.3143 16.1185 15.6132C15.0543 14.9638 13.4667 14.7654 13.4667 14.7654C13.4667 14.7654 14.3144 13.8451 14.3506 12.4381C14.4588 12.4313 14.6032 12.4201 14.874 12.3931C14.9642 11.942 15.0271 11.4843 15.0271 11.4843C15.0271 11.4843 13.5388 11.482 12.2897 11.482C9.24979 8.40624 12.4204 5.5108 12.4204 5.5108ZM4.80743 5.4568C5.66427 5.50163 6.70577 4.9693 6.77378 4.92448C6.77378 4.92448 6.41286 5.83554 7.22461 5.78154C8.1059 5.72271 9.1204 5.27087 9.26329 5.20439V4.0315C9.18484 4.08931 8.32596 4.69626 7.3512 4.91556C6.99512 4.99554 7.11661 4.68098 7.15253 4.50065C7.18869 4.32033 7.21289 4.17285 6.57536 4.43749C3.96843 5.51997 3.83318 4.78032 3.83318 4.6899C3.72518 4.81648 3.77077 5.40204 4.80743 5.4568ZM18.6253 0.0273438V18.7033C11.1114 15.7447 7.98135 21.4816 -0.0195312 18.7033V0.0273438H3.78707V2.0433H5.97017L5.96992 0.0273438H8.11685L8.1171 2.04356L10.2816 2.0433V0.0273438H12.4466V2.0433L14.8006 2.04356V0.0273438H18.6253Z" fill="#BE2F37"/>
</g>
<path fill-rule="evenodd" clip-rule="evenodd" d="M25.793 25.4272C25.793 25.4272 25.7038 25.3829 25.8735 25.2415C25.8944 25.2239 25.927 25.2626 26.0255 25.2636C26.1582 25.2654 26.2278 25.2196 26.3378 25.0871C26.5044 24.8859 26.1572 24.8082 26.0449 24.9053C25.9209 25.0107 25.8322 25.121 25.7265 25.2178C25.7265 25.2178 25.5482 25.3762 25.793 25.4272ZM32.2249 34.8615C31.9274 35.1048 31.0074 35.5691 30.7771 35.6773C30.5474 35.7858 30.4735 35.8513 30.3039 36.1873C30.0963 36.5978 29.8979 37.3423 29.9519 37.3956C30.5201 37.3059 30.9261 36.8278 30.9261 36.8278C30.9261 36.8278 30.935 36.7107 30.8089 36.5115C30.7045 36.3475 30.9083 36.1694 31.0344 36.2728C31.1304 36.3518 31.2644 36.3678 31.3456 36.2996C31.4266 36.2321 33.1991 35.105 33.2804 34.9736C33.0537 34.7482 32.8413 34.5089 32.6444 34.2571C32.6444 34.2571 32.5226 34.6178 32.2249 34.8615ZM25.2976 29.9186C24.5398 29.6111 24.3704 29.4066 24.2286 29.3455C24.1022 29.292 23.5806 29.5136 23.4935 29.7377C23.2592 30.3421 22.736 31.3296 22.6593 31.4697C22.6178 31.5448 22.5735 31.6322 22.5824 31.7315C22.5916 31.8303 22.6209 32.2185 22.6119 32.3084C22.6028 32.3991 22.6163 32.5165 22.6522 32.6064C22.6884 32.6966 22.7362 33.084 22.9342 33.4724C23.3763 33.0302 23.441 32.3782 23.4122 32.5071C23.4115 32.5104 23.5523 32.2684 23.2003 32.1597C23.1002 32.1291 23.115 31.8683 23.2227 31.8349C23.3537 31.7947 23.4214 31.758 23.4846 31.5242C23.5477 31.2891 23.7856 30.4468 23.8633 30.2838C23.8753 30.2588 23.8972 30.2166 23.941 30.1962C24.0098 30.1656 24.0824 30.144 24.1567 30.132C24.1899 30.1269 24.2535 30.1628 24.2726 30.1824C24.3929 30.3039 25.0179 30.811 25.0179 30.811C25.0179 30.811 25.2976 30.7843 25.469 30.7122C25.3605 30.5405 25.3157 30.1254 25.2976 29.9186ZM24.533 26.3553C24.533 26.3553 24.2691 26.6803 24.5668 26.7615C24.5737 26.8558 24.6109 27.0425 24.6483 27.1403C24.6977 27.2709 24.7833 27.2282 24.8781 27.1199C24.9728 27.0117 25.1251 26.8061 25.2367 26.6869C25.3381 26.5789 25.6914 26.6176 25.548 26.8354C25.4532 26.9798 25.3788 27.0188 25.2571 27.0455C25.1608 27.0667 25.1318 26.9844 25.0271 27.127C24.9168 27.2763 24.7989 27.3807 24.9932 27.3807C25.0946 27.3807 25.2874 27.4752 25.416 27.4546C25.537 27.4357 25.5505 27.3568 25.5638 27.2483C25.577 27.1357 25.5551 27.0702 25.6812 27.0005C25.8432 26.9098 26.0823 26.6938 26.1549 26.6171C26.2375 26.529 26.3439 26.5494 26.4522 26.5494C26.5604 26.5494 27.0833 26.6125 27.3948 26.1457C27.6141 25.8166 27.6383 25.3681 27.5571 24.9621C27.7058 25.1108 27.906 25.5787 27.8006 26.0171C27.6131 26.7982 27.2288 26.8418 26.8398 26.9238C26.6776 27.1533 26.2627 27.7442 26.0418 28.818C25.9471 28.8809 25.1623 29.6386 25.8185 30.8818C25.6493 30.9374 25.1506 31.1508 24.8557 31.2168C24.6572 31.2626 24.4914 31.2728 24.4115 31.3683C24.3213 31.4763 24.1137 31.8286 24.222 32.0038C24.2986 32.1289 24.7902 33.2284 24.8307 33.5672C24.8715 33.9049 24.9937 33.9854 25.1147 34.0949C25.2502 34.2164 25.3381 34.2095 25.5276 34.3521C25.7191 34.4953 25.8783 34.7541 26.0553 34.8929C26.2446 35.0416 26.4568 35.1094 26.6055 35.0954C26.5693 34.5457 26.4519 34.0045 26.2808 33.8244C26.1027 33.6364 25.8793 33.9049 25.8253 33.9189C25.7713 33.9321 25.6957 33.8799 25.6628 33.7291C25.629 33.5733 25.7713 33.4449 25.6358 33.2422C25.4508 32.9626 25.277 32.6759 25.1147 32.3825C24.939 32.0387 25.2375 31.9462 25.3111 31.9638C25.4871 32.0038 26.5423 32.1464 26.7046 32.1599C26.8668 32.1729 26.9567 32.2007 27.0296 32.1187C27.2527 31.8691 27.3811 31.6862 27.5097 31.4287C27.7466 31.6052 27.5841 31.9434 27.5166 32.3443C27.5841 32.4034 29.1131 33.1747 31.2149 32.6153C32.0924 32.382 31.9926 32.5659 32.0761 32.7279C32.5858 33.7162 32.9467 34.0982 33.5511 34.5816C33.7315 34.726 33.8575 34.9604 33.9388 35.0954C34.0203 35.2311 34.0407 35.4718 33.975 35.6282C33.8937 35.8218 33.4243 36.6638 33.3435 36.7822C33.1902 37.0079 32.99 37.1974 32.8201 37.2873C32.288 37.5716 32.1553 37.8268 32.0967 38.0254H33.463C33.463 38.0254 33.4948 37.9541 33.4788 37.7835C33.4561 37.5448 33.6726 37.5046 33.7404 37.4906C33.8079 37.4771 33.9299 37.5308 34.0379 37.2741C34.2416 36.7906 35.0348 35.443 35.1025 35.321C35.17 35.1993 35.4179 34.874 35.1746 34.7304C34.7144 34.4604 34.4444 34.0152 34.3537 33.5167C34.3175 33.3186 34.3392 32.992 34.7867 32.4348C35.7429 31.2445 35.0302 28.791 32.9019 28.8361C31.6946 28.8616 31.0226 28.7587 30.2361 28.6018C29.9485 28.5434 29.8994 28.3891 29.961 28.2131C30.0242 28.033 30.0851 27.6746 30.0871 27.5279C29.8798 27.3387 29.5642 27.2215 29.4106 27.1675C29.2456 27.1092 29.1625 26.9775 29.3296 26.9645C29.4964 26.9508 30.1279 27.0185 30.1279 27.0185C30.1279 27.0185 30.1503 26.6803 30.0601 26.1841C29.7492 26.0521 29.4213 25.964 29.0861 25.9223C28.9911 25.9106 28.9078 25.8039 29.149 25.7695C29.4649 25.7244 29.7534 25.7738 29.9794 25.7601C29.9926 25.7333 29.8709 25.1019 29.6475 24.847C29.4921 24.7998 29.4096 24.7782 28.8696 24.714C28.6801 24.6913 28.6709 24.6371 28.7973 24.5961C28.9442 24.5497 29.1875 24.5021 29.4921 24.5217C29.3749 24.36 28.5899 22.928 26.9618 23.359C27.1442 23.5819 27.2323 23.6855 27.2863 23.8391C27.335 23.9766 27.1898 24.0202 27.0566 23.8801C26.5423 23.3384 26.2716 23.3519 25.9402 23.2907C26.1567 23.5009 26.2515 23.711 26.3258 23.9201C25.954 24.184 25.4262 24.8131 25.3516 24.9348C25.21 25.1666 25.4058 25.2914 25.4058 25.2914L24.533 26.3553ZM35.0526 22.7296C33.3886 23.3111 33.6339 25.105 34.0832 25.7965C34.6695 26.6984 35.1657 26.7165 35.5401 27.776C35.8318 28.6028 35.3099 29.0342 34.7956 29.2237C35.6751 29.7655 36.5816 29.2059 36.9064 28.6647C37.5044 27.8677 36.8269 26.8326 37.4657 26.2924C37.6366 26.148 37.9257 26.0489 38.3139 26.0308C37.9255 25.4807 37.0149 25.5438 36.6494 26.0581C36.3924 25.4626 35.6706 24.942 35.9324 24.0194C36.1038 23.415 37.0597 23.1896 37.4204 23.6858C37.6178 23.957 37.6461 24.4883 37.0689 24.7591C37.4296 24.7321 38.115 24.1096 37.6461 23.262C37.3167 22.6662 36.7622 22.6209 36.3114 22.6209C35.4902 22.6209 34.1285 23.5597 34.9989 25.5843C34.4981 25.1381 33.6864 23.5819 35.0526 22.7296ZM39.2046 20.6215V39.3198C28.8678 41.8365 28.5696 36.3431 20.56 39.3198C20.5608 39.5626 20.5565 20.6197 20.56 20.6215C27.9203 17.5365 30.7891 23.3814 39.2046 20.6215Z" fill="#BE2F37"/>
<mask id="mask3_261_912" style="mask-type:luminance" maskUnits="userSpaceOnUse" x="0" y="19" width="19" height="22">
<path d="M0 19.6963V40.0015H18.6308V19.6963H0Z" fill="white"/>
</mask>
<g mask="url(#mask3_261_912)">
<path fill-rule="evenodd" clip-rule="evenodd" d="M6.76308 31.2896C6.76308 31.2896 6.43603 31.503 6.84586 32.4021C7.25517 33.3002 7.76382 34.1366 6.87872 35.1236C7.38049 35.1297 8.47573 34.468 7.30382 32.4956C7.03434 32.0415 6.74346 31.7269 6.76308 31.2896ZM5.65434 31.7131C5.92534 31.6946 5.95973 31.3629 5.91057 31.1885C5.85275 30.9822 5.5089 30.9567 5.42612 31.219C5.3441 31.4788 5.41567 31.731 5.41567 31.731C5.48368 31.9811 5.76539 32.0527 5.78959 32.0274C5.63319 31.8871 5.67548 31.8066 5.65434 31.7131ZM5.9149 32.9069C5.84944 33.7008 5.39402 33.8177 5.39402 33.8177C4.59934 33.4528 4.17296 34.453 4.84004 34.7474C5.68515 35.121 6.20247 34.0286 6.25264 33.8267C6.39503 33.2541 6.40852 32.8491 6.34434 31.9195C6.29034 31.1271 6.48596 31.0071 6.61637 30.9857C6.74627 30.9633 7.01829 30.9526 7.28956 31.7786C7.56133 32.6038 8.14716 32.7233 8.14716 32.7233C8.14716 32.7233 7.29873 31.3428 8.47879 30.0683C9.02743 29.4759 10.1464 29.1391 9.93928 28.3093C9.93928 28.3093 9.76608 28.6068 9.42936 28.6939C9.09263 28.7805 8.44084 28.8786 8.44084 28.8786C8.44084 28.8786 10.0053 28.1397 10.2875 27.2928C10.2875 27.2928 10.7763 28.1073 10.1245 29.3019C10.1245 29.3019 10.7452 29.08 11.413 29.3814C13.1152 30.136 12.9346 32.56 10.7806 33.1387C7.71517 33.9611 8.82825 36.3324 10.5837 36.4778C10.3952 36.3581 10.3527 35.6434 10.6609 35.2186C10.815 35.0818 11.09 34.8052 11.2645 35.3867C11.5727 36.4142 12.4723 36.4977 12.8896 36.3693C12.78 36.2766 12.575 35.9644 12.6005 35.7843C12.6519 35.4246 13.1012 35.7983 13.2645 35.8444C14.4718 36.1872 15.1137 35.8877 15.1824 35.7069C14.913 35.6513 14.9601 35.6821 14.7887 35.6391C14.6292 35.5984 14.3192 35.3783 14.9002 35.2451C15.9664 35.0006 16.553 33.9003 15.8508 33.0531C15.1804 32.2432 14.3353 32.3672 14.061 32.4785C15.2171 32.7276 15.2752 33.6578 14.686 34.1315C14.1723 34.5171 12.8962 34.671 12.4594 33.8147C12.1833 34.0144 12.0867 34.3333 12.1341 34.7311C12.0182 34.6878 11.5343 33.9993 12.2536 33.4296C15.5892 31.2791 15.051 27.6654 12.2278 26.1782L12.1929 26.163C9.63185 24.6918 7.39119 26.0346 7.39119 26.0346C8.9747 24.4486 11.711 25.392 12.1048 25.5889C12.1048 25.5889 11.79 25.3151 11.6224 25.0637C11.4054 24.7384 11.4135 24.4274 11.4135 24.4274C10.3275 25.0336 10.047 24.1022 10.047 24.1022C10.047 24.1022 9.10639 24.9501 8.49585 24.2606C7.96199 23.657 8.82621 22.8386 8.82621 22.8386C3.31586 24.647 4.36017 27.7587 4.36017 27.7587C4.36017 27.7587 3.56217 28.4914 3.38362 30.258C3.18062 32.2643 4.18009 33.6909 5.42892 33.2989C5.71496 33.2095 5.85683 33.073 5.9121 32.9225L5.9149 32.9069ZM18.6256 20.6225C18.6286 20.6207 18.6243 39.5635 18.6256 39.3208C10.615 36.3444 10.3175 41.8372 -0.0195312 39.3208V20.6225C8.39601 23.3824 11.2648 17.5375 18.6256 20.6225Z" fill="#BE2F37"/>
</g>
</svg>
