<svg width="213" height="198" viewBox="0 0 213 198" fill="none" xmlns="http://www.w3.org/2000/svg">
<path d="M150.923 168.104C149.913 168.375 148.679 168.691 147.785 168.821C146.118 169.048 144.718 169.533 143.067 169.873C140.214 170.454 137.319 170.827 134.408 171.19C133.436 171.333 131.983 171.73 131.119 171.427C129.937 171.553 128.738 171.611 127.554 171.702C125.517 171.83 123.482 171.914 121.433 171.943C121.244 171.95 121.001 171.971 120.877 171.946C119.835 171.771 118.8 171.763 117.773 171.782C116.748 171.779 115.719 171.82 114.687 171.767C113.398 171.681 112.478 171.554 111.704 171.315C111.25 171.18 112.552 170.765 113.551 170.776C115.224 170.818 116.786 170.612 118.677 170.837C118.85 170.857 119.055 170.882 119.207 170.878C123.198 170.746 127.157 170.93 131.126 170.554C131.952 170.465 132.784 170.403 133.607 170.277C133.973 170.223 134.336 170.155 134.697 170.11C136.351 169.945 138.09 169.632 139.626 169.492C141.239 169.338 142.408 168.834 143.997 168.621C145.242 168.485 146.683 168.069 148.027 167.76C149.013 167.533 149.958 167.316 150.884 167.112C151.57 166.965 151.936 166.991 152.417 166.577C152.615 166.414 154.039 165.908 154.779 165.666C156.723 165.079 158.473 164.207 160.203 163.231C161.126 162.713 162.105 162.217 163.006 161.617C165.172 160.165 167.014 158.515 168.717 156.565C169.436 155.78 170.084 154.918 170.752 154.08C172.493 151.725 173.912 149.126 174.955 146.38C175.083 146.038 175.214 145.652 175.305 145.335C175.927 142.738 176.593 140.063 176.725 137.355C176.784 136.732 176.764 136.108 176.756 135.48C176.736 133.875 176.648 133.847 177.05 133.432C177.42 133.011 177.411 133.087 177.651 134.911C178.029 138.616 177.394 142.396 176.033 145.893C175.964 146.073 175.88 146.359 175.863 146.488C175.848 146.734 175.291 148.259 174.567 149.712C173.87 151.18 172.946 152.54 172.759 152.744C172.358 153.598 171.731 154.425 171.152 155.188C169.182 157.919 166.563 160.356 163.771 162.231C162.864 162.862 161.895 163.481 160.953 163.953C158.503 165.137 156.145 166.281 153.648 167.206C152.768 167.53 151.846 167.806 150.935 168.065L150.923 168.104Z" fill="#164952"/>
<path d="M161.631 115.017C162.011 113.919 162.223 112.772 162.325 111.595C162.37 110.917 162.524 110.209 162.504 109.505C162.5 108.832 162.356 108.161 162.28 107.493C161.814 103.841 160.549 100.57 158.849 97.256C157.861 95.3464 156.289 93.7691 155.029 92.1523C154.163 91.052 153.062 89.9779 151.999 88.9598C151.668 88.6532 151.318 88.4395 151.032 88.1356C148.952 86.0574 146.486 84.3682 144.075 82.6644C142.034 81.2202 139.939 79.849 137.84 78.4641C136.008 77.2565 133.951 75.8606 132.126 74.8416C129.468 73.3649 126.487 70.7084 129.772 72.178C133.049 73.6425 136.486 76.3085 139.796 78.4963C144.694 81.7518 149.633 84.9379 153.809 89.1849C156.165 91.5843 158.284 94.2742 159.934 97.236C162.398 101.649 163.877 106.787 163.349 111.921C163.097 114.258 162.316 116.509 161.235 118.622C160.768 119.472 160.273 119.81 160.206 119.505C160.012 118.781 160.689 117.729 161.631 115.017Z" fill="#164952"/>
<path d="M95.3073 46.472C96.849 47.8817 97.9784 48.8455 99.1028 49.818C100.022 50.6258 100.53 51.3463 101.361 51.9875C102.848 53.1117 104.686 54.127 106.142 55.4061C107.456 56.5692 109.512 57.9292 111.021 59.0547C113.608 60.9751 116.788 63.3658 119.451 65.0534C120.578 65.7617 121.227 66.737 122.325 67.0359C122.608 67.2455 122.823 67.4734 122.748 67.5227C122.594 67.6299 122.233 67.5949 121.843 67.5311C121.373 67.4447 120.726 67.025 119.972 66.4511C119.706 66.2515 119.256 66.0721 118.88 65.8434C118.2 65.4398 117.478 65.0111 116.838 64.5605C114.895 63.185 113.005 61.7588 111.106 60.3277C109.562 59.1821 106.924 57.2317 105.393 56.2438C104.391 55.6191 103.015 54.5823 102.287 53.8621C101.433 53.0223 100.581 52.438 99.8504 51.8431C98.6331 50.8516 97.4074 49.7745 96.1791 48.742C95.2006 47.8768 94.1851 46.9557 93.2912 46.0239C92.3381 45.0348 91.9539 44.1202 92.666 44.6468C93.6489 45.3644 94.2979 45.3003 95.3073 46.472Z" fill="#164952"/>
<path d="M173.139 121.684L172.664 120.867L172.138 120.078C171.793 119.556 171.453 119.025 171.057 118.53C169.979 116.996 168.655 115.631 167.392 114.278C166.909 113.815 166.468 113.318 165.99 112.846C165.494 112.386 164.993 111.912 164.42 111.466C163.176 110.54 161.778 109.721 160.578 108.82C160.402 108.684 159.836 108.484 159.461 108.314C159.081 108.152 158.552 108.009 158.315 107.86C156.84 106.974 155.111 106.449 153.395 106.082C152.506 105.881 151.318 105.818 151.038 105.483C150.921 105.346 150.613 105.18 150.745 105.071C150.914 104.938 151.325 104.806 151.882 104.781C152.321 104.781 153.27 104.878 153.721 105.057C154.178 105.206 154.662 105.347 155.145 105.51C155.629 105.651 156.116 105.828 156.603 106.005C157.577 106.337 158.511 106.761 159.337 107.249C159.498 107.331 160.017 107.411 160.343 107.587C160.812 107.835 161.296 108.196 161.722 108.418C163.89 109.543 165.693 111.081 167.412 112.743C168.773 114.025 170.046 115.58 171.334 116.97C171.621 117.332 172.458 118.404 173.138 119.605C173.506 120.187 173.819 120.806 174.083 121.329C174.347 121.851 174.564 122.276 174.643 122.518C174.837 123.023 175.125 123.604 175.394 124.118C175.697 124.812 175.783 125.243 175.62 125.207C175.324 125.14 174.99 124.958 174.634 124.695C174.557 124.628 174.251 124.058 174.08 123.694C173.934 123.367 173.784 123.027 173.629 122.695L173.124 121.71L173.139 121.684Z" fill="#164952"/>
<path d="M70.1441 15.3382C69.971 14.938 69.8016 14.5515 69.6444 14.1837C69.2306 13.2404 68.9827 12.3698 68.6022 11.4689C68.2254 10.5816 67.7676 9.77453 67.4504 8.86394C67.0729 7.83772 66.5853 6.48232 66.2242 5.10763C65.8086 3.74759 65.5332 2.36459 65.3789 1.35177C65.086 -0.560928 65.2295 -0.189412 65.9027 0.984486C66.1378 1.39733 66.393 1.47537 66.5717 2.0058C66.7637 2.61319 66.896 3.54404 67.1356 4.32902C67.6983 6.3744 68.4809 8.33889 69.2262 10.328C69.604 11.2736 69.9399 12.1719 70.3131 13.0455C70.7049 13.9069 71.1018 14.7595 71.5219 15.6718C72.1848 16.9436 72.6524 18.3337 73.4173 19.5489C74.0936 20.5975 74.1124 21.1049 73.6091 20.7566C72.6718 20.1 71.1562 17.5853 70.1441 15.3382Z" fill="#164952"/>
<path d="M77.2107 26.9359C77.6544 27.0073 78.6183 27.8178 80.0505 29.8572C80.0505 29.8572 80.2882 30.2254 80.5346 30.5986C80.7947 30.9681 81.0621 31.365 81.0991 31.421C81.497 32.0318 81.9988 32.7025 82.4574 33.3483C82.8064 33.8039 84.1264 35.3974 84.3699 35.5957C85.2449 36.3202 86.0661 37.4179 86.918 38.3023C87.67 39.0598 87.9203 39.6662 87.3351 39.3399C86.5283 38.8972 85.7429 38.3976 84.5943 37.3072C83.9755 36.719 83.9136 36.4061 83.5446 35.9852C82.8399 35.1858 82.3364 34.6179 81.8082 34.0128C81.3037 33.3866 80.8155 32.7122 80.1502 31.7045C79.4196 30.5899 78.4252 29.3922 77.4112 28.1486C76.8464 27.4068 76.8152 26.8808 77.2107 26.9359Z" fill="#164952"/>
<path d="M144.123 125.565C146.593 126.587 148.848 126.399 150.898 125.909C152.015 125.595 152.156 125.711 152.425 125.785C152.827 125.868 151.344 126.917 150.216 127.131C149.058 127.317 147.874 127.407 146.695 127.269C145.356 127.189 144.201 126.569 142.883 126.212C142.669 126.123 141.758 125.62 141.641 125.402C141.173 124.774 140.876 124.487 140.474 124.624C139.692 124 138.936 123.309 138.334 122.511C138.255 122.408 138.328 122.081 138.53 122.151C138.798 122.248 139.08 122.399 139.494 122.662C139.692 122.799 139.919 122.965 140.162 123.185C140.427 123.385 140.74 123.623 141.09 123.918C142.17 124.726 143.374 125.341 144.123 125.565Z" fill="#164952"/>
<path d="M141.083 106.305C141.873 105.838 142.915 105.573 144.043 105.139C144.569 104.888 146.111 104.878 146.061 105.023C146.002 105.266 145.792 105.549 145.521 105.819C145.465 105.856 144.581 106.108 144.432 106.126C144.042 106.12 143.651 106.218 143.297 106.371C142.939 106.511 142.594 106.669 142.314 106.854C140.856 107.699 139.5 108.648 138.439 109.825C137.986 110.291 137.774 110.677 137.504 111.225C137.252 111.761 137.057 112.26 136.805 112.576C136.623 112.91 136.434 113.078 136.323 112.91C136.274 112.836 136.205 112.715 136.138 112.85C135.915 113.356 135.892 112.858 135.969 112.683C136.104 112.31 136.237 111.879 136.321 111.454C136.405 111.029 136.587 110.673 136.899 110.552C136.899 110.552 137.06 110.253 137.062 110.231C137.027 109.991 137.159 109.663 137.416 109.338C137.66 108.994 137.983 108.615 138.37 108.284C139.099 107.562 139.979 106.938 141.083 106.305Z" fill="#164952"/>
<path d="M101.674 170.188C100.469 169.955 99.2558 169.716 98.0912 169.413C96.8287 169.1 96.5433 168.854 97.2136 168.733C97.6581 168.644 98.1681 168.58 98.7661 168.544C100.141 168.483 101.857 169.07 103.407 169.307C104.362 169.431 104.603 169.755 105.048 170.023C105.74 170.446 103.943 170.217 104.183 170.482C104.204 170.506 103.667 170.496 103.373 170.465C102.821 170.401 102.255 170.281 101.692 170.176L101.674 170.188Z" fill="#164952"/>
</svg>
