<svg width="308" height="308" viewBox="0 0 308 308" fill="none" xmlns="http://www.w3.org/2000/svg">
<path d="M184.973 159.161C186.287 165.994 187.244 172.958 187.799 179.887C187.931 181.509 188.852 182.885 190.159 183.64C190.961 184.103 191.917 184.345 192.927 184.253C195.546 184.05 197.496 181.745 197.293 179.125C196.715 171.846 195.703 164.541 194.312 157.354C193.813 154.76 191.316 153.094 188.735 153.572C186.162 154.083 184.474 156.567 184.973 159.161Z" fill="white"/>
<path d="M165.539 181.181C162.901 181.317 160.901 183.565 161.037 186.202C161.408 193.109 161.359 200.111 160.836 207.008C160.7 208.898 161.678 210.615 163.217 211.504C163.808 211.845 164.492 212.072 165.241 212.138C167.859 212.328 170.149 210.36 170.339 207.742C170.876 200.431 170.96 193.028 170.548 185.704C170.403 183.033 168.156 181.032 165.539 181.181Z" fill="white"/>
<path d="M193.227 196.153C190.603 196.072 188.394 198.144 188.313 200.768C188.104 207.706 187.487 214.717 186.508 221.576C186.236 223.556 187.203 225.436 188.849 226.386C189.355 226.678 189.943 226.877 190.559 226.98C193.155 227.354 195.576 225.546 195.963 222.929C197.007 215.714 197.635 208.343 197.854 201.046C197.935 198.422 195.885 196.226 193.227 196.153Z" fill="white"/>
<path d="M223.664 169.69C223.373 167.076 220.998 165.199 218.384 165.489C215.77 165.779 213.893 168.154 214.183 170.769C214.968 177.689 215.417 184.754 215.534 191.711C215.571 193.448 216.528 194.957 217.92 195.76C218.637 196.174 219.485 196.411 220.37 196.387C223.001 196.36 225.107 194.173 225.059 191.53C224.958 184.301 224.483 176.94 223.664 169.69Z" fill="white"/>
<path d="M188.22 238.678C185.673 238.023 183.072 239.558 182.396 242.092C180.65 248.818 178.503 255.508 176.018 262.004C175.166 264.211 176.097 266.689 178.08 267.834C178.291 267.955 178.535 268.068 178.758 268.169C181.222 269.113 183.979 267.893 184.923 265.429C187.536 258.614 189.782 251.559 191.635 244.502C192.302 241.934 190.788 239.345 188.22 238.678Z" fill="white"/>
<path d="M206.943 106.352C204.082 99.6665 200.859 93.0248 197.368 86.6508C196.109 84.3494 193.204 83.4877 190.903 84.7461C188.602 86.0046 187.74 88.9096 188.998 91.211C192.33 97.3245 195.419 103.664 198.155 110.08C198.576 111.054 199.283 111.828 200.147 112.327C201.413 113.057 202.965 113.194 204.408 112.593C206.847 111.583 207.966 108.77 206.943 106.352Z" fill="white"/>
<path d="M154.434 121.901C151.319 115.266 147.705 108.764 143.754 102.603C142.338 100.379 139.387 99.7439 137.163 101.16C134.94 102.576 134.304 105.527 135.72 107.751C139.44 113.582 142.847 119.711 145.81 125.977C146.235 126.897 146.923 127.604 147.725 128.067C149.032 128.822 150.672 128.953 152.143 128.256C154.534 127.133 155.535 124.28 154.434 121.901Z" fill="white"/>
<path d="M111.853 193.997C109.228 193.916 107.011 195.954 106.918 198.6C106.682 205.437 105.769 212.278 104.235 218.929C103.761 221.017 104.715 223.115 106.487 224.138C106.888 224.369 107.325 224.537 107.799 224.642C110.361 225.221 112.932 223.641 113.512 221.079C115.19 213.837 116.172 206.389 116.422 198.941C116.537 196.308 114.499 194.09 111.853 193.997Z" fill="white"/>
<path d="M132.124 171.844C133.321 178.637 133.984 185.572 134.117 192.454C134.154 194.191 135.09 195.687 136.503 196.503C137.22 196.917 138.068 197.154 138.974 197.143C141.618 197.094 143.691 194.916 143.663 192.285C143.527 184.923 142.805 177.504 141.55 170.228C141.106 167.637 138.624 165.895 136.034 166.34C133.388 166.781 131.659 169.241 132.124 171.844Z" fill="white"/>
<path d="M153.441 145.345C155.565 151.942 157.275 158.722 158.546 165.531C158.821 166.955 159.689 168.131 160.849 168.8C161.798 169.348 162.93 169.58 164.1 169.355C166.681 168.878 168.402 166.384 167.924 163.802C166.579 156.586 164.762 149.407 162.519 142.431C161.72 139.917 159.02 138.555 156.506 139.353C154.026 140.143 152.642 142.831 153.441 145.345Z" fill="white"/>
<path d="M30.3908 212.402C33.1549 207.615 34.7216 202.417 35.03 196.915C35.1777 194.272 33.185 192.025 30.5426 191.877C27.9002 191.73 25.653 193.722 25.5053 196.365C25.2882 200.345 24.1324 204.149 22.1233 207.629L30.3908 212.402Z" fill="white"/>
<path d="M138.263 208.991C135.654 208.638 133.254 210.458 132.901 213.066C131.967 219.895 130.49 226.691 128.513 233.282C127.86 235.436 128.825 237.709 130.681 238.781C130.997 238.963 131.338 239.104 131.691 239.223C134.21 239.975 136.859 238.551 137.623 236.011C139.739 228.937 141.333 221.647 142.317 214.341C142.712 211.757 140.871 209.344 138.263 208.991Z" fill="white"/>
<path d="M224.332 213.438C224.556 210.811 222.599 208.501 219.96 208.299C217.333 208.076 215.023 210.032 214.821 212.671C214.24 219.619 213.318 226.623 212.067 233.465C211.704 235.506 212.677 237.473 214.365 238.448C214.829 238.715 215.341 238.899 215.891 239.019C218.48 239.502 220.974 237.764 221.423 235.183C222.781 228.009 223.732 220.713 224.332 213.438Z" fill="white"/>
<path d="M198.37 290.797C196.032 289.588 193.161 290.517 191.951 292.856C190.281 296.138 188.503 299.414 186.664 302.598L194.931 307.371C196.855 304.039 198.707 300.637 200.462 297.207C201.639 294.878 200.709 292.007 198.37 290.797Z" fill="white"/>
<path d="M188.979 136.054C186.823 129.073 184.238 122.153 181.301 115.452C180.246 113.043 177.433 111.925 175.023 112.981C172.614 114.036 171.496 116.85 172.552 119.259C175.345 125.624 177.786 132.208 179.853 138.856C180.228 140.057 181.012 140.988 182.025 141.572C183.143 142.218 184.495 142.408 185.829 141.997C188.352 141.232 189.756 138.556 188.979 136.054Z" fill="white"/>
<path d="M171.415 95.8529C167.758 89.5234 163.71 83.3341 159.393 77.4668C157.828 75.3544 154.855 74.9032 152.722 76.4553C150.609 78.0197 150.146 81.0142 151.71 83.1266C155.827 88.709 159.673 94.6134 163.141 100.637C163.576 101.394 164.195 101.977 164.891 102.379C166.325 103.207 168.123 103.26 169.67 102.382C171.932 101.045 172.719 98.1242 171.415 95.8529Z" fill="white"/>
<path d="M100.897 253.109C102.931 249.586 104.786 245.934 106.425 242.268C107.508 239.856 106.433 237.042 104.021 235.959C101.61 234.876 98.7955 235.951 97.7124 238.363C96.2112 241.742 94.4925 245.108 92.6295 248.335L100.897 253.109Z" fill="white"/>
<path d="M175.975 285.459C177.185 283.121 176.3 280.22 173.916 279.04C171.578 277.831 168.707 278.76 167.497 281.099C166.126 283.766 164.667 286.439 163.157 289.054L171.425 293.828C172.999 291.053 174.531 288.253 175.975 285.459Z" fill="white"/>
<path d="M203.267 279.929C205.719 280.894 208.485 279.707 209.45 277.256C212.127 270.477 214.499 263.495 216.478 256.511C217.208 253.98 215.731 251.327 213.209 250.63C210.678 249.9 208.025 251.377 207.328 253.899C205.41 260.582 203.154 267.265 200.582 273.767C199.696 275.983 200.615 278.482 202.619 279.639C202.842 279.739 203.053 279.861 203.267 279.929Z" fill="white"/>
<path d="M154.485 253.37C154.738 253.516 155.025 253.653 155.314 253.736C157.793 254.605 160.524 253.285 161.393 250.806C163.816 243.881 165.784 236.722 167.284 229.545C167.821 226.959 166.15 224.447 163.597 223.901C161.011 223.364 158.499 225.035 157.953 227.589C156.542 234.367 154.676 241.107 152.417 247.648C151.607 249.88 152.545 252.249 154.485 253.37Z" fill="white"/>
<path d="M129.638 256.71C130.784 254.335 129.755 251.491 127.401 250.357C125.026 249.211 122.181 250.24 121.047 252.594C119.538 255.744 117.899 258.875 116.146 261.912L124.413 266.686C126.267 263.426 128.04 260.062 129.638 256.71Z" fill="white"/>
<path d="M150.683 264.728C148.332 263.539 145.47 264.502 144.282 266.853C142.831 269.755 141.272 272.651 139.652 275.456L147.92 280.23C149.637 277.256 151.294 274.191 152.821 271.108C153.976 268.766 153.055 265.928 150.683 264.728Z" fill="white"/>
<path d="M214.547 126.885C213.749 124.371 211.061 122.988 208.559 123.765C206.045 124.563 204.662 127.251 205.439 129.753C207.539 136.393 209.355 143.234 210.801 150.031C211.1 151.412 211.95 152.522 213.089 153.179C214.08 153.752 215.279 153.965 216.461 153.72C219.025 153.176 220.682 150.645 220.117 148.069C218.623 140.964 216.749 133.836 214.547 126.885Z" fill="white"/>
<path d="M42.0935 149.027C38.7631 145.979 35.0383 143.322 31.0944 141.045L26.3333 149.292C29.6867 151.228 32.8364 153.468 35.6704 156.06C35.9291 156.294 36.2211 156.519 36.5164 156.689C38.4145 157.785 40.8778 157.464 42.4077 155.788C44.1624 153.821 44.049 150.802 42.0935 149.027Z" fill="white"/>
<path d="M56.1185 125.32C52.5487 122.443 48.6787 119.843 44.6715 117.53L39.9104 125.776C43.4958 127.846 46.9473 130.148 50.1528 132.73C50.3394 132.894 50.5503 133.016 50.7612 133.138C52.7648 134.295 55.3555 133.85 56.853 131.987C58.5023 129.958 58.1592 126.948 56.1185 125.32Z" fill="white"/>
<path d="M70.1302 101.83C66.3609 99.0066 62.361 96.388 58.2484 94.0135L53.4873 102.26C57.2625 104.44 60.9371 106.842 64.4144 109.44C64.5709 109.559 64.7397 109.656 64.9084 109.754C66.9753 110.947 69.6358 110.43 71.0943 108.488C72.6714 106.39 72.2286 103.407 70.1302 101.83Z" fill="white"/>
<path d="M21.7793 180.658C23.3822 181.584 25.4698 181.523 27.0579 180.331C29.1614 178.734 29.5583 175.757 27.9818 173.666C25.1498 169.95 21.5809 166.877 17.5648 164.53L12.8037 172.777C15.7353 174.469 18.3503 176.71 20.3924 179.408C20.7646 179.932 21.2521 180.354 21.7793 180.658Z" fill="white"/>
<path d="M64.1302 147.293C68.1478 152.706 71.4683 158.644 74.0049 164.917C74.4232 165.946 75.1507 166.732 76.0366 167.243C77.2598 167.949 78.7997 168.107 80.1978 167.536C82.6458 166.56 83.8061 163.771 82.8292 161.322C79.9878 154.311 76.2627 147.661 71.7707 141.609C70.2063 139.496 67.2118 139.033 65.0873 140.618C63.0082 142.174 62.5448 145.168 64.1302 147.293Z" fill="white"/>
<path d="M49.5382 165.359C47.1558 166.514 46.1886 169.358 47.344 171.741C50.2385 177.686 51.9743 184.031 52.5068 190.61C52.6386 192.232 53.572 193.587 54.8796 194.342C55.6811 194.804 56.6375 195.047 57.6468 194.955C60.2788 194.731 62.2284 192.426 62.0134 189.827C61.3774 182.064 59.3174 174.576 55.908 167.574C54.7648 165.17 51.8995 164.191 49.5382 165.359Z" fill="white"/>
<path d="M112.194 31.7977C107.93 28.8577 103.481 26.0921 98.9796 23.4652L94.2063 31.7327C98.5088 34.2168 102.735 36.8817 106.813 39.6577C106.918 39.7186 107.011 39.8006 107.117 39.8615C109.247 41.0913 112.011 40.4935 113.433 38.4186C114.926 36.2715 114.362 33.3026 112.194 31.7977Z" fill="white"/>
<path d="M84.1377 78.4472C80.2053 75.6145 76.0546 72.965 71.8154 70.5175L67.0421 78.785C71.0071 81.0742 74.8837 83.5654 78.5663 86.1977C78.7017 86.304 78.8283 86.3771 78.9759 86.4623C81.0639 87.6678 83.7698 87.121 85.2317 85.1248C86.7698 82.9477 86.2937 79.9732 84.1377 78.4472Z" fill="white"/>
<path d="M123.782 6.90727C120.107 4.50457 116.338 2.21621 112.5 6.14513e-05L107.727 8.26759C111.396 10.3863 115.03 12.5683 118.535 14.8736C118.62 14.9223 118.704 14.971 118.788 15.0197C120.961 16.2739 123.749 15.6338 125.142 13.5135C126.604 11.3209 125.986 8.34889 123.782 6.90727Z" fill="white"/>
<path d="M98.1708 55.1136C94.0665 52.2377 89.7559 49.524 85.3902 47.0035L80.6291 55.2499C84.7628 57.6365 88.8203 60.2041 92.7049 62.9249C92.8193 63.019 92.9458 63.092 93.0512 63.1529C95.1603 64.3706 97.9117 63.7938 99.3435 61.7522C100.848 59.584 100.339 56.6184 98.1708 55.1136Z" fill="white"/>
<path d="M3.99061 187.992L0.836866 193.455C1.59613 193.893 1.86355 194.891 1.42519 195.651L6.88764 198.804C9.06726 195.029 7.76582 190.172 3.99061 187.992Z" fill="white"/>
<path d="M118.869 132.75C122.038 138.854 124.786 145.249 127.001 151.786C127.379 152.933 128.155 153.83 129.125 154.391C130.264 155.048 131.704 155.233 133.041 154.767C135.525 153.924 136.866 151.211 136.022 148.727C133.649 141.733 130.722 134.869 127.317 128.347C126.104 126.016 123.223 125.112 120.892 126.325C118.56 127.538 117.656 130.419 118.869 132.75Z" fill="white"/>
<path d="M83.2359 179.077C80.6185 179.421 78.7833 181.821 79.1281 184.438C80.0136 191.136 80.0527 197.936 79.2377 204.608C78.9993 206.579 79.982 208.384 81.5849 209.309C82.1333 209.626 82.7214 209.825 83.3826 209.897C86.0031 210.229 88.3736 208.364 88.7055 205.743C89.6239 198.259 89.5792 190.641 88.5886 183.151C88.2527 180.567 85.8534 178.732 83.2359 179.077Z" fill="white"/>
<path d="M77.382 239.532C79.586 235.714 81.5158 231.739 83.1227 227.689C84.0881 225.238 82.9012 222.471 80.4497 221.506C77.9982 220.541 75.232 221.727 74.2666 224.179C72.8277 227.791 71.0961 231.375 69.1356 234.771L77.382 239.532Z" fill="white"/>
<path d="M100.522 158.293C102.852 164.728 104.59 171.412 105.647 178.153C105.885 179.64 106.762 180.849 107.964 181.543C108.871 182.067 109.969 182.307 111.094 182.113C113.693 181.702 115.465 179.266 115.054 176.666C113.89 169.33 111.993 162.048 109.456 155.043C108.558 152.556 105.83 151.291 103.343 152.189C100.889 153.078 99.6236 155.806 100.522 158.293Z" fill="white"/>
<path d="M59.6085 212.792C60.3597 210.273 58.9489 207.603 56.4299 206.852C53.911 206.1 51.2405 207.511 50.4892 210.03C49.318 213.909 47.6974 217.642 45.6517 221.185L53.9193 225.958C56.297 221.791 58.2107 217.356 59.6085 212.792Z" fill="white"/>
<path d="M185.92 67.95C181.83 61.9328 177.382 56.0468 172.698 50.4739C171.018 48.4637 168.002 48.1845 165.979 49.8852C163.957 51.5859 163.69 54.5812 165.391 56.6035C169.871 61.9459 174.126 67.5803 178.036 73.325C178.448 73.9279 178.986 74.4076 179.598 74.7607C181.137 75.6496 183.113 75.6373 184.682 74.5749C186.855 73.1015 187.415 70.1346 185.92 67.95Z" fill="white"/>
<path d="M145.399 60.4984C140.451 55.1388 135.118 50.0071 129.611 45.225C127.631 43.4914 124.607 43.7135 122.894 45.7055C121.182 47.6976 121.383 50.7102 123.375 52.4227C128.623 56.971 133.676 61.8568 138.41 66.9526C138.738 67.3105 139.123 67.6174 139.524 67.8487C141.296 68.8716 143.577 68.6703 145.148 67.2153C147.065 65.4537 147.182 62.4275 145.399 60.4984Z" fill="white"/>
<path d="M157.865 34.3758C152.683 29.2749 147.162 24.3719 141.501 19.8096C139.451 18.1482 136.453 18.4701 134.792 20.5198C133.13 22.5695 133.452 25.5674 135.502 27.2289C140.935 31.6029 146.185 36.2932 151.162 41.1636C151.451 41.4428 151.785 41.692 152.123 41.8868C153.958 42.9462 156.363 42.6759 157.899 41.0879C159.756 39.2354 159.73 36.2116 157.865 34.3758Z" fill="white"/>
<path d="M94.3706 99.5413C99.2727 104.396 103.835 109.645 107.909 115.203C108.323 115.752 108.811 116.174 109.359 116.491C110.941 117.404 112.995 117.353 114.58 116.215C116.693 114.65 117.156 111.656 115.592 109.544C111.202 103.607 106.337 97.9573 101.061 92.7745C99.1967 90.9387 96.164 90.9313 94.316 92.817C92.4713 94.6484 92.4971 97.6722 94.3706 99.5413Z" fill="white"/>
<path d="M79.5165 123.274C84.0883 128.36 88.1748 133.897 91.7071 139.761C92.1328 140.485 92.7314 141.056 93.4063 141.445C94.8615 142.286 96.7129 142.342 98.2426 141.397C100.484 140.048 101.228 137.103 99.8787 134.862C96.0407 128.456 91.5698 122.416 86.5982 116.902C84.8277 114.952 81.8258 114.794 79.8545 116.552C77.9165 118.301 77.7671 121.336 79.5165 123.274Z" fill="white"/>
<path d="M108.944 75.9533C114.065 80.625 118.912 85.673 123.383 90.9821C123.749 91.4187 124.186 91.7831 124.65 92.051C126.337 93.0252 128.528 92.8839 130.101 91.5708C132.124 89.8701 132.37 86.8626 130.69 84.8524C125.976 79.2341 120.819 73.8947 115.41 68.9439C113.454 67.1681 110.457 67.2937 108.681 69.2493C106.854 71.1472 107.001 74.1564 108.944 75.9533Z" fill="white"/>
</svg>
