<svg width="1920" height="80" viewBox="0 0 1920 80" fill="none" xmlns="http://www.w3.org/2000/svg">
<g opacity="0.12" clip-path="url(#clip0_137_1716)">
<line x1="-40.9878" y1="82.75" x2="9.81905" y2="-5.24999" stroke="#050505"/>
<line x1="-27.1674" y1="82.75" x2="23.6394" y2="-5.24999" stroke="#050505"/>
<line x1="-13.3549" y1="82.75" x2="37.4519" y2="-5.24999" stroke="#050505"/>
<line x1="0.465425" y1="82.75" x2="51.2722" y2="-5.24999" stroke="#050505"/>
<line x1="14.2857" y1="82.75" x2="65.0926" y2="-5.24999" stroke="#050505"/>
<line x1="28.0982" y1="82.75" x2="78.9051" y2="-5.24999" stroke="#050505"/>
<line x1="41.9185" y1="82.75" x2="92.7254" y2="-5.24999" stroke="#050505"/>
<line x1="55.7389" y1="82.75" x2="106.546" y2="-5.24999" stroke="#050505"/>
<line x1="69.5514" y1="82.75" x2="120.358" y2="-5.24999" stroke="#050505"/>
<line x1="83.3717" y1="82.75" x2="134.178" y2="-5.24999" stroke="#050505"/>
<line x1="97.192" y1="82.75" x2="147.999" y2="-5.24999" stroke="#050505"/>
<line x1="111.004" y1="82.75" x2="161.811" y2="-5.24999" stroke="#050505"/>
<line x1="124.825" y1="82.75" x2="175.632" y2="-5.24999" stroke="#050505"/>
<line x1="138.645" y1="82.75" x2="189.452" y2="-5.24999" stroke="#050505"/>
<line x1="152.458" y1="82.75" x2="203.264" y2="-5.24999" stroke="#050505"/>
<line x1="166.278" y1="82.75" x2="217.085" y2="-5.24999" stroke="#050505"/>
<line x1="180.098" y1="82.75" x2="230.905" y2="-5.24999" stroke="#050505"/>
<line x1="193.911" y1="82.75" x2="244.718" y2="-5.24999" stroke="#050505"/>
<line x1="207.723" y1="82.75" x2="258.53" y2="-5.24999" stroke="#050505"/>
<line x1="221.551" y1="82.75" x2="272.358" y2="-5.24999" stroke="#050505"/>
<line x1="235.364" y1="82.75" x2="286.171" y2="-5.24999" stroke="#050505"/>
<line x1="249.184" y1="82.75" x2="299.991" y2="-5.24999" stroke="#050505"/>
<line x1="263.004" y1="82.75" x2="313.811" y2="-5.24999" stroke="#050505"/>
<line x1="276.817" y1="82.75" x2="327.624" y2="-5.24999" stroke="#050505"/>
<line x1="290.637" y1="82.75" x2="341.444" y2="-5.24999" stroke="#050505"/>
<line x1="304.458" y1="82.75" x2="355.264" y2="-5.24999" stroke="#050505"/>
<line x1="318.27" y1="82.75" x2="369.077" y2="-5.24999" stroke="#050505"/>
<line x1="332.083" y1="82.75" x2="382.889" y2="-5.24999" stroke="#050505"/>
<line x1="345.903" y1="82.75" x2="396.71" y2="-5.24999" stroke="#050505"/>
<line x1="359.723" y1="82.75" x2="410.53" y2="-5.24999" stroke="#050505"/>
<line x1="373.544" y1="82.75" x2="424.35" y2="-5.24999" stroke="#050505"/>
<line x1="387.364" y1="82.75" x2="438.171" y2="-5.24999" stroke="#050505"/>
<line x1="401.176" y1="82.75" x2="451.983" y2="-5.24999" stroke="#050505"/>
<line x1="414.997" y1="82.75" x2="465.803" y2="-5.24999" stroke="#050505"/>
<line x1="428.817" y1="82.75" x2="479.624" y2="-5.24999" stroke="#050505"/>
<line x1="442.629" y1="82.75" x2="493.436" y2="-5.24999" stroke="#050505"/>
<line x1="456.442" y1="82.75" x2="507.249" y2="-5.24999" stroke="#050505"/>
<line x1="470.27" y1="82.75" x2="521.077" y2="-5.24999" stroke="#050505"/>
<line x1="484.083" y1="82.75" x2="534.889" y2="-5.24999" stroke="#050505"/>
<line x1="497.895" y1="82.75" x2="548.702" y2="-5.24999" stroke="#050505"/>
<line x1="511.715" y1="82.75" x2="562.522" y2="-5.24999" stroke="#050505"/>
<line x1="525.536" y1="82.75" x2="576.343" y2="-5.24999" stroke="#050505"/>
<line x1="539.348" y1="82.75" x2="590.155" y2="-5.24999" stroke="#050505"/>
<line x1="553.169" y1="82.75" x2="603.975" y2="-5.24999" stroke="#050505"/>
<line x1="566.989" y1="82.75" x2="617.796" y2="-5.24999" stroke="#050505"/>
<line x1="580.801" y1="82.75" x2="631.608" y2="-5.24999" stroke="#050505"/>
<line x1="594.629" y1="82.75" x2="645.436" y2="-5.24999" stroke="#050505"/>
<line x1="608.442" y1="82.75" x2="659.249" y2="-5.24999" stroke="#050505"/>
<line x1="622.254" y1="82.75" x2="673.061" y2="-5.24999" stroke="#050505"/>
<line x1="636.075" y1="82.75" x2="686.882" y2="-5.24999" stroke="#050505"/>
<line x1="649.895" y1="82.75" x2="700.702" y2="-5.24999" stroke="#050505"/>
<line x1="663.708" y1="82.75" x2="714.514" y2="-5.24999" stroke="#050505"/>
<line x1="677.528" y1="82.75" x2="728.335" y2="-5.24999" stroke="#050505"/>
<line x1="691.348" y1="82.75" x2="742.155" y2="-5.24999" stroke="#050505"/>
<line x1="705.161" y1="82.75" x2="755.968" y2="-5.24999" stroke="#050505"/>
<line x1="718.981" y1="82.75" x2="769.788" y2="-5.24999" stroke="#050505"/>
<line x1="732.801" y1="82.75" x2="783.608" y2="-5.24999" stroke="#050505"/>
<line x1="746.614" y1="82.75" x2="797.421" y2="-5.24999" stroke="#050505"/>
<line x1="760.434" y1="82.75" x2="811.241" y2="-5.24999" stroke="#050505"/>
<line x1="774.254" y1="82.75" x2="825.061" y2="-5.24999" stroke="#050505"/>
<line x1="788.067" y1="82.75" x2="838.874" y2="-5.24999" stroke="#050505"/>
<line x1="801.887" y1="82.75" x2="852.694" y2="-5.24999" stroke="#050505"/>
<line x1="815.708" y1="82.75" x2="866.514" y2="-5.24999" stroke="#050505"/>
<line x1="829.52" y1="82.75" x2="880.327" y2="-5.24999" stroke="#050505"/>
<line x1="843.34" y1="82.75" x2="894.147" y2="-5.24999" stroke="#050505"/>
<line x1="857.161" y1="82.75" x2="907.968" y2="-5.24999" stroke="#050505"/>
<line x1="870.973" y1="82.75" x2="921.78" y2="-5.24999" stroke="#050505"/>
<line x1="884.794" y1="82.75" x2="935.6" y2="-5.24999" stroke="#050505"/>
<line x1="898.614" y1="82.75" x2="949.421" y2="-5.24999" stroke="#050505"/>
<line x1="912.426" y1="82.75" x2="963.233" y2="-5.24999" stroke="#050505"/>
<line x1="926.247" y1="82.75" x2="977.053" y2="-5.24999" stroke="#050505"/>
<line x1="940.067" y1="82.75" x2="990.874" y2="-5.24999" stroke="#050505"/>
<line x1="953.879" y1="82.75" x2="1004.69" y2="-5.24999" stroke="#050505"/>
<line x1="967.7" y1="82.75" x2="1018.51" y2="-5.24999" stroke="#050505"/>
<line x1="981.52" y1="82.75" x2="1032.33" y2="-5.24999" stroke="#050505"/>
<line x1="995.333" y1="82.75" x2="1046.14" y2="-5.24999" stroke="#050505"/>
<line x1="1009.15" y1="82.75" x2="1059.96" y2="-5.24999" stroke="#050505"/>
<line x1="1022.97" y1="82.75" x2="1073.78" y2="-5.24999" stroke="#050505"/>
<line x1="1036.79" y1="82.75" x2="1087.59" y2="-5.24999" stroke="#050505"/>
<line x1="1050.61" y1="82.75" x2="1101.41" y2="-5.24999" stroke="#050505"/>
<line x1="1064.43" y1="82.75" x2="1115.23" y2="-5.24999" stroke="#050505"/>
<line x1="1078.24" y1="82.75" x2="1129.05" y2="-5.24999" stroke="#050505"/>
<line x1="1092.06" y1="82.75" x2="1142.87" y2="-5.24999" stroke="#050505"/>
<line x1="1105.88" y1="82.75" x2="1156.69" y2="-5.24999" stroke="#050505"/>
<line x1="1119.69" y1="82.75" x2="1170.5" y2="-5.24999" stroke="#050505"/>
<line x1="1133.51" y1="82.75" x2="1184.32" y2="-5.24999" stroke="#050505"/>
<line x1="1147.33" y1="82.75" x2="1198.14" y2="-5.24999" stroke="#050505"/>
<line x1="1161.15" y1="82.75" x2="1211.95" y2="-5.24999" stroke="#050505"/>
<line x1="1174.97" y1="82.75" x2="1225.77" y2="-5.24999" stroke="#050505"/>
<line x1="1188.79" y1="82.75" x2="1239.59" y2="-5.24999" stroke="#050505"/>
<line x1="1202.6" y1="82.75" x2="1253.41" y2="-5.24999" stroke="#050505"/>
<line x1="1216.42" y1="82.75" x2="1267.23" y2="-5.24999" stroke="#050505"/>
<line x1="1230.24" y1="82.75" x2="1281.05" y2="-5.24999" stroke="#050505"/>
<line x1="1244.05" y1="82.75" x2="1294.86" y2="-5.24999" stroke="#050505"/>
<line x1="1257.87" y1="82.75" x2="1308.68" y2="-5.24999" stroke="#050505"/>
<line x1="1271.69" y1="82.75" x2="1322.5" y2="-5.24999" stroke="#050505"/>
<line x1="1285.5" y1="82.75" x2="1336.31" y2="-5.24999" stroke="#050505"/>
<line x1="1299.32" y1="82.75" x2="1350.12" y2="-5.24999" stroke="#050505"/>
<line x1="1313.15" y1="82.75" x2="1363.95" y2="-5.24999" stroke="#050505"/>
<line x1="1326.96" y1="82.75" x2="1377.76" y2="-5.24999" stroke="#050505"/>
<line x1="1340.77" y1="82.75" x2="1391.58" y2="-5.24999" stroke="#050505"/>
<line x1="1354.6" y1="82.75" x2="1405.41" y2="-5.24999" stroke="#050505"/>
<line x1="1368.41" y1="82.75" x2="1419.22" y2="-5.24999" stroke="#050505"/>
<line x1="1382.23" y1="82.75" x2="1433.04" y2="-5.24999" stroke="#050505"/>
<line x1="1396.05" y1="82.75" x2="1446.86" y2="-5.24999" stroke="#050505"/>
<line x1="1409.86" y1="82.75" x2="1460.67" y2="-5.24999" stroke="#050505"/>
<line x1="1423.68" y1="82.75" x2="1474.48" y2="-5.24999" stroke="#050505"/>
<line x1="1437.5" y1="82.75" x2="1488.31" y2="-5.24999" stroke="#050505"/>
<line x1="1451.32" y1="82.75" x2="1502.12" y2="-5.24999" stroke="#050505"/>
<line x1="1465.13" y1="82.75" x2="1515.94" y2="-5.24999" stroke="#050505"/>
<line x1="1478.96" y1="82.75" x2="1529.76" y2="-5.24999" stroke="#050505"/>
<line x1="1492.77" y1="82.75" x2="1543.58" y2="-5.24999" stroke="#050505"/>
<line x1="1506.58" y1="82.75" x2="1557.39" y2="-5.24999" stroke="#050505"/>
<line x1="1520.4" y1="82.75" x2="1571.21" y2="-5.24999" stroke="#050505"/>
<line x1="1534.22" y1="82.75" x2="1585.03" y2="-5.24999" stroke="#050505"/>
<line x1="1548.04" y1="82.75" x2="1598.84" y2="-5.24999" stroke="#050505"/>
<line x1="1561.86" y1="82.75" x2="1612.67" y2="-5.24999" stroke="#050505"/>
<line x1="1575.68" y1="82.75" x2="1626.48" y2="-5.24999" stroke="#050505"/>
<line x1="1589.49" y1="82.75" x2="1640.3" y2="-5.24999" stroke="#050505"/>
<line x1="1603.31" y1="82.75" x2="1654.12" y2="-5.24999" stroke="#050505"/>
<line x1="1617.13" y1="82.75" x2="1667.94" y2="-5.24999" stroke="#050505"/>
<line x1="1630.95" y1="82.75" x2="1681.76" y2="-5.24999" stroke="#050505"/>
<line x1="1644.76" y1="82.75" x2="1695.57" y2="-5.24999" stroke="#050505"/>
<line x1="1658.58" y1="82.75" x2="1709.39" y2="-5.24999" stroke="#050505"/>
<line x1="1672.4" y1="82.75" x2="1723.2" y2="-5.24999" stroke="#050505"/>
<line x1="1686.22" y1="82.75" x2="1737.02" y2="-5.24999" stroke="#050505"/>
<line x1="1700.04" y1="82.75" x2="1750.84" y2="-5.24999" stroke="#050505"/>
<line x1="1713.85" y1="82.75" x2="1764.66" y2="-5.24999" stroke="#050505"/>
<line x1="1727.67" y1="82.75" x2="1778.47" y2="-5.24999" stroke="#050505"/>
<line x1="1741.49" y1="82.75" x2="1792.3" y2="-5.24999" stroke="#050505"/>
<line x1="1755.3" y1="82.75" x2="1806.11" y2="-5.24999" stroke="#050505"/>
<line x1="1769.12" y1="82.75" x2="1819.93" y2="-5.24999" stroke="#050505"/>
<line x1="1782.94" y1="82.75" x2="1833.75" y2="-5.24999" stroke="#050505"/>
<line x1="1796.75" y1="82.75" x2="1847.56" y2="-5.24999" stroke="#050505"/>
<line x1="1810.58" y1="82.75" x2="1861.38" y2="-5.24999" stroke="#050505"/>
<line x1="1824.4" y1="82.75" x2="1875.2" y2="-5.24999" stroke="#050505"/>
<line x1="1838.21" y1="82.75" x2="1889.01" y2="-5.24999" stroke="#050505"/>
<line x1="1852.03" y1="82.75" x2="1902.83" y2="-5.24999" stroke="#050505"/>
<line x1="1865.85" y1="82.75" x2="1916.66" y2="-5.24999" stroke="#050505"/>
<line x1="1879.66" y1="82.75" x2="1930.47" y2="-5.24999" stroke="#050505"/>
<line x1="1893.48" y1="82.75" x2="1944.29" y2="-5.24999" stroke="#050505"/>
<line x1="1907.3" y1="82.75" x2="1958.11" y2="-5.24999" stroke="#050505"/>
</g>
<defs>
<clipPath id="clip0_137_1716">
<rect width="1920" height="80" fill="white"/>
</clipPath>
</defs>
</svg>
