<svg width="179" height="407" viewBox="0 0 179 407" fill="none" xmlns="http://www.w3.org/2000/svg">
<g opacity="0.26">
<path d="M178.5 40.6818C178.5 51.5992 168.742 61.6463 152.579 68.993C136.462 76.3192 114.16 80.8636 89.5 80.8636C64.8398 80.8636 42.5384 76.3192 26.4208 68.993C10.2581 61.6463 0.5 51.5992 0.5 40.6818C0.5 29.7645 10.2581 19.7173 26.4208 12.3706C42.5384 5.04443 64.8398 0.5 89.5 0.5C114.16 0.5 136.462 5.04443 152.579 12.3706C168.742 19.7173 178.5 29.7645 178.5 40.6818Z" stroke="url(#paint0_linear_137_145)"/>
<path d="M178.5 81.3637C178.5 92.281 168.742 102.328 152.579 109.675C136.462 117.001 114.16 121.546 89.5 121.546C64.8398 121.546 42.5384 117.001 26.4208 109.675C10.2581 102.328 0.5 92.281 0.5 81.3637C0.5 70.4464 10.2581 60.3992 26.4208 53.0525C42.5384 45.7263 64.8398 41.1819 89.5 41.1819C114.16 41.1819 136.462 45.7263 152.579 53.0525C168.742 60.3992 178.5 70.4464 178.5 81.3637Z" stroke="url(#paint1_linear_137_145)"/>
<path d="M178.5 122.045C178.5 132.963 168.742 143.01 152.579 150.357C136.462 157.683 114.16 162.227 89.5 162.227C64.8398 162.227 42.5384 157.683 26.4208 150.357C10.2581 143.01 0.5 132.963 0.5 122.045C0.5 111.128 10.2581 101.081 26.4208 93.7341C42.5384 86.408 64.8398 81.8635 89.5 81.8635C114.16 81.8635 136.462 86.408 152.579 93.7341C168.742 101.081 178.5 111.128 178.5 122.045Z" stroke="url(#paint2_linear_137_145)"/>
<path d="M178.5 162.727C178.5 173.645 168.742 183.692 152.579 191.039C136.462 198.365 114.16 202.909 89.5 202.909C64.8398 202.909 42.5384 198.365 26.4208 191.039C10.2581 183.692 0.5 173.645 0.5 162.727C0.5 151.81 10.2581 141.763 26.4208 134.416C42.5384 127.09 64.8398 122.546 89.5 122.546C114.16 122.546 136.462 127.09 152.579 134.416C168.742 141.763 178.5 151.81 178.5 162.727Z" stroke="url(#paint3_linear_137_145)"/>
<path d="M178.5 203.409C178.5 214.326 168.742 224.374 152.579 231.72C136.462 239.047 114.16 243.591 89.5 243.591C64.8398 243.591 42.5384 239.047 26.4208 231.72C10.2581 224.374 0.5 214.326 0.5 203.409C0.5 192.492 10.2581 182.445 26.4208 175.098C42.5384 167.772 64.8398 163.227 89.5 163.227C114.16 163.227 136.462 167.772 152.579 175.098C168.742 182.445 178.5 192.492 178.5 203.409Z" stroke="url(#paint4_linear_137_145)"/>
<path d="M178.5 244.091C178.5 255.008 168.742 265.056 152.579 272.402C136.462 279.728 114.16 284.273 89.5 284.273C64.8398 284.273 42.5384 279.728 26.4208 272.402C10.2581 265.056 0.5 255.008 0.5 244.091C0.5 233.174 10.2581 223.126 26.4208 215.78C42.5384 208.454 64.8398 203.909 89.5 203.909C114.16 203.909 136.462 208.454 152.579 215.78C168.742 223.126 178.5 233.174 178.5 244.091Z" stroke="url(#paint5_linear_137_145)"/>
<path d="M178.5 284.773C178.5 295.69 168.742 305.737 152.579 313.084C136.462 320.41 114.16 324.954 89.5 324.954C64.8398 324.954 42.5384 320.41 26.4208 313.084C10.2581 305.737 0.5 295.69 0.5 284.773C0.5 273.855 10.2581 263.808 26.4208 256.461C42.5384 249.135 64.8398 244.591 89.5 244.591C114.16 244.591 136.462 249.135 152.579 256.461C168.742 263.808 178.5 273.855 178.5 284.773Z" stroke="url(#paint6_linear_137_145)"/>
<path d="M178.5 325.455C178.5 336.372 168.742 346.419 152.579 353.766C136.462 361.092 114.16 365.636 89.5 365.636C64.8398 365.636 42.5384 361.092 26.4208 353.766C10.2581 346.419 0.5 336.372 0.5 325.455C0.5 314.537 10.2581 304.49 26.4208 297.143C42.5384 289.817 64.8398 285.273 89.5 285.273C114.16 285.273 136.462 289.817 152.579 297.143C168.742 304.49 178.5 314.537 178.5 325.455Z" stroke="url(#paint7_linear_137_145)"/>
<path d="M178.5 366.136C178.5 377.054 168.742 387.101 152.579 394.447C136.462 401.774 114.16 406.318 89.5 406.318C64.8398 406.318 42.5384 401.774 26.4208 394.447C10.2581 387.101 0.5 377.054 0.5 366.136C0.5 355.219 10.2581 345.172 26.4208 337.825C42.5384 330.499 64.8398 325.954 89.5 325.954C114.16 325.954 136.462 330.499 152.579 337.825C168.742 345.172 178.5 355.219 178.5 366.136Z" stroke="url(#paint8_linear_137_145)"/>
</g>
<defs>
<linearGradient id="paint0_linear_137_145" x1="89.5" y1="0" x2="89.5" y2="81.3636" gradientUnits="userSpaceOnUse">
<stop stop-color="#FF8025"/>
<stop offset="0.48" stop-color="#2F584F"/>
<stop offset="1" stop-color="#FF5C5B"/>
</linearGradient>
<linearGradient id="paint1_linear_137_145" x1="89.5" y1="40.6819" x2="89.5" y2="122.046" gradientUnits="userSpaceOnUse">
<stop stop-color="#FF8025"/>
<stop offset="0.48" stop-color="#2F584F"/>
<stop offset="1" stop-color="#FF5C5B"/>
</linearGradient>
<linearGradient id="paint2_linear_137_145" x1="89.5" y1="81.3635" x2="89.5" y2="162.727" gradientUnits="userSpaceOnUse">
<stop stop-color="#FF8025"/>
<stop offset="0.48" stop-color="#2F584F"/>
<stop offset="1" stop-color="#FF5C5B"/>
</linearGradient>
<linearGradient id="paint3_linear_137_145" x1="89.5" y1="122.046" x2="89.5" y2="203.409" gradientUnits="userSpaceOnUse">
<stop stop-color="#FF8025"/>
<stop offset="0.48" stop-color="#2F584F"/>
<stop offset="1" stop-color="#FF5C5B"/>
</linearGradient>
<linearGradient id="paint4_linear_137_145" x1="89.5" y1="162.727" x2="89.5" y2="244.091" gradientUnits="userSpaceOnUse">
<stop stop-color="#FF8025"/>
<stop offset="0.48" stop-color="#2F584F"/>
<stop offset="1" stop-color="#FF5C5B"/>
</linearGradient>
<linearGradient id="paint5_linear_137_145" x1="89.5" y1="203.409" x2="89.5" y2="284.773" gradientUnits="userSpaceOnUse">
<stop stop-color="#FF8025"/>
<stop offset="0.48" stop-color="#2F584F"/>
<stop offset="1" stop-color="#FF5C5B"/>
</linearGradient>
<linearGradient id="paint6_linear_137_145" x1="89.5" y1="244.091" x2="89.5" y2="325.454" gradientUnits="userSpaceOnUse">
<stop stop-color="#FF8025"/>
<stop offset="0.48" stop-color="#2F584F"/>
<stop offset="1" stop-color="#FF5C5B"/>
</linearGradient>
<linearGradient id="paint7_linear_137_145" x1="89.5" y1="284.773" x2="89.5" y2="366.136" gradientUnits="userSpaceOnUse">
<stop stop-color="#FF8025"/>
<stop offset="0.48" stop-color="#2F584F"/>
<stop offset="1" stop-color="#FF5C5B"/>
</linearGradient>
<linearGradient id="paint8_linear_137_145" x1="89.5" y1="325.454" x2="89.5" y2="406.818" gradientUnits="userSpaceOnUse">
<stop stop-color="#FF8025"/>
<stop offset="0.48" stop-color="#2F584F"/>
<stop offset="1" stop-color="#FF5C5B"/>
</linearGradient>
</defs>
</svg>
